<svg xmlns="http://www.w3.org/2000/svg" viewBox="0 0 150 150"><defs><style>.cls-1{fill:#ebb13d;}.cls-2{fill:#3b3b3b;}.cls-3{fill:#242424;}.cls-4{fill:#65bed6;}.cls-5{fill:#78e2ff;}.cls-6{fill:#4c76a1;}.cls-7{fill:#3b5c7d;}.cls-8{fill:#474747;}.cls-9{fill:#454545;}.cls-10{fill:#2b2b2b;}.cls-11{fill:gray;}.cls-12{fill:#666;}.cls-13{fill:#bf7632;}.cls-14{opacity:0.1;}.cls-15{fill:#fff;}.cls-16{fill:#223447;}.cls-17{fill:#fde3a7;}.cls-18{fill:#0e2338;}.cls-19{fill:#6ba6e3;}.cls-20{fill:#e8e8e8;}.cls-21{fill:#303030;}.cls-22{fill:#ed3636;}.cls-23{fill:#5c5c5c;}.cls-24{fill:#363636;}.cls-25{fill:#1a1a1a;}</style></defs><title>Artboard 2 copy 15</title><g id="Layer_16" data-name="Layer 16"><g id="Layer_14" data-name="Layer 14"><polygon class="cls-1" points="84.75 96.15 2.73 96.15 2.73 38.05 2.73 38.05 84.75 38.05 84.75 38.05 84.75 96.15"/><path class="cls-2" d="M89.43,93.74H85.89c-.63,0-1.13-.8-1.13-1.79V71c0-1,.51-1.79,1.13-1.79h3.54c.62,0,1.13.8,1.13,1.79v21C90.56,92.94,90,93.74,89.43,93.74Z"/><path class="cls-3" d="M87.66,93.74H85.89c-.63,0-1.13-.8-1.13-1.79V71c0-1,.51-1.79,1.13-1.79h1.77Z"/><path class="cls-4" d="M117.39,73.78s1.44,3,12.56,3.2c1.87-.08,2.28-1.2,2-2.48l-7.06-15.13c-.2-.94-10.37-.13-10.37-.13C113.39,59.24,116.26,73.78,117.39,73.78Z"/><polygon class="cls-5" points="129.02 74.75 126.73 74.75 120.43 58.99 122.72 58.99 129.02 74.75"/><path class="cls-6" d="M142.37,107.58h-15a2.34,2.34,0,0,1-2.26-1.71l-2.16-7.81a2.34,2.34,0,0,0-2.25-1.71l-26,0a4.13,4.13,0,0,1-4.12-4.13v-30a6.51,6.51,0,0,1,6.51-6.51h26.75c.84,0,1.52,2.88,1.52,3.71l-5,0c-6.94,0-5.06,2.64-4.41,5.72l1.81,6.67c.25.91.3,1.92.9,2.41s1.3.34,2.67.31l11,0c.75,0,6.81.48,11.49,1.24a1.69,1.69,0,0,1,1.4,1.6l1.44,25.84A4.27,4.27,0,0,1,142.37,107.58Z"/><path class="cls-7" d="M142.37,107.58h-15a2.34,2.34,0,0,1-2.26-1.71l-2.16-7.81a2.34,2.34,0,0,0-2.25-1.71l-26,0a4.13,4.13,0,0,1-4.12-4.13V86.64l55.19.65.88,15.78A4.27,4.27,0,0,1,142.37,107.58Z"/><path class="cls-8" d="M145.84,105.71l-12.77-.06a1.68,1.68,0,0,1-1.85-1.41l0-5.44a1.68,1.68,0,0,1,1.87-1.39l12.77.05c1,0,1.86.64,1.85,1.41l0,5.44A1.68,1.68,0,0,1,145.84,105.71Z"/><path class="cls-4" d="M100.76,74.13H113a2,2,0,0,0,2-2.48L112.74,61.2a2.05,2.05,0,0,0-2-1.62h-10a2,2,0,0,0-2,2.05V72.08A2,2,0,0,0,100.76,74.13Z"/><path class="cls-5" d="M114.58,73.37a2,2,0,0,0,.41-1.72L112.74,61.2a2.05,2.05,0,0,0-2-1.62h-10a2,2,0,0,0-1.61.78Z"/><path class="cls-9" d="M10.05,96.11l112.5,0,2.06,8.83H10.05c-1.63,0-1.77-.78-1.81-1.81V97.92A1.81,1.81,0,0,1,10.05,96.11Z"/><path class="cls-10" d="M123.73,106.88a8.69,8.69,0,1,1-8.69-8.7A8.69,8.69,0,0,1,123.73,106.88Z"/><circle class="cls-11" cx="115.04" cy="106.88" r="5.99"/><circle class="cls-12" cx="115.04" cy="106.88" r="3.93"/><path class="cls-12" d="M102.74,106l4.69-10.24a1.34,1.34,0,0,1,1.23-.8h14.49a1.34,1.34,0,0,1,1.24.81l3,11.1h-1.5a1.34,1.34,0,0,1-1.25-.87l-1.71-7.74a1.34,1.34,0,0,0-1.27-.87l-11.89.09a1.34,1.34,0,0,0-1.22.82l-3,6.89a1.33,1.33,0,0,1-1.23.81Z"/><path class="cls-10" d="M39.87,106.92a8.69,8.69,0,1,1-8.69-8.69A8.69,8.69,0,0,1,39.87,106.92Z"/><path class="cls-11" d="M37.16,106.92a6,6,0,1,1-6-6A6,6,0,0,1,37.16,106.92Z"/><path class="cls-12" d="M35.1,106.92A3.93,3.93,0,1,1,31.18,103,3.93,3.93,0,0,1,35.1,106.92Z"/><path class="cls-10" d="M66.45,106.92a8.69,8.69,0,1,1-8.69-8.69A8.69,8.69,0,0,1,66.45,106.92Z"/><path class="cls-11" d="M63.74,106.92a6,6,0,1,1-6-6A6,6,0,0,1,63.74,106.92Z"/><path class="cls-12" d="M61.68,106.92A3.93,3.93,0,1,1,57.76,103,3.93,3.93,0,0,1,61.68,106.92Z"/><rect class="cls-13" x="6.49" y="65.57" width="73.31" height="18.73"/><g class="cls-14"><polygon points="84.75 96.15 2.73 96.15 2.73 38.05 2.73 38.05 84.75 96.15"/></g><polygon class="cls-15" points="9.04 39.36 82.6 39.36 82.6 88.48 81.45 40.5 9.04 39.36"/><path class="cls-12" d="M45.45,106l4.69-10.24a1.34,1.34,0,0,1,1.23-.8H65.86a1.34,1.34,0,0,1,1.24.81l3,11.1h-1.5A1.34,1.34,0,0,1,67.3,106l-1.71-7.74a1.34,1.34,0,0,0-1.27-.87l-11.89.09a1.34,1.34,0,0,0-1.22.82l-3,6.89A1.33,1.33,0,0,1,47,106Z"/><path class="cls-12" d="M18.88,106l4.69-10.24A1.34,1.34,0,0,1,24.8,95H39.29a1.34,1.34,0,0,1,1.24.81l3,11.1H42a1.34,1.34,0,0,1-1.25-.87L39,98.28a1.34,1.34,0,0,0-1.27-.87l-11.89.09a1.34,1.34,0,0,0-1.22.82l-3,6.89a1.33,1.33,0,0,1-1.23.81Z"/><path class="cls-16" d="M136.73,95.3h-1.9a.72.72,0,0,1-.74-.7v-10a.72.72,0,0,1,.74-.7h1.9a.72.72,0,0,1,.74.7v10A.72.72,0,0,1,136.73,95.3Z"/><rect class="cls-17" x="134.75" y="84.71" width="2.72" height="9.74" rx="0.6" ry="0.6"/><path class="cls-18" d="M105.9,78.21h-2.82a.9.9,0,0,1-1-.79v0a.9.9,0,0,1,1-.79h2.82a.9.9,0,0,1,1,.79v0A.9.9,0,0,1,105.9,78.21Z"/><path class="cls-19" d="M97.33,56.12h25.53a1.12,1.12,0,0,1,1,.65l.84,1.83-1.25-1.48a1.12,1.12,0,0,0-.83-.4Z"/><path class="cls-19" d="M112.84,75.41a117.76,117.76,0,0,1,30.71,1.11.76.76,0,0,1,.6.61l.67,3.53-1.28-2.91a.76.76,0,0,0-.5-.43C141.08,76.81,131.13,74.55,112.84,75.41Z"/><path class="cls-19" d="M118.71,81.73a64.37,64.37,0,0,1,19.43.81.52.52,0,0,1,.38.45l.27,4.06-.66-3.6a.51.51,0,0,0-.32-.32C136.58,82.76,130.29,81.1,118.71,81.73Z"/><path class="cls-20" d="M146.27,96.5h-4.36a1,1,0,0,1-1-1V83.66a1,1,0,0,1,1-1h3.59Z"/><path class="cls-21" d="M146.2,95.39h-3.59a.8.8,0,0,1-.8-.8v-10a.8.8,0,0,1,.8-.8h2.95Z"/><rect class="cls-22" x="6.17" y="97.92" width="2.08" height="5.82"/><path class="cls-10" d="M114,75.89h-1.66c-.42,0-.76-.5-.76-1.12V66.06c0-.62.34-1.12.76-1.12H114c.42,0,.76.5.76,1.12v8.71C114.72,75.39,114.38,75.89,114,75.89Z"/><path class="cls-23" d="M114,74.94h-1.37c-.34,0-.62-.42-.62-.93V66.82c0-.51.28-.93.62-.93H114c.34,0,.62.42.62.93V74C114.62,74.53,114.34,74.94,114,74.94Z"/><ellipse class="cls-24" cx="113.79" cy="73.17" rx="0.48" ry="1.14"/><rect class="cls-25" x="113.79" y="72.81" width="3.27" height="0.8"/><ellipse class="cls-25" cx="116.96" cy="73.17" rx="0.74" ry="1.77"/></g></g></svg>