<svg xmlns="http://www.w3.org/2000/svg" xmlns:xlink="http://www.w3.org/1999/xlink" viewBox="0 0 150 150"><defs><style>.cls-1{isolation:isolate;}.cls-2{fill:#1c1c1c;}.cls-3{fill:#f94646;}.cls-4{fill:#d1998a;}.cls-5{fill:#96756d;}.cls-6{fill:#f91b1b;}.cls-7{fill:#ffbba8;}.cls-8{fill:#a62f2f;}.cls-9{fill:#afdde9;}.cls-10{fill:#d6f7ff;}.cls-11{fill:#e63ad7;}.cls-12{opacity:0.5;}.cls-13{fill:#dedede;}.cls-14{fill:#5b424c;}.cls-15{fill:#806167;}.cls-16{fill:#9a8692;}.cls-17{mix-blend-mode:exclusion;fill:url(#linear-gradient);}.cls-18{fill:url(#linear-gradient-2);}.cls-19{fill:url(#linear-gradient-3);}.cls-20{fill:url(#linear-gradient-4);}.cls-21{fill:#f7c74d;}.cls-22{fill:#8e4e17;}.cls-23{fill:#71cfb9;}.cls-24{fill:#fff;}</style><linearGradient id="linear-gradient" x1="24.58" y1="59.8" x2="28.95" y2="59.8" gradientUnits="userSpaceOnUse"><stop offset="0"/><stop offset="0.21" stop-color="#050405"/><stop offset="0.46" stop-color="#130f14"/><stop offset="0.74" stop-color="#2b202c"/><stop offset="1" stop-color="#47364a"/></linearGradient><linearGradient id="linear-gradient-2" x1="78.8" y1="59.41" x2="83.32" y2="59.41" xlink:href="#linear-gradient"/><linearGradient id="linear-gradient-3" x1="85.27" y1="58.88" x2="85.76" y2="58.88" gradientUnits="userSpaceOnUse"><stop offset="0" stop-color="#9a8692"/><stop offset="0.19" stop-color="#9d8a95"/><stop offset="0.37" stop-color="#a795a0"/><stop offset="0.55" stop-color="#b7a8b1"/><stop offset="0.72" stop-color="#cdc3c9"/><stop offset="0.89" stop-color="#eae6e8"/><stop offset="1" stop-color="#fff"/></linearGradient><linearGradient id="linear-gradient-4" x1="18.59" y1="59.64" x2="19.08" y2="59.64" gradientUnits="userSpaceOnUse"><stop offset="0" stop-color="#fff"/><stop offset="0.06" stop-color="#efebec"/><stop offset="0.21" stop-color="#cdc1c3"/><stop offset="0.36" stop-color="#b19ea2"/><stop offset="0.52" stop-color="#9c8388"/><stop offset="0.67" stop-color="#8c7076"/><stop offset="0.83" stop-color="#83656b"/><stop offset="1" stop-color="#806167"/></linearGradient></defs><title>Artboard 2 copy 2</title><g class="cls-1"><g id="Layer_16" data-name="Layer 16"><g id="Layer_14" data-name="Layer 14"><circle class="cls-2" cx="51.75" cy="17.64" r="13.8"/><circle class="cls-3" cx="51.75" cy="25.74" r="8.83"/><rect class="cls-4" x="43.63" y="79.87" width="16.74" height="24.03"/><polygon class="cls-5" points="43.63 93.52 52 103.9 60.37 93.52 60.37 92.35 52 99.47 43.63 92.35 43.63 93.52"/><path class="cls-6" d="M16.29,125.64s1.66-25.94,6.2-27.09c1.26-.88,19.3-5.23,19.87-5.33h0c.54-.09,1-.4,1.38,0l8.31,9.09,8.31-9.09c.36-.4.84-.09,1.38,0h0c.57.1,18.61,4.45,19.87,5.33,4.54,1.15,6.2,27.09,6.2,27.09Z"/><path class="cls-7" d="M72.69,67.14c3.18.66,6.37-1.7,7.11-5.28s-1.24-7-4.43-7.66S69.5,66.47,72.69,67.14Z"/><path class="cls-7" d="M31.68,67.14c-3.19.66-6.37-1.7-7.11-5.28s1.24-7,4.43-7.66S34.87,66.47,31.68,67.14Z"/><path class="cls-7" d="M52,90.79C20.54,77.72,29.84,45.49,29.84,45.49s1.09-14.85,21.62-14.85c17.89,0,22.3,15.22,22.3,15.22S82.24,78.94,52,90.79Z"/><rect class="cls-8" x="70.28" y="55.81" width="3.06" height="1.31" transform="matrix(0.93, -0.38, 0.38, 0.93, -15.95, 31.09)"/><polygon class="cls-8" points="30.25 56.49 33.09 57.64 33.8 56.55 30.74 55.28 30.25 56.49"/><rect class="cls-8" x="49.17" y="61.08" width="5.45" height="1.01"/><ellipse class="cls-6" cx="62.73" cy="60.29" rx="8.77" ry="5.23" transform="translate(-11.73 15.29) rotate(-12.72)"/><ellipse class="cls-9" cx="62.73" cy="60.29" rx="7.27" ry="4.34" transform="translate(-11.73 15.29) rotate(-12.72)"/><path class="cls-10" d="M69.82,58.69a3.72,3.72,0,0,1-1.35,3.41L56.91,58.55a10.07,10.07,0,0,1,4.87-2.5C65.69,55.17,69.3,56.35,69.82,58.69Z"/><ellipse class="cls-6" cx="41.27" cy="60.29" rx="5.23" ry="8.77" transform="translate(-26.62 87.27) rotate(-77.28)"/><ellipse class="cls-9" cx="41.27" cy="60.29" rx="4.34" ry="7.27" transform="translate(-26.62 87.27) rotate(-77.28)"/><path class="cls-10" d="M46.83,63.86a3.17,3.17,0,0,0,1.54-2c.53-2.34-2.22-4.95-6.14-5.83a10.36,10.36,0,0,0-5.09,0Z"/><path class="cls-2" d="M76.62,54.63c-2.16-.48-4.47,3.64-4.47,3.64l-.89-10.11s-14.48,11.9-18.93-1.75c-4.15,11.68-19.22,1.7-19.22,1.7S31.23,59.69,31.31,59c-1.13-4.42-4.27-4-4.27-4S20.56,20.13,52,24.83C82.89,19.9,76.67,53.74,76.62,54.63Z"/><path class="cls-11" d="M52.18,81.78c-3.63,0-6.32-2.4-6.32-3s3.6-2.36,4.46-2.36,1.49,1,1.86,1,1-1,1.86-1,4.46,1.77,4.46,2.36S55.81,81.78,52.18,81.78Z"/><path class="cls-12" d="M43.47,93.17,52,102.31l-5.51,4.9a3.26,3.26,0,0,1-5-2.38L40.9,93.56Z"/><path class="cls-13" d="M43.63,92.35l8.44,10-5.39,3.62a3.15,3.15,0,0,1-4.84-2.3l-1-10.07Z"/><path class="cls-12" d="M60.59,93.17l-8.53,9.14,5.51,4.9a3.26,3.26,0,0,0,5-2.38l.59-11.27Z"/><path class="cls-13" d="M60.37,92.35l-8.31,10,5.39,3.62a3.15,3.15,0,0,0,4.84-2.3l.87-10.07Z"/><path class="cls-14" d="M51.17,86.1h-15c-7.49,0-13.59-5.56-13.59-12.4V62.54H25V73.7c0,5.48,5,9.93,11.12,9.93h15Z"/><path class="cls-15" d="M28.57,58.81a105.25,105.25,0,0,1-.24-13.66c.39-7,1.65-9.94,3.37-13,4.09-7.19,14.77-8.73,20.39-8.79v-4S36.77,18.14,28.77,29c-3.09,4.19-4.34,11-4.34,15.31,0,9.09.09,14.33.09,14.33Z"/><path class="cls-15" d="M75.6,58.81a104.32,104.32,0,0,0,.24-13.66c-.39-7-1.65-9.94-3.36-13C68.38,25,57.7,23.47,52.09,23.42v-4S67.4,18.14,75.4,29c3.09,4.19,4.34,11,4.34,15.31,0,9.09-.09,14.33-.09,14.33Z"/><path class="cls-15" d="M20.9,66.84a1.42,1.42,0,0,1-1.27,1.53h0a1.42,1.42,0,0,1-1.28-1.53V52.76a1.42,1.42,0,0,1,1.28-1.53h0a1.42,1.42,0,0,1,1.27,1.53Z"/><path class="cls-16" d="M86,65.86c-.84.84-1.43,1.52-2.15,1.52h0a1.43,1.43,0,0,1-1.32-1.52V51.77a1.43,1.43,0,0,1,1.32-1.52h0c.73,0,1.32.68,2.15,1.52Z"/><path d="M30.5,68.85a5.59,5.59,0,0,1-5.44,5.73h0a5.59,5.59,0,0,1-5.44-5.73V50.74A5.59,5.59,0,0,1,25.07,45h0a5.59,5.59,0,0,1,5.44,5.73Z"/><path d="M73.46,68.85a5.68,5.68,0,0,0,5.62,5.73h0a5.67,5.67,0,0,0,5.62-5.73V50.74A5.67,5.67,0,0,0,79.08,45h0a5.68,5.68,0,0,0-5.62,5.73Z"/><path class="cls-17" d="M29,69.52a2.43,2.43,0,0,1-2.19,2.61h0a2.43,2.43,0,0,1-2.18-2.61V50.09a2.43,2.43,0,0,1,2.18-2.61h0A2.43,2.43,0,0,1,29,50.09Z"/><path class="cls-18" d="M83.32,69.12a2.46,2.46,0,0,1-2.26,2.62h0a2.45,2.45,0,0,1-2.26-2.62V49.7a2.46,2.46,0,0,1,2.26-2.62h0a2.46,2.46,0,0,1,2.26,2.62Z"/><path d="M55.77,84.87a2.33,2.33,0,0,1-2.34,2.34H48.91a2.34,2.34,0,0,1-2.34-2.34h0a2.34,2.34,0,0,1,2.34-2.34h4.52a2.34,2.34,0,0,1,2.34,2.34Z"/><path class="cls-19" d="M85.76,65.6c0,.07-.11.13-.25.13h0c-.13,0-.24-.06-.24-.13V52.17c0-.07.11-.13.24-.13h0c.14,0,.25.05.25.13Z"/><path class="cls-20" d="M19.08,66.92c0,.07-.1.14-.24.14h0c-.13,0-.25-.06-.25-.14V52.37c0-.07.11-.14.25-.14h0c.14,0,.24.06.24.14Z"/><path class="cls-21" d="M131,144.07a.6.6,0,0,1-.61.71H71.1a.6.6,0,0,1-.61-.71l.87-5.7a.87.87,0,0,1,.83-.71h57.11a.87.87,0,0,1,.83.71Z"/><path class="cls-22" d="M100.69,109.45l.09,0-.09,0Z"/><path class="cls-21" d="M115,110.07a.62.62,0,0,1,.79-.53l.17,0L132.57,114l.21.06a.57.57,0,0,1,.38.83l-1.86,3.73a.93.93,0,0,1-1,.46l-2.51-.66-9.81-2.6-2.9-.77a.84.84,0,0,1-.6-.9Z"/><path class="cls-23" d="M100.74,95.77c-5,0-15.1,1.13-23,5A8.76,8.76,0,0,1,85,105.49c.93-1.08,4-2.56,15.78-2.56s14.85,1.48,15.78,2.56a8.76,8.76,0,0,1,7.21-4.69C115.84,96.89,105.74,95.77,100.74,95.77Z"/><path class="cls-23" d="M125.35,101.11a8.75,8.75,0,0,0-9.44,8v0l1.13.31.09,0,15.38,4.17a8.75,8.75,0,0,0-7.16-12.53Z"/><path class="cls-21" d="M86.49,110.07a.62.62,0,0,0-.79-.53l-.17,0L68.9,114l-.21.06a.57.57,0,0,0-.38.83l1.86,3.73a.93.93,0,0,0,1,.46l2.51-.66,9.81-2.6,2.9-.77a.84.84,0,0,0,.6-.9Z"/><path class="cls-23" d="M76.12,101.11a8.76,8.76,0,0,1,8.48,4.67,8.71,8.71,0,0,1,1,3.33v0l-1.13.31-.09,0L69,113.64a8.75,8.75,0,0,1,7.17-12.53Z"/><path class="cls-21" d="M100.74,106.55c-7.46-.17-8.93-2-9.2-2.83a24.86,24.86,0,0,0-3.89.72c0,4,3.86,3.07,4.85,3.39a1.93,1.93,0,0,1,1.23,1h14a1.93,1.93,0,0,1,1.23-1c1-.31,4.89.6,4.85-3.39a24.87,24.87,0,0,0-3.89-.72C109.66,104.57,108.2,106.38,100.74,106.55Z"/><path class="cls-23" d="M128.52,134.91a66.21,66.21,0,0,1-10.38-9.34c-5.16-6.71-5-8.94-6-10-.68-.68-1.4-.41-2.93-2.53a6.54,6.54,0,0,1-1.48-3.92H93.78a6.54,6.54,0,0,1-1.48,3.92c-1.53,2.12-2.25,1.84-2.93,2.53-1,1-.89,3.26-6,10a66.22,66.22,0,0,1-10.38,9.34,1.78,1.78,0,0,0-.82,2.26h57.22A1.78,1.78,0,0,0,128.52,134.91Z"/><path class="cls-24" d="M100.74,112.37a11.51,11.51,0,1,0,11.51,11.51A11.51,11.51,0,0,0,100.74,112.37Zm0,17.54a6,6,0,1,1,6-6A6,6,0,0,1,100.74,129.91Z"/><circle class="cls-22" cx="92.29" cy="126.43" r="1.89"/><circle class="cls-22" cx="95.4" cy="130.91" r="1.89" transform="translate(-58.73 81.09) rotate(-36.01)"/><circle class="cls-22" cx="100.55" cy="132.7" r="1.89" transform="translate(-56.73 187.31) rotate(-72)"/><circle class="cls-22" cx="105.77" cy="131.13" r="1.89" transform="translate(-35.32 39.07) rotate(-17.99)"/><circle class="cls-22" cx="109.06" cy="126.78" r="1.89" transform="translate(-57.61 140.51) rotate(-54)"/><circle class="cls-22" cx="109.18" cy="121.34" r="1.89"/><circle class="cls-22" cx="106.07" cy="116.86" r="1.89" transform="translate(-48.43 84.66) rotate(-36)"/><circle class="cls-22" cx="100.92" cy="115.07" r="1.89" transform="translate(-39.69 175.51) rotate(-72.01)"/><circle class="cls-22" cx="95.7" cy="116.64" r="1.89" transform="translate(-31.36 35.28) rotate(-18)"/><circle class="cls-22" cx="92.41" cy="120.98" r="1.89" transform="translate(-59.78 124.62) rotate(-54)"/></g></g></g></svg>