<svg xmlns="http://www.w3.org/2000/svg" viewBox="0 0 150 150"><defs><style>.cls-1{fill:#171717;}.cls-2{fill:#f59f4e;}.cls-3{fill:#ffb36b;}.cls-4{fill:#cf8642;}.cls-5{fill:#b07238;}.cls-6{fill:#306382;}.cls-7{fill:#b37439;}.cls-8{fill:#8a592c;}.cls-9{fill:#cf3a3a;}.cls-10{fill:#942929;}.cls-11{fill:#f9ae37;}.cls-12{fill:#521717;}.cls-13{fill:#a62e2e;}.cls-14{fill:#262626;}.cls-15{fill:#4e5052;}.cls-16{fill:#f97032;}.cls-17{fill:#9c3232;}.cls-18{fill:#662121;}.cls-19{fill:#636363;}.cls-20{fill:#424242;}.cls-21{fill:#333;}.cls-22,.cls-23,.cls-44{fill:#fff;}.cls-22{opacity:0.2;}.cls-23{opacity:0.1;}.cls-24{fill:#757575;}.cls-25{fill:#404040;}.cls-26{fill:#733417;}.cls-27{fill:#141414;}.cls-28{fill:#4a4a4a;}.cls-29{fill:#363636;}.cls-30{fill:#807934;}.cls-31{fill:#a69d43;}.cls-32{fill:#292710;}.cls-33{fill:#bfb54e;}.cls-34{fill:#9e492f;}.cls-35{fill:#d45f2b;}.cls-36{fill:#cc5c29;}.cls-37{fill:#94431e;}.cls-38{fill:#242424;}.cls-39{opacity:0.3;}.cls-40{fill:#7d3819;}.cls-41{fill:#212121;}.cls-42{fill:#f98832;}.cls-43{fill:#f9deca;}.cls-44{opacity:0.4;}.cls-45{fill:#1b5378;}.cls-46{fill:#d35400;}.cls-47{fill:#f1c40f;}.cls-48{fill:#f39c12;}.cls-49{fill:#85271e;}.cls-50{fill:#e74c3c;}.cls-51{fill:#c0392b;}.cls-52{fill:#1a733f;}.cls-53{fill:#2ecc71;}.cls-54{fill:#27ae60;}.cls-55{fill:#2980b9;}.cls-56{fill:#206694;}.cls-57{fill:#ecf0f1;}.cls-58{fill:#95a5a6;}.cls-59{fill:#243342;}.cls-60{fill:#34495e;}</style></defs><title>Artboard 2 copy 7</title><g id="Layer_16" data-name="Layer 16"><g id="Layer_14" data-name="Layer 14"><path class="cls-1" d="M100.19,35.79,92,32.89a1,1,0,0,0-1.26.6v0a1,1,0,0,0,.6,1.26L97.65,37a1,1,0,0,1,.6,1.26l-3.9,11.08a1,1,0,0,1-.83.65L61.1,53.26,37.87,30.41a1,1,0,0,1-.24-1l3.9-11.08a1,1,0,0,1,1.26-.6l6.36,2.24a1,1,0,0,0,1.26-.6v0a1,1,0,0,0-.6-1.26l-8.24-2.9a1,1,0,0,0-1.26.6l-5,14.16a1,1,0,0,0,.24,1l23.58,23.2a1,1,0,0,1,.28.83L52.84,73.69a1,1,0,0,0,.6,1.26h0a1,1,0,0,0,1.26-.6l6.59-18.72a1,1,0,0,1,.74-.47L95,51.86a1,1,0,0,0,.83-.65l5-14.16A1,1,0,0,0,100.19,35.79Z"/><rect class="cls-2" x="62.08" y="2.4" width="17.11" height="48.42" transform="translate(22.08 84.41) rotate(-70.61)"/><rect class="cls-3" x="70.76" y="-3.74" width="4.09" height="48.42" transform="translate(29.32 82.34) rotate(-70.61)"/><rect class="cls-4" x="64.94" y="6.44" width="8.56" height="48.42" transform="translate(17.33 85.76) rotate(-70.61)"/><rect class="cls-5" x="66.13" y="8.12" width="4.99" height="48.42" transform="translate(15.35 86.33) rotate(-70.61)"/><path class="cls-6" d="M93,43.62l-2.38-.84,5.7-16.21,2.38.84A1.17,1.17,0,0,1,99.24,29l-4.86,13.8A1.17,1.17,0,0,1,93,43.62Z"/><path class="cls-6" d="M48.27,9.67l2.38.84-5.7,16.21-2.38-.84A1.17,1.17,0,0,1,42,24.33l4.86-13.8A1.17,1.17,0,0,1,48.27,9.67Z"/><ellipse class="cls-7" cx="52.03" cy="14.26" rx="1" ry="1.33" transform="translate(21.3 58.6) rotate(-70.61)"/><ellipse class="cls-7" cx="54.38" cy="19.66" rx="1" ry="1.33" transform="translate(17.78 64.43) rotate(-70.61)"/><ellipse class="cls-7" cx="62.38" cy="18.97" rx="1" ry="1.33" transform="translate(23.78 71.51) rotate(-70.61)"/><ellipse class="cls-8" cx="60.63" cy="27.93" rx="1" ry="1.33" transform="translate(14.15 75.85) rotate(-70.61)"/><ellipse class="cls-7" cx="69.79" cy="29.03" rx="1" ry="1.33" transform="translate(19.24 85.22) rotate(-70.61)"/><ellipse class="cls-7" cx="75.67" cy="25.03" rx="1" ry="1.33" transform="translate(26.94 88.1) rotate(-70.61)"/><ellipse class="cls-7" cx="86.77" cy="26.12" rx="1" ry="1.33" transform="translate(33.32 99.3) rotate(-70.61)"/><ellipse class="cls-7" cx="81.76" cy="29.98" rx="1" ry="1.33" transform="translate(26.33 97.15) rotate(-70.61)"/><ellipse class="cls-8" cx="86.68" cy="36.73" rx="1" ry="1.33" transform="translate(23.25 106.3) rotate(-70.61)"/><ellipse class="cls-7" cx="90.64" cy="33.49" rx="1" ry="1.33" transform="translate(28.96 107.87) rotate(-70.61)"/><ellipse class="cls-8" cx="76.74" cy="34.3" rx="1" ry="1.33" transform="translate(18.91 95.3) rotate(-70.61)"/><ellipse class="cls-8" cx="50.7" cy="25.13" rx="1" ry="1.33" transform="translate(10.16 64.61) rotate(-70.61)"/><ellipse class="cls-7" cx="66.3" cy="23.17" rx="1" ry="1.33" transform="translate(22.43 78.01) rotate(-70.61)"/><path class="cls-9" d="M60.91,61.68a2.65,2.65,0,0,1-5-1.75l-1.06-.37-.78,4.53,5.62,2L62,62Z"/><path class="cls-9" d="M59.74,66.07l-5.62-2L43,93.16l7.23,2.54ZM47.36,92.29c-.67-.24-.86-1.46-.41-2.73s1.35-2.11,2-1.87.86,1.46.41,2.73S48,92.53,47.36,92.29Z"/><polygon class="cls-10" points="58.81 68.94 53.04 66.91 54.12 64.09 59.74 66.07 58.81 68.94"/><path class="cls-11" d="M44.45,135.27l47.3-18.11,5.35-11.83L41.18,126.73Zm3.13-6a1.45,1.45,0,1,1-1.87-.83A1.45,1.45,0,0,1,47.57,129.23Z"/><polygon class="cls-9" points="97.09 105.32 109.33 137.29 100.72 140.59 91.73 117.11 97.09 105.32"/><polygon class="cls-12" points="98.04 111.45 98.4 112.38 94.86 120.14 100.78 135.6 106.46 133.43 106.82 134.37 100.64 136.73 94.19 119.9 98.04 111.45"/><polygon class="cls-13" points="98.4 112.38 106.46 133.43 100.78 135.6 94.86 120.14 98.4 112.38"/><circle class="cls-14" cx="93.77" cy="116.89" r="0.68" transform="translate(-35.6 41.26) rotate(-20.95)"/><circle class="cls-14" cx="96.44" cy="110.91" r="0.68" transform="translate(-33.29 41.82) rotate(-20.95)"/><rect class="cls-15" x="48.13" y="124.27" width="0.18" height="6.53" transform="translate(-42.39 25.65) rotate(-20.93)"/><rect class="cls-15" x="48.22" y="124.12" width="0.18" height="3.27" transform="translate(-41.74 25.56) rotate(-20.93)"/><rect class="cls-15" x="48.9" y="123.86" width="0.18" height="3.27" transform="translate(-41.6 25.79) rotate(-20.93)"/><rect class="cls-15" x="49.58" y="123.6" width="0.18" height="3.27" transform="translate(-41.56 26.11) rotate(-20.99)"/><rect class="cls-15" x="50.26" y="123.34" width="0.18" height="3.27" transform="translate(-41.33 26.24) rotate(-20.93)"/><rect class="cls-15" x="51.53" y="122.97" width="0.18" height="6.53" transform="translate(-41.7 26.78) rotate(-20.93)"/><rect class="cls-15" x="51.62" y="122.82" width="0.18" height="3.27" transform="translate(-41.05 26.69) rotate(-20.93)"/><rect class="cls-15" x="52.3" y="122.56" width="0.18" height="3.27" transform="translate(-41.01 27.01) rotate(-20.99)"/><rect class="cls-15" x="52.98" y="122.3" width="0.18" height="3.27" transform="translate(-40.78 27.14) rotate(-20.93)"/><rect class="cls-15" x="53.66" y="122.04" width="0.18" height="3.27" transform="translate(-40.64 27.37) rotate(-20.93)"/><rect class="cls-15" x="54.92" y="121.67" width="0.18" height="6.53" transform="translate(-41.01 27.9) rotate(-20.93)"/><rect class="cls-15" x="55.02" y="121.51" width="0.18" height="3.27" transform="translate(-40.36 27.82) rotate(-20.93)"/><rect class="cls-15" x="55.7" y="121.25" width="0.18" height="3.27" transform="translate(-40.23 28.05) rotate(-20.93)"/><rect class="cls-15" x="56.38" y="120.99" width="0.18" height="3.27" transform="translate(-40.09 28.27) rotate(-20.93)"/><rect class="cls-15" x="57.06" y="120.73" width="0.18" height="3.27" transform="matrix(0.93, -0.36, 0.36, 0.93, -40.04, 28.59)"/><rect class="cls-15" x="58.32" y="120.37" width="0.18" height="6.53" transform="matrix(0.93, -0.36, 0.36, 0.93, -40.41, 29.13)"/><rect class="cls-15" x="58.42" y="120.21" width="0.18" height="3.27" transform="translate(-39.67 28.95) rotate(-20.93)"/><rect class="cls-15" x="59.1" y="119.95" width="0.18" height="3.27" transform="matrix(0.93, -0.36, 0.36, 0.93, -39.63, 29.27)"/><rect class="cls-15" x="59.77" y="119.69" width="0.18" height="3.27" transform="translate(-39.4 29.4) rotate(-20.93)"/><rect class="cls-15" x="60.45" y="119.43" width="0.18" height="3.27" transform="translate(-39.26 29.62) rotate(-20.93)"/><rect class="cls-15" x="61.72" y="119.07" width="0.18" height="6.53" transform="translate(-39.63 30.16) rotate(-20.93)"/><rect class="cls-15" x="61.81" y="118.91" width="0.18" height="3.27" transform="translate(-39.07 30.18) rotate(-20.99)"/><rect class="cls-15" x="62.49" y="118.65" width="0.18" height="3.27" transform="translate(-38.85 30.3) rotate(-20.93)"/><rect class="cls-15" x="63.17" y="118.39" width="0.18" height="3.27" transform="translate(-38.71 30.53) rotate(-20.93)"/><rect class="cls-15" x="63.85" y="118.13" width="0.18" height="3.27" transform="translate(-38.66 30.85) rotate(-20.99)"/><rect class="cls-15" x="65.11" y="117.76" width="0.18" height="6.53" transform="translate(-39.03 31.39) rotate(-20.99)"/><rect class="cls-15" x="65.21" y="117.61" width="0.18" height="3.27" transform="translate(-38.3 31.2) rotate(-20.93)"/><rect class="cls-15" x="65.89" y="117.35" width="0.18" height="3.27" transform="translate(-38.16 31.43) rotate(-20.93)"/><rect class="cls-15" x="66.57" y="117.09" width="0.18" height="3.27" transform="translate(-38.11 31.76) rotate(-20.99)"/><rect class="cls-15" x="67.25" y="116.83" width="0.18" height="3.27" transform="translate(-37.88 31.88) rotate(-20.93)"/><rect class="cls-15" x="68.51" y="116.46" width="0.18" height="6.53" transform="translate(-38.25 32.42) rotate(-20.93)"/><rect class="cls-15" x="68.61" y="116.31" width="0.18" height="3.27" transform="translate(-37.69 32.44) rotate(-20.99)"/><rect class="cls-15" x="69.29" y="116.05" width="0.18" height="3.27" transform="translate(-37.47 32.56) rotate(-20.93)"/><rect class="cls-15" x="69.97" y="115.79" width="0.18" height="3.27" transform="translate(-37.33 32.78) rotate(-20.93)"/><rect class="cls-15" x="70.65" y="115.53" width="0.18" height="3.27" transform="translate(-37.19 33.01) rotate(-20.93)"/><rect class="cls-15" x="71.91" y="115.16" width="0.18" height="6.53" transform="translate(-37.56 33.54) rotate(-20.93)"/><rect class="cls-15" x="72" y="115.01" width="0.18" height="3.27" transform="translate(-36.92 33.46) rotate(-20.93)"/><rect class="cls-15" x="72.68" y="114.75" width="0.18" height="3.27" transform="translate(-36.78 33.68) rotate(-20.93)"/><rect class="cls-15" x="73.36" y="114.49" width="0.18" height="3.27" transform="translate(-36.72 34.02) rotate(-20.99)"/><rect class="cls-15" x="74.04" y="114.23" width="0.18" height="3.27" transform="translate(-36.5 34.14) rotate(-20.93)"/><rect class="cls-15" x="75.31" y="113.86" width="0.18" height="6.53" transform="translate(-36.95 34.78) rotate(-20.99)"/><rect class="cls-15" x="75.4" y="113.71" width="0.18" height="3.27" transform="translate(-36.23 34.59) rotate(-20.93)"/><rect class="cls-15" x="76.08" y="113.45" width="0.18" height="3.27" transform="translate(-36.17 34.92) rotate(-20.99)"/><rect class="cls-15" x="76.76" y="113.19" width="0.18" height="3.27" transform="translate(-35.95 35.04) rotate(-20.93)"/><rect class="cls-15" x="77.44" y="112.93" width="0.18" height="3.27" transform="translate(-35.82 35.26) rotate(-20.93)"/><rect class="cls-15" x="78.7" y="112.56" width="0.18" height="6.53" transform="translate(-36.18 35.8) rotate(-20.93)"/><rect class="cls-15" x="78.8" y="112.41" width="0.18" height="3.27" transform="translate(-35.62 35.83) rotate(-20.99)"/><rect class="cls-15" x="79.48" y="112.15" width="0.18" height="3.27" transform="translate(-35.4 35.94) rotate(-20.93)"/><rect class="cls-15" x="80.16" y="111.89" width="0.18" height="3.27" transform="translate(-35.26 36.17) rotate(-20.93)"/><rect class="cls-15" x="80.84" y="111.63" width="0.18" height="3.27" transform="translate(-35.2 36.51) rotate(-20.99)"/><rect class="cls-15" x="82.1" y="111.26" width="0.18" height="6.53" transform="translate(-35.57 37.04) rotate(-20.99)"/><rect class="cls-15" x="82.2" y="111.11" width="0.18" height="3.27" transform="translate(-34.85 36.84) rotate(-20.93)"/><rect class="cls-15" x="82.87" y="110.85" width="0.18" height="3.27" transform="translate(-34.79 37.18) rotate(-20.99)"/><rect class="cls-15" x="83.55" y="110.59" width="0.18" height="3.27" transform="translate(-34.65 37.41) rotate(-20.99)"/><rect class="cls-15" x="84.23" y="110.33" width="0.18" height="3.27" transform="translate(-34.44 37.52) rotate(-20.93)"/><rect class="cls-15" x="85.5" y="109.96" width="0.18" height="6.53" transform="translate(-34.81 38.05) rotate(-20.93)"/><rect class="cls-15" x="85.59" y="109.81" width="0.18" height="3.27" transform="translate(-34.23 38.09) rotate(-20.99)"/><rect class="cls-15" x="86.27" y="109.55" width="0.18" height="3.27" transform="translate(-34.02 38.2) rotate(-20.93)"/><rect class="cls-15" x="86.95" y="109.29" width="0.18" height="3.27" transform="translate(-33.89 38.42) rotate(-20.93)"/><rect class="cls-15" x="87.63" y="109.03" width="0.18" height="3.27" transform="translate(-33.75 38.65) rotate(-20.93)"/><rect class="cls-15" x="88.89" y="108.66" width="0.18" height="6.53" transform="translate(-34.12 39.18) rotate(-20.93)"/><rect class="cls-16" x="78.22" y="85.78" width="1.53" height="2.65"/><path class="cls-17" d="M79.25,89.73h-7.1V84.89h7.1A9.2,9.2,0,0,0,79.25,89.73Z"/><polygon class="cls-18" points="77.52 88.55 72.15 88.55 72.15 84.89 77.98 84.89 77.52 88.55"/><rect class="cls-19" x="108.62" y="69.19" width="2.33" height="12.98"/><rect class="cls-20" x="110.95" y="69.19" width="7.68" height="12.98"/><circle class="cls-1" cx="114.64" cy="75.7" r="1.11"/><ellipse class="cls-1" cx="114.64" cy="69.89" rx="1.11" ry="0.34"/><ellipse class="cls-1" cx="114.64" cy="81.55" rx="1.11" ry="0.34"/><rect class="cls-19" x="118.62" y="69.19" width="3.72" height="12.98"/><polygon class="cls-21" points="125.3 80.31 122.35 82.17 122.35 69.19 125.3 71.05 125.3 80.31"/><rect class="cls-22" x="108.62" y="71.62" width="13.73" height="1.34"/><polygon class="cls-23" points="125.3 73.93 122.35 72.97 122.35 71.62 125.3 73.93"/><polygon class="cls-24" points="145.26 76.81 125.3 76.81 125.3 74.6 145.26 74.6 146.07 75.7 145.26 76.81"/><polygon class="cls-25" points="144.39 76.34 143.71 76.34 144.01 74.6 144.69 74.6 144.39 76.34"/><polygon class="cls-25" points="142.31 76.34 141.63 76.34 141.93 74.6 142.61 74.6 142.31 76.34"/><polygon class="cls-25" points="137.8 76.34 137.12 76.34 137.42 74.6 138.1 74.6 137.8 76.34"/><polygon class="cls-25" points="133.41 76.34 132.73 76.34 133.03 74.6 133.71 74.6 133.41 76.34"/><polygon class="cls-25" points="129.09 76.34 128.41 76.34 128.71 74.6 129.39 74.6 129.09 76.34"/><polygon class="cls-25" points="140 76.34 139.32 76.34 139.62 74.6 140.3 74.6 140 76.34"/><polygon class="cls-25" points="135.62 76.34 134.94 76.34 135.23 74.6 135.91 74.6 135.62 76.34"/><polygon class="cls-25" points="131.23 76.34 130.55 76.34 130.85 74.6 131.53 74.6 131.23 76.34"/><polygon class="cls-25" points="126.84 76.34 126.16 76.34 126.46 74.6 127.14 74.6 126.84 76.34"/><polygon class="cls-25" points="136.67 76.81 135.99 76.81 136.28 75 136.97 75 136.67 76.81"/><polygon class="cls-25" points="138.78 76.81 138.1 76.81 138.4 75 139.08 75 138.78 76.81"/><polygon class="cls-25" points="141.13 76.81 140.44 76.81 140.74 75 141.43 75 141.13 76.81"/><polygon class="cls-25" points="143.29 76.81 142.61 76.81 142.91 75 143.59 75 143.29 76.81"/><polygon class="cls-25" points="132.32 76.81 131.64 76.81 131.94 75 132.62 75 132.32 76.81"/><polygon class="cls-25" points="134.47 76.81 133.79 76.81 134.09 75 134.77 75 134.47 76.81"/><polygon class="cls-25" points="127.92 76.81 127.24 76.81 127.53 75 128.22 75 127.92 76.81"/><polygon class="cls-25" points="130.16 76.81 129.48 76.81 129.78 75 130.46 75 130.16 76.81"/><rect class="cls-26" x="58.99" y="106.56" width="9.19" height="0.82"/><path class="cls-27" d="M64.7,119.56a3,3,0,0,1-1.27-.26c-1.95-.88-2.81-3.78-2.81-9.4h1.24c0,4.86.7,7.64,2.08,8.27,2.22,1,6.83-3.05,12.17-7.75,8.11-7.14,19.23-16.92,30.94-16.92v1.24c-11.25,0-22.16,9.6-30.12,16.61C71.63,116,67.6,119.56,64.7,119.56Z"/><rect class="cls-27" x="59.77" y="107.38" width="3.34" height="0.39"/><rect class="cls-28" x="60.04" y="107.77" width="2.79" height="4.27"/><rect class="cls-29" x="60.04" y="107.77" width="2.79" height="0.62"/><rect class="cls-27" x="107.06" y="93.26" width="1.03" height="1.67"/><path class="cls-30" d="M116.2,98.62,109.52,97a1.74,1.74,0,0,1-1.43-1.71V93a1.74,1.74,0,0,1,1.43-1.71l6.68-1.6Z"/><rect class="cls-31" x="116.2" y="88.96" width="1.28" height="10.28"/><circle class="cls-32" cx="111.04" cy="94.17" r="0.96"/><rect class="cls-33" x="112.9" y="92" width="2.46" height="4.34"/><rect class="cls-34" x="117.48" y="91.18" width="5.51" height="0.81"/><rect class="cls-34" x="117.48" y="96.34" width="5.51" height="0.81"/><path class="cls-16" d="M67.53,66.39a1.65,1.65,0,0,0-1.2,2.78l.06.06a6.49,6.49,0,0,1,1.19,7.13l-3.86,8.52s-6,11.35-6.56,20.32a1.27,1.27,0,0,0,1.27,1.35H69a1.27,1.27,0,0,0,1.26-1.09c.56-3.94,2.67-17.4,5.85-20.58h27.17A2.73,2.73,0,0,0,106,82.16v-13a2.73,2.73,0,0,0-2.73-2.73Z"/><path class="cls-35" d="M69.07,106.56H65.43c0-6.68,2.86-12.61,4.4-15.31a17.81,17.81,0,0,1,1.93-2.75C73,87.07,75,84.89,76.14,84.89c-3.19,3.19-5.31,16.73-5.86,20.62A1.22,1.22,0,0,1,69.07,106.56Z"/><polygon class="cls-36" points="89.01 79.94 77.92 79.94 80.64 70.66 91.73 70.66 89.01 79.94"/><polygon class="cls-37" points="79.23 79.94 77.92 79.94 80.64 70.66 81.94 70.66 79.23 79.94"/><polygon class="cls-38" points="80.4 79.94 79.99 79.94 82.7 70.66 83.12 70.66 80.4 79.94"/><polygon class="cls-38" points="81.64 79.94 81.23 79.94 83.94 70.66 84.36 70.66 81.64 79.94"/><polygon class="cls-38" points="82.89 79.94 82.47 79.94 85.19 70.66 85.6 70.66 82.89 79.94"/><polygon class="cls-38" points="84.13 79.94 83.71 79.94 86.43 70.66 86.84 70.66 84.13 79.94"/><polygon class="cls-38" points="85.37 79.94 84.95 79.94 87.67 70.66 88.08 70.66 85.37 79.94"/><polygon class="cls-38" points="86.61 79.94 86.19 79.94 88.91 70.66 89.32 70.66 86.61 79.94"/><polygon class="cls-39" points="80.64 70.66 101.69 70.66 81.49 72.19 80.64 70.66"/><polygon class="cls-39" points="77.98 79.94 100.05 79.94 79.66 78.4 77.98 79.94"/><rect class="cls-40" x="106" y="68.75" width="1.27" height="13.91"/><rect class="cls-41" x="107.27" y="74.6" width="1.34" height="2.21"/><circle class="cls-1" cx="68.13" cy="85.24" r="1.73"/><circle class="cls-42" cx="68.13" cy="85.24" r="1.36"/><circle class="cls-43" cx="68.55" cy="84.63" r="0.42"/><polygon class="cls-34" points="76.77 75.13 73.51 75.13 74.86 70.66 78.11 70.66 76.77 75.13"/><polygon class="cls-34" points="73.15 75.13 72.02 75.13 73.37 70.66 74.49 70.66 73.15 75.13"/><path class="cls-44" d="M67.71,67.07h35.94s.84,0,1.27,1.27.16,14,.16,14-1-13.06-1.51-14S67,67.71,67,67.71Z"/><polygon class="cls-39" points="78.41 83.18 76.91 84.21 103.91 84.21 104.91 83.18 78.41 83.18"/><rect class="cls-45" x="25.73" y="79.99" width="12.94" height="10.25"/><rect class="cls-46" x="29.28" y="77.27" width="5.83" height="2.72"/><rect class="cls-47" x="27.75" y="73.13" width="8.88" height="4.14"/><rect class="cls-48" x="27.75" y="73.13" width="3.04" height="4.14"/><rect class="cls-48" x="31.65" y="73.13" width="0.9" height="4.14"/><rect class="cls-48" x="33.25" y="73.13" width="0.9" height="4.14"/><rect class="cls-49" x="14.33" y="86.03" width="4.07" height="1.9" transform="translate(-43.44 21.73) rotate(-31.85)"/><rect class="cls-50" x="12" y="83.5" width="6.2" height="2.89" transform="translate(-42.56 20.76) rotate(-31.85)"/><rect class="cls-51" x="12.31" y="84.58" width="2.12" height="2.89" transform="translate(-43.38 20) rotate(-31.85)"/><rect class="cls-52" x="47.07" y="84.95" width="1.9" height="4.07" transform="translate(-51.21 81.87) rotate(-58.15)"/><rect class="cls-53" x="47.84" y="81.85" width="2.89" height="6.2" transform="translate(-48.88 81.98) rotate(-58.15)"/><rect class="cls-54" x="49.57" y="84.96" width="2.89" height="2.12" transform="translate(-48.98 83.97) rotate(-58.15)"/><circle class="cls-55" cx="32.19" cy="112.46" r="29.56"/><circle class="cls-47" cx="32.19" cy="112.46" r="27.07"/><circle class="cls-56" cx="32.19" cy="112.46" r="24.89"/><circle class="cls-57" cx="32.19" cy="112.46" r="22.82"/><path class="cls-58" d="M32.19,89.64a22.8,22.8,0,0,0-19.43,10.85,22.82,22.82,0,0,1,34.16,29.39A22.82,22.82,0,0,0,32.19,89.64Z"/><path class="cls-59" d="M29.45,131.72a1.05,1.05,0,0,1-.88-1.17h0a1,1,0,0,1,1.17-.88h0a1,1,0,0,1,.88,1.17h0a1,1,0,0,1-1,.89h-.15Zm4.36-.89a1,1,0,0,1,.88-1.17h0a1,1,0,0,1,1.17.88h0a1,1,0,0,1-.87,1.17h-.16A1,1,0,0,1,33.8,130.83Zm-9.67-.66a1,1,0,0,1-.51-1.37h0a1,1,0,0,1,1.37-.52h0a1.05,1.05,0,0,1,.52,1.38h0a1,1,0,0,1-1,.6h0A1,1,0,0,1,24.13,130.16Zm14.78-.53a1,1,0,0,1,.51-1.37h0a1,1,0,0,1,1.38.51h0a1.06,1.06,0,0,1-.52,1.38h0a1,1,0,0,1-.43.09h0A1,1,0,0,1,38.92,129.63Zm-19.44-2.46h0a1,1,0,0,1-.1-1.46h0a1,1,0,0,1,1.46-.1h0a1,1,0,0,1,.1,1.46h0a1,1,0,0,1-.79.35h0A1,1,0,0,1,19.48,127.18Zm24-.13a1,1,0,0,1,.09-1.46h0a1,1,0,0,1,1.46.1h0a1,1,0,0,1-.1,1.46h0a1.07,1.07,0,0,1-.68.25h0A1,1,0,0,1,43.48,127.05Zm-27.63-4h0a1,1,0,0,1,.31-1.44h0a1,1,0,0,1,1.43.31h0a1,1,0,0,1-.31,1.44h0a1.07,1.07,0,0,1-.56.16h0A1,1,0,0,1,15.85,123Zm31.28.27a1,1,0,0,1-.31-1.43h0a1,1,0,0,1,1.43-.31h0a1.06,1.06,0,0,1,.31,1.44h0a1,1,0,0,1-.87.47h0A1,1,0,0,1,47.13,123.27ZM13.53,118a1,1,0,0,1,.71-1.29h0a1,1,0,0,1,1.29.69h0a1,1,0,0,1-.69,1.29h0a1.07,1.07,0,0,1-.3.05h0A1.05,1.05,0,0,1,13.53,118Zm36,.66a1,1,0,0,1-.71-1.29h0a1.06,1.06,0,0,1,1.3-.71h0a1,1,0,0,1,.71,1.29h0a1,1,0,0,1-1,.75h0A1,1,0,0,1,49.57,118.64ZM12.75,112.5a1,1,0,0,1,1-1h0a1,1,0,0,1,1,1h0a1,1,0,0,1-1,1h0A1,1,0,0,1,12.75,112.5Zm36.82,0h0v-.06h0a1,1,0,0,1,1-1h0a1,1,0,0,1,1,1h0v0h0v0h0a1,1,0,0,1-1,1h0A1,1,0,0,1,49.57,112.46Zm-35.35-4.15a1,1,0,0,1-.71-1.29h0a1,1,0,0,1,1.29-.71h0a1,1,0,0,1,.71,1.29h0a1,1,0,0,1-1,.75h0A1.46,1.46,0,0,1,14.22,108.31Zm34.63-.81h0a1,1,0,0,1,.69-1.29h0a1,1,0,0,1,1.29.69h0a1,1,0,0,1-.69,1.29h0a1,1,0,0,1-.29.05h0A1,1,0,0,1,48.85,107.5Zm-32.74-4.09a1,1,0,0,1-.31-1.43h0a1,1,0,0,1,1.43-.31h0a1,1,0,0,1,.31,1.43h0a1,1,0,0,1-.87.48h0A1,1,0,0,1,16.12,103.41ZM46.78,103h0a1,1,0,0,1,.3-1.43h0a1,1,0,0,1,1.44.31h0a1,1,0,0,1-.31,1.44h0a1,1,0,0,1-.56.17h0A1,1,0,0,1,46.78,103ZM19.32,99.26a1,1,0,0,1,.09-1.47h0a1,1,0,0,1,1.46.1h0a1,1,0,0,1-.1,1.46h0a1,1,0,0,1-.68.26h0A1.05,1.05,0,0,1,19.32,99.26Zm24.2,0h0a1,1,0,0,1-.11-1.46h0a1,1,0,0,1,1.46-.1h0a1,1,0,0,1,.1,1.46h0a1,1,0,0,1-.78.36h0A1,1,0,0,1,43.52,99.28Zm-20-3.12a1,1,0,0,1,.51-1.37h0a1,1,0,0,1,1.38.51h0a1,1,0,0,1-.51,1.37h0a1.11,1.11,0,0,1-.44.09h0A1,1,0,0,1,23.55,96.16Zm15.81.47a1,1,0,0,1-.52-1.37h0a1,1,0,0,1,1.37-.52h0a1,1,0,0,1,.52,1.37h0a1,1,0,0,1-.94.61h0A1,1,0,0,1,39.36,96.63ZM28.49,94.39a1,1,0,0,1,.88-1.17h0a1,1,0,0,1,1.17.87h0a1,1,0,0,1-.88,1.18h-.14A1,1,0,0,1,28.49,94.39Zm6.12.86a1,1,0,0,1-.88-1.16h0a1,1,0,0,1,1.17-.89h0a1,1,0,0,1,.88,1.17h0a1,1,0,0,1-1,.89h-.14Z"/><circle class="cls-60" cx="32.19" cy="112.46" r="3.53"/><circle class="cls-47" cx="32.19" cy="112.46" r="1.69"/><path class="cls-60" d="M18.62,98.88h0a2.42,2.42,0,0,0,0,3.42l10.28,10.28,3.42-3.42L22,98.88A2.42,2.42,0,0,0,18.62,98.88Z"/><path class="cls-47" d="M28.89,110.38l-9.18-9.18A.86.86,0,0,1,20.94,100l9.18,9.18Z"/></g></g></svg>