<svg xmlns="http://www.w3.org/2000/svg" viewBox="0 0 150 150"><defs><style>.cls-1{fill:#ffd092;}.cls-2{fill:#d8af6f;}.cls-3{fill:#b2874f;}.cls-4{fill:#fff;}.cls-5{fill:#de5f71;}.cls-6{fill:#be3e4c;}.cls-7{fill:#8d2835;}.cls-10,.cls-8{fill:#278acc;}.cls-9{fill:#c1c1c1;}.cls-10{font-size:7.87px;font-family:Raleway-Bold, Raleway;font-weight:700;}.cls-11{letter-spacing:-0.02em;}.cls-12{letter-spacing:0em;}.cls-13{letter-spacing:-0.01em;}.cls-14{letter-spacing:0em;}.cls-15{letter-spacing:-0.01em;}.cls-16{letter-spacing:-0.03em;}</style></defs><title>Artboard 2 copy 13</title><g id="Layer_16" data-name="Layer 16"><g id="Layer_14" data-name="Layer 14"><path class="cls-1" d="M121.53,145.6H32.34a5.8,5.8,0,0,1-5.8-5.8V12.24a5.8,5.8,0,0,1,5.8-5.8h89.19a5.8,5.8,0,0,1,5.8,5.8V139.8a5.8,5.8,0,0,1-5.8,5.8Z"/><path class="cls-2" d="M121.53,7.79H32.34a4.46,4.46,0,0,0-4.46,4.46V139.8a4.46,4.46,0,0,0,4.46,4.46h89.19A4.46,4.46,0,0,0,126,139.8V12.24a4.46,4.46,0,0,0-4.46-4.46Z"/><path class="cls-3" d="M118,15.09S118,132.55,121,139.41l-81.63-2.1V121.8Z"/><rect class="cls-4" x="35.83" y="15.09" width="82.21" height="120.92"/><path class="cls-5" d="M58.59,18.42H54.9a1.25,1.25,0,0,1-1.25-1.25V4.4A1.25,1.25,0,0,1,54.9,3.15h3.7A1.25,1.25,0,0,1,59.85,4.4V17.17a1.25,1.25,0,0,1-1.25,1.25Z"/><path class="cls-6" d="M58.59,17.53a.36.36,0,0,0,.31-.19.35.35,0,0,0,0-.17V4.4A.36.36,0,0,0,58.59,4H54.9a.36.36,0,0,0-.36.36V17.17a.36.36,0,0,0,.36.36Z"/><path class="cls-7" d="M58.85,4.15a.36.36,0,0,0-.25-.1H54.9a.36.36,0,0,0-.36.36v.69a.36.36,0,0,1,.36-.36h3.7a.36.36,0,0,1,.36.36V4.4A.36.36,0,0,0,58.85,4.15Z"/><path class="cls-5" d="M99,18.42h-3.7A1.25,1.25,0,0,1,94,17.17V4.4a1.25,1.25,0,0,1,1.25-1.25H99a1.25,1.25,0,0,1,1.25,1.25V17.17A1.25,1.25,0,0,1,99,18.42Z"/><path class="cls-6" d="M99,17.53a.36.36,0,0,0,.31-.19.35.35,0,0,0,0-.17V4.4A.36.36,0,0,0,99,4h-3.7a.36.36,0,0,0-.36.36V17.17a.36.36,0,0,0,.36.36Z"/><path class="cls-7" d="M99.22,4.15A.36.36,0,0,0,99,4h-3.7a.36.36,0,0,0-.36.36v.69a.36.36,0,0,1,.36-.36H99a.36.36,0,0,1,.36.36V4.4A.36.36,0,0,0,99.22,4.15Z"/><path class="cls-8" d="M105.51,62.11H90.79V47.4h14.72Zm-14.27-.45h13.82V47.84H91.24Z"/><polygon class="cls-6" points="94.02 53.98 98.58 59.59 109.3 44.94 97.55 55.16 94.02 53.98"/><rect class="cls-8" x="46.91" y="47.4" width="37.41" height="1.6"/><rect class="cls-9" x="46.91" y="50.86" width="37.41" height="1.22"/><rect class="cls-9" x="46.91" y="53.26" width="37.41" height="1.22"/><rect class="cls-9" x="46.91" y="55.65" width="37.41" height="1.22"/><rect class="cls-9" x="46.91" y="58.05" width="37.41" height="1.22"/><rect class="cls-9" x="46.91" y="60.44" width="28.96" height="1.22"/><path class="cls-8" d="M105.51,92.78H90.79V78.06h14.72Zm-14.27-.45h13.82V78.51H91.24Z"/><polygon class="cls-6" points="94.02 84.64 98.58 90.25 109.3 75.61 97.55 85.82 94.02 84.64"/><rect class="cls-8" x="46.91" y="78.06" width="37.41" height="1.6"/><rect class="cls-9" x="46.91" y="81.52" width="37.41" height="1.22"/><rect class="cls-9" x="46.91" y="83.92" width="37.41" height="1.22"/><rect class="cls-9" x="46.91" y="86.32" width="37.41" height="1.22"/><rect class="cls-9" x="46.91" y="88.71" width="37.41" height="1.22"/><rect class="cls-9" x="46.91" y="91.11" width="28.96" height="1.22"/><path class="cls-8" d="M105.51,123.44H90.79V108.72h14.72ZM91.24,123h13.82V109.17H91.24Z"/><polygon class="cls-6" points="94.02 115.3 98.58 120.92 109.3 106.27 97.55 116.49 94.02 115.3"/><rect class="cls-8" x="46.91" y="108.72" width="37.41" height="1.6"/><rect class="cls-9" x="46.91" y="112.19" width="37.41" height="1.22"/><rect class="cls-9" x="46.91" y="114.58" width="37.41" height="1.22"/><rect class="cls-9" x="46.91" y="116.98" width="37.41" height="1.22"/><rect class="cls-9" x="46.91" y="119.38" width="37.41" height="1.22"/><rect class="cls-9" x="46.91" y="121.77" width="28.96" height="1.22"/><text class="cls-10" transform="translate(54.63 35.94)">CH<tspan class="cls-11" x="11.26" y="0">E</tspan><tspan class="cls-12" x="15.87" y="0">C</tspan><tspan class="cls-13" x="21.27" y="0">K</tspan><tspan class="cls-14" x="26.43" y="0" xml:space="preserve"> LI</tspan><tspan class="cls-15" x="35.17" y="0">S</tspan><tspan class="cls-16" x="39.95" y="0">T</tspan></text></g></g></svg>