<svg xmlns="http://www.w3.org/2000/svg" xmlns:xlink="http://www.w3.org/1999/xlink" viewBox="0 0 150 150"><defs><style>.cls-1,.cls-2,.cls-6,.cls-7{fill:none;}.cls-2{stroke:#aa8f4f;stroke-width:2px;}.cls-2,.cls-6,.cls-7{stroke-miterlimit:10;}.cls-3{fill:#647286;}.cls-4{fill:#c7cad1;}.cls-5{fill:#f0f1f2;}.cls-6{stroke:#333;stroke-width:1.45px;}.cls-7{stroke:#00d398;stroke-width:2.17px;}.cls-8{fill:#999;}.cls-9{clip-path:url(#clip-path);}.cls-10{fill:#ecb98c;}.cls-11{clip-path:url(#clip-path-2);}.cls-12{fill:#f6e2ca;}.cls-13{fill:#a57842;}.cls-14{fill:#e05b4a;}.cls-15{clip-path:url(#clip-path-3);}.cls-16{fill:#e8a244;}.cls-17{fill:#eed8a2;}.cls-18{fill:#324c5b;}.cls-19{fill:#efc849;}.cls-20{fill:#d1933e;}</style><clipPath id="clip-path"><circle class="cls-1" cx="82.73" cy="85.41" r="59.25"/></clipPath><clipPath id="clip-path-2"><path class="cls-1" d="M94.38,144.86s.93-5.21-3.73-14.21-3.1-10.61-4.35-16.9-2.95-15.46-2.95-15.46A39.89,39.89,0,0,0,78.55,87.5c-3.41-5.21-1.43-8.81,3.92-9,4.08-.13,8.65,9.52,10.2,18.34s11.64,10.43,14.59,9.17-5.59-16.36-5.43-22.66c0,0-16.45-10.93-14.12-17.23s12.57,3.74,17.69,6.44c0,0,8.07,3.42,11.18,11.15A85.48,85.48,0,0,0,124,98.65c1.55,2.34,4.19,3.78-1.09,11.33s-9,21-6.83,32.55Z"/></clipPath><clipPath id="clip-path-3"><polygon class="cls-1" points="118.9 107.56 77.01 56.05 65.61 47.93 68.68 60.61 112.73 112.54 118.9 107.56"/></clipPath></defs><title>Artboard 2 copy 19</title><g id="Layer_16" data-name="Layer 16"><g id="Layer_14" data-name="Layer 14"><circle class="cls-2" cx="83.45" cy="86.41" r="59.25"/><rect class="cls-3" x="14.87" y="8.01" width="80.08" height="99.28" transform="translate(-7.07 7.68) rotate(-7.52)"/><rect class="cls-4" x="5.19" y="21.83" width="99.28" height="80.08" transform="translate(-10.47 112.56) rotate(-86.27)"/><rect class="cls-5" x="9.92" y="13.14" width="80.08" height="99.28" transform="translate(-6.93 6.2) rotate(-6.64)"/><rect class="cls-6" x="13.01" y="24.3" width="13.31" height="13.31" transform="translate(-3.45 2.48) rotate(-6.64)"/><polyline class="cls-7" points="15.56 30.1 18.34 33.82 24.02 27.73"/><rect class="cls-8" x="31.02" y="22.07" width="46.82" height="1.41" transform="translate(-2.27 6.45) rotate(-6.64)"/><rect class="cls-8" x="31.5" y="26.22" width="46.82" height="1.41" transform="translate(-2.75 6.53) rotate(-6.64)"/><rect class="cls-8" x="32.04" y="31.51" width="24.53" height="1.41" transform="translate(-3.43 5.34) rotate(-6.64)"/><rect class="cls-6" x="15" y="41.37" width="13.31" height="13.31" transform="translate(-5.41 2.83) rotate(-6.64)"/><polyline class="cls-7" points="17.55 47.17 20.33 50.89 26.01 44.8"/><rect class="cls-8" x="33.01" y="39.14" width="46.82" height="1.41" transform="translate(-4.23 6.79) rotate(-6.64)"/><rect class="cls-8" x="33.49" y="43.29" width="46.82" height="1.41" transform="translate(-4.71 6.88) rotate(-6.64)"/><rect class="cls-8" x="34.03" y="48.58" width="24.53" height="1.41" transform="translate(-5.39 5.68) rotate(-6.64)"/><rect class="cls-6" x="16.98" y="58.43" width="13.31" height="13.31" transform="translate(-7.37 3.17) rotate(-6.64)"/><polyline class="cls-7" points="19.54 64.24 22.32 67.96 27.99 61.87"/><rect class="cls-8" x="34.99" y="56.21" width="46.82" height="1.41" transform="translate(-6.19 7.14) rotate(-6.64)"/><rect class="cls-8" x="35.48" y="60.36" width="46.82" height="1.41" transform="translate(-6.67 7.22) rotate(-6.64)"/><rect class="cls-8" x="36.02" y="65.65" width="24.53" height="1.41" transform="translate(-7.35 6.03) rotate(-6.64)"/><rect class="cls-6" x="18.97" y="75.5" width="13.31" height="13.31" transform="translate(-9.33 3.51) rotate(-6.64)"/><polyline class="cls-7" points="21.53 81.31 24.3 85.03 29.98 78.94"/><rect class="cls-8" x="36.98" y="73.28" width="46.82" height="1.41" transform="translate(-8.15 7.48) rotate(-6.64)"/><rect class="cls-8" x="37.47" y="77.43" width="46.82" height="1.41" transform="translate(-8.63 7.56) rotate(-6.64)"/><rect class="cls-8" x="38.01" y="82.72" width="24.53" height="1.41" transform="translate(-9.31 6.37) rotate(-6.64)"/><rect class="cls-6" x="20.96" y="92.57" width="13.31" height="13.31" transform="translate(-11.29 3.86) rotate(-6.64)"/><polyline class="cls-7" points="23.51 98.37 26.29 102.1 31.97 96"/><rect class="cls-8" x="38.97" y="90.34" width="46.82" height="1.41" transform="translate(-10.11 7.83) rotate(-6.64)"/><rect class="cls-8" x="39.45" y="94.5" width="46.82" height="1.41" transform="translate(-10.59 7.91) rotate(-6.64)"/><rect class="cls-8" x="39.99" y="99.79" width="24.53" height="1.41" transform="matrix(0.99, -0.12, 0.12, 0.99, -11.27, 6.72)"/><g class="cls-9"><path class="cls-10" d="M94.38,144.86s.93-5.21-3.73-14.21-3.1-10.61-4.35-16.9-2.95-15.46-2.95-15.46A39.89,39.89,0,0,0,78.55,87.5c-3.41-5.21-1.43-8.81,3.92-9,4.08-.13,8.65,9.52,10.2,18.34s11.64,10.43,14.59,9.17-5.59-16.36-5.43-22.66c0,0-16.45-10.93-14.12-17.23s12.57,3.74,17.69,6.44c0,0,8.07,3.42,11.18,11.15A85.48,85.48,0,0,0,124,98.65c1.55,2.34,4.19,3.78-1.09,11.33s-9,21-6.83,32.55Z"/><g class="cls-11"><path class="cls-12" d="M75.15,87.79s-3.62-6,.39-6.23,13.74,9.23,3.69,10.79Z"/><path class="cls-13" d="M102.56,68.66c-.29,3.34,4,7.16,6,9.44,1.72,2,3.69,3.87,5.21,6,2.4,3.39,3.26,7.48,4.63,11.32a.22.22,0,0,0,.42-.12c-1.22-5.19-3-9.74-6.52-13.72-2.77-3.12-9.66-8.53-9.5-13,0-.13-.19-.13-.2,0Z"/><path class="cls-12" d="M92.45,62.29s-4.9,2.91,0,6.09,5.71-.1,3.94-2.87A6.92,6.92,0,0,0,92.45,62.29Z"/></g><path class="cls-14" d="M110.13,109.31c-.5-.61-.62-1.34-.26-1.61l4.91-3.81c.35-.28,1.05,0,1.55.61l7.33,9c.5.61.62,1.34.27,1.61L119,118.91c-.36.28-1.05,0-1.55-.61Z"/><g class="cls-15"><polygon class="cls-16" points="118.9 108.55 82.92 64.01 65.61 48.93 75.43 68.55 112.73 113.53 118.9 108.55"/><path class="cls-17" d="M83,61.69c.36,1-7-3-7-3l-4-1.48.6,4.23.53,5.4S59,49.55,59.38,49.24s.93-8.49,3.5-7.93S78.73,55.1,80,55.89,83,61.69,83,61.69Z"/><path class="cls-18" d="M70.37,49.94l-4.55,3.25s-8.3-12.83-8-13.44S70.37,49.94,70.37,49.94Z"/><path class="cls-19" d="M118.49,110.85,76,58.66l-.88-3.92S90.38,65.3,91.67,66.46s12.69,12.22,13.83,13.46,9.51,19.16,10.42,20,6,9.76,6,9.76Z"/><path class="cls-20" d="M114.78,112.44l-42.12-51s-3.7-3-3.74-2.75.61,10,1.52,11.12S80.55,85.14,84.35,88.41,97.73,105,101,107.86s16.73,11.33,16.73,11.33Z"/></g></g></g></g></svg>