<svg xmlns="http://www.w3.org/2000/svg" viewBox="0 0 150 150"><defs><style>.cls-1{isolation:isolate;}.cls-2{fill:#d6d6d6;}.cls-3{fill:#fff;}.cls-4,.cls-8{fill:#cc4848;}.cls-5{fill:#626884;}.cls-6{fill:#aaa;}.cls-7{fill:#c1c1c1;}.cls-8{font-size:10.67px;}.cls-8,.cls-9{font-family:Montserrat-Regular, Montserrat;}.cls-9{font-size:7.29px;fill:#666;letter-spacing:0em;}.cls-10{letter-spacing:0em;}.cls-11{letter-spacing:0em;}.cls-12{opacity:0.7;mix-blend-mode:multiply;}.cls-13{fill:#e8e8e8;}.cls-14{fill:none;stroke:#cc4848;stroke-miterlimit:10;stroke-width:0.54px;}.cls-15{fill:#a8a8a8;}.cls-16{fill:#dedede;}.cls-17{opacity:0.5;}.cls-18{fill:#b8b8b8;}.cls-19{fill:#2e2e2e;}.cls-20{fill:#5c5c5c;}.cls-21{fill:#3a94a6;opacity:0.4;}.cls-22{fill:#2c6f7d;opacity:0.78;}.cls-23{fill:#707070;}.cls-24{fill:#3d3d3d;}.cls-25{fill:#242424;}.cls-26{opacity:0.3;}.cls-27{fill:#f9ae37;}.cls-28{fill:#b88c5c;}.cls-29{fill:#63492c;}.cls-30{fill:#cf5dc6;}.cls-31{fill:#c9b087;}.cls-32{fill:#e05555;}.cls-33{fill:#7d3d3d;}.cls-34{fill:#e66f6f;}</style></defs><title>Artboard 2 copy 10</title><g class="cls-1"><g id="Layer_16" data-name="Layer 16"><g id="Layer_14" data-name="Layer 14"><rect class="cls-2" x="46.25" y="25.45" width="100.57" height="78.78"/><rect class="cls-3" x="46.25" y="25.45" width="100.57" height="73.85"/><rect class="cls-4" x="46.25" y="25.45" width="100.57" height="11.91"/><circle class="cls-5" cx="62.93" cy="31.86" r="2.2"/><circle class="cls-5" cx="76.37" cy="31.86" r="2.2"/><circle class="cls-5" cx="116.89" cy="31.86" r="2.2"/><circle class="cls-5" cx="130.33" cy="31.86" r="2.2"/><path class="cls-6" d="M64.39,30.33V21.58a1.5,1.5,0,0,0-1.46-1.53V31.86A1.5,1.5,0,0,0,64.39,30.33Z"/><path class="cls-7" d="M61.46,21.58v8.75a1.5,1.5,0,0,0,1.46,1.53V20.05A1.5,1.5,0,0,0,61.46,21.58Z"/><path class="cls-6" d="M77.83,30.33V21.58a1.5,1.5,0,0,0-1.46-1.53V31.86A1.5,1.5,0,0,0,77.83,30.33Z"/><path class="cls-7" d="M74.9,21.58v8.75a1.5,1.5,0,0,0,1.46,1.53V20.05A1.5,1.5,0,0,0,74.9,21.58Z"/><path class="cls-6" d="M118.15,30.33V21.58a1.5,1.5,0,0,0-1.46-1.53V31.86A1.5,1.5,0,0,0,118.15,30.33Z"/><path class="cls-7" d="M115.23,21.58v8.75a1.5,1.5,0,0,0,1.46,1.53V20.05A1.5,1.5,0,0,0,115.23,21.58Z"/><path class="cls-6" d="M131.59,30.33V21.58a1.5,1.5,0,0,0-1.46-1.53V31.86A1.5,1.5,0,0,0,131.59,30.33Z"/><path class="cls-7" d="M128.67,21.58v8.75a1.5,1.5,0,0,0,1.46,1.53V20.05A1.5,1.5,0,0,0,128.67,21.58Z"/><text class="cls-8" transform="translate(51.11 50.76)">JUN</text><text class="cls-9" transform="translate(51.11 58.35)">2<tspan class="cls-10" x="4.11" y="0">0</tspan><tspan class="cls-11" x="8.93" y="0">19</tspan></text><rect class="cls-2" x="78.58" y="63.19" width="8.85" height="8.85"/><rect class="cls-4" x="89.42" y="63.19" width="8.85" height="8.85"/><rect class="cls-2" x="100.26" y="63.19" width="8.85" height="8.85"/><rect class="cls-2" x="111.1" y="63.19" width="8.85" height="8.85"/><rect class="cls-2" x="121.94" y="63.19" width="8.85" height="8.85"/><rect class="cls-4" x="132.79" y="63.19" width="8.85" height="8.85"/><rect class="cls-2" x="78.58" y="74.03" width="8.85" height="8.85"/><rect class="cls-2" x="89.42" y="74.03" width="8.85" height="8.85"/><rect class="cls-2" x="100.26" y="74.03" width="8.85" height="8.85"/><rect class="cls-2" x="111.1" y="74.03" width="8.85" height="8.85"/><rect class="cls-2" x="121.94" y="74.03" width="8.85" height="8.85"/><rect class="cls-4" x="132.79" y="74.03" width="8.85" height="8.85"/><rect class="cls-2" x="78.58" y="84.87" width="8.85" height="8.85"/><rect class="cls-2" x="89.42" y="84.87" width="8.85" height="8.85"/><rect class="cls-2" x="100.26" y="84.87" width="8.85" height="8.85"/><rect class="cls-2" x="111.1" y="84.87" width="8.85" height="8.85"/><rect class="cls-2" x="121.94" y="84.87" width="8.85" height="8.85"/><rect class="cls-2" x="78.58" y="52.34" width="8.85" height="8.85"/><rect class="cls-2" x="89.42" y="52.34" width="8.85" height="8.85"/><rect class="cls-2" x="100.26" y="52.34" width="8.85" height="8.85"/><rect class="cls-2" x="111.1" y="52.34" width="8.85" height="8.85"/><rect class="cls-2" x="121.94" y="52.34" width="8.85" height="8.85"/><rect class="cls-4" x="132.79" y="52.34" width="8.85" height="8.85"/><rect class="cls-2" x="51.11" y="61.2" width="21.94" height="32.53"/><g class="cls-12"><polygon class="cls-13" points="146.81 99.3 146.81 25.45 46.24 99.3 146.81 99.3"/></g><path class="cls-14" d="M111.4,85.55a8,8,0,0,0,8.14-.46c6.63-4.2,3.21-14.66-4.63-14.1C108.14,71.48,105.46,82,111.4,85.55Z"/><polygon class="cls-15" points="72.79 117.5 6.02 117.5 6.02 71.42 65.28 71.42 72.79 78.62 72.79 117.5"/><polygon class="cls-16" points="71.75 116.96 6.71 116.96 6.71 72.12 66.11 72.12 66.43 77.6 71.75 77.57 71.75 116.96"/><polygon class="cls-17" points="66.11 72.12 71.75 77.57 65.83 78.2 66.11 72.12"/><polygon class="cls-18" points="66.11 72.12 71.75 77.57 66.43 77.6 66.11 72.12"/><rect class="cls-19" x="15.17" y="77.6" width="1.33" height="28.64"/><rect class="cls-19" x="45.3" y="77.6" width="1.33" height="28.64"/><rect class="cls-19" x="15.17" y="104.91" width="8.29" height="1.33"/><rect class="cls-19" x="28.01" y="104.91" width="18.62" height="1.33"/><rect class="cls-19" x="15.17" y="77.53" width="31.46" height="1.33"/><rect class="cls-19" x="66.71" y="85.22" width="0.95" height="20.35"/><rect class="cls-19" x="63.53" y="104.63" width="4.12" height="0.95"/><rect class="cls-19" x="45.3" y="104.63" width="4.12" height="0.95"/><rect class="cls-19" x="50.55" y="85.17" width="17.1" height="0.95"/><rect class="cls-19" x="49.42" y="104.96" width="14.11" height="0.28"/><rect class="cls-19" x="23.47" y="105.43" width="4.54" height="0.28"/><rect class="cls-19" x="10.24" y="91.36" width="5.95" height="0.7"/><rect class="cls-19" x="45.3" y="81.76" width="5.95" height="0.7"/><rect class="cls-19" x="45.3" y="92.25" width="5.95" height="0.7"/><rect class="cls-19" x="10.24" y="110.63" width="27.07" height="0.7"/><rect class="cls-19" x="10.24" y="91.36" width="0.7" height="19.96"/><rect class="cls-19" x="36.62" y="104.91" width="0.7" height="6.42"/><rect class="cls-19" x="50.55" y="81.76" width="0.7" height="10.83"/><rect class="cls-19" x="34.11" y="78.2" width="0.63" height="13.17"/><rect class="cls-19" x="15.84" y="95.83" width="18.58" height="0.63"/><rect class="cls-19" x="34.11" y="95.83" width="0.63" height="9.6"/><rect class="cls-19" x="34.42" y="87.84" width="11.54" height="0.63"/><rect class="cls-19" x="39.88" y="78.2" width="0.63" height="9.96"/><rect class="cls-20" x="40.51" y="109.18" width="24.67" height="0.78"/><rect class="cls-20" x="10.59" y="74.03" width="29.6" height="1.54"/><rect class="cls-20" x="40.51" y="111.32" width="18.09" height="0.78"/><path class="cls-20" d="M66.86,114.45H38.79v-7.28H66.86Zm-27.76-.31H66.55v-6.65H39.1Z"/><circle class="cls-21" cx="43.21" cy="98.77" r="10.45" transform="translate(-57.19 59.49) rotate(-45)"/><path class="cls-22" d="M43.21,89.21A9.57,9.57,0,1,1,36.45,92a9.5,9.5,0,0,1,6.76-2.8Zm0-.89a10.45,10.45,0,1,0,7.39,3.06,10.42,10.42,0,0,0-7.39-3.06Z"/><rect class="cls-23" x="51.02" y="105.43" width="4.65" height="6.44" transform="translate(-61.21 69.54) rotate(-45)"/><rect class="cls-24" x="49.55" y="106.04" width="4.65" height="2.29" transform="translate(-60.6 68.07) rotate(-45)"/><path class="cls-25" d="M51.69,90.3a12,12,0,1,0,0,17A12,12,0,0,0,51.69,90.3ZM50.6,106.17a10.45,10.45,0,1,1,0-14.78A10.45,10.45,0,0,1,50.6,106.17Z"/><ellipse class="cls-3" cx="44.75" cy="90.9" rx="1.68" ry="2.09" transform="translate(-56.28 98.56) rotate(-68.12)"/><path class="cls-25" d="M54,112.57,68.36,127A1.86,1.86,0,0,0,71,127l.67-.67a1.86,1.86,0,0,0,0-2.62L57.26,109.28ZM70.39,125.7c-.34.34-1.08.15-1.66-.43s-.77-1.32-.43-1.66,1.08-.15,1.66.43S70.73,125.36,70.39,125.7Z"/><polygon class="cls-26" points="36.37 71.42 35.32 72.36 6.88 101.28 6.02 102.49 6.02 104.89 8.61 102.98 37.05 74.07 39.66 71.42 36.37 71.42"/><rect class="cls-27" x="0.87" y="85.78" width="40.56" height="2.43" transform="translate(-55.7 41.07) rotate(-45.47)"/><polygon class="cls-28" points="6.07 100.61 7.8 102.31 1.67 106.81 6.07 100.61"/><rect class="cls-29" x="34.81" y="69.98" width="3.78" height="2.43" transform="translate(-39.79 47.43) rotate(-45.47)"/><path class="cls-30" d="M38.36,67.78,37.16,69l1.73,1.71,1.2-1.22a1.11,1.11,0,0,0-.17-1.55l0,0A1.11,1.11,0,0,0,38.36,67.78Z"/><path class="cls-26" d="M20.88,78.36l-.65-.65-4-4-.49-.49a.79.79,0,0,0-1.11,0l-2.89,2.89a.79.79,0,0,0,0,1.11l.49.49h0l4,4,.65.65a.79.79,0,0,0,1.11,0l2.89-2.89A.79.79,0,0,0,20.88,78.36Z"/><rect class="cls-31" x="13.36" y="72.77" width="5.65" height="8.8" rx="0.79" ry="0.79" transform="translate(-49.82 34.05) rotate(-45)"/><rect class="cls-32" x="13.29" y="74.28" width="5.65" height="5.62" transform="translate(-49.79 33.97) rotate(-45)"/><rect class="cls-33" x="12.51" y="75.34" width="4.25" height="0.52" transform="translate(-49.17 32.49) rotate(-45)"/><rect class="cls-33" x="13.2" y="76.25" width="3.15" height="0.52" transform="translate(-49.78 32.85) rotate(-45)"/><rect class="cls-34" x="14.66" y="76.38" width="4.25" height="2.75" transform="translate(-50.06 34.65) rotate(-45)"/></g></g></g></svg>