<svg xmlns="http://www.w3.org/2000/svg" xmlns:xlink="http://www.w3.org/1999/xlink" viewBox="0 0 150 150"><defs><style>.cls-1,.cls-14{fill:none;}.cls-2{clip-path:url(#clip-path);}.cls-3{fill:#ebb18a;}.cls-4{fill:#fcc59f;}.cls-5{fill:#d99e77;}.cls-6{fill:#ffbe91;}.cls-7{fill:#ffc7a1;}.cls-8{fill:#d64140;}.cls-9{fill:#d65050;}.cls-10{fill:#9e0000;}.cls-11{fill:#a40a0a;}.cls-12{fill:#ad1c1c;}.cls-13{fill:#ffd9c2;}.cls-14{stroke:#aa8f4f;stroke-miterlimit:10;stroke-width:2.07px;}.cls-15{fill:#c26802;}.cls-16{fill:#ea9002;}.cls-17{fill:#edac1f;}.cls-18{fill:#ffdf59;}.cls-19{fill:#f1c200;}.cls-20{fill:#ed9600;}.cls-21{fill:#b35f00;}.cls-22{fill:#1c6ea3;}.cls-23{fill:#2772a3;}.cls-24{fill:#00426b;}.cls-25{fill:#014671;}.cls-26{fill:#044d7a;}</style><clipPath id="clip-path"><circle class="cls-1" cx="84.74" cy="76.92" r="61.19"/></clipPath></defs><title>Artboard 2 copy 18</title><g id="Layer_16" data-name="Layer 16"><g id="Layer_14" data-name="Layer 14"><g class="cls-2"><path class="cls-3" d="M109.43,60.62S90.6,62.06,87.12,62,81.46,61.73,76,58.48s-8.83-4.42-16.65-1.93-12.37,5.45-14,2S43.77,53,59.21,46.6s31.91-.29,31.91-.29l18.3-4.17Z"/><path class="cls-4" d="M106.08,56.69S87.25,58.13,83.77,58s-5.65-.24-11.07-3.49-8.83-4.42-16.64-1.93c-5.17,1.65-8.9,3.49-11.3,3.57a5.72,5.72,0,0,0,.69,2.4c1.59,3.41,6.14.46,14-2S70.62,55.23,76,58.48s7.59,3.4,11.07,3.49,22.31-1.35,22.31-1.35V42.14l-3.35.76Z"/><path class="cls-5" d="M58.94,55.25l0-1.59a3.85,3.85,0,0,1,3.93-3.78l11.88.24a8.11,8.11,0,0,1,7.95,8.27h0a1.19,1.19,0,0,1-1.21,1.16l-18.8-.38A3.85,3.85,0,0,1,58.94,55.25Z"/><path class="cls-5" d="M44.78,56l.33-.2C72,39.09,90.68,49.31,90.68,49.31L98,48.58V61.43c5.1-.34,10.2-.72,11.27-.8l-2.16-18L91.13,46.31s-16.47-6.13-31.91.29C48,51.26,45,53.68,44.78,56Z"/><path class="cls-6" d="M59.62,56.31l0-1.59a3.86,3.86,0,0,1,3.93-3.78l11.88.24a8.11,8.11,0,0,1,7.95,8.27h0a1.19,1.19,0,0,1-1.21,1.16l-18.8-.38A3.85,3.85,0,0,1,59.62,56.31Z"/><path class="cls-7" d="M64.26,55.33A3.84,3.84,0,0,0,60.4,58.6a3.83,3.83,0,0,0,3,1.56l18.8.38a1.19,1.19,0,0,0,1.21-1.16,8.13,8.13,0,0,0-.15-1.7,4.8,4.8,0,0,0-3.83-2Z"/><rect class="cls-8" x="100.83" y="37.84" width="10.24" height="29.57"/><rect class="cls-9" x="100.83" y="49.07" width="10.24" height="18.34"/><rect class="cls-10" x="111.08" y="40.98" width="34.11" height="23.29"/><rect class="cls-11" x="111.08" y="44.57" width="34.11" height="19.66"/><rect class="cls-12" x="111.08" y="54.4" width="34.11" height="9.83"/><path class="cls-13" d="M63.6,52.44h0a2.86,2.86,0,0,1,2.86,2.86v1.4a2.86,2.86,0,0,1-2.86,2.86h0a2.86,2.86,0,0,1-2.86-2.86V55.3A2.86,2.86,0,0,1,63.6,52.44Z"/></g><circle class="cls-14" cx="84.2" cy="77.12" r="61.19"/><path class="cls-3" d="M37.73,96S56.56,94.53,60,94.62s5.65.24,11.07,3.49,8.83,4.42,16.65,1.93,12.37-5.45,14-2,1.68,5.57-13.77,12-31.91.29-31.91.29l-18.3,4.17Z"/><path class="cls-4" d="M41.07,99.9s18.83-1.44,22.31-1.35S69,98.79,74.46,102s8.83,4.42,16.65,1.93c5.17-1.65,8.9-3.49,11.3-3.57a5.73,5.73,0,0,0-.69-2.4c-1.59-3.41-6.14-.46-14,2s-11.22,1.32-16.65-1.93S63.53,94.71,60,94.62,37.73,96,37.73,96v18.48l3.35-.76Z"/><path class="cls-5" d="M88.22,101.34l0,1.59a3.85,3.85,0,0,1-3.93,3.78l-11.88-.24a8.11,8.11,0,0,1-7.95-8.27h0A1.19,1.19,0,0,1,65.64,97l18.8.38A3.85,3.85,0,0,1,88.22,101.34Z"/><path class="cls-5" d="M102.38,100.63l-.33.19c-26.9,16.67-45.57,6.45-45.57,6.45L49.2,108V95.15c-5.1.34-10.2.72-11.27.8l2.16,18L56,110.28s16.47,6.14,31.91-.29C99.16,105.33,102.17,102.91,102.38,100.63Z"/><path class="cls-15" d="M96.19,93.82v2.78a1.75,1.75,0,0,1-.62,1.24,4.48,4.48,0,0,1-1,.7,10.33,10.33,0,0,1-1.08.52c-.36.14-.75.29-1.18.42s-.85.25-1.32.36-.92.21-1.42.3-1,.17-1.59.24-1.18.14-1.79.2-1.33.09-2,.11l-1.45,0c-.54,0-1.06,0-1.59,0-.68,0-1.35-.06-2-.12s-1.22-.11-1.8-.2-1.08-.16-1.58-.25-1-.2-1.42-.31-.91-.24-1.32-.38-.82-.28-1.19-.43a7.86,7.86,0,0,1-1.07-.54,4.18,4.18,0,0,1-1-.77,1.62,1.62,0,0,1-.49-1.09V93.82h5.62l.84-.17a40.9,40.9,0,0,1,13.83,0l1,.19Z"/><path class="cls-16" d="M70.77,93.52v4.94a4.18,4.18,0,0,1-1-.77V93.52Z"/><path class="cls-16" d="M73,93.52v5.91q-.64-.2-1.19-.43V93.52Z"/><path class="cls-16" d="M75.78,93.52v6.59c-.49-.09-1-.2-1.42-.31V93.52Z"/><path class="cls-16" d="M79.16,93.52v7c-.61-.05-1.22-.11-1.8-.2V93.52Z"/><path class="cls-16" d="M95.57,93.52v4.31a4.48,4.48,0,0,1-1,.7v-5Z"/><path class="cls-16" d="M93.53,93.52v5.54c-.36.14-.75.29-1.18.42v-6Z"/><path class="cls-16" d="M91,93.52v6.32c-.45.11-.92.21-1.42.3V93.52Z"/><path class="cls-16" d="M88,93.52v6.86c-.58.08-1.18.14-1.79.2V93.52Z"/><path class="cls-16" d="M84.21,93.52v7.17l-1.45,0c-.54,0-1.06,0-1.59,0V93.52Z"/><ellipse class="cls-17" cx="82.76" cy="93.82" rx="13.43" ry="4.12"/><path class="cls-18" d="M88,90l-2.39,1.34c-.52-.05-1.15-.09-2-.1v-.49H81.84v.53c-2,.11-3.15.5-3.15,1s1.36.81,3.34,1h.09l-1.36.76c-.62,0-1.18-.11-1.63-.19l-.56.65c.3.05.68.1,1.13.14L76,96.77c-3.62-.69-6-1.89-6-3.25,0-2.11,5.73-3.82,12.81-3.82A40.52,40.52,0,0,1,88,90Z"/><path class="cls-19" d="M88,90l-2.39,1.34-1,.58c-.4,0-.88-.05-1.45-.05-1.21,0-1.6.15-1.6.31s.54.27,1.83.43l-1.24.69-1.36.76-1.06.6L76,96.77a37.92,37.92,0,0,0,6.78.58c7.08,0,12.81-1.72,12.81-3.83C95.57,92,92.47,90.63,88,90Z"/><ellipse class="cls-17" cx="82.76" cy="93.52" rx="10.27" ry="3.07"/><path class="cls-20" d="M86.81,90.71a32,32,0,0,0-4.05-.25c-5.67,0-10.27,1.37-10.27,3.07,0,1.08,1.87,2,4.69,2.57Z"/><path class="cls-21" d="M82.76,91.55c5,0,9.23,1.09,10.09,2.52a1.05,1.05,0,0,0,.17-.55c0-1.69-4.6-3.07-10.27-3.07s-10.27,1.37-10.27,3.07a1.06,1.06,0,0,0,.17.55C73.53,92.64,77.71,91.55,82.76,91.55Z"/><path class="cls-21" d="M85.55,93.72a17.48,17.48,0,0,0-1.78-.26c-1.58-.18-2.23-.29-2.23-.48s.39-.31,1.6-.31a18.78,18.78,0,0,1,2.68.19l.54-.63v-.78H81.3v.67a11,11,0,0,0-1.21.17H78.7v.81h0c.06.52,1.39.79,3.34,1,1.32.13,1.91.26,2,.46H78.58v.78a22.68,22.68,0,0,0,3.16.24v.53h1.82v-.57c2.1-.11,3.27-.52,3.3-1h0v-.8Z"/><path class="cls-19" d="M83.77,92.68l-.4,0-1.24.69c1.32.14,1.89.27,1.89.47s-.73.35-1.79.35c-.51,0-1,0-1.46-.06l-1.06.6c.61.05,1.31.09,2,.1v.53h1.82v-.57c2.14-.11,3.32-.53,3.32-1S86,92.91,83.77,92.68Zm1.85-1.31-1,.58c.55,0,1,.09,1.22.13l.54-.62Z"/><path class="cls-18" d="M81.54,92.2c0,.17.54.27,1.83.43l-1.24.69H82c-2-.21-3.34-.48-3.34-1s1.15-.87,3.15-1v-.53h1.82v.49c.81,0,1.45,0,2,.1l-1,.58c-.4,0-.88-.05-1.45-.05C81.94,91.89,81.54,92,81.54,92.2Z"/><path class="cls-18" d="M80.77,94.08l-1.06.6c-.44,0-.83-.08-1.13-.14l.56-.65C79.59,94,80.15,94,80.77,94.08Z"/><path class="cls-15" d="M95.3,90v2.78A1.75,1.75,0,0,1,94.68,94a4.48,4.48,0,0,1-1,.7,10.11,10.11,0,0,1-1.08.52c-.36.14-.75.29-1.18.42s-.85.25-1.32.36-.92.21-1.42.3-1,.17-1.59.24-1.18.15-1.79.2-1.33.09-2,.11l-1.45,0c-.54,0-1.06,0-1.59,0-.68,0-1.35-.06-2-.12s-1.22-.11-1.8-.2-1.08-.16-1.58-.25-1-.2-1.42-.3-.91-.24-1.32-.38-.82-.28-1.19-.43a8,8,0,0,1-1.07-.54,4.21,4.21,0,0,1-1-.77,1.62,1.62,0,0,1-.49-1.09V90h5.62l.84-.17a40.9,40.9,0,0,1,13.83,0l1,.19Z"/><path class="cls-16" d="M69.88,89.68v4.94a4.21,4.21,0,0,1-1-.77V89.68Z"/><path class="cls-16" d="M72.14,89.68v5.91q-.64-.2-1.19-.43V89.68Z"/><path class="cls-16" d="M74.89,89.68v6.59c-.49-.09-1-.2-1.42-.3V89.68Z"/><path class="cls-16" d="M78.27,89.68v7c-.62-.05-1.22-.11-1.8-.2V89.68Z"/><path class="cls-16" d="M94.68,89.68V94a4.48,4.48,0,0,1-1,.7v-5Z"/><path class="cls-16" d="M92.64,89.68v5.54c-.36.14-.75.29-1.18.42v-6Z"/><path class="cls-16" d="M90.14,89.68V96c-.45.11-.92.21-1.42.3V89.68Z"/><path class="cls-16" d="M87.13,89.68v6.86c-.58.08-1.18.15-1.79.2V89.68Z"/><path class="cls-16" d="M83.32,89.68v7.17l-1.45,0c-.54,0-1.06,0-1.59,0V89.68Z"/><ellipse class="cls-17" cx="81.87" cy="89.98" rx="13.44" ry="4.12"/><path class="cls-18" d="M87.13,86.19l-2.39,1.34c-.52-.05-1.16-.09-2-.1v-.49H81v.53c-2,.11-3.15.5-3.15,1s1.36.81,3.34,1h.09l-1.36.76c-.62,0-1.18-.11-1.63-.19l-.56.65c.3.05.68.1,1.13.14l-3.73,2.09c-3.62-.68-6-1.89-6-3.25,0-2.11,5.73-3.82,12.81-3.82A40.52,40.52,0,0,1,87.13,86.19Z"/><path class="cls-19" d="M87.13,86.19l-2.39,1.34-1,.58c-.4,0-.88-.05-1.45-.05-1.21,0-1.6.15-1.6.31s.54.27,1.83.43l-1.24.69-1.36.76-1.06.6-3.73,2.09a37.92,37.92,0,0,0,6.78.58c7.08,0,12.81-1.72,12.81-3.83C94.68,88.13,91.58,86.79,87.13,86.19Z"/><ellipse class="cls-17" cx="81.87" cy="89.69" rx="10.27" ry="3.07"/><path class="cls-20" d="M85.92,86.87a32,32,0,0,0-4.05-.25C76.2,86.62,71.6,88,71.6,89.69c0,1.08,1.87,2,4.69,2.57Z"/><path class="cls-21" d="M81.87,87.72c5,0,9.23,1.09,10.09,2.52a1.06,1.06,0,0,0,.17-.55c0-1.69-4.6-3.07-10.27-3.07S71.6,88,71.6,89.69a1.06,1.06,0,0,0,.17.55C72.64,88.8,76.82,87.72,81.87,87.72Z"/><path class="cls-21" d="M84.66,89.88a17.81,17.81,0,0,0-1.78-.26c-1.58-.18-2.23-.29-2.23-.48s.39-.31,1.6-.31a18.78,18.78,0,0,1,2.68.19l.54-.63v-.78H80.41v.67a11.23,11.23,0,0,0-1.21.17H77.81v.81h0c.06.52,1.39.79,3.34,1,1.32.13,1.91.26,2,.46H77.69v.78a22.68,22.68,0,0,0,3.16.24v.53h1.82v-.57c2.1-.11,3.27-.52,3.3-1h0v-.8Z"/><path class="cls-19" d="M82.88,88.84l-.4,0-1.24.69c1.32.14,1.89.27,1.89.47s-.73.35-1.79.35c-.51,0-1,0-1.46-.06l-1.06.6c.61.05,1.31.09,2,.1v.53h1.82v-.57c2.14-.11,3.32-.53,3.32-1S85.1,89.07,82.88,88.84Zm1.86-1.31-1,.58c.55,0,1,.09,1.22.13l.54-.62Z"/><path class="cls-18" d="M80.65,88.37c0,.17.54.27,1.83.43l-1.24.69h-.09c-2-.21-3.34-.48-3.34-1s1.15-.87,3.15-1v-.53h1.82v.49c.81,0,1.45,0,2,.1l-1,.58c-.4,0-.88-.05-1.45-.05C81,88.06,80.65,88.21,80.65,88.37Z"/><path class="cls-18" d="M79.88,90.25l-1.06.6c-.44,0-.83-.08-1.13-.14l.56-.65C78.7,90.13,79.26,90.2,79.88,90.25Z"/><path class="cls-15" d="M93.32,86.14v2.78a1.75,1.75,0,0,1-.62,1.24,4.4,4.4,0,0,1-1,.7,10.11,10.11,0,0,1-1.08.52c-.37.15-.75.29-1.18.42s-.85.25-1.32.37-.92.2-1.42.3-1,.17-1.59.24-1.18.15-1.79.2S82,93,81.33,93l-1.45,0c-.54,0-1.06,0-1.59,0-.69,0-1.35-.06-2-.12s-1.22-.11-1.8-.2-1.08-.16-1.58-.25-1-.2-1.42-.3-.91-.24-1.32-.38-.82-.28-1.19-.43a7.86,7.86,0,0,1-1.07-.54,4.16,4.16,0,0,1-1-.77,1.62,1.62,0,0,1-.49-1.09V86.14h5.62L72.9,86a38.43,38.43,0,0,1,7-.6,38.86,38.86,0,0,1,6.85.58l1,.19Z"/><path class="cls-16" d="M67.9,85.85v4.93a4.16,4.16,0,0,1-1-.77V85.85Z"/><path class="cls-16" d="M70.16,85.85v5.91q-.64-.21-1.19-.43V85.85Z"/><path class="cls-16" d="M72.9,85.85v6.59c-.49-.09-1-.2-1.42-.3V85.85Z"/><path class="cls-16" d="M76.29,85.85v7c-.61-.05-1.22-.11-1.8-.2V85.85Z"/><path class="cls-16" d="M92.69,85.85v4.31a4.4,4.4,0,0,1-1,.7v-5Z"/><path class="cls-16" d="M90.66,85.85v5.53c-.37.15-.75.29-1.18.42v-6Z"/><path class="cls-16" d="M88.15,85.85v6.32c-.45.11-.92.2-1.42.3V85.85Z"/><path class="cls-16" d="M85.14,85.85V92.7c-.58.08-1.18.15-1.79.2V85.85Z"/><path class="cls-16" d="M81.33,85.85V93l-1.45,0c-.54,0-1.06,0-1.59,0V85.85Z"/><ellipse class="cls-17" cx="79.88" cy="86.15" rx="13.43" ry="4.12"/><path class="cls-18" d="M85.14,82.36,82.76,83.7c-.52-.05-1.15-.09-2-.1V83.1H79v.53c-2,.11-3.15.5-3.15,1s1.36.81,3.34,1h.09l-1.36.76c-.62,0-1.18-.11-1.63-.19l-.56.65c.3.05.68.1,1.13.14L73.1,89.1c-3.62-.68-6-1.89-6-3.25,0-2.11,5.73-3.82,12.81-3.82A40.32,40.32,0,0,1,85.14,82.36Z"/><path class="cls-19" d="M85.14,82.36,82.76,83.7l-1,.58c-.4,0-.88-.05-1.45-.05-1.21,0-1.6.15-1.6.31s.54.27,1.83.43l-1.24.69-1.36.76-1.06.6L73.1,89.1a37.84,37.84,0,0,0,6.78.58c7.08,0,12.81-1.72,12.81-3.83C92.69,84.3,89.6,83,85.14,82.36Z"/><ellipse class="cls-17" cx="79.88" cy="85.85" rx="10.27" ry="3.07"/><path class="cls-20" d="M83.94,83a32,32,0,0,0-4.05-.25c-5.67,0-10.27,1.37-10.27,3.07,0,1.08,1.87,2,4.69,2.57Z"/><path class="cls-21" d="M79.88,83.88c5,0,9.23,1.09,10.09,2.52a1.05,1.05,0,0,0,.17-.55c0-1.69-4.6-3.07-10.27-3.07s-10.27,1.37-10.27,3.07a1.06,1.06,0,0,0,.17.55C70.66,85,74.84,83.88,79.88,83.88Z"/><path class="cls-21" d="M82.68,86a17.79,17.79,0,0,0-1.78-.26c-1.58-.18-2.23-.29-2.23-.48s.39-.31,1.6-.31a19,19,0,0,1,2.68.19l.54-.63v-.78H78.43v.67a11.24,11.24,0,0,0-1.21.17H75.82v.81h0c.06.52,1.39.79,3.34,1,1.32.13,1.91.26,2,.46H75.71v.78a22.68,22.68,0,0,0,3.16.24v.53H80.7v-.57c2.1-.11,3.27-.52,3.3-1h0V86Z"/><path class="cls-19" d="M80.9,85l-.4,0-1.24.69c1.32.14,1.89.27,1.89.47s-.73.35-1.79.35c-.51,0-1,0-1.46-.06l-1.06.6c.61.05,1.31.09,2,.1v.53H80.7v-.57C82.84,87,84,86.54,84,86S83.11,85.24,80.9,85Zm1.85-1.31-1,.58c.55,0,1,.09,1.22.13l.54-.62Z"/><path class="cls-18" d="M78.67,84.53c0,.17.54.27,1.83.43l-1.24.69h-.09c-2-.21-3.34-.48-3.34-1s1.15-.87,3.15-1V83.1h1.82v.49c.81,0,1.45,0,2,.1l-1,.58c-.4,0-.88-.05-1.45-.05C79.06,84.22,78.67,84.37,78.67,84.53Z"/><path class="cls-18" d="M77.9,86.41l-1.06.6c-.44,0-.83-.08-1.13-.14l.56-.65C76.72,86.3,77.27,86.36,77.9,86.41Z"/><path class="cls-15" d="M95.3,82.31v2.78a1.75,1.75,0,0,1-.62,1.24,4.44,4.44,0,0,1-1,.7,10.11,10.11,0,0,1-1.08.52c-.36.15-.75.29-1.18.42s-.85.25-1.32.37-.92.21-1.42.3-1,.17-1.59.24-1.18.15-1.79.2-1.33.09-2,.11l-1.45,0c-.54,0-1.06,0-1.59,0-.68,0-1.35-.06-2-.12s-1.22-.11-1.8-.2-1.08-.16-1.58-.25-1-.2-1.42-.3-.91-.24-1.32-.38-.82-.28-1.19-.43a8,8,0,0,1-1.07-.54,4.15,4.15,0,0,1-1-.77,1.62,1.62,0,0,1-.49-1.09V82.31h5.62l.84-.17a40.86,40.86,0,0,1,13.83,0l1,.19Z"/><path class="cls-16" d="M69.88,82v4.93a4.15,4.15,0,0,1-1-.77V82Z"/><path class="cls-16" d="M72.14,82v5.91q-.64-.21-1.19-.43V82Z"/><path class="cls-16" d="M74.89,82V88.6c-.49-.09-1-.2-1.42-.3V82Z"/><path class="cls-16" d="M78.27,82v7c-.62-.05-1.22-.11-1.8-.2V82Z"/><path class="cls-16" d="M94.68,82v4.31a4.44,4.44,0,0,1-1,.7V82Z"/><path class="cls-16" d="M92.64,82v5.53c-.36.15-.75.29-1.18.42V82Z"/><path class="cls-16" d="M90.14,82v6.32c-.45.11-.92.21-1.42.3V82Z"/><path class="cls-16" d="M87.13,82v6.86c-.58.08-1.18.15-1.79.2V82Z"/><path class="cls-16" d="M83.32,82v7.17l-1.45,0c-.54,0-1.06,0-1.59,0V82Z"/><ellipse class="cls-17" cx="81.87" cy="82.31" rx="13.44" ry="4.12"/><path class="cls-18" d="M87.13,78.52l-2.39,1.34c-.52-.05-1.16-.09-2-.1v-.49H81v.53c-2,.11-3.15.5-3.15,1s1.36.81,3.34,1h.09l-1.36.76c-.62,0-1.18-.11-1.63-.19l-.56.65c.3.05.68.1,1.13.14l-3.73,2.09c-3.62-.68-6-1.89-6-3.25,0-2.11,5.73-3.82,12.81-3.82A40.32,40.32,0,0,1,87.13,78.52Z"/><path class="cls-19" d="M87.13,78.52l-2.39,1.34-1,.58c-.4,0-.88-.05-1.45-.05-1.21,0-1.6.15-1.6.31s.54.27,1.83.43l-1.24.69-1.36.76-1.06.6-3.73,2.09a37.82,37.82,0,0,0,6.78.58c7.08,0,12.81-1.72,12.81-3.83C94.68,80.46,91.58,79.12,87.13,78.52Z"/><ellipse class="cls-17" cx="81.87" cy="82.02" rx="10.27" ry="3.07"/><path class="cls-20" d="M85.92,79.2a32,32,0,0,0-4.05-.25C76.2,78.95,71.6,80.32,71.6,82c0,1.08,1.87,2,4.69,2.57Z"/><path class="cls-21" d="M81.87,80c5,0,9.23,1.09,10.09,2.52a1.06,1.06,0,0,0,.17-.55c0-1.69-4.6-3.07-10.27-3.07S71.6,80.32,71.6,82a1.06,1.06,0,0,0,.17.55C72.64,81.13,76.82,80,81.87,80Z"/><path class="cls-21" d="M84.66,82.21a17.16,17.16,0,0,0-1.78-.26c-1.58-.18-2.23-.29-2.23-.48s.39-.31,1.6-.31a18.72,18.72,0,0,1,2.68.19l.54-.63v-.78H80.41v.67a10.93,10.93,0,0,0-1.21.17H77.81v.81h0c.06.52,1.39.79,3.34,1,1.32.13,1.91.26,2,.46H77.69v.78a22.71,22.71,0,0,0,3.16.24v.53h1.82V84c2.1-.11,3.27-.52,3.3-1h0v-.8Z"/><path class="cls-19" d="M82.88,81.17l-.4,0-1.24.69c1.32.14,1.89.27,1.89.47s-.73.35-1.79.35c-.51,0-1,0-1.46-.06l-1.06.6c.61.05,1.31.09,2,.1v.53h1.82v-.57c2.14-.11,3.32-.53,3.32-1S85.1,81.4,82.88,81.17Zm1.86-1.31-1,.58c.55,0,1,.09,1.22.13l.54-.62Z"/><path class="cls-18" d="M80.65,80.7c0,.17.54.27,1.83.43l-1.24.69h-.09c-2-.21-3.34-.48-3.34-1s1.15-.87,3.15-1v-.53h1.82v.49c.81,0,1.45,0,2,.1l-1,.58c-.4,0-.88-.05-1.45-.05C81,80.39,80.65,80.54,80.65,80.7Z"/><path class="cls-18" d="M79.88,82.57l-1.06.6c-.44,0-.83-.08-1.13-.14l.56-.65C78.7,82.46,79.26,82.53,79.88,82.57Z"/><path class="cls-15" d="M96.75,78.47v2.78a1.75,1.75,0,0,1-.62,1.24,4.44,4.44,0,0,1-1,.7,10.11,10.11,0,0,1-1.08.52c-.36.15-.75.29-1.18.42s-.85.25-1.32.37-.92.21-1.42.3-1,.17-1.59.24-1.18.14-1.79.2-1.33.09-2,.11l-1.45,0c-.54,0-1.06,0-1.59,0-.68,0-1.35-.06-2-.12s-1.22-.11-1.8-.2-1.08-.16-1.58-.25-1-.2-1.42-.3-.91-.24-1.32-.38-.82-.28-1.19-.43a7.73,7.73,0,0,1-1.07-.54,4.12,4.12,0,0,1-1-.77,1.62,1.62,0,0,1-.49-1.09V78.47H75.5l.84-.17a40.82,40.82,0,0,1,13.83,0l1,.19Z"/><path class="cls-16" d="M71.34,78.18v4.93a4.12,4.12,0,0,1-1-.77V78.18Z"/><path class="cls-16" d="M73.59,78.18v5.91q-.64-.21-1.19-.43V78.18Z"/><path class="cls-16" d="M76.34,78.18v6.59c-.49-.09-1-.2-1.42-.3V78.18Z"/><path class="cls-16" d="M79.72,78.18v7c-.61-.05-1.22-.11-1.8-.2V78.18Z"/><path class="cls-16" d="M96.13,78.18v4.31a4.44,4.44,0,0,1-1,.7v-5Z"/><path class="cls-16" d="M94.09,78.18v5.53c-.36.15-.75.29-1.18.42v-6Z"/><path class="cls-16" d="M91.59,78.18v6.32c-.45.11-.92.21-1.42.3V78.18Z"/><path class="cls-16" d="M88.58,78.18V85c-.58.08-1.18.14-1.79.2V78.18Z"/><path class="cls-16" d="M84.77,78.18v7.17l-1.45,0c-.54,0-1.06,0-1.59,0V78.18Z"/><ellipse class="cls-17" cx="83.32" cy="78.48" rx="13.44" ry="4.12"/><path class="cls-18" d="M88.58,74.69,86.19,76c-.52-.05-1.15-.09-2-.1v-.49H82.41V76c-2,.11-3.15.5-3.15,1s1.36.81,3.34,1h.09l-1.36.76c-.62,0-1.18-.11-1.63-.19l-.56.65c.3.05.68.1,1.13.14l-3.73,2.09c-3.62-.68-6-1.89-6-3.25,0-2.11,5.73-3.82,12.81-3.82A40.32,40.32,0,0,1,88.58,74.69Z"/><path class="cls-19" d="M88.58,74.69,86.19,76l-1,.58c-.4,0-.88-.05-1.45-.05-1.21,0-1.6.15-1.6.31s.54.27,1.83.43L82.7,78l-1.36.76-1.06.6-3.73,2.09a37.82,37.82,0,0,0,6.78.58c7.08,0,12.81-1.72,12.81-3.83C96.13,76.63,93,75.29,88.58,74.69Z"/><ellipse class="cls-17" cx="83.32" cy="78.18" rx="10.27" ry="3.07"/><path class="cls-20" d="M87.37,75.36a32,32,0,0,0-4.05-.25c-5.67,0-10.27,1.37-10.27,3.07,0,1.08,1.87,2,4.69,2.57Z"/><path class="cls-21" d="M83.32,76.21c5,0,9.23,1.09,10.09,2.52a1.05,1.05,0,0,0,.17-.55c0-1.69-4.6-3.07-10.27-3.07s-10.27,1.37-10.27,3.07a1.06,1.06,0,0,0,.17.55C74.09,77.3,78.28,76.21,83.32,76.21Z"/><path class="cls-21" d="M86.11,78.37a17.16,17.16,0,0,0-1.78-.26c-1.58-.18-2.23-.29-2.23-.48s.39-.31,1.6-.31a18.72,18.72,0,0,1,2.68.19l.54-.63v-.78H81.86v.68a10.69,10.69,0,0,0-1.21.17H79.26v.81h0c.06.52,1.39.79,3.34,1,1.32.13,1.91.26,2,.46H79.15V80a22.71,22.71,0,0,0,3.16.24v.53h1.82v-.57c2.1-.11,3.27-.52,3.3-1h0v-.8Z"/><path class="cls-19" d="M84.34,77.33l-.4,0L82.7,78c1.32.14,1.89.27,1.89.47s-.73.35-1.79.35c-.51,0-1,0-1.46-.06l-1.06.6c.61.05,1.31.09,2,.1V80h1.82V79.4c2.14-.11,3.32-.53,3.32-1S86.55,77.57,84.34,77.33ZM86.19,76l-1,.58c.55,0,1,.09,1.22.13l.54-.62Z"/><path class="cls-18" d="M82.1,76.86c0,.17.54.27,1.83.43L82.7,78H82.6c-2-.21-3.34-.48-3.34-1s1.15-.87,3.15-1v-.53h1.82v.49c.81,0,1.45,0,2,.1l-1,.58c-.4,0-.88-.05-1.45-.05C82.5,76.55,82.1,76.7,82.1,76.86Z"/><path class="cls-18" d="M81.33,78.74l-1.06.6c-.44,0-.83-.08-1.13-.14l.56-.65C80.16,78.62,80.71,78.69,81.33,78.74Z"/><path class="cls-15" d="M95.3,74.64v2.78a1.75,1.75,0,0,1-.62,1.24,4.44,4.44,0,0,1-1,.7,10.33,10.33,0,0,1-1.08.53c-.36.14-.75.29-1.18.42s-.85.25-1.32.37-.92.21-1.42.3-1,.17-1.59.24-1.18.14-1.79.2-1.33.09-2,.11l-1.45,0c-.54,0-1.06,0-1.59,0-.68,0-1.35-.06-2-.12s-1.22-.11-1.8-.2-1.08-.16-1.58-.25-1-.2-1.42-.3-.91-.24-1.32-.38S71.32,80,71,79.81a7.73,7.73,0,0,1-1.07-.54,4.15,4.15,0,0,1-1-.77,1.62,1.62,0,0,1-.49-1.09V74.64h5.62l.84-.17a40.82,40.82,0,0,1,13.83,0l1,.19Z"/><path class="cls-16" d="M69.88,74.34v4.93a4.15,4.15,0,0,1-1-.77V74.34Z"/><path class="cls-16" d="M72.14,74.34v5.91Q71.5,80,71,79.81V74.34Z"/><path class="cls-16" d="M74.89,74.34v6.59c-.49-.09-1-.2-1.42-.3V74.34Z"/><path class="cls-16" d="M78.27,74.34v7c-.62-.05-1.22-.11-1.8-.2V74.34Z"/><path class="cls-16" d="M94.68,74.34v4.31a4.44,4.44,0,0,1-1,.7v-5Z"/><path class="cls-16" d="M92.64,74.34v5.54c-.36.14-.75.29-1.18.42v-6Z"/><path class="cls-16" d="M90.14,74.34v6.32c-.45.11-.92.21-1.42.3V74.34Z"/><path class="cls-16" d="M87.13,74.34V81.2c-.58.08-1.18.14-1.79.2V74.34Z"/><path class="cls-16" d="M83.32,74.34v7.17l-1.45,0c-.54,0-1.06,0-1.59,0V74.34Z"/><ellipse class="cls-17" cx="81.87" cy="74.64" rx="13.44" ry="4.12"/><path class="cls-18" d="M87.13,70.85l-2.39,1.34c-.52-.05-1.16-.09-2-.1V71.6H81v.53c-2,.11-3.15.5-3.15,1s1.36.81,3.34,1h.09l-1.36.76c-.62,0-1.18-.11-1.63-.19l-.56.65c.3.05.68.1,1.13.14l-3.73,2.09c-3.62-.68-6-1.89-6-3.25,0-2.11,5.73-3.82,12.81-3.82A40.32,40.32,0,0,1,87.13,70.85Z"/><path class="cls-19" d="M87.13,70.85l-2.39,1.34-1,.58c-.4,0-.88-.05-1.45-.05-1.21,0-1.6.15-1.6.31s.54.27,1.83.43l-1.24.69-1.36.76-1.06.6-3.73,2.09a37.81,37.81,0,0,0,6.78.58c7.08,0,12.81-1.72,12.81-3.83C94.68,72.79,91.58,71.45,87.13,70.85Z"/><ellipse class="cls-17" cx="81.87" cy="74.34" rx="10.27" ry="3.07"/><path class="cls-20" d="M85.92,71.53a32,32,0,0,0-4.05-.25c-5.67,0-10.27,1.37-10.27,3.07,0,1.08,1.87,2,4.69,2.57Z"/><path class="cls-21" d="M81.87,72.38c5,0,9.23,1.09,10.09,2.52a1.06,1.06,0,0,0,.17-.55c0-1.69-4.6-3.07-10.27-3.07S71.6,72.65,71.6,74.34a1.06,1.06,0,0,0,.17.55C72.64,73.46,76.82,72.38,81.87,72.38Z"/><path class="cls-6" d="M87.54,100.28l0,1.59a3.85,3.85,0,0,1-3.93,3.78l-11.88-.24a8.11,8.11,0,0,1-7.95-8.27h0A1.19,1.19,0,0,1,65,96l18.8.38A3.85,3.85,0,0,1,87.54,100.28Z"/><path class="cls-7" d="M82.9,101.26A3.84,3.84,0,0,0,86.76,98a3.83,3.83,0,0,0-3-1.56L65,96a1.19,1.19,0,0,0-1.21,1.16,8.13,8.13,0,0,0,.15,1.7,4.8,4.8,0,0,0,3.83,2Z"/><rect class="cls-22" x="36.08" y="89.18" width="10.24" height="29.57"/><rect class="cls-23" x="36.08" y="89.18" width="10.24" height="18.34"/><rect class="cls-24" x="1.97" y="92.31" width="34.11" height="23.29"/><rect class="cls-25" x="1.97" y="92.36" width="34.11" height="19.66"/><rect class="cls-26" x="1.97" y="92.36" width="34.11" height="9.83"/><path class="cls-13" d="M83.56,104.15h0a2.86,2.86,0,0,1-2.86-2.86v-1.4A2.86,2.86,0,0,1,83.56,97h0a2.86,2.86,0,0,1,2.86,2.86v1.4A2.86,2.86,0,0,1,83.56,104.15Z"/></g></g></svg>