<svg xmlns="http://www.w3.org/2000/svg" viewBox="0 0 150 150"><defs><style>.cls-1{fill:#647a8f;}.cls-2{fill:#d54d54;}.cls-3{fill:#ef9f4e;}.cls-4{fill:#00a1cb;}.cls-5{font-size:10.6px;fill:#485c62;font-family:SourceSansPro-BoldIt, SourceSansPro BoldIt;font-weight:700;}</style></defs><title>Artboard 2 copy 14</title><g id="Layer_16" data-name="Layer 16"><g id="Layer_14" data-name="Layer 14"><rect class="cls-1" x="19.76" y="70.71" width="16.6" height="43.25"/><rect class="cls-2" x="105.17" y="27.45" width="16.6" height="86.51"/><rect class="cls-3" x="76.7" y="43.35" width="16.6" height="70.61"/><rect class="cls-4" x="48.23" y="57.94" width="16.6" height="56.02"/><path class="cls-1" d="M139.22,122.83H8V22.5a1.64,1.64,0,0,1,1.32-1.65,1.59,1.59,0,0,1,1.85,1.56v97.23h128a1.64,1.64,0,0,1,1.65,1.32A1.59,1.59,0,0,1,139.22,122.83Z"/><polygon class="cls-1" points="137.6 115.7 147.19 121.24 137.6 126.78 137.6 115.7"/><polygon class="cls-1" points="15.08 24.04 9.54 14.45 4 24.04 15.08 24.04"/><text class="cls-5" transform="translate(22.66 134)">01</text><text class="cls-5" transform="translate(51.13 134)">02</text><text class="cls-5" transform="translate(79.6 134)">03</text><text class="cls-5" transform="translate(108.07 134)">04</text></g></g></svg>