<svg xmlns="http://www.w3.org/2000/svg" viewBox="0 0 150 150"><defs><style>.cls-1{fill:#2b2b2b;}.cls-2{fill:#cca692;}.cls-3{fill:#f9cfb3;}.cls-4{fill:#bad1dd;}.cls-5{fill:#e4f4ff;}.cls-6{fill:#5e7477;}.cls-7{fill:#a9c6d3;}.cls-8{fill:#536668;}.cls-9{fill:#4c5e60;}.cls-10{fill:#5a6267;}.cls-11{fill:#3a3e45;}.cls-12{fill:#99999a;}.cls-13{fill:#454b51;}.cls-14{fill:#afafaf;}.cls-15{fill:#3d5872;}.cls-16{fill:#fff;}</style></defs><title>Artboard 2 copy 12</title><g id="Layer_16" data-name="Layer 16"><g id="Layer_14" data-name="Layer 14"><g id="_2" data-name="2"><polygon class="cls-1" points="66.76 136.34 63.66 144.2 64.75 146.13 68.82 146.6 71.95 144.2 72.66 139.41 71.85 135.69 66.76 136.34"/><polygon class="cls-1" points="80.6 135.69 79.68 137.96 80.49 144.2 83.62 146.6 87.69 146.13 88.79 144.2 85.69 136.34 80.6 135.69"/><polygon class="cls-2" points="68.27 20.6 68.27 21.54 67.77 24.73 72.88 28.87 74.38 27.38 77.58 24.98 77.19 21.1 68.27 20.6"/><path class="cls-3" d="M80.15,13.22c-.18-1.49.06-3.36-.88-4.63a3.73,3.73,0,0,0-2.53-1.36A4.88,4.88,0,0,1,75.53,7,2.89,2.89,0,0,0,74,6.82a6.79,6.79,0,0,0-.75.15A.72.72,0,0,0,73,6.31a1.77,1.77,0,0,0-1-.4,5,5,0,0,0-2.88.48c-.56.24-1.1.54-1.68.8a2.31,2.31,0,0,0-.92.77,2.11,2.11,0,0,0-.38,1.42,11.16,11.16,0,0,1-.07,1.35A25.43,25.43,0,0,1,66.37,14c0,.23-.07.76-.46.52-.16-.1-.07-.38-.25-.5-.39-.26-.55.19-.57.45a5.39,5.39,0,0,0,.54,2.86c.27.5.65.65,1,1s.34,1.19.49,1.69a2.77,2.77,0,0,0,.48.92c.46.58,1.27.86,1.8,1.39a5.87,5.87,0,0,0,1.64,1.32,3.52,3.52,0,0,0,1.52.19h.21a3.1,3.1,0,0,0,1.32-.16,5.87,5.87,0,0,0,1.67-1.28c.54-.52,1.35-.78,1.83-1.35a2.76,2.76,0,0,0,.5-.91c.16-.5.1-1.28.53-1.68s.77-.5,1-1A5.84,5.84,0,0,0,80.23,14C80.21,13.77,80.18,13.49,80.15,13.22Z"/><path class="cls-1" d="M80.2,6c-.57-.25-.66-1-1.22-1.34-.31-.17-1.32-.14-1.75-.28-1.49-.47-2.82-1.3-4.45-1.26a8,8,0,0,0-2.47.57C69.17,4.1,67.86,4.79,67.7,6c-2.29.26-3.23,3.39-2.91,5.37a7.54,7.54,0,0,0,.78,2.14,15.92,15.92,0,0,1,.92,2c-.24-.71.52-.7.36-1.86A15.55,15.55,0,0,1,67,11.42c0-1.35.52-3,2-3.45,1.26-.42,2.56.37,3.81.81a7.39,7.39,0,0,0,3.7.31c2.29-.4,2.07,2.5,2,4.08.12-.09.08.73.16.86a3.06,3.06,0,0,1,.56,1.14,12.51,12.51,0,0,0,1-2.15,14.81,14.81,0,0,0,.51-2.47c.1-.6.24-4-.15-4.39A1,1,0,0,0,80.2,6Z"/><path class="cls-4" d="M85.66,27.05,85.49,27c-1.47-.46-9-.77-9-1.36-.19,2.12-1.59,3.66-3.73,2.9a4.62,4.62,0,0,1-.86-.41c-2.38-1.59-3.15-2.68-6-1.74-2,.74-4.07,1.24-6.12,1.91a2.28,2.28,0,0,0-.75.35C57.4,30,59.56,33,60,34.43a54.67,54.67,0,0,1,1.36,7.44c.24,1.51.49,3,.69,4.4,0,0,0,.08,0,.12l.06.36.1.65s.08.52.08.52c.06.37.12.72.18,1.05s.08.51.12.74l.13.81c.66,3.6.08,4.7-.13,8.36-.08,1.34.31,5.28.23,6.62a1.85,1.85,0,0,0,.21,1.23,1.81,1.81,0,0,0,1.72.41c2.54-.32,5-1,7.58-1.29,1.81-.19,3.63-.16,5.43-.4,1.12-.14,2.25-.57,3.37-.66.92-.07,2,.35,2.85-.13a3,3,0,0,0,1.18-2.49v0c.13-1.54.18-10.34,0-11.86a23,23,0,0,1,.09-4.54c.05-.53.11-1.08.19-1.65,0-.23.05-.45.09-.68s0-.24,0-.36c.78-5.9,1.46-12.7.62-15.17A2.56,2.56,0,0,0,85.66,27.05Z"/><path class="cls-5" d="M75.73,25.66a14.42,14.42,0,0,1-2.81,1.63.15.15,0,0,1-.11,0,.19.19,0,0,1-.12-.06,17,17,0,0,1-4.88-3.76l-1.46,2.64a15,15,0,0,0,.59,1.7,15.19,15.19,0,0,0,2.3,3.79l3.45-4a.16.16,0,0,1,.27,0l3.49,3.65a21.69,21.69,0,0,0,1.76-2.92,21.94,21.94,0,0,0,1-2.23l-1.49-2.25A14.45,14.45,0,0,1,75.73,25.66Z"/><path class="cls-6" d="M85.26,62.26l0,0a20.06,20.06,0,0,1-3,.62l-.4.05c-1.46.18-2.89.22-4.09.25-4.85.11-9.47-.81-14.18-1.54-.31,0-.63,0-.94,0-.15.73-.65,3.6-1.14,6.43-.1.57-.2,1.13-.29,1.67-.42,2.44-1.27,4.9-.48,7.29s-.22,4.5.3,6.87a34.79,34.79,0,0,1,.77,8c-.05,4,.49,8.07.51,12.12,0,.29,0,.58,0,.88,0,.84,0,1.69-.07,2.57a40,40,0,0,0,.22,8.65c.91,4.91,2.08,9.73,2.08,14.76.49,2.56.56,4.4.9,7,1.24.08,5.83.13,7.39.18-.32,0-.82-15.77-1-22.15,0-1.29-.07-2.2-.09-2.52-.2-4.15-1-8.46-.68-12.63,0-.57.1-1.13.18-1.68.57-4.31,1.32-8.69,1.88-13,.32-2.39,1.42-5.79,1.51-8.18C74.4,82,75.67,86.94,76.2,91c.23,1.74.2,3.47.47,5.2.59,3.82-.12,7.73.71,11.5.9,4.13.86,8.08,1,12.29.07,2.72.13,5.41.28,8.11a84,84,0,0,0,.7,9.93s5.32.27,7.41-.61c1.09-.46.1-13.07.06-14.61-.08-2.8-.27-5.63-.33-8.41-.06-3.28.31-6.26.47-9.53s-.58-6.29-.39-9.63c.26-4.61.47-9.11,1.18-13.71.22-1.46.11-2.94.24-4.4.33-3.87-2.11-7.39-2.36-11.23C85.54,65,85.85,63,85.26,62.26Z"/><path class="cls-4" d="M62,38.76c-.88-2.5-2.43-5.31-1.65-8.05.06-.21.54-2.46.24-2.48-2.1-.15-2.58,1.93-3.32,3.39-1,1.94-2.14,3.8-3.08,5.77-1.61,3.39-4.31,7.47-4,11.4.1,1.17.11,2.31.31,3.47,0,.23,1.26,4.07,1.33,4.29a1.16,1.16,0,0,1,0,.46c-.21,2.73-.33,5.45,1.76,7.55.9.91,2.32.93,3.6.89.63,0,1.58-.94,2.22-1,.88,0-.32-9.5-.4-10.14a15.06,15.06,0,0,1-.57-2.5c0-1.73-.11-1.08,0-1.73a10.49,10.49,0,0,1,3-3.44l.57-.3.05-.05c1-1,1.89-2.18,1.52-2.77C62.82,42.26,62.54,40.24,62,38.76Z"/><path class="cls-4" d="M92,34.73a25.09,25.09,0,0,1-1.56-3.39c-.84-1.85-2.35-4.61-4.84-4.37h-.11c-2.75.35.63,3,.8,3.9.51,2.68-1.16,5-1.49,7.53,0,0,0,.05,0,.07a9.51,9.51,0,0,0,.75,4.92c.07.2.16.39.24.58s.23.5.35.74c.9,1.81,2.36,3.67,2,5.81-.23,1.31-1.41,2.26-1.38,3.63a6.29,6.29,0,0,1,0,2.24,5.31,5.31,0,0,1-.54.9,3.72,3.72,0,0,0,1,4.88c1.19.8,4,2.5,5,1s1.94-4.06,2.8-5.55c1.35-2.35,1.43-2.16,2-4.78a13.3,13.3,0,0,0-1.19-8.26C93.88,41.32,93.79,37.45,92,34.73Z"/><path class="cls-7" d="M61.37,41.87l.14,4.82.57-.3.17,1a.75.75,0,0,1,.12-.22h0s0,0,0,0S61.87,40,61.76,38Z"/><path class="cls-8" d="M61.76,66.25s-.79,3.63-1.37,7.87c1.41-1,4.63-11,4.63-11l-2.63-.49Z"/><polygon class="cls-4" points="85.53 63.29 88.96 66.3 92.14 62.86 87.08 61.09 85.53 63.29"/><path class="cls-7" d="M84.6,36c0-.14.18,2.1.16,2a34.63,34.63,0,0,0,.16,5h0c.1,1.06.24,2,.35,2.76.05-.53.11-1.08.19-1.65,0-.23.05-.45.09-.68.07.2.16.39.24.58-.06-.3-.13-.62-.2-.94C85.3,41.67,84.81,37.72,84.6,36Z"/><polygon class="cls-9" points="73.73 76.68 67.77 75.54 73.7 77.99 69.85 79.2 73.96 78.62 78.61 80.24 75.63 77.48 81.93 75.83 73.73 76.68"/><path class="cls-8" d="M85.6,65.89c-.06-.93.25-2.85-.34-3.63l0,0a20.06,20.06,0,0,1-3,.62c.5,2.48,2.16,7.76,5.06,11.27a29.23,29.23,0,0,0-.85-3A28.06,28.06,0,0,1,85.6,65.89Z"/><path class="cls-3" d="M82.74,65.09l.69,1.68.33-.16a.24.24,0,0,1,.35.27,2.5,2.5,0,0,1-.36.68l1,2.36,1.12,1.9c.43-.51,1-1.2,1.38-1.76l0-.13L89,66.3l-3.43-3Z"/><polygon class="cls-10" points="61.67 77.06 61.67 78.31 63.6 78.64 63 77.06 61.67 77.06"/><path class="cls-10" d="M66.86,80.43l-.36-.2-2.9-1.59v-.1a1.78,1.78,0,0,0-.6-1.48c-.34-.19-.64.17-.65.79V78l-7.09-3.89V74a1.75,1.75,0,0,0-.59-1.47c-.34-.19-.64.17-.66.78v.1l-2.75-1.51-.35-.19c-.5-.28-.94.26-1,1.21l-.34,9.54.4.22-.34,9.73a2.76,2.76,0,0,0,.83,2.29l14.24,8.77c.5.28,2.26-.3,2.27-1.31l.17-9.47.41-.23.17-9.74A2.74,2.74,0,0,0,66.86,80.43Z"/><path class="cls-10" d="M53.15,72.45a12.69,12.69,0,0,0,.33,1.71c.07,0,1.78-.1,1.78-.1l-.58-1.57Z"/><path class="cls-11" d="M65.17,80.23,49.94,71.87c-.48-.26-.9.29-.93,1.23l-.67,19.28a2.76,2.76,0,0,0,.83,2.29l15.57,8.77c.5.28.93-.3.94-1.31L66,82.47A2.73,2.73,0,0,0,65.17,80.23Z"/><path class="cls-12" d="M61.67,77.06c-.34-.19-.64.17-.65.79l0,1.07a1.79,1.79,0,0,0,.6,1.49c.35.19.64-.17.65-.8l0-1.08A1.78,1.78,0,0,0,61.67,77.06Z"/><path class="cls-12" d="M53.35,72.5c-.34-.19-.64.17-.66.78l0,1.06a1.76,1.76,0,0,0,.59,1.47c.34.19.64-.17.66-.79l0-1.06A1.75,1.75,0,0,0,53.35,72.5Z"/><path class="cls-13" d="M65.53,80.43,49.59,71.68c-.5-.28-.94.26-1,1.21l-.34,9.54,18,10,.17-9.74A2.74,2.74,0,0,0,65.53,80.43Z"/><polygon class="cls-14" points="55.49 86.46 58.95 88.38 59.01 85.9 55.56 83.99 55.49 86.46"/><polygon class="cls-12" points="55.41 89.21 58.88 91.15 58.95 88.38 55.49 86.46 55.41 89.21"/><polygon class="cls-11" points="65.86 92.2 65.84 93.04 67.17 93.04 67.18 92.66 67.59 92.43 66.26 92.43 65.86 92.2"/><path class="cls-10" d="M58.21,70A3.22,3.22,0,0,0,54,72.78s0,.6.56.52c1.33-2.51,2.23-2.24,3.89-2,5,1.43,3.21,5.79,3.21,5.79a.78.78,0,0,0,1.33,0C63,73.21,62.12,71.28,58.21,70Z"/><path class="cls-3" d="M60.22,66.16A13.85,13.85,0,0,1,59.3,64a.3.3,0,0,0-.12-.17.3.3,0,0,0-.24,0,21,21,0,0,1-4.48,1.28c.39.86,1.42,1.34,1.66,2.29.32,1.29-1.16,3.13-.61,4.45a9.91,9.91,0,0,0,1.88,2.22A9.58,9.58,0,0,1,59.34,74c.54.06.8.12,1.23-.32a5.58,5.58,0,0,0,.55-.74.36.36,0,0,1,.11-.12c.39-.24.61.52,1.09,0l.06-.07a1.34,1.34,0,0,0,.21-.76c0-.5.33-1.65.05-2.09C62.63,69.87,60.69,66.93,60.22,66.16Z"/><path class="cls-10" d="M60.69,71.17a.84.84,0,0,0-.53.62,1,1,0,0,0,0,.21,3.78,3.78,0,0,1,1.59,1.9l.81.42c.59.3.07,1.18-.52.88l0,0a5.11,5.11,0,0,1-.31,1.87.78.78,0,0,0,1.33,0C63,74.22,62.52,72.42,60.69,71.17Z"/><polygon class="cls-4" points="54.61 65.24 55.31 66.97 60.33 65.65 59.3 63.14 54.61 65.24"/><path class="cls-15" d="M73.84,30.19l.44-1a.2.2,0,0,0,0-.19l-.65-.7a2.18,2.18,0,0,1-.41-.51c-.07-.14-.25-.47-.42-.35s-.19.28-.28.42a2.88,2.88,0,0,1-.35.38l-.48.53a.17.17,0,0,0,0,.18l.6,1.09a1,1,0,0,1,.13.63S71,55.55,71.06,55.58L74.86,63a.17.17,0,0,0,.2.1c.07,0,3-6.81,3-6.84L73.81,30.8A.93.93,0,0,1,73.84,30.19Z"/><path class="cls-16" d="M69.92,19.46a3.13,3.13,0,0,0,3.36,2.07,3.06,3.06,0,0,0,2.32-2.07c-.83.08-1.74.13-2.71.13S70.83,19.54,69.92,19.46Z"/><polygon class="cls-8" points="72.78 71.61 73.96 63.84 72.39 63.84 72.78 71.61"/><path class="cls-9" d="M62.63,60a21.67,21.67,0,0,1-.24,2.68c15.63,4.69,23.14.65,23.14.65l-.28-2.21C75.71,63.71,62.63,60,62.63,60Z"/></g></g></g></svg>