<svg xmlns="http://www.w3.org/2000/svg" viewBox="0 0 150 150"><defs><style>.cls-1{fill:#50daff;}.cls-2{fill:#2b2b2b;}.cls-3{fill:#ffc043;}.cls-4{fill:#ffb600;}.cls-5{fill:#333;}.cls-6{fill:#444;}.cls-7{fill:#565656;}.cls-8{fill:#fff;}.cls-9{fill:#963d00;}.cls-10{fill:#9b9b9b;}.cls-11{fill:#303030;}.cls-12{fill:#cecece;}.cls-13{fill:#5e4424;}.cls-14{fill:#ffb7a4;}.cls-15{fill:#d99b8b;}.cls-16{fill:#a37568;}.cls-17{fill:#4f2e1e;}.cls-18{fill:#5e3624;}.cls-19{fill:#b58274;}.cls-20{opacity:0.25;}.cls-21{fill:#f94646;}.cls-22{fill:#782222;}.cls-23{fill:#83bf47;}.cls-24{fill:#374452;}.cls-25{fill:#3f4e5e;}.cls-26{fill:#50752c;}.cls-27{fill:#628f35;}.cls-28{fill:#4a5b6e;}.cls-29{fill:#2b3540;}.cls-30{opacity:0.3;}.cls-31{fill:#ffd14f;}.cls-32{fill:#ff5e4f;}.cls-33{fill:#bdbdbd;}.cls-34{fill:#ffdf5e;}.cls-35{fill:#bfa747;}.cls-36{fill:#a1a1a1;}.cls-37{fill:#616161;}.cls-38{fill:#3b3b3b;}.cls-39{fill:#1c1c1c;}.cls-40{fill:#2e2e2e;}.cls-41{fill:#ffe991;}.cls-42{fill:#5e89ff;}.cls-43{fill:#0a0a0a;}.cls-44{fill:#3f5cab;}.cls-45{fill:gray;}.cls-46{fill:#283a6b;}</style></defs><title>Artboard 2 copy 11</title><g id="Layer_16" data-name="Layer 16"><g id="Layer_14" data-name="Layer 14"><ellipse class="cls-1" cx="147.56" cy="88.83" rx="0.44" ry="1.87"/><rect class="cls-2" x="50.89" y="93.33" width="95.86" height="3.9"/><polygon class="cls-3" points="146.75 95.22 100.48 95.22 100.48 58.57 117.45 58.57 126.17 78.3 146.75 81.1 146.75 95.22"/><polygon class="cls-4" points="123.48 93.64 102.11 93.64 102.11 60.05 116.23 60.05 123.48 78.14 123.48 93.64"/><path class="cls-5" d="M123.65,93.8H102V59.89h14.39l0,.1,7.27,18.15Zm-21.37-.33h21V78.17l-7.2-17.95H102.28Z"/><polygon class="cls-6" points="102.81 77.41 102.67 60.67 115.7 60.67 122.4 77.37 102.81 77.41"/><path class="cls-7" d="M147.56,90.7a.7.7,0,0,1-.7.7h0a.7.7,0,0,1-.71-.7V87a.7.7,0,0,1,.71-.7h0a.7.7,0,0,1,.7.7Z"/><path class="cls-2" d="M106,80.24v-.37a.79.79,0,0,0-.8-.79h-1.76a.79.79,0,0,0-.79.79v.37Z"/><path class="cls-8" d="M106,80.24v.37a.79.79,0,0,1-.8.79h-1.76a.79.79,0,0,1-.79-.79v-.37Z"/><polygon class="cls-3" points="101.11 95.22 50.89 95.22 50.89 48.51 96.46 48.51 101.11 58.57 101.11 95.22"/><path class="cls-8" d="M93,74.63a.79.79,0,0,1-.79.79H56.93a.79.79,0,0,1-.8-.79V61.48a.79.79,0,0,1,.8-.8H92.25a.79.79,0,0,1,.79.8Z"/><rect class="cls-9" x="50.89" y="83.47" width="95.86" height="2.22"/><path class="cls-2" d="M143.45,96.93a8.37,8.37,0,0,0-16.69,0Z"/><circle class="cls-7" cx="135.1" cy="97.38" r="6.98"/><path class="cls-10" d="M135.1,104.7a7.33,7.33,0,1,1,7.32-7.33A7.33,7.33,0,0,1,135.1,104.7Zm0-14a6.63,6.63,0,1,0,6.62,6.63A6.63,6.63,0,0,0,135.1,90.75Z"/><circle class="cls-11" cx="135.1" cy="97.66" r="4.32"/><circle class="cls-12" cx="135.1" cy="97.66" r="3.39"/><polygon class="cls-11" points="134.92 95.6 134.75 95.29 134.92 94.98 135.28 94.98 135.46 95.29 135.28 95.6 134.92 95.6"/><circle class="cls-12" cx="135.1" cy="95.29" r="0.12"/><polygon class="cls-11" points="133.52 96.33 133.18 96.24 133.09 95.89 133.34 95.64 133.69 95.73 133.77 96.08 133.52 96.33"/><circle class="cls-12" cx="133.43" cy="95.98" r="0.12" transform="translate(-28.95 121.49) rotate(-44.66)"/><polygon class="cls-11" points="133.05 97.83 132.74 98.01 132.43 97.83 132.43 97.48 132.74 97.3 133.05 97.48 133.05 97.83"/><circle class="cls-12" cx="132.74" cy="97.65" r="0.12"/><polygon class="cls-11" points="133.77 99.23 133.69 99.58 133.34 99.67 133.08 99.42 133.18 99.07 133.52 98.98 133.77 99.23"/><path class="cls-12" d="M133.35,99.24a.11.11,0,0,1,.16,0,.12.12,0,1,1-.16,0Z"/><polygon class="cls-11" points="135.28 99.71 135.45 100.02 135.28 100.33 134.92 100.33 134.74 100.02 134.92 99.71 135.28 99.71"/><circle class="cls-12" cx="135.1" cy="100.02" r="0.12"/><polygon class="cls-11" points="136.68 98.98 137.02 99.07 137.12 99.42 136.86 99.67 136.52 99.58 136.43 99.23 136.68 98.98"/><path class="cls-12" d="M136.69,99.41a.11.11,0,0,1,0-.16.12.12,0,0,1,.16,0,.12.12,0,0,1,0,.16A.11.11,0,0,1,136.69,99.41Z"/><polygon class="cls-11" points="137.15 97.48 137.46 97.3 137.77 97.48 137.77 97.83 137.46 98.01 137.15 97.83 137.15 97.48"/><circle class="cls-12" cx="137.46" cy="97.66" r="0.12"/><polygon class="cls-11" points="136.43 96.08 136.52 95.73 136.86 95.64 137.12 95.89 137.03 96.24 136.68 96.33 136.43 96.08"/><circle class="cls-12" cx="136.77" cy="95.99" r="0.12" transform="translate(-27.64 125.81) rotate(-45.34)"/><path class="cls-2" d="M79.08,96.93a8.37,8.37,0,0,0-16.69,0Z"/><circle class="cls-7" cx="70.73" cy="97.38" r="6.98"/><path class="cls-10" d="M70.73,104.7a7.33,7.33,0,1,1,7.33-7.33A7.33,7.33,0,0,1,70.73,104.7Zm0-14a6.63,6.63,0,1,0,6.63,6.63A6.64,6.64,0,0,0,70.73,90.75Z"/><circle class="cls-11" cx="70.73" cy="97.66" r="4.32"/><circle class="cls-12" cx="70.73" cy="97.66" r="3.39"/><polygon class="cls-11" points="70.56 95.6 70.38 95.29 70.56 94.98 70.91 94.98 71.09 95.29 70.91 95.6 70.56 95.6"/><path class="cls-12" d="M70.85,95.29a.12.12,0,0,1-.12.12.12.12,0,1,1,0-.23A.12.12,0,0,1,70.85,95.29Z"/><polygon class="cls-11" points="69.15 96.33 68.81 96.24 68.72 95.89 68.97 95.64 69.31 95.73 69.4 96.08 69.15 96.33"/><circle class="cls-12" cx="69.06" cy="95.98" r="0.11" transform="translate(-47.76 77.65) rotate(-45.35)"/><polygon class="cls-11" points="68.68 97.83 68.37 98.01 68.06 97.83 68.06 97.48 68.37 97.3 68.68 97.48 68.68 97.83"/><circle class="cls-12" cx="68.37" cy="97.65" r="0.12"/><polygon class="cls-11" points="69.4 99.23 69.31 99.58 68.97 99.67 68.72 99.42 68.81 99.07 69.15 98.98 69.4 99.23"/><circle class="cls-12" cx="69.06" cy="99.33" r="0.12" transform="translate(-49.74 76.49) rotate(-44.31)"/><polygon class="cls-11" points="70.91 99.71 71.09 100.02 70.91 100.33 70.56 100.33 70.38 100.02 70.56 99.71 70.91 99.71"/><circle class="cls-12" cx="70.73" cy="100.02" r="0.12"/><polygon class="cls-11" points="72.31 98.98 72.65 99.07 72.74 99.42 72.49 99.67 72.16 99.58 72.06 99.23 72.31 98.98"/><circle class="cls-12" cx="72.4" cy="99.33" r="0.12" transform="translate(-48.91 79.56) rotate(-44.66)"/><polygon class="cls-11" points="72.79 97.48 73.09 97.3 73.41 97.48 73.41 97.83 73.09 98.01 72.79 97.83 72.79 97.48"/><circle class="cls-12" cx="73.09" cy="97.66" r="0.12"/><polygon class="cls-11" points="72.06 96.08 72.16 95.73 72.5 95.64 72.75 95.89 72.65 96.24 72.31 96.33 72.06 96.08"/><circle class="cls-12" cx="72.4" cy="95.99" r="0.11" transform="translate(-46.56 78.59) rotate(-44.65)"/><path class="cls-2" d="M50.87,62.45a.46.46,0,0,1-.45.46h0a.46.46,0,0,1-.46-.46V58.88a.46.46,0,0,1,.46-.46h0a.46.46,0,0,1,.45.46Z"/><path class="cls-2" d="M50.87,84a.45.45,0,0,1-.45.46h0A.45.45,0,0,1,50,84V80.42a.45.45,0,0,1,.46-.45h0a.45.45,0,0,1,.45.45Z"/><rect class="cls-7" x="49.5" y="93.04" width="8.69" height="5.47"/><rect class="cls-7" x="143.66" y="93.04" width="4.34" height="5.47"/><path class="cls-13" d="M40.83,57.23c-1.68,3.17.21,12.37,5.6,14.23h10.7c5.83-3,8-11.82,5.72-14.16-2.88-2-10.08-4.4-10.08-4.4S43,55.35,40.83,57.23Z"/><path class="cls-14" d="M41.35,61.06A3.37,3.37,0,0,1,40,54.51C41.61,54.18,43,60.72,41.35,61.06Z"/><path class="cls-14" d="M62.12,61.06a3.37,3.37,0,0,0,1.36-6.55C61.87,54.18,60.51,60.72,62.12,61.06Z"/><rect class="cls-15" x="46.14" y="69.58" width="11.39" height="12.66"/><path class="cls-16" d="M57.53,82.24H46.14v-8s4.68,5.54,5.92,5.54,5.47-5.54,5.47-5.54Z"/><path class="cls-14" d="M51.82,73c13.37,0,11.23-22.94,11.23-22.94s-.55-7.52-10.95-7.52a11.45,11.45,0,0,0-11.3,7.71S38.35,73,51.82,73Z"/><path class="cls-13" d="M39.36,54.73c1.09-.24,2.27,1.84,2.27,1.84l.45-8S48.27,52,54.77,51a5.19,5.19,0,0,1-.65-3.61s3.75,2.91,5.51,2.92a5.61,5.61,0,0,1,1.76-1.68L62.31,57c.57-2.24,2.16-2,2.16-2s3.41-16-12.57-16S39.34,54.27,39.36,54.73Z"/><path class="cls-17" d="M57.58,66.81h-1a34.55,34.55,0,0,1-1.27,4c-.48.61-1.25,1.23-1.73,1.08s-.79-1.05-1-1.17L52,70.49h0l-.52.27c-.23.12-.54,1-1,1.17s-1.25-.47-1.73-1.08a34.55,34.55,0,0,1-1.27-4h-1s-.29,6.21,2.78,7.43c.23-.87.55-.33.55-.33A2.89,2.89,0,0,0,52,75.55h0a2.89,2.89,0,0,0,2.21-1.64s.32-.54.55.33C57.87,73,57.58,66.81,57.58,66.81Z"/><path class="cls-18" d="M51.95,64.84c.1,1.42-2.16,1.61-3.91,1.84A2.54,2.54,0,0,0,46,68.11s-1.15-2.65.28-3.53C48,63.48,51.84,63.32,51.95,64.84Z"/><path class="cls-18" d="M52,64.84c-.1,1.42,2.16,1.61,3.91,1.84A2.54,2.54,0,0,1,58,68.11s1.15-2.65-.28-3.53C55.91,63.48,52.1,63.32,52,64.84Z"/><path class="cls-19" d="M54.25,63H49.78c0-.46.74-.83,1.66-.83h1.14c.92,0,1.66.37,1.66.83Z"/><path class="cls-20" d="M52,56.42c-11.23,0-12.85-3.86-12.85-3.86H64.78S62.71,56.42,52,56.42Z"/><path class="cls-21" d="M52.28,36.31h-1.2A13.13,13.13,0,0,0,37.94,49.44v.13H65.41v-.13A13.13,13.13,0,0,0,52.28,36.31Z"/><path class="cls-22" d="M64.76,48.26C56,46.12,57.2,40.62,53.9,36.78H49.28c-3.3,3.84-2.13,9.34-10.86,11.48Z"/><path class="cls-21" d="M53.86,35.38H49.41s-.23,13-12.4,13v2H66.27v-2C54.09,48.33,53.86,35.38,53.86,35.38Z"/><rect class="cls-22" x="37.01" y="49.38" width="29.26" height="2.26"/><path class="cls-21" d="M37,51.64a114.74,114.74,0,0,1,14.67-1.13,105,105,0,0,1,14.59,1.13c0,1.42-7.29,3.28-14.59,3.28S37,53.05,37,51.64Z"/><path class="cls-23" d="M80.31,108.27S79,91.07,78.82,88.61C78.14,81.84,76,80.21,76,80.21a4.84,4.84,0,0,0-1.79-1.45L74,78.65v0c-4.82-2.54-16-4.46-16.18-4.27l-5.17,6.7a.9.9,0,0,1-1.35,0s-5.16-6.77-5.47-6.72c0,0-11.05,1.79-15.79,4.27h0a4.65,4.65,0,0,0-1.95,1.57A12.31,12.31,0,0,0,25.37,87c-.1,2.82-1.42,21.05-1.42,21.05Z"/><path class="cls-24" d="M71.08,108.35c0-5.22-.08-18.79-.08-18.79H33s.08,14.5.08,18.52Z"/><polygon class="cls-25" points="63.05 95.81 67.91 95.81 67.91 76.23 63.05 75.2 63.05 95.81"/><polygon class="cls-25" points="41.24 95.81 36.38 95.81 36.38 76.23 41.24 75.2 41.24 95.81"/><path class="cls-26" d="M51.31,80.38a.9.9,0,0,0,1.35,0l5.17-6a6,6,0,0,1,1.34.14,47.14,47.14,0,0,1-6,7.45,1.89,1.89,0,0,1-2.37.1c-1.84-1.35-5.51-6.28-6.34-7.48l1.34-.23C46.15,74.34,51.31,80.38,51.31,80.38Z"/><polygon class="cls-27" points="76.61 99.22 71.91 100.58 71.85 100.52 75.06 97.34 71.1 98.72 71.1 99.7 71.08 99.68 71.1 102.08 74.85 103.8 72.38 101.1 76.61 99.22"/><polygon class="cls-27" points="32.95 99.83 28.1 93.66 32.32 100.43 32.03 100.72 29.46 101.03 31.38 101.34 28.84 103.8 33.1 102.11 33.1 100.01 33.1 99.68 32.95 99.83"/><rect class="cls-28" x="38.65" y="96.66" width="26.78" height="11.69"/><path class="cls-29" d="M62.14,101.55H42.21a2.5,2.5,0,0,1-2.62-2.36l-.08,9.17H64.68l.08-9.17A2.5,2.5,0,0,1,62.14,101.55Z"/><rect class="cls-30" x="56.73" y="89.08" width="9.53" height="5.61"/><rect class="cls-8" x="56.02" y="88.52" width="9.53" height="5.61"/><rect class="cls-31" x="56.61" y="90.89" width="2.27" height="2.75"/><rect class="cls-32" x="56.61" y="89.08" width="8.45" height="1.12"/><rect class="cls-33" x="59.44" y="90.89" width="5.61" height="2.75"/><rect class="cls-34" x="4.86" y="109.93" width="17.97" height="5.46"/><rect class="cls-35" x="4.86" y="109.93" width="1.52" height="5.46"/><rect class="cls-36" x="2.63" y="109.93" width="2.23" height="5.46"/><rect class="cls-37" x="3.75" y="109.93" width="1.12" height="5.46"/><rect class="cls-38" x="1.99" y="108.85" width="0.7" height="7.58"/><rect class="cls-39" x="22.3" y="109.93" width="0.13" height="2.36"/><rect class="cls-39" x="21.78" y="109.93" width="0.13" height="4.72"/><rect class="cls-39" x="21.25" y="109.93" width="0.13" height="2.36"/><rect class="cls-39" x="20.73" y="109.93" width="0.13" height="2.36"/><rect class="cls-39" x="20.2" y="109.93" width="0.13" height="2.36"/><rect class="cls-39" x="19.68" y="109.93" width="0.13" height="2.36"/><rect class="cls-39" x="19.15" y="109.93" width="0.13" height="4.72"/><rect class="cls-39" x="18.62" y="109.93" width="0.13" height="2.36"/><rect class="cls-39" x="18.1" y="109.93" width="0.13" height="2.36"/><rect class="cls-39" x="17.57" y="109.93" width="0.13" height="2.36"/><rect class="cls-39" x="17.05" y="109.93" width="0.13" height="2.36"/><rect class="cls-39" x="16.52" y="109.93" width="0.13" height="4.72"/><rect class="cls-39" x="15.99" y="109.93" width="0.13" height="2.36"/><rect class="cls-39" x="15.47" y="109.93" width="0.13" height="2.36"/><rect class="cls-39" x="14.94" y="109.93" width="0.13" height="2.36"/><rect class="cls-39" x="14.42" y="109.93" width="0.13" height="2.36"/><rect class="cls-39" x="13.89" y="109.93" width="0.13" height="4.72"/><rect class="cls-39" x="13.37" y="109.93" width="0.13" height="2.36"/><rect class="cls-39" x="12.84" y="109.93" width="0.13" height="2.36"/><rect class="cls-39" x="12.31" y="109.93" width="0.13" height="2.36"/><rect class="cls-39" x="11.79" y="109.93" width="0.13" height="2.36"/><rect class="cls-39" x="11.26" y="109.93" width="0.13" height="4.72"/><rect class="cls-39" x="10.74" y="109.93" width="0.13" height="2.36"/><rect class="cls-39" x="10.21" y="109.93" width="0.13" height="2.36"/><rect class="cls-39" x="9.68" y="109.93" width="0.13" height="2.36"/><rect class="cls-39" x="9.16" y="109.93" width="0.13" height="2.36"/><rect class="cls-39" x="8.63" y="109.93" width="0.13" height="4.72"/><rect class="cls-39" x="8.11" y="109.93" width="0.13" height="2.36"/><rect class="cls-39" x="7.58" y="109.93" width="0.13" height="2.36"/><rect class="cls-39" x="7.06" y="109.93" width="0.13" height="2.36"/><rect class="cls-39" x="6.53" y="109.93" width="0.13" height="2.36"/><rect class="cls-39" x="6" y="109.93" width="0.13" height="4.72"/><path class="cls-40" d="M21.46,115.23l1.77-11.64v-.17h0a12.22,12.22,0,0,1,24.28,2v8.88a3.34,3.34,0,0,1-3.34,3.34H23.31A1.91,1.91,0,0,1,21.46,115.23Z"/><path class="cls-35" d="M24.47,112.28l2.86-5a8.24,8.24,0,1,1,5.21,5.86l-5.23,2.3a2.19,2.19,0,0,1-2.45-.62l0,0A2.19,2.19,0,0,1,24.47,112.28Z"/><path class="cls-34" d="M25.66,111.55,28.27,107A7.24,7.24,0,1,1,33,112.26l-4.82,2.12a2,2,0,0,1-2.2-.55l0,0A2,2,0,0,1,25.66,111.55Z"/><circle class="cls-41" cx="35.32" cy="105.48" r="4.54"/><path class="cls-34" d="M35.1,96.25h.45a1.32,1.32,0,0,0,1.32-1.32V93.58H33.78v1.35A1.32,1.32,0,0,0,35.1,96.25Z"/><path class="cls-34" d="M41.65,98.81l.32.32a1.32,1.32,0,0,0,1.87,0l1-1L42.6,96l-1,1A1.32,1.32,0,0,0,41.65,98.81Z"/><path class="cls-34" d="M44.47,105.25v.45A1.32,1.32,0,0,0,45.79,107h1.35v-3.09H45.79A1.32,1.32,0,0,0,44.47,105.25Z"/><path class="cls-34" d="M28.81,99.14l.32-.32a1.32,1.32,0,0,0,0-1.87l-1-1L26,98.18l1,1A1.32,1.32,0,0,0,28.81,99.14Z"/><path class="cls-40" d="M47.42,114.72l-2.86,2.86,1.17,1.17a2,2,0,0,0,2.83,0l0,0a2,2,0,0,0,0-2.83Zm-.83,2a.93.93,0,1,1,0,1.32A.93.93,0,0,1,46.58,116.74Z"/><path class="cls-42" d="M21.77,108.21l.75.11.76-5-.75-.11c-.13.86-.71,1.49-1.3,1.4l-.28,1.87C21.53,106.58,21.9,107.35,21.77,108.21Z"/><circle class="cls-43" cx="43.61" cy="113.93" r="1.94"/><circle class="cls-34" cx="43.61" cy="113.93" r="1.43"/><polygon class="cls-44" points="45.43 119.92 46.49 120.41 48.02 117.71 46.47 117 45.43 119.92"/><rect class="cls-45" x="44.56" y="120.48" width="1.98" height="1.17" transform="translate(-83.5 112.26) rotate(-65.48)"/><path class="cls-46" d="M44.61,121.73s-9.11-2.19-14.62-.08l.16,1.52c3.74-1.73,15.52-1,15.52-1Z"/><path class="cls-44" d="M45.67,122.21s-9.47,2.89-15.52,1L30,121.66c3.83,1.24,14.62.07,14.62.07Z"/></g></g></svg>