<svg xmlns="http://www.w3.org/2000/svg" viewBox="0 0 150 150"><defs><style>.cls-1{fill:#f9af7d;}.cls-2{fill:#3c7ca6;}.cls-3{fill:#ffd0b0;}.cls-4{fill:#97cfc8;}.cls-5{fill:#ffc197;}.cls-6{fill:#b4d8cf;}.cls-7{fill:#dbfff7;}.cls-8{fill:#071e2b;}.cls-9{fill:#1574b3;}.cls-10{fill:#af5182;}.cls-11{fill:#c42a1e;}.cls-12{fill:#ccb9ac;}.cls-13{fill:#ead9cc;}.cls-14{fill:#fff2e9;}.cls-15{fill:#9c8640;}.cls-16{fill:#3a3a3a;}.cls-17{fill:#fff;}.cls-18{fill:#f79590;}.cls-19{fill:#685a50;}</style></defs><title>Artboard 2 copy 4</title><g id="Layer_16" data-name="Layer 16"><g id="Layer_14" data-name="Layer 14"><path class="cls-1" d="M96.23,41.43s5.32.71,7.55-.14a11.54,11.54,0,0,0,3.23-2l-.68-10.64-7.95,1L97.54,39l-4.19,3.08A5.56,5.56,0,0,1,96.23,41.43Z"/><polygon class="cls-2" points="45.06 26.21 58.1 47.86 50.47 49.6 35.2 30.84 45.06 26.21"/><path class="cls-3" d="M114,24.88A14.33,14.33,0,1,0,88.77,11.27C87,14.56,85.68,23.67,87.9,30c.74,2.11,3.16,3.08,5,3,0,0,5.34-.56,7.63-.58C105.91,32.31,111.25,29.94,114,24.88Z"/><path class="cls-4" d="M91.81,77.4l-1.37,4.87A44.48,44.48,0,0,0,91.81,77.4Z"/><path class="cls-4" d="M91.9,77.1h0l-.07.31Z"/><path class="cls-4" d="M107.64,40.14l-.94-4.36-.16-.77A4.37,4.37,0,0,1,104,37.33c-1.72.42-9.33.58-9.33.58s-13.27,7.53-13.16,19l-.73,10.67s-3.15,11-4.62,11.74c2.07,7.09,7.16,10.9,6.12,14.17A10.74,10.74,0,0,0,84.64,92l.14-.11a44.62,44.62,0,0,0,7.14-7l3-4.08.17-.26a44.52,44.52,0,0,0,3-5.54l7.62-16.8A29.08,29.08,0,0,0,107.64,40.14Z"/><path class="cls-5" d="M95.42,52.83l1,1.29C100,64.22,69.57,73,67.86,71.77l-.1-.07c-4.45-3.11-12.44-14.09-12.44-14.09l-5-3.78A6.75,6.75,0,0,1,48,50.58l-2.29-6.91,11.13,2.09-2.52-3.85.71.22a7.52,7.52,0,0,1,4.73,4.37l0,.06a7.56,7.56,0,0,1,.28,4.8l-.91,3.35,12,7.93,7.73-3.95c.16-1.12,6.77-5.89,6.77-5.89A6.24,6.24,0,0,1,95.42,52.83Z"/><path class="cls-6" d="M101.68,56.2c1-2.56,1.63-6.4-1.19-9.33,0,0-5.13-3.81-8.91-1.16C89.09,47.46,82.52,53,80.32,56.13c1.7.93,7.77,2.26,9.61,4.78,1.47,2,1.58,2,1.88,3.11C95.25,61,101,57.9,101.68,56.2Z"/><path class="cls-7" d="M90.45,59.56c-4.25-4.89-7-4.23-8.71-5.16C80.59,56,79,58.09,79,58.09s1-1.72,6.15,2.85c2.24,2,1.57,5.68,1.57,5.68A17.27,17.27,0,0,0,91.81,64C91.52,62.85,92.08,61.44,90.45,59.56Z"/><path class="cls-8" d="M105.2,4.27S94.29-.4,89,9.4a37.49,37.49,0,0,1-4,5.93s6.82-.52,10.19-6A4.84,4.84,0,0,1,99.78,7s-4-3.15-5.75,4.44,3.75,8.2,3.75,8.2,2.5-7.94,4.9-1.71c2,5.32-2.55,5.86-2.55,5.86s5.86,5,6.15,6.75-.71,2.94,1.89.61,5.21-4,7.14-9.76S113.67,5.81,105.2,4.27Z"/><path class="cls-7" d="M93.63,39.05l1.54,1.3s7.61-.31,9.32-.76A4.37,4.37,0,0,0,107,37.22h0L106.81,33s-.22.31-.6.76a11.56,11.56,0,0,1-2.88,2.49c-2.06,1.2-7.43,1.34-7.43,1.34a5.55,5.55,0,0,0-2.74,1.11c-1.61,1.15-4.08,3.44-4.08,3.44l1.36-.67,2.69-1Z"/><path class="cls-5" d="M92.91,84.16l-.05.34C95.29,84,92.91,84.16,92.91,84.16Z"/><path class="cls-9" d="M76.14,79.27s-29.88-3-36.94-6S29,81.6,29,81.6l-6.8,35.05,9.59,3.51s1.1-10.23,4.53-17.56a56.09,56.09,0,0,0,3.82-10.92s18.14,1.94,26.47,5.59,15,3.4,19.88.41c4.37-2.68,6-11.43,6.34-13.19-.68.15-1.73.34-3.34.62C82.17,86.38,76.14,79.27,76.14,79.27Z"/><path class="cls-8" d="M31.45,119.21a9.93,9.93,0,0,1-.82,7.38c-2.05,3.79-3.33,3.25-3.33,3.25l-8.53-4.25L8.59,119.21s-1.13-1.64,1.54-2.46,5.86,1.44,8,.82a38.84,38.84,0,0,1,5.64-.93Z"/><path class="cls-10" d="M136.08,11.68s-10.61-8.55-15.89,8.55-5.28,22-5.28,22S100.26,57.68,97,67s-6.11,33-6.11,33l-47.1-4.22a6.83,6.83,0,0,0-7.44,6.81v.15a6.83,6.83,0,0,0,6.84,6.83h55S102,107.4,102,89.83C102,69.07,149.92,12.9,136.08,11.68Z"/><path class="cls-11" d="M7.25,126.13a110.4,110.4,0,0,0,124.14,0,3.25,3.25,0,0,0,.93-4.59l0-.05a3.33,3.33,0,0,0-4.55-.74,103.89,103.89,0,0,1-116.81,0,3.33,3.33,0,0,0-4.55.74l0,.05A3.25,3.25,0,0,0,7.25,126.13Z"/><path class="cls-11" d="M37.7,74.92c20.49,3.13,41-4.48,61.46-1.37,1.91.38,5.78-.86,8.63-2.94l.1-.07c2.86-2.08,3.06-3.21.45-2.74-26.61,4-53.22-5.85-79.83-1.78-2.61.47-2.41,2.59.45,4.52l.1.08C31.92,72.53,35.78,74.54,37.7,74.92Z"/><rect class="cls-11" x="37.98" y="109.58" width="67.48" height="4.84"/><path class="cls-11" d="M110.62,133l3.69-1.71c-.12-.27-12.54-27.38-8.42-43.84,2.87-11.49,14.17-30,22.43-43.57,4-6.55,7.44-12.2,9.06-15.61,5.11-10.8,3.59-19.4,3.41-19.72-1.1-2-3.25-1.65-4,.79,0,.07,1.41,7.68-3.1,17.19-1.53,3.22-4.92,8.79-8.85,15.24-8.39,13.76-19.88,32.62-22.9,44.7C97.48,104.35,110.09,131.87,110.62,133Z"/><path class="cls-11" d="M30.72,133.28c1.05-1.62,25.57-40,5.45-62.91l-3.06,2.69c18.09,20.56-5.56,57.63-5.8,58Z"/><path class="cls-12" d="M119.83,126.7s-13.2-1.92-19.77,4c-6.34,5.74-2,12.36,6.44,12.5,13.59.23,26.65,1.53,31.86-1,4-1.91,3.19-10.68,3.19-10.68Z"/><path class="cls-13" d="M118.91,125.7s-4.92,10.58,4.94,13.59c9.39,2.86,14.77-.64,16.16-3a9.41,9.41,0,0,0-.17-10.58Z"/><path class="cls-12" d="M123.85,117s-3.54-1.67-4.95-.42c-1.64,1.45,1.31,4.79,1.31,4.79Z"/><path class="cls-12" d="M135.63,117s3.54-1.67,4.95-.42c1.64,1.45-1.31,4.79-1.31,4.79Z"/><path class="cls-14" d="M123.34,117.52s-3.06-1.71-4,0c-.71,1.27,1.82,3.9,1.82,3.9Z"/><path class="cls-14" d="M136.28,117.52s3.06-1.71,4,0c.71,1.27-1.82,3.9-1.82,3.9Z"/><path class="cls-13" d="M139.84,123.16c0,4.8-4.61,8.69-10.3,8.69s-10.3-3.89-10.3-8.69,4.53-7.44,10.22-7.44S139.84,118.36,139.84,123.16Z"/><circle class="cls-15" cx="125.48" cy="123.16" r="1.63"/><circle class="cls-15" cx="134" cy="123.16" r="1.63"/><ellipse class="cls-16" cx="125.48" cy="123.16" rx="0.75" ry="1.05"/><ellipse class="cls-16" cx="133.89" cy="123.16" rx="0.75" ry="1.05"/><path class="cls-12" d="M126.53,128.82c1.45,1.67,3.86,3,6.61,0,1.51-.63,2.38-.13,3.54-.53,1.61-.56,2.34-2,3.12-4.29,1,6-1.69,7.85-3.87,8.37-2.71.65-3.39-.27-6.14-.27-2.33,0-3.31.51-5,.31-2.65-.3-4.37-1.41-5.2-3.44a9.47,9.47,0,0,1-.29-5.81,5.78,5.78,0,0,0,3.21,5.09C123.49,128.82,124.94,128.43,126.53,128.82Z"/><path class="cls-12" d="M128,123.16c.25.84,3.14.79,3.52,0s-1.39-2-1.76-3.16C129.16,121.28,127.76,122.29,128,123.16Z"/><circle class="cls-17" cx="126.01" cy="122.63" r="0.52"/><circle class="cls-17" cx="134.64" cy="122.63" r="0.52"/><path class="cls-14" d="M133.14,126.11c-1.42-1.31-1.09-4-3.34-4h0c-2.25,0-1.92,2.69-3.34,4-1,.94-3.28,2.21-1,3,2.57.91,4.14-2.33,4.34-2.76.2.44,1.77,3.67,4.34,2.76C136.42,128.31,134.17,127,133.14,126.11Z"/><path class="cls-12" d="M129.54,124.44s.11,2.37-.39,3a.63.63,0,0,0,1.24,0,8.07,8.07,0,0,1-.46-3C129.9,123.43,129.54,124.44,129.54,124.44Z"/><path class="cls-18" d="M130.77,124c-.15-.39-1-.41-1-.41s-.87,0-1,.41,1,.73,1,.73S130.92,124.44,130.77,124Z"/><path class="cls-13" d="M116.77,132.6c-2.71,1.61-4.83,8-2.2,10.31,1.32,1.14,3,.91,4.67,1.37s3.33,1.59,4.92,1.66c3.19.14,3.29-2.08,1.32-3.54a28.78,28.78,0,0,0-6.58-3.13S116.42,135.78,116.77,132.6Z"/><path class="cls-13" d="M138.35,142.26s-6.61-2-8.57-.52-1.87,3.45,1.8,3.45C136.67,145.19,138.35,142.26,138.35,142.26Z"/><path class="cls-13" d="M110.15,135.51a12,12,0,0,0-1.45.58A5.94,5.94,0,0,0,110,140.2a9.41,9.41,0,0,0,1.7-1.68A5.14,5.14,0,0,1,110.15,135.51Z"/><path class="cls-13" d="M105.7,137.13a10.65,10.65,0,0,1-1.95.24,5.35,5.35,0,0,0,1.73,5.21,16.67,16.67,0,0,0,2.32-1l-.08-.07A5.37,5.37,0,0,1,105.7,137.13Z"/><path class="cls-13" d="M101.31,137.08c-2.2-.65-3.48-2.3-2.93-4.48,0,0-5.14,4.61-1.53,8.59a6.46,6.46,0,0,0,5.17,2.05C100.32,141.14,100.85,138.47,101.31,137.08Z"/><path class="cls-19" d="M103.75,137.37a8,8,0,0,1-2.44-.29c-.46,1.39-1,4.06.71,6.16a12,12,0,0,0,3.46-.65A5.35,5.35,0,0,1,103.75,137.37Z"/><path class="cls-19" d="M110.15,135.51a5.14,5.14,0,0,0,1.6,3C113.31,136.49,113.22,134.54,110.15,135.51Z"/><path class="cls-19" d="M108.7,136.09l-.12.05a13.06,13.06,0,0,1-2.88,1,5.37,5.37,0,0,0,2,4.4l.08.07a15.76,15.76,0,0,0,2-1.24l.22-.16A5.94,5.94,0,0,1,108.7,136.09Z"/></g></g></svg>