<svg xmlns="http://www.w3.org/2000/svg" viewBox="0 0 150 150"><defs><style>.cls-1{isolation:isolate;}.cls-15,.cls-2{fill:#e74c3c;}.cls-3{fill:#bdc3c7;}.cls-18,.cls-4{opacity:0.5;}.cls-18,.cls-20,.cls-22,.cls-4{mix-blend-mode:multiply;}.cls-5{fill:#f1c40f;}.cls-6{fill:#34495e;}.cls-7{fill:#2c3e50;}.cls-8{fill:#f39c12;}.cls-9{fill:#aeb4b8;}.cls-10{fill:#95a5a6;}.cls-11{fill:#7f8c8d;}.cls-12{fill:#638bb3;}.cls-13{fill:#233a50;}.cls-14{fill:#1e3044;}.cls-15,.cls-16{fill-rule:evenodd;}.cls-16{fill:#ffa201;stroke:#fff;stroke-linecap:round;stroke-linejoin:round;stroke-width:0.62px;}.cls-17,.cls-18{fill:#fec997;}.cls-19,.cls-20{fill:#184984;}.cls-20,.cls-22{opacity:0.3;}.cls-21{fill:#00598d;}.cls-22{fill:#398496;}.cls-23{fill:#fff;}</style></defs><title>Artboard 2 copy</title><g class="cls-1"><g id="Layer_16" data-name="Layer 16"><g id="Layer_14" data-name="Layer 14"><rect class="cls-2" x="105.55" y="4.7" width="22.81" height="15.07"/><rect class="cls-3" x="105.55" y="19.77" width="22.81" height="4.86"/><rect class="cls-2" x="105.55" y="24.63" width="22.81" height="15.07"/><rect class="cls-3" x="105.55" y="39.7" width="22.81" height="4.86"/><rect class="cls-2" x="105.55" y="44.56" width="22.81" height="15.07"/><rect class="cls-3" x="105.55" y="59.63" width="22.81" height="4.86"/><rect class="cls-2" x="105.55" y="64.48" width="22.81" height="15.07"/><rect class="cls-3" x="105.55" y="79.55" width="22.81" height="4.86"/><rect class="cls-2" x="105.55" y="84.41" width="22.81" height="15.07"/><rect class="cls-3" x="105.55" y="99.48" width="22.81" height="4.86"/><rect class="cls-2" x="105.55" y="104.33" width="22.81" height="15.07"/><rect class="cls-3" x="105.55" y="119.41" width="22.81" height="4.86"/><g class="cls-4"><rect class="cls-2" x="116.95" y="4.7" width="11.41" height="15.07"/><rect class="cls-3" x="116.95" y="19.77" width="11.41" height="4.86"/><rect class="cls-2" x="116.95" y="24.63" width="11.41" height="15.07"/><rect class="cls-3" x="116.95" y="39.7" width="11.41" height="4.86"/><rect class="cls-2" x="116.95" y="44.56" width="11.41" height="15.07"/><rect class="cls-3" x="116.95" y="59.63" width="11.41" height="4.86"/><rect class="cls-2" x="116.95" y="64.48" width="11.41" height="15.07"/><rect class="cls-3" x="116.95" y="79.55" width="11.41" height="4.86"/><rect class="cls-2" x="116.95" y="84.41" width="11.41" height="15.07"/><rect class="cls-3" x="116.95" y="99.48" width="11.41" height="4.86"/><rect class="cls-2" x="116.95" y="104.33" width="11.41" height="15.07"/><rect class="cls-3" x="116.95" y="119.41" width="11.41" height="4.86"/></g><path class="cls-5" d="M13.75,12.78A5,5,0,0,0,8.8,17.73v25.1a5,5,0,0,0,4.95,4.95H44.09v-35ZM25.51,38.6a1.65,1.65,0,0,1-1.65,1.65H17.4a1.65,1.65,0,0,1-1.65-1.65V22a1.65,1.65,0,0,1,1.65-1.65h6.46A1.65,1.65,0,0,1,25.51,22Z"/><path class="cls-5" d="M13.75,12.78A5,5,0,0,0,8.8,17.73v25.1a5,5,0,0,0,4.95,4.95H44.09v-35ZM25.51,38.6a1.65,1.65,0,0,1-1.65,1.65H17.4a1.65,1.65,0,0,1-1.65-1.65V22a1.65,1.65,0,0,1,1.65-1.65h6.46A1.65,1.65,0,0,1,25.51,22Z"/><rect class="cls-5" x="25.51" y="38.6" width="18.58" height="14.04"/><rect class="cls-6" x="25.51" y="52.64" width="18.58" height="4.45"/><rect class="cls-7" x="34.8" y="52.64" width="9.29" height="4.45"/><polygon class="cls-8" points="55.82 32.71 44.09 40.25 44.09 12.78 55.82 12.78 55.82 32.71"/><rect class="cls-3" x="55.82" y="14.86" width="7.78" height="15.77"/><rect class="cls-9" x="55.82" y="22.75" width="7.78" height="7.88"/><rect class="cls-6" x="63.6" y="12.78" width="9.19" height="19.93"/><rect class="cls-6" x="75.78" y="15.23" width="9.19" height="15.04"/><polygon class="cls-10" points="104.2 25.18 87.96 25.18 87.96 20.32 104.2 20.32 105.55 22.75 104.2 25.18"/><polygon class="cls-11" points="87.96 22.73 87.96 25.18 104.2 25.18 105.55 22.75 105.54 22.73 87.96 22.73"/><polygon class="cls-6" points="75.78 30.27 72.79 32.71 72.79 12.78 75.78 15.23 75.78 30.27"/><polygon class="cls-6" points="87.96 28.42 84.97 30.27 84.97 15.23 87.96 17.07 87.96 28.42"/><rect class="cls-7" x="63.6" y="22.92" width="9.19" height="9.79"/><rect class="cls-7" x="75.78" y="22.92" width="9.19" height="7.35"/><polygon class="cls-7" points="72.79 22.92 72.79 32.71 75.78 30.27 75.78 22.92 72.79 22.92"/><polygon class="cls-7" points="84.97 22.92 84.97 30.27 87.96 28.42 87.96 22.92 84.97 22.92"/><path class="cls-3" d="M91,26.05h0a.9.9,0,0,1-.62-1.11l1.39-4.89a.9.9,0,0,1,1.11-.62h0a.9.9,0,0,1,.62,1.11l-1.39,4.89A.9.9,0,0,1,91,26.05Z"/><path class="cls-3" d="M95.28,26.05h0a.9.9,0,0,1-.62-1.11l1.39-4.89a.9.9,0,0,1,1.11-.62h0a.9.9,0,0,1,.62,1.11L96.4,25.44A.9.9,0,0,1,95.28,26.05Z"/><path class="cls-3" d="M99.6,26.05h0A.9.9,0,0,1,99,24.94l1.39-4.89a.9.9,0,0,1,1.11-.62h0a.9.9,0,0,1,.62,1.11l-1.39,4.89A.9.9,0,0,1,99.6,26.05Z"/><path class="cls-10" d="M91,22.7l-.64,2.25A.9.9,0,0,0,91,26.05h0a.9.9,0,0,0,1.11-.62l.78-2.74Z"/><path class="cls-10" d="M95.3,22.7l-.64,2.25a.9.9,0,0,0,.62,1.11h0a.9.9,0,0,0,1.11-.62l.78-2.74Z"/><path class="cls-10" d="M99.61,22.7,99,24.94a.9.9,0,0,0,.62,1.11h0a.9.9,0,0,0,1.11-.62l.78-2.74Z"/><rect class="cls-11" x="57.32" y="13.88" width="4.53" height="18.12"/><rect class="cls-7" x="57.32" y="22.93" width="4.53" height="15.27"/><rect class="cls-6" x="56.69" y="40.62" width="5.78" height="16.47"/><path class="cls-6" d="M63.85,40.62H55.31a1.21,1.21,0,0,1-1.21-1.21h0a1.21,1.21,0,0,1,1.21-1.21h8.54a1.21,1.21,0,0,1,1.21,1.21h0A1.21,1.21,0,0,1,63.85,40.62Z"/><rect class="cls-7" x="59.61" y="40.62" width="2.86" height="16.47"/><path class="cls-7" d="M63.85,38.2H59.61v2.42h4.24a1.21,1.21,0,0,0,0-2.42Z"/><path class="cls-12" d="M63.31,39.41H55.86a.4.4,0,0,1-.4-.4h0a.4.4,0,0,1,.4-.4h7.45a.4.4,0,0,1,.4.4h0A.4.4,0,0,1,63.31,39.41Z"/><path class="cls-6" d="M62.57,57.09h-6a.84.84,0,0,1-.84-.84h0a.84.84,0,0,1,.84-.84h6a.84.84,0,0,1,.84.84h0A.84.84,0,0,1,62.57,57.09Z"/><path class="cls-7" d="M62.57,55.4h-3v1.69h3a.84.84,0,1,0,0-1.69Z"/><path class="cls-3" d="M58.45,22.93a1.13,1.13,0,0,1,2.26,0Z"/><rect class="cls-10" x="57.32" y="22.93" width="4.53" height="0.65"/><polygon class="cls-11" points="103.56 28.7 101.69 31.64 100.28 30.27 103.56 28.7"/><polygon class="cls-11" points="100.53 34.46 98.31 37.74 100.53 38.57 100.53 34.46"/><polygon class="cls-11" points="103.1 16.83 100.85 13.2 100.28 15.01 103.1 16.83"/><polygon class="cls-11" points="97.08 32.33 93.51 33.43 94.63 35.04 97.08 32.33"/><rect class="cls-8" x="34.8" y="12.78" width="9.29" height="39.85"/><rect class="cls-6" x="8.8" y="78.02" width="91.41" height="6.39"/><rect class="cls-13" x="54.11" y="78.02" width="46.1" height="6.39"/><rect class="cls-7" x="-1.02" y="101.17" width="39.92" height="6.39" transform="translate(123.31 85.43) rotate(90)"/><rect class="cls-7" x="69.7" y="101.17" width="39.92" height="6.39" transform="translate(194.03 14.71) rotate(90)"/><rect class="cls-7" x="14.76" y="100.66" width="78.12" height="6.39" transform="matrix(-0.93, -0.38, 0.38, -0.93, 64.57, 220.33)"/><polygon class="cls-14" points="54.11 100.53 54.11 107.42 88.8 121.52 91.21 115.61 54.11 100.53"/><rect class="cls-7" x="14.76" y="100.66" width="78.12" height="6.39" transform="translate(142.78 179.8) rotate(157.88)"/><polygon class="cls-14" points="54.11 107.19 91.21 92.11 88.8 86.19 54.11 100.29 54.11 107.19"/><circle class="cls-5" cx="89.66" cy="89.48" r="1.75"/><circle class="cls-5" cx="89.66" cy="118.4" r="1.75"/><circle class="cls-5" cx="18.94" cy="89.48" r="1.75"/><circle class="cls-5" cx="18.94" cy="118.4" r="1.75"/><path id="_Clipping_Path_" data-name="&lt;Clipping Path&gt;" class="cls-15" d="M107.32,138.73c-20.83-13-26.77-37.38-29.23-60.63C88,74.72,95,73.59,107.32,73.19c12.28.4,19.32,1.53,29.23,4.92C134.08,101.35,128.15,125.76,107.32,138.73Z"/><path class="cls-16" d="M107.32,144.74c-25.65-14-32.62-42.39-35.2-70.84,13-4.84,21-6.27,35.2-6.72,14.23.45,22.18,1.88,35.2,6.72C139.94,102.35,133,130.78,107.32,144.74Zm0-72C95,73.15,88,74.28,78.09,77.67c2.47,23.25,8.4,47.66,29.23,60.63,20.83-13,26.77-37.38,29.23-60.63C126.64,74.28,119.6,73.15,107.32,72.75Z"/><path class="cls-17" d="M122.36,99.13a2.47,2.47,0,0,1,.72,1.77,2.35,2.35,0,0,1-1.61,2.29,2.25,2.25,0,0,1,.67,1.62v.07a2.15,2.15,0,0,1-1.42,2.07,2.31,2.31,0,0,1,.76,1.74v.21a2.14,2.14,0,0,1-2,2.23H108.24s-3,0-3.57-.71a4.83,4.83,0,0,0-1.48-1.1l-.4-.19H99.35V97.23a14.93,14.93,0,0,0,4.89-1.17,3.58,3.58,0,0,0,.87-.62,19.5,19.5,0,0,0,4.07-7.91c.31-2.2-.25-3.72,0-4.82s4-1.93,5.14,4a15.69,15.69,0,0,1,0,6.21c-.07.34-.15.66-.24.95h7.35a2.3,2.3,0,0,1,1.32.42,2.81,2.81,0,0,1,1.17,2.31A2.75,2.75,0,0,1,122.36,99.13Z"/><path class="cls-18" d="M104.24,96.06l-1,13.27-.4-.19H99.35V97.23A14.93,14.93,0,0,0,104.24,96.06Z"/><path class="cls-19" d="M102.32,96.13V110a1.16,1.16,0,0,1-1.16,1.16h-9.3a1.16,1.16,0,0,1-1.14-1.36l1.17-6.72,1.24-7.12a1.16,1.16,0,0,1,1.14-1h6.89A1.16,1.16,0,0,1,102.32,96.13Z"/><path class="cls-20" d="M91.2,107l-.49,2.78a1.16,1.16,0,0,0,1.14,1.36h9.3a1.16,1.16,0,0,0,1.16-1.16v-3Z"/><circle class="cls-20" cx="94.8" cy="107.71" r="1.27"/><circle class="cls-21" cx="94.47" cy="107.59" r="1.27"/><path class="cls-22" d="M94.93,106.4a1.05,1.05,0,1,1-1.73,1.18h0a1.27,1.27,0,1,0,1.73-1.18Z"/><path class="cls-18" d="M123.93,96.59a2.81,2.81,0,0,0-1.17-2.31h0l-.14-.09h0l-.13-.07,0,0-.12-.05h0l-.14-.05-.05,0-.11,0h0l-.15,0h0l-.13,0H114.1l.07-.25,0-.14,0-.14,0-.14.06-.27h0a15.7,15.7,0,0,0,0-6.21c-.95-5-3.76-5.18-4.77-4.47,1,.53,2,1.83,2.54,4.47a15.16,15.16,0,0,1-.22,7.16V95h8.21a1.62,1.62,0,0,1,1.63,1.59v0a2.75,2.75,0,0,1-1.57,2.54,2.47,2.47,0,0,1,.72,1.77,2.35,2.35,0,0,1-1.61,2.29,2.25,2.25,0,0,1,.67,1.62v.07a2.15,2.15,0,0,1-1.42,2.07,2.31,2.31,0,0,1,.76,1.74v.21a2.14,2.14,0,0,1-2,2.23h2.24a2.14,2.14,0,0,0,2-2.23v-.21a2.31,2.31,0,0,0-.76-1.74,2.15,2.15,0,0,0,1.42-2.07v-.07a2.25,2.25,0,0,0-.67-1.62,2.35,2.35,0,0,0,1.61-2.29,2.47,2.47,0,0,0-.72-1.77A2.75,2.75,0,0,0,123.93,96.59Z"/><ellipse class="cls-23" cx="94.06" cy="106.98" rx="0.44" ry="0.31" transform="translate(-47.6 92.02) rotate(-42.65)"/></g></g></g></svg>