<svg xmlns="http://www.w3.org/2000/svg" viewBox="0 0 150 150"><defs><style>.cls-1{isolation:isolate;}.cls-2,.cls-7{fill:#f4f0e6;}.cls-10,.cls-11,.cls-2,.cls-8,.cls-9{fill-rule:evenodd;}.cls-3{mix-blend-mode:multiply;}.cls-4{fill:#eeefef;}.cls-5{fill:#d6d0bb;}.cls-6{fill:#e3e3d4;}.cls-8{fill:#797a5e;}.cls-9{fill:#60664a;}.cls-10{fill:#969971;}.cls-11{fill:#fff;}</style></defs><title>Artboard 2 copy 17</title><g class="cls-1"><g id="Layer_16" data-name="Layer 16"><g id="Layer_14" data-name="Layer 14"><polygon class="cls-2" points="6.26 93.91 73.23 55.82 145.28 95.93 140.04 104.57 74.22 141.47 4.15 100.9 6.26 93.91"/><g class="cls-3"><path class="cls-4" d="M76.93,57.89l-3.26,1.89L70,57.66l-.19.11,3.68,2.12-9.72,5.65L60,63.35l-.19.11,3.78,2.18L53.86,71.3,50,69l-.19.11,3.89,2.25L44,77.05l-4-2.31-.19.11,4,2.31L34,82.81l-4.1-2.37-.19.11,4.11,2.37-9.72,5.65-4.21-2.43-.19.11,4.21,2.43-9.72,5.65L9.91,91.83l-.19.11L14,94.44,4.42,100l-.09.28L14.1,106l-.61.36.19.11.61-.36,9.78,5.65-.63.37.19.11.63-.37L34,117.47l-.64.37.19.11.64-.37L44,123.23l-.66.38.19.11.66-.38L54,129l-.67.39.19.11.67-.39L64,134.74l-.69.4.19.11.69-.4,9.78,5.65-.7.41.19.11.7-.41.81.47.19-.11-.81-.47L84,134.85l1,.57.19-.11-1-.57,9.72-5.65,1.16.67.19-.11L94.13,129l9.72-5.65,1.34.77.19-.11-1.34-.77,9.72-5.65,1.52.88.19-.11-1.52-.88,9.72-5.65,1.69,1,.19-.11-1.7-1,9.72-5.65,1.87,1.08.19-.11L133.77,106l8.39-4.88.21-.34-8.79,5.11-9.78-5.65,9.72-5.65,9.34,5.39.1-.16-9.25-5.34L138,91.91l-.19-.11-4.34,2.52-9.78-5.65,4.17-2.42-.19-.11-4.16,2.42-9.78-5.65,4-2.32-.19-.11-4,2.31-9.78-5.65,3.8-2.21-.19-.11-3.8,2.21L93.81,71.4l3.62-2.11-.19-.11-3.62,2.1-9.78-5.65,3.44-2-.19-.11-3.44,2-9.78-5.65L77.12,58ZM63.77,65.75l9.78,5.65-9.72,5.65L54,71.4ZM64,100.08l-9.78-5.65,9.72-5.65,9.78,5.65Zm9.91-5.54,9.78,5.65-9.72,5.65-9.78-5.65Zm-10.1,5.65-9.72,5.65-9.78-5.65L54,94.54Zm.19.11L73.75,106,64,111.6,54.24,106Zm10,5.76,9.78,5.65L74,117.36l-9.78-5.65Zm.19-.11,9.72-5.65L93.63,106l-9.72,5.65ZM84,100.19l9.72-5.65,9.78,5.65-9.72,5.65Zm-.19-.11-9.78-5.65,9.72-5.65,9.78,5.65Zm-10-5.76-9.78-5.65L73.81,83l9.78,5.65Zm-10-5.76-9.78-5.65,9.72-5.65,9.78,5.65Zm-.19.11L54,94.33,44.2,88.68,53.93,83ZM53.8,94.43l-9.72,5.65L34.3,94.44,44,88.79Zm-9.91,5.76-9.72,5.65-9.78-5.65,9.72-5.65Zm.19.11L53.87,106l-9.72,5.65L34.36,106Zm10,5.76,9.78,5.65-9.72,5.65-9.78-5.65Zm10,5.76,9.78,5.65-9.72,5.65-9.78-5.65Zm10,5.76,9.78,5.65-9.72,5.65-9.78-5.65Zm.19-.11,9.72-5.65,9.78,5.65L84,123.12Zm9.91-5.76,9.72-5.65,9.78,5.65-9.72,5.65ZM94,106l9.72-5.65,9.78,5.65-9.72,5.65Zm9.91-5.76,9.72-5.65,9.78,5.65-9.72,5.65Zm-.19-.11-9.78-5.65,9.72-5.65,9.78,5.65Zm-10-5.76L84,88.68,93.69,83l9.78,5.65Zm-10-5.76L74,82.92l9.72-5.65,9.78,5.65Zm-10-5.76L64,77.16l9.72-5.65,9.78,5.65ZM53.86,71.51l9.78,5.65-9.72,5.65-9.78-5.65ZM44,77.27l9.78,5.65L44,88.57l-9.78-5.65ZM34,83l9.78,5.65-9.72,5.65-9.78-5.65Zm-9.91,5.76,9.78,5.65-9.72,5.65-9.78-5.65Zm-9.84,17.06-9.78-5.65,9.72-5.65L24,100.19Zm10,5.76L14.48,106l9.72-5.65L34,106Zm10,5.76-9.78-5.65,9.72-5.65L44,111.71Zm10,5.76-9.78-5.65,9.72-5.65,9.78,5.65Zm10,5.76-9.78-5.65,9.72-5.65,9.78,5.65Zm10,5.76L54.37,129l9.72-5.65L73.88,129Zm10,5.76-9.78-5.65,9.72-5.65,9.78,5.65ZM84,134.63,74.25,129,84,123.33,93.76,129Zm9.91-5.76-9.78-5.65,9.72-5.65,9.78,5.65Zm9.91-5.76-9.78-5.65,9.72-5.65,9.78,5.65Zm9.91-5.76L104,111.71l9.72-5.65,9.78,5.65ZM133.39,106l-9.72,5.65L113.89,106l9.72-5.65Zm-9.85-17.16,9.78,5.65-9.72,5.65-9.78-5.65Zm-10-5.76,9.78,5.65-9.72,5.65-9.78-5.65Zm-10-5.76,9.78,5.65-9.72,5.65-9.78-5.65Zm-10-5.76,9.78,5.65-9.72,5.65L83.9,77.16Zm-10-5.76,9.78,5.65-9.72,5.65L73.93,71.4Zm-.19-.11-9.72,5.65L64,65.65,73.68,60Z"/></g><g class="cls-1"><polygon class="cls-5" points="147.19 49.54 146.93 97.76 143.37 99.83 143.63 51.6 147.19 49.54"/><polygon class="cls-6" points="143.63 51.6 143.37 99.83 74.46 60.04 74.72 11.82 143.63 51.6"/><polygon class="cls-7" points="147.19 49.54 143.63 51.6 74.72 11.82 6.26 51.6 2.69 49.54 71.15 9.75 74.7 7.69 78.28 9.75 147.19 49.54"/><polygon class="cls-5" points="6.26 51.6 5.62 100.39 74.46 60.04 74.72 11.82 6.26 51.6"/><polygon class="cls-6" points="6.26 51.6 5.62 100.39 2.04 98.33 2.69 49.54 6.26 51.6"/></g><polygon class="cls-6" points="38.21 119.05 38.21 119.04 2.1 98.2 2.1 101.42 38.2 122.27 38.2 122.28 74.21 143.08 74.22 139.85 38.21 119.05"/><polygon class="cls-5" points="74.22 139.85 74.21 143.08 146.92 100.95 146.93 97.72 74.22 139.85"/><g class="cls-1"><polygon class="cls-6" points="143.48 97.21 140.09 100.9 74.31 62.92 74.57 57.43 143.48 97.21"/><polygon class="cls-7" points="141.8 94.45 141.65 96.15 74.57 57.43 8 96.98 5.62 95.67 71 57.69 74.55 55.63 78.13 57.69 141.8 94.45"/><polygon class="cls-5" points="8 96.98 7.93 101.58 74.31 62.92 74.57 57.43 8 96.98"/><polygon class="cls-6" points="8 96.98 7.93 101.58 5.62 100.39 5.62 95.67 8 96.98"/></g><polygon class="cls-8" points="124.18 49.37 124.18 71.91 136.89 79.22 136.89 56.71 124.18 49.37"/><polygon class="cls-9" points="125.45 51.57 125.45 71.18 126.57 70.56 126.57 52.22 125.45 51.57"/><polygon class="cls-10" points="135.63 77.03 125.49 71.18 126.57 70.56 135.63 75.79 135.63 77.03"/><polygon class="cls-10" points="138.58 55.79 136.89 56.77 124.18 49.43 125.87 48.45 138.58 55.79"/><polygon class="cls-9" points="138.58 55.79 136.89 56.77 136.89 79.22 138.58 78.25 138.58 55.79"/><polygon class="cls-11" points="135.63 75.79 126.57 70.56 126.57 52.22 135.63 57.44 135.63 75.79"/><polygon class="cls-10" points="135.63 62.13 126.01 56.58 126.01 56.58 126.57 56.25 135.63 61.48 135.63 62.13"/><polygon class="cls-8" points="126.01 56.58 126.01 57.62 135.63 63.14 135.63 62.13 126.01 56.58"/><polygon class="cls-8" points="34.98 47.66 34.98 70.2 22.27 77.51 22.27 55 34.98 47.66"/><polygon class="cls-9" points="33.72 49.86 33.72 69.47 32.59 68.85 32.59 50.51 33.72 49.86"/><polygon class="cls-10" points="23.54 75.32 33.67 69.47 32.59 68.85 23.54 74.08 23.54 75.32"/><polygon class="cls-10" points="20.59 54.08 22.27 55.06 34.98 47.72 33.3 46.74 20.59 54.08"/><polygon class="cls-9" points="20.59 54.08 22.27 55.06 22.27 77.51 20.59 76.54 20.59 54.08"/><polygon class="cls-11" points="23.54 74.08 32.59 68.85 32.59 50.51 23.54 55.73 23.54 74.08"/><polygon class="cls-10" points="23.54 60.42 33.16 54.87 33.16 54.87 32.59 54.54 23.54 59.77 23.54 60.42"/><polygon class="cls-8" points="33.16 54.87 33.16 55.91 23.54 61.43 23.54 60.42 33.16 54.87"/><polygon class="cls-8" points="99.07 37.14 99.07 59.68 111.78 66.99 111.78 44.48 99.07 37.14"/><polygon class="cls-9" points="100.34 39.33 100.34 58.95 101.46 58.33 101.46 39.98 100.34 39.33"/><polygon class="cls-10" points="110.52 64.8 100.38 58.95 101.46 58.33 110.52 63.55 110.52 64.8"/><polygon class="cls-10" points="113.47 43.56 111.78 44.53 99.07 37.2 100.76 36.22 113.47 43.56"/><polygon class="cls-9" points="113.47 43.56 111.78 44.53 111.78 66.99 113.47 66.01 113.47 43.56"/><polygon class="cls-11" points="110.52 63.55 101.46 58.33 101.46 39.98 110.52 45.21 110.52 63.55"/><polygon class="cls-10" points="110.52 49.9 100.9 44.34 100.9 44.34 101.46 44.02 110.52 49.25 110.52 49.9"/><polygon class="cls-8" points="100.9 44.34 100.9 45.38 110.52 50.91 110.52 49.89 100.9 44.34"/></g></g></g></svg>