<svg xmlns="http://www.w3.org/2000/svg" viewBox="0 0 150 150"><defs><style>.cls-1{fill:#5e4424;}.cls-2{fill:#ffb7a4;}.cls-3{fill:#d99b8b;}.cls-4{fill:#a37568;}.cls-5{fill:#4f2e1e;}.cls-6{fill:#5e3624;}.cls-7{opacity:0.25;}.cls-8{fill:#f9c946;}.cls-9{fill:#f29638;}.cls-10{fill:#202830;}.cls-11{fill:#ffae2b;}.cls-12{fill:#db982c;}.cls-13{fill:#3f4e5e;}.cls-14{fill:#ba5c32;}.cls-15{fill:#803f22;}.cls-16{fill:#4fa3bd;}.cls-17{fill:#2b5866;}.cls-18{fill:#274f5c;}.cls-19{fill:#3a768a;}.cls-20{fill:#c4a288;}.cls-21{fill:#26221f;}.cls-22{fill:#1a3640;}.cls-23{fill:#366e80;}.cls-24{fill:#4d4d4d;}.cls-25{fill:#292929;}.cls-26{fill:#424242;}.cls-27{fill:#1f1f1f;}.cls-28{fill:#5e5e5e;}.cls-29{fill:#8f8f8f;}.cls-30{fill:#454545;}.cls-31{fill:#2f6170;}.cls-32{fill:#1d3c45;}.cls-33{fill:#363636;}.cls-34{fill:#2b2b2b;}.cls-35{fill:#212121;}.cls-36{fill:#474747;}.cls-37{fill:#171717;}.cls-38{fill:#783b21;}.cls-39{fill:#616161;}.cls-40{fill:#8a8a8a;}.cls-41{opacity:0.2;}.cls-42{fill:#525252;}.cls-43{fill:#ff7126;}.cls-44{fill:#c9591e;}.cls-45{fill:#a1a1a1;}.cls-46{fill:#3b3b3b;}.cls-47{fill:#1c1c1c;}.cls-48{fill:#555655;}.cls-49{fill:#a84b19;}.cls-50{fill:#ffa575;}.cls-51{fill:#2e2e2e;}.cls-52{fill:#0a0a0a;}.cls-53{fill:#c73838;}.cls-54{fill:gray;}.cls-55{fill:#6e1f1f;}</style></defs><title>Artboard 2 copy 8</title><g id="Layer_16" data-name="Layer 16"><g id="Layer_14" data-name="Layer 14"><path class="cls-1" d="M32.18,47.8c-3.24,6.12.41,23.87,10.8,27.46H63.62c11.25-5.83,15.5-22.82,11-27.32-5.56-3.77-19.45-8.49-19.45-8.49S36.36,44.17,32.18,47.8Z"/><path class="cls-2" d="M33.18,55.19c-3.11.64-6.22-1.66-6.95-5.16s1.21-6.84,4.33-7.49S36.3,54.54,33.18,55.19Z"/><path class="cls-2" d="M73.27,55.19c3.11.64,6.23-1.66,6.95-5.16S79,43.19,75.89,42.54,70.15,54.54,73.27,55.19Z"/><rect class="cls-3" x="42.42" y="71.62" width="21.98" height="24.43"/><path class="cls-4" d="M64.4,96.05h-22V80.61s9,10.69,11.43,10.69S64.4,80.61,64.4,80.61Z"/><path class="cls-2" d="M53.38,78.3C79.19,78.3,75.06,34,75.06,34S74,19.51,53.94,19.51c-17.49,0-21.8,14.87-21.8,14.87S27.39,78.3,53.38,78.3Z"/><path class="cls-1" d="M29.34,43c2.11-.47,4.37,3.55,4.37,3.55l.87-15.36s11.94,6.61,24.5,4.54a10,10,0,0,1-1.25-7s7.25,5.62,10.64,5.63a10.83,10.83,0,0,1,3.39-3.24l1.77,16.15c1.1-4.32,4.17-3.88,4.17-3.88s6.58-30.81-24.25-30.81S29.29,42.08,29.34,43Z"/><path class="cls-5" d="M64.5,66.28h-2s-1.86,7.05-2.44,7.8c-.92,1.18-2.4,2.38-3.33,2.08s-1.52-2-2-2.26l-1-.52h0l-1,.52c-.44.23-1,2-2,2.26s-2.41-.9-3.33-2.08c-.58-.75-2.44-7.8-2.44-7.8H43s-.56,12,5.36,14.33c.44-1.67,1.07-.64,1.07-.64s1.47,3.11,4.27,3.17h.08c2.8-.06,4.27-3.17,4.27-3.17s.62-1,1.07.64C65.06,78.27,64.5,66.28,64.5,66.28Z"/><path class="cls-6" d="M53.63,62.47c.18,2.74-4.17,3.11-7.54,3.56a4.89,4.89,0,0,0-4,2.76s-2.21-5.12.54-6.81C46.07,59.86,53.43,59.55,53.63,62.47Z"/><path class="cls-6" d="M53.73,62.47c-.18,2.74,4.17,3.11,7.54,3.56a4.89,4.89,0,0,1,4,2.76s2.21-5.12-.54-6.81C61.28,59.86,53.92,59.55,53.73,62.47Z"/><path class="cls-7" d="M53.8,46.24c-21.68,0-24.8-7.44-24.8-7.44H78.4S74.4,46.24,53.8,46.24Z"/><path class="cls-8" d="M54.27,7.42H51.95A25.34,25.34,0,0,0,26.61,32.76V33h53v-.26A25.34,25.34,0,0,0,54.27,7.42Z"/><path class="cls-9" d="M78.35,30.49c-16.84-4.13-14.58-14.75-21-22.16H48.49c-6.37,7.42-4.11,18-21,22.16Z"/><path class="cls-8" d="M57.32,5.62H48.74s-.45,25-23.94,25v3.91H81.26V30.61C57.77,30.61,57.32,5.62,57.32,5.62Z"/><rect class="cls-9" x="24.8" y="32.64" width="56.46" height="4.37"/><path class="cls-8" d="M24.8,37a221.44,221.44,0,0,1,28.31-2.18A202.6,202.6,0,0,1,81.26,37c0,2.74-14.07,6.33-28.16,6.32S24.8,39.72,24.8,37Z"/><path class="cls-10" d="M105.74,117.63s0-4.52-.25-9.28C104.17,95.3,100,92.15,100,92.15a9.34,9.34,0,0,0-3.46-2.79l-.27-.22,0,.06C86.92,84.29,65.29,80.6,65,81L55,93.89a1.74,1.74,0,0,1-2.6,0s-10-13.06-10.55-13c0,0-21.33,3.46-30.47,8.24h0a9,9,0,0,0-3.76,3S2.6,98,2.34,105.3c-.19,5.44.06,12.14.06,12.14Z"/><path class="cls-11" d="M90.56,117.63c0-2.93-.15-10.55-.15-10.55H17l.15,10.55Z"/><polygon class="cls-12" points="75.07 112.61 84.44 112.61 84.44 83.98 75.07 82.48 75.07 112.61"/><polygon class="cls-12" points="32.96 112.61 23.59 112.61 23.59 83.98 32.96 82.48 32.96 112.61"/><path class="cls-13" d="M52.4,92.47a1.74,1.74,0,0,0,2.6,0L65,81a11.49,11.49,0,0,1,2.58.27c-1.77,2.94-8.11,11.4-11.5,14.38a3.65,3.65,0,0,1-4.57.19c-3.56-2.6-10.63-12.12-12.23-14.44,1.62-.29,2.59-.45,2.59-.45C42.44,80.81,52.4,92.47,52.4,92.47Z"/><path class="cls-14" d="M102.17,88.54H94.86v6.18h7.31A10.28,10.28,0,0,1,102.17,88.54Z"/><path class="cls-15" d="M100.9,89.45H95.73v4.37h5.17A7.27,7.27,0,0,1,100.9,89.45Z"/><path class="cls-16" d="M113.46,88.54H76.66c-2.43,0-4.07-2.15-3.66-4.8l1.22-7.94A5.58,5.58,0,0,1,79.36,71h34.1l2.21,1.41V87.14Z"/><polygon class="cls-17" points="117.73 87.01 115.67 87.01 115.67 87.01 115.67 72.54 115.67 72.54 117.73 72.54 117.73 87.01"/><path class="cls-18" d="M102.42,85H87.48a5.3,5.3,0,0,1-5.3-5.3v-.11a5.3,5.3,0,0,1,5.3-5.3h14.94Z"/><rect class="cls-19" x="88.72" y="74.93" width="7.91" height="9.31"/><rect class="cls-20" x="97.75" y="74.93" width="3.83" height="9.31"/><polygon class="cls-21" points="89.91 83.83 89.42 83.83 90.77 75.34 91.26 75.34 89.91 83.83"/><polygon class="cls-21" points="90.81 83.83 90.32 83.83 91.67 75.34 92.16 75.34 90.81 83.83"/><polygon class="cls-21" points="91.71 83.83 91.22 83.83 92.57 75.34 93.06 75.34 91.71 83.83"/><polygon class="cls-21" points="92.61 83.83 92.12 83.83 93.47 75.34 93.96 75.34 92.61 83.83"/><polygon class="cls-21" points="93.51 83.83 93.02 83.83 94.37 75.34 94.86 75.34 93.51 83.83"/><rect class="cls-22" x="91.22" y="70.22" width="10.05" height="0.79" rx="0.39" ry="0.39"/><polygon class="cls-23" points="115.67 87.01 113.46 88.54 113.46 71.01 115.67 72.41 115.67 87.01"/><rect class="cls-24" x="117.73" y="76" width="0.87" height="7.54"/><polygon class="cls-25" points="130.72 85.9 118.6 85.9 118.6 73.65 130.72 73.65 133.33 75.04 133.33 84.5 130.72 85.9"/><rect class="cls-26" x="119.04" y="74.17" width="2.71" height="11.19"/><rect class="cls-27" x="119.33" y="74.31" width="11.04" height="0.54"/><rect class="cls-27" x="119.33" y="75.46" width="11.04" height="0.54"/><rect class="cls-27" x="119.33" y="76.62" width="11.04" height="0.54"/><rect class="cls-27" x="119.33" y="77.78" width="11.04" height="0.54"/><rect class="cls-27" x="119.33" y="78.94" width="11.04" height="0.54"/><rect class="cls-27" x="119.33" y="80.09" width="11.04" height="0.54"/><rect class="cls-27" x="119.33" y="81.25" width="11.04" height="0.54"/><rect class="cls-27" x="119.33" y="82.41" width="11.04" height="0.54"/><rect class="cls-27" x="119.33" y="83.57" width="11.04" height="0.54"/><rect class="cls-27" x="119.33" y="84.73" width="11.04" height="0.54"/><rect class="cls-28" x="133.33" y="75.46" width="0.76" height="8.65"/><polygon class="cls-29" points="134.09 76.78 134.09 82.8 137.34 81.22 137.34 78.35 134.09 76.78"/><rect class="cls-30" x="134.09" y="79.6" width="2.46" height="0.34"/><path class="cls-16" d="M108.87,112.42l-12.71-.91a3,3,0,0,1-2.68-3.4c.75-5.38,2.76-16.21,7.16-19.57H80.37c4,0,3.43,4.38,3.21,5.55l-.06.29h0a60.17,60.17,0,0,0-4,21.22h30.07C109.57,115.2,109.77,113.35,108.87,112.42Z"/><path class="cls-31" d="M80.37,88.54A3,3,0,0,1,83.58,91l9.34,0a1.89,1.89,0,0,0,3.78,0H98.6a8.6,8.6,0,0,1,2-2.42Z"/><path class="cls-31" d="M90.42,109.65H82a42.73,42.73,0,0,1,2.81-11.53,5.64,5.64,0,0,1,5.29-3.68h4.49C92.64,96.44,90.42,109.65,90.42,109.65Z"/><circle class="cls-32" cx="89.42" cy="97.25" r="0.87"/><circle class="cls-32" cx="86.95" cy="106.86" r="0.87"/><path class="cls-33" d="M107.08,133.51h-25A2.11,2.11,0,0,1,80,131.4V115.6h29.23v15.8A2.11,2.11,0,0,1,107.08,133.51Z"/><rect class="cls-33" x="79.04" y="115.6" width="30.84" height="2.89"/><rect class="cls-34" x="87.39" y="115.6" width="10.58" height="2.89"/><path class="cls-35" d="M109.19,118.48H80v2h8.35a4.41,4.41,0,0,0,4.36,3.8h.09a4.41,4.41,0,0,0,4.36-3.8h12.06Z"/><rect class="cls-36" x="87.82" y="115.82" width="9.79" height="3.65"/><rect class="cls-37" x="88.38" y="116.23" width="8.68" height="3.24"/><path class="cls-14" d="M92.76,123.34h-.08a3.93,3.93,0,0,1-3.93-3.93v-2.87h7.93v2.87A3.93,3.93,0,0,1,92.76,123.34Z"/><rect class="cls-38" x="89.15" y="116.81" width="7.05" height="2.76"/><rect class="cls-38" x="89.48" y="119.77" width="6.3" height="0.37"/><rect class="cls-38" x="89.48" y="120.51" width="6.3" height="0.37"/><rect class="cls-38" x="89.81" y="121.24" width="5.62" height="0.37"/><rect class="cls-38" x="90.39" y="121.98" width="4.6" height="0.37"/><circle class="cls-14" cx="94.8" cy="90.92" r="1.47"/><circle class="cls-15" cx="94.8" cy="90.92" r="1.05"/><rect class="cls-39" x="137.35" y="79" width="9.62" height="1.54"/><path class="cls-40" d="M145.58,80.22h-8.24v-.91h8.24a.38.38,0,0,1,.4.36v.19A.38.38,0,0,1,145.58,80.22Z"/><rect class="cls-41" x="137.35" y="79" width="0.51" height="1.54"/><polygon class="cls-42" points="146.97 79.18 146.97 80.4 147.62 79.77 146.97 79.18"/><rect class="cls-43" x="36.98" y="128.52" width="20.33" height="6.17"/><rect class="cls-44" x="36.98" y="128.52" width="1.72" height="6.17"/><rect class="cls-45" x="34.45" y="128.52" width="2.53" height="6.17"/><rect class="cls-39" x="35.72" y="128.52" width="1.26" height="6.17"/><rect class="cls-46" x="33.73" y="127.3" width="0.79" height="8.58"/><rect class="cls-47" x="56.72" y="128.52" width="0.15" height="2.67"/><rect class="cls-47" x="56.12" y="128.52" width="0.15" height="5.34"/><rect class="cls-47" x="55.53" y="128.52" width="0.15" height="2.67"/><rect class="cls-47" x="54.93" y="128.52" width="0.15" height="2.67"/><rect class="cls-47" x="54.34" y="128.52" width="0.15" height="2.67"/><rect class="cls-47" x="53.74" y="128.52" width="0.15" height="2.67"/><rect class="cls-47" x="53.15" y="128.52" width="0.15" height="5.34"/><rect class="cls-47" x="52.55" y="128.52" width="0.15" height="2.67"/><rect class="cls-47" x="51.96" y="128.52" width="0.15" height="2.67"/><rect class="cls-47" x="51.36" y="128.52" width="0.15" height="2.67"/><rect class="cls-47" x="50.77" y="128.52" width="0.15" height="2.67"/><rect class="cls-47" x="50.17" y="128.52" width="0.15" height="5.34"/><rect class="cls-47" x="49.58" y="128.52" width="0.15" height="2.67"/><rect class="cls-47" x="48.98" y="128.52" width="0.15" height="2.67"/><rect class="cls-47" x="48.39" y="128.52" width="0.15" height="2.67"/><rect class="cls-47" x="47.79" y="128.52" width="0.15" height="2.67"/><rect class="cls-47" x="47.2" y="128.52" width="0.15" height="5.34"/><rect class="cls-47" x="46.6" y="128.52" width="0.15" height="2.67"/><rect class="cls-47" x="46.01" y="128.52" width="0.15" height="2.67"/><rect class="cls-47" x="45.41" y="128.52" width="0.15" height="2.67"/><rect class="cls-47" x="44.82" y="128.52" width="0.15" height="2.67"/><rect class="cls-47" x="44.22" y="128.52" width="0.15" height="5.34"/><rect class="cls-47" x="43.63" y="128.52" width="0.15" height="2.67"/><rect class="cls-47" x="43.03" y="128.52" width="0.15" height="2.67"/><rect class="cls-47" x="42.44" y="128.52" width="0.15" height="2.67"/><rect class="cls-47" x="41.84" y="128.52" width="0.15" height="2.67"/><rect class="cls-47" x="41.25" y="128.52" width="0.15" height="5.34"/><rect class="cls-47" x="40.65" y="128.52" width="0.15" height="2.67"/><rect class="cls-47" x="40.06" y="128.52" width="0.15" height="2.67"/><rect class="cls-47" x="39.46" y="128.52" width="0.15" height="2.67"/><rect class="cls-47" x="38.87" y="128.52" width="0.15" height="2.67"/><rect class="cls-47" x="38.27" y="128.52" width="0.15" height="5.34"/><path class="cls-48" d="M55.77,134.52l2-13.17v-.09l0-.1h0a13.83,13.83,0,0,1,27.47,2.25v10a3.78,3.78,0,0,1-3.78,3.78H57.85A2.16,2.16,0,0,1,55.77,134.52Z"/><path class="cls-49" d="M59.17,131.19l3.23-5.67a9.32,9.32,0,1,1,5.89,6.63l-5.92,2.6a2.48,2.48,0,0,1-2.78-.7l0,0A2.48,2.48,0,0,1,59.17,131.19Z"/><path class="cls-43" d="M60.52,130.36l3-5.18a8.19,8.19,0,1,1,5.37,6l-5.45,2.39a2.22,2.22,0,0,1-2.49-.63l0,0A2.22,2.22,0,0,1,60.52,130.36Z"/><circle class="cls-50" cx="71.45" cy="123.49" r="5.14"/><path class="cls-43" d="M71.19,113.05h.51a1.49,1.49,0,0,0,1.49-1.49V110H69.7v1.53A1.49,1.49,0,0,0,71.19,113.05Z"/><path class="cls-43" d="M78.6,115.95l.36.36a1.49,1.49,0,0,0,2.11,0l1.08-1.08-2.47-2.47-1.08,1.08A1.49,1.49,0,0,0,78.6,115.95Z"/><path class="cls-43" d="M81.79,123.23v.51a1.49,1.49,0,0,0,1.49,1.49h1.53v-3.5H83.29A1.49,1.49,0,0,0,81.79,123.23Z"/><path class="cls-43" d="M64.08,116.32l.36-.36a1.49,1.49,0,0,0,0-2.11l-1.08-1.08-2.47,2.47L62,116.32A1.49,1.49,0,0,0,64.08,116.32Z"/><path d="M68.15,124.09a1.75,1.75,0,0,0,.8.22c.51,0,.72-.29.71-.57s-.39-.6-.8-.6h-.31v-.49h.3c.31,0,.7-.14.7-.49s-.18-.44-.57-.44a1.42,1.42,0,0,0-.72.22l-.15-.48a1.91,1.91,0,0,1,1-.27c.73,0,1.1.4,1.1.86a.86.86,0,0,1-.65.83h0a.89.89,0,0,1,.78.88c0,.6-.5,1.07-1.38,1.07a1.93,1.93,0,0,1-1-.24Z"/><path d="M71.05,122.92c0-.3,0-.56,0-.79h.58l0,.39h0a.92.92,0,0,1,.82-.45.76.76,0,0,1,.73.49h0a1,1,0,0,1,.33-.33.88.88,0,0,1,.53-.16c.44,0,.89.3.89,1.15v1.56H74.3v-1.46c0-.44-.15-.7-.47-.7a.51.51,0,0,0-.47.35,1,1,0,0,0,0,.22v1.59h-.65v-1.53c0-.37-.15-.63-.46-.63a.52.52,0,0,0-.48.38.57.57,0,0,0,0,.22v1.57h-.65Z"/><path class="cls-51" d="M85.13,133.95l-3.23,3.23,1.33,1.33a2.26,2.26,0,0,0,3.2,0l0,0a2.26,2.26,0,0,0,0-3.2Zm-.94,2.29a1.05,1.05,0,1,1,0,1.49A1.05,1.05,0,0,1,84.19,136.23Z"/><path class="cls-43" d="M56.11,126.58l.85.13.86-5.65-.85-.13c-.15,1-.81,1.68-1.47,1.58l-.32,2.12C55.84,124.73,56.26,125.61,56.11,126.58Z"/><circle class="cls-52" cx="80.82" cy="133.05" r="2.2"/><circle class="cls-43" cx="80.82" cy="133.05" r="1.62"/><polygon class="cls-53" points="82.88 139.83 84.09 140.38 85.82 137.33 84.06 136.52 82.88 139.83"/><rect class="cls-54" x="81.9" y="140.47" width="2.24" height="1.32" transform="translate(-79.84 158.09) rotate(-65.48)"/><path class="cls-55" d="M82,141.88s-10.31-2.48-16.54-.09l.18,1.72c4.23-2,17.56-1.09,17.56-1.09Z"/><path class="cls-53" d="M83.16,142.42s-10.71,3.27-17.56,1.09l-.18-1.72c4.33,1.41,16.54.08,16.54.08Z"/></g></g></svg>