<svg xmlns="http://www.w3.org/2000/svg" viewBox="0 0 150 150"><defs><style>.cls-1{fill:#bcb6d6;}.cls-2{opacity:0.15;}.cls-3{fill:#6a45ff;}.cls-4{fill:#4a3d7d;}.cls-5{fill:#8b6eff;}.cls-6{fill:#322954;}.cls-7{fill:#272042;}.cls-8{fill:#181429;}.cls-9{fill:#192c38;}.cls-10{fill:#292929;}.cls-11{fill:#1a1a1a;}.cls-12{fill:#121212;}.cls-13{fill:#457a9c;}.cls-14{fill:#ffbd52;}.cls-15{fill:#cf9a43;}.cls-16{fill:#a37935;}.cls-17{fill:#805f29;}.cls-18{fill:#4f3b19;}.cls-19{fill:#ff5852;}.cls-20{fill:#cf3a3a;}.cls-21{fill:#1f1f1f;}.cls-22{fill:#ff8585;}.cls-23{fill:#616161;}.cls-24{fill:#8c8c8c;}.cls-25{fill:#595959;}.cls-26{fill:#363636;}.cls-27{fill:#544835;}.cls-28{fill:#8f7a5a;}.cls-29{fill:#575757;}.cls-30{fill:#bfbfbf;}.cls-31{fill:#d4d4d4;}.cls-32{fill:#ababab;}.cls-33{fill:#999;}.cls-34{fill:#858585;}.cls-35{fill:#7a7a7a;}.cls-36{fill:#c21313;}.cls-37{fill:#d41414;}.cls-38{fill:#a81010;}.cls-39{fill:#940e0e;}</style></defs><title>Artboard 2 copy 5</title><g id="Layer_16" data-name="Layer 16"><g id="Layer_14" data-name="Layer 14"><path class="cls-1" d="M114.44,27.65H33.32a340.61,340.61,0,0,1-3,76h79C113.63,101,115.48,29.18,114.44,27.65Z"/><path class="cls-2" d="M33.43,75.06a276.32,276.32,0,0,1-3.13,28.6h79c1.78-1.09,3.14-13.75,4.06-28.43Z"/><path class="cls-3" d="M30.31,81.2c-.87,0-2.52,5-2.52,11.23s1.65,11.23,2.52,11.23h79V81.2Z"/><ellipse class="cls-4" cx="109.27" cy="92.43" rx="1.58" ry="11.23"/><path class="cls-5" d="M103,103.66c-.87,0-1.58-5-1.58-11.23S102.16,81.2,103,81.2H96c-.87,0-1.58,5-1.58,11.23s.71,11.23,1.58,11.23Z"/><path class="cls-5" d="M88.41,103.66c-.87,0-1.58-5-1.58-11.23s.71-11.23,1.58-11.23H81.33c-.87,0-1.58,5-1.58,11.23s.71,11.23,1.58,11.23Z"/><path class="cls-5" d="M73.79,103.66c-.87,0-1.58-5-1.58-11.23s.71-11.23,1.58-11.23H66.71c-.87,0-1.58,5-1.58,11.23s.71,11.23,1.58,11.23Z"/><path class="cls-5" d="M59.17,103.66c-.87,0-1.58-5-1.58-11.23S58.3,81.2,59.17,81.2H52.09c-.87,0-1.58,5-1.58,11.23s.71,11.23,1.58,11.23Z"/><path class="cls-5" d="M44.55,103.66c-.87,0-1.58-5-1.58-11.23s.71-11.23,1.58-11.23H37.47c-.87,0-1.58,5-1.58,11.23s.71,11.23,1.58,11.23Z"/><ellipse class="cls-6" cx="108.93" cy="92.43" rx="1.24" ry="8.83"/><ellipse class="cls-7" cx="108.63" cy="92.43" rx="0.94" ry="6.65"/><ellipse class="cls-8" cx="108.31" cy="92.43" rx="0.62" ry="4.41"/><path class="cls-9" d="M17.37,86.86c-.87,0-2.52,5-2.52,11.23s1.65,11.23,2.52,11.23h79V86.86Z"/><ellipse class="cls-10" cx="96.34" cy="98.09" rx="1.58" ry="11.23"/><ellipse class="cls-11" cx="96" cy="98.09" rx="1.24" ry="8.83"/><ellipse class="cls-12" cx="95.7" cy="98.09" rx="0.94" ry="6.65"/><ellipse cx="95.38" cy="98.09" rx="0.62" ry="4.41"/><polygon class="cls-13" points="95.35 89.26 16.01 89.26 16.53 87.92 95.67 87.92 95.35 89.26"/><path class="cls-13" d="M94.76,97.32H14.85s0-.24.1-1.9a9.55,9.55,0,0,1,.18-1.75H94.89Z"/><path class="cls-13" d="M95.57,107.89H16.41a16.92,16.92,0,0,1-.88-3H95.08Z"/><path class="cls-14" d="M84.37,92.43H5.4c-.87,0-2.26,5-2.26,11.23s1.38,11.23,2.26,11.23h79Z"/><ellipse class="cls-15" cx="84.37" cy="103.66" rx="1.58" ry="11.23"/><ellipse class="cls-16" cx="84.03" cy="103.66" rx="1.24" ry="8.83"/><ellipse class="cls-17" cx="83.72" cy="103.66" rx="0.94" ry="6.65"/><ellipse class="cls-18" cx="83.41" cy="103.66" rx="0.62" ry="4.41"/><path class="cls-19" d="M73.43,95.17c-1.52,0-3.3,3.8-3.3,8.48s1.78,8.48,3.3,8.48.82-3.8.82-8.48S75,95.17,73.43,95.17Z"/><path class="cls-19" d="M12.18,95.17c-1.52,0-3.3,3.8-3.3,8.48s1.78,8.48,3.3,8.48.82-3.8.82-8.48S13.71,95.17,12.18,95.17Z"/><path class="cls-19" d="M34.49,109.65c-1,.3-1.64,2.44-1.45,5.24H37C36.14,111.66,35.65,109.3,34.49,109.65Z"/><path class="cls-19" d="M61.33,109.65c-1,.3-1.64,2.44-1.45,5.24H63.8C63,111.66,62.49,109.3,61.33,109.65Z"/><path class="cls-19" d="M20.69,109.65c-1,.3-1.64,2.44-1.45,5.24h3.92C22.35,111.66,21.85,109.3,20.69,109.65Z"/><path class="cls-19" d="M42.78,95.17c-1.52,0-3.3,3.8-3.3,8.48s1.78,8.48,3.3,8.48.82-3.8.82-8.48S44.3,95.17,42.78,95.17Z"/><path class="cls-19" d="M56.44,103.36c1.49.34,1.64-3.52,2.68-8.09.23-1,.48-2,.72-2.84H55.67a18.27,18.27,0,0,0-.56,1.93C54.07,98.92,55,103,56.44,103.36Z"/><path class="cls-19" d="M26.22,103.36c1.49.34,1.64-3.52,2.68-8.09.23-1,.48-2,.72-2.84H25.44a18.27,18.27,0,0,0-.56,1.93C23.84,98.92,24.73,103,26.22,103.36Z"/><path class="cls-20" d="M126.82,51.9l1.2-1.2a1.39,1.39,0,0,0,.19-1.94L124,44.6a2.51,2.51,0,0,1,.33-3.5l1.16-1.16,0,0c2.8-1.07,6.91-4,11-8.07a69.42,69.42,0,0,0,5.78-6.52L137,20.15a69.46,69.46,0,0,0-6.51,5.78c-4,4-7,8.15-8.07,11h0L121.32,38a2.51,2.51,0,0,1-3.5.33l-4.16-4.16a1.39,1.39,0,0,0-1.94.19l-1.2,1.2Z"/><path class="cls-21" d="M142.25,25.35c2.85-3.86,4.09-7.06,3-8.18s-4.32.12-8.18,3Zm1.1-6.31a1.73,1.73,0,0,1-.23,2.42,1.73,1.73,0,0,1-2.42.23,1.73,1.73,0,0,1,.23-2.42A1.73,1.73,0,0,1,143.36,19Z"/><rect class="cls-22" x="132.29" y="25.44" width="6.22" height="3.07" rx="0.79" ry="0.79" transform="translate(20.59 103.65) rotate(-45)"/><rect class="cls-23" x="117.27" y="32.8" width="1.63" height="23.05" transform="translate(3.25 96.48) rotate(-45)"/><rect class="cls-24" x="110.95" y="36.09" width="7.69" height="23.05" transform="translate(-0.05 95.12) rotate(-45)"/><rect class="cls-25" x="113.01" y="38.56" width="0.64" height="21.04" transform="translate(-1.52 94.5) rotate(-44.99)"/><rect class="cls-25" x="115.27" y="36.3" width="0.64" height="21.04" transform="translate(0.75 95.47) rotate(-45.01)"/><rect class="cls-26" x="111.5" y="39.05" width="0.67" height="23.05" transform="translate(-3 93.9) rotate(-45)"/><rect class="cls-27" x="98.94" y="44.53" width="14.83" height="23.05" transform="translate(-8.49 91.63) rotate(-45)"/><rect class="cls-28" x="103.48" y="59.84" width="14.83" height="1.49" transform="translate(-10.36 96.16) rotate(-45)"/><rect class="cls-28" x="105.49" y="61.85" width="14.83" height="1.49" transform="translate(-11.2 98.17) rotate(-45)"/><rect class="cls-28" x="101.66" y="58.03" width="14.83" height="1.49" transform="translate(-9.61 94.34) rotate(-45)"/><rect class="cls-28" x="99.85" y="56.22" width="14.83" height="1.49" transform="translate(-8.86 92.53) rotate(-45)"/><rect class="cls-28" x="98.04" y="54.4" width="14.83" height="1.49" transform="translate(-8.11 90.72) rotate(-45)"/><rect class="cls-28" x="96.23" y="52.59" width="14.83" height="1.49" transform="translate(-7.36 88.91) rotate(-45)"/><rect class="cls-28" x="94.42" y="50.78" width="14.83" height="1.49" transform="translate(-6.61 87.1) rotate(-45)"/><rect class="cls-28" x="92.3" y="48.66" width="14.83" height="1.49" transform="translate(-5.73 84.98) rotate(-45)"/><rect class="cls-29" x="135.67" y="71.75" width="3.41" height="1.24"/><rect class="cls-29" x="91.86" y="71.75" width="3.41" height="1.24"/><rect class="cls-30" x="94.35" y="74.83" width="42.34" height="46.91"/><rect class="cls-31" x="125.98" y="74.83" width="10.7" height="46.91"/><rect class="cls-32" x="94.35" y="74.83" width="21.01" height="46.91"/><rect class="cls-33" x="94.35" y="74.83" width="10.51" height="46.91"/><rect class="cls-34" x="94.35" y="115.69" width="42.34" height="0.32"/><rect class="cls-34" x="94.35" y="117.55" width="42.34" height="0.32"/><rect class="cls-34" x="94.35" y="119.41" width="42.34" height="0.32"/><rect class="cls-34" x="94.35" y="82.06" width="42.34" height="0.32"/><rect class="cls-34" x="94.35" y="80.19" width="42.34" height="0.32"/><rect class="cls-34" x="94.35" y="78.33" width="42.34" height="0.32"/><rect class="cls-35" x="92.95" y="121.74" width="45.01" height="2.13"/><rect class="cls-36" x="94.35" y="86.3" width="42.34" height="23.8"/><rect class="cls-37" x="125.98" y="86.3" width="10.7" height="23.8"/><rect class="cls-38" x="94.35" y="86.3" width="21.11" height="23.8"/><rect class="cls-39" x="94.35" y="86.3" width="10.56" height="23.8"/><rect class="cls-30" x="93.57" y="69.81" width="0.78" height="7.42"/><rect class="cls-30" x="136.68" y="69.81" width="0.78" height="7.42"/><path class="cls-29" d="M115.71,98.13h-.47A23.87,23.87,0,0,1,91.4,74.29V71.75h.93v2.54A22.94,22.94,0,0,0,115.24,97.2h.47a22.94,22.94,0,0,0,22.91-22.91V71.75h.93v2.54A23.87,23.87,0,0,1,115.71,98.13Z"/></g></g></svg>