<svg xmlns="http://www.w3.org/2000/svg" viewBox="0 0 150 150"><defs><style>.cls-1{isolation:isolate;}.cls-2{fill:#edac1f;}.cls-3{fill:#f1c200;}.cls-4{fill:#ed9600;}.cls-198,.cls-5{mix-blend-mode:multiply;}.cls-6{fill:#fff;}.cls-7{fill:#fffefd;}.cls-8{fill:#fefdfc;}.cls-9{fill:#fefdfa;}.cls-10{fill:#fdfcf9;}.cls-11{fill:#fdfbf7;}.cls-12{fill:#fcfaf6;}.cls-13{fill:#fcf9f4;}.cls-14{fill:#fbf8f3;}.cls-15{fill:#fbf8f1;}.cls-16{fill:#faf7ef;}.cls-17{fill:#faf6ee;}.cls-18{fill:#f9f5ec;}.cls-19{fill:#f9f4eb;}.cls-20{fill:#f8f3e9;}.cls-21{fill:#f8f3e8;}.cls-22{fill:#f7f2e6;}.cls-23{fill:#f7f1e5;}.cls-24{fill:#f6f0e3;}.cls-25{fill:#f6efe1;}.cls-26{fill:#f5eee0;}.cls-27{fill:#f5eede;}.cls-28{fill:#f4eddd;}.cls-29{fill:#f4ecdb;}.cls-30{fill:#f3ebda;}.cls-31{fill:#f3ead8;}.cls-32{fill:#f2e9d7;}.cls-33{fill:#f2e9d5;}.cls-34{fill:#f1e8d4;}.cls-35{fill:#f1e7d2;}.cls-36{fill:#f0e6d0;}.cls-37{fill:#f0e5cf;}.cls-38{fill:#efe4cd;}.cls-39{fill:#efe4cc;}.cls-40{fill:#eee3ca;}.cls-41{fill:#eee2c9;}.cls-42{fill:#ede1c7;}.cls-43{fill:#ede0c6;}.cls-44{fill:#ecdfc4;}.cls-45{fill:#ecdfc2;}.cls-46{fill:#ebdec1;}.cls-47{fill:#ebddbf;}.cls-48{fill:#eadcbe;}.cls-49{fill:#eadbbc;}.cls-50{fill:#e9dabb;}.cls-51{fill:#e9dab9;}.cls-52{fill:#e8d9b8;}.cls-53{fill:#e8d8b6;}.cls-54{fill:#e8d7b4;}.cls-55{fill:#e7d6b3;}.cls-56{fill:#e7d6b1;}.cls-57{fill:#e6d5b0;}.cls-58{fill:#e6d4ae;}.cls-59{fill:#e5d3ad;}.cls-60{fill:#e5d2ab;}.cls-61{fill:#e4d1aa;}.cls-62{fill:#e4d1a8;}.cls-63{fill:#e3d0a6;}.cls-64{fill:#e3cfa5;}.cls-65{fill:#e2cea3;}.cls-66{fill:#e2cda2;}.cls-67{fill:#e1cca0;}.cls-68{fill:#e1cc9f;}.cls-69{fill:#e0cb9d;}.cls-70{fill:#e0ca9c;}.cls-71{fill:#dfc99a;}.cls-72{fill:#dfc898;}.cls-73{fill:#dec797;}.cls-74{fill:#dec795;}.cls-75{fill:#ddc694;}.cls-76{fill:#ddc592;}.cls-77{fill:#dcc491;}.cls-78{fill:#dcc38f;}.cls-79{fill:#dbc28e;}.cls-80{fill:#dbc28c;}.cls-81{fill:#dac18b;}.cls-82{fill:#dac089;}.cls-83{fill:#d9bf87;}.cls-84{fill:#d9be86;}.cls-85{fill:#d8bd84;}.cls-86{fill:#d8bd83;}.cls-87{fill:#d7bc81;}.cls-88{fill:#d7bb80;}.cls-89{fill:#d6ba7e;}.cls-90{fill:#d6b97d;}.cls-91{fill:#d5b87b;}.cls-92{fill:#d5b879;}.cls-93{fill:#d4b778;}.cls-94{fill:#d4b676;}.cls-95{fill:#d3b575;}.cls-96{fill:#d3b473;}.cls-97{fill:#d2b372;}.cls-98{fill:#d2b370;}.cls-99{fill:#d1b26f;}.cls-100{fill:#d1b16d;}.cls-101{fill:#ffdf59;}.cls-102{fill:#c09436;}.cls-103{fill:#c09538;}.cls-104{fill:#c19639;}.cls-105{fill:#c1973b;}.cls-106{fill:#c2973c;}.cls-107{fill:#c2983e;}.cls-108{fill:#c3993f;}.cls-109{fill:#c39a41;}.cls-110{fill:#c49b43;}.cls-111{fill:#c49c44;}.cls-112{fill:#c59c46;}.cls-113{fill:#c59d47;}.cls-114{fill:#c69e49;}.cls-115{fill:#c69f4b;}.cls-116{fill:#c7a04c;}.cls-117{fill:#c7a14e;}.cls-118{fill:#c8a14f;}.cls-119{fill:#c8a251;}.cls-120{fill:#c9a352;}.cls-121{fill:#c9a454;}.cls-122{fill:#caa556;}.cls-123{fill:#caa657;}.cls-124{fill:#cba759;}.cls-125{fill:#cba75a;}.cls-126{fill:#cca85c;}.cls-127{fill:#cca95e;}.cls-128{fill:#cdaa5f;}.cls-129{fill:#cdab61;}.cls-130{fill:#ceac62;}.cls-131{fill:#ceac64;}.cls-132{fill:#cfad65;}.cls-133{fill:#cfae67;}.cls-134{fill:#d0af69;}.cls-135{fill:#d0b06a;}.cls-136{fill:#d1b16c;}.cls-137{fill:#d2b26f;}.cls-138{fill:#d2b371;}.cls-139{fill:#d3b472;}.cls-140{fill:#d3b574;}.cls-141{fill:#d4b675;}.cls-142{fill:#d4b777;}.cls-143{fill:#d5b778;}.cls-144{fill:#d5b87a;}.cls-145{fill:#d6b97c;}.cls-146{fill:#d6ba7d;}.cls-147{fill:#d7bb7f;}.cls-148{fill:#d7bc80;}.cls-149{fill:#d8bc82;}.cls-150{fill:#d9be85;}.cls-151{fill:#dac088;}.cls-152{fill:#dac18a;}.cls-153{fill:#dbc18b;}.cls-154{fill:#dbc28d;}.cls-155{fill:#dcc490;}.cls-156{fill:#ddc693;}.cls-157{fill:#e0ca9b;}.cls-158{fill:#e1cc9e;}.cls-159{fill:#e4d2aa;}.cls-160{fill:#e7d7b3;}.cls-161{fill:#e8d7b5;}.cls-162{fill:#e9d9b8;}.cls-163{fill:#eadbbb;}.cls-164{fill:#eadcbd;}.cls-165{fill:#ebdcbe;}.cls-166{fill:#ebddc0;}.cls-167{fill:#ecdec1;}.cls-168{fill:#ecdfc3;}.cls-169{fill:#ede0c4;}.cls-170{fill:#ede1c6;}.cls-171{fill:#eee2c8;}.cls-172{fill:#efe3cb;}.cls-173{fill:#f0e5ce;}.cls-174{fill:#f1e7d1;}.cls-175{fill:#f1e7d3;}.cls-176{fill:#f2e8d4;}.cls-177{fill:#f2e9d6;}.cls-178{fill:#f3ead7;}.cls-179{fill:#f3ebd9;}.cls-180{fill:#f4ecdc;}.cls-181{fill:#f5edde;}.cls-182{fill:#f5eedf;}.cls-183{fill:#f7f1e4;}.cls-184{fill:#f8f2e7;}.cls-185{fill:#f9f4ea;}.cls-186{fill:#fbf7f1;}.cls-187{fill:#fbf8f2;}.cls-188{fill:#fefcfa;}.cls-189{fill:#ffb13e;}.cls-190{fill:#c26802;}.cls-191{fill:#ea9002;}.cls-192{fill:#b35f00;}.cls-193{fill:#cc9774;}.cls-194{fill:#e3a882;}.cls-195{fill:#ffbf96;}.cls-196{fill:#fcdbca;}.cls-197{fill:#91734b;}.cls-198{opacity:0.1;}.cls-199{fill:#704914;}</style></defs><title>Artboard 2 copy 6</title><g class="cls-1"><g id="Layer_16" data-name="Layer 16"><g id="Layer_14" data-name="Layer 14"><circle class="cls-2" cx="30.83" cy="75.04" r="10.23" transform="translate(-44.52 105.1) rotate(-89.41)"/><path class="cls-2" d="M30.94,64.82h0a10.23,10.23,0,1,0-.21,20.45h0Z"/><path class="cls-3" d="M40.65,75.05a9.8,9.8,0,0,1-9.89,9.69h0l0-4H30V79.35a5.75,5.75,0,0,1-2.41-.64l.44-1.66a5,5,0,0,0,2.35.65l.38,0,.13-12.52h0A9.8,9.8,0,0,1,40.65,75.05Z"/><path class="cls-4" d="M38.7,75a7.85,7.85,0,0,1-7.93,7.76h0l0-2.09H30V79.35a5.75,5.75,0,0,1-2.41-.64l.44-1.66a5,5,0,0,0,2.35.65l.38,0,.11-10.58h0A7.85,7.85,0,0,1,38.7,75Z"/><g class="cls-5"><path class="cls-6" d="M33.39,75.72q-.47-.18-.8-.34c-.63-.3-.9-.56-.9-.9s.23-.7.91-.77h.31a4.7,4.7,0,0,1,2,.51l.43-1.61a5.2,5.2,0,0,0-2.06-.49V70.85H32v1.35a2.64,2.64,0,0,0-2.43,2.51c0,1.38,1,2.1,2.54,2.63a4.72,4.72,0,0,1,.52.21c.68.29,1,.6,1,1s-.39.77-1,.84a2.67,2.67,0,0,1-.38,0,5,5,0,0,1-2.35-.65l-.44,1.66a5.77,5.77,0,0,0,2.41.64v1.35h1.4V81a2.72,2.72,0,0,0,2.55-2.6C35.74,77.12,35.07,76.33,33.39,75.72Z"/><path class="cls-7" d="M33.37,75.7c-.31-.12-.58-.23-.8-.34-.63-.3-.9-.56-.9-.9s.23-.7.91-.77h.31a4.7,4.7,0,0,1,2,.51l.43-1.61a5.2,5.2,0,0,0-2.06-.49V70.83h-1.4v1.35a2.64,2.64,0,0,0-2.43,2.51c0,1.38,1,2.11,2.54,2.63a5,5,0,0,1,.52.21c.68.29,1,.6,1,1s-.39.77-1,.84a2.74,2.74,0,0,1-.38,0,5,5,0,0,1-2.35-.65l-.44,1.66a5.77,5.77,0,0,0,2.41.64v1.35h1.4V81a2.72,2.72,0,0,0,2.55-2.6C35.73,77.1,35,76.33,33.37,75.7Z"/><path class="cls-8" d="M33.35,75.68c-.31-.12-.58-.23-.8-.34-.63-.3-.9-.56-.9-.9s.23-.7.91-.77h.31a4.7,4.7,0,0,1,2,.51l.43-1.61a5.2,5.2,0,0,0-2.06-.49V70.82h-1.4v1.35a2.64,2.64,0,0,0-2.43,2.51c0,1.38,1,2.11,2.54,2.63a5,5,0,0,1,.52.21c.68.29,1,.6,1,1s-.39.77-1,.84a2.74,2.74,0,0,1-.38,0,5,5,0,0,1-2.35-.65l-.44,1.66a5.77,5.77,0,0,0,2.41.64v1.35h1.4V81a2.72,2.72,0,0,0,2.55-2.6C35.71,77.08,35,76.31,33.35,75.68Z"/><path class="cls-9" d="M33.33,75.66c-.31-.12-.58-.23-.8-.34-.63-.3-.9-.56-.9-.9s.23-.7.91-.77h.31a4.7,4.7,0,0,1,2,.51l.43-1.61A5.2,5.2,0,0,0,33.28,72V70.8H31.9v1.35a2.64,2.64,0,0,0-2.43,2.51c0,1.38,1,2.11,2.54,2.63a5,5,0,0,1,.52.21c.68.29,1,.6,1,1s-.39.77-1,.84a2.74,2.74,0,0,1-.38,0,5,5,0,0,1-2.35-.65l-.44,1.66a5.77,5.77,0,0,0,2.41.64v1.35h1.4V80.95a2.72,2.72,0,0,0,2.55-2.6C35.69,77.06,35,76.29,33.33,75.66Z"/><path class="cls-10" d="M33.31,75.64c-.31-.12-.58-.23-.8-.34-.63-.3-.9-.56-.9-.9s.23-.7.91-.77h.31a4.7,4.7,0,0,1,2,.51l.43-1.61A5.2,5.2,0,0,0,33.26,72V70.78h-1.4v1.35a2.64,2.64,0,0,0-2.43,2.51c0,1.38,1,2.11,2.54,2.63a5,5,0,0,1,.52.21c.68.29,1,.6,1,1s-.39.77-1,.84a2.74,2.74,0,0,1-.38,0,5,5,0,0,1-2.35-.65l-.44,1.66a5.77,5.77,0,0,0,2.41.64v1.35h1.4V80.93a2.72,2.72,0,0,0,2.55-2.6C35.67,77,35,76.27,33.31,75.64Z"/><path class="cls-11" d="M33.29,75.63c-.31-.12-.58-.23-.8-.34-.63-.3-.9-.56-.9-.9s.23-.7.91-.77h.31a4.7,4.7,0,0,1,2,.51l.43-1.61A5.2,5.2,0,0,0,33.24,72V70.76h-1.4v1.35a2.64,2.64,0,0,0-2.43,2.51c0,1.38,1,2.11,2.54,2.63a5,5,0,0,1,.52.21c.68.29,1,.6,1,1s-.39.77-1,.84a2.74,2.74,0,0,1-.38,0,5,5,0,0,1-2.35-.65l-.44,1.66a5.77,5.77,0,0,0,2.41.64v1.35h1.4V80.91a2.72,2.72,0,0,0,2.55-2.6C35.65,77,35,76.25,33.29,75.63Z"/><path class="cls-12" d="M33.28,75.61c-.31-.12-.58-.23-.8-.34-.63-.3-.9-.56-.9-.9s.23-.7.91-.77h.31a4.7,4.7,0,0,1,2,.51l.43-1.61A5.2,5.2,0,0,0,33.23,72V70.74h-1.4v1.35a2.64,2.64,0,0,0-2.43,2.51c0,1.38,1,2.11,2.54,2.63a5,5,0,0,1,.52.21c.68.29,1,.6,1,1s-.39.77-1,.84a2.74,2.74,0,0,1-.38,0,5,5,0,0,1-2.35-.65l-.44,1.66a5.77,5.77,0,0,0,2.41.64v1.35h1.4V80.89a2.72,2.72,0,0,0,2.55-2.6C35.63,77,35,76.24,33.28,75.61Z"/><path class="cls-13" d="M33.26,75.59c-.31-.12-.58-.23-.8-.34-.63-.3-.9-.56-.9-.9s.23-.7.91-.77h.31a4.7,4.7,0,0,1,2,.51l.43-1.61A5.2,5.2,0,0,0,33.21,72V70.72h-1.4v1.35a2.64,2.64,0,0,0-2.43,2.51c0,1.38,1,2.11,2.54,2.63a5,5,0,0,1,.52.21c.68.29,1,.6,1,1s-.39.77-1,.84a2.74,2.74,0,0,1-.38,0,5,5,0,0,1-2.35-.65l-.44,1.66a5.77,5.77,0,0,0,2.41.64v1.35H33V80.88a2.72,2.72,0,0,0,2.55-2.6C35.61,77,34.94,76.22,33.26,75.59Z"/><path class="cls-14" d="M33.24,75.57c-.31-.12-.58-.23-.8-.34-.63-.3-.9-.56-.9-.9s.23-.7.91-.77h.31a4.7,4.7,0,0,1,2,.51l.43-1.61A5.21,5.21,0,0,0,33.19,72V70.7h-1.4V72a2.64,2.64,0,0,0-2.43,2.51c0,1.38,1,2.11,2.54,2.63a5,5,0,0,1,.52.21c.68.29,1,.6,1,1s-.39.77-1,.84a2.75,2.75,0,0,1-.38,0,5,5,0,0,1-2.35-.65l-.44,1.66a5.77,5.77,0,0,0,2.41.64V82.3H33V80.86a2.72,2.72,0,0,0,2.55-2.6C35.6,77,34.92,76.2,33.24,75.57Z"/><path class="cls-15" d="M33.22,75.55c-.31-.12-.58-.23-.8-.34-.63-.3-.9-.56-.9-.9s.23-.7.91-.77h.31a4.7,4.7,0,0,1,2,.51l.43-1.61a5.21,5.21,0,0,0-2.06-.49V70.69h-1.4V72a2.64,2.64,0,0,0-2.43,2.51c0,1.38,1,2.11,2.54,2.63a5,5,0,0,1,.52.21c.68.29,1,.6,1,1s-.39.77-1,.84a2.75,2.75,0,0,1-.38,0,5,5,0,0,1-2.35-.65l-.44,1.66a5.77,5.77,0,0,0,2.41.64v1.35H33V80.84a2.72,2.72,0,0,0,2.55-2.6C35.58,77,34.9,76.18,33.22,75.55Z"/><path class="cls-16" d="M33.2,75.53c-.31-.12-.58-.23-.8-.34-.63-.3-.9-.56-.9-.9s.23-.7.91-.77h.31a4.7,4.7,0,0,1,2,.51l.43-1.61a5.21,5.21,0,0,0-2.06-.49V70.67h-1.4V72a2.64,2.64,0,0,0-2.43,2.51c0,1.38,1,2.11,2.54,2.63a5,5,0,0,1,.52.21c.68.29,1,.6,1,1s-.39.77-1,.84a2.75,2.75,0,0,1-.38,0,5,5,0,0,1-2.35-.65l-.44,1.66a5.76,5.76,0,0,0,2.41.64v1.35H33V80.82a2.72,2.72,0,0,0,2.55-2.6C35.56,76.93,34.88,76.16,33.2,75.53Z"/><path class="cls-17" d="M33.18,75.51c-.31-.12-.58-.23-.8-.34-.63-.3-.9-.56-.9-.9s.23-.7.91-.77h.31a4.7,4.7,0,0,1,2,.51l.43-1.61a5.21,5.21,0,0,0-2.06-.49V70.65h-1.4V72a2.64,2.64,0,0,0-2.43,2.51c0,1.38,1,2.11,2.54,2.63a5,5,0,0,1,.52.21c.68.29,1,.6,1,1s-.39.77-1,.84a2.75,2.75,0,0,1-.38,0,5,5,0,0,1-2.35-.65l-.44,1.66a5.76,5.76,0,0,0,2.41.64v1.35H33V80.8a2.72,2.72,0,0,0,2.55-2.6C35.54,76.92,34.86,76.14,33.18,75.51Z"/><path class="cls-18" d="M33.16,75.5c-.31-.12-.58-.23-.8-.34-.63-.3-.9-.56-.9-.9s.23-.7.91-.77h.31a4.7,4.7,0,0,1,2,.51l.43-1.61a5.21,5.21,0,0,0-2.06-.49V70.63h-1.4V72a2.64,2.64,0,0,0-2.43,2.51c0,1.38,1,2.11,2.54,2.63a5,5,0,0,1,.52.21c.68.29,1,.6,1,1s-.39.77-1,.84a2.75,2.75,0,0,1-.38,0,5,5,0,0,1-2.35-.65l-.44,1.66a5.76,5.76,0,0,0,2.41.64v1.35h1.4V80.78a2.72,2.72,0,0,0,2.56-2.6C35.52,76.9,34.84,76.12,33.16,75.5Z"/><path class="cls-19" d="M33.15,75.48c-.31-.12-.58-.23-.8-.34-.63-.3-.9-.56-.9-.9s.23-.69.91-.77h.31a4.7,4.7,0,0,1,2,.51l.43-1.61a5.21,5.21,0,0,0-2.06-.49V70.61h-1.4v1.35a2.64,2.64,0,0,0-2.43,2.51c0,1.38,1,2.11,2.54,2.63a5,5,0,0,1,.52.21c.68.29,1,.6,1,1s-.39.77-1,.84a2.75,2.75,0,0,1-.38,0,5,5,0,0,1-2.35-.65l-.44,1.66a5.76,5.76,0,0,0,2.41.64V82.2h1.4V80.76a2.72,2.72,0,0,0,2.56-2.6C35.5,76.88,34.83,76.11,33.15,75.48Z"/><path class="cls-20" d="M33.13,75.46c-.31-.12-.58-.23-.8-.34-.63-.3-.9-.56-.9-.9s.23-.69.91-.77h.31a4.7,4.7,0,0,1,2,.51l.43-1.61a5.21,5.21,0,0,0-2.06-.49V70.59H31.7v1.35a2.64,2.64,0,0,0-2.43,2.51c0,1.38,1,2.11,2.54,2.63a5,5,0,0,1,.52.21c.68.29,1,.6,1,1s-.39.77-1,.84a2.75,2.75,0,0,1-.38,0,5,5,0,0,1-2.35-.65l-.44,1.66a5.76,5.76,0,0,0,2.41.64v1.35h1.4V80.75a2.72,2.72,0,0,0,2.56-2.6C35.48,76.86,34.81,76.09,33.13,75.46Z"/><path class="cls-21" d="M33.11,75.44c-.31-.12-.58-.23-.8-.34-.63-.3-.9-.56-.9-.9s.23-.69.91-.77h.31a4.7,4.7,0,0,1,2,.51l.43-1.61a5.21,5.21,0,0,0-2.06-.49V70.57h-1.4v1.35a2.64,2.64,0,0,0-2.43,2.51c0,1.38,1,2.11,2.54,2.63a5,5,0,0,1,.52.21c.68.29,1,.6,1,1s-.39.77-1,.84a2.75,2.75,0,0,1-.38,0,5,5,0,0,1-2.35-.65l-.44,1.66a5.76,5.76,0,0,0,2.41.64v1.35h1.4V80.73a2.72,2.72,0,0,0,2.56-2.6C35.47,76.84,34.79,76.07,33.11,75.44Z"/><path class="cls-22" d="M33.09,75.42c-.31-.12-.58-.23-.8-.34-.63-.3-.9-.56-.9-.9s.23-.69.91-.77h.31a4.7,4.7,0,0,1,2,.51l.43-1.61A5.21,5.21,0,0,0,33,71.81V70.56h-1.4v1.35a2.64,2.64,0,0,0-2.43,2.51c0,1.38,1,2.11,2.54,2.63a5,5,0,0,1,.52.21c.68.29,1,.6,1,1s-.39.77-1,.84a2.75,2.75,0,0,1-.38,0,5,5,0,0,1-2.35-.65l-.44,1.66a5.76,5.76,0,0,0,2.41.64v1.35h1.4V80.71a2.72,2.72,0,0,0,2.56-2.6C35.45,76.82,34.77,76.05,33.09,75.42Z"/><path class="cls-23" d="M33.07,75.4c-.31-.12-.58-.23-.8-.34-.63-.3-.9-.56-.9-.9s.23-.69.91-.77h.31a4.7,4.7,0,0,1,2,.51l.43-1.61A5.21,5.21,0,0,0,33,71.79V70.54h-1.4v1.35a2.64,2.64,0,0,0-2.43,2.51c0,1.38,1,2.11,2.54,2.63a5,5,0,0,1,.52.21c.68.29,1,.6,1,1s-.39.77-1,.84a2.75,2.75,0,0,1-.38,0,5,5,0,0,1-2.35-.65l-.44,1.66a5.76,5.76,0,0,0,2.41.64v1.35h1.4V80.69a2.72,2.72,0,0,0,2.56-2.6C35.43,76.8,34.75,76,33.07,75.4Z"/><path class="cls-24" d="M33.05,75.38c-.31-.12-.58-.23-.8-.34-.63-.3-.9-.56-.9-.9s.23-.69.91-.77h.31a4.7,4.7,0,0,1,2,.51l.43-1.61A5.21,5.21,0,0,0,33,71.77V70.52h-1.4v1.35a2.64,2.64,0,0,0-2.43,2.51c0,1.38,1,2.11,2.54,2.63a5,5,0,0,1,.52.21c.68.29,1,.6,1,1s-.39.77-1,.84a2.75,2.75,0,0,1-.38,0,5,5,0,0,1-2.35-.65L29,80.12a5.76,5.76,0,0,0,2.41.64v1.35h1.4V80.67a2.72,2.72,0,0,0,2.56-2.6C35.41,76.79,34.73,76,33.05,75.38Z"/><path class="cls-25" d="M33,75.37c-.31-.12-.58-.23-.8-.34-.63-.3-.9-.56-.9-.9s.23-.69.91-.77h.31a4.7,4.7,0,0,1,2,.51L35,72.24A5.21,5.21,0,0,0,33,71.75V70.5H31.6v1.35a2.64,2.64,0,0,0-2.43,2.51c0,1.38,1,2.11,2.54,2.63a5,5,0,0,1,.52.21c.68.29,1,.6,1,1s-.39.77-1,.84a2.75,2.75,0,0,1-.38,0,5,5,0,0,1-2.35-.65L29,80.1a5.76,5.76,0,0,0,2.41.64v1.35h1.4V80.65a2.72,2.72,0,0,0,2.56-2.6C35.39,76.77,34.72,76,33,75.37Z"/><path class="cls-26" d="M33,75.35c-.31-.12-.58-.23-.8-.34-.63-.3-.9-.56-.9-.9s.23-.69.91-.77h.31a4.7,4.7,0,0,1,2,.51L35,72.22A5.21,5.21,0,0,0,33,71.73V70.48h-1.4v1.35a2.64,2.64,0,0,0-2.43,2.51c0,1.38,1,2.11,2.54,2.63a5,5,0,0,1,.52.21c.68.29,1,.6,1,1s-.39.77-1,.84a2.75,2.75,0,0,1-.38,0,5,5,0,0,1-2.35-.65L29,80.08a5.76,5.76,0,0,0,2.41.64v1.35h1.4V80.63A2.72,2.72,0,0,0,35.36,78C35.37,76.75,34.7,76,33,75.35Z"/><path class="cls-27" d="M33,75.33c-.31-.12-.58-.23-.8-.34-.63-.3-.9-.56-.9-.9s.23-.69.91-.77h.31a4.7,4.7,0,0,1,2,.51L35,72.21a5.21,5.21,0,0,0-2.06-.49V70.46h-1.4V71.8a2.64,2.64,0,0,0-2.43,2.51c0,1.38,1,2.11,2.54,2.63a5,5,0,0,1,.52.21c.68.29,1,.6,1,1s-.39.77-1,.84a2.76,2.76,0,0,1-.38,0,5,5,0,0,1-2.35-.65L29,80.06a5.76,5.76,0,0,0,2.41.64v1.35h1.4V80.62A2.72,2.72,0,0,0,35.34,78C35.35,76.73,34.68,76,33,75.33Z"/><path class="cls-28" d="M33,75.31c-.31-.12-.58-.23-.8-.34-.63-.3-.9-.56-.9-.9s.23-.69.91-.77h.31a4.7,4.7,0,0,1,2,.51L35,72.19a5.21,5.21,0,0,0-2.06-.49V70.45h-1.4v1.35a2.64,2.64,0,0,0-2.43,2.51c0,1.38,1,2.11,2.54,2.63a5,5,0,0,1,.52.21c.68.29,1,.6,1,1s-.39.77-1,.84a2.76,2.76,0,0,1-.38,0,5,5,0,0,1-2.35-.65L29,80a5.76,5.76,0,0,0,2.41.64V82h1.4V80.6A2.72,2.72,0,0,0,35.32,78C35.34,76.71,34.66,75.94,33,75.31Z"/><path class="cls-29" d="M33,75.29c-.31-.12-.58-.23-.8-.34-.63-.3-.9-.56-.9-.9s.23-.69.91-.77h.31a4.7,4.7,0,0,1,2,.51L35,72.17a5.21,5.21,0,0,0-2.06-.49V70.43h-1.4v1.35a2.64,2.64,0,0,0-2.43,2.51c0,1.38,1,2.11,2.54,2.63a5,5,0,0,1,.52.21c.68.29,1,.6,1,1s-.39.77-1,.84a2.76,2.76,0,0,1-.38,0,5,5,0,0,1-2.35-.65L28.94,80a5.76,5.76,0,0,0,2.41.64V82h1.4V80.58A2.72,2.72,0,0,0,35.3,78C35.32,76.69,34.64,75.92,33,75.29Z"/><path class="cls-30" d="M32.94,75.27c-.31-.12-.58-.23-.8-.34-.63-.3-.9-.56-.9-.9s.23-.69.91-.77h.31a4.7,4.7,0,0,1,2,.51L35,72.15a5.21,5.21,0,0,0-2.06-.49V70.41h-1.4v1.35a2.64,2.64,0,0,0-2.43,2.51c0,1.38,1,2.11,2.54,2.63a5,5,0,0,1,.52.21c.68.29,1,.6,1,1s-.39.77-1,.84a2.76,2.76,0,0,1-.38,0,5,5,0,0,1-2.35-.65L28.92,80a5.76,5.76,0,0,0,2.41.64V82h1.4V80.56A2.72,2.72,0,0,0,35.29,78C35.3,76.67,34.62,75.9,32.94,75.27Z"/><path class="cls-31" d="M32.92,75.25c-.31-.12-.58-.23-.8-.34-.63-.3-.9-.56-.9-.9s.23-.69.91-.77h.31a4.7,4.7,0,0,1,2,.51l.43-1.61a5.21,5.21,0,0,0-2.06-.49V70.39h-1.4v1.35A2.64,2.64,0,0,0,29,74.23c0,1.38,1,2.11,2.54,2.63a5,5,0,0,1,.52.21c.68.29,1,.6,1,1s-.39.77-1,.84a2.76,2.76,0,0,1-.38,0,5,5,0,0,1-2.35-.65L28.91,80a5.76,5.76,0,0,0,2.41.64V82h1.4V80.54a2.72,2.72,0,0,0,2.56-2.6C35.28,76.66,34.6,75.88,32.92,75.25Z"/><path class="cls-32" d="M32.91,75.24c-.31-.12-.58-.23-.8-.34-.63-.3-.9-.56-.9-.9s.23-.69.91-.77h.31a4.7,4.7,0,0,1,2,.51l.43-1.61a5.21,5.21,0,0,0-2.06-.49V70.37h-1.4V71.7A2.64,2.64,0,0,0,29,74.21c0,1.38,1,2.11,2.54,2.63a5,5,0,0,1,.52.21c.68.29,1,.6,1,1s-.39.77-1,.84a2.76,2.76,0,0,1-.38,0,5,5,0,0,1-2.35-.65L28.89,80a5.76,5.76,0,0,0,2.41.64V82h1.4V80.52a2.72,2.72,0,0,0,2.56-2.6C35.26,76.64,34.59,75.86,32.91,75.24Z"/><path class="cls-33" d="M32.89,75.22c-.31-.12-.58-.23-.8-.34-.63-.3-.9-.56-.9-.9s.23-.69.91-.77h.31a4.7,4.7,0,0,1,2,.51l.43-1.61a5.21,5.21,0,0,0-2.06-.49V70.35h-1.4v1.35A2.64,2.64,0,0,0,29,74.2c0,1.38,1,2.11,2.54,2.63a5,5,0,0,1,.52.21c.68.29,1,.6,1,1s-.39.77-1,.84a2.76,2.76,0,0,1-.38,0,5,5,0,0,1-2.35-.65L28.87,80a5.76,5.76,0,0,0,2.41.64v1.35h1.4V80.5a2.72,2.72,0,0,0,2.56-2.6C35.24,76.62,34.57,75.85,32.89,75.22Z"/><path class="cls-34" d="M32.87,75.2c-.31-.12-.58-.23-.8-.34-.63-.3-.9-.56-.9-.9s.23-.69.91-.77h.31a4.7,4.7,0,0,1,2,.51l.43-1.61a5.21,5.21,0,0,0-2.06-.49V70.33h-1.4v1.35A2.64,2.64,0,0,0,29,74.18c0,1.38,1,2.11,2.54,2.63A5,5,0,0,1,32,77c.68.29,1,.6,1,1s-.39.77-1,.84a2.76,2.76,0,0,1-.38,0,5,5,0,0,1-2.35-.65l-.44,1.66a5.76,5.76,0,0,0,2.41.64v1.35h1.4V80.49a2.72,2.72,0,0,0,2.56-2.6C35.23,76.6,34.55,75.83,32.87,75.2Z"/><path class="cls-35" d="M32.85,75.18c-.31-.12-.58-.23-.8-.34-.63-.3-.9-.56-.9-.9s.23-.69.91-.77h.31a4.7,4.7,0,0,1,2,.51l.43-1.61a5.21,5.21,0,0,0-2.06-.49V70.32h-1.4v1.35A2.64,2.64,0,0,0,29,74.16c0,1.38,1,2.11,2.54,2.63A5,5,0,0,1,32,77c.68.29,1,.6,1,1s-.39.77-1,.84a2.76,2.76,0,0,1-.38,0,5,5,0,0,1-2.35-.65l-.44,1.66a5.76,5.76,0,0,0,2.41.64v1.35h1.4V80.47a2.72,2.72,0,0,0,2.56-2.6C35.21,76.58,34.53,75.81,32.85,75.18Z"/><path class="cls-36" d="M32.83,75.16c-.31-.12-.58-.23-.8-.34-.63-.3-.9-.56-.9-.9s.23-.69.91-.77h.31a4.7,4.7,0,0,1,2,.51L34.84,72a5.21,5.21,0,0,0-2.06-.49V70.3H31.4v1.35A2.64,2.64,0,0,0,29,74.14c0,1.38,1,2.11,2.54,2.63A5,5,0,0,1,32,77c.68.29,1,.6,1,1s-.39.77-1,.84a2.76,2.76,0,0,1-.38,0,5,5,0,0,1-2.35-.65l-.44,1.66a5.76,5.76,0,0,0,2.41.64v1.35h1.4V80.45a2.72,2.72,0,0,0,2.56-2.6C35.19,76.56,34.51,75.79,32.83,75.16Z"/><path class="cls-37" d="M32.81,75.14c-.31-.12-.58-.23-.8-.34-.63-.3-.9-.56-.9-.9s.23-.69.91-.77h.31a4.7,4.7,0,0,1,2,.51L34.82,72a5.21,5.21,0,0,0-2.06-.49V70.28h-1.4v1.35a2.64,2.64,0,0,0-2.43,2.51c0,1.38,1,2.11,2.54,2.63A5,5,0,0,1,32,77c.68.29,1,.6,1,1s-.39.77-1,.84a2.76,2.76,0,0,1-.38,0,5,5,0,0,1-2.35-.65l-.44,1.66a5.76,5.76,0,0,0,2.41.64v1.35h1.4V80.43a2.72,2.72,0,0,0,2.56-2.6C35.17,76.54,34.49,75.77,32.81,75.14Z"/><path class="cls-38" d="M32.79,75.12c-.31-.12-.58-.23-.8-.34-.63-.3-.9-.56-.9-.9s.23-.69.91-.77h.31a4.7,4.7,0,0,1,2,.51L34.8,72a5.21,5.21,0,0,0-2.06-.49V70.26h-1.4v1.35a2.64,2.64,0,0,0-2.43,2.51c0,1.38,1,2.11,2.54,2.63a5,5,0,0,1,.52.21c.68.29,1,.6,1,1s-.39.77-1,.84a2.76,2.76,0,0,1-.38,0,5,5,0,0,1-2.35-.65l-.44,1.66a5.76,5.76,0,0,0,2.41.64v1.35h1.4V80.41a2.72,2.72,0,0,0,2.56-2.6C35.15,76.53,34.47,75.75,32.79,75.12Z"/><path class="cls-39" d="M32.78,75.11c-.31-.12-.58-.23-.8-.34-.63-.3-.9-.56-.9-.9s.23-.69.91-.77h.31a4.7,4.7,0,0,1,2,.51L34.78,72a5.21,5.21,0,0,0-2.06-.49V70.24h-1.4v1.35a2.64,2.64,0,0,0-2.43,2.51c0,1.38,1,2.11,2.54,2.63a5,5,0,0,1,.52.21c.68.29,1,.6,1,1s-.39.77-1,.84a2.77,2.77,0,0,1-.38,0,5,5,0,0,1-2.35-.65l-.44,1.66a5.76,5.76,0,0,0,2.41.64v1.35h1.4V80.39a2.72,2.72,0,0,0,2.56-2.6C35.13,76.51,34.46,75.73,32.78,75.11Z"/><path class="cls-40" d="M32.76,75.09c-.31-.12-.58-.23-.8-.34-.63-.3-.9-.56-.9-.9s.23-.69.91-.77h.31a4.7,4.7,0,0,1,2,.51L34.76,72a5.21,5.21,0,0,0-2.06-.49V70.22h-1.4v1.35a2.64,2.64,0,0,0-2.43,2.51c0,1.38,1,2.11,2.54,2.63a5,5,0,0,1,.52.21c.68.29,1,.6,1,1s-.39.77-1,.84a2.77,2.77,0,0,1-.38,0,5,5,0,0,1-2.35-.65l-.44,1.66a5.76,5.76,0,0,0,2.41.64v1.35h1.4V80.37a2.72,2.72,0,0,0,2.56-2.6C35.11,76.49,34.44,75.72,32.76,75.09Z"/><path class="cls-41" d="M32.74,75.07c-.31-.12-.58-.23-.8-.34-.63-.3-.9-.56-.9-.9s.23-.69.91-.77h.31a4.7,4.7,0,0,1,2,.51l.43-1.61a5.21,5.21,0,0,0-2.06-.49V70.2h-1.4v1.35A2.64,2.64,0,0,0,28.86,74c0,1.38,1,2.11,2.54,2.63a5,5,0,0,1,.52.21c.68.29,1,.6,1,1s-.39.77-1,.84a2.77,2.77,0,0,1-.38,0,5,5,0,0,1-2.35-.65l-.44,1.66a5.76,5.76,0,0,0,2.41.64v1.35h1.4V80.36a2.72,2.72,0,0,0,2.56-2.6C35.1,76.47,34.42,75.7,32.74,75.07Z"/><path class="cls-42" d="M32.72,75.05c-.31-.12-.58-.23-.8-.34-.63-.3-.9-.56-.9-.9s.23-.69.91-.77h.31a4.7,4.7,0,0,1,2,.51l.43-1.61a5.21,5.21,0,0,0-2.06-.49V70.19h-1.4v1.35A2.64,2.64,0,0,0,28.84,74c0,1.38,1,2.11,2.54,2.63a5,5,0,0,1,.52.21c.68.29,1,.6,1,1s-.39.77-1,.84a2.77,2.77,0,0,1-.38,0,5,5,0,0,1-2.35-.65l-.44,1.66a5.76,5.76,0,0,0,2.41.64v1.35h1.4V80.34a2.72,2.72,0,0,0,2.56-2.6C35.08,76.45,34.4,75.68,32.72,75.05Z"/><path class="cls-43" d="M32.7,75c-.31-.12-.58-.23-.8-.34-.63-.3-.9-.56-.9-.9s.23-.69.91-.77h.31a4.7,4.7,0,0,1,2,.51l.43-1.61a5.21,5.21,0,0,0-2.06-.49V70.17h-1.4V71.5A2.64,2.64,0,0,0,28.82,74c0,1.38,1,2.11,2.54,2.63a5,5,0,0,1,.52.21c.68.29,1,.6,1,1s-.39.77-1,.84a2.77,2.77,0,0,1-.38,0,5,5,0,0,1-2.35-.65l-.44,1.66a5.76,5.76,0,0,0,2.41.64v1.35h1.4V80.32A2.72,2.72,0,0,0,35,77.72C35.06,76.43,34.38,75.66,32.7,75Z"/><path class="cls-44" d="M32.68,75c-.31-.12-.58-.23-.8-.34-.63-.3-.9-.56-.9-.9s.23-.69.91-.77h.31a4.7,4.7,0,0,1,2,.51l.43-1.61a5.21,5.21,0,0,0-2.06-.49V70.15h-1.4v1.35A2.64,2.64,0,0,0,28.8,74c0,1.38,1,2.11,2.54,2.63a5,5,0,0,1,.52.21c.68.29,1,.6,1,1s-.39.77-1,.84a2.77,2.77,0,0,1-.38,0,5,5,0,0,1-2.35-.65l-.44,1.66a5.76,5.76,0,0,0,2.41.64v1.35h1.4V80.3A2.72,2.72,0,0,0,35,77.7C35,76.42,34.36,75.64,32.68,75Z"/><path class="cls-45" d="M32.66,75c-.31-.12-.58-.23-.8-.34-.63-.3-.9-.56-.9-.9s.23-.69.91-.77h.31a4.7,4.7,0,0,1,2,.51l.43-1.61a5.21,5.21,0,0,0-2.06-.49V70.13h-1.4v1.35A2.64,2.64,0,0,0,28.79,74c0,1.38,1,2.11,2.54,2.63a5,5,0,0,1,.52.21c.68.29,1,.6,1,1s-.39.77-1,.84a2.77,2.77,0,0,1-.38,0,5,5,0,0,1-2.35-.65l-.44,1.66a5.76,5.76,0,0,0,2.41.64v1.35h1.4V80.28A2.72,2.72,0,0,0,35,77.68C35,76.4,34.34,75.62,32.66,75Z"/><path class="cls-46" d="M32.65,75c-.31-.12-.58-.23-.8-.34-.63-.3-.9-.56-.9-.9s.23-.69.91-.77h.31a4.7,4.7,0,0,1,2,.51l.43-1.61a5.21,5.21,0,0,0-2.06-.49V70.11H31.21v1.35A2.64,2.64,0,0,0,28.77,74c0,1.38,1,2.11,2.54,2.63a5,5,0,0,1,.52.21c.68.29,1,.6,1,1s-.39.77-1,.84a2.77,2.77,0,0,1-.38,0,5,5,0,0,1-2.35-.65l-.44,1.66a5.76,5.76,0,0,0,2.41.64V81.7h1.39V80.26A2.72,2.72,0,0,0,35,77.66C35,76.38,34.33,75.6,32.65,75Z"/><path class="cls-47" d="M32.63,75c-.31-.12-.58-.23-.8-.34-.63-.3-.9-.56-.9-.9s.23-.69.91-.77h.31a4.7,4.7,0,0,1,2,.51l.43-1.61a5.21,5.21,0,0,0-2.06-.49V70.09H31.19v1.35a2.64,2.64,0,0,0-2.43,2.51c0,1.38,1,2.11,2.54,2.63a5,5,0,0,1,.52.21c.68.29,1,.6,1,1s-.39.77-1,.84a2.77,2.77,0,0,1-.38,0A5,5,0,0,1,29,78l-.44,1.66a5.76,5.76,0,0,0,2.41.64v1.35H32.4V80.24A2.72,2.72,0,0,0,35,77.64C35,76.36,34.31,75.59,32.63,75Z"/><path class="cls-48" d="M32.61,74.94c-.31-.12-.58-.23-.8-.34-.63-.3-.9-.56-.9-.9s.23-.69.91-.77h.31a4.7,4.7,0,0,1,2,.51l.43-1.61a5.21,5.21,0,0,0-2.06-.49V70.07H31.18v1.35a2.64,2.64,0,0,0-2.43,2.51c0,1.38,1,2.11,2.54,2.63a5,5,0,0,1,.52.21c.68.29,1,.6,1,1s-.39.77-1,.84a2.77,2.77,0,0,1-.38,0A5,5,0,0,1,29,78l-.44,1.66a5.76,5.76,0,0,0,2.41.64v1.35h1.39V80.23A2.72,2.72,0,0,0,35,77.63C35,76.34,34.29,75.57,32.61,74.94Z"/><path class="cls-49" d="M32.59,74.92c-.31-.12-.58-.23-.8-.34-.63-.3-.9-.56-.9-.9s.23-.69.91-.77h.31a4.7,4.7,0,0,1,2,.51l.43-1.61a5.21,5.21,0,0,0-2.06-.49V70.06H31.16v1.35a2.64,2.64,0,0,0-2.43,2.51c0,1.38,1,2.11,2.54,2.63a5,5,0,0,1,.52.21c.68.29,1,.6,1,1s-.39.77-1,.84a2.77,2.77,0,0,1-.38,0A5,5,0,0,1,29,78l-.44,1.66A5.76,5.76,0,0,0,31,80.3v1.35h1.39V80.21a2.72,2.72,0,0,0,2.56-2.6C34.95,76.32,34.27,75.55,32.59,74.92Z"/><path class="cls-50" d="M32.57,74.9c-.31-.12-.58-.23-.8-.34-.63-.3-.9-.56-.9-.9s.23-.69.91-.77h.31a4.7,4.7,0,0,1,2,.51l.43-1.61a5.21,5.21,0,0,0-2.06-.49V70H31.14v1.35a2.64,2.64,0,0,0-2.43,2.51c0,1.38,1,2.11,2.54,2.63a5,5,0,0,1,.52.21c.68.29,1,.6,1,1s-.39.77-1,.84a2.77,2.77,0,0,1-.38,0A5,5,0,0,1,29,78l-.44,1.66a5.76,5.76,0,0,0,2.41.64v1.35h1.39V80.19a2.72,2.72,0,0,0,2.56-2.6C34.93,76.3,34.25,75.53,32.57,74.9Z"/><path class="cls-51" d="M32.55,74.88c-.31-.12-.58-.23-.8-.34-.63-.3-.9-.56-.9-.9s.23-.69.91-.77h.31a4.7,4.7,0,0,1,2,.51l.43-1.61a5.21,5.21,0,0,0-2.06-.49V70H31.12v1.35a2.64,2.64,0,0,0-2.43,2.51c0,1.38,1,2.11,2.54,2.63a5,5,0,0,1,.52.21c.68.29,1,.6,1,1s-.39.77-1,.84a2.78,2.78,0,0,1-.38,0A5,5,0,0,1,29,78l-.44,1.66a5.76,5.76,0,0,0,2.41.64v1.35h1.39V80.17a2.72,2.72,0,0,0,2.56-2.6C34.91,76.29,34.23,75.51,32.55,74.88Z"/><path class="cls-52" d="M32.53,74.86c-.31-.12-.58-.23-.8-.34-.63-.3-.9-.56-.9-.9s.23-.69.91-.77h.31a4.7,4.7,0,0,1,2,.51l.43-1.61a5.21,5.21,0,0,0-2.06-.49V70H31.1v1.35a2.64,2.64,0,0,0-2.43,2.51c0,1.38,1,2.11,2.54,2.63a5,5,0,0,1,.52.21c.68.29,1,.6,1,1s-.39.77-1,.84a2.78,2.78,0,0,1-.38,0A5,5,0,0,1,29,77.94l-.44,1.66a5.76,5.76,0,0,0,2.41.64v1.35h1.39V80.15a2.72,2.72,0,0,0,2.56-2.6C34.89,76.27,34.21,75.49,32.53,74.86Z"/><path class="cls-53" d="M32.52,74.85c-.31-.12-.58-.23-.8-.34-.63-.3-.9-.56-.9-.9s.23-.69.91-.77H32a4.7,4.7,0,0,1,2,.51l.43-1.61a5.21,5.21,0,0,0-2.06-.49V70H31.08v1.35a2.64,2.64,0,0,0-2.43,2.51c0,1.38,1,2.11,2.54,2.63a5,5,0,0,1,.52.21c.68.29,1,.6,1,1s-.39.77-1,.84a2.78,2.78,0,0,1-.38,0,5,5,0,0,1-2.35-.65l-.44,1.66a5.76,5.76,0,0,0,2.41.64v1.35h1.39V80.13a2.72,2.72,0,0,0,2.56-2.6C34.87,76.25,34.2,75.47,32.52,74.85Z"/><path class="cls-54" d="M32.5,74.83c-.31-.12-.58-.23-.8-.34-.63-.3-.9-.56-.9-.9s.23-.69.91-.77H32a4.7,4.7,0,0,1,2,.51l.43-1.61a5.21,5.21,0,0,0-2.06-.49V70H31.06V71.3a2.64,2.64,0,0,0-2.43,2.51c0,1.38,1,2.11,2.54,2.63a5,5,0,0,1,.52.21c.68.29,1,.6,1,1s-.39.77-1,.84a2.78,2.78,0,0,1-.38,0,5,5,0,0,1-2.35-.65l-.44,1.66a5.76,5.76,0,0,0,2.41.64v1.35h1.39V80.11a2.72,2.72,0,0,0,2.56-2.6C34.85,76.23,34.18,75.46,32.5,74.83Z"/><path class="cls-55" d="M32.48,74.81c-.31-.12-.58-.23-.8-.34-.63-.3-.9-.56-.9-.9s.23-.69.91-.77H32a4.7,4.7,0,0,1,2,.51l.43-1.61a5.21,5.21,0,0,0-2.06-.49V69.94H31v1.35a2.64,2.64,0,0,0-2.43,2.51c0,1.38,1,2.11,2.54,2.63a5,5,0,0,1,.52.21c.68.29,1,.6,1,1s-.39.77-1,.84a2.78,2.78,0,0,1-.38,0,5,5,0,0,1-2.35-.65l-.44,1.66a5.76,5.76,0,0,0,2.41.64v1.35h1.39V80.1a2.72,2.72,0,0,0,2.56-2.6C34.84,76.21,34.16,75.44,32.48,74.81Z"/><path class="cls-56" d="M32.46,74.79c-.31-.12-.58-.23-.8-.34-.63-.3-.9-.56-.9-.9s.23-.69.91-.77H32a4.7,4.7,0,0,1,2,.51l.43-1.61a5.21,5.21,0,0,0-2.06-.49V69.93H31v1.35a2.64,2.64,0,0,0-2.43,2.51c0,1.38,1,2.11,2.54,2.63a5,5,0,0,1,.52.21c.68.29,1,.6,1,1s-.39.77-1,.84a2.78,2.78,0,0,1-.38,0,5,5,0,0,1-2.35-.65l-.44,1.66a5.76,5.76,0,0,0,2.41.64v1.35h1.39V80.08a2.72,2.72,0,0,0,2.56-2.6C34.82,76.19,34.14,75.42,32.46,74.79Z"/><path class="cls-57" d="M32.44,74.77c-.31-.12-.58-.23-.8-.34-.63-.3-.9-.56-.9-.9s.23-.69.91-.77H32a4.7,4.7,0,0,1,2,.51l.43-1.61a5.21,5.21,0,0,0-2.06-.49V69.91H31v1.35a2.64,2.64,0,0,0-2.43,2.51c0,1.38,1,2.11,2.54,2.63a5,5,0,0,1,.52.21c.68.29,1,.6,1,1s-.39.77-1,.84a2.78,2.78,0,0,1-.38,0,5,5,0,0,1-2.35-.65l-.44,1.66a5.76,5.76,0,0,0,2.41.64V81.5h1.39V80.06a2.72,2.72,0,0,0,2.56-2.6C34.8,76.17,34.12,75.4,32.44,74.77Z"/><path class="cls-58" d="M32.42,74.75c-.31-.12-.58-.23-.8-.34-.63-.3-.9-.56-.9-.9s.23-.69.91-.77H32a4.7,4.7,0,0,1,2,.51l.43-1.61a5.21,5.21,0,0,0-2.06-.49V69.89H31v1.35a2.64,2.64,0,0,0-2.43,2.51c0,1.38,1,2.11,2.54,2.63a5,5,0,0,1,.52.21c.68.29,1,.6,1,1s-.39.77-1,.84a2.78,2.78,0,0,1-.38,0,5,5,0,0,1-2.35-.65l-.44,1.66a5.76,5.76,0,0,0,2.41.64v1.35H32.2V80a2.72,2.72,0,0,0,2.56-2.6C34.78,76.16,34.1,75.38,32.42,74.75Z"/><path class="cls-59" d="M32.4,74.73c-.31-.12-.58-.23-.8-.34-.63-.3-.9-.56-.9-.9s.23-.69.91-.77h.31a4.7,4.7,0,0,1,2,.51l.43-1.61a5.21,5.21,0,0,0-2.06-.49V69.87H31V71.2a2.64,2.64,0,0,0-2.43,2.51c0,1.38,1,2.11,2.54,2.63a5,5,0,0,1,.52.21c.68.29,1,.6,1,1s-.39.77-1,.84a2.78,2.78,0,0,1-.38,0,5,5,0,0,1-2.35-.65l-.44,1.66a5.76,5.76,0,0,0,2.41.64v1.35h1.39V80a2.72,2.72,0,0,0,2.56-2.6C34.76,76.14,34.08,75.36,32.4,74.73Z"/><path class="cls-60" d="M32.39,74.72c-.31-.12-.58-.23-.8-.34-.63-.3-.9-.56-.9-.9s.23-.69.91-.77h.31a4.7,4.7,0,0,1,2,.51l.43-1.61a5.21,5.21,0,0,0-2.06-.49V69.85H31v1.35a2.64,2.64,0,0,0-2.43,2.51c0,1.38,1,2.11,2.54,2.63a5,5,0,0,1,.52.21c.68.29,1,.6,1,1s-.39.77-1,.84a2.78,2.78,0,0,1-.38,0,5,5,0,0,1-2.35-.65l-.44,1.66a5.76,5.76,0,0,0,2.41.64v1.35h1.39V80a2.72,2.72,0,0,0,2.56-2.6C34.74,76.12,34.07,75.34,32.39,74.72Z"/><path class="cls-61" d="M32.37,74.7c-.31-.12-.58-.23-.8-.34-.63-.3-.9-.56-.9-.9s.23-.69.91-.77h.31a4.7,4.7,0,0,1,2,.51l.43-1.61a5.21,5.21,0,0,0-2.06-.49V69.83H30.94v1.35a2.64,2.64,0,0,0-2.43,2.51c0,1.38,1,2.11,2.54,2.63a5,5,0,0,1,.52.21c.68.29,1,.6,1,1s-.39.77-1,.84a2.78,2.78,0,0,1-.38,0,5,5,0,0,1-2.35-.65l-.44,1.66a5.76,5.76,0,0,0,2.41.64v1.35h1.39V80a2.72,2.72,0,0,0,2.56-2.6C34.72,76.1,34,75.33,32.37,74.7Z"/><path class="cls-62" d="M32.35,74.68c-.31-.12-.58-.23-.8-.34-.63-.3-.9-.56-.9-.9s.23-.69.91-.77h.31a4.7,4.7,0,0,1,2,.51l.43-1.61a5.21,5.21,0,0,0-2.06-.49V69.81H30.92v1.35a2.64,2.64,0,0,0-2.43,2.51c0,1.38,1,2.11,2.54,2.63a5,5,0,0,1,.52.21c.68.29,1,.6,1,1s-.39.77-1,.84l-.38,0a5,5,0,0,1-2.35-.65l-.44,1.66a5.76,5.76,0,0,0,2.41.64V81.4h1.39V80a2.72,2.72,0,0,0,2.56-2.6C34.71,76.08,34,75.31,32.35,74.68Z"/><path class="cls-63" d="M32.33,74.66c-.31-.12-.58-.23-.8-.34-.63-.3-.9-.56-.9-.9s.23-.69.91-.77h.31a4.7,4.7,0,0,1,2,.51l.43-1.61A5.21,5.21,0,0,0,32.28,71V69.8H30.9v1.35a2.64,2.64,0,0,0-2.43,2.51c0,1.38,1,2.11,2.54,2.63a5,5,0,0,1,.52.21c.68.29,1,.6,1,1s-.39.77-1,.84l-.38,0a5,5,0,0,1-2.35-.65l-.44,1.66a5.76,5.76,0,0,0,2.41.64v1.35H32.1V79.95a2.72,2.72,0,0,0,2.56-2.6C34.69,76.06,34,75.29,32.33,74.66Z"/><path class="cls-64" d="M32.31,74.64c-.31-.12-.58-.23-.8-.34-.63-.3-.9-.56-.9-.9s.23-.69.91-.77h.31a4.7,4.7,0,0,1,2,.51l.43-1.61A5.21,5.21,0,0,0,32.26,71V69.78H30.88v1.35a2.64,2.64,0,0,0-2.43,2.51c0,1.38,1,2.11,2.54,2.63a5,5,0,0,1,.52.21c.68.29,1,.6,1,1s-.39.77-1,.84l-.38,0a5,5,0,0,1-2.35-.65l-.44,1.66A5.76,5.76,0,0,0,30.7,80v1.35h1.39V79.93a2.72,2.72,0,0,0,2.56-2.6C34.67,76,34,75.27,32.31,74.64Z"/><path class="cls-65" d="M32.29,74.62c-.31-.12-.58-.23-.8-.34-.63-.3-.9-.56-.9-.9s.23-.69.91-.77h.31a4.7,4.7,0,0,1,2,.51l.43-1.61A5.21,5.21,0,0,0,32.24,71V69.76H30.86v1.35a2.64,2.64,0,0,0-2.43,2.51c0,1.38,1,2.11,2.54,2.63a5,5,0,0,1,.52.21c.68.29,1,.6,1,1s-.39.77-1,.84l-.38,0a5,5,0,0,1-2.35-.65l-.44,1.66a5.76,5.76,0,0,0,2.41.64v1.35h1.39V79.91a2.72,2.72,0,0,0,2.56-2.6C34.65,76,34,75.25,32.29,74.62Z"/><path class="cls-66" d="M32.27,74.6c-.31-.12-.58-.23-.8-.34-.63-.3-.9-.56-.9-.9s.23-.69.91-.77h.31a4.7,4.7,0,0,1,2,.51l.43-1.61A5.21,5.21,0,0,0,32.22,71V69.74H30.84v1.35a2.64,2.64,0,0,0-2.43,2.51c0,1.38,1,2.11,2.54,2.63a5,5,0,0,1,.52.21c.68.29,1,.6,1,1s-.39.77-1,.84l-.38,0a5,5,0,0,1-2.35-.65l-.44,1.66a5.76,5.76,0,0,0,2.41.64v1.35H32V79.89a2.72,2.72,0,0,0,2.56-2.6C34.63,76,34,75.23,32.27,74.6Z"/><path class="cls-67" d="M32.26,74.59c-.31-.12-.58-.23-.8-.34-.63-.3-.9-.56-.9-.9s.23-.69.91-.77h.31a4.7,4.7,0,0,1,2,.51l.43-1.61A5.21,5.21,0,0,0,32.21,71V69.72H30.82v1.35a2.64,2.64,0,0,0-2.43,2.51c0,1.38,1,2.11,2.54,2.63a5,5,0,0,1,.52.21c.68.29,1,.6,1,1s-.39.77-1,.84l-.38,0a5,5,0,0,1-2.35-.65l-.44,1.66a5.76,5.76,0,0,0,2.41.64v1.35H32V79.87a2.72,2.72,0,0,0,2.56-2.6C34.61,76,33.94,75.21,32.26,74.59Z"/><path class="cls-68" d="M32.24,74.57c-.31-.12-.58-.23-.8-.34-.63-.3-.9-.56-.9-.9s.23-.69.91-.77h.31a4.7,4.7,0,0,1,2,.51l.43-1.61A5.21,5.21,0,0,0,32.19,71V69.7H30.81V71a2.64,2.64,0,0,0-2.43,2.51c0,1.38,1,2.11,2.54,2.63a5,5,0,0,1,.52.21c.68.29,1,.6,1,1s-.39.77-1,.84l-.38,0a5,5,0,0,1-2.35-.65l-.44,1.66a5.76,5.76,0,0,0,2.41.64v1.35H32l0-1.45a2.72,2.72,0,0,0,2.56-2.6C34.59,76,33.92,75.2,32.24,74.57Z"/><path class="cls-69" d="M32.22,74.55c-.31-.12-.58-.23-.8-.34-.63-.3-.9-.56-.9-.9s.23-.69.91-.77h.31a4.7,4.7,0,0,1,2,.51l.43-1.61a5.21,5.21,0,0,0-2.06-.49V69.68H30.79V71a2.64,2.64,0,0,0-2.43,2.51c0,1.38,1,2.11,2.54,2.63a5,5,0,0,1,.52.21c.68.29,1,.6,1,1s-.39.77-1,.84l-.38,0a5,5,0,0,1-2.35-.65l-.44,1.66a5.76,5.76,0,0,0,2.41.64v1.35H32l0-1.45a2.72,2.72,0,0,0,2.56-2.6C34.58,76,33.9,75.18,32.22,74.55Z"/><path class="cls-70" d="M32.2,74.53c-.31-.12-.58-.23-.8-.34-.63-.3-.9-.56-.9-.9s.23-.69.91-.77h.31a4.7,4.7,0,0,1,2,.51l.43-1.61a5.21,5.21,0,0,0-2.06-.49V69.67H30.77V71a2.64,2.64,0,0,0-2.43,2.51c0,1.38,1,2.11,2.54,2.63a5,5,0,0,1,.52.21c.68.29,1,.6,1,1s-.39.77-1,.84l-.38,0a5,5,0,0,1-2.35-.65l-.44,1.66a5.76,5.76,0,0,0,2.41.64v1.35H32l0-1.45a2.72,2.72,0,0,0,2.56-2.6C34.56,75.93,33.88,75.16,32.2,74.53Z"/><path class="cls-71" d="M32.18,74.51c-.31-.12-.58-.23-.8-.34-.63-.3-.9-.56-.9-.9s.23-.69.91-.77h.31a4.7,4.7,0,0,1,2,.51l.43-1.61a5.21,5.21,0,0,0-2.06-.49V69.65H30.75V71a2.64,2.64,0,0,0-2.43,2.51c0,1.38,1,2.11,2.54,2.63a5,5,0,0,1,.52.21c.68.29,1,.6,1,1s-.39.77-1,.84l-.38,0a5,5,0,0,1-2.35-.65l-.44,1.66a5.76,5.76,0,0,0,2.41.64v1.35H32l0-1.45a2.72,2.72,0,0,0,2.56-2.6C34.54,75.91,33.86,75.14,32.18,74.51Z"/><path class="cls-72" d="M32.16,74.49c-.31-.12-.58-.23-.8-.34-.63-.3-.9-.56-.9-.9s.23-.69.91-.77h.31a4.7,4.7,0,0,1,2,.51l.43-1.61a5.21,5.21,0,0,0-2.06-.49V69.63H30.73V71a2.64,2.64,0,0,0-2.43,2.51c0,1.38,1,2.11,2.54,2.63a5,5,0,0,1,.52.21c.68.29,1,.6,1,1s-.39.77-1,.84l-.38,0a5,5,0,0,1-2.35-.65l-.44,1.66a5.76,5.76,0,0,0,2.41.64v1.35h1.39l0-1.45a2.72,2.72,0,0,0,2.56-2.6C34.52,75.9,33.84,75.12,32.16,74.49Z"/><path class="cls-73" d="M32.14,74.48c-.31-.12-.58-.23-.8-.34-.63-.3-.9-.56-.9-.9s.23-.69.91-.77h.31a4.7,4.7,0,0,1,2,.51l.43-1.61a5.21,5.21,0,0,0-2.06-.49V69.61H30.71v1.35a2.64,2.64,0,0,0-2.43,2.51c0,1.38,1,2.11,2.54,2.63a5,5,0,0,1,.52.21c.68.29,1,.6,1,1s-.39.77-1,.84l-.38,0a5,5,0,0,1-2.35-.65l-.44,1.66a5.76,5.76,0,0,0,2.41.64V81.2h1.39l0-1.45a2.72,2.72,0,0,0,2.56-2.6C34.5,75.88,33.82,75.1,32.14,74.48Z"/><path class="cls-74" d="M32.13,74.46c-.31-.12-.58-.23-.8-.34-.63-.3-.9-.56-.9-.9s.23-.69.91-.77h.31a4.7,4.7,0,0,1,2,.51l.43-1.61a5.21,5.21,0,0,0-2.06-.49V69.59H30.69v1.35a2.64,2.64,0,0,0-2.43,2.51c0,1.38,1,2.11,2.54,2.63a5,5,0,0,1,.52.21c.68.29,1,.6,1,1s-.39.77-1,.84l-.38,0a5,5,0,0,1-2.35-.65l-.44,1.66a5.76,5.76,0,0,0,2.41.64v1.35H31.9l0-1.45a2.72,2.72,0,0,0,2.56-2.6C34.48,75.86,33.81,75.08,32.13,74.46Z"/><path class="cls-75" d="M32.11,74.44c-.31-.12-.58-.23-.8-.34-.63-.3-.9-.56-.9-.9s.23-.69.91-.77h.31a4.7,4.7,0,0,1,2,.51l.43-1.61a5.21,5.21,0,0,0-2.06-.49V69.57H30.68v1.35a2.64,2.64,0,0,0-2.43,2.51c0,1.38,1,2.11,2.54,2.63a5,5,0,0,1,.52.21c.68.29,1,.6,1,1s-.39.77-1,.84l-.38,0a5,5,0,0,1-2.35-.65l-.44,1.66a5.76,5.76,0,0,0,2.41.64v1.35h1.39l0-1.45a2.72,2.72,0,0,0,2.56-2.6C34.46,75.84,33.79,75.07,32.11,74.44Z"/><path class="cls-76" d="M32.09,74.42c-.31-.12-.58-.23-.8-.34-.63-.3-.9-.56-.9-.9s.23-.69.91-.77h.31a4.7,4.7,0,0,1,2,.51l.43-1.61A5.21,5.21,0,0,0,32,70.8V69.55H30.66v1.35a2.64,2.64,0,0,0-2.43,2.51c0,1.38,1,2.11,2.54,2.63a5,5,0,0,1,.52.21c.68.29,1,.6,1,1s-.39.77-1,.84l-.38,0a5,5,0,0,1-2.35-.65l-.44,1.66a5.76,5.76,0,0,0,2.41.64v1.35h1.39l0-1.45a2.72,2.72,0,0,0,2.56-2.6C34.45,75.82,33.77,75,32.09,74.42Z"/><path class="cls-77" d="M32.07,74.4c-.31-.12-.58-.23-.8-.34-.63-.3-.9-.56-.9-.9s.23-.69.91-.77h.31a4.7,4.7,0,0,1,2,.51l.43-1.61A5.21,5.21,0,0,0,32,70.79V69.54H30.64v1.35a2.64,2.64,0,0,0-2.43,2.51c0,1.38,1,2.11,2.54,2.63a5,5,0,0,1,.52.21c.68.29,1,.6,1,1s-.39.77-1,.84l-.38,0a5,5,0,0,1-2.35-.65l-.44,1.66a5.76,5.76,0,0,0,2.41.64v1.35h1.39l0-1.45a2.72,2.72,0,0,0,2.56-2.6C34.43,75.8,33.75,75,32.07,74.4Z"/><path class="cls-78" d="M32.05,74.38c-.31-.12-.58-.23-.8-.34-.63-.3-.9-.56-.9-.9s.23-.69.91-.77h.31a4.7,4.7,0,0,1,2,.51l.43-1.61A5.21,5.21,0,0,0,32,70.77V69.52H30.62v1.35a2.64,2.64,0,0,0-2.43,2.51c0,1.38,1,2.11,2.54,2.63a5,5,0,0,1,.52.21c.68.29,1,.6,1,1s-.39.77-1,.84l-.38,0a5,5,0,0,1-2.35-.65L28,79.12a5.76,5.76,0,0,0,2.41.64v1.35h1.39l0-1.45a2.72,2.72,0,0,0,2.56-2.6C34.41,75.78,33.73,75,32.05,74.38Z"/><path class="cls-79" d="M32,74.36c-.31-.12-.58-.23-.8-.34-.63-.3-.9-.56-.9-.9s.23-.69.91-.77h.31a4.7,4.7,0,0,1,2,.51L34,71.24A5.21,5.21,0,0,0,32,70.75V69.5H30.6v1.35a2.64,2.64,0,0,0-2.43,2.51c0,1.38,1,2.11,2.54,2.63a5,5,0,0,1,.52.21c.68.29,1,.6,1,1s-.39.77-1,.84l-.38,0a5,5,0,0,1-2.35-.65L28,79.1a5.76,5.76,0,0,0,2.41.64v1.35h1.39l0-1.45A2.72,2.72,0,0,0,34.38,77C34.39,75.77,33.71,75,32,74.36Z"/><path class="cls-80" d="M32,74.35c-.31-.12-.58-.23-.8-.34-.63-.3-.9-.56-.9-.9s.23-.69.91-.77h.31a4.7,4.7,0,0,1,2,.51L34,71.22A5.21,5.21,0,0,0,32,70.73V69.48H30.58v1.35a2.64,2.64,0,0,0-2.43,2.51c0,1.38,1,2.11,2.54,2.63a5,5,0,0,1,.52.21c.68.29,1,.6,1,1s-.39.77-1,.84l-.38,0a5,5,0,0,1-2.35-.65L28,79.08a5.76,5.76,0,0,0,2.41.64v1.35h1.39l0-1.45A2.72,2.72,0,0,0,34.36,77C34.37,75.75,33.7,75,32,74.35Z"/><path class="cls-81" d="M32,74.33c-.31-.12-.58-.23-.8-.34-.63-.3-.9-.56-.9-.9s.23-.69.91-.77h.31a4.7,4.7,0,0,1,2,.51L34,71.2a5.21,5.21,0,0,0-2.06-.49V69.46H30.56V70.8a2.64,2.64,0,0,0-2.43,2.51c0,1.38,1,2.11,2.54,2.63a5,5,0,0,1,.52.21c.68.29,1,.6,1,1s-.39.77-1,.84l-.38,0a5,5,0,0,1-2.35-.65L28,79.06a5.76,5.76,0,0,0,2.41.64v1.35h1.39l0-1.45A2.72,2.72,0,0,0,34.34,77C34.35,75.73,33.68,75,32,74.33Z"/><path class="cls-82" d="M32,74.31c-.31-.12-.58-.23-.8-.34-.63-.3-.9-.56-.9-.9s.23-.69.91-.77h.31a4.7,4.7,0,0,1,2,.51L34,71.18a5.21,5.21,0,0,0-2.06-.49V69.44H30.55v1.35a2.64,2.64,0,0,0-2.43,2.51c0,1.38,1,2.11,2.54,2.63a5,5,0,0,1,.52.21c.68.29,1,.6,1,1s-.39.77-1,.84l-.38,0a5,5,0,0,1-2.35-.65L28,79a5.76,5.76,0,0,0,2.41.64V81h1.39l0-1.45A2.72,2.72,0,0,0,34.32,77C34.33,75.71,33.66,74.94,32,74.31Z"/><path class="cls-83" d="M32,74.29c-.31-.12-.58-.23-.8-.34-.63-.3-.9-.56-.9-.9s.23-.69.91-.77h.31a4.7,4.7,0,0,1,2,.51L34,71.17a5.21,5.21,0,0,0-2.06-.49V69.42H30.53v1.35a2.64,2.64,0,0,0-2.43,2.51c0,1.38,1,2.11,2.54,2.63a5,5,0,0,1,.52.21c.68.29,1,.6,1,1s-.39.77-1,.84l-.38,0a5,5,0,0,1-2.35-.65L27.94,79a5.76,5.76,0,0,0,2.41.64V81h1.39l0-1.45A2.72,2.72,0,0,0,34.3,77C34.32,75.69,33.64,74.92,32,74.29Z"/><path class="cls-84" d="M31.94,74.27c-.31-.12-.58-.23-.8-.34-.63-.3-.9-.56-.9-.9s.23-.69.91-.77h.31a4.7,4.7,0,0,1,2,.51l.43-1.61a5.21,5.21,0,0,0-2.06-.49V69.41H30.51v1.35a2.64,2.64,0,0,0-2.43,2.51c0,1.38,1,2.11,2.54,2.63a5,5,0,0,1,.52.21c.68.29,1,.6,1,1s-.39.77-1,.84l-.38,0a5,5,0,0,1-2.35-.65L27.92,79a5.76,5.76,0,0,0,2.41.64V81h1.39l0-1.45A2.72,2.72,0,0,0,34.28,77C34.3,75.67,33.62,74.9,31.94,74.27Z"/><path class="cls-85" d="M31.92,74.25c-.31-.12-.58-.23-.8-.34-.63-.3-.9-.56-.9-.9s.23-.69.91-.77h.31a4.7,4.7,0,0,1,2,.51l.43-1.61a5.21,5.21,0,0,0-2.06-.49V69.39H30.49v1.35A2.64,2.64,0,0,0,28,73.23c0,1.38,1,2.11,2.54,2.63a5,5,0,0,1,.52.21c.68.29,1,.6,1,1s-.39.77-1,.84l-.38,0a5,5,0,0,1-2.35-.65L27.9,79a5.76,5.76,0,0,0,2.41.64V81H31.7l0-1.45a2.72,2.72,0,0,0,2.56-2.6C34.28,75.65,33.6,74.88,31.92,74.25Z"/><path class="cls-86" d="M31.9,74.23c-.31-.12-.58-.23-.8-.34-.63-.3-.9-.56-.9-.9s.23-.69.91-.77h.31a4.7,4.7,0,0,1,2,.51l.43-1.61a5.21,5.21,0,0,0-2.06-.49V69.37H30.47V70.7A2.64,2.64,0,0,0,28,73.21c0,1.38,1,2.11,2.54,2.63a5,5,0,0,1,.52.21c.68.29,1,.6,1,1s-.39.77-1,.84l-.38,0a5,5,0,0,1-2.35-.65L27.88,79a5.75,5.75,0,0,0,2.41.64V81h1.39l0-1.45a2.72,2.72,0,0,0,2.56-2.6C34.26,75.64,33.58,74.86,31.9,74.23Z"/><path class="cls-87" d="M31.88,74.22c-.31-.12-.58-.23-.8-.34-.63-.3-.9-.56-.9-.9s.23-.69.91-.77h.31a4.7,4.7,0,0,1,2,.51l.43-1.61a5.21,5.21,0,0,0-2.06-.49V69.35H30.45v1.35A2.64,2.64,0,0,0,28,73.19c0,1.38,1,2.11,2.54,2.63a5,5,0,0,1,.52.21c.68.29,1,.6,1,1s-.39.77-1,.84l-.38,0a5,5,0,0,1-2.35-.65L27.87,79a5.75,5.75,0,0,0,2.41.64v1.35h1.39l0-1.45a2.72,2.72,0,0,0,2.56-2.6C34.24,75.62,33.57,74.84,31.88,74.22Z"/><path class="cls-88" d="M31.87,74.2c-.31-.12-.58-.23-.8-.34-.63-.3-.9-.56-.9-.9s.23-.69.91-.77h.31a4.7,4.7,0,0,1,2,.51l.43-1.61a5.21,5.21,0,0,0-2.06-.49V69.33H30.43v1.35A2.64,2.64,0,0,0,28,73.17c0,1.38,1,2.11,2.54,2.63A5,5,0,0,1,31,76c.68.29,1,.6,1,1s-.39.77-1,.84l-.38,0a5,5,0,0,1-2.35-.65l-.44,1.66a5.75,5.75,0,0,0,2.41.64v1.35h1.39l0-1.45a2.72,2.72,0,0,0,2.56-2.6C34.22,75.6,33.55,74.82,31.87,74.2Z"/><path class="cls-89" d="M31.85,74.18c-.31-.12-.58-.23-.8-.34-.63-.3-.9-.56-.9-.9s.23-.69.91-.77h.31a4.7,4.7,0,0,1,2,.51l.43-1.61a5.21,5.21,0,0,0-2.06-.49V69.31H30.42v1.35A2.64,2.64,0,0,0,28,73.16c0,1.38,1,2.11,2.54,2.63A5,5,0,0,1,31,76c.68.29,1,.6,1,1s-.39.77-1,.84l-.38,0a5,5,0,0,1-2.35-.65l-.44,1.66a5.75,5.75,0,0,0,2.41.64V80.9h1.39l0-1.45a2.72,2.72,0,0,0,2.56-2.6C34.2,75.58,33.53,74.81,31.85,74.18Z"/><path class="cls-90" d="M31.83,74.16c-.31-.12-.58-.23-.8-.34-.63-.3-.9-.56-.9-.9s.23-.69.91-.77h.31a4.7,4.7,0,0,1,2,.51L33.84,71a5.21,5.21,0,0,0-2.06-.49V69.29H30.4v1.35A2.64,2.64,0,0,0,28,73.14c0,1.38,1,2.11,2.54,2.63A5,5,0,0,1,31,76c.68.29,1,.6,1,1s-.39.77-1,.84l-.38,0a5,5,0,0,1-2.35-.65l-.44,1.66a5.75,5.75,0,0,0,2.41.64v1.35H31.6l0-1.45a2.72,2.72,0,0,0,2.56-2.6C34.19,75.56,33.51,74.79,31.83,74.16Z"/><path class="cls-91" d="M31.81,74.14c-.31-.12-.58-.23-.8-.34-.63-.3-.9-.56-.9-.9s.23-.69.91-.77h.31a4.7,4.7,0,0,1,2,.51L33.82,71a5.21,5.21,0,0,0-2.06-.49V69.28H30.38v1.35a2.64,2.64,0,0,0-2.43,2.51c0,1.38,1,2.11,2.54,2.63A5,5,0,0,1,31,76c.68.29,1,.6,1,1s-.39.77-1,.84l-.38,0a5,5,0,0,1-2.35-.65l-.44,1.66a5.75,5.75,0,0,0,2.41.64v1.35h1.39l0-1.45a2.72,2.72,0,0,0,2.56-2.6C34.17,75.54,33.49,74.77,31.81,74.14Z"/><path class="cls-92" d="M31.79,74.12c-.31-.12-.58-.23-.8-.34-.63-.3-.9-.56-.9-.9s.23-.69.91-.77h.31a4.7,4.7,0,0,1,2,.51L33.8,71a5.21,5.21,0,0,0-2.06-.49V69.26H30.36v1.35a2.64,2.64,0,0,0-2.43,2.51c0,1.38,1,2.11,2.54,2.63a5,5,0,0,1,.52.21c.68.29,1,.6,1,1s-.39.77-1,.84l-.38,0a5,5,0,0,1-2.35-.65l-.44,1.66a5.75,5.75,0,0,0,2.41.64v1.35h1.39l0-1.45a2.72,2.72,0,0,0,2.56-2.6C34.15,75.52,33.47,74.75,31.79,74.12Z"/><path class="cls-93" d="M31.77,74.1c-.31-.12-.58-.23-.8-.34-.63-.3-.9-.56-.9-.9s.23-.69.91-.77h.31a4.7,4.7,0,0,1,2,.51L33.78,71a5.21,5.21,0,0,0-2.06-.49V69.24H30.34v1.35a2.64,2.64,0,0,0-2.43,2.51c0,1.38,1,2.11,2.54,2.63a5,5,0,0,1,.52.21c.68.29,1,.6,1,1s-.39.77-1,.84l-.38,0a5,5,0,0,1-2.35-.65l-.44,1.66a5.75,5.75,0,0,0,2.41.64v1.35h1.39l0-1.45a2.72,2.72,0,0,0,2.56-2.6C34.13,75.51,33.45,74.73,31.77,74.1Z"/><path class="cls-94" d="M31.75,74.09c-.31-.12-.58-.23-.8-.34-.63-.3-.9-.56-.9-.9s.23-.69.91-.77h.31a4.7,4.7,0,0,1,2,.51L33.76,71a5.21,5.21,0,0,0-2.06-.49V69.22H30.32v1.35a2.64,2.64,0,0,0-2.43,2.51c0,1.38,1,2.11,2.54,2.63a5,5,0,0,1,.52.21c.68.29,1,.6,1,1s-.39.77-1,.84l-.38,0a5,5,0,0,1-2.35-.65l-.44,1.66a5.75,5.75,0,0,0,2.41.64v1.35h1.39l0-1.45a2.72,2.72,0,0,0,2.56-2.6C34.11,75.49,33.44,74.71,31.75,74.09Z"/><path class="cls-95" d="M31.74,74.07c-.31-.12-.58-.23-.8-.34-.63-.3-.9-.56-.9-.9s.23-.69.91-.77h.31a4.7,4.7,0,0,1,2,.51l.43-1.61a5.21,5.21,0,0,0-2.06-.49V69.2H30.3v1.35A2.64,2.64,0,0,0,27.86,73c0,1.38,1,2.11,2.54,2.63a5,5,0,0,1,.52.21c.68.29,1,.6,1,1s-.39.77-1,.84l-.38,0a5,5,0,0,1-2.35-.65l-.44,1.66a5.75,5.75,0,0,0,2.41.64v1.35h1.39l0-1.45a2.72,2.72,0,0,0,2.56-2.6C34.09,75.47,33.42,74.69,31.74,74.07Z"/><path class="cls-96" d="M31.72,74c-.31-.12-.58-.23-.8-.34-.63-.3-.9-.56-.9-.9s.23-.69.91-.77h.31a4.7,4.7,0,0,1,2,.51l.43-1.61a5.21,5.21,0,0,0-2.06-.49V69.18H30.29v1.35A2.64,2.64,0,0,0,27.84,73c0,1.38,1,2.11,2.54,2.63a5,5,0,0,1,.52.21c.68.29,1,.6,1,1s-.39.77-1,.84l-.38,0a5,5,0,0,1-2.35-.65l-.44,1.66a5.75,5.75,0,0,0,2.41.64v1.35h1.39l0-1.45a2.72,2.72,0,0,0,2.56-2.6C34.07,75.45,33.4,74.68,31.72,74Z"/><path class="cls-97" d="M31.7,74c-.31-.12-.58-.23-.8-.34-.63-.3-.9-.56-.9-.9s.23-.69.91-.77h.31a4.7,4.7,0,0,1,2,.51l.43-1.61a5.21,5.21,0,0,0-2.06-.49V69.16H30.27V70.5A2.64,2.64,0,0,0,27.82,73c0,1.38,1,2.11,2.54,2.63a5,5,0,0,1,.52.21c.68.29,1,.6,1,1s-.39.77-1,.84l-.38,0a5,5,0,0,1-2.35-.65l-.44,1.66a5.75,5.75,0,0,0,2.41.64v1.35h1.39l0-1.45A2.72,2.72,0,0,0,34,76.72C34.06,75.43,33.38,74.66,31.7,74Z"/><path class="cls-98" d="M31.68,74c-.31-.12-.58-.23-.8-.34-.63-.3-.9-.56-.9-.9s.23-.69.91-.77h.31a4.7,4.7,0,0,1,2,.51l.43-1.61a5.21,5.21,0,0,0-2.06-.49V69.15H30.25v1.35A2.64,2.64,0,0,0,27.8,73c0,1.38,1,2.11,2.54,2.63a5,5,0,0,1,.52.21c.68.29,1,.6,1,1s-.39.77-1,.84l-.38,0a5,5,0,0,1-2.35-.65l-.44,1.66a5.75,5.75,0,0,0,2.41.64v1.35h1.39l0-1.45A2.72,2.72,0,0,0,34,76.7C34,75.41,33.36,74.64,31.68,74Z"/><path class="cls-99" d="M31.66,74c-.31-.12-.58-.23-.8-.34-.63-.3-.9-.56-.9-.9s.23-.69.91-.77h.31a4.7,4.7,0,0,1,2,.51l.43-1.61a5.21,5.21,0,0,0-2.06-.49V69.13H30.23v1.35A2.64,2.64,0,0,0,27.78,73c0,1.38,1,2.11,2.54,2.63a5,5,0,0,1,.52.21c.68.29,1,.6,1,1s-.39.77-1,.84l-.38,0a5,5,0,0,1-2.35-.65l-.44,1.66a5.75,5.75,0,0,0,2.41.64v1.35h1.39l0-1.45A2.72,2.72,0,0,0,34,76.68C34,75.39,33.34,74.62,31.66,74Z"/><path class="cls-100" d="M31.64,74q-.47-.18-.8-.34c-.63-.3-.9-.56-.9-.9s.23-.7.91-.77h.31a4.7,4.7,0,0,1,2,.51l.43-1.61a5.21,5.21,0,0,0-2.06-.49V69.11H30.21v1.35A2.64,2.64,0,0,0,27.77,73c0,1.38,1,2.1,2.54,2.63a4.73,4.73,0,0,1,.52.21c.68.29,1,.6,1,1s-.39.77-1,.84l-.38,0a5,5,0,0,1-2.35-.65l-.44,1.66a5.75,5.75,0,0,0,2.41.64V80.7h1.39l0-1.45A2.72,2.72,0,0,0,34,76.66C34,75.38,33.33,74.59,31.64,74Z"/></g><path class="cls-3" d="M33.22,72.46l.43-1.61a5.21,5.21,0,0,0-2.06-.49V69.11h-.71l0,2.86h.31A4.7,4.7,0,0,1,33.22,72.46ZM31.64,74q-.47-.18-.8-.34l0,2.16c.68.29,1,.6,1,1s-.39.77-1,.84l-.38,0a5,5,0,0,1-2.35-.65l-.44,1.66a5.75,5.75,0,0,0,2.41.64V80.7h1.39l0-1.45A2.72,2.72,0,0,0,34,76.66C34,75.38,33.33,74.59,31.64,74Z"/><path class="cls-101" d="M23,74.87a7.85,7.85,0,0,0,7.75,7.93l0,1.95a9.8,9.8,0,0,1,.2-19.59l0,1.95A7.85,7.85,0,0,0,23,74.87Z"/><path class="cls-2" d="M27.77,73c0,1.38,1,2.1,2.54,2.63a4.73,4.73,0,0,1,.52.21l0,1.89-.38,0a5,5,0,0,1-2.35-.65l-.44,1.66a5.75,5.75,0,0,0,2.41.64V80.7h.75l0,2.09a7.85,7.85,0,0,1,.16-15.7l0,2h-.68v1.35A2.64,2.64,0,0,0,27.77,73Z"/><g class="cls-5"><ellipse class="cls-102" cx="30.83" cy="74.95" rx="7.85" ry="7.83" transform="translate(-44.43 105.01) rotate(-89.41)"/><ellipse class="cls-103" cx="30.84" cy="74.95" rx="7.84" ry="7.82" transform="translate(-44.43 105.02) rotate(-89.41)"/><ellipse class="cls-104" cx="30.85" cy="74.96" rx="7.83" ry="7.82" transform="translate(-44.42 105.03) rotate(-89.41)"/><ellipse class="cls-105" cx="30.86" cy="74.96" rx="7.82" ry="7.81" transform="translate(-44.42 105.04) rotate(-89.41)"/><ellipse class="cls-106" cx="30.87" cy="74.96" rx="7.82" ry="7.8" transform="translate(-44.41 105.06) rotate(-89.41)"/><ellipse class="cls-107" cx="30.87" cy="74.97" rx="7.81" ry="7.79" transform="translate(-44.41 105.07) rotate(-89.41)"/><ellipse class="cls-108" cx="30.88" cy="74.97" rx="7.8" ry="7.78" transform="translate(-44.41 105.08) rotate(-89.41)"/><ellipse class="cls-109" cx="30.89" cy="74.98" rx="7.79" ry="7.78" transform="matrix(0.01, -1, 1, 0.01, -44.4, 105.09)"/><ellipse class="cls-110" cx="30.9" cy="74.98" rx="7.78" ry="7.77" transform="translate(-44.4 105.1) rotate(-89.41)"/><ellipse class="cls-111" cx="30.9" cy="74.98" rx="7.78" ry="7.76" transform="translate(-44.39 105.11) rotate(-89.41)"/><ellipse class="cls-112" cx="30.91" cy="74.99" rx="7.77" ry="7.75" transform="translate(-44.39 105.12) rotate(-89.41)"/><ellipse class="cls-113" cx="30.92" cy="74.99" rx="7.76" ry="7.74" transform="translate(-44.38 105.13) rotate(-89.41)"/><ellipse class="cls-114" cx="30.93" cy="74.99" rx="7.75" ry="7.73" transform="translate(-44.38 105.15) rotate(-89.41)"/><ellipse class="cls-115" cx="30.94" cy="75" rx="7.74" ry="7.73" transform="translate(-44.37 105.16) rotate(-89.41)"/><ellipse class="cls-116" cx="30.94" cy="75" rx="7.74" ry="7.72" transform="translate(-44.37 105.17) rotate(-89.41)"/><ellipse class="cls-117" cx="30.95" cy="75" rx="7.73" ry="7.71" transform="translate(-44.37 105.18) rotate(-89.41)"/><ellipse class="cls-118" cx="30.96" cy="75.01" rx="7.72" ry="7.7" transform="translate(-44.36 105.19) rotate(-89.41)"/><ellipse class="cls-119" cx="30.97" cy="75.01" rx="7.71" ry="7.69" transform="translate(-44.36 105.2) rotate(-89.41)"/><ellipse class="cls-120" cx="30.98" cy="75.01" rx="7.7" ry="7.69" transform="translate(-44.35 105.21) rotate(-89.41)"/><ellipse class="cls-121" cx="30.98" cy="75.02" rx="7.7" ry="7.68" transform="translate(-44.35 105.23) rotate(-89.41)"/><ellipse class="cls-122" cx="30.99" cy="75.02" rx="7.69" ry="7.67" transform="translate(-44.34 105.24) rotate(-89.41)"/><ellipse class="cls-123" cx="31" cy="75.02" rx="7.68" ry="7.66" transform="translate(-44.34 105.25) rotate(-89.41)"/><ellipse class="cls-124" cx="31.01" cy="75.03" rx="7.67" ry="7.65" transform="matrix(0.01, -1, 1, 0.01, -44.34, 105.26)"/><ellipse class="cls-125" cx="31.02" cy="75.03" rx="7.66" ry="7.65" transform="translate(-44.33 105.27) rotate(-89.41)"/><ellipse class="cls-126" cx="31.02" cy="75.03" rx="7.66" ry="7.64" transform="translate(-44.33 105.28) rotate(-89.41)"/><ellipse class="cls-127" cx="31.03" cy="75.04" rx="7.65" ry="7.63" transform="translate(-44.32 105.29) rotate(-89.41)"/><ellipse class="cls-128" cx="31.04" cy="75.04" rx="7.64" ry="7.62" transform="translate(-44.32 105.3) rotate(-89.41)"/><ellipse class="cls-129" cx="31.05" cy="75.04" rx="7.63" ry="7.61" transform="translate(-44.31 105.32) rotate(-89.41)"/><ellipse class="cls-130" cx="31.05" cy="75.05" rx="7.62" ry="7.61" transform="matrix(0.01, -1, 1, 0.01, -44.31, 105.33)"/><ellipse class="cls-131" cx="31.06" cy="75.05" rx="7.62" ry="7.6" transform="translate(-44.31 105.34) rotate(-89.41)"/><ellipse class="cls-132" cx="31.07" cy="75.06" rx="7.61" ry="7.59" transform="translate(-44.3 105.35) rotate(-89.41)"/><ellipse class="cls-133" cx="31.08" cy="75.06" rx="7.6" ry="7.58" transform="translate(-44.3 105.36) rotate(-89.41)"/><ellipse class="cls-134" cx="31.09" cy="75.06" rx="7.59" ry="7.57" transform="translate(-44.29 105.37) rotate(-89.41)"/><ellipse class="cls-135" cx="31.09" cy="75.07" rx="7.58" ry="7.57" transform="translate(-44.29 105.38) rotate(-89.41)"/><ellipse class="cls-136" cx="31.1" cy="75.07" rx="7.57" ry="7.56" transform="translate(-44.28 105.4) rotate(-89.41)"/><ellipse class="cls-100" cx="31.11" cy="75.07" rx="7.57" ry="7.55" transform="translate(-44.28 105.41) rotate(-89.41)"/><ellipse class="cls-137" cx="31.12" cy="75.08" rx="7.56" ry="7.54" transform="matrix(0.01, -1, 1, 0.01, -44.28, 105.42)"/><ellipse class="cls-138" cx="31.13" cy="75.08" rx="7.55" ry="7.53" transform="matrix(0.01, -1, 1, 0.01, -44.27, 105.43)"/><ellipse class="cls-139" cx="31.13" cy="75.08" rx="7.54" ry="7.53" transform="translate(-44.27 105.44) rotate(-89.41)"/><ellipse class="cls-140" cx="31.14" cy="75.09" rx="7.53" ry="7.52" transform="translate(-44.26 105.45) rotate(-89.41)"/><ellipse class="cls-141" cx="31.15" cy="75.09" rx="7.53" ry="7.51" transform="translate(-44.26 105.46) rotate(-89.41)"/><ellipse class="cls-142" cx="31.16" cy="75.09" rx="7.52" ry="7.5" transform="translate(-44.25 105.47) rotate(-89.41)"/><ellipse class="cls-143" cx="31.17" cy="75.1" rx="7.51" ry="7.49" transform="translate(-44.25 105.49) rotate(-89.41)"/><ellipse class="cls-144" cx="31.17" cy="75.1" rx="7.5" ry="7.49" transform="translate(-44.25 105.5) rotate(-89.41)"/><ellipse class="cls-145" cx="31.18" cy="75.1" rx="7.49" ry="7.48" transform="translate(-44.24 105.51) rotate(-89.41)"/><ellipse class="cls-146" cx="31.19" cy="75.11" rx="7.49" ry="7.47" transform="translate(-44.24 105.52) rotate(-89.41)"/><ellipse class="cls-147" cx="31.2" cy="75.11" rx="7.48" ry="7.46" transform="translate(-44.23 105.53) rotate(-89.41)"/><ellipse class="cls-148" cx="31.2" cy="75.11" rx="7.47" ry="7.45" transform="translate(-44.23 105.54) rotate(-89.41)"/><ellipse class="cls-149" cx="31.21" cy="75.12" rx="7.46" ry="7.45" transform="translate(-44.22 105.55) rotate(-89.41)"/><ellipse class="cls-85" cx="31.22" cy="75.12" rx="7.45" ry="7.44" transform="translate(-44.22 105.57) rotate(-89.41)"/><ellipse class="cls-150" cx="31.23" cy="75.13" rx="7.45" ry="7.43" transform="translate(-44.21 105.58) rotate(-89.41)"/><ellipse class="cls-83" cx="31.24" cy="75.13" rx="7.44" ry="7.42" transform="translate(-44.21 105.59) rotate(-89.41)"/><ellipse class="cls-151" cx="31.24" cy="75.13" rx="7.43" ry="7.41" transform="translate(-44.21 105.6) rotate(-89.41)"/><ellipse class="cls-152" cx="31.25" cy="75.14" rx="7.42" ry="7.41" transform="translate(-44.2 105.61) rotate(-89.41)"/><ellipse class="cls-153" cx="31.26" cy="75.14" rx="7.41" ry="7.4" transform="translate(-44.2 105.62) rotate(-89.41)"/><ellipse class="cls-154" cx="31.27" cy="75.14" rx="7.41" ry="7.39" transform="translate(-44.19 105.63) rotate(-89.41)"/><ellipse class="cls-78" cx="31.28" cy="75.15" rx="7.4" ry="7.38" transform="translate(-44.19 105.65) rotate(-89.41)"/><ellipse class="cls-155" cx="31.28" cy="75.15" rx="7.39" ry="7.37" transform="translate(-44.18 105.66) rotate(-89.41)"/><ellipse class="cls-76" cx="31.29" cy="75.15" rx="7.38" ry="7.37" transform="translate(-44.18 105.67) rotate(-89.41)"/><ellipse class="cls-156" cx="31.3" cy="75.16" rx="7.37" ry="7.36" transform="translate(-44.18 105.68) rotate(-89.41)"/><ellipse class="cls-74" cx="31.31" cy="75.16" rx="7.37" ry="7.35" transform="translate(-44.17 105.69) rotate(-89.41)"/><ellipse class="cls-73" cx="31.32" cy="75.16" rx="7.36" ry="7.34" transform="translate(-44.17 105.7) rotate(-89.41)"/><ellipse class="cls-72" cx="31.32" cy="75.17" rx="7.35" ry="7.33" transform="translate(-44.16 105.71) rotate(-89.41)"/><ellipse class="cls-71" cx="31.33" cy="75.17" rx="7.34" ry="7.33" transform="translate(-44.16 105.72) rotate(-89.41)"/><ellipse class="cls-157" cx="31.34" cy="75.17" rx="7.33" ry="7.32" transform="translate(-44.15 105.74) rotate(-89.41)"/><ellipse class="cls-69" cx="31.35" cy="75.18" rx="7.33" ry="7.31" transform="translate(-44.15 105.75) rotate(-89.41)"/><ellipse class="cls-158" cx="31.35" cy="75.18" rx="7.32" ry="7.3" transform="translate(-44.15 105.76) rotate(-89.41)"/><ellipse class="cls-67" cx="31.36" cy="75.18" rx="7.31" ry="7.29" transform="translate(-44.14 105.77) rotate(-89.41)"/><ellipse class="cls-66" cx="31.37" cy="75.19" rx="7.3" ry="7.28" transform="translate(-44.14 105.78) rotate(-89.41)"/><ellipse class="cls-65" cx="31.38" cy="75.19" rx="7.29" ry="7.28" transform="translate(-44.13 105.79) rotate(-89.41)"/><ellipse class="cls-64" cx="31.39" cy="75.19" rx="7.28" ry="7.27" transform="matrix(0.01, -1, 1, 0.01, -44.13, 105.8)"/><ellipse class="cls-63" cx="31.39" cy="75.2" rx="7.28" ry="7.26" transform="translate(-44.12 105.82) rotate(-89.41)"/><ellipse class="cls-62" cx="31.4" cy="75.2" rx="7.27" ry="7.25" transform="translate(-44.12 105.83) rotate(-89.41)"/><ellipse class="cls-159" cx="31.41" cy="75.21" rx="7.26" ry="7.24" transform="translate(-44.12 105.84) rotate(-89.41)"/><ellipse class="cls-60" cx="31.42" cy="75.21" rx="7.25" ry="7.24" transform="translate(-44.11 105.85) rotate(-89.41)"/><ellipse class="cls-59" cx="31.43" cy="75.21" rx="7.24" ry="7.23" transform="translate(-44.11 105.86) rotate(-89.41)"/><ellipse class="cls-58" cx="31.43" cy="75.22" rx="7.24" ry="7.22" transform="translate(-44.1 105.87) rotate(-89.41)"/><ellipse class="cls-57" cx="31.44" cy="75.22" rx="7.23" ry="7.21" transform="translate(-44.1 105.88) rotate(-89.41)"/><ellipse class="cls-56" cx="31.45" cy="75.22" rx="7.22" ry="7.2" transform="translate(-44.09 105.89) rotate(-89.41)"/><ellipse class="cls-160" cx="31.46" cy="75.23" rx="7.21" ry="7.2" transform="translate(-44.09 105.91) rotate(-89.41)"/><ellipse class="cls-161" cx="31.46" cy="75.23" rx="7.2" ry="7.19" transform="translate(-44.08 105.92) rotate(-89.41)"/><ellipse class="cls-53" cx="31.47" cy="75.23" rx="7.2" ry="7.18" transform="translate(-44.08 105.93) rotate(-89.41)"/><ellipse class="cls-162" cx="31.48" cy="75.24" rx="7.19" ry="7.17" transform="translate(-44.08 105.94) rotate(-89.41)"/><ellipse class="cls-51" cx="31.49" cy="75.24" rx="7.18" ry="7.16" transform="translate(-44.07 105.95) rotate(-89.41)"/><ellipse class="cls-163" cx="31.5" cy="75.24" rx="7.17" ry="7.16" transform="translate(-44.07 105.96) rotate(-89.41)"/><ellipse class="cls-164" cx="31.5" cy="75.25" rx="7.16" ry="7.15" transform="translate(-44.06 105.97) rotate(-89.41)"/><ellipse class="cls-165" cx="31.51" cy="75.25" rx="7.16" ry="7.14" transform="translate(-44.06 105.99) rotate(-89.41)"/><ellipse class="cls-166" cx="31.52" cy="75.25" rx="7.15" ry="7.13" transform="translate(-44.05 106) rotate(-89.41)"/><ellipse class="cls-167" cx="31.53" cy="75.26" rx="7.14" ry="7.12" transform="translate(-44.05 106.01) rotate(-89.41)"/><ellipse class="cls-168" cx="31.54" cy="75.26" rx="7.13" ry="7.12" transform="translate(-44.05 106.02) rotate(-89.41)"/><ellipse class="cls-169" cx="31.54" cy="75.26" rx="7.12" ry="7.11" transform="translate(-44.04 106.03) rotate(-89.41)"/><ellipse class="cls-170" cx="31.55" cy="75.27" rx="7.12" ry="7.1" transform="translate(-44.04 106.04) rotate(-89.41)"/><ellipse class="cls-171" cx="31.56" cy="75.27" rx="7.11" ry="7.09" transform="matrix(0.01, -1, 1, 0.01, -44.03, 106.05)"/><ellipse class="cls-41" cx="31.57" cy="75.27" rx="7.1" ry="7.08" transform="translate(-44.03 106.07) rotate(-89.41)"/><ellipse class="cls-172" cx="31.58" cy="75.28" rx="7.09" ry="7.08" transform="translate(-44.02 106.08) rotate(-89.41)"/><ellipse class="cls-39" cx="31.58" cy="75.28" rx="7.08" ry="7.07" transform="translate(-44.02 106.09) rotate(-89.41)"/><ellipse class="cls-173" cx="31.59" cy="75.29" rx="7.08" ry="7.06" transform="translate(-44.02 106.1) rotate(-89.41)"/><ellipse class="cls-36" cx="31.6" cy="75.29" rx="7.07" ry="7.05" transform="translate(-44.01 106.11) rotate(-89.41)"/><ellipse class="cls-174" cx="31.61" cy="75.29" rx="7.06" ry="7.04" transform="translate(-44.01 106.12) rotate(-89.41)"/><ellipse class="cls-175" cx="31.61" cy="75.3" rx="7.05" ry="7.04" transform="translate(-44 106.13) rotate(-89.41)"/><ellipse class="cls-176" cx="31.62" cy="75.3" rx="7.04" ry="7.03" transform="translate(-44 106.14) rotate(-89.41)"/><ellipse class="cls-177" cx="31.63" cy="75.3" rx="7.04" ry="7.02" transform="matrix(0.01, -1, 1, 0.01, -43.99, 106.16)"/><ellipse class="cls-178" cx="31.64" cy="75.31" rx="7.03" ry="7.01" transform="translate(-43.99 106.17) rotate(-89.41)"/><ellipse class="cls-179" cx="31.65" cy="75.31" rx="7.02" ry="7" transform="translate(-43.99 106.18) rotate(-89.41)"/><ellipse class="cls-29" cx="31.65" cy="75.31" rx="7.01" ry="7" transform="translate(-43.98 106.19) rotate(-89.41)"/><ellipse class="cls-180" cx="31.66" cy="75.32" rx="7" ry="6.99" transform="translate(-43.98 106.2) rotate(-89.41)"/><ellipse class="cls-181" cx="31.67" cy="75.32" rx="6.99" ry="6.98" transform="translate(-43.97 106.21) rotate(-89.41)"/><ellipse class="cls-182" cx="31.68" cy="75.32" rx="6.99" ry="6.97" transform="translate(-43.97 106.22) rotate(-89.41)"/><ellipse class="cls-25" cx="31.69" cy="75.33" rx="6.98" ry="6.96" transform="translate(-43.96 106.24) rotate(-89.41)"/><ellipse class="cls-24" cx="31.69" cy="75.33" rx="6.97" ry="6.96" transform="translate(-43.96 106.25) rotate(-89.41)"/><ellipse class="cls-183" cx="31.7" cy="75.33" rx="6.96" ry="6.95" transform="translate(-43.95 106.26) rotate(-89.41)"/><ellipse class="cls-22" cx="31.71" cy="75.34" rx="6.95" ry="6.94" transform="matrix(0.01, -1, 1, 0.01, -43.95, 106.27)"/><ellipse class="cls-184" cx="31.72" cy="75.34" rx="6.95" ry="6.93" transform="translate(-43.95 106.28) rotate(-89.41)"/><ellipse class="cls-20" cx="31.73" cy="75.34" rx="6.94" ry="6.92" transform="translate(-43.94 106.29) rotate(-89.41)"/><ellipse class="cls-185" cx="31.73" cy="75.35" rx="6.93" ry="6.92" transform="translate(-43.94 106.3) rotate(-89.41)"/><ellipse class="cls-18" cx="31.74" cy="75.35" rx="6.92" ry="6.91" transform="translate(-43.93 106.31) rotate(-89.41)"/><ellipse class="cls-17" cx="31.75" cy="75.35" rx="6.91" ry="6.9" transform="translate(-43.93 106.33) rotate(-89.41)"/><ellipse class="cls-16" cx="31.76" cy="75.36" rx="6.91" ry="6.89" transform="translate(-43.92 106.34) rotate(-89.41)"/><ellipse class="cls-186" cx="31.76" cy="75.36" rx="6.9" ry="6.88" transform="translate(-43.92 106.35) rotate(-89.41)"/><ellipse class="cls-187" cx="31.77" cy="75.37" rx="6.89" ry="6.88" transform="translate(-43.92 106.36) rotate(-89.41)"/><ellipse class="cls-13" cx="31.78" cy="75.37" rx="6.88" ry="6.87" transform="translate(-43.91 106.37) rotate(-89.41)"/><ellipse class="cls-12" cx="31.79" cy="75.37" rx="6.87" ry="6.86" transform="translate(-43.91 106.38) rotate(-89.41)"/><ellipse class="cls-11" cx="31.8" cy="75.38" rx="6.87" ry="6.85" transform="translate(-43.9 106.39) rotate(-89.41)"/><ellipse class="cls-10" cx="31.8" cy="75.38" rx="6.86" ry="6.84" transform="translate(-43.9 106.41) rotate(-89.41)"/><ellipse class="cls-188" cx="31.81" cy="75.38" rx="6.85" ry="6.83" transform="translate(-43.89 106.42) rotate(-89.41)"/><ellipse class="cls-8" cx="31.82" cy="75.39" rx="6.84" ry="6.83" transform="translate(-43.89 106.43) rotate(-89.41)"/><ellipse class="cls-7" cx="31.83" cy="75.39" rx="6.83" ry="6.82" transform="translate(-43.89 106.44) rotate(-89.41)"/><ellipse class="cls-6" cx="31.84" cy="75.39" rx="6.83" ry="6.81" transform="translate(-43.88 106.45) rotate(-89.41)"/></g><path class="cls-101" d="M29.95,72.73c0,.35.27.61.9.9l0,2.16a4.73,4.73,0,0,0-.52-.21c-1.52-.53-2.55-1.25-2.54-2.63a2.64,2.64,0,0,1,2.43-2.51V69.09h.68l0,2.86C30.18,72,30,72.39,29.95,72.73Z"/><path class="cls-189" d="M30.86,72l0,1.67c-.63-.3-.9-.56-.9-.9S30.18,72,30.86,72Z"/><path class="cls-101" d="M30.42,77.7l.38,0,0,3H30V79.35a5.75,5.75,0,0,1-2.41-.64l.44-1.66A5,5,0,0,0,30.42,77.7Z"/><path class="cls-190" d="M61.49,81.07v2.55a1.61,1.61,0,0,1-.57,1.14,4.1,4.1,0,0,1-.88.64,9.36,9.36,0,0,1-1,.48c-.34.13-.69.27-1.08.38s-.78.23-1.22.34-.85.19-1.31.27-1,.16-1.46.22-1.08.13-1.65.18-1.22.08-1.85.1l-1.33,0c-.5,0-1,0-1.46,0s-1.24-.06-1.85-.11-1.12-.1-1.66-.18-1-.15-1.45-.23-.89-.18-1.31-.28-.84-.22-1.22-.35-.75-.26-1.09-.4a7.16,7.16,0,0,1-1-.5,3.83,3.83,0,0,1-.89-.71,1.49,1.49,0,0,1-.45-1V81.07H42l.77-.15a37.58,37.58,0,0,1,12.71,0l.89.17Z"/><path class="cls-191" d="M38.13,80.8v4.54a3.83,3.83,0,0,1-.89-.71V80.8Z"/><path class="cls-191" d="M40.2,80.8v5.43q-.59-.19-1.09-.4v-5Z"/><path class="cls-191" d="M42.73,80.8v6.06c-.45-.08-.89-.18-1.31-.28V80.8Z"/><path class="cls-191" d="M45.84,80.8v6.47c-.57,0-1.12-.1-1.66-.18V80.8Z"/><path class="cls-191" d="M60.92,80.8v4a4.1,4.1,0,0,1-.88.64V80.8Z"/><path class="cls-191" d="M59,80.8v5.09c-.34.13-.69.27-1.08.38V80.8Z"/><path class="cls-191" d="M56.75,80.8V86.6c-.41.1-.85.19-1.31.27V80.8Z"/><path class="cls-191" d="M54,80.8v6.3c-.53.08-1.08.13-1.65.18V80.8Z"/><path class="cls-191" d="M50.48,80.8v6.59l-1.33,0c-.5,0-1,0-1.46,0V80.8Z"/><ellipse class="cls-2" cx="49.14" cy="81.07" rx="12.35" ry="3.79"/><path class="cls-101" d="M54,77.59l-2.19,1.23c-.48,0-1.06-.08-1.81-.09v-.45H48.3v.49c-1.83.1-2.89.46-2.89.91s1.25.75,3.08.94h.08l-1.25.7c-.57,0-1.08-.1-1.5-.17l-.52.6c.27,0,.63.09,1,.13l-3.43,1.92c-3.33-.63-5.54-1.73-5.54-3,0-1.94,5.27-3.51,11.78-3.51A37.13,37.13,0,0,1,54,77.59Z"/><path class="cls-3" d="M54,77.59l-2.19,1.23-1,.53c-.37,0-.81,0-1.34,0-1.11,0-1.47.14-1.47.29s.5.25,1.68.39l-1.14.64-1.25.7-1,.55-3.43,1.92a34.77,34.77,0,0,0,6.23.53c6.51,0,11.78-1.58,11.78-3.52C60.92,79.37,58.07,78.14,54,77.59Z"/><ellipse class="cls-2" cx="49.14" cy="80.8" rx="9.44" ry="2.82"/><path class="cls-4" d="M52.87,78.21A29.45,29.45,0,0,0,49.14,78c-5.21,0-9.44,1.26-9.44,2.82,0,1,1.72,1.86,4.32,2.37Z"/><path class="cls-192" d="M49.14,79c4.63,0,8.48,1,9.28,2.31a1,1,0,0,0,.16-.5c0-1.56-4.22-2.82-9.44-2.82s-9.44,1.26-9.44,2.82a1,1,0,0,0,.16.5C40.66,80,44.51,79,49.14,79Z"/><path class="cls-192" d="M51.71,81a16.2,16.2,0,0,0-1.63-.24c-1.45-.16-2.05-.27-2.05-.44S48.39,80,49.5,80a17.28,17.28,0,0,1,2.46.17l.5-.58v-.71H47.8v.62a10.18,10.18,0,0,0-1.11.16H45.41v.74h0c.05.48,1.28.72,3.07.9,1.21.12,1.76.24,1.8.42h-5v.71a20.79,20.79,0,0,0,2.91.22v.49h1.68v-.52c1.93-.1,3-.48,3-.92h0V81Z"/><path class="cls-3" d="M50.08,80l-.37,0-1.14.64c1.22.13,1.73.25,1.73.43s-.67.32-1.64.32c-.47,0-.92,0-1.34-.06l-1,.55c.56,0,1.21.08,1.87.09v.49h1.68v-.52c2-.1,3-.49,3-.94S52.11,80.24,50.08,80Zm1.71-1.2-1,.53c.5,0,.87.08,1.12.12l.5-.57Z"/><path class="cls-101" d="M48,79.59c0,.15.5.25,1.68.39l-1.14.64h-.08c-1.82-.19-3.08-.44-3.08-.94s1.06-.8,2.89-.91v-.49H50v.45c.75,0,1.33,0,1.81.09l-1,.53c-.37,0-.81,0-1.34,0C48.39,79.3,48,79.44,48,79.59Z"/><path class="cls-101" d="M47.32,81.31l-1,.55c-.41,0-.76-.08-1-.13l.52-.6C46.24,81.21,46.75,81.27,47.32,81.31Z"/><path class="cls-190" d="M60.67,77.54v2.55a1.61,1.61,0,0,1-.57,1.14,4.1,4.1,0,0,1-.88.64,9.5,9.5,0,0,1-1,.48c-.34.13-.69.27-1.08.38s-.78.23-1.22.34-.85.19-1.31.27-1,.16-1.46.22-1.08.13-1.65.18-1.22.08-1.85.11l-1.34,0c-.5,0-1,0-1.46,0s-1.24-.06-1.84-.11-1.13-.11-1.66-.18-1-.15-1.45-.23S41,83.15,40.6,83s-.84-.22-1.22-.35-.75-.26-1.09-.4a7.2,7.2,0,0,1-1-.5,3.81,3.81,0,0,1-.89-.71,1.49,1.49,0,0,1-.45-1V77.54h5.16l.77-.15a37.56,37.56,0,0,1,12.71,0l.89.17Z"/><path class="cls-191" d="M37.31,77.27V81.8a3.81,3.81,0,0,1-.89-.71V77.27Z"/><path class="cls-191" d="M39.39,77.27V82.7q-.59-.19-1.09-.4v-5Z"/><path class="cls-191" d="M41.91,77.27v6.06c-.45-.08-.89-.18-1.31-.28V77.27Z"/><path class="cls-191" d="M45,77.27v6.47c-.57,0-1.13-.11-1.66-.18V77.27Z"/><path class="cls-191" d="M60.1,77.27v4a4.1,4.1,0,0,1-.88.64V77.27Z"/><path class="cls-191" d="M58.23,77.27v5.09c-.34.13-.69.27-1.08.38V77.27Z"/><path class="cls-191" d="M55.93,77.27v5.81c-.41.1-.85.19-1.31.27V77.27Z"/><path class="cls-191" d="M53.16,77.27v6.3c-.53.08-1.08.13-1.65.18V77.27Z"/><path class="cls-191" d="M49.66,77.27v6.59l-1.34,0c-.5,0-1,0-1.46,0V77.27Z"/><ellipse class="cls-2" cx="48.33" cy="77.55" rx="12.35" ry="3.79"/><path class="cls-101" d="M53.16,74.06,51,75.29c-.48,0-1.06-.08-1.81-.09v-.45H47.49v.49c-1.83.11-2.89.46-2.89.91s1.25.75,3.08.94h.08l-1.25.7c-.57,0-1.08-.1-1.5-.17l-.52.6c.27,0,.63.09,1,.13l-3.43,1.92c-3.33-.63-5.54-1.73-5.54-3,0-1.94,5.27-3.51,11.78-3.51A37.12,37.12,0,0,1,53.16,74.06Z"/><path class="cls-3" d="M53.16,74.06,51,75.29l-1,.53c-.37,0-.81,0-1.34,0-1.11,0-1.47.14-1.47.29s.5.25,1.68.39l-1.14.64-1.25.7-1,.55-3.43,1.92a34.82,34.82,0,0,0,6.23.53c6.51,0,11.78-1.58,11.78-3.52C60.1,75.84,57.26,74.61,53.16,74.06Z"/><ellipse class="cls-2" cx="48.33" cy="77.27" rx="9.44" ry="2.82"/><path class="cls-4" d="M52.05,74.68a29.45,29.45,0,0,0-3.73-.23c-5.21,0-9.44,1.26-9.44,2.82,0,1,1.72,1.86,4.31,2.37Z"/><path class="cls-192" d="M48.33,75.46c4.63,0,8.48,1,9.28,2.31a1,1,0,0,0,.16-.5c0-1.56-4.22-2.82-9.44-2.82s-9.44,1.26-9.44,2.82a1,1,0,0,0,.16.5C39.85,76.46,43.69,75.46,48.33,75.46Z"/><path class="cls-192" d="M50.9,77.45a15.9,15.9,0,0,0-1.63-.24c-1.45-.16-2.05-.27-2.05-.44s.36-.29,1.47-.29a17.27,17.27,0,0,1,2.46.17l.5-.58v-.71H47V76a10.09,10.09,0,0,0-1.11.16H44.59v.74h0c.05.47,1.28.72,3.07.9,1.21.12,1.76.24,1.8.42h-5v.71a20.87,20.87,0,0,0,2.91.22v.49h1.68v-.52c1.93-.1,3-.48,3-.92h0v-.74Z"/><path class="cls-3" d="M49.26,76.49l-.37,0-1.14.64c1.22.13,1.73.25,1.73.43s-.67.32-1.64.32c-.47,0-.92,0-1.34-.06l-1,.55c.56,0,1.21.08,1.87.09v.49h1.68v-.52c2-.1,3-.49,3-.94S51.3,76.71,49.26,76.49ZM51,75.29l-1,.53c.5,0,.87.08,1.13.12l.5-.57Z"/><path class="cls-101" d="M47.21,76.06c0,.15.5.25,1.68.39l-1.14.64h-.08c-1.82-.19-3.08-.44-3.08-.94s1.06-.8,2.89-.91v-.49h1.67v.45c.75,0,1.33,0,1.81.09l-1,.53c-.37,0-.81,0-1.34,0C47.57,75.77,47.21,75.91,47.21,76.06Z"/><path class="cls-101" d="M46.5,77.79l-1,.55c-.4,0-.76-.08-1-.13l.52-.6C45.42,77.68,45.93,77.74,46.5,77.79Z"/><path class="cls-190" d="M58.85,74v2.55a1.61,1.61,0,0,1-.57,1.14,4.09,4.09,0,0,1-.88.64,9.41,9.41,0,0,1-1,.48c-.34.13-.69.27-1.08.38s-.78.23-1.22.34-.85.19-1.31.27-1,.16-1.46.22-1.08.13-1.65.18-1.22.08-1.85.1l-1.33,0c-.5,0-1,0-1.46,0s-1.24-.06-1.84-.11-1.13-.1-1.66-.18-1-.15-1.45-.23-.89-.18-1.31-.28-.84-.22-1.22-.35-.75-.26-1.09-.4a7.2,7.2,0,0,1-1-.5,3.84,3.84,0,0,1-.89-.71,1.49,1.49,0,0,1-.45-1V74h5.16l.77-.15a37.58,37.58,0,0,1,12.71,0l.89.17Z"/><path class="cls-191" d="M35.49,73.74v4.54a3.84,3.84,0,0,1-.89-.71V73.74Z"/><path class="cls-191" d="M37.56,73.74v5.43q-.59-.19-1.09-.4v-5Z"/><path class="cls-191" d="M40.09,73.74V79.8c-.45-.08-.89-.18-1.31-.28V73.74Z"/><path class="cls-191" d="M43.2,73.74v6.47c-.57,0-1.13-.1-1.66-.18V73.74Z"/><path class="cls-191" d="M58.28,73.74v4a4.09,4.09,0,0,1-.88.64V73.74Z"/><path class="cls-191" d="M56.4,73.74v5.09c-.34.13-.69.27-1.08.38V73.74Z"/><path class="cls-191" d="M54.1,73.74v5.81c-.41.1-.85.19-1.31.27V73.74Z"/><path class="cls-191" d="M51.34,73.74V80c-.53.08-1.08.13-1.65.18V73.74Z"/><path class="cls-191" d="M47.84,73.74v6.59l-1.33,0c-.5,0-1,0-1.46,0V73.74Z"/><ellipse class="cls-2" cx="46.5" cy="74.02" rx="12.35" ry="3.79"/><path class="cls-101" d="M51.34,70.54l-2.19,1.23c-.48,0-1.06-.08-1.81-.09v-.45H45.66v.49c-1.83.1-2.89.46-2.89.91s1.25.75,3.08.94h.08l-1.25.7c-.57,0-1.08-.11-1.5-.17l-.52.6c.27,0,.63.09,1,.13l-3.43,1.92c-3.33-.63-5.54-1.73-5.54-3,0-1.94,5.27-3.51,11.78-3.51A37.13,37.13,0,0,1,51.34,70.54Z"/><path class="cls-3" d="M51.34,70.54l-2.19,1.23-1,.53c-.37,0-.81,0-1.33,0-1.11,0-1.47.14-1.47.29s.5.25,1.68.39l-1.14.64-1.25.7-1,.55-3.43,1.92a34.82,34.82,0,0,0,6.23.53c6.51,0,11.78-1.58,11.78-3.52C58.28,72.32,55.43,71.09,51.34,70.54Z"/><ellipse class="cls-2" cx="46.5" cy="73.75" rx="9.44" ry="2.82"/><path class="cls-4" d="M50.23,71.16a29.44,29.44,0,0,0-3.73-.23c-5.21,0-9.44,1.26-9.44,2.82,0,1,1.72,1.86,4.31,2.37Z"/><path class="cls-192" d="M46.5,71.94c4.63,0,8.48,1,9.28,2.31a1,1,0,0,0,.16-.5c0-1.56-4.22-2.82-9.44-2.82s-9.44,1.26-9.44,2.82a1,1,0,0,0,.16.5C38,72.94,41.87,71.94,46.5,71.94Z"/><path class="cls-192" d="M49.07,73.93a16.2,16.2,0,0,0-1.63-.24c-1.45-.16-2.05-.27-2.05-.44s.36-.29,1.47-.29a17.18,17.18,0,0,1,2.46.17l.5-.58v-.71H45.16v.62a10.17,10.17,0,0,0-1.11.16H42.77v.74h0c.05.48,1.28.72,3.07.9,1.21.12,1.76.24,1.8.42h-5v.71a20.79,20.79,0,0,0,2.91.22v.49h1.68v-.52c1.93-.1,3-.48,3-.92h0v-.74Z"/><path class="cls-3" d="M47.44,73l-.37,0-1.14.64c1.22.13,1.73.25,1.73.43s-.67.32-1.64.32c-.47,0-.92,0-1.34-.06l-1,.55c.56,0,1.21.08,1.87.09v.49h1.68v-.52c2-.1,3-.49,3-.94S49.47,73.18,47.44,73Zm1.71-1.2-1,.53c.5,0,.87.08,1.13.12l.5-.57Z"/><path class="cls-101" d="M45.38,72.53c0,.15.5.25,1.68.39l-1.14.64h-.08c-1.82-.19-3.08-.44-3.08-.94s1.06-.8,2.89-.91v-.49h1.67v.45c.75,0,1.34,0,1.81.09l-1,.53c-.37,0-.81,0-1.33,0C45.75,72.25,45.38,72.39,45.38,72.53Z"/><path class="cls-101" d="M44.68,74.26l-1,.55c-.41,0-.76-.08-1-.13l.52-.6C43.59,74.16,44.1,74.22,44.68,74.26Z"/><path class="cls-190" d="M60.67,70.49V73a1.61,1.61,0,0,1-.57,1.14,4.09,4.09,0,0,1-.88.64,9.4,9.4,0,0,1-1,.48c-.34.13-.69.27-1.08.38s-.78.23-1.22.34-.85.19-1.31.27-1,.16-1.46.22-1.08.13-1.65.18-1.22.08-1.85.11l-1.34,0c-.5,0-1,0-1.46,0s-1.24-.06-1.84-.11-1.13-.11-1.66-.18-1-.15-1.45-.23S41,76.1,40.6,76s-.84-.22-1.22-.35-.75-.26-1.09-.4a7.2,7.2,0,0,1-1-.5,3.81,3.81,0,0,1-.89-.71A1.49,1.49,0,0,1,36,73V70.49h5.16l.77-.15a37.54,37.54,0,0,1,12.71,0l.89.17Z"/><path class="cls-191" d="M37.31,70.22v4.54a3.81,3.81,0,0,1-.89-.71V70.22Z"/><path class="cls-191" d="M39.39,70.22v5.43q-.59-.19-1.09-.4v-5Z"/><path class="cls-191" d="M41.91,70.22v6.06c-.45-.08-.89-.18-1.31-.28V70.22Z"/><path class="cls-191" d="M45,70.22v6.47c-.57,0-1.13-.11-1.66-.18V70.22Z"/><path class="cls-191" d="M60.1,70.22v4a4.09,4.09,0,0,1-.88.64V70.22Z"/><path class="cls-191" d="M58.23,70.22v5.09c-.34.13-.69.27-1.08.38V70.22Z"/><path class="cls-191" d="M55.93,70.22V76c-.41.1-.85.19-1.31.27V70.22Z"/><path class="cls-191" d="M53.16,70.22v6.3c-.53.08-1.08.13-1.65.18V70.22Z"/><path class="cls-191" d="M49.66,70.22v6.59l-1.34,0c-.5,0-1,0-1.46,0V70.22Z"/><ellipse class="cls-2" cx="48.33" cy="70.49" rx="12.35" ry="3.79"/><path class="cls-101" d="M53.16,67,51,68.24c-.48,0-1.06-.08-1.81-.09V67.7H47.49v.49c-1.83.11-2.89.46-2.89.91s1.25.75,3.08.94h.08l-1.25.7c-.57,0-1.08-.1-1.5-.17l-.52.6c.27,0,.63.09,1,.13l-3.43,1.92c-3.33-.63-5.54-1.73-5.54-3,0-1.94,5.27-3.52,11.78-3.52A37.12,37.12,0,0,1,53.16,67Z"/><path class="cls-3" d="M53.16,67,51,68.24l-1,.53c-.37,0-.81,0-1.34,0-1.11,0-1.47.14-1.47.29s.5.25,1.68.39L47.75,70l-1.25.7-1,.55-3.43,1.92a34.82,34.82,0,0,0,6.23.53c6.51,0,11.78-1.58,11.78-3.52C60.1,68.79,57.26,67.56,53.16,67Z"/><ellipse class="cls-2" cx="48.33" cy="70.22" rx="9.44" ry="2.82"/><path class="cls-4" d="M52.05,67.63a29.45,29.45,0,0,0-3.73-.23c-5.21,0-9.44,1.26-9.44,2.82,0,1,1.72,1.86,4.31,2.37Z"/><path class="cls-192" d="M48.33,68.41c4.63,0,8.48,1,9.28,2.31a1,1,0,0,0,.16-.5c0-1.56-4.22-2.82-9.44-2.82s-9.44,1.26-9.44,2.82a1,1,0,0,0,.16.5C39.85,69.41,43.69,68.41,48.33,68.41Z"/><path class="cls-192" d="M50.9,70.4a15.9,15.9,0,0,0-1.63-.24c-1.45-.16-2.05-.27-2.05-.44s.36-.29,1.47-.29a17.27,17.27,0,0,1,2.46.17l.5-.58v-.71H47v.62a10.09,10.09,0,0,0-1.11.16H44.59v.74h0c.05.47,1.28.72,3.07.9,1.21.12,1.76.24,1.8.42h-5v.71a20.94,20.94,0,0,0,2.91.22v.48h1.68v-.52c1.93-.1,3-.48,3-.92h0V70.4Z"/><path class="cls-3" d="M49.26,69.44l-.37,0L47.75,70c1.22.13,1.73.25,1.73.43s-.67.32-1.64.32c-.47,0-.92,0-1.34-.06l-1,.55c.56,0,1.21.08,1.87.09v.49h1.68v-.52c2-.1,3-.49,3-.94S51.3,69.66,49.26,69.44ZM51,68.24l-1,.53c.5,0,.87.08,1.13.12l.5-.57Z"/><path class="cls-101" d="M47.21,69c0,.15.5.25,1.68.39L47.75,70h-.08c-1.82-.19-3.08-.44-3.08-.94s1.06-.8,2.89-.91V67.7h1.67v.45c.75,0,1.33,0,1.81.09l-1,.53c-.37,0-.81,0-1.34,0C47.57,68.72,47.21,68.86,47.21,69Z"/><path class="cls-101" d="M46.5,70.74l-1,.55c-.4,0-.76-.08-1-.13l.52-.6C45.42,70.63,45.93,70.69,46.5,70.74Z"/><path class="cls-190" d="M62,67v2.55a1.61,1.61,0,0,1-.57,1.14,4.11,4.11,0,0,1-.88.64,9.46,9.46,0,0,1-1,.48c-.34.13-.69.27-1.08.38s-.78.23-1.22.34-.85.19-1.31.27-1,.16-1.46.22-1.08.13-1.65.18-1.22.08-1.85.1l-1.33,0c-.5,0-1,0-1.46,0s-1.24-.06-1.85-.11-1.13-.1-1.66-.18-1-.15-1.45-.23-.89-.18-1.31-.28-.84-.22-1.22-.35-.75-.26-1.09-.4a7.14,7.14,0,0,1-1-.5,3.84,3.84,0,0,1-.89-.71,1.49,1.49,0,0,1-.45-1V67h5.16l.77-.15a37.58,37.58,0,0,1,12.71,0l.89.17Z"/><path class="cls-191" d="M38.65,66.69v4.54a3.84,3.84,0,0,1-.89-.71V66.69Z"/><path class="cls-191" d="M40.72,66.69v5.43q-.59-.19-1.09-.4v-5Z"/><path class="cls-191" d="M43.24,66.69v6.06c-.45-.08-.89-.18-1.31-.28V66.69Z"/><path class="cls-191" d="M46.35,66.69v6.47c-.57,0-1.13-.1-1.66-.18V66.69Z"/><path class="cls-191" d="M61.44,66.69v4a4.11,4.11,0,0,1-.88.64V66.69Z"/><path class="cls-191" d="M59.56,66.69v5.09c-.34.13-.69.27-1.08.38V66.69Z"/><path class="cls-191" d="M57.26,66.69V72.5c-.41.1-.85.19-1.31.27V66.69Z"/><path class="cls-191" d="M54.5,66.69V73c-.53.08-1.08.13-1.65.18V66.69Z"/><path class="cls-191" d="M51,66.69v6.59l-1.33,0c-.5,0-1,0-1.46,0V66.69Z"/><ellipse class="cls-2" cx="49.66" cy="66.97" rx="12.35" ry="3.79"/><path class="cls-101" d="M54.5,63.48,52.3,64.71c-.48,0-1.06-.08-1.81-.09v-.45H48.82v.49c-1.83.1-2.89.46-2.89.91s1.25.75,3.08.94h.08l-1.25.7c-.57,0-1.08-.11-1.5-.17l-.52.6c.27,0,.63.09,1,.13l-3.43,1.92c-3.33-.63-5.54-1.73-5.54-3,0-1.94,5.27-3.51,11.78-3.51A37.13,37.13,0,0,1,54.5,63.48Z"/><path class="cls-3" d="M54.5,63.48,52.3,64.71l-1,.53c-.37,0-.81,0-1.33,0-1.11,0-1.47.14-1.47.29s.5.25,1.68.39l-1.14.64-1.25.7-1,.55-3.43,1.92a34.81,34.81,0,0,0,6.23.53c6.51,0,11.78-1.58,11.78-3.52C61.44,65.27,58.59,64,54.5,63.48Z"/><ellipse class="cls-2" cx="49.66" cy="66.7" rx="9.44" ry="2.82"/><path class="cls-4" d="M53.39,64.11a29.44,29.44,0,0,0-3.73-.23c-5.21,0-9.44,1.26-9.44,2.82,0,1,1.72,1.86,4.31,2.37Z"/><path class="cls-192" d="M49.66,64.89c4.63,0,8.48,1,9.28,2.31a1,1,0,0,0,.16-.5c0-1.56-4.22-2.82-9.44-2.82s-9.44,1.26-9.44,2.82a1,1,0,0,0,.16.5C41.18,65.88,45,64.89,49.66,64.89Z"/><path class="cls-192" d="M52.23,66.87a16,16,0,0,0-1.63-.24c-1.45-.16-2.05-.27-2.05-.44s.36-.29,1.47-.29a17.21,17.21,0,0,1,2.46.17l.5-.58v-.71H48.32v.62a10.05,10.05,0,0,0-1.11.16H45.93v.74h0c.05.48,1.28.72,3.07.9,1.21.12,1.76.24,1.8.42h-5v.71a20.79,20.79,0,0,0,2.91.22v.49h1.68v-.52c1.93-.1,3-.48,3-.92h0v-.74Z"/><path class="cls-3" d="M50.6,65.92l-.37,0-1.14.64c1.22.13,1.73.25,1.73.43s-.67.32-1.64.32c-.47,0-.92,0-1.34-.06l-1,.55c.56,0,1.21.08,1.87.09v.49h1.68v-.52c2-.1,3-.49,3-.94S52.63,66.13,50.6,65.92Zm1.7-1.2-1,.53c.5,0,.87.08,1.13.12l.5-.57Z"/><path class="cls-101" d="M48.54,65.48c0,.15.5.25,1.68.39l-1.14.64H49c-1.82-.19-3.08-.44-3.08-.94s1.06-.8,2.89-.91v-.49h1.67v.45c.75,0,1.34,0,1.81.09l-1,.53c-.37,0-.81,0-1.33,0C48.91,65.2,48.54,65.34,48.54,65.48Z"/><path class="cls-101" d="M47.84,67.21l-1,.55c-.41,0-.76-.08-1-.13l.52-.6C46.75,67.1,47.26,67.17,47.84,67.21Z"/><path class="cls-190" d="M60.67,63.44V66a1.61,1.61,0,0,1-.57,1.14,4.09,4.09,0,0,1-.88.64,9.4,9.4,0,0,1-1,.48c-.34.13-.69.27-1.08.38s-.78.23-1.22.34-.85.19-1.31.27-1,.16-1.46.22-1.08.13-1.65.18-1.22.08-1.85.1l-1.34,0c-.5,0-1,0-1.46,0s-1.24-.06-1.84-.11-1.13-.11-1.66-.18-1-.15-1.45-.23S41,69,40.6,68.95s-.84-.22-1.22-.35-.75-.26-1.09-.4a7.14,7.14,0,0,1-1-.5,3.81,3.81,0,0,1-.89-.71A1.49,1.49,0,0,1,36,66V63.44h5.16l.77-.15a37.54,37.54,0,0,1,12.71,0l.89.17Z"/><path class="cls-191" d="M37.31,63.17V67.7a3.81,3.81,0,0,1-.89-.71V63.17Z"/><path class="cls-191" d="M39.39,63.17V68.6q-.59-.19-1.09-.4v-5Z"/><path class="cls-191" d="M41.91,63.17v6.06c-.45-.08-.89-.18-1.31-.28V63.17Z"/><path class="cls-191" d="M45,63.17v6.47c-.57,0-1.13-.11-1.66-.18V63.17Z"/><path class="cls-191" d="M60.1,63.17v4a4.09,4.09,0,0,1-.88.64V63.17Z"/><path class="cls-191" d="M58.23,63.17v5.09c-.34.13-.69.27-1.08.38V63.17Z"/><path class="cls-191" d="M55.93,63.17V69c-.41.1-.85.19-1.31.27V63.17Z"/><path class="cls-191" d="M53.16,63.17v6.3c-.53.08-1.08.13-1.65.18V63.17Z"/><path class="cls-191" d="M49.66,63.17v6.59l-1.34,0c-.5,0-1,0-1.46,0V63.17Z"/><ellipse class="cls-2" cx="48.33" cy="63.44" rx="12.35" ry="3.79"/><path class="cls-101" d="M53.16,60,51,61.19c-.48,0-1.06-.08-1.81-.09v-.45H47.49v.49c-1.83.11-2.89.46-2.89.91s1.25.75,3.08.94h.08l-1.25.7c-.57,0-1.08-.1-1.5-.17l-.52.6c.27,0,.63.09,1,.13l-3.43,1.92c-3.33-.63-5.54-1.73-5.54-3,0-1.94,5.27-3.52,11.78-3.52A37.12,37.12,0,0,1,53.16,60Z"/><path class="cls-3" d="M53.16,60,51,61.19l-1,.53c-.37,0-.81,0-1.34,0-1.11,0-1.47.14-1.47.29s.5.25,1.68.39L47.75,63l-1.25.7-1,.55-3.43,1.92a34.81,34.81,0,0,0,6.23.53c6.51,0,11.78-1.58,11.78-3.52C60.1,61.74,57.26,60.51,53.16,60Z"/><ellipse class="cls-2" cx="48.33" cy="63.17" rx="9.44" ry="2.82"/><path class="cls-4" d="M52.05,60.58a29.44,29.44,0,0,0-3.73-.23c-5.21,0-9.44,1.26-9.44,2.82,0,1,1.72,1.86,4.31,2.36Z"/><path class="cls-192" d="M48.33,61.36c4.63,0,8.48,1,9.28,2.31a1,1,0,0,0,.16-.5c0-1.56-4.22-2.82-9.44-2.82s-9.44,1.26-9.44,2.82a1,1,0,0,0,.16.5C39.85,62.36,43.69,61.36,48.33,61.36Z"/><path class="cls-192" d="M50.9,63.35a16,16,0,0,0-1.63-.24c-1.45-.16-2.05-.27-2.05-.44s.36-.29,1.47-.29a17.27,17.27,0,0,1,2.46.17l.5-.58v-.71H47v.62a10.21,10.21,0,0,0-1.11.16H44.59v.74h0c.05.47,1.28.72,3.07.9,1.21.12,1.76.24,1.8.42h-5v.71A20.78,20.78,0,0,0,47.4,65v.48h1.68V65c1.93-.1,3-.48,3-.92h0v-.74Z"/><path class="cls-3" d="M49.26,62.39l-.37,0L47.75,63c1.22.13,1.73.25,1.73.43s-.67.32-1.64.32c-.47,0-.92,0-1.34-.06l-1,.55c.56,0,1.21.08,1.87.09v.49h1.68v-.52c2-.1,3-.49,3-.94S51.3,62.61,49.26,62.39ZM51,61.19l-1,.53c.5,0,.87.08,1.13.12l.5-.57Z"/><path class="cls-101" d="M47.21,62c0,.15.5.25,1.68.39L47.75,63h-.08c-1.82-.19-3.08-.44-3.08-.94s1.06-.8,2.89-.91v-.49h1.67v.45c.75,0,1.33,0,1.81.09l-1,.53c-.37,0-.81,0-1.34,0C47.57,61.67,47.21,61.81,47.21,62Z"/><path class="cls-101" d="M46.5,63.68l-1,.55c-.4,0-.76-.08-1-.13l.52-.6C45.42,63.58,45.93,63.64,46.5,63.68Z"/><path class="cls-190" d="M72,89.12v2.55a1.61,1.61,0,0,1-.57,1.14,4.12,4.12,0,0,1-.88.64,9.46,9.46,0,0,1-1,.48c-.34.13-.69.27-1.08.38s-.78.23-1.22.34-.85.19-1.31.27-1,.16-1.46.22-1.08.13-1.65.18-1.22.08-1.85.1l-1.33,0c-.5,0-1,0-1.46,0s-1.24-.06-1.85-.11-1.13-.1-1.66-.18-1-.15-1.45-.23-.89-.18-1.31-.28-.84-.22-1.22-.35-.75-.26-1.09-.4a7.11,7.11,0,0,1-1-.5,3.84,3.84,0,0,1-.89-.71,1.49,1.49,0,0,1-.45-1V89.12h5.16l.77-.15a37.58,37.58,0,0,1,12.71,0l.89.17Z"/><path class="cls-191" d="M48.65,88.85v4.54a3.84,3.84,0,0,1-.89-.71V88.85Z"/><path class="cls-191" d="M50.72,88.85v5.43q-.59-.19-1.09-.4v-5Z"/><path class="cls-191" d="M53.25,88.85V94.9c-.45-.08-.89-.18-1.31-.28V88.85Z"/><path class="cls-191" d="M56.35,88.85v6.47c-.57,0-1.13-.1-1.66-.18V88.85Z"/><path class="cls-191" d="M71.44,88.85v4a4.12,4.12,0,0,1-.88.64V88.85Z"/><path class="cls-191" d="M69.56,88.85v5.09c-.34.13-.69.27-1.08.38V88.85Z"/><path class="cls-191" d="M67.26,88.85v5.81c-.41.1-.85.19-1.31.27V88.85Z"/><path class="cls-191" d="M64.5,88.85v6.3c-.53.08-1.08.13-1.65.18V88.85Z"/><path class="cls-191" d="M61,88.85v6.59l-1.33,0c-.5,0-1,0-1.46,0V88.85Z"/><ellipse class="cls-2" cx="59.66" cy="89.12" rx="12.35" ry="3.79"/><path class="cls-101" d="M64.5,85.64,62.3,86.87c-.48,0-1.06-.08-1.81-.09v-.45H58.82v.49c-1.83.1-2.89.46-2.89.91s1.25.75,3.08.94h.08l-1.25.7c-.57,0-1.08-.11-1.5-.17l-.52.6c.27,0,.63.09,1,.13l-3.43,1.92c-3.33-.63-5.54-1.73-5.54-3,0-1.94,5.27-3.51,11.78-3.51A37,37,0,0,1,64.5,85.64Z"/><path class="cls-3" d="M64.5,85.64,62.3,86.87l-1,.53c-.37,0-.81,0-1.34,0-1.11,0-1.47.14-1.47.29s.5.25,1.68.39l-1.14.64-1.25.7-1,.55-3.43,1.92a34.82,34.82,0,0,0,6.23.53c6.51,0,11.78-1.58,11.78-3.52C71.44,87.42,68.59,86.19,64.5,85.64Z"/><ellipse class="cls-2" cx="59.66" cy="88.85" rx="9.44" ry="2.82"/><path class="cls-4" d="M63.39,86.26A29.45,29.45,0,0,0,59.66,86c-5.21,0-9.44,1.26-9.44,2.82,0,1,1.72,1.86,4.32,2.37Z"/><path class="cls-192" d="M59.66,87c4.63,0,8.48,1,9.28,2.31a1,1,0,0,0,.16-.5c0-1.56-4.22-2.82-9.44-2.82s-9.44,1.26-9.44,2.82a1,1,0,0,0,.16.5C51.18,88,55,87,59.66,87Z"/><path class="cls-192" d="M62.23,89a16,16,0,0,0-1.63-.24c-1.45-.16-2.05-.27-2.05-.44s.36-.29,1.47-.29a17.19,17.19,0,0,1,2.46.17l.5-.58v-.71H58.32v.62a10.07,10.07,0,0,0-1.11.16H55.93v.74h0c.05.47,1.28.72,3.07.9,1.21.12,1.76.24,1.8.42h-5v.71a20.79,20.79,0,0,0,2.91.22v.49h1.68v-.52c1.93-.1,3-.48,3-.92h0V89Z"/><path class="cls-3" d="M60.6,88.07l-.37,0-1.14.64c1.22.13,1.73.25,1.73.43s-.67.32-1.64.32c-.47,0-.92,0-1.34-.06l-1,.55c.56,0,1.21.08,1.87.09v.49h1.68V90c2-.1,3-.49,3-.94S62.63,88.29,60.6,88.07Zm1.7-1.2-1,.53c.5,0,.87.08,1.12.12l.5-.57Z"/><path class="cls-101" d="M58.54,87.64c0,.15.5.25,1.68.39l-1.14.64H59c-1.82-.19-3.08-.44-3.08-.94s1.06-.8,2.89-.91v-.49h1.67v.45c.75,0,1.33,0,1.81.09l-1,.53c-.37,0-.81,0-1.34,0C58.91,87.35,58.54,87.49,58.54,87.64Z"/><path class="cls-101" d="M57.84,89.36l-1,.55c-.41,0-.76-.08-1-.13l.52-.6C56.75,89.26,57.26,89.32,57.84,89.36Z"/><path class="cls-193" d="M6.27,81.41,4.08,83.75l42.46,15,5.34-6.25S15.2,76.08,6.27,81.41Z"/><path class="cls-194" d="M4.61,79,2.28,80.79l42,16.71,5.53-6.08S11.78,75.11,4.61,79Z"/><path class="cls-195" d="M122.75,75.91s-29.14-1.84-33.47-2.4-19.6-7.38-32,5.6L45.8,80.52s-12.37-3.61-15.75,1.82c0,0-18.33-8.94-24.65-2.91,0,0,32.89,14.64,36.55,18,0,0,6.1,5.9,9.12,5S81.35,93.05,92.55,93l33.26,2.82Z"/><path class="cls-194" d="M30.05,82.34s-4.06,8.3,27.84,7l8.55-2.53-8,3.9S26.26,92.94,30.05,82.34Z"/><path class="cls-196" d="M38.55,82.43s.71,2.81-1.27,4.52c0,0-6.12-.51-6-2.87C31.53,80.31,38.55,82.43,38.55,82.43Z"/><polygon class="cls-6" points="94.04 71.57 95.41 98.5 142.96 100.02 142.24 68.11 94.04 71.57"/><polygon class="cls-197" points="99.08 68.35 98.8 102.44 148 105.57 147.34 64.43 99.08 68.35"/><polygon class="cls-198" points="147.82 94.6 98.87 93.51 98.8 102.44 148 105.57 147.82 94.6"/><circle class="cls-199" cx="108.38" cy="97.99" r="2.53" transform="translate(-13.63 17.6) rotate(-8.74)"/><circle class="cls-199" cx="116.89" cy="98.49" r="2.53" transform="translate(-13.61 18.91) rotate(-8.74)"/></g></g></g></svg>