<svg xmlns="http://www.w3.org/2000/svg" viewBox="0 0 150 150"><defs><style>.cls-1{isolation:isolate;}.cls-2,.cls-3{fill:#0071bc;}.cls-3{opacity:0.5;}.cls-11,.cls-3{mix-blend-mode:multiply;}.cls-4{fill:#f15a24;}.cls-5{fill:#fbb03b;}.cls-6{fill:#fff;}.cls-7{fill:#ffd13a;}.cls-8{fill:#fce4a2;}.cls-9{fill:#edac1f;}.cls-10{fill:#ffdf59;}.cls-12{fill:#c09436;}.cls-13{fill:#c09537;}.cls-14{fill:#c19538;}.cls-15{fill:#c19639;}.cls-16{fill:#c1963a;}.cls-17{fill:#c2973b;}.cls-18{fill:#c2973c;}.cls-19{fill:#c2983d;}.cls-20{fill:#c3983e;}.cls-21{fill:#c3993f;}.cls-22{fill:#c39940;}.cls-23{fill:#c39a41;}.cls-24{fill:#c49a42;}.cls-25{fill:#c49b43;}.cls-26{fill:#c49b44;}.cls-27{fill:#c59c45;}.cls-28{fill:#c59d46;}.cls-29{fill:#c59d47;}.cls-30{fill:#c69e48;}.cls-31{fill:#c69e49;}.cls-32{fill:#c69f4a;}.cls-33{fill:#c79f4b;}.cls-34{fill:#c7a04c;}.cls-35{fill:#c7a04d;}.cls-36{fill:#c8a14e;}.cls-37{fill:#c8a14f;}.cls-38{fill:#c8a250;}.cls-39{fill:#c8a251;}.cls-40{fill:#c9a352;}.cls-41{fill:#c9a353;}.cls-42{fill:#c9a454;}.cls-43{fill:#caa555;}.cls-44{fill:#caa556;}.cls-45{fill:#caa657;}.cls-46{fill:#cba658;}.cls-47{fill:#cba759;}.cls-48{fill:#cba75a;}.cls-49{fill:#cca85b;}.cls-50{fill:#cca85c;}.cls-51{fill:#cca95d;}.cls-52{fill:#cda95e;}.cls-53{fill:#cdaa5f;}.cls-54{fill:#cdaa60;}.cls-55{fill:#cdab61;}.cls-56{fill:#ceab62;}.cls-57{fill:#ceac63;}.cls-58{fill:#ceac64;}.cls-59{fill:#cfad65;}.cls-60{fill:#cfae66;}.cls-61{fill:#cfae67;}.cls-62{fill:#d0af68;}.cls-63{fill:#d0af69;}.cls-64{fill:#d0b06a;}.cls-65{fill:#d1b06b;}.cls-66{fill:#d1b16c;}.cls-67{fill:#d1b16d;}.cls-68{fill:#d2b26e;}.cls-69{fill:#d2b26f;}.cls-70{fill:#d2b370;}.cls-71{fill:#d2b371;}.cls-72{fill:#d3b472;}.cls-73{fill:#d3b473;}.cls-74{fill:#d3b574;}.cls-75{fill:#d4b675;}.cls-76{fill:#d4b676;}.cls-77{fill:#d4b777;}.cls-78{fill:#d5b778;}.cls-79{fill:#d5b879;}.cls-80{fill:#d5b87a;}.cls-81{fill:#d6b97b;}.cls-82{fill:#d6b97c;}.cls-83{fill:#d6ba7d;}.cls-84{fill:#d7ba7e;}.cls-85{fill:#d7bb7f;}.cls-86{fill:#d7bb80;}.cls-87{fill:#d8bc81;}.cls-88{fill:#d8bc82;}.cls-89{fill:#d8bd83;}.cls-90{fill:#d8be84;}.cls-91{fill:#d9be85;}.cls-92{fill:#d9bf86;}.cls-93{fill:#d9bf87;}.cls-94{fill:#dac088;}.cls-95{fill:#dac089;}.cls-96{fill:#dac18a;}.cls-97{fill:#dbc18b;}.cls-98{fill:#dbc28c;}.cls-99{fill:#dbc28d;}.cls-100{fill:#dcc38e;}.cls-101{fill:#dcc38f;}.cls-102{fill:#dcc490;}.cls-103{fill:#ddc491;}.cls-104{fill:#ddc592;}.cls-105{fill:#ddc693;}.cls-106{fill:#ddc694;}.cls-107{fill:#dec795;}.cls-108{fill:#dec796;}.cls-109{fill:#dec897;}.cls-110{fill:#dfc898;}.cls-111{fill:#dfc999;}.cls-112{fill:#dfc99a;}.cls-113{fill:#e0ca9b;}.cls-114{fill:#e0ca9c;}.cls-115{fill:#e0cb9d;}.cls-116{fill:#e1cb9e;}.cls-117{fill:#e1cc9f;}.cls-118{fill:#e1cca0;}.cls-119{fill:#e2cda1;}.cls-120{fill:#e2cda2;}.cls-121{fill:#e2cea3;}.cls-122{fill:#e2cfa4;}.cls-123{fill:#e3cfa5;}.cls-124{fill:#e3d0a6;}.cls-125{fill:#e3d0a7;}.cls-126{fill:#e4d1a8;}.cls-127{fill:#e4d1a9;}.cls-128{fill:#e4d2aa;}.cls-129{fill:#e5d2ab;}.cls-130{fill:#e5d3ac;}.cls-131{fill:#e5d3ad;}.cls-132{fill:#e6d4ae;}.cls-133{fill:#e6d4af;}.cls-134{fill:#e6d5b0;}.cls-135{fill:#e7d5b1;}.cls-136{fill:#e7d6b2;}.cls-137{fill:#e7d7b3;}.cls-138{fill:#e7d7b4;}.cls-139{fill:#e8d8b5;}.cls-140{fill:#e8d8b6;}.cls-141{fill:#e8d9b7;}.cls-142{fill:#e9d9b8;}.cls-143{fill:#e9dab9;}.cls-144{fill:#e9daba;}.cls-145{fill:#eadbbb;}.cls-146{fill:#eadbbc;}.cls-147{fill:#eadcbd;}.cls-148{fill:#ebdcbe;}.cls-149{fill:#ebddbf;}.cls-150{fill:#ebddc0;}.cls-151{fill:#ecdec1;}.cls-152{fill:#ecdfc2;}.cls-153{fill:#ecdfc3;}.cls-154{fill:#ede0c4;}.cls-155{fill:#ede0c5;}.cls-156{fill:#ede1c6;}.cls-157{fill:#ede1c7;}.cls-158{fill:#eee2c8;}.cls-159{fill:#eee2c9;}.cls-160{fill:#eee3ca;}.cls-161{fill:#efe3cb;}.cls-162{fill:#efe4cc;}.cls-163{fill:#efe4cd;}.cls-164{fill:#f0e5ce;}.cls-165{fill:#f0e5cf;}.cls-166{fill:#f0e6d0;}.cls-167{fill:#f1e7d1;}.cls-168{fill:#f1e7d2;}.cls-169{fill:#f1e8d3;}.cls-170{fill:#f2e8d4;}.cls-171{fill:#f2e9d5;}.cls-172{fill:#f2e9d6;}.cls-173{fill:#f2ead7;}.cls-174{fill:#f3ead8;}.cls-175{fill:#f3ebd9;}.cls-176{fill:#f3ebda;}.cls-177{fill:#f4ecdb;}.cls-178{fill:#f4ecdc;}.cls-179{fill:#f4eddd;}.cls-180{fill:#f5edde;}.cls-181{fill:#f5eedf;}.cls-182{fill:#f5eee0;}.cls-183{fill:#f6efe1;}.cls-184{fill:#f6f0e2;}.cls-185{fill:#f6f0e3;}.cls-186{fill:#f7f1e4;}.cls-187{fill:#f7f1e5;}.cls-188{fill:#f7f2e6;}.cls-189{fill:#f7f2e7;}.cls-190{fill:#f8f3e8;}.cls-191{fill:#f8f3e9;}.cls-192{fill:#f8f4ea;}.cls-193{fill:#f9f4eb;}.cls-194{fill:#f9f5ec;}.cls-195{fill:#f9f5ed;}.cls-196{fill:#faf6ee;}.cls-197{fill:#faf6ef;}.cls-198{fill:#faf7f0;}.cls-199{fill:#fbf8f1;}.cls-200{fill:#fbf8f2;}.cls-201{fill:#fbf9f3;}.cls-202{fill:#fcf9f4;}.cls-203{fill:#fcfaf5;}.cls-204{fill:#fcfaf6;}.cls-205{fill:#fcfbf7;}.cls-206{fill:#fdfbf8;}.cls-207{fill:#fdfcf9;}.cls-208{fill:#fdfcfa;}.cls-209{fill:#fefdfb;}.cls-210{fill:#fefdfc;}.cls-211{fill:#fefefd;}.cls-212{fill:#fffefe;}.cls-213{fill:#809b60;}.cls-214{fill:#f6ffa9;}.cls-215{fill:#ffdcad;}.cls-216{fill:#dce899;}.cls-217{fill:#90a87a;}.cls-218{fill:#e4f08a;}.cls-219{fill:#d1de80;}.cls-220{fill:#a0ad81;}.cls-221{fill:#a8cc74;}.cls-222{fill:#788d66;}.cls-223{fill:#94b26e;}.cls-224{fill:#a0d186;}.cls-225{fill:#82b269;}.cls-226{fill:#b3e897;}.cls-227{fill:#a3db84;}.cls-228{fill:#98b478;}.cls-229{fill:#d4877d;}.cls-230,.cls-233{fill:#ae4513;}.cls-231{fill:#fabb4b;}.cls-232{fill:#e38500;}.cls-233{fill-rule:evenodd;}.cls-234{fill:#9e3300;}.cls-235{fill:#ab4f23;}.cls-236{fill:#b88225;}.cls-237{fill:#dfac12;}.cls-238{fill:#ffd24a;}.cls-239{fill:#772700;}</style></defs><title>Artboard 2</title><g class="cls-1"><g id="Layer_16" data-name="Layer 16"><g id="Layer_14" data-name="Layer 14"><rect class="cls-2" x="61.35" y="-2.61" width="61.71" height="104.51" rx="5.72" ry="5.72" transform="translate(27.54 132.01) rotate(-80.16)"/><path class="cls-3" d="M143.76,58.17,139.4,83.34A5.72,5.72,0,0,1,132.79,88L81.61,79.12c.08-.89.21-1.78.36-2.68a35.94,35.94,0,0,1,61.79-18.27Z"/><path class="cls-3" d="M64.67,21.78a14.76,14.76,0,0,1-17.06,12,14.6,14.6,0,0,1-5.34-2.05L45,15.95a5.71,5.71,0,0,1,6.61-4.65l12,2.09A14.67,14.67,0,0,1,64.67,21.78Z"/><circle class="cls-4" cx="113.31" cy="70.31" r="6.11" transform="translate(24.67 169.94) rotate(-80.16)"/><circle class="cls-5" cx="126.69" cy="72.63" r="6.11" transform="translate(33.48 185.05) rotate(-80.16)"/><path class="cls-6" d="M52.46,44.52c-.32,1.82-1.16,2.71-2.35,2.5S48.53,45.74,48.82,44s1.26-2.65,2.34-2.46S52.76,42.82,52.46,44.52Zm-2.92-.42c-.24,1.39.05,2.25.71,2.37s1.24-.67,1.48-2,0-2.24-.71-2.37S49.8,42.65,49.55,44.1Z"/><path class="cls-6" d="M56.68,45.26c-.32,1.82-1.16,2.71-2.35,2.5S52.75,46.47,53,44.7s1.26-2.65,2.34-2.46S57,43.55,56.68,45.26Zm-2.92-.42c-.24,1.39.05,2.25.71,2.37s1.24-.67,1.48-2,0-2.24-.71-2.37S54,43.38,53.76,44.83Z"/><path class="cls-6" d="M64.39,46.59c-.32,1.82-1.16,2.71-2.35,2.5S60.46,47.81,60.75,46s1.26-2.65,2.34-2.46S64.68,44.89,64.39,46.59Zm-2.92-.42c-.24,1.39,0,2.25.71,2.37s1.24-.67,1.48-2,0-2.24-.71-2.37S61.72,44.71,61.47,46.17Z"/><path class="cls-6" d="M68.61,47.32c-.32,1.82-1.16,2.71-2.35,2.5S64.68,48.54,65,46.77s1.26-2.65,2.34-2.46S68.9,45.62,68.61,47.32Zm-2.92-.42c-.24,1.39.05,2.25.71,2.37s1.24-.67,1.48-2,0-2.24-.71-2.37S65.94,45.45,65.69,46.9Z"/><path class="cls-6" d="M72.83,48.06c-.32,1.82-1.16,2.71-2.35,2.5s-1.58-1.28-1.29-3.05,1.26-2.65,2.34-2.46S73.12,46.35,72.83,48.06Zm-2.92-.42c-.24,1.39.05,2.25.71,2.37s1.24-.67,1.48-2,0-2.24-.71-2.37S70.16,46.18,69.91,47.63Z"/><path class="cls-6" d="M82.27,49.69c-.32,1.82-1.16,2.71-2.35,2.5s-1.58-1.28-1.29-3.05,1.26-2.65,2.34-2.46S82.57,48,82.27,49.69Zm-2.92-.42c-.24,1.39,0,2.25.71,2.37s1.24-.67,1.48-2,0-2.24-.71-2.37S79.61,47.82,79.36,49.27Z"/><path class="cls-6" d="M86.49,50.43c-.32,1.82-1.16,2.71-2.35,2.5s-1.58-1.28-1.29-3.05,1.26-2.65,2.34-2.46S86.79,48.72,86.49,50.43ZM83.57,50c-.24,1.39,0,2.25.71,2.37s1.24-.67,1.48-2,0-2.24-.71-2.37S83.83,48.55,83.57,50Z"/><path class="cls-6" d="M90.71,51.16c-.32,1.82-1.16,2.71-2.35,2.5s-1.58-1.28-1.29-3.05,1.26-2.65,2.34-2.46S91,49.45,90.71,51.16Zm-2.92-.42c-.24,1.39,0,2.25.71,2.37s1.24-.67,1.48-2,0-2.24-.71-2.37S88,49.28,87.79,50.74Z"/><path class="cls-6" d="M94.93,51.89c-.32,1.82-1.16,2.71-2.35,2.5S91,53.11,91.29,51.33s1.26-2.65,2.34-2.46S95.22,50.19,94.93,51.89ZM92,51.47c-.24,1.39,0,2.25.71,2.37s1.24-.67,1.48-2,0-2.24-.71-2.37S92.26,50,92,51.47Z"/><path class="cls-6" d="M99.15,52.62c-.32,1.82-1.16,2.71-2.35,2.5s-1.58-1.28-1.29-3.05,1.26-2.65,2.34-2.46S99.44,50.92,99.15,52.62Zm-2.92-.42c-.24,1.39,0,2.25.71,2.37s1.24-.67,1.48-2,0-2.24-.71-2.37S96.48,50.74,96.23,52.2Z"/><path class="cls-6" d="M108.6,54.26c-.32,1.82-1.16,2.71-2.35,2.5s-1.58-1.28-1.29-3.05,1.26-2.65,2.34-2.46S108.89,52.56,108.6,54.26Zm-2.92-.42c-.24,1.39.05,2.25.71,2.37s1.24-.67,1.48-2,0-2.24-.71-2.37S105.93,52.38,105.68,53.84Z"/><path class="cls-6" d="M112.81,55c-.32,1.82-1.16,2.71-2.35,2.5s-1.58-1.28-1.29-3.05,1.26-2.65,2.34-2.46S113.11,53.29,112.81,55Zm-2.92-.42c-.24,1.39.05,2.25.71,2.37s1.24-.67,1.48-2,0-2.24-.71-2.37S110.15,53.11,109.9,54.57Z"/><path class="cls-6" d="M117,55.72c-.32,1.82-1.16,2.71-2.35,2.5s-1.58-1.28-1.29-3.05,1.26-2.65,2.34-2.46S117.33,54,117,55.72Zm-2.92-.42c-.24,1.39,0,2.25.71,2.37s1.24-.67,1.48-2,0-2.24-.71-2.37S114.37,53.85,114.11,55.3Z"/><path class="cls-6" d="M124.74,57.06c-.32,1.82-1.16,2.71-2.35,2.5s-1.58-1.28-1.29-3.05,1.26-2.65,2.34-2.46S125,55.36,124.74,57.06Zm-2.92-.42c-.24,1.39.05,2.25.71,2.37s1.24-.67,1.48-2,0-2.24-.71-2.37S122.07,55.18,121.82,56.64Z"/><path class="cls-6" d="M129,57.79c-.32,1.82-1.16,2.71-2.35,2.5S125,59,125.32,57.24s1.26-2.65,2.34-2.46S129.25,56.09,129,57.79ZM126,57.37c-.24,1.39.05,2.25.71,2.37s1.24-.67,1.48-2,0-2.24-.71-2.37S126.29,55.91,126,57.37Z"/><path class="cls-6" d="M133.18,58.52c-.32,1.82-1.16,2.71-2.35,2.5s-1.58-1.28-1.29-3.05,1.26-2.65,2.34-2.46S133.47,56.82,133.18,58.52Zm-2.92-.42c-.24,1.39.05,2.25.71,2.37s1.24-.67,1.48-2,0-2.24-.71-2.37S130.51,56.64,130.26,58.1Z"/><path class="cls-6" d="M137.39,59.25c-.32,1.82-1.16,2.71-2.35,2.5s-1.58-1.28-1.29-3.05,1.26-2.65,2.34-2.46S137.69,57.55,137.39,59.25Zm-2.92-.42c-.24,1.39.05,2.25.71,2.37s1.24-.67,1.48-2,0-2.24-.71-2.37S134.73,57.38,134.47,58.83Z"/><path class="cls-6" d="M141.61,60c-.32,1.82-1.16,2.71-2.35,2.5s-1.58-1.28-1.29-3.05,1.26-2.65,2.34-2.46S141.91,58.28,141.61,60Zm-2.92-.42c-.24,1.39.05,2.25.71,2.37s1.24-.67,1.48-2,0-2.24-.71-2.37S138.95,58.11,138.69,59.56Z"/><path class="cls-6" d="M48.29,49.47h0l-.37.12,0-.21.46-.15.22,0-.34,1.94-.25,0Z"/><path class="cls-6" d="M49,51.33l0-.16.24-.16c.58-.39.85-.6.9-.89a.35.35,0,0,0-.32-.45.67.67,0,0,0-.44.09l-.05-.2a.87.87,0,0,1,.58-.1.56.56,0,0,1,.5.67c-.06.36-.37.6-.85.93l-.18.12h0l.87.15,0,.22Z"/><path class="cls-6" d="M51.87,51.52a.89.89,0,0,0,.41.2.39.39,0,0,0,.5-.3c0-.27-.18-.43-.43-.48l-.15,0,0-.2.15,0c.19,0,.45,0,.49-.25s0-.31-.29-.35a.72.72,0,0,0-.41.06l0-.2a.93.93,0,0,1,.53-.06c.38.07.52.32.48.56a.49.49,0,0,1-.44.4h0a.51.51,0,0,1,.35.57.63.63,0,0,1-.81.46,1,1,0,0,1-.48-.22Z"/><path class="cls-6" d="M54.1,52.22l.09-.53-.9-.16,0-.17,1.08-1.09.28,0-.21,1.21.27,0,0,.21-.27,0-.09.53Zm.13-.74.11-.65c0-.1,0-.2.06-.3h0l-.21.26-.59.58h0Z"/><path class="cls-6" d="M56.28,50.83l-.74-.13-.16.49.16,0a.83.83,0,0,1,.4.18.56.56,0,0,1,.19.55.68.68,0,0,1-.84.54,1,1,0,0,1-.46-.2l.1-.19a.89.89,0,0,0,.4.18.44.44,0,0,0,.53-.34c0-.25-.1-.46-.48-.53l-.27,0,.29-.91.93.16Z"/><path class="cls-6" d="M59.66,51.38l-.2,0a.8.8,0,0,0-.8.57h0a.6.6,0,0,1,1,.59.66.66,0,0,1-.76.57c-.42-.07-.63-.44-.54-.95a1.24,1.24,0,0,1,.48-.82,1.08,1.08,0,0,1,.67-.18l.19,0Zm-.27,1.11a.4.4,0,0,0-.32-.51.44.44,0,0,0-.42.17.23.23,0,0,0-.05.11c0,.32.06.58.33.63S59.34,52.76,59.39,52.48Z"/><path class="cls-6" d="M61.38,51.48l0,.17-1.15,1.62-.27,0,1.14-1.57h0l-1-.16,0-.22Z"/><path class="cls-6" d="M61.37,53a.56.56,0,0,1,.48-.45h0a.49.49,0,0,1-.23-.49.55.55,0,0,1,.69-.41.51.51,0,0,1,.48.58.5.5,0,0,1-.4.4h0a.55.55,0,0,1,.3.57.61.61,0,0,1-.76.45C61.52,53.54,61.32,53.26,61.37,53Zm1,.17c0-.24-.1-.38-.35-.5a.43.43,0,0,0-.42.34.36.36,0,0,0,.32.44A.36.36,0,0,0,62.42,53.14ZM61.86,52c0,.19.1.32.31.42a.39.39,0,0,0,.36-.3.31.31,0,0,0-.27-.37A.31.31,0,0,0,61.86,52Z"/><path class="cls-6" d="M63,53.58l.21,0a.75.75,0,0,0,.44-.12A.87.87,0,0,0,64,53h0a.58.58,0,0,1-.49.13.57.57,0,0,1-.47-.69.68.68,0,0,1,.78-.58c.4.07.59.43.5.93a1.25,1.25,0,0,1-.49.85,1,1,0,0,1-.61.16l-.24,0Zm.29-1.1a.38.38,0,0,0,.3.48.44.44,0,0,0,.42-.14.18.18,0,0,0,0-.09c.06-.33,0-.61-.3-.65S63.36,52.2,63.31,52.48Z"/><path class="cls-6" d="M67.14,52.73h0l-.37.12,0-.21.46-.15.22,0-.34,1.94-.25,0Z"/><path class="cls-6" d="M68.67,53h0l-.37.12,0-.21.46-.15.22,0-.34,1.94-.25,0Z"/><path class="cls-6" d="M70.2,53.26h0l-.37.12,0-.21.46-.15.22,0L70.16,55l-.25,0Z"/><path class="cls-6" d="M71.73,53.53h0l-.37.12,0-.21.46-.15.22,0-.34,1.94-.25,0Z"/><path class="cls-6" d="M73.66,55.61l0-.16.24-.16c.58-.39.85-.6.9-.89a.35.35,0,0,0-.32-.45.67.67,0,0,0-.44.09l-.05-.2a.87.87,0,0,1,.58-.1.56.56,0,0,1,.5.67c-.06.36-.37.6-.85.93l-.18.12h0l.87.15,0,.22Z"/><path class="cls-6" d="M75.19,55.88l0-.16.24-.16c.58-.39.85-.6.9-.89a.35.35,0,0,0-.32-.45.67.67,0,0,0-.44.09l-.05-.2a.87.87,0,0,1,.58-.1.56.56,0,0,1,.5.67c-.06.36-.37.6-.85.93l-.18.12h0l.87.15,0,.22Z"/><path class="cls-6" d="M76.84,55.85a.89.89,0,0,0,.41.2.39.39,0,0,0,.5-.3c0-.27-.18-.43-.43-.48l-.15,0,0-.2.15,0c.19,0,.45,0,.49-.25s0-.31-.29-.35a.72.72,0,0,0-.41.06l0-.2a.93.93,0,0,1,.53-.06c.38.07.52.32.48.56a.49.49,0,0,1-.44.4h0a.51.51,0,0,1,.35.57.63.63,0,0,1-.81.46,1,1,0,0,1-.48-.22Z"/><path class="cls-6" d="M78.37,56.12a.89.89,0,0,0,.41.2.39.39,0,0,0,.5-.3c0-.27-.18-.43-.43-.48l-.15,0,0-.2.15,0c.19,0,.45,0,.49-.25s0-.31-.29-.35a.72.72,0,0,0-.41.06l0-.2a.93.93,0,0,1,.53-.06c.38.07.52.32.48.56a.49.49,0,0,1-.44.4h0a.51.51,0,0,1,.35.57.63.63,0,0,1-.81.46,1,1,0,0,1-.48-.22Z"/><path class="cls-6" d="M80.6,56.82l.09-.53-.9-.16,0-.17,1.08-1.09.28,0L81,56.13l.27,0,0,.21-.27,0-.09.53Zm.13-.74.11-.65c0-.1,0-.2.06-.3h0l-.21.26-.59.58h0Z"/><path class="cls-6" d="M82.13,57.08l.09-.53-.9-.16,0-.17,1.08-1.09.28,0-.21,1.21.27,0,0,.21-.27,0-.09.53Zm.13-.74.11-.65c0-.1,0-.2.06-.3h0l-.21.26-.59.58h0Z"/><rect class="cls-6" x="46.02" y="56.87" width="33.35" height="5.84" transform="translate(11.14 -9.83) rotate(9.84)"/><rect class="cls-7" x="52.96" y="22.66" width="12.93" height="17.14" rx="2.34" ry="2.34" transform="translate(18.51 84.45) rotate(-80.16)"/><rect class="cls-8" x="65.24" y="32.59" width="0.52" height="4.03" transform="translate(20.21 93.22) rotate(-80.16)"/><polygon class="cls-8" points="59.58 24.69 57.37 37.43 56.86 37.34 57.53 33.48 50.55 32.27 50.64 31.76 57.62 32.97 58.31 28.97 51.33 27.76 51.42 27.25 58.4 28.46 59.07 24.6 59.58 24.69"/><rect class="cls-6" x="105.87" y="29.99" width="9.66" height="9.66" transform="translate(7.58 -18.4) rotate(9.84)"/><rect class="cls-6" x="116.8" y="32.96" width="21.97" height="9.66" transform="translate(8.34 -21.28) rotate(9.84)"/><circle class="cls-9" cx="97.1" cy="88.88" r="15.48" transform="translate(-33.66 73.74) rotate(-35.86)"/><path class="cls-9" d="M88,76.33h0a15.48,15.48,0,0,0,18.14,25.1h0Z"/><path class="cls-10" d="M87.41,95.72A11.89,11.89,0,0,0,104,98.4l1.73,2.39a14.83,14.83,0,0,1-17.38-24l1.73,2.39A11.89,11.89,0,0,0,87.41,95.72Z"/><path class="cls-10" d="M106.61,81.82A11.89,11.89,0,0,0,90,79.14l-1.73-2.39a14.83,14.83,0,0,1,17.38,24L104,98.4A11.89,11.89,0,0,0,106.61,81.82Z"/><path class="cls-9" d="M91.48,89.1c1.23,1.7,3.13,1.64,5.45.92a7.06,7.06,0,0,1,.82-.21l1.68,2.32a4.12,4.12,0,0,1-.44.38,7.64,7.64,0,0,1-3.45,1.32l1,2.42A8.71,8.71,0,0,0,100,94.85l1.2,1.66.92-.67L104,98.4A11.88,11.88,0,0,1,90.05,79.14l1.77,2.45-.83.6,1.2,1.66C90.59,85.57,90.37,87.56,91.48,89.1Z"/><g class="cls-11"><ellipse class="cls-12" cx="97.06" cy="88.77" rx="11.86" ry="11.88" transform="matrix(0.81, -0.59, 0.59, 0.81, -33.6, 73.69)"/><ellipse class="cls-13" cx="97.07" cy="88.76" rx="11.85" ry="11.88" transform="translate(-33.6 73.69) rotate(-35.86)"/><ellipse class="cls-14" cx="97.08" cy="88.76" rx="11.84" ry="11.87" transform="translate(-33.6 73.7) rotate(-35.86)"/><ellipse class="cls-15" cx="97.09" cy="88.76" rx="11.83" ry="11.86" transform="translate(-33.59 73.7) rotate(-35.86)"/><ellipse class="cls-16" cx="97.09" cy="88.76" rx="11.83" ry="11.85" transform="matrix(0.81, -0.59, 0.59, 0.81, -33.59, 73.71)"/><ellipse class="cls-17" cx="97.1" cy="88.76" rx="11.82" ry="11.85" transform="translate(-33.59 73.71) rotate(-35.86)"/><ellipse class="cls-18" cx="97.11" cy="88.75" rx="11.81" ry="11.84" transform="translate(-33.59 73.72) rotate(-35.86)"/><ellipse class="cls-19" cx="97.12" cy="88.75" rx="11.8" ry="11.83" transform="translate(-33.58 73.72) rotate(-35.86)"/><ellipse class="cls-20" cx="97.13" cy="88.75" rx="11.8" ry="11.82" transform="translate(-33.58 73.73) rotate(-35.86)"/><ellipse class="cls-21" cx="97.13" cy="88.75" rx="11.79" ry="11.81" transform="translate(-33.58 73.73) rotate(-35.86)"/><ellipse class="cls-22" cx="97.14" cy="88.75" rx="11.78" ry="11.81" transform="translate(-33.58 73.73) rotate(-35.86)"/><ellipse class="cls-23" cx="97.15" cy="88.75" rx="11.77" ry="11.8" transform="translate(-33.57 73.74) rotate(-35.86)"/><ellipse class="cls-24" cx="97.16" cy="88.74" rx="11.77" ry="11.79" transform="translate(-33.57 73.74) rotate(-35.86)"/><ellipse class="cls-25" cx="97.17" cy="88.74" rx="11.76" ry="11.78" transform="translate(-33.57 73.75) rotate(-35.86)"/><ellipse class="cls-26" cx="97.17" cy="88.74" rx="11.75" ry="11.78" transform="translate(-33.57 73.75) rotate(-35.86)"/><ellipse class="cls-27" cx="97.18" cy="88.74" rx="11.74" ry="11.77" transform="matrix(0.81, -0.59, 0.59, 0.81, -33.56, 73.76)"/><ellipse class="cls-28" cx="97.19" cy="88.74" rx="11.73" ry="11.76" transform="translate(-33.56 73.76) rotate(-35.86)"/><ellipse class="cls-29" cx="97.2" cy="88.73" rx="11.73" ry="11.75" transform="translate(-33.56 73.76) rotate(-35.86)"/><ellipse class="cls-30" cx="97.21" cy="88.73" rx="11.72" ry="11.75" transform="translate(-33.56 73.77) rotate(-35.86)"/><ellipse class="cls-31" cx="97.21" cy="88.73" rx="11.71" ry="11.74" transform="translate(-33.55 73.77) rotate(-35.86)"/><ellipse class="cls-32" cx="97.22" cy="88.73" rx="11.7" ry="11.73" transform="translate(-33.55 73.78) rotate(-35.86)"/><ellipse class="cls-33" cx="97.23" cy="88.73" rx="11.7" ry="11.72" transform="translate(-33.55 73.78) rotate(-35.86)"/><ellipse class="cls-34" cx="97.24" cy="88.73" rx="11.69" ry="11.71" transform="translate(-33.55 73.79) rotate(-35.86)"/><ellipse class="cls-35" cx="97.25" cy="88.72" rx="11.68" ry="11.71" transform="translate(-33.54 73.79) rotate(-35.86)"/><ellipse class="cls-36" cx="97.25" cy="88.72" rx="11.67" ry="11.7" transform="translate(-33.54 73.8) rotate(-35.86)"/><ellipse class="cls-37" cx="97.26" cy="88.72" rx="11.67" ry="11.69" transform="translate(-33.54 73.8) rotate(-35.86)"/><ellipse class="cls-38" cx="97.27" cy="88.72" rx="11.66" ry="11.68" transform="translate(-33.53 73.8) rotate(-35.86)"/><ellipse class="cls-39" cx="97.28" cy="88.72" rx="11.65" ry="11.68" transform="translate(-33.53 73.81) rotate(-35.86)"/><ellipse class="cls-40" cx="97.29" cy="88.71" rx="11.64" ry="11.67" transform="translate(-33.53 73.81) rotate(-35.86)"/><ellipse class="cls-41" cx="97.3" cy="88.71" rx="11.63" ry="11.66" transform="translate(-33.53 73.82) rotate(-35.86)"/><ellipse class="cls-42" cx="97.3" cy="88.71" rx="11.63" ry="11.65" transform="translate(-33.52 73.82) rotate(-35.86)"/><ellipse class="cls-43" cx="97.31" cy="88.71" rx="11.62" ry="11.65" transform="translate(-33.52 73.83) rotate(-35.86)"/><ellipse class="cls-44" cx="97.32" cy="88.71" rx="11.61" ry="11.64" transform="translate(-33.52 73.83) rotate(-35.86)"/><ellipse class="cls-45" cx="97.33" cy="88.71" rx="11.6" ry="11.63" transform="translate(-33.52 73.83) rotate(-35.86)"/><ellipse class="cls-46" cx="97.34" cy="88.7" rx="11.6" ry="11.62" transform="translate(-33.51 73.84) rotate(-35.86)"/><ellipse class="cls-47" cx="97.34" cy="88.7" rx="11.59" ry="11.61" transform="translate(-33.51 73.84) rotate(-35.86)"/><ellipse class="cls-48" cx="97.35" cy="88.7" rx="11.58" ry="11.61" transform="translate(-33.51 73.85) rotate(-35.86)"/><ellipse class="cls-49" cx="97.36" cy="88.7" rx="11.57" ry="11.6" transform="translate(-33.51 73.85) rotate(-35.86)"/><ellipse class="cls-50" cx="97.37" cy="88.7" rx="11.57" ry="11.59" transform="translate(-33.5 73.86) rotate(-35.86)"/><ellipse class="cls-51" cx="97.38" cy="88.69" rx="11.56" ry="11.58" transform="translate(-33.5 73.86) rotate(-35.86)"/><ellipse class="cls-52" cx="97.38" cy="88.69" rx="11.55" ry="11.58" transform="translate(-33.5 73.86) rotate(-35.86)"/><ellipse class="cls-53" cx="97.39" cy="88.69" rx="11.54" ry="11.57" transform="translate(-33.5 73.87) rotate(-35.86)"/><ellipse class="cls-54" cx="97.4" cy="88.69" rx="11.54" ry="11.56" transform="translate(-33.49 73.87) rotate(-35.86)"/><ellipse class="cls-55" cx="97.41" cy="88.69" rx="11.53" ry="11.55" transform="translate(-33.49 73.88) rotate(-35.86)"/><ellipse class="cls-56" cx="97.42" cy="88.69" rx="11.52" ry="11.55" transform="translate(-33.49 73.88) rotate(-35.86)"/><ellipse class="cls-57" cx="97.42" cy="88.68" rx="11.51" ry="11.54" transform="translate(-33.49 73.89) rotate(-35.86)"/><ellipse class="cls-58" cx="97.43" cy="88.68" rx="11.5" ry="11.53" transform="translate(-33.48 73.89) rotate(-35.86)"/><ellipse class="cls-59" cx="97.44" cy="88.68" rx="11.5" ry="11.52" transform="translate(-33.48 73.9) rotate(-35.86)"/><ellipse class="cls-60" cx="97.45" cy="88.68" rx="11.49" ry="11.51" transform="translate(-33.48 73.9) rotate(-35.86)"/><ellipse class="cls-61" cx="97.46" cy="88.68" rx="11.48" ry="11.51" transform="translate(-33.48 73.9) rotate(-35.86)"/><ellipse class="cls-62" cx="97.46" cy="88.68" rx="11.47" ry="11.5" transform="translate(-33.47 73.91) rotate(-35.86)"/><ellipse class="cls-63" cx="97.47" cy="88.67" rx="11.47" ry="11.49" transform="translate(-33.47 73.91) rotate(-35.86)"/><ellipse class="cls-64" cx="97.48" cy="88.67" rx="11.46" ry="11.48" transform="translate(-33.47 73.92) rotate(-35.86)"/><ellipse class="cls-65" cx="97.49" cy="88.67" rx="11.45" ry="11.48" transform="translate(-33.47 73.92) rotate(-35.86)"/><ellipse class="cls-66" cx="97.5" cy="88.67" rx="11.44" ry="11.47" transform="translate(-33.46 73.93) rotate(-35.86)"/><ellipse class="cls-67" cx="97.5" cy="88.67" rx="11.44" ry="11.46" transform="translate(-33.46 73.93) rotate(-35.86)"/><ellipse class="cls-68" cx="97.51" cy="88.66" rx="11.43" ry="11.45" transform="translate(-33.46 73.93) rotate(-35.86)"/><ellipse class="cls-69" cx="97.52" cy="88.66" rx="11.42" ry="11.44" transform="translate(-33.45 73.94) rotate(-35.86)"/><ellipse class="cls-70" cx="97.53" cy="88.66" rx="11.41" ry="11.44" transform="translate(-33.45 73.94) rotate(-35.86)"/><ellipse class="cls-71" cx="97.54" cy="88.66" rx="11.4" ry="11.43" transform="translate(-33.45 73.95) rotate(-35.86)"/><ellipse class="cls-72" cx="97.54" cy="88.66" rx="11.4" ry="11.42" transform="translate(-33.45 73.95) rotate(-35.86)"/><ellipse class="cls-73" cx="97.55" cy="88.66" rx="11.39" ry="11.41" transform="translate(-33.44 73.96) rotate(-35.86)"/><ellipse class="cls-74" cx="97.56" cy="88.65" rx="11.38" ry="11.41" transform="matrix(0.81, -0.59, 0.59, 0.81, -33.44, 73.96)"/><ellipse class="cls-75" cx="97.57" cy="88.65" rx="11.37" ry="11.4" transform="translate(-33.44 73.97) rotate(-35.86)"/><ellipse class="cls-76" cx="97.58" cy="88.65" rx="11.37" ry="11.39" transform="translate(-33.44 73.97) rotate(-35.86)"/><ellipse class="cls-77" cx="97.58" cy="88.65" rx="11.36" ry="11.38" transform="translate(-33.43 73.97) rotate(-35.86)"/><ellipse class="cls-78" cx="97.59" cy="88.65" rx="11.35" ry="11.38" transform="translate(-33.43 73.98) rotate(-35.86)"/><ellipse class="cls-79" cx="97.6" cy="88.64" rx="11.34" ry="11.37" transform="translate(-33.43 73.98) rotate(-35.86)"/><ellipse class="cls-80" cx="97.61" cy="88.64" rx="11.34" ry="11.36" transform="translate(-33.43 73.99) rotate(-35.86)"/><ellipse class="cls-81" cx="97.62" cy="88.64" rx="11.33" ry="11.35" transform="translate(-33.42 73.99) rotate(-35.86)"/><ellipse class="cls-82" cx="97.62" cy="88.64" rx="11.32" ry="11.34" transform="translate(-33.42 74) rotate(-35.86)"/><ellipse class="cls-83" cx="97.63" cy="88.64" rx="11.31" ry="11.34" transform="translate(-33.42 74) rotate(-35.86)"/><ellipse class="cls-84" cx="97.64" cy="88.64" rx="11.3" ry="11.33" transform="translate(-33.42 74) rotate(-35.86)"/><ellipse class="cls-85" cx="97.65" cy="88.63" rx="11.3" ry="11.32" transform="translate(-33.41 74.01) rotate(-35.86)"/><ellipse class="cls-86" cx="97.66" cy="88.63" rx="11.29" ry="11.31" transform="translate(-33.41 74.01) rotate(-35.86)"/><ellipse class="cls-87" cx="97.67" cy="88.63" rx="11.28" ry="11.31" transform="translate(-33.41 74.02) rotate(-35.86)"/><ellipse class="cls-88" cx="97.67" cy="88.63" rx="11.27" ry="11.3" transform="translate(-33.41 74.02) rotate(-35.86)"/><ellipse class="cls-89" cx="97.68" cy="88.63" rx="11.27" ry="11.29" transform="translate(-33.4 74.03) rotate(-35.86)"/><ellipse class="cls-90" cx="97.69" cy="88.62" rx="11.26" ry="11.28" transform="matrix(0.81, -0.59, 0.59, 0.81, -33.4, 74.03)"/><ellipse class="cls-91" cx="97.7" cy="88.62" rx="11.25" ry="11.28" transform="translate(-33.4 74.03) rotate(-35.86)"/><ellipse class="cls-92" cx="97.71" cy="88.62" rx="11.24" ry="11.27" transform="translate(-33.4 74.04) rotate(-35.86)"/><ellipse class="cls-93" cx="97.71" cy="88.62" rx="11.24" ry="11.26" transform="translate(-33.39 74.04) rotate(-35.86)"/><ellipse class="cls-94" cx="97.72" cy="88.62" rx="11.23" ry="11.25" transform="translate(-33.39 74.05) rotate(-35.86)"/><ellipse class="cls-95" cx="97.73" cy="88.62" rx="11.22" ry="11.24" transform="translate(-33.39 74.05) rotate(-35.86)"/><ellipse class="cls-96" cx="97.74" cy="88.61" rx="11.21" ry="11.24" transform="translate(-33.38 74.06) rotate(-35.86)"/><ellipse class="cls-97" cx="97.75" cy="88.61" rx="11.2" ry="11.23" transform="translate(-33.38 74.06) rotate(-35.86)"/><ellipse class="cls-98" cx="97.75" cy="88.61" rx="11.2" ry="11.22" transform="translate(-33.38 74.07) rotate(-35.86)"/><ellipse class="cls-99" cx="97.76" cy="88.61" rx="11.19" ry="11.21" transform="translate(-33.38 74.07) rotate(-35.86)"/><ellipse class="cls-100" cx="97.77" cy="88.61" rx="11.18" ry="11.21" transform="translate(-33.37 74.07) rotate(-35.86)"/><ellipse class="cls-101" cx="97.78" cy="88.6" rx="11.17" ry="11.2" transform="translate(-33.37 74.08) rotate(-35.86)"/><ellipse class="cls-102" cx="97.79" cy="88.6" rx="11.17" ry="11.19" transform="translate(-33.37 74.08) rotate(-35.86)"/><ellipse class="cls-103" cx="97.79" cy="88.6" rx="11.16" ry="11.18" transform="matrix(0.81, -0.59, 0.59, 0.81, -33.37, 74.09)"/><ellipse class="cls-104" cx="97.8" cy="88.6" rx="11.15" ry="11.18" transform="translate(-33.36 74.09) rotate(-35.86)"/><ellipse class="cls-105" cx="97.81" cy="88.6" rx="11.14" ry="11.17" transform="translate(-33.36 74.1) rotate(-35.86)"/><ellipse class="cls-106" cx="97.82" cy="88.6" rx="11.14" ry="11.16" transform="translate(-33.36 74.1) rotate(-35.86)"/><ellipse class="cls-107" cx="97.83" cy="88.59" rx="11.13" ry="11.15" transform="translate(-33.36 74.1) rotate(-35.86)"/><ellipse class="cls-108" cx="97.83" cy="88.59" rx="11.12" ry="11.14" transform="matrix(0.81, -0.59, 0.59, 0.81, -33.35, 74.11)"/><ellipse class="cls-109" cx="97.84" cy="88.59" rx="11.11" ry="11.14" transform="translate(-33.35 74.11) rotate(-35.86)"/><ellipse class="cls-110" cx="97.85" cy="88.59" rx="11.1" ry="11.13" transform="translate(-33.35 74.12) rotate(-35.86)"/><ellipse class="cls-111" cx="97.86" cy="88.59" rx="11.1" ry="11.12" transform="translate(-33.35 74.12) rotate(-35.86)"/><ellipse class="cls-112" cx="97.87" cy="88.58" rx="11.09" ry="11.11" transform="translate(-33.34 74.13) rotate(-35.86)"/><ellipse class="cls-113" cx="97.87" cy="88.58" rx="11.08" ry="11.11" transform="translate(-33.34 74.13) rotate(-35.86)"/><ellipse class="cls-114" cx="97.88" cy="88.58" rx="11.07" ry="11.1" transform="translate(-33.34 74.14) rotate(-35.86)"/><ellipse class="cls-115" cx="97.89" cy="88.58" rx="11.07" ry="11.09" transform="translate(-33.34 74.14) rotate(-35.86)"/><ellipse class="cls-116" cx="97.9" cy="88.58" rx="11.06" ry="11.08" transform="translate(-33.33 74.14) rotate(-35.86)"/><ellipse class="cls-117" cx="97.91" cy="88.58" rx="11.05" ry="11.08" transform="translate(-33.33 74.15) rotate(-35.86)"/><ellipse class="cls-118" cx="97.91" cy="88.57" rx="11.04" ry="11.07" transform="translate(-33.33 74.15) rotate(-35.86)"/><ellipse class="cls-119" cx="97.92" cy="88.57" rx="11.04" ry="11.06" transform="translate(-33.33 74.16) rotate(-35.86)"/><ellipse class="cls-120" cx="97.93" cy="88.57" rx="11.03" ry="11.05" transform="translate(-33.32 74.16) rotate(-35.86)"/><ellipse class="cls-121" cx="97.94" cy="88.57" rx="11.02" ry="11.04" transform="translate(-33.32 74.17) rotate(-35.86)"/><ellipse class="cls-122" cx="97.95" cy="88.57" rx="11.01" ry="11.04" transform="translate(-33.32 74.17) rotate(-35.86)"/><ellipse class="cls-123" cx="97.95" cy="88.56" rx="11" ry="11.03" transform="translate(-33.32 74.17) rotate(-35.86)"/><ellipse class="cls-124" cx="97.96" cy="88.56" rx="11" ry="11.02" transform="translate(-33.31 74.18) rotate(-35.86)"/><ellipse class="cls-125" cx="97.97" cy="88.56" rx="10.99" ry="11.01" transform="translate(-33.31 74.18) rotate(-35.86)"/><ellipse class="cls-126" cx="97.98" cy="88.56" rx="10.98" ry="11.01" transform="translate(-33.31 74.19) rotate(-35.86)"/><ellipse class="cls-127" cx="97.99" cy="88.56" rx="10.97" ry="11" transform="translate(-33.3 74.19) rotate(-35.86)"/><ellipse class="cls-128" cx="98" cy="88.56" rx="10.97" ry="10.99" transform="translate(-33.3 74.2) rotate(-35.86)"/><ellipse class="cls-129" cx="98" cy="88.55" rx="10.96" ry="10.98" transform="translate(-33.3 74.2) rotate(-35.86)"/><ellipse class="cls-130" cx="98.01" cy="88.55" rx="10.95" ry="10.97" transform="matrix(0.81, -0.59, 0.59, 0.81, -33.3, 74.21)"/><ellipse class="cls-131" cx="98.02" cy="88.55" rx="10.94" ry="10.97" transform="translate(-33.29 74.21) rotate(-35.86)"/><ellipse class="cls-132" cx="98.03" cy="88.55" rx="10.94" ry="10.96" transform="translate(-33.29 74.21) rotate(-35.86)"/><ellipse class="cls-133" cx="98.04" cy="88.55" rx="10.93" ry="10.95" transform="matrix(0.81, -0.59, 0.59, 0.81, -33.29, 74.22)"/><ellipse class="cls-134" cx="98.04" cy="88.55" rx="10.92" ry="10.94" transform="translate(-33.29 74.22) rotate(-35.86)"/><ellipse class="cls-135" cx="98.05" cy="88.54" rx="10.91" ry="10.94" transform="translate(-33.28 74.23) rotate(-35.86)"/><ellipse class="cls-136" cx="98.06" cy="88.54" rx="10.9" ry="10.93" transform="translate(-33.28 74.23) rotate(-35.86)"/><ellipse class="cls-137" cx="98.07" cy="88.54" rx="10.9" ry="10.92" transform="translate(-33.28 74.24) rotate(-35.86)"/><ellipse class="cls-138" cx="98.08" cy="88.54" rx="10.89" ry="10.91" transform="translate(-33.28 74.24) rotate(-35.86)"/><ellipse class="cls-139" cx="98.08" cy="88.54" rx="10.88" ry="10.91" transform="translate(-33.27 74.24) rotate(-35.86)"/><ellipse class="cls-140" cx="98.09" cy="88.53" rx="10.87" ry="10.9" transform="translate(-33.27 74.25) rotate(-35.86)"/><ellipse class="cls-141" cx="98.1" cy="88.53" rx="10.87" ry="10.89" transform="translate(-33.27 74.25) rotate(-35.86)"/><ellipse class="cls-142" cx="98.11" cy="88.53" rx="10.86" ry="10.88" transform="translate(-33.27 74.26) rotate(-35.86)"/><ellipse class="cls-143" cx="98.12" cy="88.53" rx="10.85" ry="10.87" transform="translate(-33.26 74.26) rotate(-35.86)"/><ellipse class="cls-144" cx="98.12" cy="88.53" rx="10.84" ry="10.87" transform="translate(-33.26 74.27) rotate(-35.86)"/><ellipse class="cls-145" cx="98.13" cy="88.53" rx="10.84" ry="10.86" transform="translate(-33.26 74.27) rotate(-35.86)"/><ellipse class="cls-146" cx="98.14" cy="88.52" rx="10.83" ry="10.85" transform="translate(-33.26 74.27) rotate(-35.86)"/><ellipse class="cls-147" cx="98.15" cy="88.52" rx="10.82" ry="10.84" transform="translate(-33.25 74.28) rotate(-35.86)"/><ellipse class="cls-148" cx="98.16" cy="88.52" rx="10.81" ry="10.84" transform="translate(-33.25 74.28) rotate(-35.86)"/><ellipse class="cls-149" cx="98.16" cy="88.52" rx="10.8" ry="10.83" transform="translate(-33.25 74.29) rotate(-35.86)"/><ellipse class="cls-150" cx="98.17" cy="88.52" rx="10.8" ry="10.82" transform="translate(-33.25 74.29) rotate(-35.86)"/><ellipse class="cls-151" cx="98.18" cy="88.51" rx="10.79" ry="10.81" transform="translate(-33.24 74.3) rotate(-35.86)"/><ellipse class="cls-152" cx="98.19" cy="88.51" rx="10.78" ry="10.81" transform="translate(-33.24 74.3) rotate(-35.86)"/><ellipse class="cls-153" cx="98.2" cy="88.51" rx="10.77" ry="10.8" transform="translate(-33.24 74.31) rotate(-35.86)"/><ellipse class="cls-154" cx="98.2" cy="88.51" rx="10.77" ry="10.79" transform="translate(-33.24 74.31) rotate(-35.86)"/><ellipse class="cls-155" cx="98.21" cy="88.51" rx="10.76" ry="10.78" transform="translate(-33.23 74.31) rotate(-35.86)"/><ellipse class="cls-156" cx="98.22" cy="88.51" rx="10.75" ry="10.77" transform="translate(-33.23 74.32) rotate(-35.86)"/><ellipse class="cls-157" cx="98.23" cy="88.5" rx="10.74" ry="10.77" transform="translate(-33.23 74.32) rotate(-35.86)"/><ellipse class="cls-158" cx="98.24" cy="88.5" rx="10.74" ry="10.76" transform="translate(-33.22 74.33) rotate(-35.86)"/><ellipse class="cls-159" cx="98.24" cy="88.5" rx="10.73" ry="10.75" transform="translate(-33.22 74.33) rotate(-35.86)"/><ellipse class="cls-160" cx="98.25" cy="88.5" rx="10.72" ry="10.74" transform="translate(-33.22 74.34) rotate(-35.86)"/><ellipse class="cls-161" cx="98.26" cy="88.5" rx="10.71" ry="10.74" transform="translate(-33.22 74.34) rotate(-35.86)"/><ellipse class="cls-162" cx="98.27" cy="88.49" rx="10.7" ry="10.73" transform="translate(-33.21 74.34) rotate(-35.86)"/><ellipse class="cls-163" cx="98.28" cy="88.49" rx="10.7" ry="10.72" transform="translate(-33.21 74.35) rotate(-35.86)"/><ellipse class="cls-164" cx="98.28" cy="88.49" rx="10.69" ry="10.71" transform="translate(-33.21 74.35) rotate(-35.86)"/><ellipse class="cls-165" cx="98.29" cy="88.49" rx="10.68" ry="10.71" transform="translate(-33.21 74.36) rotate(-35.86)"/><ellipse class="cls-166" cx="98.3" cy="88.49" rx="10.67" ry="10.7" transform="translate(-33.2 74.36) rotate(-35.86)"/><ellipse class="cls-167" cx="98.31" cy="88.49" rx="10.67" ry="10.69" transform="translate(-33.2 74.37) rotate(-35.86)"/><ellipse class="cls-168" cx="98.32" cy="88.48" rx="10.66" ry="10.68" transform="translate(-33.2 74.37) rotate(-35.86)"/><ellipse class="cls-169" cx="98.33" cy="88.48" rx="10.65" ry="10.67" transform="translate(-33.2 74.38) rotate(-35.86)"/><ellipse class="cls-170" cx="98.33" cy="88.48" rx="10.64" ry="10.67" transform="translate(-33.19 74.38) rotate(-35.86)"/><ellipse class="cls-171" cx="98.34" cy="88.48" rx="10.64" ry="10.66" transform="translate(-33.19 74.38) rotate(-35.86)"/><ellipse class="cls-172" cx="98.35" cy="88.48" rx="10.63" ry="10.65" transform="translate(-33.19 74.39) rotate(-35.86)"/><ellipse class="cls-173" cx="98.36" cy="88.47" rx="10.62" ry="10.64" transform="translate(-33.19 74.39) rotate(-35.86)"/><ellipse class="cls-174" cx="98.37" cy="88.47" rx="10.61" ry="10.64" transform="translate(-33.18 74.4) rotate(-35.86)"/><ellipse class="cls-175" cx="98.37" cy="88.47" rx="10.6" ry="10.63" transform="translate(-33.18 74.4) rotate(-35.86)"/><ellipse class="cls-176" cx="98.38" cy="88.47" rx="10.6" ry="10.62" transform="translate(-33.18 74.41) rotate(-35.86)"/><ellipse class="cls-177" cx="98.39" cy="88.47" rx="10.59" ry="10.61" transform="translate(-33.18 74.41) rotate(-35.86)"/><ellipse class="cls-178" cx="98.4" cy="88.47" rx="10.58" ry="10.61" transform="translate(-33.17 74.41) rotate(-35.86)"/><ellipse class="cls-179" cx="98.41" cy="88.46" rx="10.57" ry="10.6" transform="translate(-33.17 74.42) rotate(-35.86)"/><ellipse class="cls-180" cx="98.41" cy="88.46" rx="10.57" ry="10.59" transform="matrix(0.81, -0.59, 0.59, 0.81, -33.17, 74.42)"/><ellipse class="cls-181" cx="98.42" cy="88.46" rx="10.56" ry="10.58" transform="translate(-33.17 74.43) rotate(-35.86)"/><ellipse class="cls-182" cx="98.43" cy="88.46" rx="10.55" ry="10.57" transform="translate(-33.16 74.43) rotate(-35.86)"/><ellipse class="cls-183" cx="98.44" cy="88.46" rx="10.54" ry="10.57" transform="matrix(0.81, -0.59, 0.59, 0.81, -33.16, 74.44)"/><ellipse class="cls-184" cx="98.45" cy="88.45" rx="10.54" ry="10.56" transform="translate(-33.16 74.44) rotate(-35.86)"/><ellipse class="cls-185" cx="98.45" cy="88.45" rx="10.53" ry="10.55" transform="matrix(0.81, -0.59, 0.59, 0.81, -33.15, 74.44)"/><ellipse class="cls-186" cx="98.46" cy="88.45" rx="10.52" ry="10.54" transform="translate(-33.15 74.45) rotate(-35.86)"/><ellipse class="cls-187" cx="98.47" cy="88.45" rx="10.51" ry="10.54" transform="translate(-33.15 74.45) rotate(-35.86)"/><ellipse class="cls-188" cx="98.48" cy="88.45" rx="10.5" ry="10.53" transform="translate(-33.15 74.46) rotate(-35.86)"/><ellipse class="cls-189" cx="98.49" cy="88.45" rx="10.5" ry="10.52" transform="translate(-33.14 74.46) rotate(-35.86)"/><ellipse class="cls-190" cx="98.49" cy="88.44" rx="10.49" ry="10.51" transform="translate(-33.14 74.47) rotate(-35.86)"/><ellipse class="cls-191" cx="98.5" cy="88.44" rx="10.48" ry="10.5" transform="translate(-33.14 74.47) rotate(-35.86)"/><ellipse class="cls-192" cx="98.51" cy="88.44" rx="10.47" ry="10.5" transform="translate(-33.14 74.48) rotate(-35.86)"/><ellipse class="cls-193" cx="98.52" cy="88.44" rx="10.47" ry="10.49" transform="translate(-33.13 74.48) rotate(-35.86)"/><ellipse class="cls-194" cx="98.53" cy="88.44" rx="10.46" ry="10.48" transform="translate(-33.13 74.48) rotate(-35.86)"/><ellipse class="cls-195" cx="98.53" cy="88.44" rx="10.45" ry="10.47" transform="translate(-33.13 74.49) rotate(-35.86)"/><ellipse class="cls-196" cx="98.54" cy="88.43" rx="10.44" ry="10.47" transform="translate(-33.13 74.49) rotate(-35.86)"/><ellipse class="cls-197" cx="98.55" cy="88.43" rx="10.44" ry="10.46" transform="translate(-33.12 74.5) rotate(-35.86)"/><ellipse class="cls-198" cx="98.56" cy="88.43" rx="10.43" ry="10.45" transform="translate(-33.12 74.5) rotate(-35.86)"/><ellipse class="cls-199" cx="98.57" cy="88.43" rx="10.42" ry="10.44" transform="translate(-33.12 74.51) rotate(-35.86)"/><ellipse class="cls-200" cx="98.57" cy="88.43" rx="10.41" ry="10.44" transform="translate(-33.12 74.51) rotate(-35.86)"/><ellipse class="cls-201" cx="98.58" cy="88.42" rx="10.4" ry="10.43" transform="translate(-33.11 74.51) rotate(-35.86)"/><ellipse class="cls-202" cx="98.59" cy="88.42" rx="10.4" ry="10.42" transform="translate(-33.11 74.52) rotate(-35.86)"/><ellipse class="cls-203" cx="98.6" cy="88.42" rx="10.39" ry="10.41" transform="translate(-33.11 74.52) rotate(-35.86)"/><ellipse class="cls-204" cx="98.61" cy="88.42" rx="10.38" ry="10.4" transform="translate(-33.11 74.53) rotate(-35.86)"/><ellipse class="cls-205" cx="98.61" cy="88.42" rx="10.37" ry="10.4" transform="translate(-33.1 74.53) rotate(-35.86)"/><ellipse class="cls-206" cx="98.62" cy="88.42" rx="10.37" ry="10.39" transform="translate(-33.1 74.54) rotate(-35.86)"/><ellipse class="cls-207" cx="98.63" cy="88.41" rx="10.36" ry="10.38" transform="translate(-33.1 74.54) rotate(-35.86)"/><ellipse class="cls-208" cx="98.64" cy="88.41" rx="10.35" ry="10.37" transform="translate(-33.1 74.55) rotate(-35.86)"/><ellipse class="cls-209" cx="98.65" cy="88.41" rx="10.34" ry="10.37" transform="translate(-33.09 74.55) rotate(-35.86)"/><ellipse class="cls-210" cx="98.66" cy="88.41" rx="10.34" ry="10.36" transform="translate(-33.09 74.55) rotate(-35.86)"/><ellipse class="cls-211" cx="98.66" cy="88.41" rx="10.33" ry="10.35" transform="translate(-33.09 74.56) rotate(-35.86)"/><ellipse class="cls-212" cx="98.67" cy="88.4" rx="10.32" ry="10.34" transform="translate(-33.09 74.56) rotate(-35.86)"/><ellipse class="cls-6" cx="98.68" cy="88.4" rx="10.31" ry="10.34" transform="translate(-33.08 74.57) rotate(-35.86)"/></g><rect class="cls-213" x="29.18" y="53.91" width="31.85" height="75.94" transform="translate(-57.24 92.31) rotate(-64.1)"/><path class="cls-214" d="M70.84,117.38a2.13,2.13,0,0,0,1-2.15l8-16.39a2.06,2.06,0,0,0,1.09-1,2.2,2.2,0,0,0,.15-1.49,2.8,2.8,0,0,0-.71-1.27h0a2.75,2.75,0,0,0-.83-.6,2.83,2.83,0,0,0-1-.28h0L51.35,81l.9-1.86L84.43,94.74,71.67,121,39.5,105.38l.89-1.82,26.72,13a3.07,3.07,0,0,0,1.09.91,3,3,0,0,0,1.37.29A2.57,2.57,0,0,0,70.84,117.38Z"/><path class="cls-213" d="M50.76,82.19,51.35,81l27.2,13.2a2.65,2.65,0,0,0-2,.56l-2-1v0Z"/><path class="cls-213" d="M71,113.56,78,99a2.77,2.77,0,0,0,1.81-.15l-8,16.37A2.69,2.69,0,0,0,71,113.56Z"/><path class="cls-213" d="M40.39,103.55l.59-1.22,25.61,12.44a2.51,2.51,0,0,0,.52,1.76Z"/><polygon class="cls-215" points="74.59 93.75 74.6 93.77 50.76 82.19 74.59 93.75"/><path class="cls-213" d="M71.57,112.23l5.77-11.86-.56-.65a8.68,8.68,0,0,1-2.15-5.19l0-.77,2,1a2.14,2.14,0,0,0-.56.71,2.55,2.55,0,0,0,1.4,3.34A3.11,3.11,0,0,0,78,99L71,113.56a3,3,0,0,0-.66-.44,2.57,2.57,0,0,0-3.5,1,2.33,2.33,0,0,0-.21.67L41,102.33h0L65.14,114l.16-.12a9.27,9.27,0,0,1,2.94-1.37,10.79,10.79,0,0,1,3.11-.33Z"/><path class="cls-215" d="M76,95.45a2.14,2.14,0,0,1,.56-.71,2.65,2.65,0,0,1,2-.56h0a2.83,2.83,0,0,1,1,.28,2.75,2.75,0,0,1,.83.6h0a2.8,2.8,0,0,1,.71,1.27,2.2,2.2,0,0,1-.15,1.49,2.06,2.06,0,0,1-1.09,1h0A2.77,2.77,0,0,1,78,99a3.11,3.11,0,0,1-.59-.21A2.55,2.55,0,0,1,76,95.45Z"/><path class="cls-215" d="M71.88,115.22a2.13,2.13,0,0,1-1,2.15,2.57,2.57,0,0,1-1.27.35,3,3,0,0,1-1.37-.29,3.07,3.07,0,0,1-1.09-.91,2.51,2.51,0,0,1-.52-1.76,2.33,2.33,0,0,1,.21-.67,2.57,2.57,0,0,1,3.5-1,3,3,0,0,1,.66.44A2.69,2.69,0,0,1,71.88,115.22Z"/><path class="cls-216" d="M41.66,100.94l-.37.77,23.57,11.43a10.09,10.09,0,0,1,6.26-1.75l5.41-11.14a10.15,10.15,0,0,1-2.5-6L50.47,82.8l-.46,1,9.84,4.76L58.18,92,55.63,90.8a8.67,8.67,0,0,1-.47,6.27C52.92,101.68,46.91,103.38,41.66,100.94Z"/><path class="cls-217" d="M49.85,84.06l.15-.31,9.84,4.76L58.18,92,55.63,90.8A11.23,11.23,0,0,0,49.85,84.06Z"/><path class="cls-217" d="M41.66,100.94l8.19-16.87a11.23,11.23,0,0,1,5.78,6.74,8.67,8.67,0,0,1-.47,6.27C52.92,101.68,46.91,103.38,41.66,100.94Z"/><polygon class="cls-218" points="74.6 93.77 50.76 82.19 74.59 93.75 74.6 93.77"/><path class="cls-218" d="M76,95.45a2.14,2.14,0,0,1,.56-.71,2.65,2.65,0,0,1,2-.56h0a2.83,2.83,0,0,1,1,.28,2.75,2.75,0,0,1,.83.6h0a2.8,2.8,0,0,1,.71,1.27,2.2,2.2,0,0,1-.15,1.49,2.06,2.06,0,0,1-1.09,1h0A2.77,2.77,0,0,1,78,99a3.11,3.11,0,0,1-.59-.21A2.55,2.55,0,0,1,76,95.45Z"/><path class="cls-218" d="M71.88,115.22a2.13,2.13,0,0,1-1,2.15,2.57,2.57,0,0,1-1.27.35,3,3,0,0,1-1.37-.29,3.07,3.07,0,0,1-1.09-.91,2.51,2.51,0,0,1-.52-1.76,2.33,2.33,0,0,1,.21-.67,2.57,2.57,0,0,1,3.5-1,3,3,0,0,1,.66.44A2.69,2.69,0,0,1,71.88,115.22Z"/><polygon class="cls-219" points="5.78 89.03 18.54 62.78 52.25 79.12 39.5 105.38 5.78 89.03"/><polygon class="cls-220" points="74.6 93.77 50.76 82.19 74.59 93.75 74.6 93.77"/><path class="cls-220" d="M76,95.45a2.14,2.14,0,0,1,.56-.71,2.65,2.65,0,0,1,2-.56h0l1.78.88h0a2.8,2.8,0,0,1,.71,1.27l-1.24,2.51h0A2.77,2.77,0,0,1,78,99a3.11,3.11,0,0,1-.59-.21A2.55,2.55,0,0,1,76,95.45Z"/><path class="cls-220" d="M71.88,115.22l-1,2.15a2.57,2.57,0,0,1-1.27.35l-2.46-1.19a2.51,2.51,0,0,1-.52-1.76,2.33,2.33,0,0,1,.21-.67,2.57,2.57,0,0,1,3.5-1,3,3,0,0,1,.66.44A2.69,2.69,0,0,1,71.88,115.22Z"/><path class="cls-221" d="M9.17,87.4l1-2.13v0l7.85-16.14,1.43-2.92a0,0,0,0,1,0,0,2.61,2.61,0,0,1,1.11-.11h0l1.77.87,0,0L51.35,81l-11,22.57L12,89.79l-2.27-1.1A2.62,2.62,0,0,1,9.17,87.4Z"/><path class="cls-220" d="M76,95.45a2.14,2.14,0,0,1,.56-.71l2.84,1.38L78,99a3.11,3.11,0,0,1-.59-.21A2.55,2.55,0,0,1,76,95.45Z"/><path class="cls-220" d="M70.29,113.12a3,3,0,0,1,.66.44l-1.31,2.69-3.06-1.48a2.33,2.33,0,0,1,.21-.67A2.57,2.57,0,0,1,70.29,113.12Z"/><polygon class="cls-213" points="10.78 87.68 12.13 84.92 18.64 71.53 20.58 67.55 25.08 69.73 50.76 82.19 40.98 102.33 13.8 89.15 10.78 87.68"/><polygon class="cls-222" points="74.6 93.77 50.76 82.19 74.59 93.75 74.6 93.77"/><path class="cls-213" d="M12.88,83.39l5.76-11.86h.21A10.77,10.77,0,0,0,22,71.2a9.23,9.23,0,0,0,2.94-1.35l.16-.12L50.76,82.19,41,102.32,15.62,90l0-.79A8.63,8.63,0,0,0,13.43,84Z"/><path class="cls-214" d="M13.68,83.51l5.42-11.13a10.06,10.06,0,0,0,6.25-1.76L50.47,82.8l-9.18,18.9L16.2,89.54A10.06,10.06,0,0,0,13.68,83.51Z"/><path class="cls-222" d="M23.57,79.5c-.66,1.6-.33,2.92,1.14,4.53,1,1.19,1.4,1.81,1.18,2.4s-.71.85-1.68.38a5.12,5.12,0,0,1-1.9-1.65L21.06,87A5.66,5.66,0,0,0,23,88.6l-.63,1.55,1.47.71.67-1.69a3.11,3.11,0,0,0,3.79-2c.7-1.72,0-3.14-1.37-4.55-.92-1-1.23-1.64-1-2.32s1-.81,1.87-.4a5.67,5.67,0,0,1,2.16,2l1.29-1.87a6.34,6.34,0,0,0-2.24-2l.69-1.69-1.46-.71-.73,1.82A3.2,3.2,0,0,0,23.57,79.5Z"/><path class="cls-222" d="M36,87.76a8.7,8.7,0,0,1,4.63-4.24,11.26,11.26,0,0,1,9.07.46l.17.08-8.19,16.87-.2-.08C36.16,98.28,33.7,92.42,36,87.76Z"/><polygon class="cls-222" points="37.71 77.8 50 83.76 48.31 87.24 40.61 83.52 36.04 81.3 37.71 77.8"/><path class="cls-223" d="M66.79,114.1a2.57,2.57,0,0,1,3.5-1,3,3,0,0,1,.66.44,2.69,2.69,0,0,1,.93,1.66,2.13,2.13,0,0,1-1,2.15,2.57,2.57,0,0,1-1.27.35,3,3,0,0,1-1.37-.29,3.07,3.07,0,0,1-1.09-.91,2.51,2.51,0,0,1-.52-1.76A2.33,2.33,0,0,1,66.79,114.1Z"/><path class="cls-223" d="M76,95.45a2.14,2.14,0,0,1,.56-.71,2.65,2.65,0,0,1,2-.56h0a2.83,2.83,0,0,1,1,.28,2.75,2.75,0,0,1,.83.6h0a2.8,2.8,0,0,1,.71,1.27,2.2,2.2,0,0,1-.15,1.49,2.06,2.06,0,0,1-1.09,1h0A2.77,2.77,0,0,1,78,99a3.11,3.11,0,0,1-.59-.21A2.55,2.55,0,0,1,76,95.45Z"/><path class="cls-222" d="M9.17,87.4a2.11,2.11,0,0,1,.19-1.25,2.06,2.06,0,0,1,.84-.89s0,0,0,0a2.77,2.77,0,0,1,2.65-.06,2.57,2.57,0,0,1,1.4,3.34A2.33,2.33,0,0,1,12,89.79a3,3,0,0,1-2.27-1.11A2.69,2.69,0,0,1,9.17,87.4Z"/><path class="cls-222" d="M18.06,69.11a2.18,2.18,0,0,1,1.44-2.92s0,0,0,0a2.39,2.39,0,0,1,1.11-.11h0a3,3,0,0,1,1,.28,2.76,2.76,0,0,1,.82.59l0,0A2.39,2.39,0,0,1,23,69.71a2.58,2.58,0,0,1-3.49,1A2.91,2.91,0,0,1,18.06,69.11Z"/><path class="cls-218" d="M11.32,89l1,.06.12-.56-.74,0h0l1.09-2.25-.73-.36L10.7,88.73Z"/><path class="cls-218" d="M20.16,70.09l1,.07.12-.56-.75,0,1.09-2.25L20.91,67l-1.38,2.84Z"/><path class="cls-214" d="M78.18,98.49h.09l.92.06.12-.55-.74,0h0l1.1-2.26-.73-.34-1.38,2.84Z"/><path class="cls-214" d="M68.95,117.06l1,.06.12-.55-.74,0h0l1.1-2.26-.72-.35-.94,1.91-.45.93Z"/><path class="cls-213" d="M43.84,89.16,49.76,92a3.67,3.67,0,0,0,4.9-1.7h0L42.14,84.26h0A3.67,3.67,0,0,0,43.84,89.16Z"/><path class="cls-223" d="M46.95,90.67l3.2,1.56a3.23,3.23,0,0,0,4.32-1.49l.19-.39-6.11-3Z"/><path class="cls-224" d="M46.71,90.78l.49-1,.63.31a1,1,0,0,1,.48,1.38l-.35.72A2.65,2.65,0,0,0,46.71,90.78Z"/><path class="cls-225" d="M44.1,92.19,45.18,90a1,1,0,0,1,1.38-.48l.63.31L45.66,93Z"/><path class="cls-226" d="M42.12,100.23l4.59-9.44A2.65,2.65,0,0,1,48,92.19a8,8,0,0,1,.44,3.41,18.47,18.47,0,0,1-2.26,4.23C44.81,101.53,42.12,100.23,42.12,100.23Z"/><path class="cls-227" d="M42,92.48a5,5,0,0,1,2.75-1.7,4.17,4.17,0,0,1,1.92,0l-4.59,9.44C40,99.12,40,97.89,40,97.36A11.63,11.63,0,0,1,42,92.48Z"/><path class="cls-228" d="M42.12,100.23l1.78-3.67a5.89,5.89,0,0,1,3.43,1.39,2.92,2.92,0,0,1-.88,1.86C44.81,101.69,42.12,100.23,42.12,100.23Z"/><path class="cls-213" d="M40.76,94.67l0,.09-.42,2s.17-.22,2.86-.24a6.88,6.88,0,0,1,.74,0l-1.78,3.67a7.47,7.47,0,0,1-.71-.42l-.05,0a3.05,3.05,0,0,1-1.56-2.63C39.77,96.83,39.92,95.18,40.76,94.67Z"/><circle class="cls-229" cx="63.62" cy="102.26" r="3.31" transform="translate(-56.15 114.81) rotate(-64.09)"/><circle class="cls-214" cx="63.62" cy="102.26" r="2.45" transform="translate(-56.15 114.81) rotate(-64.09)"/><circle class="cls-225" cx="63.62" cy="102.26" r="1.75" transform="translate(-56.15 114.83) rotate(-64.1)"/><path class="cls-221" d="M71.11,111.39l5.41-11.14a10.15,10.15,0,0,1-2.5-6L50.47,82.8l.3-.61L74.6,93.77l0,.77a8.68,8.68,0,0,0,2.15,5.19l.56.65-5.77,11.86h-.21a10.79,10.79,0,0,0-3.11.33,9.27,9.27,0,0,0-2.94,1.37l-.16.12L41,102.32l.3-.61,23.57,11.43A10.09,10.09,0,0,1,71.11,111.39Z"/><rect class="cls-213" x="30.9" y="49.9" width="31.85" height="75.94" transform="translate(-50.02 64.74) rotate(-48.52)"/><path class="cls-214" d="M64.76,119.35a2.13,2.13,0,0,0,1.59-1.79l12.07-13.65a2.06,2.06,0,0,0,1.32-.7,2.2,2.2,0,0,0,.54-1.39,2.79,2.79,0,0,0-.35-1.41h0a2.77,2.77,0,0,0-.64-.8,2.85,2.85,0,0,0-.84-.53l0,0-22.66-20,1.37-1.55,26.8,23.68L64.6,123,37.8,99.37l1.34-1.52,22.25,19.68a3.07,3.07,0,0,0,.8,1.16,3,3,0,0,0,1.24.65A2.56,2.56,0,0,0,64.76,119.35Z"/><path class="cls-213" d="M54.87,80.06l.89-1,22.66,20a2.65,2.65,0,0,0-2,0l-1.66-1.47v0Z"/><path class="cls-213" d="M65.9,115.71l10.72-12.13a2.78,2.78,0,0,0,1.78.34L66.35,117.56A2.68,2.68,0,0,0,65.9,115.71Z"/><path class="cls-213" d="M39.14,97.86l.9-1,21.33,18.86a2.51,2.51,0,0,0,0,1.84Z"/><polygon class="cls-215" points="74.72 97.6 74.72 97.61 54.87 80.06 74.72 97.6"/><path class="cls-213" d="M66.85,114.59l8.74-9.87-.37-.78a8.69,8.69,0,0,1-.68-5.57l.18-.75,1.66,1.47a2.14,2.14,0,0,0-.73.54,2.55,2.55,0,0,0,.45,3.59,3.19,3.19,0,0,0,.51.36L65.9,115.71a3,3,0,0,0-.52-.6,2.57,2.57,0,0,0-3.63,0,2.35,2.35,0,0,0-.38.59L40,96.84h0L60.17,114.6l.19-.07a9.25,9.25,0,0,1,3.2-.52,10.75,10.75,0,0,1,3.08.51Z"/><path class="cls-215" d="M75.66,99.62a2.14,2.14,0,0,1,.73-.54,2.65,2.65,0,0,1,2,0l0,0a2.85,2.85,0,0,1,.84.53,2.77,2.77,0,0,1,.64.8h0a2.79,2.79,0,0,1,.35,1.41,2.2,2.2,0,0,1-.54,1.39,2.06,2.06,0,0,1-1.32.7h0a2.78,2.78,0,0,1-1.78-.34,3.19,3.19,0,0,1-.51-.36A2.55,2.55,0,0,1,75.66,99.62Z"/><path class="cls-215" d="M66.35,117.56a2.13,2.13,0,0,1-1.59,1.79,2.56,2.56,0,0,1-1.32,0,3,3,0,0,1-1.24-.65,3.07,3.07,0,0,1-.8-1.16,2.51,2.51,0,0,1,0-1.84,2.35,2.35,0,0,1,.38-.59,2.57,2.57,0,0,1,3.63,0,3,3,0,0,1,.52.6A2.68,2.68,0,0,1,66.35,117.56Z"/><path class="cls-216" d="M41.07,95.68l-.57.64,19.63,17.34a10.09,10.09,0,0,1,6.5,0l8.2-9.28A10.15,10.15,0,0,1,74,97.91L54.42,80.57l-.7.79,8.2,7.23-2.54,2.94-2.12-1.87a8.67,8.67,0,0,1-2.14,5.91C51.72,99.41,45.47,99.44,41.07,95.68Z"/><path class="cls-217" d="M53.5,81.62l.23-.25,8.2,7.23-2.54,2.94-2.12-1.87A11.23,11.23,0,0,0,53.5,81.62Z"/><path class="cls-217" d="M41.07,95.68,53.5,81.62a11.23,11.23,0,0,1,3.76,8,8.67,8.67,0,0,1-2.14,5.91C51.72,99.41,45.47,99.44,41.07,95.68Z"/><polygon class="cls-218" points="74.72 97.61 54.87 80.06 74.72 97.6 74.72 97.61"/><path class="cls-218" d="M75.66,99.62a2.14,2.14,0,0,1,.73-.54,2.65,2.65,0,0,1,2,0l0,0a2.85,2.85,0,0,1,.84.53,2.77,2.77,0,0,1,.64.8h0a2.79,2.79,0,0,1,.35,1.41,2.2,2.2,0,0,1-.54,1.39,2.06,2.06,0,0,1-1.32.7h0a2.78,2.78,0,0,1-1.78-.34,3.19,3.19,0,0,1-.51-.36A2.55,2.55,0,0,1,75.66,99.62Z"/><path class="cls-218" d="M66.35,117.56a2.13,2.13,0,0,1-1.59,1.79,2.56,2.56,0,0,1-1.32,0,3,3,0,0,1-1.24-.65,3.07,3.07,0,0,1-.8-1.16,2.51,2.51,0,0,1,0-1.84,2.35,2.35,0,0,1,.38-.59,2.57,2.57,0,0,1,3.63,0,3,3,0,0,1,.52.6A2.68,2.68,0,0,1,66.35,117.56Z"/><polygon class="cls-219" points="9.71 74.57 29.05 52.71 57.13 77.51 37.8 99.37 9.71 74.57"/><polygon class="cls-220" points="74.72 97.61 54.87 80.06 74.72 97.6 74.72 97.61"/><path class="cls-220" d="M75.66,99.62a2.14,2.14,0,0,1,.73-.54,2.65,2.65,0,0,1,2,0l0,0,1.48,1.32h0a2.79,2.79,0,0,1,.35,1.41l-1.87,2.09h0a2.78,2.78,0,0,1-1.78-.34,3.19,3.19,0,0,1-.51-.36A2.55,2.55,0,0,1,75.66,99.62Z"/><path class="cls-220" d="M66.35,117.56l-1.59,1.79a2.56,2.56,0,0,1-1.32,0l-2-1.81a2.51,2.51,0,0,1,0-1.84,2.35,2.35,0,0,1,.38-.59,2.57,2.57,0,0,1,3.63,0,3,3,0,0,1,.52.6A2.68,2.68,0,0,1,66.35,117.56Z"/><path class="cls-221" d="M13.41,73.91,15,72.13l0,0,11.9-13.43,2.16-2.42h0a2.6,2.6,0,0,1,1.1.19l0,0,1.47,1.32,0,0,24,21.24L39.14,97.86,15.51,77,13.61,75.3A2.63,2.63,0,0,1,13.41,73.91Z"/><path class="cls-220" d="M75.66,99.62a2.14,2.14,0,0,1,.73-.54l2.36,2.09-2.13,2.4a3.19,3.19,0,0,1-.51-.36A2.55,2.55,0,0,1,75.66,99.62Z"/><path class="cls-220" d="M65.38,115.1a3,3,0,0,1,.52.6l-2,2.24-2.55-2.25a2.35,2.35,0,0,1,.38-.59A2.57,2.57,0,0,1,65.38,115.1Z"/><polygon class="cls-213" points="14.89 74.61 16.93 72.31 26.8 61.17 29.73 57.85 33.48 61.16 54.87 80.06 40.04 96.84 17.41 76.84 14.89 74.61"/><polygon class="cls-222" points="74.72 97.61 54.87 80.06 74.72 97.6 74.72 97.61"/><path class="cls-213" d="M18.06,71l8.73-9.88.2.07a10.77,10.77,0,0,0,3.1.51,9.21,9.21,0,0,0,3.19-.51l.19-.07,21.4,18.9L40.05,96.83,18.92,78.16l.17-.77a8.62,8.62,0,0,0-.68-5.57Z"/><path class="cls-214" d="M18.8,71.38,27,62.11a10.06,10.06,0,0,0,6.49,0L54.42,80.57,40.5,96.32,19.61,77.86A10.05,10.05,0,0,0,18.8,71.38Z"/><path class="cls-222" d="M29.4,70.17c-1.06,1.37-1.1,2.73-.12,4.67.68,1.42.86,2.12.49,2.63s-.91.62-1.72-.09a5.11,5.11,0,0,1-1.39-2.1L25,76.68a5.67,5.67,0,0,0,1.41,2.1l-1,1.32,1.22,1.08,1.1-1.44a3.11,3.11,0,0,0,4.18-.86c1.13-1.47.81-3-.1-4.75-.62-1.18-.74-1.91-.3-2.5s1.21-.51,1.91.11a5.68,5.68,0,0,1,1.55,2.5l1.74-1.46A6.35,6.35,0,0,0,35,70.26l1.11-1.44L35,67.75l-1.2,1.56A3.2,3.2,0,0,0,29.4,70.17Z"/><path class="cls-222" d="M39.15,81.45a8.7,8.7,0,0,1,5.59-2.84,11.26,11.26,0,0,1,8.61,2.88l.14.13L41.07,95.68a1.22,1.22,0,0,1-.17-.13C36.49,91.64,35.7,85.34,39.15,81.45Z"/><polygon class="cls-222" points="43.48 72.33 53.72 81.37 51.16 84.27 44.74 78.62 40.93 75.25 43.48 72.33"/><path class="cls-223" d="M61.75,115.1a2.57,2.57,0,0,1,3.63,0,3,3,0,0,1,.52.6,2.68,2.68,0,0,1,.45,1.85,2.13,2.13,0,0,1-1.59,1.79,2.56,2.56,0,0,1-1.32,0,3,3,0,0,1-1.24-.65,3.07,3.07,0,0,1-.8-1.16,2.51,2.51,0,0,1,0-1.84A2.35,2.35,0,0,1,61.75,115.1Z"/><path class="cls-223" d="M75.66,99.62a2.14,2.14,0,0,1,.73-.54,2.65,2.65,0,0,1,2,0l0,0a2.85,2.85,0,0,1,.84.53,2.77,2.77,0,0,1,.64.8h0a2.79,2.79,0,0,1,.35,1.41,2.2,2.2,0,0,1-.54,1.39,2.06,2.06,0,0,1-1.32.7h0a2.78,2.78,0,0,1-1.78-.34,3.19,3.19,0,0,1-.51-.36A2.55,2.55,0,0,1,75.66,99.62Z"/><path class="cls-222" d="M13.41,73.91a2.11,2.11,0,0,1,.52-1.15,2.06,2.06,0,0,1,1-.63s0,0,0,0a2.77,2.77,0,0,1,2.57.65,2.57,2.57,0,0,1,.45,3.6A2.33,2.33,0,0,1,15.5,77a3,3,0,0,1-1.89-1.67A2.7,2.7,0,0,1,13.41,73.91Z"/><path class="cls-222" d="M26.89,58.68a2.18,2.18,0,0,1,2.17-2.43s0,0,0,0a2.38,2.38,0,0,1,1.09.19l0,0a3,3,0,0,1,.85.53,2.77,2.77,0,0,1,.63.79l0,0a2.39,2.39,0,0,1-.21,2.77,2.58,2.58,0,0,1-3.62,0A2.91,2.91,0,0,1,26.89,58.68Z"/><path class="cls-218" d="M15,76.06l1,.34.27-.51-.7-.24h0l1.66-1.87-.61-.54-2.1,2.37Z"/><path class="cls-218" d="M28.64,60.19l1,.35.27-.51-.71-.25,1.66-1.87-.61-.54-2.09,2.36Z"/><path class="cls-214" d="M76.91,103.12l.09,0,.88.3.26-.5-.7-.24h0l1.67-1.88-.61-.52-2.09,2.36Z"/><path class="cls-214" d="M63,118.54l1,.33.26-.5-.7-.24h0l1.67-1.88-.6-.53-1.42,1.59-.68.77Z"/><path class="cls-213" d="M46.33,84.92l4.93,4.36A3.67,3.67,0,0,0,56.44,89h0L46,79.74h0A3.67,3.67,0,0,0,46.33,84.92Z"/><path class="cls-223" d="M48.92,87.21l2.67,2.36a3.23,3.23,0,0,0,4.56-.28l.29-.33-5.09-4.5Z"/><path class="cls-224" d="M48.66,87.25l.74-.83.53.47A1,1,0,0,1,50,88.34l-.53.6A2.66,2.66,0,0,0,48.66,87.25Z"/><path class="cls-225" d="M45.77,87.91,47.42,86A1,1,0,0,1,48.87,86l.53.47-2.33,2.64Z"/><path class="cls-226" d="M41.71,95.12l7-7.86a2.66,2.66,0,0,1,.82,1.69,8,8,0,0,1-.49,3.4,18.43,18.43,0,0,1-3.31,3.47C43.95,97.1,41.71,95.12,41.71,95.12Z"/><path class="cls-227" d="M43.7,87.63a5,5,0,0,1,3.11-.9,4.18,4.18,0,0,1,1.85.53l-7,7.86c-1.77-1.64-1.4-2.82-1.3-3.33A11.63,11.63,0,0,1,43.7,87.63Z"/><path class="cls-228" d="M41.71,95.12l2.7-3.06a5.88,5.88,0,0,1,2.93,2.26A2.92,2.92,0,0,1,46,95.87C43.9,97.25,41.71,95.12,41.71,95.12Z"/><path class="cls-213" d="M41.89,89.39l0,.08-.94,1.82s.22-.17,2.81.54a6.74,6.74,0,0,1,.7.23l-2.7,3.06a7.21,7.21,0,0,1-.57-.59.15.15,0,0,0,0,0,3.05,3.05,0,0,1-.8-3C40.35,91.21,40.95,89.67,41.89,89.39Z"/><circle class="cls-229" cx="61.87" cy="102.85" r="3.31" transform="translate(-56.16 81.07) rotate(-48.51)"/><circle class="cls-214" cx="61.87" cy="102.85" r="2.45" transform="translate(-56.16 81.08) rotate(-48.52)"/><circle class="cls-225" cx="61.87" cy="102.85" r="1.75" transform="translate(-56.16 81.07) rotate(-48.51)"/><path class="cls-221" d="M66.64,113.66l8.2-9.28A10.15,10.15,0,0,1,74,97.91L54.42,80.57l.45-.51L74.72,97.62l-.18.75a8.69,8.69,0,0,0,.68,5.57l.37.78-8.74,9.87-.2-.06a10.75,10.75,0,0,0-3.08-.51,9.25,9.25,0,0,0-3.2.52l-.19.07L40.05,96.83l.45-.51,19.63,17.34A10.09,10.09,0,0,1,66.64,113.66Z"/><path class="cls-230" d="M73.39,67.65,91,91.49a16.28,16.28,0,0,1-3.41,22.77L54.46,138.73a8,8,0,0,1-2.64,1.3,8.06,8.06,0,0,1-3.39.26,8.28,8.28,0,0,1-5.57-3.3l-27.11-36.7A8.22,8.22,0,0,1,14.25,94a8.08,8.08,0,0,1,1.23-3.18,8,8,0,0,1,2-2.15L50.62,64.22A16.28,16.28,0,0,1,73.39,67.65Z"/><path class="cls-231" d="M53.62,136.54a6.26,6.26,0,0,1-2.09,1,6.42,6.42,0,0,1-2.73.21,6.57,6.57,0,0,1-4.43-2.63L17.95,99.38a6.63,6.63,0,0,1-.22-7.54,6.31,6.31,0,0,1,1.61-1.72L51.62,66.28a14.42,14.42,0,0,1,20.14,3L88.92,92.56a14.42,14.42,0,0,1-3,20.14Z"/><path class="cls-232" d="M27.95,81l37,50-10.45,7.72a8,8,0,0,1-2.64,1.3,8.06,8.06,0,0,1-3.39.26,8.28,8.28,0,0,1-5.57-3.3l-27.11-36.7A8.22,8.22,0,0,1,14.25,94a8.08,8.08,0,0,1,1.23-3.18,8,8,0,0,1,2-2.15Z"/><path class="cls-230" d="M50.62,64.22,17.49,88.68a8,8,0,0,0-2,2.15A8.08,8.08,0,0,0,14.25,94a8.22,8.22,0,0,0,1.51,6.28L42.86,137a8.28,8.28,0,0,0,5.57,3.3,8.06,8.06,0,0,0,3.39-.26,8,8,0,0,0,2.64-1.3l33.12-24.47A16.28,16.28,0,0,0,91,91.49L73.39,67.65A16.28,16.28,0,0,0,50.62,64.22ZM88.92,92.56a14.42,14.42,0,0,1-3,20.14L53.62,136.54a6.28,6.28,0,0,1-2.09,1,6.42,6.42,0,0,1-2.73.21,6.57,6.57,0,0,1-4.43-2.63L17.95,99.38a6.63,6.63,0,0,1-.22-7.54,6.31,6.31,0,0,1,1.61-1.72L51.62,66.28a14.42,14.42,0,0,1,20.14,3Z"/><path class="cls-233" d="M43.87,136.2l.62-.95a5.83,5.83,0,0,1-.65-.49,5.08,5.08,0,0,1-.56-.59l-.87.72a6.3,6.3,0,0,0,.68.71A7,7,0,0,0,43.87,136.2Z"/><path class="cls-233" d="M47.2,137.24l0-1.13a5.52,5.52,0,0,1-.81-.09,5.25,5.25,0,0,1-.79-.21l-.37,1.07a6.35,6.35,0,0,0,1,.25A6.74,6.74,0,0,0,47.2,137.24Z"/><path class="cls-233" d="M50.58,136.41l-.56-1a5.15,5.15,0,0,1-.73.34c-.18.07-.38.12-.56.17l-.24.06.24,1.1.31-.08c.16,0,.4-.11.63-.2A6.29,6.29,0,0,0,50.58,136.41Z"/><rect class="cls-230" x="36.9" y="126.35" width="1.13" height="1.85" transform="translate(-68.32 47.19) rotate(-36.47)"/><rect class="cls-230" x="38.87" y="129.02" width="1.13" height="1.85" transform="translate(-69.52 48.88) rotate(-36.47)"/><rect class="cls-230" x="40.83" y="131.68" width="1.13" height="1.85" transform="translate(-70.71 50.57) rotate(-36.47)"/><rect class="cls-230" x="30.98" y="118.34" width="1.13" height="1.85" transform="translate(-64.66 42.04) rotate(-36.43)"/><rect class="cls-230" x="32.95" y="121.01" width="1.13" height="1.85" transform="translate(-65.86 43.73) rotate(-36.43)"/><rect class="cls-230" x="34.91" y="123.67" width="1.13" height="1.85" transform="translate(-67.06 45.42) rotate(-36.43)"/><rect class="cls-230" x="25.05" y="110.32" width="1.13" height="1.85" transform="translate(-61.11 37.01) rotate(-36.47)"/><rect class="cls-230" x="27.03" y="112.99" width="1.13" height="1.85" transform="translate(-62.31 38.71) rotate(-36.47)"/><rect class="cls-230" x="28.99" y="115.65" width="1.13" height="1.85" transform="translate(-63.5 40.39) rotate(-36.47)"/><rect class="cls-230" x="19.13" y="102.31" width="1.13" height="1.85" transform="translate(-57.5 31.92) rotate(-36.47)"/><rect class="cls-230" x="21.1" y="104.98" width="1.13" height="1.85" transform="translate(-58.7 33.62) rotate(-36.47)"/><rect class="cls-230" x="23.07" y="107.64" width="1.13" height="1.85" transform="translate(-59.85 35.25) rotate(-36.43)"/><path class="cls-233" d="M17.21,94.93l1,.5a6,6,0,0,1,.42-.71,5.12,5.12,0,0,1,.5-.62l-.82-.78a6.18,6.18,0,0,0-.62.77A7.47,7.47,0,0,0,17.21,94.93Z"/><path class="cls-233" d="M16.58,98.37l1.13-.1a5.35,5.35,0,0,1,0-.81,6.57,6.57,0,0,1,.12-.81l-1.11-.23a7.48,7.48,0,0,0-.14,1A6.59,6.59,0,0,0,16.58,98.37Z"/><path class="cls-233" d="M17.81,101.62l.91-.67a5.33,5.33,0,0,1-.43-.69,5.65,5.65,0,0,1-.32-.75l-1.07.37a6.82,6.82,0,0,0,.39.9A6.43,6.43,0,0,0,17.81,101.62Z"/><rect class="cls-230" x="25.01" y="87.72" width="1.85" height="1.13" transform="translate(-47.4 32.7) rotate(-36.47)"/><rect class="cls-230" x="22.34" y="89.69" width="1.85" height="1.13" transform="translate(-49.05 31.45) rotate(-36.43)"/><rect class="cls-230" x="19.68" y="91.65" width="1.85" height="1.13" transform="translate(-50.74 30.26) rotate(-36.43)"/><rect class="cls-230" x="33.02" y="81.8" width="1.85" height="1.13" transform="translate(-42.28 36.26) rotate(-36.43)"/><rect class="cls-230" x="30.35" y="83.77" width="1.85" height="1.13" transform="translate(-43.97 35.06) rotate(-36.43)"/><rect class="cls-230" x="27.69" y="85.73" width="1.85" height="1.13" transform="translate(-45.69 33.91) rotate(-36.47)"/><rect class="cls-230" x="41.04" y="75.88" width="1.85" height="1.13" transform="translate(-37.22 39.91) rotate(-36.47)"/><rect class="cls-230" x="38.37" y="77.85" width="1.85" height="1.13" transform="translate(-38.91 38.71) rotate(-36.47)"/><rect class="cls-230" x="35.71" y="79.81" width="1.85" height="1.13" transform="translate(-40.6 37.51) rotate(-36.47)"/><rect class="cls-230" x="49.05" y="69.95" width="1.85" height="1.13" transform="translate(-32.11 43.46) rotate(-36.43)"/><rect class="cls-230" x="46.38" y="71.92" width="1.85" height="1.13" transform="translate(-33.8 42.26) rotate(-36.43)"/><rect class="cls-230" x="43.72" y="73.89" width="1.85" height="1.13" transform="translate(-35.49 41.07) rotate(-36.43)"/><path class="cls-233" d="M57.81,66,58,67.14l.87-.09a5.62,5.62,0,0,1,.87,0V65.89a6.34,6.34,0,0,0-1,0Z"/><path class="cls-233" d="M54.53,66.95,55,68l.81-.32.84-.24-.29-1.09-.91.27Z"/><path class="cls-233" d="M51.58,68.63l.67.91L53,69a6.57,6.57,0,0,1,.75-.45l-.55-1S51.58,68.63,51.58,68.63Z"/><path class="cls-233" d="M67.57,68.3l-.64.93a6.12,6.12,0,0,1,.7.52c.34.27.67.56.67.56l.77-.83s-.36-.31-.73-.61A7,7,0,0,0,67.57,68.3Z"/><path class="cls-233" d="M64.55,66.72l-.39,1.06.81.33a7.91,7.91,0,0,1,.78.39l.53-1a8.72,8.72,0,0,0-.85-.43Z"/><path class="cls-233" d="M61.24,66l-.12,1.13.27,0a3.76,3.76,0,0,1,.59.09l.86.17.27-1.1-.93-.19a4.33,4.33,0,0,0-.65-.1Z"/><rect class="cls-230" x="73.66" y="76.06" width="1.13" height="1.85" transform="translate(-31.23 59.24) rotate(-36.49)"/><rect class="cls-230" x="71.69" y="73.39" width="1.13" height="1.85" transform="translate(-30.03 57.54) rotate(-36.49)"/><path class="cls-233" d="M70.13,70.58l-.85.74.55.68.55.73.91-.67-.56-.74Z"/><rect class="cls-230" x="79.58" y="84.07" width="1.13" height="1.85" transform="matrix(0.8, -0.59, 0.59, 0.8, -34.84, 64.33)"/><rect class="cls-230" x="77.61" y="81.4" width="1.13" height="1.85" transform="translate(-33.63 62.59) rotate(-36.47)"/><rect class="cls-230" x="75.65" y="78.74" width="1.13" height="1.85" transform="translate(-32.44 60.95) rotate(-36.49)"/><path class="cls-233" d="M86,91.93l-.91.67.55.74c.27.37.5.73.5.73l.94-.62s-.26-.41-.53-.78Z"/><rect class="cls-230" x="83.53" y="89.42" width="1.13" height="1.85" transform="translate(-37.22 67.59) rotate(-36.43)"/><rect class="cls-230" x="81.57" y="86.76" width="1.13" height="1.85" transform="translate(-36.02 65.91) rotate(-36.43)"/><path class="cls-233" d="M89.29,101.37l-1.13,0a12.72,12.72,0,0,1-.17,1.74l1.11.19A13.89,13.89,0,0,0,89.29,101.37Z"/><path class="cls-233" d="M89,98l-1.1.25.16.86c.06.43.09.87.09.87l1.13-.09s0-.48-.1-.95Z"/><path class="cls-233" d="M87.83,94.79l-1,.51s.69,1.6.69,1.6l1.07-.37-.35-.89A6.09,6.09,0,0,0,87.83,94.79Z"/><path class="cls-233" d="M85.34,110.58l-.8-.8a5.69,5.69,0,0,1-.63.6l-.68.55.68.9.74-.6A6.46,6.46,0,0,0,85.34,110.58Z"/><path class="cls-233" d="M87.43,107.89l-1-.57s-1,1.46-1,1.43l.89.7a5.64,5.64,0,0,0,.57-.76Z"/><path class="cls-233" d="M88.76,104.76l-1.09-.31s-.11.42-.26.83l-.33.81,1,.46.36-.88C88.63,105.22,88.76,104.76,88.76,104.76Z"/><rect class="cls-230" x="75.38" y="116.2" width="1.85" height="1.13" transform="translate(-54.46 68.21) rotate(-36.47)"/><rect class="cls-230" x="78.05" y="114.23" width="1.85" height="1.13" transform="translate(-52.77 69.42) rotate(-36.47)"/><rect class="cls-230" x="80.71" y="112.26" width="1.85" height="1.13" transform="translate(-51.05 70.53) rotate(-36.43)"/><rect class="cls-230" x="67.36" y="122.12" width="1.85" height="1.13" transform="translate(-59.51 64.53) rotate(-36.43)"/><rect class="cls-230" x="70.03" y="120.15" width="1.85" height="1.13" transform="matrix(0.8, -0.59, 0.59, 0.8, -57.82, 65.73)"/><rect class="cls-230" x="72.69" y="118.18" width="1.85" height="1.13" transform="translate(-56.13 66.93) rotate(-36.43)"/><rect class="cls-230" x="59.35" y="128.04" width="1.85" height="1.13" transform="translate(-64.64 61.01) rotate(-36.47)"/><rect class="cls-230" x="62.02" y="126.07" width="1.85" height="1.13" transform="translate(-62.94 62.21) rotate(-36.47)"/><rect class="cls-230" x="64.68" y="124.11" width="1.85" height="1.13" transform="translate(-61.26 63.4) rotate(-36.47)"/><rect class="cls-230" x="51.33" y="133.96" width="1.85" height="1.13" transform="translate(-69.68 57.33) rotate(-36.43)"/><rect class="cls-230" x="54" y="131.99" width="1.85" height="1.13" transform="translate(-67.99 58.52) rotate(-36.43)"/><rect class="cls-230" x="56.66" y="130.03" width="1.85" height="1.13" transform="translate(-66.3 59.72) rotate(-36.43)"/><path class="cls-230" d="M51.82,140a48.17,48.17,0,0,0,5.12-3.18L20,86.87a48.2,48.2,0,0,0-4.54,4A8.08,8.08,0,0,0,14.25,94l34.18,46.27A8.06,8.06,0,0,0,51.82,140Z"/><path class="cls-234" d="M82.64,89.79,78.24,93a8.48,8.48,0,0,1-11.87-1.78h0a8.48,8.48,0,0,1,1.78-11.87L74.1,75a4.86,4.86,0,0,1,6.79,1l3.18,4.3A6.77,6.77,0,0,1,82.64,89.79Z"/><path class="cls-235" d="M74.88,94.58a4.11,4.11,0,0,1-5.75-.86l-4.3-5.83a4.11,4.11,0,0,1,.86-5.75l10.52-7.77c.49-.36,1.63-1.2,3.49,1.31l5.47,7.41c1.86,2.51.71,3.36.23,3.72Z"/><circle class="cls-234" cx="73.95" cy="87.61" r="5.8" transform="translate(-37.58 61.09) rotate(-36.46)"/><circle class="cls-236" cx="73.02" cy="86.34" r="5.8" transform="translate(-37.02 60.29) rotate(-36.46)"/><circle class="cls-237" cx="73.02" cy="86.34" r="5.04" transform="translate(-37.01 60.28) rotate(-36.45)"/><ellipse class="cls-238" cx="71.69" cy="84.54" rx="2.31" ry="1.54" transform="translate(-36.21 59.16) rotate(-36.46)"/><ellipse class="cls-238" cx="75.17" cy="89.25" rx="1.15" ry="0.77" transform="translate(-38.32 62.13) rotate(-36.46)"/><path class="cls-239" d="M14.25,94l34.18,46.27a8.28,8.28,0,0,1-5.57-3.3l-27.11-36.7A8.22,8.22,0,0,1,14.25,94Z"/></g></g></g></svg>