<svg xmlns="http://www.w3.org/2000/svg" xmlns:xlink="http://www.w3.org/1999/xlink" viewBox="0 0 150 150"><defs><style>.cls-1,.cls-2{fill:none;}.cls-2{stroke:#aa8f4f;stroke-miterlimit:10;stroke-width:2.1px;}.cls-3{fill:#009bb5;}.cls-4{fill:#a7a9ac;}.cls-5{fill:#898c8f;}.cls-6{fill:#bcbec0;}.cls-7{fill:#1e1714;}.cls-8{fill:#a0e1fd;}.cls-9{clip-path:url(#clip-path);}.cls-10{fill:#00c03a;}.cls-11{fill:#f58b1f;}.cls-12{fill:#fcb913;}</style><clipPath id="clip-path"><circle class="cls-1" cx="65.55" cy="82.09" r="62.29"/></clipPath></defs><title>Artboard 2 copy 9</title><g id="Layer_16" data-name="Layer 16"><g id="Layer_14" data-name="Layer 14"><circle class="cls-2" cx="65.55" cy="82.82" r="62.29"/><rect class="cls-3" x="28.85" y="11.14" width="73.39" height="107.68"/><rect class="cls-4" x="88.21" y="68.24" width="5.75" height="16.75" rx="2.66" ry="2.66"/><path class="cls-5" d="M100.18,76H91.55a1,1,0,0,1-1-1h0a1,1,0,0,1,1-1h8.63a1,1,0,0,1,1,1h0A1,1,0,0,1,100.18,76Z"/><path class="cls-6" d="M99.74,75.54H91.11a1,1,0,0,1-1-1h0a1,1,0,0,1,1-1h8.63a1,1,0,0,1,1,1h0A1,1,0,0,1,99.74,75.54Z"/><circle class="cls-7" cx="91.21" cy="78.11" r="0.62"/><polygon class="cls-7" points="90.84 78.47 90.71 79.51 91.71 79.51 91.58 78.47 90.84 78.47"/><rect class="cls-8" x="23.09" y="11.14" width="5.75" height="107.68"/><rect class="cls-8" x="62.69" y="-33.86" width="5.75" height="84.87" transform="translate(74.14 -56.99) rotate(90)"/><rect class="cls-8" x="102.24" y="11.14" width="5.75" height="107.68"/><g class="cls-9"><rect class="cls-3" x="28.85" y="13.38" width="73.39" height="127.7"/><rect class="cls-10" x="14.47" y="141.09" width="102.15" height="5.46"/><rect class="cls-4" x="88.21" y="70.48" width="5.75" height="16.75" rx="2.66" ry="2.66"/><path class="cls-5" d="M100.18,78.19H91.55a1,1,0,0,1-1-1h0a1,1,0,0,1,1-1h8.63a1,1,0,0,1,1,1h0A1,1,0,0,1,100.18,78.19Z"/><path class="cls-6" d="M99.74,77.78H91.11a1,1,0,0,1-1-1h0a1,1,0,0,1,1-1h8.63a1,1,0,0,1,1,1h0A1,1,0,0,1,99.74,77.78Z"/><circle class="cls-7" cx="91.21" cy="80.35" r="0.62"/><polygon class="cls-7" points="90.85 80.71 90.71 81.75 91.72 81.75 91.58 80.71 90.85 80.71"/><rect class="cls-8" x="23.1" y="13.38" width="5.75" height="127.7"/><rect class="cls-8" x="62.69" y="-31.62" width="5.75" height="84.87" transform="translate(76.38 -54.75) rotate(90)"/><rect class="cls-8" x="102.24" y="13.38" width="5.75" height="127.7"/></g><path class="cls-11" d="M143.37,108.39a10.5,10.5,0,0,0,4.2-8.38v-.44a10.5,10.5,0,0,0-4.2-8.38,8.75,8.75,0,0,0-17.45,0,10.64,10.64,0,0,0-3.31,4.21H91.71l-1.4,1.75h0L90,97.6l-1.75,2.19,2.08,2.08H92L94.14,104H96.4l1.55-1.55H100l1.3,1.3H103l2.33-2.33h3.53l2.19,2.19h2.25l1.51-1.51,2.2,2.2h5.62a10.64,10.64,0,0,0,3.27,4.11,8.75,8.75,0,0,0,17.45,0Zm-.61-8.6a3.4,3.4,0,1,1-3.4-3.4A3.4,3.4,0,0,1,142.76,99.79Z"/><polygon class="cls-11" points="88.7 99.79 90.78 101.87 92.54 101.87 94.63 103.97 96.89 103.97 98.44 102.42 100.53 102.42 101.83 103.72 103.52 103.72 105.85 101.39 109.38 101.39 111.57 103.58 113.82 103.58 115.33 102.07 117.53 104.27 124.7 104.27 124.7 99.79 88.7 99.79"/><polygon class="cls-12" points="122.87 99.79 88.7 99.79 92.21 95.41 124.08 95.41 122.87 99.79"/><polygon class="cls-11" points="90.81 97.16 90.11 98.04 123.36 98.04 123.6 97.16 90.81 97.16"/><path class="cls-12" d="M143.86,108.39a10.5,10.5,0,0,0,4.2-8.38v-.44a10.5,10.5,0,0,0-4.2-8.38,8.75,8.75,0,0,0-17.45,0,10.5,10.5,0,0,0-4.2,8.38V100a10.5,10.5,0,0,0,4.2,8.38,8.75,8.75,0,0,0,17.45,0Zm-7.4-8.6a3.4,3.4,0,1,1,3.4,3.4A3.4,3.4,0,0,1,136.46,99.79Z"/><rect class="cls-11" x="123.58" y="98.26" width="12.85" height="3.07" rx="0.82" ry="0.82" transform="translate(229.8 -30.22) rotate(90)"/></g></g></svg>