<svg xmlns="http://www.w3.org/2000/svg" viewBox="0 0 150 150"><defs><style>.cls-1{isolation:isolate;}.cls-2{fill:#e4863d;}.cls-3{fill:#393c63;}.cls-13,.cls-4{fill:#4f577f;}.cls-5{fill:#f3eedd;}.cls-6{fill:#fff;}.cls-7{fill:#f6a737;}.cls-8{fill:#ddd9d1;}.cls-9{fill:#ffcb5a;}.cls-10{fill:#ffe1a1;}.cls-11{fill:#4f7598;}.cls-12,.cls-19{fill:#2f2d4f;}.cls-13{font-size:7.26px;font-family:BebasNeueRegular, Bebas Neue;letter-spacing:0.08em;}.cls-14{fill:none;stroke:#4f577f;stroke-miterlimit:10;stroke-width:0.31px;}.cls-15{fill:#d4d6d9;}.cls-16{fill:#acaab1;}.cls-17{fill:#f6b381;}.cls-18{fill:#f6906b;}.cls-19{opacity:0.22;mix-blend-mode:multiply;}.cls-20{fill:#e3e3e6;}.cls-21{fill:#f1e8e1;}.cls-22{fill:#ddd3d2;}</style></defs><title>Artboard 2 copy 3</title><g class="cls-1"><g id="Layer_16" data-name="Layer 16"><g id="Layer_14" data-name="Layer 14"><path class="cls-2" d="M112.45,26.78l-1.15-.5a2.38,2.38,0,0,1,1.91-4.36l1.15.5a2.38,2.38,0,1,1-1.91,4.36Zm3.66-6.56-2.46-1.08a5.1,5.1,0,0,0-4.1,9.34L112,29.56a5.1,5.1,0,0,0,4.1-9.34Z"/><rect class="cls-3" x="49.79" y="22.85" width="80.73" height="106.4" rx="3.14" ry="3.14" transform="translate(38.15 -29.81) rotate(23.69)"/><rect class="cls-4" x="50.18" y="22.93" width="80.73" height="104.44" rx="3.12" ry="3.12" transform="translate(37.82 -30.04) rotate(23.69)"/><rect class="cls-5" x="57.54" y="29.61" width="65.88" height="91.38" transform="translate(37.88 -30.01) rotate(23.69)"/><path class="cls-3" d="M38.84,117.07h65.88a0,0,0,0,1,0,0v.72a1,1,0,0,1-1,1H38.84a0,0,0,0,1,0,0v-1.68A0,0,0,0,1,38.84,117.07Z" transform="translate(53.42 -18.91) rotate(23.69)"/><rect class="cls-6" x="57.71" y="29.65" width="65.88" height="90.53" transform="translate(37.73 -30.11) rotate(23.69)"/><path class="cls-7" d="M116.77,19.39l-3-1.29a6.12,6.12,0,0,0-4.92,11.21l3,1.29a6.12,6.12,0,0,0,4.92-11.21Zm-4.39,7.88-1.38-.6a2.86,2.86,0,1,1,2.3-5.23l1.38.6a2.86,2.86,0,1,1-2.3,5.23Z"/><rect class="cls-8" x="83.9" y="33.3" width="48.41" height="3.67" transform="translate(23.23 -40.47) rotate(23.69)"/><path class="cls-3" d="M87,28.68h45.78A1.31,1.31,0,0,1,134.06,30v3.6a0,0,0,0,1,0,0H85.65a0,0,0,0,1,0,0V30A1.31,1.31,0,0,1,87,28.68Z" transform="translate(21.77 -41.51) rotate(23.69)"/><path class="cls-9" d="M91,24.15h38.66a3,3,0,0,1,3,3v8.58a0,0,0,0,1,0,0H88a0,0,0,0,1,0,0V27.17a3,3,0,0,1,3-3Z" transform="translate(21.33 -41.82) rotate(23.69)"/><rect class="cls-7" x="106.98" y="11.29" width="3.56" height="44.69" transform="translate(34.26 119.72) rotate(-66.31)"/><rect class="cls-10" x="106.98" y="26.75" width="3.56" height="13.76" rx="1.78" ry="1.78" transform="translate(34.26 119.72) rotate(-66.31)"/><rect class="cls-2" x="120.63" y="36.09" width="3.56" height="7.08" rx="1.78" ry="1.78" transform="translate(36.94 135.8) rotate(-66.31)"/><path class="cls-10" d="M107.17,24.66l-9.42-4.13a1.12,1.12,0,0,1-.58-1.48h0a1.12,1.12,0,0,1,1.48-.58l9.42,4.13a1.12,1.12,0,0,1,.58,1.48h0A1.12,1.12,0,0,1,107.17,24.66Z"/><path class="cls-11" d="M79.7,129.56,66.91,124a1,1,0,0,1-.5-1.29h0a1,1,0,0,1,1.29-.5l12.79,5.61a1,1,0,0,1,.5,1.29h0A1,1,0,0,1,79.7,129.56Z"/><path class="cls-12" d="M46.57,115l-7-3.07a1,1,0,0,1-.5-1.29h0a1,1,0,0,1,1.29-.5l7,3.07a1,1,0,0,1,.5,1.29h0A1,1,0,0,1,46.57,115Z"/><path class="cls-9" d="M115.41,20.89l-1.49-.65a1,1,0,0,1-.49-1.26h0a1,1,0,0,1,1.26-.49l1.49.65a1,1,0,0,1,.49,1.26h0A1,1,0,0,1,115.41,20.89Z"/><text class="cls-13" transform="translate(96.05 41.59) rotate(23.69)">PRICE</text><line class="cls-14" x1="76.47" y1="35.72" x2="130" y2="59.2"/><line class="cls-14" x1="47.65" y1="101.41" x2="65.7" y2="109.33"/><rect class="cls-15" x="72.4" y="41.73" width="11.75" height="10.5" rx="1" ry="1" transform="translate(25.47 -27.49) rotate(23.69)"/><path class="cls-15" d="M111.38,57.06,87.16,46.43a.59.59,0,0,1-.3-.78h0a.59.59,0,0,1,.78-.3L111.86,56a.59.59,0,0,1,.3.78h0A.59.59,0,0,1,111.38,57.06Z"/><path class="cls-16" d="M125.92,67,85.84,49.45a.59.59,0,0,1-.3-.78h0a.59.59,0,0,1,.78-.3L126.39,66a.59.59,0,0,1,.3.78h0A.59.59,0,0,1,125.92,67Z"/><path class="cls-16" d="M124.89,69.37,84.81,51.79a.59.59,0,0,1-.3-.78h0a.59.59,0,0,1,.78-.3l40.08,17.59a.59.59,0,0,1,.3.78h0A.59.59,0,0,1,124.89,69.37Z"/><path class="cls-16" d="M95.83,59.41l-12-5.28a.59.59,0,0,1-.3-.78h0a.59.59,0,0,1,.78-.3l12,5.28a.59.59,0,0,1,.3.78h0A.59.59,0,0,1,95.83,59.41Z"/><rect class="cls-15" x="65.64" y="57.15" width="11.75" height="10.5" rx="1" ry="1" transform="translate(31.09 -23.48) rotate(23.69)"/><path class="cls-15" d="M104.62,72.47,80.4,61.85a.59.59,0,0,1-.3-.78h0a.59.59,0,0,1,.78-.3l24.22,10.63a.59.59,0,0,1,.3.78h0A.59.59,0,0,1,104.62,72.47Z"/><path class="cls-16" d="M119.16,82.45,79.07,64.87a.59.59,0,0,1-.3-.78h0a.59.59,0,0,1,.78-.3l40.08,17.59a.59.59,0,0,1,.3.78h0A.59.59,0,0,1,119.16,82.45Z"/><path class="cls-16" d="M118.13,84.79,78,67.2a.59.59,0,0,1-.3-.78h0a.59.59,0,0,1,.78-.3l40.08,17.59a.59.59,0,0,1,.3.78h0A.59.59,0,0,1,118.13,84.79Z"/><path class="cls-16" d="M89.07,74.82,77,69.54a.59.59,0,0,1-.3-.78h0a.59.59,0,0,1,.78-.3l12,5.28a.59.59,0,0,1,.3.78h0A.59.59,0,0,1,89.07,74.82Z"/><path class="cls-16" d="M114.3,93.52,62.13,70.63a.59.59,0,0,1-.3-.78h0a.59.59,0,0,1,.78-.3l52.17,22.89a.59.59,0,0,1,.3.78h0A.59.59,0,0,1,114.3,93.52Z"/><path class="cls-15" d="M91.36,87,60.83,73.61a.59.59,0,0,1-.3-.78h0a.59.59,0,0,1,.78-.3l30.54,13.4a.59.59,0,0,1,.3.78h0A.59.59,0,0,1,91.36,87Z"/><path class="cls-4" d="M58.21,104.13A1.14,1.14,0,0,1,58,104c-.74-.58-.41-1.79-.3-2.19.27-1,.55-2,.86-3a44.92,44.92,0,0,1-5,2.91.15.15,0,0,1-.14-.28,44.65,44.65,0,0,0,5.25-3.11,28.91,28.91,0,0,1,3-6.81A4.67,4.67,0,0,1,63,90a2,2,0,0,1,2-.18,2,2,0,0,1,.76,2.39,5.18,5.18,0,0,1-1.52,2.05A45,45,0,0,1,59,98.51c-.36,1.15-.67,2.28-1,3.37s-.2,1.56.19,1.86a1.68,1.68,0,0,0,1.51,0,22.38,22.38,0,0,0,4.94-2.34.15.15,0,0,1,.21.22l-1.6,2.45c-.06.09-.35.56-.13.74a.59.59,0,0,0,.47,0,6.41,6.41,0,0,0,.9-.27,1.59,1.59,0,0,1,1.22-.6.15.15,0,0,1,.1.28,6.66,6.66,0,0,1-1.08.55.36.36,0,0,0,0,.11c0,.28.32.45.64.63s.78.44.78.9a.15.15,0,0,1-.31,0c0-.28-.31-.45-.63-.64s-.77-.44-.79-.89h0a6.73,6.73,0,0,1-.75.21.83.83,0,0,1-.74-.1c-.28-.24-.25-.65.07-1.15L64.2,102a22.69,22.69,0,0,1-4.42,2A2.26,2.26,0,0,1,58.21,104.13ZM64.7,90.08a1.7,1.7,0,0,0-1.57.21,4.4,4.4,0,0,0-1.21,1.38A27.85,27.85,0,0,0,59.1,98a44.65,44.65,0,0,0,4.86-4,4.92,4.92,0,0,0,1.44-1.92,1.72,1.72,0,0,0-.61-2Z"/><polygon class="cls-17" points="53.4 84.19 59.34 95.81 53.59 99.14 44.7 94.79 53.4 84.19"/><path class="cls-17" d="M28.09,98.59l8-13.28a6.19,6.19,0,0,1,3.84-2.82L53.4,84.19,49.89,97l-16.45,7.47Z"/><path class="cls-18" d="M40.63,94.72l1.7-6.5a1,1,0,0,1,1.14-.7l6.67,1.43a1,1,0,0,1,.66.5l1.64,3.12a1,1,0,0,1-.67,1.4l-10,1.95A1,1,0,0,1,40.63,94.72Z"/><path class="cls-8" d="M35.82,71.45l1.65-.39a91.84,91.84,0,0,1,9,9.63l.09.12-.49,0s-6.51-7.76-9-8.7a5.37,5.37,0,0,0-.9.61Z"/><rect class="cls-8" x="32.58" y="69.07" width="2.22" height="4.3" rx="0.42" ry="0.42" transform="translate(105.53 103.58) rotate(139.57)"/><path class="cls-3" d="M61,102.63l.34.93a.09.09,0,0,1-.13.11l-.86-.51a.09.09,0,0,1,0-.15l.52-.42A.09.09,0,0,1,61,102.63Z"/><polygon class="cls-9" points="59.88 100.58 61.16 102.69 60.34 103.39 58.52 101.79 59.88 100.58"/><path class="cls-3" d="M40.14,82.15C37.58,78.92,35.44,76,34,73.77l2.17-1.85c2,1.83,4.51,4.4,7.29,7.44Z"/><path class="cls-3" d="M47.3,83.74l.9,1c5.73,6.72,10.3,12.87,12.17,16.2l-1.56,1.33c-3-2.38-8.33-7.87-14.06-14.59l-.89-1.05Z"/><path class="cls-8" d="M47.47,83.93,44,86.87c-1.44-1.71-2.8-3.37-4.05-4.95l3.26-2.78C44.59,80.64,46,82.24,47.47,83.93Z"/><path class="cls-19" d="M34.95,72.93l24.54,28.8-.68.58c-3-2.38-8.33-7.87-14.06-14.59A156.53,156.53,0,0,1,34,73.77Z"/><rect class="cls-8" x="33.22" y="72.21" width="3.25" height="0.88" transform="translate(108.47 105.35) rotate(139.57)"/><rect class="cls-19" x="33.41" y="72.73" width="1.65" height="0.88" transform="translate(107.74 106.66) rotate(139.57)"/><path class="cls-17" d="M34.23,111.7l2.59-3a.64.64,0,0,1,.5-.22l4.78.16c4.39.14,6.82-5.76,7.4-7.37a.64.64,0,0,1,.58-.42l6.2-.25a4,4,0,0,0,3.79-3.73h0a2.49,2.49,0,0,0-2.32-2.62l-12.59-.85a.64.64,0,0,0-.42.12l-9.9,7.07a.64.64,0,0,1-.8,0l-4.12-3.71A.64.64,0,0,0,29,97l-6.68,9.12a.64.64,0,0,0,.26,1l10.94,4.8A.64.64,0,0,0,34.23,111.7Z"/><path class="cls-17" d="M33.92,112.06l3.1-3.54,5.08.17c5.08.17,7.54-7.78,7.54-7.78l7.31-.29a3.22,3.22,0,0,0,3.09-3l.08-1.39a1.75,1.75,0,0,0-1.63-1.85l-13.55-.91-10.51,7.51-5-4.53-7.58,10.34Z"/><path class="cls-18" d="M35.28,104.9l2,.52c8.55,2.06,10.17-7,10.17-7H59.85a3.31,3.31,0,0,1-3,2.21l-7.23.29s-2.45,7.95-7.54,7.78L37,108.52l-3.1,3.54-3-1.33Z"/><path class="cls-20" d="M58.86,97.62l-.06-1a1,1,0,0,0-.93-.93l-2.39-.16a1,1,0,0,0-1.06,1.05L54.5,98a1,1,0,0,0,1.11.93L58,98.67A1,1,0,0,0,58.86,97.62Z"/><rect class="cls-21" x="19.51" y="107.3" width="17.63" height="5.1" rx="1.47" ry="1.47" transform="translate(-7.22 217.59) rotate(-147.28)"/><rect class="cls-22" x="26.02" y="109.21" width="10.57" height="5.1" rx="1.75" ry="1.75" transform="matrix(-0.84, -0.54, 0.54, -0.84, -2.78, 222.71)"/><polygon class="cls-3" points="2.27 132.12 19.37 105.29 36.46 116.27 26.36 132.12 2.27 132.12"/><path class="cls-12" d="M11.56,132.11l12.76-19.36a3.61,3.61,0,0,1,5-1.09l7.16,4.6-10.1,15.84Z"/><path class="cls-15" d="M107.93,105.5l-11-4.82a1.61,1.61,0,0,1-.83-2.12h0a1.61,1.61,0,0,1,2.12-.83l11,4.82a1.61,1.61,0,0,1,.83,2.12h0A1.61,1.61,0,0,1,107.93,105.5Z"/></g></g></g></svg>