<svg xmlns="http://www.w3.org/2000/svg" viewBox="0 0 150 150"><defs><style>.cls-1{fill:#cccac8;}.cls-1,.cls-12,.cls-13,.cls-2,.cls-3,.cls-4,.cls-5,.cls-6,.cls-7,.cls-8,.cls-9{fill-rule:evenodd;}.cls-2{fill:#f0c17d;}.cls-3{fill:#ffdba7;}.cls-4{fill:#632404;}.cls-5{fill:#f8bb04;}.cls-6{fill:#ffd109;}.cls-7{fill:#dedad7;}.cls-8{fill:#1f1c1d;}.cls-9{fill:#0f4283;}.cls-10{fill:#ebebeb;}.cls-11{fill:#aee2e8;}.cls-12{fill:#141313;}.cls-13{fill:#032747;}</style></defs><title>Artboard 2 copy 16</title><g id="Layer_16" data-name="Layer 16"><g id="Layer_14" data-name="Layer 14"><path class="cls-1" d="M113.47,80.57a8.06,8.06,0,0,0,1.83-.06l1.3-1L113.86,79l-.57.9C113.35,80.25,113.23,80.55,113.47,80.57Z"/><path class="cls-2" d="M16.9,40h6.84a12.06,12.06,0,0,0,.36,3.4l-.36,2.12H16.9c0-.73-.25-1.4-.25-2.13A26.58,26.58,0,0,0,16.9,40Z"/><path class="cls-3" d="M20.4,42.65h-.06a3.34,3.34,0,0,1-1.4-.16c-.36-.15-.53-.51-1-1s-1.18-.82-1.36-1.26a7.58,7.58,0,0,1-.27-1.91c-.39.22-.81-.9-.89-1.27-.12-.54-.51-1.46-.63-2.08-.07-.35,0-.64.09-.72s.51-.09.89.43c0-.44.05-.89,0-1.36a12,12,0,0,1,.06-2.26,2.67,2.67,0,0,1,.88-1.62h0a4.54,4.54,0,0,1,1-.65h0l.07,0,0,0,.06,0,.05,0,.06,0,.05,0,.08,0h0l.11,0h0a6.29,6.29,0,0,1,3-.29,5.13,5.13,0,0,1,2.66,1.17,2.66,2.66,0,0,1,.87,1.62,11.83,11.83,0,0,1,.06,2.25c0,.48,0,.93,0,1.37.37-.5.63-.6.88-.41s.16.37.09.72c-.12.62-.51,1.54-.63,2.08-.08.36-.49,1.46-.88,1.28a7.22,7.22,0,0,1-.26,1.86c-.18.44-.93.86-1.35,1.27s-.67.84-1,1A3.12,3.12,0,0,1,20.4,42.65Z"/><path class="cls-4" d="M17.16,30.39a12.25,12.25,0,0,0-1,5.53c-1.08-3.93-1.67-6.74.69-8.51,3.09-2.32,6.82-.83,7.12.06,2.47.87,1.48,4.78.8,7.9a10.71,10.71,0,0,0-1.13-4.86c-.19-.18-1,.86-1.17.85C20.61,31.23,20,30.83,17.16,30.39Z"/><path class="cls-5" d="M20.32,25.43c3.15,0,5.71,3.14,5.71,6.29H14.61C14.61,28.56,17.17,25.43,20.32,25.43Z"/><path class="cls-6" d="M20.32,25.25A5.72,5.72,0,0,1,22,25.5l-1.26,5H19.9l-1.26-5A5.71,5.71,0,0,1,20.32,25.25Z"/><path class="cls-6" d="M15.06,31.31H25.58c.42,0,.77.16.77.61,0,2-12.07,2.06-12.07,0C14.29,31.47,14.63,31.31,15.06,31.31Z"/><path class="cls-3" d="M39.79,60.31c3.15,2.5-.41,5.91-1.58,5.89s-2.18-.51-3.48-2.29C32.3,61,27.64,57.37,26,54.21s-1.22-4,.13-7.33a3,3,0,0,1,4.43-1.19c2.39,1.33,3.24,5,4.08,7.26S38.51,58.17,39.79,60.31Z"/><path class="cls-7" d="M30,59.09A23.18,23.18,0,0,1,26,54.21C24.28,51.09,22.3,42,25.27,44c1.77,1.18,2.63.34,5,1.31,2.53,1,3.57,5.21,4.42,7.42A8.82,8.82,0,0,0,36.19,55Z"/><path class="cls-8" d="M23,132l1.8,2.34L27.45,137c.28.22.35,1.61-.14,1.53l-2.78.23A4.94,4.94,0,0,1,21.9,138c-.58-.32-1.15-.85-1.88-1.35l-.32.64-2.62-1L17,134.36c-.33-2.1.43-2.44.69-3.9l4.57.11Z"/><polygon class="cls-8" points="10.85 130.7 10.74 136.19 8.12 139.24 3.83 138.64 3.65 134.53 5.96 130.03 10.85 130.7"/><polygon class="cls-9" points="9.31 72.92 5.57 86.6 4.97 131.17 8.03 132.09 11.32 131.66 15.4 89.79 16.22 89.36 17.46 73.7 9.31 72.92"/><path class="cls-9" d="M25.56,72.85l1.84,13c-1.16,15.2-3,30.67-3.86,46l-3.33.31-3.4-.17-.09-41.95-.52-.71V73.7Z"/><path class="cls-7" d="M16.7,42.72c-3,2.52-4.73,1.93-7.41,3.15-1.62.74-1.51,3-1.33,4.39,1.13,9,2.11,11.67,1.14,21l17.18,1.88c.16-2.52.47-4.31.88-7,1.2-7.92,6.84-19.52.51-21.52A15.14,15.14,0,0,1,24,43.13C23.33,44.79,17.89,45.26,16.7,42.72Z"/><path class="cls-9" d="M14.68,44a7.17,7.17,0,0,1-2.15,1c3.15,3.36,2.55,9.34,2.46,14.82-.05,3.4-3.15,4.41-6.11,5,0,.33,0,.66.08,1,.43,5.18,0,7.52-.65,12.76,16.23,0,6.27,2.71,17.91,2.62a63.39,63.39,0,0,1,.94-14.92c.06-.38.27-1.19.58-2.26,0-3.57.46-9.08.41-10.92-.08-2.8-.22-5.74-.51-8.39a16.56,16.56,0,0,1-2.34-.83c.54,4.55.08,7.55.13,12.59-.08,2.61-.15,3.37-1.87,3.37a20.79,20.79,0,0,1-3.38-.21c-.86-.18-1.71-.4-1.82-2.24C18,52.17,17.88,48.19,14.68,44Z"/><path class="cls-3" d="M6.56,52.4c1.17,4.87.54,7.22,2.21,12.19.62,1.85.8,2.61,2.31,3.8l4-3.59-.77-7.41.49-7.85C14.14,43.29,5.23,44.8,6.56,52.4Z"/><path class="cls-3" d="M8.95,65.06c.31.74.69,2.5,1,3,.38.68.78.74,1.71,1.37,4.73,2.64,7.21,3.32,12.31,5.15l2.48-1.74C22,69.48,19.88,67,15,64.34Z"/><path class="cls-7" d="M6.56,52.4l.71,5.06,7.18-.07.31-7.86C14.14,43.29,5.23,44.8,6.56,52.4Z"/><rect class="cls-10" x="29.3" y="11.31" width="93.53" height="68.59"/><rect class="cls-11" x="33.99" y="15.85" width="84.16" height="59.52"/><rect class="cls-10" x="73.52" y="14.01" width="5.1" height="63.21"/><path class="cls-7" d="M21.61,73.91l4.54,2.15,2.65,2.69c.73.33,1,.69,1.73,1l1.83.68,3.75-.16,0-.78L32.81,79,31,76.84l-.64-1.63C29,72.87,28.43,72.45,25.77,72l-2.61-2.42Z"/><path class="cls-7" d="M28.88,74.4l2.4.5c1.4.12,2.57-.22,2.7.69.25,1.81-1.48,1.14-2.25,1.15a3.59,3.59,0,0,1-1.83-.12C28.73,76,28.69,75.63,28.88,74.4Z"/><path class="cls-12" d="M128.5,137.84c2.35,1.43,6.09.24,8.45,0a3.66,3.66,0,0,0,2.57.06c1.08-.22.86-2.85.55-4.43a16.15,16.15,0,0,1,0-3.66l-4.48-1.14c.21,2.3.44,3.1-.15,4.08-1.21,2-3.83,2.17-5.58,2.24C127.11,135.11,126.93,136.89,128.5,137.84Z"/><path class="cls-13" d="M143.71,86.32c.84-3.35,1-4.63.64-6.82a21.76,21.76,0,0,0-2.64-6.81l-11,2.37.2,7.33,2.92,20.18.92,30.28,6.22.65,1.34-22.09-1.77-9C140.9,97.84,142.78,90,143.71,86.32Z"/><path class="cls-8" d="M132.36,138.12c2.35,1.37,6.09.1,8.45-.18a3.66,3.66,0,0,0,2.57,0c1.07-.24.86-2.87.54-4.45a16.16,16.16,0,0,1,0-3.66l-4.48-1c.21,2.29.44,3.09-.15,4.09-1.21,2-3.83,2.26-5.58,2.37C131,135.42,130.8,137.21,132.36,138.12Z"/><path class="cls-9" d="M145.57,86.32c.71-3.35.86-4.63.38-6.82a22.62,22.62,0,0,0-2.9-6.81L132,76l1,3.58.45,3.5,1,3L136,102.34l.1.8,2.29,30.48,3.3.57,2.9,0,.43-22.83L144,102.18A130.62,130.62,0,0,1,145.57,86.32Z"/><path class="cls-7" d="M141,64.06c.12,1.5,2.62,8.76,3.17,10.74-3.07-.43-5-1.46-6.68-1.13-2.4.48-3.55.51-6.19,3.33a38,38,0,0,0-3-8.23c-3.19-6.62-5.72-9.49-6.84-13.41a15,15,0,0,1,.34-9.17c1-1.77,2.87-5.38,5.07-5.13,4.9.55,8.48,2.71,10.29,5.61C140.15,51.4,139.57,58.2,141,64.06Z"/><path class="cls-1" d="M132.76,75.89a22.3,22.3,0,0,0-1.68,1.65,37.77,37.77,0,0,0-2.72-8.76c-3.19-6.62-5.72-9.49-6.84-13.41a15,15,0,0,1,.34-9.17c.27-.47.6-1.08,1-1.71,0,12.38,2.77,13.57,5.82,20.08C131.39,70.4,132.26,71.13,132.76,75.89Z"/><path class="cls-9" d="M141,64.06c.12,1.5,2.62,8.76,3.17,10.74-4.93,1.91-7.95,1.91-13.11,2.74a22.84,22.84,0,0,0-.46-2.94,33.53,33.53,0,0,0-2.27-5.82c-3.19-6.62-5.72-9.49-6.84-13.41a15,15,0,0,1,.34-9.17l0-.07c-.09,6.24.29,9,3.62,15.07.77,1.39,2.22,1.26,1.66-.57-1.49-4.89-1.9-10.64-.83-14.24a5.32,5.32,0,0,1,5.62-4,11.42,11.42,0,0,1,5.25,4.32c2.95,4.73,2.36,11.53,3.81,17.38Zm-6.29-18.69c-3.48-2.34-8,1.43-6.73,7a56.81,56.81,0,0,0,4.75,11.41c.86,1.46,1.53,1.51,3,1,1.79-.61,2.18-.58,2.25-2.49C138.19,58,136.48,46.55,134.72,45.37Z"/><path class="cls-13" d="M133.42,82.68c-.58.08-1.19-.36-2.57-5.08a18.13,18.13,0,0,0-.3-2.69,34.43,34.43,0,0,0-2.19-6.14c-3.19-6.62-5.72-9.49-6.84-13.41a15,15,0,0,1,.34-9.17l0-.07c-.09,6.24.29,9,3.62,15.07.63,1.14,1.71,1.26,1.78.26.41,1,.86,2,1.37,3.11,2.6,5.56,3.51,6.49,4,10.66C132.76,75.83,133.35,81.92,133.42,82.68Z"/><path class="cls-3" d="M134.17,57.78c-.55,2.45-1.22,4.74-1.78,6.72s-.53,2.45-1.46,2.82c-2.34.93-6-1.45-5.86-1.69l2-2.63c.33-.44.11-2.66.22-10,.1-6.68,1.64-9.31,5.08-8.75C137,45,134.73,55.24,134.17,57.78Z"/><path class="cls-3" d="M131.45,67c-3.57,3.29-8.65,5.32-13.07,8.13-.9-1.63-1.08-1.94-2-2.52,0,0,8.06-6.93,10.94-9.9.3-.31.53-.78,2.33-.07C131.19,63.29,133.28,65.33,131.45,67Z"/><path class="cls-2" d="M124.12,38.66,127,41.09c.59.59-1.37,6.64-4.61,5a18.7,18.7,0,0,0-3.72-3.34L121,36.9C122.86,38.71,122.59,37.53,124.12,38.66Z"/><path class="cls-3" d="M115.6,44.37a.65.65,0,0,1,.3.76.55.55,0,0,0,.66.19c.73-.78.9,0,.84.06-.52.58-.26.72,0,.81.19-.11.32-.11.41,0,.28.2.27,1.11,1,1.22.9.13,2.26-3.07,2.89-4.56.53-1.23-.31-1.6-1.26-2.5.58-.38.85-.88.17-1.71a15.45,15.45,0,0,0-1.09-4s-5.42-2.86-5.55-2.8-3.12,3.4-3.12,3.4c.15,1,0,2.17.23,3.29a9,9,0,0,0,1.14,2.82,1.42,1.42,0,0,0,.76.81,1.23,1.23,0,0,1,.39.22c.72.82.54,2.24.78,2.43A1.23,1.23,0,0,0,115.6,44.37Z"/><path class="cls-4" d="M116.72,39a13.32,13.32,0,0,1,1.58,1.29c.06-.75-.11-1.15-.06-1.77.1-.82.35-1.74.94-1.93s1.2.94,1.33,1.93a1.51,1.51,0,0,0,.64,1.1c.63.38,1-.32,1.9-.2a19.67,19.67,0,0,1,2.23.29,6.45,6.45,0,0,1-1.44-3c-.23-2.08-2.41-5.48-4.58-5.33h-.15a4.16,4.16,0,0,1,.75,0,4.88,4.88,0,0,0-3.38-.29,4.55,4.55,0,0,0-4.31,1.24,4.87,4.87,0,0,1,1.44-.62c-1.53.91-3.6,4.89-2.52,6.75a7.09,7.09,0,0,1,2.46-1.12,4.15,4.15,0,0,1,3.15,2.21Z"/><path class="cls-1" d="M114.6,37.78a2.7,2.7,0,0,0,3.05-.36c.85-.53,1.06-1,1.65-1.15,2.48-.6,3.74,2.24,4.91,1.5-.44-2.48-.54-3.42-1.84-5.24l-7,1.82Z"/><path class="cls-6" d="M124.67,33.31,124,32c-.28-.64-.46-.54-1-.35-3.27-4.46-7.15-4.52-10.32-2.25-3.42,2.45-3.38,4.68-3.29,7.21.11,3.1.47,2.57-1.36,5.15.13.63,1.58-.11,3.35-1.05a20.12,20.12,0,0,0,3.61-2.2c2.2-2.15,4.22-3.79,7.51-3.26l1.73-1C124.84,33.86,124.88,33.73,124.67,33.31Z"/><path class="cls-5" d="M124.67,33.31,124,32c-.28-.64-.46-.54-1-.35-3.27-4.46-7.15-4.52-10.32-2.25l-.35.26c3.29-1,5.64-.16,7.64,3.12a77.43,77.43,0,0,0-10.3,6.12c3-1.67,8.37-4.75,10-5.12.59-.13.65.31,1,.8l.25.56a7.3,7.3,0,0,1,1.56.09l1.73-1C124.84,33.86,124.88,33.73,124.67,33.31Z"/><path class="cls-7" d="M115.25,73.36l-3.87,3.59c-.88.88-.86.81-.73,1.81l.09,1.17c0,.54,0,.52.59.56a16,16,0,0,0,3.48.07c.11-.74-.12-.53.85-1.32,1.3-1.05,2.1-1.79,2.26-3.44l3.87-2.49-2.64-3.43Z"/><path class="cls-7" d="M134.35,57.78l-7.24-1c0-1.08,0-2.35,0-3.81.1-6.68,1-9.42,5.26-8.89C137.73,44.93,134.91,55.24,134.35,57.78Z"/></g></g></svg>