<svg width="39" height="26" viewBox="0 0 39 26" fill="none" xmlns="http://www.w3.org/2000/svg"><g clip-path="url(#a)"><path d="M5.76.428l1.4 3.312 3.581.307c.249.022.35.332.161.495L8.185 6.896 9 10.398a.282.282 0 0 1-.42.306L5.5 8.847l-3.078 1.857a.282.282 0 0 1-.42-.306l.813-3.502L.098 4.542a.282.282 0 0 1 .16-.495l3.583-.308L5.24.428a.282.282 0 0 1 .52 0z" fill="#A6A6A6"/></g><g clip-path="url(#b)"><path d="M19.76.428l1.4 3.312 3.581.307c.249.022.35.332.161.495l-2.717 2.354.815 3.502a.282.282 0 0 1-.421.306L19.5 8.847l-3.078 1.857a.282.282 0 0 1-.42-.306l.813-3.502-2.717-2.354a.282.282 0 0 1 .16-.495l3.583-.308L19.24.428a.282.282 0 0 1 .52 0z" fill="#A6A6A6"/></g><g clip-path="url(#c)"><path d="M33.76.428l1.4 3.312 3.581.307c.249.022.35.332.161.495l-2.717 2.354.814 3.502a.282.282 0 0 1-.42.306L33.5 8.847l-3.078 1.857a.282.282 0 0 1-.42-.306l.813-3.502-2.717-2.354a.282.282 0 0 1 .16-.495l3.583-.308L33.24.428a.282.282 0 0 1 .52 0z" fill="#A6A6A6"/></g><g clip-path="url(#d)"><path d="M26.76 14.467l1.4 3.613 3.581.335c.249.024.35.362.161.54l-2.717 2.568.815 3.82c.056.266-.208.475-.421.334L26.5 23.65l-3.078 2.026c-.214.14-.477-.069-.42-.334l.813-3.82-2.717-2.569c-.189-.178-.088-.516.16-.54l3.583-.335 1.399-3.612a.274.274 0 0 1 .52 0z" fill="#A6A6A6"/></g><g clip-path="url(#e)"><path d="M12.76 14.467l1.4 3.613 3.581.335c.249.024.35.362.161.54l-2.717 2.568.814 3.82c.057.266-.207.475-.42.334L12.5 23.65l-3.078 2.026c-.214.14-.477-.069-.42-.334l.813-3.82-2.717-2.569c-.189-.178-.088-.516.16-.54l3.583-.335 1.399-3.612a.274.274 0 0 1 .52 0z" fill="#A6A6A6"/></g><defs><clipPath id="a"><path fill="#fff" d="M0 0h11v11H0z"/></clipPath><clipPath id="b"><path fill="#fff" transform="translate(14)" d="M0 0h11v11H0z"/></clipPath><clipPath id="c"><path fill="#fff" transform="translate(28)" d="M0 0h11v11H0z"/></clipPath><clipPath id="d"><path fill="#fff" transform="translate(21 14)" d="M0 0h11v12H0z"/></clipPath><clipPath id="e"><path fill="#fff" transform="translate(7 14)" d="M0 0h11v12H0z"/></clipPath></defs></svg>