<?xml version="1.0" encoding="UTF-8" standalone="no"?>
<svg width="24px" height="7px" viewBox="0 0 24 7" version="1.1" xmlns="http://www.w3.org/2000/svg" xmlns:xlink="http://www.w3.org/1999/xlink">
    <!-- Generator: Sketch 41 (35326) - http://www.bohemiancoding.com/sketch -->
    <title>Group</title>
    <desc>Created with Sketch.</desc>
    <defs></defs>
    <g id="Page-1" stroke="none" stroke-width="1" fill="none" fill-rule="evenodd">
        <g id="Group">
            <g id="a-link">
                <g>
                    <polygon id="a" points="19.86 1.5 20.23 0.9 23.17 4 22.8 4.6 22.6 4.4 20.37 6.7 20.05 6.2 21.89 4.3 0.67 4.3 0.67 3.5 21.76 3.5"></polygon>
                </g>
                <g fill="#F2A740">
                    <polygon id="a" points="19.86 1.5 20.23 0.9 23.17 4 22.8 4.6 22.6 4.4 20.37 6.7 20.05 6.2 21.89 4.3 0.67 4.3 0.67 3.5 21.76 3.5"></polygon>
                </g>
            </g>
            <g id="a-link">
                <g>
                    <polygon id="a" points="19.86 1.5 20.23 0.9 23.17 4 22.8 4.6 22.6 4.4 20.37 6.7 20.05 6.2 21.89 4.3 0.67 4.3 0.67 3.5 21.76 3.5"></polygon>
                </g>
                <g fill="#F2A740">
                    <polygon id="a" points="19.86 1.5 20.23 0.9 23.17 4 22.8 4.6 22.6 4.4 20.37 6.7 20.05 6.2 21.89 4.3 0.67 4.3 0.67 3.5 21.76 3.5"></polygon>
                </g>
            </g>
            <g id="a-link" fill="#F1EEEC">
                <polygon id="a" points="19.86 1.5 20.23 0.9 23.17 4 22.8 4.6 22.6 4.4 20.37 6.7 20.05 6.2 21.89 4.3 0.67 4.3 0.67 3.5 21.76 3.5"></polygon>
            </g>
            <g id="a-link" fill="#D9B380">
                <polygon id="a" points="19.86 1.5 20.23 0.9 23.17 4 22.8 4.6 22.6 4.4 20.37 6.7 20.05 6.2 21.89 4.3 0.67 4.3 0.67 3.5 21.76 3.5"></polygon>
            </g>
        </g>
    </g>
</svg>