<svg xmlns="http://www.w3.org/2000/svg" width="123" height="128" xmlns:xlink="http://www.w3.org/1999/xlink" viewBox="0 0 104.41 124.23"><defs><style>.cls-1{fill:#ff7900;}.cls-2{fill:#472ca8;}.cls-3{fill:#867dff;}.cls-4{fill:#5843bf;}.cls-5{fill:url(#linear-gradient);}.cls-6{fill:#ce5800;}.cls-7{fill:#f6aa45;}.cls-8{fill:#fff;}</style><linearGradient id="linear-gradient" x1="99.01" y1="28.68" x2="68.88" y2="28.68" gradientUnits="userSpaceOnUse"><stop offset="0" stop-color="#5b289a"/><stop offset="1" stop-color="#6655e0"/></linearGradient></defs><title>Ресурс 2</title><g id="Слой_2" data-name="Слой 2"><g id="Layer_2" data-name="Layer 2"><path class="cls-1" d="M22.4,72.85,7.33,64.15,0,68.53,3.72,85.8,15.07,96.66l3.73-2.27,3.6-2.1Zm-11,7v1.41L11,81V79.59Z"/><polygon class="cls-2" points="77.07 0.44 68.86 5.2 63.76 13.18 68.86 24.02 77.07 19.26 77.07 0.44"/><polygon class="cls-3" points="68.85 24.02 68.86 5.2 58.49 11.17 68.85 24.02"/><polygon class="cls-4" points="84.86 41.91 101.19 51.27 96.2 54.16 89.81 56.1 79.88 44.79 84.86 41.91"/><polygon class="cls-4" points="104.42 49.4 88.09 40.03 79.88 44.79 89.81 56.1 96.2 54.16 104.42 49.4"/><path class="cls-5" d="M84.09,10.26l-.15-.08L77.06,6.27l-5,2.88L68.88,11,78.1,18.4l6.71,9.68,6,23L99,46.3V36.11A29.85,29.85,0,0,0,84.09,10.26Z"/><polygon class="cls-3" points="79.88 44.79 96.2 54.16 85.87 60.18 79.88 44.79"/><path class="cls-3" d="M75.87,15.05,75.72,15l-7.25-4.18-1.36,4.1,1.73,3.49,6.88,4a19.94,19.94,0,0,1,9.09,16.7v9.1l6,2.93V40.9A29.83,29.83,0,0,0,75.87,15.05Z"/><path class="cls-1" d="M12.31,8.64v3.19L15,13.4v1.1L8.7,10.85V14l2.72,1.57v5.68L8.7,19.74V78.27l2.72,1.57v2.94L56.83,109v-4l4.05,2.34v4l3,1.71v-8.24l.64.37v3.95l3,1.71V40.47ZM60.88,49.1,58.4,47.69V99.34L17.74,75.87V22.34L56.83,44.91V41.08l4.05,2.35Zm-46.74,28,.89.52v1l-.89-.51ZM64.48,46.89l-.64-.36V42.68l-3.4-2V38.87l4,2.35Z"/><path class="cls-1" d="M18.8,30.19l3.6-2.11h0V8.65L7.39,0,0,4.33,5,20.85,15.07,32.46l3.73-2.17h0ZM11.42,15.61V17L11,16.77V15.36Zm-4-1.06L8.6,18.64l1.78,2.05L7.38,19Z"/><path class="cls-1" d="M71.86,100.42,57,91.77l-7.5,4.32,3.72,17.27,11.35,10.87,3.72-2.17V122l3.61-2.1Zm-11,7v1.41l-.44-.25v-1.41Z"/><path class="cls-1" d="M68.25,58l.42-9.48,3.19-12.06-15.07-8.7-7.33,4.38,5,16.52L64.53,60.28l3.72-2.18ZM62.6,42v6.24L58.72,46V39.76Zm-7.49,6.23V37.67l.35.2,2.59,8.59L62.6,51.7v.82Z"/><polygon class="cls-6" points="68.39 58.09 72 55.98 72 55.98 72 36.55 68.28 38.72 68.19 38.79 64.67 40.84 60.88 43.79 60.88 44.92 60.53 44.73 58.2 46.54 59.97 48.58 56.93 46.85 54.59 48.66 64.67 60.28 68.39 58.1 68.39 58.1 68.39 58.09"/><polygon class="cls-6" points="37.57 54.48 35.65 53.37 34.9 54.13 34.6 53.96 32.96 54.86 34.87 72.34 37.55 70.86 37.57 54.48"/><path class="cls-1" d="M42.87,64.72l-5.31-3-2.94,1.66-.54-3.76-3.93-2.27L27.51,59l12.72,9.56,1.59-1h0l1-.64Z"/><path class="cls-6" d="M22.39,89l-7.5-6.12,7.5-4.37V72.85l-7.33,4.38L12.88,88.16l2.19,8.5,7.33-4.37Z"/><polygon class="cls-6" points="67.45 54.59 63.75 54.59 63.75 56.8 60.14 56.8 60.14 102.22 67.47 97.88 67.45 54.59"/><polygon class="cls-6" points="17.76 26.95 14.06 26.95 14.06 29.16 10.45 29.16 10.14 74.74 17.76 70.2 17.76 26.95"/><path class="cls-7" d="M49.46,32.14V51.58l15.07,8.7V40.85Zm11.42,17-4.05-2.31V41.08l4.05,2.35Z"/><polygon class="cls-7" points="40.23 66.34 34.88 63.27 34.89 55.97 32.96 54.86 32.96 62.16 27.51 59 27.51 61.22 32.95 64.38 32.95 71.23 34.87 72.34 34.88 65.49 40.23 68.56 40.23 66.34"/><polygon class="cls-6" points="71.86 119.95 71.86 119.95 71.86 100.52 68.25 102.62 68.25 102.62 64.53 104.79 60.88 107.62 60.88 108.91 60.44 108.66 58.05 110.51 59.68 112.38 56.83 110.76 54.45 112.61 64.53 124.23 68.13 122.12 68.13 122.13 71.86 119.95"/><path class="cls-7" d="M49.46,96.09v19.43l15.07,8.71V104.79Zm11.42,17-4.05-2.31v-5.71l4.05,2.34Z"/><polygon class="cls-8" points="60.88 107.39 53.11 102.91 53.11 112.92 60.88 117.41 60.88 113.12 60.88 107.39"/><polygon class="cls-8" points="60.88 43.43 56.72 41.04 53.11 38.96 53.11 48.98 60.88 53.46 60.88 49.17 60.88 43.43"/><path class="cls-6" d="M22.42,14.55V8.74L18.8,10.86h0L15,13.05l-3.61,2.8V17.1l-.4-.23L8.59,18.76l1.59,1.82L7.38,19,5,20.87,15.07,32.46l7.36-4.29V25.06l-7.53-6.24Z"/><path class="cls-7" d="M0,4.33V23.76l15.07,8.7V13Zm11.42,17L7.38,19V13.27l4.05,2.34Z"/><polygon class="cls-8" points="11.42 15.61 7.26 13.23 7.23 13.21 3.65 11.15 3.65 21.16 11.42 25.65 11.42 21.36 11.42 15.61"/><path class="cls-7" d="M0,68.53V88l15.07,8.7V77.23Zm11.42,17-4-2.31V77.5l4,2.34Z"/><polygon class="cls-8" points="11.42 79.84 7.26 77.44 3.66 75.36 3.66 85.38 11.42 89.86 11.42 79.84"/><polygon class="cls-7" points="54.71 51.94 54.71 102.49 60.14 102.22 60.14 54.82 54.71 51.94"/><polygon class="cls-7" points="13.88 88.41 52.36 110.63 52.35 104.35 13.88 82.14 13.88 88.41"/><polygon class="cls-7" points="13.38 24.03 51.72 46.16 51.71 39.89 13.38 17.75 13.38 24.03"/><rect class="cls-7" x="5.01" y="26.49" width="5.43" height="48.67"/><polygon class="cls-1" points="37.57 54.48 35.65 53.37 32.96 54.86 34.89 55.97 37.57 54.48"/><polygon class="cls-6" points="42.87 64.72 40.23 66.34 40.23 68.56 42.87 66.94 42.87 64.72"/></g></g></svg>