<svg xmlns="http://www.w3.org/2000/svg" width="126" height="121" xmlns:xlink="http://www.w3.org/1999/xlink" viewBox="0 0 125.01 106.44"><defs><style>.cls-1{fill:url(#linear-gradient);}.cls-2{fill:url(#linear-gradient-2);}.cls-3{fill:#16cef7;}.cls-4{fill:#009dff;}.cls-5{fill:#ff7900;}.cls-6{fill:#ce5800;}.cls-7{fill:#f6aa45;}.cls-8{fill:#ffbc6c;}.cls-9{fill:#fff;}.cls-10{fill:#e6e7e8;}.cls-11{fill:#ffce99;}.cls-12{fill:url(#linear-gradient-3);}.cls-13{fill:none;stroke:#f6aa45;stroke-linecap:round;stroke-linejoin:round;stroke-width:2px;}</style><linearGradient id="linear-gradient" x1="74.4" y1="58.4" x2="74.4" gradientUnits="userSpaceOnUse"><stop offset="0" stop-color="#2174ff"/><stop offset="1" stop-color="#00adff"/></linearGradient><linearGradient id="linear-gradient-2" x1="96.58" y1="88.94" x2="96.58" y2="32.27" xlink:href="#linear-gradient"/><linearGradient id="linear-gradient-3" x1="78.97" y1="65.43" x2="78.97" y2="55.39" gradientUnits="userSpaceOnUse"><stop offset="0" stop-color="#2174ff"/><stop offset="0.68" stop-color="#00adff"/></linearGradient></defs><title>Ресурс 1</title><g id="Слой_2" data-name="Слой 2"><g id="Layer_2" data-name="Layer 2"><path class="cls-1" d="M61.81,55.16l.43.24,5.29,3,22.92-16,16.67-10C103.55,19.54,95.91,7.61,86.94,2.52,81.33-.66,76.12-.73,72,1.74L60,8.68a7.74,7.74,0,0,1,3.48,8.11c-.23-.15-.46-.29-.7-.42-3.2-1.82-6.19-1.91-8.58-.59L41.68,23.05s7.12.87,7,5C48.43,38.76,54.3,50.9,61.81,55.16Z"/><path class="cls-2" d="M108.77,33.1a17.12,17.12,0,0,0-1.66-.83h0L90.59,41.82,68.15,58.75,107.43,81l.51.27c3.38,1.81-2.13,7.64-2.13,7.64s13.07-7.5,13.84-8.13c3.15-2.62,5.18-7.55,5.35-14.17C125.33,53.39,118.06,38.37,108.77,33.1Z"/><path class="cls-3" d="M112.53,73.84c.34-13.25-6.93-28.28-16.23-33.55a16.85,16.85,0,0,0-1.65-.82C91.1,26.59,83.49,14.83,74.48,9.72,63.09,3.26,53.34,9.63,51,24l-.7-.43c-7.51-4.26-13.82,1-14.09,11.68s5.6,22.85,13.11,27.11l.43.25L95,88.23l.51.27C104.61,93.38,112.2,86.91,112.53,73.84Z"/><path class="cls-4" d="M80,55.39a3.18,3.18,0,0,0-2.38,1.15c-.21.24-4.64,8.92-4.8,11.68-.1,1.85,1.11,3.36,2.47,3.36a1.81,1.81,0,0,0,.51-.08c.88-.12,5-6.77,5.33-6.91a4.75,4.75,0,0,0,2.5-4.48C83.66,57.5,82,55.39,80,55.39Z"/><path class="cls-4" d="M53.38,63,50,61l3.38.88V51.74h0L50,49.8l3.38.87V40.52h0L36.73,30.87a23.07,23.07,0,0,0-.51,4.35C36,45.93,39,56.45,46.46,60.71l.43.24,6.5,3.69V63Z"/><polygon class="cls-5" points="0 66.75 25.26 52.17 50.52 66.75 50.52 74.08 25.26 88.66 0 74.08 0 66.75"/><polygon class="cls-6" points="50.52 66.75 25.26 52.17 0.01 66.75 25.27 81.33 50.52 66.75"/><polygon class="cls-7" points="50.53 66.75 25.27 81.33 25.27 88.66 25.27 88.66 50.54 74.08 50.53 66.75"/><polygon class="cls-5" points="0 55.52 25.26 40.94 50.52 55.52 50.52 62.85 25.26 77.44 0 62.85 0 55.52"/><polygon class="cls-6" points="50.52 55.52 25.26 40.94 0.01 55.52 25.27 70.11 50.52 55.52"/><polygon class="cls-7" points="50.53 55.52 25.27 70.11 25.27 77.43 25.27 77.44 50.54 62.85 50.53 55.52"/><polygon class="cls-5" points="0 44.3 25.26 29.71 50.52 44.3 50.52 51.62 25.26 66.21 0 51.62 0 44.3"/><polygon class="cls-8" points="50.52 44.3 25.26 29.71 0.01 44.3 25.27 58.88 50.52 44.3"/><polygon class="cls-7" points="50.53 44.3 25.27 58.88 25.27 66.21 25.27 66.21 50.54 51.62 50.53 44.3"/><polygon class="cls-9" points="35.73 55.56 27.46 60.33 27.46 62.73 27.47 62.73 35.73 57.95 35.73 55.56"/><polygon class="cls-9" points="37.01 57.3 38.93 56.19 38.93 53.8 37.01 54.91 37.01 57.3"/><polygon class="cls-10" points="3.72 51.55 1.8 50.44 1.8 48.05 3.72 49.16 3.72 51.55"/><polygon class="cls-10" points="6.88 53.23 4.95 52.12 4.96 49.72 6.88 50.83 6.88 53.23"/><polygon class="cls-9" points="35.73 66.61 27.46 71.39 27.46 73.78 27.47 73.78 35.73 69.01 35.73 66.61"/><polygon class="cls-9" points="37.01 68.36 38.93 67.25 38.93 64.85 37.01 65.96 37.01 68.36"/><polygon class="cls-10" points="3.72 62.61 1.8 61.5 1.8 59.1 3.72 60.21 3.72 62.61"/><polygon class="cls-10" points="6.88 64.29 4.95 63.18 4.96 60.78 6.88 61.89 6.88 64.29"/><polygon class="cls-9" points="35.73 77.67 27.46 82.44 27.46 84.84 27.47 84.84 35.73 80.07 35.73 77.67"/><polygon class="cls-9" points="37.01 79.42 38.93 78.31 38.93 75.91 37.01 77.02 37.01 79.42"/><polygon class="cls-10" points="3.72 73.67 1.8 72.56 1.8 70.16 3.72 71.27 3.72 73.67"/><polygon class="cls-10" points="6.88 75.34 4.95 74.23 4.96 71.84 6.88 72.95 6.88 75.34"/><polygon class="cls-5" points="7.48 42.04 25.26 31.77 43.05 42.04 43.05 43.58 25.26 53.84 7.48 43.58 7.48 42.04"/><polygon class="cls-11" points="43.05 42.04 25.26 31.77 7.49 42.04 25.27 52.3 43.05 42.04"/><polygon class="cls-7" points="43.05 42.04 25.27 52.3 25.27 53.84 25.27 53.84 43.05 43.58 43.05 42.04"/><path class="cls-12" d="M83.66,60.11a4.75,4.75,0,0,1-2.5,4.48c-.35.15-5.32.84-5.32.84l-1.57-6.15s3.11-2.44,3.38-2.74A3.18,3.18,0,0,1,80,55.39C82,55.39,83.66,57.5,83.66,60.11Z"/><ellipse class="cls-3" cx="75.52" cy="62.12" rx="2.47" ry="3.36"/><ellipse class="cls-4" cx="75.52" cy="62.12" rx="1.51" ry="2.05"/><ellipse class="cls-6" cx="12.54" cy="77.8" rx="1.51" ry="2.05"/><path class="cls-13" d="M12.25,77.69l-3.44,2a3.71,3.71,0,0,0,0,6.42L39,103.51a14.37,14.37,0,0,0,14.38,0l13-7.41a3.11,3.11,0,0,0,0-5.4l-6.54-3.78a1.71,1.71,0,0,1,0-3L66,80.41A9.74,9.74,0,0,0,70.85,72V66.87a3.73,3.73,0,0,1,1.79-3.18l2.42-1.48"/><polygon class="cls-4" points="75.14 76.96 73.45 76.01 73.45 69.24 75.14 69.52 75.14 76.96"/></g></g></svg>