<svg xmlns="http://www.w3.org/2000/svg" width="114" height="128" xmlns:xlink="http://www.w3.org/1999/xlink" viewBox="0 0 97.05 114.59"><defs><style>.cls-1{fill:url(#linear-gradient);}.cls-2{fill:#16cef7;}.cls-3{fill:#009dff;}.cls-4{fill:url(#linear-gradient-2);}.cls-5{fill:url(#linear-gradient-3);}.cls-6,.cls-7,.cls-8{opacity:0.5;}.cls-6{fill:url(#linear-gradient-4);}.cls-7{fill:url(#linear-gradient-5);}.cls-8{fill:url(#linear-gradient-6);}.cls-9{fill:#008bd1;}.cls-10{fill:url(#linear-gradient-7);}.cls-11{fill:#ffbc6c;}.cls-12{fill:#ce5800;}.cls-13{fill:#ff7900;}.cls-14{fill:#ffce99;}.cls-15{fill:#f6aa45;}</style><linearGradient id="linear-gradient" x1="58.24" y1="89.88" x2="58.24" y2="15.57" gradientUnits="userSpaceOnUse"><stop offset="0" stop-color="#2174ff"/><stop offset="1" stop-color="#00adff"/></linearGradient><linearGradient id="linear-gradient-2" x1="36.81" y1="102.23" x2="36.81" y2="49.73" xlink:href="#linear-gradient"/><linearGradient id="linear-gradient-3" x1="15.38" y1="114.59" x2="15.38" y2="77.01" xlink:href="#linear-gradient"/><linearGradient id="linear-gradient-4" x1="15.38" y1="94.77" x2="15.38" y2="53.63" gradientUnits="userSpaceOnUse"><stop offset="0" stop-color="#00adee"/><stop offset="0.05" stop-color="#00adee" stop-opacity="0.94"/><stop offset="0.32" stop-color="#00adee" stop-opacity="0.61"/><stop offset="0.56" stop-color="#00adee" stop-opacity="0.35"/><stop offset="0.76" stop-color="#00adee" stop-opacity="0.16"/><stop offset="0.91" stop-color="#00adee" stop-opacity="0.04"/><stop offset="1" stop-color="#00adee" stop-opacity="0"/></linearGradient><linearGradient id="linear-gradient-5" x1="36.81" y1="67.49" x2="36.81" y2="31.04" xlink:href="#linear-gradient-4"/><linearGradient id="linear-gradient-6" x1="58.24" y1="33.33" x2="58.24" y2="0" xlink:href="#linear-gradient-4"/><linearGradient id="linear-gradient-7" x1="77.66" y1="68.45" x2="77.66" y2="89.95" gradientUnits="userSpaceOnUse"><stop offset="0" stop-color="#ce5800"/><stop offset="1" stop-color="#ff7900"/></linearGradient></defs><title>Ресурс 1</title><g id="Слой_2" data-name="Слой 2"><g id="Layer_2" data-name="Layer 2"><polygon class="cls-1" points="42.86 24.45 58.24 15.57 73.62 34.34 73.62 81 58.24 89.88 42.86 81 42.86 24.45"/><polygon class="cls-2" points="73.62 24.45 58.24 15.57 42.87 24.45 58.24 33.33 73.62 24.45"/><polygon class="cls-3" points="73.62 24.45 58.24 33.33 58.24 89.88 58.25 89.88 73.62 81 73.62 24.45"/><polygon class="cls-4" points="21.43 58.61 36.81 49.73 52.19 58.61 52.19 93.36 36.81 102.23 21.43 93.36 21.43 58.61"/><polygon class="cls-2" points="52.19 58.61 36.81 49.73 21.43 58.61 36.81 67.49 52.19 58.61"/><polygon class="cls-3" points="52.19 58.61 36.81 67.49 36.81 102.23 36.81 102.23 52.19 93.36 52.19 58.61"/><polygon class="cls-5" points="0 85.89 15.38 77.01 30.76 85.89 30.76 105.71 15.38 114.59 0 105.71 0 85.89"/><polygon class="cls-2" points="30.76 85.89 15.38 77.01 0 85.89 15.38 94.77 30.76 85.89"/><polygon class="cls-3" points="30.76 85.89 15.38 94.77 15.38 114.59 15.38 114.59 30.76 105.71 30.76 85.89"/><polygon class="cls-6" points="30.76 53.63 0 53.63 0 85.89 15.38 94.77 15.38 94.77 15.38 94.77 15.38 94.77 30.76 85.89 30.76 53.63"/><polygon class="cls-7" points="52.19 31.04 21.43 31.04 21.43 58.61 36.81 67.49 36.81 67.49 36.81 67.49 36.81 67.49 52.19 58.61 52.19 31.04"/><polygon class="cls-8" points="73.62 0 42.86 0 42.86 24.45 58.24 33.33 58.24 33.33 58.24 33.33 58.25 33.33 73.62 24.45 73.62 0"/><path class="cls-9" d="M50.8,93.42l-.35.94,1.74-1V62.29l-4,7.89,2.64,4a39.59,39.59,0,0,0-1.19,4.74l-4.71,4v8.57l4.71-1.4A15.32,15.32,0,0,0,50.8,93.42Z"/><path class="cls-9" d="M73.62,50.29,70.46,55a8.56,8.56,0,0,0-2.94,0l-.93-6-6.2,3.55-.94,7c-.41.4-.81.83-1.21,1.27V75c1.1-3,3-5.75,5.25-7,3.42-2,6.19.29,6.19,5S66.91,83.14,63.49,85.1c-2.21,1.26-4.15.76-5.25-1v5.8h0L73.62,81Z"/><rect class="cls-10" x="70.08" y="68.45" width="15.16" height="21.49"/><path class="cls-11" d="M65.12,57.14a22.08,22.08,0,0,0-1.6,1.63,21.56,21.56,0,0,0-1.33,1.7l9.3,5.36,2.5-.08.43-3.25Z"/><polygon class="cls-12" points="64.58 92.89 61 92.64 60.32 95.21 64.67 97.38 65.78 96.27 66.5 93.47 64.58 92.89"/><polygon class="cls-13" points="84.77 54.8 81.18 54.54 80.51 57.12 84.85 59.28 85.96 58.17 86.69 55.37 84.77 54.8"/><polygon class="cls-13" points="97.05 64.46 88.02 58.32 86.89 60.59 90.2 70.64 97.05 64.46"/><polygon class="cls-12" points="75.15 106.79 69.19 104.17 72.27 99.12 77.58 100.11 75.15 106.79"/><path class="cls-13" d="M65.77,77l-9.3-5.37a15.24,15.24,0,0,0-.68,2.3,10.69,10.69,0,0,0-.49,2.49l9.28,5.32,2.15-2.38Z"/><polygon class="cls-13" points="66.06 50.09 75.36 55.45 74.42 62.5 65.12 57.13 66.06 50.09"/><polygon class="cls-14" points="58.22 59.08 67.52 64.45 63.13 73.03 53.83 67.66 58.22 59.08"/><polygon class="cls-13" points="62.19 60.47 71.49 65.83 67.52 64.45 58.22 59.08 62.19 60.47"/><polygon class="cls-12" points="53.83 67.66 63.13 73.03 65.78 77 56.47 71.63 53.83 67.66"/><polygon class="cls-14" points="55.28 76.37 64.58 81.74 59.87 85.73 50.57 80.36 55.28 76.37"/><polygon class="cls-13" points="50.57 80.36 59.87 85.73 59.87 94.3 50.57 88.93 50.57 80.36"/><polygon class="cls-13" points="53.83 97.9 63.13 103.27 65.78 96.27 61.15 93.93 59.87 94.3 56.03 92.08 53.83 97.9"/><polygon class="cls-12" points="53.83 97.9 63.13 103.27 67.52 106.83 58.22 101.46 53.83 97.9"/><polygon class="cls-14" points="76.13 52.49 85.43 57.86 89.4 51.93 80.1 46.56 76.13 52.49"/><polygon class="cls-14" points="66.06 50.09 72.26 46.54 81.56 51.91 75.36 55.45 66.06 50.09"/><path class="cls-15" d="M97.05,73V64.46l-4.71,1.4a14.82,14.82,0,0,0-1.2-3.37l2.65-7L89.4,51.93l-4,5.93a8.56,8.56,0,0,0-2.94,0l-.93-6-6.2,3.55-.94,7a29.67,29.67,0,0,0-2.93,3.33l-4-1.38L63.13,73l2.64,4a39.59,39.59,0,0,0-1.19,4.74l-4.71,4V94.3l4.71-1.41a15.22,15.22,0,0,0,1.19,3.38l-2.64,7,4.39,3.56,4-5.93a8.5,8.5,0,0,0,2.93,0l.94,6,6.2-3.55.93-7a29,29,0,0,0,2.94-3.34l4,1.39,4.39-8.58-2.65-4A37.82,37.82,0,0,0,92.34,77ZM78.46,88c-3.42,2-6.2-.29-6.2-5S75,72.77,78.46,70.81s6.2.29,6.2,5S81.88,86,78.46,88Z"/></g></g></svg>