<svg xmlns="http://www.w3.org/2000/svg" width="124" height="114" xmlns:xlink="http://www.w3.org/1999/xlink" viewBox="0 0 123.61 96.68"><defs><style>.cls-1{fill:url(#linear-gradient);}.cls-2{fill:#00adee;}.cls-3{fill:#ce5800;}.cls-4{fill:url(#linear-gradient-2);}.cls-5{fill:#f6aa45;}.cls-6{fill:#ff7900;}.cls-7{fill:#ffce99;}.cls-8{fill:none;stroke:#00adee;stroke-miterlimit:10;stroke-width:2px;}.cls-9{fill:url(#linear-gradient-3);}.cls-10{fill:url(#linear-gradient-4);}.cls-11{fill:url(#linear-gradient-5);}.cls-12{fill:url(#linear-gradient-6);}.cls-13{fill:url(#linear-gradient-7);}</style><linearGradient id="linear-gradient" x1="23.59" y1="75.31" x2="102.3" y2="75.31" gradientUnits="userSpaceOnUse"><stop offset="0" stop-color="#0076b3"/><stop offset="0.19" stop-color="#007eba"/><stop offset="0.48" stop-color="#0094cc"/><stop offset="0.84" stop-color="#00b7eb"/><stop offset="0.93" stop-color="#00c1f3"/></linearGradient><linearGradient id="linear-gradient-2" x1="62.98" y1="70.44" x2="102.3" y2="70.44" gradientUnits="userSpaceOnUse"><stop offset="0" stop-color="#ce5800"/><stop offset="0.14" stop-color="#d4640a"/><stop offset="1" stop-color="#f6aa45"/></linearGradient><linearGradient id="linear-gradient-3" x1="116.13" y1="58.9" x2="108.32" y2="51.1" xlink:href="#linear-gradient"/><linearGradient id="linear-gradient-4" x1="15.13" y1="58.9" x2="7.32" y2="51.1" xlink:href="#linear-gradient"/><linearGradient id="linear-gradient-5" x1="19.24" y1="17.84" x2="13.55" y2="12.16" xlink:href="#linear-gradient"/><linearGradient id="linear-gradient-6" x1="110.07" y1="17.84" x2="104.38" y2="12.16" xlink:href="#linear-gradient"/><linearGradient id="linear-gradient-7" x1="62.62" y1="5.73" x2="57.88" y2="0.98" xlink:href="#linear-gradient"/></defs><title>Ресурс 1</title><g id="Слой_2" data-name="Слой 2"><g id="Layer_2" data-name="Layer 2"><path class="cls-1" d="M102.3,75.31c0,11.8-17.61,21.37-39.32,21.37S23.65,87.11,23.65,75.31c0-1.68-.06-12.59-.06-12.59S44.35,53.94,63,53.94c18.93,0,39.32,8.93,39.32,8.93Z"/><ellipse class="cls-2" cx="62.98" cy="63.53" rx="39.32" ry="21.37"/><path class="cls-3" d="M63,63.49c9.92-8.55,13.77-11.84,21.46-17.92V29.37S67.93,42.11,63,42.11a63.1,63.1,0,0,0-24,4.42C48.35,53.08,53.48,56.79,63,63.49Z"/><path class="cls-4" d="M70.9,84.51c17.92-2,31.4-10.61,31.4-20.94,0-.51,0-7.14,0-7.14L63,56.37V63.6Z"/><path class="cls-3" d="M70.9,84.51c0-4.47,0-7.22,0-7.22L63,56.37V63.6C63.28,64.39,65.67,70.69,70.9,84.51Z"/><path class="cls-5" d="M70.9,77.29c17.92-2,31.4-10.61,31.4-20.94,0-7.51-7.12-14.11-17.88-17.92C75.89,45.3,63,56.37,63,56.37Z"/><path class="cls-5" d="M63,47.28c9.92-8.55,13.77-11.83,21.46-17.91A64.85,64.85,0,0,0,63,25.91a63.1,63.1,0,0,0-24,4.42C48.35,36.88,53.48,40.59,63,47.28Z"/><path class="cls-6" d="M23.65,63.58c19.56,0,39.33,0,39.33,0V39L45.57,34.3,23.65,39Z"/><path class="cls-7" d="M23.65,39C43.21,39,63,39,63,39s-9.21-6.84-24.19-16.85C29.58,26.08,23.65,32.17,23.65,39Z"/><path class="cls-8" d="M112.23,55c6.55-5.27,10.38-11.63,10.38-18.48,0-18.25-27.22-33.05-60.8-33.05S1,18.27,1,36.52C1,44.24,5.87,51.35,14,57"/><circle class="cls-9" cx="112.23" cy="55" r="5.52"/><circle class="cls-10" cx="11.23" cy="55" r="5.52"/><circle class="cls-11" cx="16.39" cy="15" r="4.02"/><circle class="cls-12" cx="107.23" cy="15" r="4.02"/><circle class="cls-13" cx="60.25" cy="3.35" r="3.35"/></g></g></svg>