<svg xmlns="http://www.w3.org/2000/svg" width="109" height="126"  xmlns:xlink="http://www.w3.org/1999/xlink" viewBox="0 0 87.86 107.98"><defs><style>.cls-1{fill:url(#linear-gradient);}.cls-2{fill:url(#linear-gradient-2);}.cls-3{fill:url(#linear-gradient-3);}.cls-4{fill:url(#linear-gradient-4);}.cls-5{fill:#867dff;}.cls-6{fill:#fff;}.cls-7{fill:url(#linear-gradient-5);}.cls-8{fill:url(#linear-gradient-6);}.cls-9{opacity:0.8;fill:url(#linear-gradient-7);}.cls-10{fill:#3f2487;}.cls-11,.cls-12{opacity:0.4;}.cls-11{fill:url(#linear-gradient-8);}.cls-12{fill:url(#linear-gradient-9);}.cls-13{fill:#f6e461;}</style><linearGradient id="linear-gradient" x1="54.52" y1="60.95" x2="54.52" y2="36.59" gradientUnits="userSpaceOnUse"><stop offset="0" stop-color="#5b289a"/><stop offset="1" stop-color="#6655e0"/></linearGradient><linearGradient id="linear-gradient-2" x1="45.73" y1="46.92" x2="45.73" y2="17.22" xlink:href="#linear-gradient"/><linearGradient id="linear-gradient-3" x1="74.57" y1="84.85" x2="74.57" y2="54.46" xlink:href="#linear-gradient"/><linearGradient id="linear-gradient-4" x1="75.51" y1="30.43" x2="75.51" y2="0" xlink:href="#linear-gradient"/><linearGradient id="linear-gradient-5" x1="13.92" y1="96.13" x2="38.01" y2="96.13" gradientUnits="userSpaceOnUse"><stop offset="0" stop-color="#5843bf"/><stop offset="0.23" stop-color="#5e4ac7"/><stop offset="0.58" stop-color="#6d5edd"/><stop offset="1" stop-color="#867dff"/></linearGradient><linearGradient id="linear-gradient-6" x1="18.23" y1="104.63" x2="33.91" y2="104.63" gradientUnits="userSpaceOnUse"><stop offset="0.39" stop-color="#5b289a"/><stop offset="0.52" stop-color="#5c2da2"/><stop offset="0.73" stop-color="#603cb9"/><stop offset="0.99" stop-color="#6654de"/><stop offset="1" stop-color="#6655e0"/></linearGradient><linearGradient id="linear-gradient-7" x1="1.62" y1="47.58" x2="44.92" y2="76.62" gradientUnits="userSpaceOnUse"><stop offset="0" stop-color="#f6bc27"/><stop offset="0.17" stop-color="#f7b523"/><stop offset="0.42" stop-color="#faa218"/><stop offset="0.72" stop-color="#fe8306"/><stop offset="0.8" stop-color="#ff7900"/></linearGradient><linearGradient id="linear-gradient-8" x1="16.65" y1="59.39" x2="16.65" y2="88.25" gradientUnits="userSpaceOnUse"><stop offset="0" stop-color="#f6e461"/><stop offset="0.16" stop-color="#f7dd5b"/><stop offset="0.39" stop-color="#f8ca49"/><stop offset="0.66" stop-color="#fbaa2d"/><stop offset="0.96" stop-color="#ff7f05"/><stop offset="1" stop-color="#ff7900"/></linearGradient><linearGradient id="linear-gradient-9" x1="34.7" y1="59.39" x2="34.7" y2="88.25" xlink:href="#linear-gradient-8"/></defs><title>Ресурс 1</title><g id="Слой_2" data-name="Слой 2"><g id="Layer_2" data-name="Layer 2"><path class="cls-1" d="M50.9,36.59l-7.76,3.88-4.58,7.14c1.28-.47,5-1.91,5.82-2.68L60.13,61l2.32-.56,3.83-.91,4.2-2.84Z"/><path class="cls-2" d="M43.05,40.79l8.17-3.88a15.58,15.58,0,0,0,.33-3.21,18.37,18.37,0,0,0-.33-3.39l12.2-5.78-4.8-6.05L48.45,23.3a13.15,13.15,0,0,0-7.18-5.78,7.18,7.18,0,0,0-5.41.51C35.25,18.35,28,21.8,28,21.8A8.8,8.8,0,0,1,31,28c0,6.21,5.06,16,6.65,18.89Z"/><path class="cls-3" d="M77.58,54.76a7.34,7.34,0,0,0-4.51.12c-.07,0-1.38.65-3,1.41l-5.63,2.65-3.19,3.19,1.46,1.48c-.21,1,4.55.53,4.55,1.67,0,7.36,7.53,19.57,7.53,19.57s8.54-4.1,8.86-4.32c2.53-1.74,4.17-5.19,4.17-9.58C87.86,63.59,83.25,56.33,77.58,54.76Z"/><path class="cls-4" d="M67.63,14.21l-4.46,2.11,2.67,7.06,4.57-2.17a67.89,67.89,0,0,1,4.26,9.22s6.88-3.12,8.49-4c2.82-1.6,4.7-5.22,4.7-9.91C87.86,9.12,83.25,1.86,77.58.3a7.3,7.3,0,0,0-4.89.26c-.8.34-8.22,3.91-8.22,3.91a9.31,9.31,0,0,1,2.83,6.35A19.28,19.28,0,0,0,67.63,14.21Z"/><polygon class="cls-5" points="68.21 74.65 27.74 33.13 68.21 13.95 70.98 20.95 38.84 36.2 70.98 69.17 68.21 74.65"/><ellipse class="cls-6" cx="69.6" cy="17.45" rx="7.16" ry="10.21" transform="translate(-1.99 22.26) rotate(-17.92)"/><path class="cls-5" d="M69.6,30.8C63.93,29.24,59.32,22,59.32,14.61S63.93,2.53,69.6,4.1s10.27,8.82,10.27,16.18S75.26,32.36,69.6,30.8Zm0-19.5c-2.61-.71-4.73,1.46-4.73,4.84S67,22.87,69.6,23.59s4.72-1.45,4.72-4.84S72.2,12,69.6,11.3Z"/><ellipse class="cls-6" cx="33.29" cy="34.66" rx="7.16" ry="10.21" transform="translate(-9.05 11.93) rotate(-17.92)"/><path class="cls-5" d="M33.29,48C27.62,46.45,23,39.19,23,31.83s4.61-12.08,10.28-10.52S43.56,30.14,43.56,37.5,39,49.58,33.29,48Zm0-19.5c-2.61-.72-4.73,1.45-4.73,4.84s2.12,6.73,4.73,7.45S38,39.36,38,36,35.9,29.24,33.29,28.52Z"/><ellipse class="cls-6" cx="69.6" cy="71.91" rx="7.16" ry="10.21" transform="translate(-18.75 24.91) rotate(-17.92)"/><path class="cls-5" d="M69.6,85.26c-5.67-1.56-10.28-8.82-10.28-16.18S63.93,57,69.6,58.56s10.27,8.82,10.27,16.19S75.26,86.83,69.6,85.26Zm0-19.49c-2.61-.72-4.73,1.45-4.73,4.84S67,77.34,69.6,78.06s4.72-1.46,4.72-4.84S72.2,66.49,69.6,65.77Z"/><path class="cls-7" d="M38,90.35V95a7.37,7.37,0,0,1-4,6.17L33.2,104c-.2.76-1.53,4-7.22,4s-6.83-3.24-7-4l-.73-2.8A7.45,7.45,0,0,1,13.94,95V90.32s-.94-6,11.86-6S38,90.35,38,90.35Z"/><path class="cls-8" d="M26.08,103.06a15.17,15.17,0,0,1-7.85-1.78l.71,2.7c.21.76,1.35,4,7,4s7-3.24,7.22-4l.71-2.62A16,16,0,0,1,26.08,103.06Z"/><path class="cls-9" d="M52,58.72a25.85,25.85,0,0,1-7.29,18,23.79,23.79,0,0,0-6.38,12.93c-.16,1-1.34,6.76-12.21,6.76-11.17-.1-12.25-5.68-12.4-6.74a24.11,24.11,0,0,0-6.43-13A26,26,0,1,1,52,58.72Z"/><path class="cls-10" d="M26.08,95.34c-7.83-.07-10.89-2.57-12.12-4.51.72,2,3.2,5.54,12.12,5.62,8.68,0,11.17-3.65,11.91-5.65C36.76,92.78,33.72,95.34,26.08,95.34Z"/><path class="cls-11" d="M19,88.11,13.12,60.25a.72.72,0,0,1,.45-.84.61.61,0,0,1,.74.51l5.87,27.86C20.26,88.15,19.06,88.43,19,88.11Z"/><path class="cls-12" d="M31.17,87.78,37,59.92a.61.61,0,0,1,.73-.51.7.7,0,0,1,.45.84L32.35,88.11C32.28,88.43,31.09,88.15,31.17,87.78Z"/><path class="cls-13" d="M17,58.71a.61.61,0,1,1,0-1.22c1.17,0,1.63-.67,2.2-1.51a3.16,3.16,0,0,1,2.65-1.79A2.77,2.77,0,0,1,24.37,56c.42.74.65,1.1,1.33,1.1a2.21,2.21,0,0,0,2.07-1.19,3,3,0,0,1,2.59-1.51,2.8,2.8,0,0,1,2.23,1.5c.56.75.94,1.22,1.72,1.22a.61.61,0,0,1,0,1.22,3.26,3.26,0,0,1-2.7-1.72c-.47-.64-.76-1-1.25-1-.86,0-1.16.4-1.61,1a3.36,3.36,0,0,1-3.05,1.69,2.65,2.65,0,0,1-2.39-1.71c-.43-.77-.7-1.17-1.48-1.17s-1.09.45-1.64,1.26A3.65,3.65,0,0,1,17,58.71Z"/><path class="cls-6" d="M13.52,41.56c-3.29,1.21-8.3,6.54-8.92,13.6-.37,4.22,2.7,2.38,3.67-.46a30.79,30.79,0,0,1,6.28-10.32C16.52,42.32,16,40.65,13.52,41.56Z"/><path class="cls-6" d="M18.75,38c-1.76.64-1.92,3.12.8,2.32S21.3,37,18.75,38Z"/></g></g></svg>