<svg xmlns="http://www.w3.org/2000/svg" width="131" height="144" xmlns:xlink="http://www.w3.org/1999/xlink" viewBox="0 0 106.96 128.47"><defs><style>.cls-1{fill:url(#Безымянный_градиент_15);}.cls-2{fill:#008bd1;}.cls-3{fill:#16cef7;}.cls-4{fill:#009dff;}.cls-5{fill:#ff7900;}.cls-6{fill:#ffbc6c;}.cls-7{fill:#ffce99;}.cls-8{fill:#f6aa45;}.cls-9{fill:#e6e7e8;}.cls-10{fill:#bbbdbf;}.cls-11{fill:#15b1ff;}.cls-12{fill:#fff;}</style><linearGradient id="Безымянный_градиент_15" y1="44.6" x2="34.21" y2="44.6" gradientUnits="userSpaceOnUse"><stop offset="0.11" stop-color="#fcbb6b" stop-opacity="0"/><stop offset="0.19" stop-color="#fcbb6b" stop-opacity="0.05"/><stop offset="0.34" stop-color="#fcbb6b" stop-opacity="0.18"/><stop offset="0.53" stop-color="#fcbb6b" stop-opacity="0.4"/><stop offset="0.77" stop-color="#fcbb6b" stop-opacity="0.69"/><stop offset="1" stop-color="#fcbb6b"/></linearGradient></defs><title>Ресурс 1</title><g id="Слой_2" data-name="Слой 2"><g id="Layer_2" data-name="Layer 2"><polygon class="cls-1" points="27.44 12.81 0 28.6 0 72.66 6.66 76.39 34.21 60.48 34.21 16.73 27.44 12.81"/><polygon class="cls-2" points="63.11 43.23 63.11 48.15 40.95 63.44 34.28 58.4 63.11 43.23"/><polygon class="cls-3" points="61.83 45.71 68.48 49.55 40.95 65.46 34.28 61.61 61.83 45.71"/><polygon class="cls-3" points="40.56 61.1 36.29 58.64 63.11 43.23 61.84 42.49 34.28 58.4 34.28 102.27 40.94 106.13 68.49 90.22 68.49 46.35 67.37 45.7 40.56 61.1"/><polygon class="cls-4" points="40.87 60.66 36.84 58.33 63.11 43.23 61.83 42.5 34.28 58.4 40.95 62.25 68.49 46.35 67.14 45.56 40.87 60.66"/><polygon class="cls-2" points="68.48 46.34 40.95 62.25 40.95 106.13 40.95 106.13 68.49 90.22 68.48 46.34"/><polygon class="cls-5" points="47.74 2.57 47.74 7.48 25.59 22.77 18.92 17.73 47.74 2.57"/><polygon class="cls-6" points="46.47 5.04 53.12 8.88 25.59 24.79 18.92 20.94 46.47 5.04"/><polygon class="cls-6" points="25.2 20.44 20.93 17.97 47.75 2.56 46.47 1.82 18.92 17.73 18.92 61.6 25.58 65.46 53.13 49.55 53.13 5.68 52.01 5.03 25.2 20.44"/><polygon class="cls-7" points="25.51 19.99 21.48 17.66 47.74 2.57 46.47 1.83 18.92 17.73 25.59 21.58 53.13 5.68 51.78 4.89 25.51 19.99"/><polygon class="cls-8" points="53.12 5.67 25.59 21.58 25.59 65.46 25.59 65.46 53.13 49.55 53.12 5.67"/><polygon class="cls-5" points="53.13 49.55 53.12 5.67 39.36 13.63 39.36 57.51 53.13 49.55"/><polygon class="cls-9" points="31.99 26.03 31.99 39.64 39.36 35.38 39.36 21.77 31.99 26.03"/><polygon class="cls-10" points="48.12 16.71 39.36 21.77 39.36 35.38 48.12 30.32 48.12 16.71"/><polygon class="cls-9" points="31.99 43.79 31.99 46.39 39.36 42.14 39.36 39.53 31.99 43.79"/><polygon class="cls-10" points="48.12 34.47 39.36 39.53 39.36 42.14 48.12 37.07 48.12 34.47"/><polygon class="cls-9" points="31.99 48.79 31.99 51.39 39.36 47.14 39.36 44.53 31.99 48.79"/><polygon class="cls-10" points="48.12 39.47 39.36 44.53 39.36 47.14 48.12 42.07 48.12 39.47"/><polygon class="cls-9" points="31.99 53.8 31.99 56.41 39.36 52.15 39.36 49.54 31.99 53.8"/><polygon class="cls-10" points="44.18 46.79 39.36 49.54 39.36 52.15 44.19 49.4 44.18 46.79"/><polygon class="cls-2" points="75.93 50.68 75.93 55.6 53.77 70.88 47.1 65.85 75.93 50.68"/><polygon class="cls-3" points="74.65 53.15 81.31 57 53.77 72.91 47.1 69.06 74.65 53.15"/><polygon class="cls-3" points="53.38 68.55 49.11 66.09 75.94 50.68 74.66 49.94 47.1 65.85 47.1 109.72 53.76 113.58 81.31 97.67 81.31 53.79 80.2 53.15 53.38 68.55"/><polygon class="cls-4" points="53.7 68.1 49.66 65.78 75.93 50.68 74.65 49.94 47.1 65.85 53.77 69.7 81.31 53.79 79.96 53.01 53.7 68.1"/><polygon class="cls-2" points="81.31 53.79 53.77 69.7 53.77 113.57 53.78 113.58 81.31 97.67 81.31 53.79"/><polygon class="cls-2" points="88.75 58.13 88.75 63.05 66.59 78.33 59.93 73.29 88.75 58.13"/><polygon class="cls-3" points="87.47 60.6 94.13 64.45 66.59 80.36 59.93 76.51 87.47 60.6"/><polygon class="cls-3" points="66.2 76 61.93 73.53 88.76 58.13 87.48 57.38 59.93 73.29 59.93 117.17 66.58 121.02 94.14 105.11 94.14 61.24 93.02 60.59 66.2 76"/><polygon class="cls-4" points="66.52 75.55 62.48 73.22 88.75 58.13 87.47 57.39 59.93 73.29 66.59 77.15 94.14 61.24 92.78 60.45 66.52 75.55"/><polygon class="cls-2" points="94.13 61.24 66.59 77.15 66.59 121.02 66.6 121.03 94.14 105.11 94.13 61.24"/><polygon class="cls-2" points="101.57 65.58 101.57 70.49 79.41 85.78 72.75 80.74 101.57 65.58"/><polygon class="cls-3" points="100.29 68.05 106.95 71.89 79.41 87.8 72.75 83.95 100.29 68.05"/><polygon class="cls-3" points="79.02 83.45 74.75 80.98 101.58 65.57 100.3 64.83 72.75 80.74 72.75 124.61 79.4 128.47 106.96 112.56 106.96 68.69 105.84 68.04 79.02 83.45"/><polygon class="cls-4" points="79.34 83 75.31 80.67 101.57 65.58 100.29 64.84 72.75 80.74 79.41 84.59 106.96 68.69 105.6 67.9 79.34 83"/><polygon class="cls-11" points="106.95 68.68 79.41 84.59 79.41 128.47 79.42 128.47 106.96 112.56 106.95 68.68"/><polygon class="cls-5" points="75.93 0.74 75.93 5.66 53.77 20.95 47.1 15.91 75.93 0.74"/><polygon class="cls-6" points="74.65 3.22 81.31 7.06 53.77 22.97 47.1 19.12 74.65 3.22"/><polygon class="cls-6" points="53.38 18.61 49.11 16.15 75.94 0.74 74.66 0 47.1 15.91 47.1 59.78 53.76 63.64 81.31 47.73 81.31 3.86 80.2 3.21 53.38 18.61"/><polygon class="cls-7" points="53.7 18.17 49.66 15.84 75.93 0.74 74.65 0.01 47.1 15.91 53.77 19.76 81.31 3.86 79.96 3.07 53.7 18.17"/><polygon class="cls-5" points="81.31 3.85 53.77 19.76 53.77 63.63 53.78 63.64 81.31 47.73 81.31 3.85"/><polygon class="cls-5" points="88.75 8.19 88.75 13.11 66.59 28.39 59.93 23.36 88.75 8.19"/><polygon class="cls-6" points="87.47 10.66 94.13 14.51 66.59 30.42 59.93 26.57 87.47 10.66"/><polygon class="cls-6" points="66.2 26.06 61.93 23.6 88.76 8.19 87.48 7.45 59.93 23.36 59.93 67.23 66.58 71.09 94.14 55.18 94.14 11.3 93.02 10.66 66.2 26.06"/><polygon class="cls-7" points="66.52 25.61 62.48 23.29 88.75 8.19 87.47 7.45 59.93 23.36 66.59 27.21 94.14 11.3 92.78 10.52 66.52 25.61"/><polygon class="cls-5" points="94.13 11.3 66.59 27.21 66.59 71.08 66.6 71.09 94.14 55.18 94.13 11.3"/><polygon class="cls-5" points="101.57 15.64 101.57 20.55 79.41 35.84 72.75 30.8 101.57 15.64"/><polygon class="cls-6" points="100.29 18.11 106.95 21.96 79.41 37.87 72.75 34.02 100.29 18.11"/><polygon class="cls-6" points="79.02 33.51 74.75 31.04 101.58 15.63 100.3 14.89 72.75 30.8 72.75 74.68 79.4 78.53 106.96 62.62 106.96 18.75 105.84 18.1 79.02 33.51"/><polygon class="cls-7" points="79.34 33.06 75.31 30.73 101.57 15.64 100.29 14.9 72.75 30.8 79.41 34.66 106.96 18.75 105.6 17.96 79.34 33.06"/><polygon class="cls-8" points="106.95 18.75 79.41 34.66 79.41 78.53 79.42 78.53 106.96 62.62 106.95 18.75"/><polygon class="cls-12" points="51.38 47.89 49.27 46.67 49.27 22.04 51.39 23.26 51.38 47.89"/><polygon class="cls-12" points="51.38 56.76 49.27 55.54 49.27 49.6 51.39 50.82 51.38 56.76"/><polygon class="cls-12" points="64.21 105.71 62.09 104.49 62.09 79.86 64.21 81.08 64.21 105.71"/><polygon class="cls-12" points="64.21 114.58 62.09 113.36 62.09 107.42 64.21 108.64 64.21 114.58"/><polygon class="cls-12" points="64.16 56.73 62.05 55.5 62.05 38.57 64.16 39.79 64.16 56.73"/><polygon class="cls-12" points="76.98 51.62 74.87 50.4 74.87 37.87 76.99 39.09 76.98 51.62"/><polygon class="cls-12" points="76.98 71.49 74.87 70.27 74.87 53.34 76.99 54.56 76.98 71.49"/><polygon class="cls-12" points="51.38 86.98 49.27 85.75 49.27 73.22 51.39 74.44 51.38 86.98"/><polygon class="cls-12" points="51.38 106.84 49.27 105.62 49.27 88.69 51.39 89.91 51.38 106.84"/><polygon class="cls-12" points="23.09 31.27 20.98 30.05 20.98 25.22 23.09 26.44 23.09 31.27"/><polygon class="cls-12" points="23.09 58.84 20.98 57.62 20.98 32.99 23.09 34.21 23.09 58.84"/><polygon class="cls-12" points="38.68 72.12 36.56 70.9 36.56 66.06 38.68 67.28 38.68 72.12"/><polygon class="cls-12" points="38.68 99.69 36.56 98.46 36.56 73.83 38.68 75.05 38.68 99.69"/><polygon class="cls-12" points="64.16 33.04 62.05 31.82 62.05 35.78 64.16 37 64.16 33.04"/><polygon class="cls-12" points="64.16 59.41 62.05 58.19 62.05 62.15 64.16 63.38 64.16 59.41"/><polygon class="cls-12" points="76.98 114.11 74.87 112.89 74.87 95.95 76.99 97.17 76.98 114.11"/><polygon class="cls-12" points="76.98 90.43 74.87 89.2 74.87 93.17 76.99 94.39 76.98 90.43"/><polygon class="cls-12" points="76.98 116.8 74.87 115.58 74.87 119.54 76.99 120.76 76.98 116.8"/><polygon class="cls-9" points="101.57 31.03 85.44 40.35 85.44 53.95 101.57 44.63 101.57 31.03"/><polygon class="cls-9" points="101.57 48.93 85.44 58.25 85.44 60.85 101.57 51.53 101.57 48.93"/><polygon class="cls-9" points="97.73 56.58 85.44 63.69 85.44 66.29 97.74 59.19 97.73 56.58"/><polygon class="cls-9" points="101.57 80.95 85.44 90.27 85.44 103.87 101.57 94.55 101.57 80.95"/><polygon class="cls-9" points="101.57 98.84 85.44 108.16 85.44 110.77 101.57 101.45 101.57 98.84"/><polygon class="cls-9" points="94.13 108.55 85.44 113.6 85.44 116.21 94.14 111.16 94.13 108.55"/></g></g></svg>