<svg xmlns="http://www.w3.org/2000/svg" width="141" height="149" xmlns:xlink="http://www.w3.org/1999/xlink" viewBox="0 0 139.43 135.34"><defs><style>.cls-1{fill:url(#Безымянный_градиент_10);}.cls-2{fill:#009dff;}.cls-3{fill:#fff;}.cls-4{fill:url(#Безымянный_градиент_25);}.cls-5{fill:#f6aa45;}.cls-15,.cls-6{fill:none;stroke-linecap:round;stroke-linejoin:round;stroke-width:2px;}.cls-6{stroke:#00adee;}.cls-7{fill:url(#Безымянный_градиент_41);}.cls-8{fill:#00adee;}.cls-9{fill:#008bd1;}.cls-10{fill:url(#Безымянный_градиент_25-2);}.cls-11{fill:#5843bf;}.cls-12{fill:url(#Безымянный_градиент_81);}.cls-13{fill:#3f2487;}.cls-14{fill:url(#Безымянный_градиент_82);}.cls-15{stroke:#f6aa45;}.cls-16{fill:url(#Безымянный_градиент_16);}</style><linearGradient id="Безымянный_градиент_10" x1="104.56" y1="71.11" x2="104.56" y2="47.47" gradientTransform="matrix(-1, 0, 0, 1, 123.67, 0)" gradientUnits="userSpaceOnUse"><stop offset="0" stop-color="#0076b3"/><stop offset="0.29" stop-color="#0076b3"/><stop offset="0.51" stop-color="#0098d0"/><stop offset="0.75" stop-color="#00b6e9"/><stop offset="0.88" stop-color="#00c1f3"/></linearGradient><linearGradient id="Безымянный_градиент_25" x1="-3.32" y1="57.68" x2="-3.32" y2="81.33" gradientTransform="matrix(-1, 0, 0, 1, 123.67, 0)" gradientUnits="userSpaceOnUse"><stop offset="0" stop-color="#f5cc74"/><stop offset="0.12" stop-color="#f6c76d"/><stop offset="0.29" stop-color="#f7b95a"/><stop offset="0.5" stop-color="#faa33a"/><stop offset="0.73" stop-color="#fe840f"/><stop offset="0.8" stop-color="#ff7900"/></linearGradient><linearGradient id="Безымянный_градиент_41" x1="46.22" y1="76.84" x2="102.64" y2="76.84" gradientUnits="userSpaceOnUse"><stop offset="0" stop-color="#0076b3"/><stop offset="0.4" stop-color="#0076b3"/><stop offset="0.46" stop-color="#0076b3"/><stop offset="0.58" stop-color="#0088c2"/><stop offset="0.83" stop-color="#00b5e9"/><stop offset="0.88" stop-color="#00c1f3"/></linearGradient><linearGradient id="Безымянный_градиент_25-2" x1="90.45" y1="8.39" x2="65.58" y2="51.46" gradientTransform="matrix(1, 0, 0, 1, 0, 0)" xlink:href="#Безымянный_градиент_25"/><linearGradient id="Безымянный_градиент_81" x1="61.4" y1="78.21" x2="66.93" y2="68.63" gradientUnits="userSpaceOnUse"><stop offset="0" stop-color="#4b65a6"/><stop offset="0.89" stop-color="#463693"/><stop offset="1" stop-color="#453091"/></linearGradient><linearGradient id="Безымянный_градиент_82" x1="62.01" y1="85.25" x2="71.62" y2="79.69" gradientUnits="userSpaceOnUse"><stop offset="0" stop-color="#2b67a9"/><stop offset="1" stop-color="#433191"/></linearGradient><linearGradient id="Безымянный_градиент_16" x1="-104.49" y1="134.78" x2="-104.49" y2="111.13" gradientTransform="translate(175.39)" gradientUnits="userSpaceOnUse"><stop offset="0" stop-color="#0076b3"/><stop offset="0.24" stop-color="#0076b3"/><stop offset="0.28" stop-color="#0076b3"/><stop offset="0.31" stop-color="#007cb8"/><stop offset="0.56" stop-color="#00a1d8"/><stop offset="0.76" stop-color="#00b9ec"/><stop offset="0.88" stop-color="#00c1f3"/></linearGradient></defs><title>Ресурс 1</title><g id="Слой_2" data-name="Слой 2"><g id="Layer_2" data-name="Layer 2"><path class="cls-1" d="M17.34,47.7a5.65,5.65,0,0,1,3.51.09l2.3,1.09L27.53,51l1.35,3.63c.17.78-3.54.41-3.54,1.3-5.08-2.37-8.2,4.74-4.06,12-1,1.91-1.8,3.19-1.8,3.19s-6.65-3.19-6.9-3.36c-2-1.35-3.24-4-3.24-7.45C9.34,54.57,12.93,48.91,17.34,47.7Z"/><path class="cls-2" d="M15.56,63.25c0-5.73,3.58-11.38,8-12.6s8,2.46,8,8.19-3.58,11.38-8,12.6S15.56,69,15.56,63.25Z"/><path class="cls-3" d="M18.22,62.52c0,3.82,2.39,6.27,5.33,5.45s5.34-4.57,5.34-8.4-2.39-6.27-5.34-5.45S18.22,58.7,18.22,62.52Z"/><path class="cls-4" d="M125.22,57.91a5.77,5.77,0,0,1,3.5.09L131,59.1l4.38,2.06,1.35,3.64c.16.78-3.54.41-3.54,1.3-5.09-2.37-8.2,4.73-4.07,12-1,1.9-1.79,3.19-1.79,3.19s-6.65-3.19-6.9-3.36c-2-1.36-3.24-4-3.24-7.46C117.22,64.78,120.81,59.13,125.22,57.91Z"/><path class="cls-5" d="M123.43,73.47c0-5.73,3.59-11.38,8-12.6s8,2.45,8,8.18-3.59,11.39-8,12.6S123.43,79.2,123.43,73.47Z"/><path class="cls-3" d="M126.1,72.73c0,3.82,2.39,6.27,5.33,5.46s5.34-4.58,5.34-8.4-2.4-6.27-5.34-5.46S126.1,68.91,126.1,72.73Z"/><path class="cls-6" d="M78.65,98.59,39.83,76.17a5.36,5.36,0,0,0-5.34,0L23.89,82.3a5.36,5.36,0,0,1-5.38,0L1.92,72.66a1.86,1.86,0,0,1,0-3.22L12.2,63.58"/><path class="cls-7" d="M87.67,55.82A39.74,39.74,0,0,0,76.19,57.9V44s-7.76-3.4-15-3.4-15,3.34-15,3.34,0,45.18,0,45.82c0,2.12,1.5,4,3.94,5.49h0L77,110.68h0a22.65,22.65,0,0,0,10.7,2.44c8.27,0,15-3.64,15-8.14V59.22S94.88,55.82,87.67,55.82Z"/><path class="cls-8" d="M98.59,53.92h0L72.09,38.62h0a22.26,22.26,0,0,0-10.86-2.55c-8.27,0-15,3.64-15,8.13,0,2.13,1.5,4,3.94,5.5h0L77,65.17h0a22.46,22.46,0,0,0,10.69,2.44c8.27,0,15-3.64,15-8.13C102.64,57.32,101.09,55.37,98.59,53.92Z"/><ellipse class="cls-9" cx="88.18" cy="59.66" rx="8.05" ry="4.26"/><ellipse class="cls-9" cx="60.68" cy="43.95" rx="8.05" ry="4.26"/><path class="cls-10" d="M80,2.34a17.28,17.28,0,0,0-25.91,15V43.37h0c0,2,3,3.63,6.69,3.63s6.69-1.62,6.69-3.63h0V17.3a3.9,3.9,0,0,1,5.84-3.37,16.65,16.65,0,0,1,8.31,14.38V58.79h0c0,2,3,3.64,6.69,3.64S95,60.8,95,58.79h0V28.31A30.07,30.07,0,0,0,80,2.34Z"/><ellipse class="cls-2" cx="96.52" cy="102.51" rx="1.73" ry="1.93"/><ellipse class="cls-11" cx="64.5" cy="94.88" rx="1.67" ry="1.93" transform="translate(-8.32 6.22) rotate(-5.19)"/><path class="cls-12" d="M64.7,67.35c-2.51-1.38-4.55.46-4.55,4.12a12.37,12.37,0,0,0,2.79,7.63l6.27-3.59C68.9,72.12,67,68.61,64.7,67.35Z"/><path class="cls-13" d="M66.07,88.51l-.2.12A1.06,1.06,0,0,0,66.07,88.51Z"/><path class="cls-13" d="M65.87,88.63h0Z"/><path class="cls-14" d="M69.21,75.51,62.94,79.1v7.08a2.53,2.53,0,0,0,2.53,2.53,1,1,0,0,0,.38-.08h0l.2-.12a1.13,1.13,0,0,0,.54-.94V81c1.56-.19,2.65-1.89,2.65-4.56C69.26,76.15,69.24,75.83,69.21,75.51Z"/><path class="cls-6" d="M64.15,94.88,44.28,106.7a2.33,2.33,0,0,0,0,4l18.62,10.66"/><path class="cls-15" d="M120.13,73.45l-12.47,7.29a2.08,2.08,0,0,0,0,3.59l22.67,12.94a2.08,2.08,0,0,1,0,3.6L115,110a5.27,5.27,0,0,1-5.32,0l-13-7.47"/><path class="cls-16" d="M72.68,111.37a5.72,5.72,0,0,0-3.51.08l-2.31,1.1-4.38,2.07-1.35,3.63c-.16.78,3.55.41,3.55,1.3,5.08-2.37,8.19,4.73,4.06,12,1,1.91,1.79,3.19,1.79,3.19s6.65-3.19,6.91-3.36c2-1.36,3.24-4,3.24-7.46C80.68,118.23,77.09,112.58,72.68,111.37Z"/><path class="cls-2" d="M66.46,135.1c-4.41-1.21-8-6.86-8-12.59s3.59-9.41,8-8.19,8,6.87,8,12.6S70.87,136.32,66.46,135.1Z"/><path class="cls-3" d="M66.46,117.94c-2.87-.79-5.21,1.6-5.21,5.34s2.34,7.41,5.21,8.2,5.21-1.6,5.21-5.33S69.34,118.74,66.46,117.94Z"/><line class="cls-15" x1="129.75" y1="69.76" x2="133.53" y2="72.72"/><line class="cls-15" x1="133.64" y1="68.26" x2="129.97" y2="74.36"/><polyline class="cls-6" points="21.09 62.78 22.75 64.68 25.8 57.89"/><polyline class="cls-6" points="63.96 125.46 65.89 127.75 68.64 122.96"/></g></g></svg>