<svg xmlns="http://www.w3.org/2000/svg" width="132" height="144" xmlns:xlink="http://www.w3.org/1999/xlink" viewBox="0 0 122.45 111.82"><defs><style>.cls-1{fill:#ff7900;}.cls-2{fill:#ce5800;}.cls-3{fill:#f6aa45;}.cls-4{fill:#ffbc6c;}.cls-5{fill:#fff;}.cls-6{fill:#16cef7;}.cls-7{fill:url(#Безымянный_градиент_49);}.cls-8{fill:url(#Безымянный_градиент_49-2);}.cls-9{fill:#009dff;}.cls-10,.cls-11,.cls-12{opacity:0.45;}.cls-10{fill:url(#Безымянный_градиент_48);}.cls-11{fill:url(#Безымянный_градиент_46);}.cls-12{fill:url(#Безымянный_градиент_46-2);}.cls-13{fill:url(#Безымянный_градиент_20);}</style><linearGradient id="Безымянный_градиент_49" x1="36.12" y1="76.54" x2="26.15" y2="68.6" gradientUnits="userSpaceOnUse"><stop offset="0" stop-color="#0076b3"/><stop offset="0.08" stop-color="#0076b3"/><stop offset="0.14" stop-color="#118bc3"/><stop offset="0.24" stop-color="#24a5d5"/><stop offset="0.35" stop-color="#33b7e2"/><stop offset="0.45" stop-color="#3bc2ea"/><stop offset="0.57" stop-color="#3ec6ed"/></linearGradient><linearGradient id="Безымянный_градиент_49-2" x1="-105.26" y1="20.99" x2="-114.89" y2="4.13" gradientTransform="matrix(0.99, -0.05, 0, 1.01, 173.57, -8.54)" xlink:href="#Безымянный_градиент_49"/><linearGradient id="Безымянный_градиент_48" x1="56.15" y1="71.95" x2="49.1" y2="84.17" gradientUnits="userSpaceOnUse"><stop offset="0" stop-color="#0076b3"/><stop offset="0.04" stop-color="#007db9"/><stop offset="0.26" stop-color="#009ad2"/><stop offset="0.48" stop-color="#00b0e4"/><stop offset="0.69" stop-color="#00bdef"/><stop offset="0.88" stop-color="#00c1f3"/></linearGradient><linearGradient id="Безымянный_градиент_46" x1="46.59" y1="65.55" x2="51.46" y2="73.99" gradientUnits="userSpaceOnUse"><stop offset="0" stop-color="#0076b3"/><stop offset="0.11" stop-color="#0078b5" stop-opacity="0.97"/><stop offset="0.25" stop-color="#007fbb" stop-opacity="0.88"/><stop offset="0.4" stop-color="#008ac4" stop-opacity="0.74"/><stop offset="0.57" stop-color="#0099d1" stop-opacity="0.54"/><stop offset="0.74" stop-color="#00ace1" stop-opacity="0.28"/><stop offset="0.91" stop-color="#00c1f3" stop-opacity="0"/></linearGradient><linearGradient id="Безымянный_градиент_46-2" x1="33.38" y1="16.83" x2="36.73" y2="22.64" xlink:href="#Безымянный_градиент_46"/><linearGradient id="Безымянный_градиент_20" x1="25.93" y1="70.14" x2="24.28" y2="73" gradientUnits="userSpaceOnUse"><stop offset="0" stop-color="#0076b3"/><stop offset="0.21" stop-color="#0076b3"/><stop offset="0.46" stop-color="#0386bf"/><stop offset="0.93" stop-color="#0aafdf"/><stop offset="1" stop-color="#0bb6e4"/></linearGradient></defs><title>Ресурс 1</title><g id="Слой_2" data-name="Слой 2"><g id="Layer_2" data-name="Layer 2"><polygon class="cls-1" points="37.94 80.2 74.58 59.04 122.44 86.67 122.44 90.66 85.8 111.81 37.94 84.19 37.94 80.2"/><polygon class="cls-2" points="122.44 86.67 74.58 59.04 37.95 80.19 85.81 107.82 122.44 86.67"/><polygon class="cls-3" points="122.44 86.66 85.81 107.82 85.81 111.81 85.81 111.81 122.45 90.66 122.44 86.66"/><polygon class="cls-1" points="37.94 72.36 74.58 51.2 122.44 78.83 122.44 82.82 85.8 103.98 37.94 76.35 37.94 72.36"/><polygon class="cls-2" points="122.44 78.83 74.58 51.2 37.95 72.35 85.81 99.98 122.44 78.83"/><polygon class="cls-3" points="122.44 78.83 85.81 99.98 85.81 103.97 85.81 103.98 122.45 82.82 122.44 78.83"/><polygon class="cls-1" points="37.94 64.52 74.58 43.36 122.44 70.99 122.44 74.98 85.8 96.14 37.94 68.51 37.94 64.52"/><polygon class="cls-2" points="122.44 70.99 74.58 43.37 37.95 64.52 85.81 92.14 122.44 70.99"/><polygon class="cls-3" points="122.44 70.99 85.81 92.14 85.81 96.13 85.81 96.14 122.45 74.98 122.44 70.99"/><polygon class="cls-1" points="37.94 56.68 74.58 35.53 122.44 63.15 122.44 67.14 85.8 88.3 37.94 60.67 37.94 56.68"/><polygon class="cls-2" points="122.44 63.15 74.58 35.53 37.95 56.68 85.81 84.3 122.44 63.15"/><polygon class="cls-3" points="122.44 63.15 85.81 84.3 85.81 88.29 85.81 88.3 122.45 67.14 122.44 63.15"/><polygon class="cls-1" points="37.94 48.84 74.58 27.69 122.44 55.31 122.44 59.3 85.8 80.46 37.94 52.83 37.94 48.84"/><polygon class="cls-2" points="122.44 55.31 74.58 27.69 37.95 48.84 85.81 76.47 122.44 55.31"/><polygon class="cls-3" points="122.44 55.31 85.81 76.47 85.81 80.45 85.81 80.46 122.45 59.3 122.44 55.31"/><polygon class="cls-1" points="37.94 41 74.58 19.85 122.44 47.48 122.44 51.47 85.8 72.62 37.94 44.99 37.94 41"/><polygon class="cls-4" points="122.44 47.48 74.58 19.85 37.95 41 85.81 68.63 122.44 47.48"/><polygon class="cls-3" points="122.44 47.47 85.81 68.63 85.81 72.62 85.81 72.62 122.45 51.47 122.44 47.47"/><polygon class="cls-5" points="50.94 40.98 74.81 27.16 92.26 37.22 68.39 51.03 50.94 40.98"/><polygon class="cls-5" points="73.91 54.19 97.77 40.38 101.11 42.31 77.25 56.12 73.91 54.19"/><polygon class="cls-5" points="91.84 51.82 104.75 44.4 108.09 46.33 95.19 53.75 91.84 51.82"/><polygon class="cls-2" points="49.76 59.65 61.38 66.37 58.16 60.5 46.19 53.59 48.63 51.16 56.93 55.95 56.93 51.94 50.32 48.12 22.17 48.12 62.83 72.6 62.83 71.04 47.32 62.08 49.76 59.65"/><path class="cls-6" d="M52.19,62.32v-18c0-11-4.83-23.19-13.26-30.71V11.18a10.33,10.33,0,0,0-4.43-8,3.52,3.52,0,0,0-2.31-.6c-.38.05-7.61,4.31-7.61,4.31s2,.73.53,1a7.49,7.49,0,0,0-2.92,1.07l-6.82,4A39.46,39.46,0,0,1,16.82,23V41l-5.9,3.64v3.6L51.13,80.76l7-4.1v-3.6Z"/><path class="cls-6" d="M48.27,64.57v-18c0-11-4.83-23.19-13.26-30.71V13.43a10.35,10.35,0,0,0-4.42-8,3.55,3.55,0,0,0-2.31-.6c-.39,0-7.61,4.31-7.61,4.31s2,.73.53,1a7.48,7.48,0,0,0-2.93,1.07l-6.82,4A39.46,39.46,0,0,1,12.9,25.29v18L7,46.9v3.6L47.17,83.06l7-4.15v-3.6Z"/><path class="cls-7" d="M28.61,62.5l-3.93,2.32,0,0-6.95,4.1,9.93,11.22,3.94-2.32,0,0s6.87-4,7.19-4.24a4.59,4.59,0,0,0,1.63-4Z"/><path class="cls-8" d="M64.93.14a5,5,0,0,0-3.07.23l-2,1.07L56,3.47,54.86,6.76c-.14.7,3.09.22,3.09,1,4.44-2.32,7.17,3.88,3.58,10.56C62.4,20,63.1,21.1,63.1,21.1s5.8-3.12,6-3.28c1.71-1.29,2.82-3.74,2.82-6.78C71.93,5.93,68.78,1,64.93.14Z"/><path class="cls-9" d="M59.54,21.56c-3.85-.9-7-5.79-7-10.89s3.12-8.53,7-7.63,7,5.78,7,10.89S63.4,22.46,59.54,21.56Z"/><polygon class="cls-10" points="58.09 73.06 47.16 79.46 47.16 83.06 58.09 76.66 58.09 73.06"/><polygon class="cls-11" points="52.19 62.32 41.29 68.9 45.85 77.22 56.82 70.75 52.19 62.32"/><path class="cls-12" d="M38.93,13.63l-11,6.42,2.21,6.42S41,19.05,42.55,17.4A40.42,40.42,0,0,0,38.93,13.63Z"/><path class="cls-9" d="M41.27,68.72v-18c0-11-4.83-23.19-13.27-30.71V17.58a10.32,10.32,0,0,0-4.42-8c-2.44-1.48-4.42-.26-4.42,2.73V14.7C10.7,12.05,5.9,18.36,5.9,29.43v18L0,51.05v3.6L47.17,83.06v-3.6Z"/><path class="cls-9" d="M23.58,79.64c3.25,2,5.9.31,5.9-3.64L17.69,68.89C17.69,72.85,20.31,77.67,23.58,79.64Z"/><polygon class="cls-13" points="17.69 68.89 20.7 67.12 32.53 74.24 29.48 76 17.69 68.89"/></g></g></svg>