<?xml version="1.0" standalone="no"?>
<!DOCTYPE svg PUBLIC "-//W3C//DTD SVG 1.1//EN" "http://www.w3.org/Graphics/SVG/1.1/DTD/svg11.dtd" >
<svg xmlns="http://www.w3.org/2000/svg" xmlns:xlink="http://www.w3.org/1999/xlink" version="1.1">
<metadata>
Created by FontForge 20161003 at Mon Aug 13 10:03:42 2018
 By www-data
Copyright (c) 2017 by Cosimo Lorenzo Pancini &#38; Francesco Canovaro. All rights reserved.
</metadata>
<defs>
<font id="CodecWarmNews" horiz-adv-x="1404" >
  <font-face 
    font-family="CodecWarmNews"
    font-weight="450"
    font-stretch="normal"
    units-per-em="2048"
    panose-1="0 0 0 0 0 0 0 0 0 0"
    ascent="1638"
    descent="-410"
    x-height="1018"
    cap-height="1360"
    bbox="-843 -1635 3118 1892"
    underline-thickness="0"
    underline-position="0"
    unicode-range="U+000D-FB06"
  />
<missing-glyph horiz-adv-x="454" 
 />
    <glyph glyph-name="IJ" unicode="IJ" horiz-adv-x="1020" 
d="M172 0v138h256q81 0 136 20.5t88.5 58.5t48 93t14.5 125v925h157v-926q0 -212 -109.5 -323t-334.5 -111h-256zM176 400v960h157v-960h-157z" />
    <glyph glyph-name="ij" unicode="ij" horiz-adv-x="1048" 
d="M181 0v1018h155v-882h368v882h156v-1036q0 -82 -21 -146.5t-62 -109.5t-101 -69t-137 -24h-89v136h82q45 0 77.5 15.5t53.5 44t31 67.5t10 87v17h-523zM152 1319q0 40 29.5 69t77.5 29t78.5 -29t30.5 -69q0 -42 -30.5 -70.5t-78.5 -28.5t-77.5 29t-29.5 70zM669 1319
q0 40 29.5 69t77.5 29t78 -29t30 -69q0 -42 -30 -70.5t-78 -28.5t-77.5 29t-29.5 70z" />
    <glyph glyph-name="uniFB00" unicode="ff" horiz-adv-x="1506" 
d="M997 0v882h-578v-882h-155v882h-211v136h211v52q0 69 15 135.5t52.5 118.5t100.5 84t159 32h140v-129h-108q-58 0 -97 -18.5t-63 -51.5t-34 -78t-10 -98v-47h578v52q0 69 15 135.5t52.5 118.5t100.5 84t159 32h141v-129h-109q-58 0 -97 -18.5t-63 -51.5t-34 -78t-10 -98
v-47h307v-136h-307v-882h-155z" />
    <glyph glyph-name="uniFB01" unicode="fi" horiz-adv-x="1259" 
d="M910 0v882h-491v-882h-155v882h-211v136h211v52q0 69 15 135.5t52.5 118.5t100.5 84t159 32h140v-129h-108q-58 0 -97 -18.5t-63 -51.5t-34 -78t-10 -98v-47h646v-1018h-155zM881 1325q0 40 29.5 69t77.5 29t78.5 -29t30.5 -69q0 -42 -30.5 -70t-78.5 -28t-77.5 28.5
t-29.5 69.5z" />
    <glyph glyph-name="uniFB02" unicode="fl" horiz-adv-x="1348" 
d="M264 0v882h-211v136h211v65q0 66 15.5 132t55.5 118.5t109.5 85.5t178.5 33q92 0 175.5 -12t148.5 -27.5t106.5 -30.5t49.5 -21v-1059q0 -48 5.5 -80t21 -51.5t43 -27.5t72.5 -8h43v-136h-49q-90 0 -147 16.5t-88.5 52.5t-43 93.5t-11.5 139.5v975q-59 15 -138 29
t-167 14q-62 0 -105 -19t-69.5 -53t-38.5 -79.5t-12 -98.5v-51h307v-136h-307v-882h-155z" />
    <glyph glyph-name="uniFB03" unicode="ffi" horiz-adv-x="1952" 
d="M1011 0v882h-592v-882h-155v882h-211v136h211v52q0 69 15 135.5t52.5 118.5t100.5 84t159 32h140v-129h-108q-58 0 -97 -18.5t-63 -51.5t-34 -78t-10 -98v-47h592v52q0 69 15 135.5t52.5 118.5t100.5 84t159 32h141v-129h-109q-58 0 -97 -18.5t-63 -51.5t-34 -78t-10 -98
v-47h635v-1018h-154v882h-481v-882h-155zM1617 1325q0 40 30 69t78 29t78 -29t30 -69q0 -42 -30.5 -70t-78.5 -28q-47 0 -77 28.5t-30 69.5z" />
    <glyph glyph-name="uniFB04" unicode="ffl" horiz-adv-x="2071" 
d="M999 0v882h-580v-882h-155v882h-211v136h211v52q0 69 15 135.5t52.5 118.5t100.5 84t159 32h140v-129h-108q-58 0 -97 -18.5t-63 -51.5t-34 -78t-10 -98v-47h580v52q0 69 15 135.5t52.5 118.5t100.5 84t159 32h139v-129h-107q-58 0 -97.5 -18.5t-63.5 -51.5t-34 -78
t-10 -98v-47h531v390h154v-1106q0 -48 5.5 -80t21 -51.5t43 -27.5t72.5 -8h43v-136h-50q-90 0 -146.5 16.5t-88 52.5t-43 93.5t-11.5 139.5v581h-531v-882h-154z" />
    <glyph glyph-name="f_t.liga" unicode="ft" horiz-adv-x="1533" 
d="M895 360v475h-489v-835h-155v835h-179v135h179v132q0 66 15 127t49.5 108.5t90.5 75.5t139 28q55 0 93.5 -11.5t53.5 -23.5l-47 -118q-8 4 -19 7q-10 2 -23.5 4t-30.5 2q-85 0 -125.5 -52t-40.5 -151v-128h489v295l154 1v-296h346v-135h-347v-474q0 -75 17 -124.5t44 -79
t61.5 -41t70.5 -11.5q35 0 62 5.5t47.5 13t35.5 16.5t26 15l53 -119q-11 -8 -32 -20t-51 -23t-69 -19t-86 -8q-74 0 -135.5 20t-105 66.5t-67.5 122t-24 185.5z" />
    <glyph glyph-name="f_j.liga" unicode="fj" horiz-adv-x="1304" 
d="M264 0v882h-211v136h211v52q0 69 15 135.5t52.5 118.5t100.5 84t159 32h140v-129h-108q-58 0 -97 -18.5t-63 -51.5t-34 -78t-10 -98v-47h674v-1036q0 -82 -21 -146.5t-61.5 -109.5t-100.5 -69t-137 -24h-89v136h82q45 0 77.5 15.5t53.5 44t31 67.5t10 87v899h-519v-882
h-155zM910 1325q0 40 29.5 69t77.5 29t78.5 -29t30.5 -69q0 -42 -30.5 -70t-78.5 -28t-77.5 28.5t-29.5 69.5z" />
    <glyph glyph-name=".notdef" horiz-adv-x="454" 
 />
    <glyph glyph-name="glyph1" horiz-adv-x="0" 
 />
    <glyph glyph-name="glyph1" horiz-adv-x="0" 
 />
    <glyph glyph-name="uni000D" unicode="&#xd;" horiz-adv-x="454" 
 />
    <glyph glyph-name="uni0010" horiz-adv-x="1670" 
 />
    <glyph glyph-name="space" unicode=" " horiz-adv-x="454" 
 />
    <glyph glyph-name="exclam" unicode="!" horiz-adv-x="563" 
d="M222 387l-19 280v693h154v-694l-19 -279h-116zM177 81q0 42 29 72t75 30q48 0 77 -30t29 -72t-29 -71.5t-77 -29.5q-46 0 -75 29.5t-29 71.5z" />
    <glyph glyph-name="quotedbl" unicode="&#x22;" horiz-adv-x="803" 
d="M333 1398l-15 -534q-31 0 -59.5 -0.5t-59.5 -0.5l-13 535h147zM620 1398l-14 -534q-32 0 -60.5 -0.5t-59.5 -0.5l-13 535h147z" />
    <glyph glyph-name="numbersign" unicode="#" horiz-adv-x="1215" 
d="M762 816h-245l-58 -334h244zM377 14h-140l61 349h-210l3 119h228l59 334h-222l2 119h241l75 425h138l-74 -425h245l75 425h138l-75 -425h200l-2 -119h-219l-58 -334h211l-2 -119h-230l-61 -349h-139l61 349h-244z" />
    <glyph glyph-name="dollar" unicode="$" horiz-adv-x="1232" 
d="M528 -212v185q-143 5 -266.5 43t-208.5 92l58 133q35 -18 84.5 -40.5t109.5 -42t128.5 -33t141.5 -13.5q195 0 293.5 68.5t98.5 198.5q0 65 -30 110t-82.5 76t-123.5 50t-154 33q-48 7 -102.5 16.5t-107 25.5t-100.5 40t-85 59t-58.5 84t-21.5 114q0 74 22.5 141.5
t73.5 121.5t132 90t198 46v193h150v-192q63 -6 121.5 -20t111 -32.5t99 -39t86.5 -40.5l-49 -133q-30 17 -78.5 39t-108.5 42t-127 33.5t-134 13.5q-99 0 -164.5 -22t-104.5 -57.5t-55 -80t-16 -90.5q0 -59 28.5 -98.5t80 -65.5t122.5 -41t156 -25q84 -14 169.5 -36.5
t154.5 -66t112.5 -113.5t43.5 -180q0 -84 -30.5 -152.5t-88 -119t-140.5 -82t-189 -42.5v-190h-150z" />
    <glyph glyph-name="percent" unicode="%" horiz-adv-x="1697" 
d="M1260 -15q-72 0 -133.5 24.5t-106.5 68t-71 102t-26 127.5t26 128.5t71 103t106.5 68.5t133.5 25t133.5 -24.5t107 -68t71.5 -103t26 -129.5q0 -69 -26 -127.5t-71 -102t-107 -68t-134 -24.5zM1261 98q45 0 82.5 16t65 43.5t43 65.5t15.5 83q0 46 -15.5 85t-43.5 67.5
t-65.5 45t-82.5 16.5q-44 0 -82 -16t-65.5 -44.5t-43 -67t-15.5 -84.5q0 -45 15.5 -83.5t43.5 -66.5t65.5 -44t82.5 -16zM529 -1h-144l832 1360h145zM437 731q-72 0 -133.5 24.5t-106.5 68t-71 102t-26 127.5t25.5 128.5t71 103t107 68.5t133.5 25t134 -25t107 -68.5
t71 -103t26 -129.5q0 -68 -26 -127t-71 -102t-107 -67.5t-134 -24.5zM438 844q45 0 82.5 16t65 43.5t43 65.5t15.5 82q0 46 -15.5 85.5t-43.5 68t-65.5 44.5t-82.5 16t-82.5 -16t-65 -44t-43 -67t-15.5 -85q0 -45 15.5 -83.5t43 -66t65.5 -43.5t83 -16z" />
    <glyph glyph-name="ampersand" unicode="&#x26;" horiz-adv-x="1459" 
d="M571 109q99 0 191.5 36.5t169.5 101.5l-386 424q-45 -24 -94 -52t-89 -64.5t-66 -83.5t-26 -108q0 -57 23 -104t63 -80t95 -51.5t119 -18.5zM437 1067q0 -34 13 -66.5t33.5 -63t45.5 -58.5t49 -52q38 18 82.5 40.5t82.5 53t63.5 72t25.5 97.5q0 38 -13 69.5t-37.5 54.5
t-59 35.5t-76.5 12.5q-51 0 -90.5 -15.5t-65.5 -42.5t-39.5 -62.5t-13.5 -74.5zM1346 0h-187l-137 149q-97 -82 -212.5 -128.5t-234.5 -46.5q-98 0 -181.5 28.5t-145 79.5t-96.5 122t-35 156q0 79 30.5 140t79.5 110t109.5 87t120.5 70q-30 27 -61 62t-56 75.5t-41 85
t-16 90.5q0 66 25.5 123t72 98.5t112.5 65t148 23.5q78 0 141.5 -21t108.5 -59.5t69.5 -93.5t24.5 -123q0 -67 -25.5 -119.5t-67.5 -95t-97 -76.5t-114 -64l350 -388q51 66 83.5 142t43.5 160h142q-11 -114 -58 -216.5t-120 -187.5z" />
    <glyph glyph-name="quotesingle" unicode="'" horiz-adv-x="511" 
d="M330 1398l-15 -534q-32 0 -60 -0.5t-60 -0.5l-12 535h147z" />
    <glyph glyph-name="parenleft" unicode="(" horiz-adv-x="687" 
d="M474 1595h161q-83 -72 -147 -173.5t-107 -221.5t-65 -252.5t-22 -266.5q0 -135 21.5 -266.5t64.5 -250t107 -220t148 -177.5h-158q-95 88 -159.5 193.5t-104 222.5t-56.5 242.5t-17 254.5q0 130 17 255.5t56 241.5t103 221.5t158 196.5z" />
    <glyph glyph-name="parenright" unicode=")" horiz-adv-x="687" 
d="M54 1595h161q95 -91 159 -196.5t103 -221.5t56 -241.5t17 -255.5q0 -129 -17 -254.5t-56.5 -242.5t-104 -222.5t-159.5 -193.5h-159q84 76 148 177.5t106.5 220t64.5 250t22 266.5q0 134 -22 266.5t-65 252.5t-107 221.5t-147 173.5z" />
    <glyph glyph-name="asterisk" unicode="*" horiz-adv-x="849" 
d="M181 1303l200 -122l-5 235h100l-5 -232l201 119l50 -87l-207 -113l206 -113l-50 -87l-200 120l5 -231h-100l4 234l-200 -121l-51 87l206 111l-205 113z" />
    <glyph glyph-name="plus" unicode="+" 
d="M635 1080h131v-398h396v-130h-396v-400h-131v400l-394 1v129h394v398z" />
    <glyph glyph-name="comma" unicode="," horiz-adv-x="507" 
d="M81 -197l113 347h153l-150 -347h-116z" />
    <glyph glyph-name="hyphen" unicode="-" horiz-adv-x="763" 
d="M122 417v132h524v-132h-524z" />
    <glyph glyph-name="period" unicode="." horiz-adv-x="506" 
d="M148 81q0 42 29 72t76 30q23 0 42 -8t33 -22t22 -32.5t8 -39.5q0 -42 -29.5 -71.5t-76.5 -29.5q-46 0 -75 29.5t-29 71.5z" />
    <glyph glyph-name="slash" unicode="/" horiz-adv-x="828" 
d="M116 -208h-157l657 1634h156z" />
    <glyph glyph-name="zero" unicode="0" horiz-adv-x="1372" 
d="M703 -29q-139 0 -245 56t-176.5 152t-106.5 224t-36 271q0 149 38 279.5t110.5 227.5t177 153t236.5 56q148 0 255 -59.5t176 -158t101.5 -227t32.5 -266.5q0 -145 -36.5 -274t-107.5 -225.5t-176.5 -152.5t-242.5 -56zM703 106q99 0 175.5 46.5t128.5 125t78.5 182.5
t26.5 219q0 109 -24.5 212.5t-75 184.5t-128 130t-183.5 49q-97 0 -173 -47t-128.5 -126.5t-80 -185t-27.5 -222.5q0 -113 26 -216t77.5 -181t128.5 -124.5t179 -46.5z" />
    <glyph glyph-name="one" unicode="1" horiz-adv-x="722" 
d="M360 0l2 1231l-268 -108v120l289 118h128v-1361h-151z" />
    <glyph glyph-name="two" unicode="2" horiz-adv-x="1159" 
d="M118 0v99l482 429q63 55 114 104t88 98.5t57 102t20 112.5q0 66 -23 120.5t-62.5 93.5t-92.5 60.5t-113 21.5q-58 0 -111 -21t-93.5 -60.5t-64.5 -96.5t-24 -129h-156q0 86 29.5 166t86.5 141.5t140 98.5t189 37q99 0 182 -33t142 -91t92 -136.5t33 -170.5
q0 -73 -21 -134.5t-57.5 -117.5t-87 -109t-110.5 -107l-394 -351q23 2 55 4q27 1 68 2t96 1h472v-134h-936z" />
    <glyph glyph-name="three" unicode="3" horiz-adv-x="1123" 
d="M915 1360v-90l-330 -420q12 -1 23 -1l18 -2t12 -2q82 -5 155 -34.5t128.5 -82t88 -127.5t32.5 -172q0 -96 -36 -179t-99.5 -145t-150.5 -97.5t-190 -35.5q-77 0 -155.5 19.5t-145 65t-114.5 120.5t-63 186h154q15 -72 50 -121t79 -79.5t93.5 -43.5t94.5 -13
q67 0 127 24.5t105 67t71.5 101t26.5 127.5q0 67 -25 122.5t-69 95t-104 61.5t-131 22l-167 1v83l317 415h-582v134h787z" />
    <glyph glyph-name="four" unicode="4" horiz-adv-x="1284" 
d="M820 449v693l-548 -694zM973 316v-316h-153v316l-725 -1l-9 106l722 946h166l-1 -917h239v-134h-239z" />
    <glyph glyph-name="five" unicode="5" horiz-adv-x="1175" 
d="M408 1226l-46 -347h259q101 0 185 -34t144 -94t93.5 -142.5t33.5 -179.5q0 -96 -36 -179t-99.5 -145t-150.5 -97.5t-190 -35.5q-77 0 -155.5 19.5t-145 65t-114.5 120.5t-63 186h154q15 -72 50 -121t79 -79.5t93.5 -43.5t94.5 -13q67 0 127 24.5t105.5 67t72 101
t26.5 127.5q0 67 -25 125.5t-69.5 101.5t-104.5 67.5t-131 24.5l-320 1l-76 65l72 550h710v-135h-573z" />
    <glyph glyph-name="six" unicode="6" horiz-adv-x="1127" 
d="M248 422q0 -67 25.5 -124.5t69 -99.5t101.5 -66t124 -24t123.5 24t101 66t68.5 99.5t25 124.5q0 66 -25 124t-68.5 101t-101 68t-123.5 25q-77 0 -137 -32t-100.5 -79.5t-61.5 -103t-21 -103.5zM96 424q0 51 10.5 97.5t32.5 97t57 109t83 133.5l322 499h182l-365 -555
q42 28 90.5 43.5t103.5 15.5q85 0 162.5 -34.5t136 -94t93 -139.5t34.5 -172q0 -94 -35 -176t-97.5 -143t-149 -96t-189.5 -35q-102 0 -188.5 35t-149.5 96t-98 143t-35 176z" />
    <glyph glyph-name="seven" unicode="7" horiz-adv-x="1115" 
d="M241 0l601 1226h-722v134h909v-88l-620 -1272h-168z" />
    <glyph glyph-name="eight" unicode="8" horiz-adv-x="1175" 
d="M263 388q0 -61 26 -112.5t70.5 -89t104.5 -59t128 -21.5t128 21.5t105 59t71 89t26 112.5q0 62 -26 115t-71 92t-105 61t-128 22t-128 -22t-104.5 -61t-70.5 -92t-26 -115zM341 1033q0 -46 18.5 -86.5t52 -70.5t79.5 -47.5t101 -17.5q54 0 100 17.5t79.5 47.5t52.5 70.5
t19 86.5q0 45 -19.5 85.5t-53 71t-79 48t-98.5 17.5q-54 0 -100 -17.5t-79.5 -48t-53 -71t-19.5 -85.5zM188 1036q0 79 32 144t87 111.5t128.5 72t157.5 25.5q85 0 158.5 -25t128 -70.5t86 -110t31.5 -143.5q0 -49 -15.5 -95.5t-42.5 -85t-64 -67t-79 -41.5
q59 -15 110 -48.5t89 -81.5t59.5 -108.5t21.5 -130.5q0 -88 -35.5 -163.5t-99.5 -130.5t-153 -86t-195 -31q-107 0 -196 31t-153 86t-99.5 130.5t-35.5 163.5q0 70 22 130t60 108t89 81.5t108 50.5q-43 14 -79.5 42t-63.5 65.5t-42 82.5t-15 94z" />
    <glyph glyph-name="nine" unicode="9" horiz-adv-x="1157" 
d="M919 942q0 67 -25.5 124.5t-69 99.5t-101.5 66t-123 24q-66 0 -123.5 -24t-101 -66t-68.5 -99.5t-25 -124.5t25 -125t68.5 -101t101 -67.5t123.5 -24.5q77 0 136.5 32t100 79.5t61.5 103t21 103.5zM1071 940q0 -51 -10.5 -97.5t-32.5 -97t-56.5 -109t-83.5 -133.5
l-324 -503h-182l367 559q-42 -29 -90 -44t-104 -15q-85 0 -162.5 34.5t-136 94t-93 139.5t-34.5 172q0 94 35 176t98 143t149.5 96t189.5 35q102 0 188.5 -35t149 -96t97.5 -143t35 -176z" />
    <glyph glyph-name="colon" unicode=":" horiz-adv-x="506" 
d="M148 75q0 42 29 71.5t76 29.5q46 0 75.5 -29.5t29.5 -71.5t-29.5 -71.5t-76.5 -29.5q-46 0 -75 29.5t-29 71.5zM148 936q0 42 29 71.5t76 29.5q46 0 75.5 -29.5t29.5 -71.5t-29.5 -71.5t-76.5 -29.5q-46 0 -75 29.5t-29 71.5z" />
    <glyph glyph-name="semicolon" unicode=";" horiz-adv-x="506" 
d="M81 -197l113 347h153l-150 -347h-116zM148 936v4q0 7 3 20q0 2 2 8l2 7q13 28 37 45l14 7q11 5 23 7.5t24 2.5h4q24 -1 45 -11l11 -6q22 -16 34 -38l9 -26q0 -2 0.5 -4t0.5 -4q1 -4 1 -12v-4q0 -6 -1 -9q0 -4 -2 -12l-8 -22l-6 -10l-8 -9q-4 -7 -11 -11q-3 -3 -9 -7
l-26 -12l-13 -3q-5 -2 -11 -2h-11h-14q-14 2 -29.5 8t-25.5 16q-11 9 -21 23q-2 3 -3 5.5t-2 5.5l-3 7q-6 17 -6 36z" />
    <glyph glyph-name="less" unicode="&#x3c;" horiz-adv-x="1243" 
d="M171 600l816 384v-149l-633 -288l633 -287v-150l-816 385v105z" />
    <glyph glyph-name="equal" unicode="=" 
d="M241 844h921v-130l-921 1v129zM241 376h921v-130h-921v130z" />
    <glyph glyph-name="greater" unicode="&#x3e;" horiz-adv-x="1244" 
d="M257 954l816 -384v-105l-816 -385v150l633 287l-633 288v149z" />
    <glyph glyph-name="question" unicode="?" horiz-adv-x="924" 
d="M485 388h-139v61q0 53 15 98t39.5 85t57.5 75t69 67q35 32 68.5 61t59.5 58t42 60.5t16 67.5q0 110 -70.5 172t-198.5 62q-126 0 -196.5 -62.5t-70.5 -179.5h-154q0 86 27.5 155.5t81.5 118.5t133.5 76t182.5 27q94 0 171 -26.5t132 -75t85.5 -116t30.5 -150.5
q0 -63 -21 -112.5t-55 -90.5t-76 -75.5t-83 -67.5q-64 -52 -105.5 -107t-41.5 -124v-57zM318 81q0 42 29 72t76 30t76 -30t29 -72t-29 -71.5t-76 -29.5q-46 0 -75.5 29.5t-29.5 71.5z" />
    <glyph glyph-name="at" unicode="@" horiz-adv-x="1919" 
d="M1117 403l36 214q-17 26 -40.5 49t-51.5 40.5t-59 28t-63 10.5q-47 -3 -91.5 -26.5t-79 -65.5t-55.5 -101.5t-22 -134.5q0 -46 12.5 -86t35 -69.5t53.5 -46.5t67 -17t79 19t80.5 48.5t65 66t33.5 71.5zM985 -208l419 2l1 -131l-418 -1q-210 0 -371.5 63t-271 174
t-166 260.5t-56.5 321.5q0 179 67 330.5t184 261.5t275 172t341 62q170 0 317 -52.5t256.5 -147.5t172 -227t62.5 -291q0 -130 -35 -231t-95.5 -171t-141.5 -106.5t-173 -36.5q-45 0 -86.5 12.5t-72 38t-46.5 63.5t-10 89q-24 -39 -62 -69.5t-82.5 -51.5t-91 -32.5
t-88.5 -11.5q-67 0 -117 30t-84 77.5t-51 107t-17 119.5q0 98 28 178.5t75.5 139t109.5 93.5t130 41q38 0 80 -9.5t80.5 -28.5t70.5 -46t51 -62l20 117h149l-82 -515q-7 -46 -1.5 -75.5t20.5 -46t38 -23t49 -6.5q54 0 105 28.5t90.5 82.5t64 131t24.5 173q0 134 -50 242.5
t-138.5 185.5t-209 119t-261.5 42q-150 0 -280.5 -52.5t-227 -145.5t-152.5 -220.5t-56 -277.5q0 -149 51 -275.5t144.5 -219t225.5 -144t293 -50.5z" />
    <glyph glyph-name="A" unicode="A" horiz-adv-x="1352" 
d="M675 1157l-5 -23l-289 -679h588l-288 679zM1329 0h-167l-135 318h-704l-135 -318h-167l578 1360h153z" />
    <glyph glyph-name="B" unicode="B" horiz-adv-x="1302" 
d="M337 639v-503h463q49 0 95 18.5t81 52t56.5 80t21.5 101.5q0 53 -19.5 99t-53.5 80t-80 53t-98 19h-466zM749 1227h-412v-462h412q46 0 87 17.5t72.5 48.5t50 73t18.5 91q0 48 -18.5 90.5t-49.5 74t-72.5 49.5t-87.5 18zM814 0h-634v1360h577q83 0 153 -26t120.5 -73
t79 -112.5t28.5 -144.5q0 -47 -14 -91t-38.5 -81.5t-58 -66.5t-72.5 -46q55 -16 103 -48t83.5 -76.5t56 -99t20.5 -114.5q0 -90 -33.5 -161t-89.5 -119.5t-129 -74.5t-152 -26z" />
    <glyph glyph-name="C" unicode="C" horiz-adv-x="1464" 
d="M1260 300l98 -101q-48 -49 -106 -90.5t-124 -71.5t-140 -46.5t-154 -16.5q-150 0 -282.5 55t-231 151t-155.5 225t-57 276q0 149 57 278t155.5 225t231 151t282.5 55q79 0 152.5 -16t139.5 -45.5t124 -70.5t107 -92l-98 -103q-79 89 -189 139t-236 50q-118 0 -221.5 -44
t-180.5 -121t-122 -181t-45 -225q0 -120 45 -224t122 -180.5t180.5 -120.5t221.5 -44q126 0 236.5 50t189.5 138z" />
    <glyph glyph-name="D" unicode="D" horiz-adv-x="1492" 
d="M337 139h334q134 0 237 37.5t174 107.5t107.5 169.5t36.5 223.5q0 119 -34.5 219t-103.5 172.5t-173 113t-244 40.5h-334v-1083zM180 0v1360h495q155 0 285 -45t224.5 -132t147.5 -213.5t53 -288.5q0 -152 -46.5 -277.5t-136.5 -215t-221.5 -139t-301.5 -49.5h-499z" />
    <glyph glyph-name="E" unicode="E" horiz-adv-x="1167" 
d="M180 0v1360h896v-140h-739v-478h643v-138h-643v-465h748v-139h-905z" />
    <glyph glyph-name="F" unicode="F" horiz-adv-x="1141" 
d="M180 0v1360h896v-140h-739v-507h643v-138h-643v-575h-157z" />
    <glyph glyph-name="G" unicode="G" horiz-adv-x="1573" 
d="M990 546v120h403v-466q-50 -54 -114 -97t-136 -73t-149 -46.5t-153 -16.5q-150 0 -282.5 54.5t-231 150.5t-155.5 226.5t-57 282.5q0 149 57 279t155.5 227t231 153t282.5 56q154 0 287 -57.5t233 -157.5l-112 -97q-78 81 -182.5 127.5t-225.5 46.5q-118 0 -221.5 -45
t-180.5 -123t-122 -183t-45 -226q0 -120 45 -225t122 -182.5t180.5 -122.5t221.5 -45q109 0 213 40t182 109v291h-246z" />
    <glyph glyph-name="H" unicode="H" horiz-adv-x="1488" 
d="M180 0v1360h157v-618h813v618h158v-1360h-158v604h-813v-604h-157z" />
    <glyph glyph-name="I" unicode="I" horiz-adv-x="517" 
d="M180 0v1360h157v-1360h-157z" />
    <glyph glyph-name="J" unicode="J" horiz-adv-x="777" 
d="M46 0v138h136q80 0 135 20.5t88.5 58.5t48 93t14.5 125v925h157v-926q0 -212 -109.5 -323t-334.5 -111h-135z" />
    <glyph glyph-name="K" unicode="K" horiz-adv-x="1304" 
d="M337 1360v-883l725 883h186l-496 -600l529 -760h-190l-441 642l-313 -374v-268h-157v1360h157z" />
    <glyph glyph-name="L" unicode="L" horiz-adv-x="1062" 
d="M180 0v1360h157v-1221h673v-139h-830z" />
    <glyph glyph-name="M" unicode="M" horiz-adv-x="1692" 
d="M868 457h-47l-484 643v-1100h-157v1360h135l530 -698l530 698h137v-1360h-156v1099z" />
    <glyph glyph-name="N" unicode="N" horiz-adv-x="1512" 
d="M1333 1360v-1360h-133l-863 1082v-1082h-157v1360h130l866 -1085v1085h157z" />
    <glyph glyph-name="O" unicode="O" horiz-adv-x="1670" 
d="M108 681q0 149 57 278t155.5 225t231 151t282.5 55t282.5 -55t231.5 -151t156 -225t57 -278q0 -147 -57 -276t-156 -225t-231.5 -151t-282.5 -55t-282.5 55t-231 151t-155.5 225t-57 276zM265 681q0 -120 45 -224t122 -180.5t180.5 -120.5t221.5 -44t222 44t181 120.5
t122 180.5t45 224q0 121 -45 225t-122 181t-181 121t-222 44t-221.5 -44t-180.5 -121t-122 -181t-45 -225z" />
    <glyph glyph-name="P" unicode="P" horiz-adv-x="1239" 
d="M337 618h394q63 0 116.5 23t92.5 63.5t61 95.5t22 119q0 63 -22.5 118.5t-62 96.5t-93.5 64.5t-117 23.5h-391v-604zM737 480h-400v-480h-157v1360h554q98 0 179.5 -33t141 -92t92.5 -139.5t33 -176.5t-33 -176.5t-92 -139t-140 -91t-178 -32.5z" />
    <glyph glyph-name="Q" unicode="Q" horiz-adv-x="1670" 
d="M272 681q0 -120 44.5 -225t121.5 -182.5t180.5 -122.5t221.5 -45q119 0 222.5 45t181 122.5t122 182.5t44.5 225q0 121 -44.5 226t-122 183t-181 123t-222.5 45q-118 0 -221.5 -45t-180.5 -123t-121.5 -183t-44.5 -226zM1662 -141l43 -121q-22 -12 -52 -20t-61.5 -13.5
t-62.5 -7.5t-55 -2q-72 0 -145.5 15.5t-139.5 49.5t-120 88.5t-89 132.5q-70 -14 -140 -14q-150 0 -282 56.5t-231 153.5t-156 227t-57 277q0 149 57 279t156 227t231 153t282 56t282.5 -56t231.5 -153t156.5 -227t57.5 -279q0 -111 -33 -212.5t-92 -187.5t-141.5 -152
t-180.5 -107q27 -58 65.5 -95.5t82.5 -59.5t91.5 -30.5t93.5 -8.5q52 0 105 8t103 23z" />
    <glyph glyph-name="R" unicode="R" horiz-adv-x="1288" 
d="M337 652h415q63 0 116.5 20.5t92.5 57.5t61 89.5t22 116.5q0 63 -22.5 116t-62 90.5t-93.5 58.5t-117 21h-412v-570zM1230 0h-182l-309 514h-402v-514h-157v1360h575q98 0 179.5 -30.5t141 -86t92.5 -133.5t33 -174q0 -76 -21.5 -141.5t-60.5 -117.5t-94 -88.5
t-123 -55.5z" />
    <glyph glyph-name="S" unicode="S" horiz-adv-x="1261" 
d="M64 108l58 133q36 -18 85.5 -40.5t109 -42t128 -33t141.5 -13.5q195 0 293.5 68.5t98.5 198.5q0 65 -30 110t-82.5 76t-123.5 50t-153 33q-49 7 -103 16.5t-107 25.5t-101 40t-85 59t-58.5 84t-21.5 114q0 80 27 153t87 128.5t157 88.5t238 33q75 0 143.5 -13
t129.5 -32.5t114.5 -43.5t98.5 -46l-50 -133q-30 17 -78.5 39t-108.5 42t-127 33.5t-134 13.5q-99 0 -164 -22t-104 -57.5t-55 -80t-16 -90.5q0 -59 28.5 -98.5t79.5 -65.5t122 -41t156 -25q84 -14 169.5 -36.5t155 -66t113 -113.5t43.5 -180q0 -94 -38.5 -169t-111 -126.5
t-176.5 -79t-235 -27.5q-77 0 -149.5 10.5t-138.5 29t-123 43.5t-102 53z" />
    <glyph glyph-name="T" unicode="T" horiz-adv-x="1151" 
d="M498 0v1222h-437v138h1033v-138h-438v-1222h-158z" />
    <glyph glyph-name="U" unicode="U" horiz-adv-x="1416" 
d="M1108 525v836h158v-834q0 -123 -42 -225t-116 -175t-176.5 -113.5t-224.5 -40.5q-118 0 -220 39t-177 111.5t-118 175t-43 228.5v834h156v-833q0 -85 26.5 -160.5t77.5 -132.5t126 -90t172 -33q94 0 168.5 32.5t126 88.5t79 131.5t27.5 160.5z" />
    <glyph glyph-name="V" unicode="V" horiz-adv-x="1361" 
d="M680 206l486 1154h168l-581 -1360h-147l-581 1360h167l487 -1154h1z" />
    <glyph glyph-name="W" unicode="W" horiz-adv-x="2051" 
d="M1383 244l476 1116h167l-581 -1360h-147l-272 638l-273 -638h-147l-581 1360h167l476 -1116l11 -38h1l11 38l251 590l-224 526h166l476 -1116l11 -38h2z" />
    <glyph glyph-name="X" unicode="X" horiz-adv-x="1325" 
d="M259 1360l402 -548l402 548h188l-491 -654l523 -706h-188l-434 598l-434 -598h-188l523 706l-491 654h188z" />
    <glyph glyph-name="Y" unicode="Y" horiz-adv-x="1317" 
d="M1103 1360h188l-554 -837l1 -523h-158v522l-553 838h187l444 -694h2z" />
    <glyph glyph-name="Z" unicode="Z" horiz-adv-x="1252" 
d="M1183 0h-1102l-2 124l856 1098h-812v138h1019v-121l-857 -1101h898v-138z" />
    <glyph glyph-name="bracketleft" unicode="[" horiz-adv-x="664" 
d="M620 -125v-130h-440v1871h440v-130h-291v-1611h291z" />
    <glyph glyph-name="backslash" unicode="\" horiz-adv-x="853" 
d="M865 -202h-157l-656 1635h156z" />
    <glyph glyph-name="bracketright" unicode="]" horiz-adv-x="666" 
d="M46 -255v130h292v1611h-292v130h441v-1871h-441z" />
    <glyph glyph-name="asciicircum" unicode="^" horiz-adv-x="940" 
d="M258 808l-147 12l326 609h58l326 -609l-147 -12l-208 424z" />
    <glyph glyph-name="underscore" unicode="_" horiz-adv-x="975" 
d="M948 -121v-131h-922v131h922z" />
    <glyph glyph-name="grave" unicode="`" horiz-adv-x="479" 
d="M71 1386l118 42l172 -279h-116z" />
    <glyph glyph-name="a" unicode="a" horiz-adv-x="1164" 
d="M479 102q60 0 121.5 15.5t114.5 43.5t92.5 66.5t55.5 84.5v146q-29 0 -65.5 1.5t-74 2.5t-73.5 2t-65 1q-61 0 -123.5 -6.5t-113.5 -25.5t-83.5 -52t-32.5 -86q0 -54 19 -91t52.5 -59.5t78.5 -32.5t97 -10zM1017 0h-128l-14 153q-39 -41 -90.5 -74t-110 -55.5t-121 -34.5
t-123.5 -12q-73 0 -138 18t-113.5 57t-76.5 100t-28 148q0 83 42 136.5t111 85t158 44t183 12.5q29 0 67 -1t78.5 -2t79.5 -2.5t70 -1.5v135q-2 41 -22 79t-59 67t-97.5 46.5t-138.5 17.5q-60 0 -114.5 -15t-95.5 -40.5t-65 -59t-24 -70.5h-156q1 72 38 130t98.5 99
t143 63.5t172.5 22.5q121 0 210 -27.5t147.5 -73.5t87.5 -106t29 -126v-713z" />
    <glyph glyph-name="b" unicode="b" horiz-adv-x="1392" 
d="M1133 509q0 86 -31.5 159.5t-85.5 127t-127 84t-157 30.5t-157 -30.5t-128 -84t-86.5 -127t-31.5 -159.5q0 -87 31.5 -160.5t86 -127.5t128 -84t156.5 -30q84 0 157 30.5t127.5 84t86 127t31.5 160.5zM1288 509q0 -112 -41 -210t-113.5 -171t-172 -115t-217.5 -42
q-68 0 -130 16t-115 43t-97 64t-76 79l-11 -173h-134v1408h154v-558q33 43 76 79t95.5 62t113 40.5t127.5 14.5q118 0 217 -42t171 -114.5t112.5 -170.5t40.5 -210z" />
    <glyph glyph-name="c" unicode="c" horiz-adv-x="1125" 
d="M946 213l96 -100q-83 -73 -179 -107t-193 -34q-114 0 -216.5 40t-179 111t-122 170t-45.5 216q0 112 42.5 210t116.5 170.5t175 114.5t219 42q97 0 196 -33.5t184 -108.5l-95 -99q-54 50 -126.5 77.5t-157.5 27.5q-78 0 -150.5 -28t-127.5 -80.5t-88 -126.5t-33 -166
t33 -166.5t88.5 -126.5t127.5 -80t150 -28q175 0 285 105z" />
    <glyph glyph-name="d" unicode="d" horiz-adv-x="1399" 
d="M258 509q0 -87 31.5 -160.5t86.5 -127t128 -84t157 -30.5q83 0 156.5 30t128 84t86 127.5t31.5 160.5q0 86 -31.5 159.5t-86.5 127t-128 84t-157 30.5t-157 -30.5t-127.5 -84t-86 -127t-31.5 -159.5zM104 509q0 112 40.5 210t112.5 170.5t171 114.5t217 42
q67 0 127.5 -14.5t112.5 -40.5t95.5 -62t76.5 -79v558h154v-1408h-134l-12 179q-32 -44 -76 -82t-97 -66t-114.5 -44t-129.5 -16q-118 0 -217.5 42t-172 115t-113.5 171t-41 210z" />
    <glyph glyph-name="e" unicode="e" horiz-adv-x="1181" 
d="M654 915q-75 0 -142 -26t-120 -72.5t-88.5 -109.5t-46.5 -138h494q105 2 156 45t51 112q0 33 -19 67t-56.5 61t-94.5 44t-134 17zM770 440h-512q12 -73 47.5 -134.5t87.5 -106t118.5 -69.5t139.5 -25q106 0 182 36.5t134 97.5l89 -92q-33 -36 -75.5 -68t-94.5 -56
t-111.5 -38t-125.5 -14q-116 0 -215.5 42.5t-173 115.5t-115 170.5t-41.5 208.5t41.5 208.5t115 171t173.5 116t216 42.5q111 0 196 -27t142.5 -72t87 -103.5t29.5 -121.5q0 -58 -18.5 -109.5t-59 -90t-104 -60.5t-153.5 -22z" />
    <glyph glyph-name="f" unicode="f" horiz-adv-x="767" 
d="M264 0v882h-211v136h211v52q0 69 15 135.5t52.5 118.5t100.5 84t159 32h140v-129h-108q-58 0 -97 -18.5t-63 -51.5t-34 -78t-10 -98v-47h306v-136h-306v-882h-155z" />
    <glyph glyph-name="g" unicode="g" horiz-adv-x="1232" 
d="M287 671q0 -59 25 -110.5t68.5 -89.5t102.5 -60t127 -22q69 0 128 22t102.5 60t68 89.5t24.5 110.5t-24.5 110.5t-68 89t-102.5 59t-128 21.5q-68 0 -127 -21.5t-102.5 -59t-68.5 -89t-25 -110.5zM708 6l-319 -1q-48 0 -84 7q-36 -30 -65 -74t-29 -99q0 -62 32 -103
t86.5 -65t126.5 -34t152 -10q84 0 152.5 17.5t117.5 48t75.5 71t26.5 87.5q0 86 -69 121t-203 34zM1110 1061h108l-1 -113h-78q-39 0 -75 -15.5t-64 -33.5q40 -49 61 -107t21 -122q0 -82 -34.5 -154.5t-97 -126t-149.5 -84.5t-192 -31q-85 0 -157 20t-130 56
q-25 -29 -36.5 -63t-11.5 -63q0 -36 18.5 -56.5t44.5 -30.5t56 -12t54 -2h284q191 0 297 -67.5t106 -198.5q0 -77 -37.5 -142t-106 -112.5t-165 -74t-215.5 -26.5q-111 0 -208.5 18t-170 56.5t-114 99.5t-41.5 147q0 33 11.5 64.5t30 61t42 55t48.5 45.5q-83 52 -83 152
q0 63 31 121.5t74 103.5q-45 51 -69 113t-24 131q0 82 34.5 154.5t96.5 126.5t149 85.5t192 31.5q89 0 165 -22.5t136 -63.5q15 13 35 27t45.5 25.5t55.5 19t64 7.5z" />
    <glyph glyph-name="h" unicode="h" horiz-adv-x="1309" 
d="M1167 559v-559h-155v556q0 96 -22 163.5t-64 109.5t-104 61.5t-143 19.5q-70 0 -132.5 -24t-109.5 -69t-74.5 -109t-27.5 -144v-565h-154v1409h153l-1 -531q29 36 69 67t87.5 53.5t102 35.5t113.5 13q234 0 348 -120t114 -367z" />
    <glyph glyph-name="i" unicode="i" horiz-adv-x="517" 
d="M181 0v1018h155v-1018h-155zM152 1325q0 40 29.5 69t77.5 29t78.5 -29t30.5 -69q0 -42 -30.5 -70t-78.5 -28t-77.5 28.5t-29.5 69.5z" />
    <glyph glyph-name="j" unicode="j" horiz-adv-x="547" 
d="M153 1325q0 40 29.5 69t77.5 29t78 -29t30 -69q0 -42 -30 -70t-78 -28t-77.5 28.5t-29.5 69.5zM181 1018h155v-1036q0 -82 -21 -146.5t-61.5 -109.5t-100.5 -69t-137 -24h-90v136h83q45 0 77.5 15.5t53.5 44t31 67.5t10 87v1035z" />
    <glyph glyph-name="k" unicode="k" horiz-adv-x="1100" 
d="M181 0v1408h154v-991l530 601h183l-379 -433l410 -585h-187l-334 482l-223 -245v-237h-154z" />
    <glyph glyph-name="l" unicode="l" horiz-adv-x="619" 
d="M180 1408h154v-1106q0 -48 5.5 -80t21 -51.5t43 -27.5t72.5 -8h43v-136h-50q-90 0 -146.5 16.5t-88 52.5t-43 93.5t-11.5 139.5v1107z" />
    <glyph glyph-name="m" unicode="m" horiz-adv-x="1971" 
d="M1826 562v-562h-154v556q0 92 -19 159t-54 110.5t-84 64t-110 20.5q-70 0 -129.5 -23.5t-102.5 -68t-67.5 -109t-24.5 -145.5v-564h-155v556q0 92 -19 159t-53.5 110.5t-84 64t-110.5 20.5q-70 0 -129.5 -23.5t-102.5 -68t-67.5 -109t-24.5 -146.5v-563h-154v1018h128
l13 -135q28 35 65 64.5t82 51.5t98 34t113 12q116 0 203.5 -50t138.5 -145q28 41 67.5 76.5t90 62t111.5 41.5t131 15q93 0 168 -30.5t127.5 -91.5t80.5 -151t28 -210z" />
    <glyph glyph-name="n" unicode="n" horiz-adv-x="1309" 
d="M1167 552v-552h-155v550q0 95 -21.5 163t-63.5 112t-102.5 64.5t-138.5 20.5q-73 0 -137 -26.5t-111.5 -75t-75 -116t-27.5 -149.5v-543h-154v1018h128l14 -150q30 38 71.5 70.5t90.5 56.5t105 37.5t115 13.5q234 0 348 -123t114 -371z" />
    <glyph glyph-name="o" unicode="o" horiz-adv-x="1314" 
d="M104 509q0 112 42 210t116.5 170.5t175.5 114.5t219 42t219.5 -42t175.5 -114.5t116.5 -170.5t42.5 -210t-42.5 -210t-116.5 -171t-175.5 -114.5t-220.5 -41.5q-117 0 -218 42t-175.5 114.5t-116.5 170.5t-42 210zM258 509q0 -87 31.5 -160.5t85.5 -127t127 -83.5
t156 -30t156 30t127 83.5t85.5 127t31.5 160.5q0 86 -31.5 159.5t-85.5 127t-127 84t-156 30.5t-156 -30.5t-127 -84t-85.5 -127t-31.5 -159.5z" />
    <glyph glyph-name="p" unicode="p" horiz-adv-x="1392" 
d="M1133 509q0 87 -31.5 160.5t-86 127t-127.5 84t-157 30.5q-83 0 -156.5 -30.5t-128 -84t-86 -127t-31.5 -160.5q0 -86 31.5 -159.5t86.5 -127t128 -84t157 -30.5t157 30.5t127 84t85.5 127t31.5 159.5zM1288 509q0 -112 -40.5 -209.5t-112.5 -170.5t-171 -115t-217 -42
q-67 0 -127.5 14.5t-113 40t-95.5 61.5t-76 78v-514h-154v1366h128l15 -177q32 42 75.5 79.5t97 65.5t116 44t131.5 16q118 0 217.5 -41.5t172 -114.5t113.5 -170.5t41 -210.5z" />
    <glyph glyph-name="q" unicode="q" horiz-adv-x="1403" 
d="M263 509q0 -86 31.5 -159.5t85.5 -127t127.5 -84t157.5 -30.5t157 30.5t127.5 84t86 127t31.5 159.5q0 87 -31.5 160.5t-86 127t-127.5 84t-157 30.5q-83 0 -156.5 -30.5t-128 -84t-86 -127t-31.5 -160.5zM109 510q0 112 40.5 210t113 170.5t172 114.5t217.5 42
q68 0 130 -17.5t115.5 -47t97 -69t75.5 -83.5l16 188h129v-1366h-153l-1 515q-33 -42 -76.5 -78t-95.5 -62t-112 -40.5t-128 -14.5q-118 0 -217 42t-171 115t-112 171t-40 210z" />
    <glyph glyph-name="r" unicode="r" horiz-adv-x="850" 
d="M803 1018v-138h-109q-80 0 -146.5 -24t-114 -71t-74 -117t-26.5 -162v-506h-153v1018h128l16 -170q26 37 62.5 68t82 53.5t100.5 35.5t118 13h116z" />
    <glyph glyph-name="s" unicode="s" horiz-adv-x="1018" 
d="M92 73l48 128q86 -54 172 -76.5t164 -22.5q156 0 234.5 49.5t78.5 131.5q0 45 -22 74.5t-62.5 50t-99 33.5t-131.5 23q-60 8 -125.5 22t-120.5 43.5t-90.5 79.5t-35.5 130q0 61 23 116.5t74 98t133 67.5t200 25q113 0 211 -30t175 -72l-46 -122q-32 17 -70.5 33.5
t-81 30.5t-89 22.5t-94.5 8.5q-79 0 -132.5 -15.5t-86 -40.5t-46.5 -56.5t-14 -63.5q0 -73 74.5 -109.5t222.5 -50.5q67 -9 138 -23.5t129.5 -45.5t96 -83.5t37.5 -136.5q0 -74 -32 -133.5t-92 -101t-146.5 -64t-194.5 -22.5q-111 0 -209.5 23t-189.5 79z" />
    <glyph glyph-name="t" unicode="t" horiz-adv-x="856" 
d="M220 1031l40 286h117v-299h367v-136h-367v-498q0 -80 18.5 -132.5t49.5 -83t72 -43t85 -12.5h180l-1 -130h-192q-78 0 -144.5 19.5t-115.5 66t-77 123t-28 191.5v499h-182v124z" />
    <glyph glyph-name="u" unicode="u" horiz-adv-x="1266" 
d="M633 108q161 0 247 92t86 285v533h155v-538q0 -130 -34 -225.5t-97.5 -158.5t-154 -93.5t-202.5 -30.5t-202.5 30.5t-154 93.5t-97.5 158.5t-34 225.5v538h155v-533q0 -192 84 -284.5t249 -92.5z" />
    <glyph glyph-name="v" unicode="v" horiz-adv-x="1084" 
d="M890 1018h166l-441 -1018h-143l-440 1018h165l346 -816z" />
    <glyph glyph-name="w" unicode="w" horiz-adv-x="1713" 
d="M1515 1018h166l-428 -1018h-145l-258 588l-246 -588h-144l-428 1018h166l323 -781l10 -36h2l10 36l231 524l-112 257h165l343 -781l9 -36h3l9 36z" />
    <glyph glyph-name="x" unicode="x" horiz-adv-x="1076" 
d="M61 1018h186l291 -394l292 394h184l-372 -500l381 -518h-187l-299 406l-300 -406h-183l380 518z" />
    <glyph glyph-name="y" unicode="y" horiz-adv-x="1087" 
d="M914 1018h165l-435 -989q-45 -106 -81.5 -178t-78 -115.5t-94 -62.5t-130.5 -19h-167l-1 130h180q39 0 66.5 16t50 46.5t42.5 75.5t45 104l-434 992h170l343 -790l5 -32z" />
    <glyph glyph-name="z" unicode="z" horiz-adv-x="1002" 
d="M67 0v103l635 781h-604v134h821v-104l-634 -779h659v-135h-877z" />
    <glyph glyph-name="braceleft" unicode="{" horiz-adv-x="680" 
d="M240 679q80 -45 121 -125.5t41 -181.5v-225q0 -91 4 -144t24 -81.5t62 -39t118 -17.5l-1 -127q-113 2 -183 25.5t-108.5 70.5t-51.5 120.5t-13 176.5v215q0 119 -44.5 184t-138.5 87v125q98 26 140.5 93t42.5 178v215q0 103 13 176.5t51.5 121t108.5 70.5t183 25l1 -127
q-63 -6 -103.5 -13.5t-63.5 -26.5t-32 -53t-9 -92v-322q0 -114 -44.5 -190t-117.5 -118z" />
    <glyph glyph-name="bar" unicode="|" horiz-adv-x="501" 
d="M176 -356v1947h149v-1947h-149z" />
    <glyph glyph-name="braceright" unicode="}" horiz-adv-x="680" 
d="M434 679q-73 42 -118 118t-45 190v322q0 58 -8.5 92t-32 53t-63.5 26.5t-103 13.5l1 127q113 -2 182.5 -25t108 -70.5t52 -121t13.5 -176.5v-215q-1 -111 41.5 -178t140.5 -93v-125q-94 -22 -138.5 -87t-43.5 -184v-215q0 -103 -13.5 -176.5t-52 -120.5t-108 -70.5
t-182.5 -25.5l-1 127q76 7 117.5 17.5t61.5 39t24 81.5t4 144v225q0 101 41 181.5t122 125.5z" />
    <glyph glyph-name="asciitilde" unicode="~" horiz-adv-x="1243" 
d="M1066 718l33 -114q-48 -47 -114.5 -77.5t-145.5 -30.5q-62 0 -117.5 18t-109 39.5t-105.5 39.5t-108 18q-63 0 -119 -24t-104 -69l-32 115q48 47 113.5 77t139.5 30q64 0 120.5 -17.5t109.5 -39t104.5 -39t105.5 -17.5q72 0 126.5 23.5t102.5 67.5z" />
    <glyph glyph-name="uni00A0" unicode="&#xa0;" horiz-adv-x="0" 
 />
    <glyph glyph-name="exclamdown" unicode="&#xa1;" horiz-adv-x="513" 
d="M198 621h116l19 -280v-693h-153v693zM153 927q0 42 29 71.5t75 29.5q48 0 77 -29.5t29 -71.5t-29 -72t-77 -30q-46 0 -75 30t-29 72z" />
    <glyph glyph-name="cent" unicode="&#xa2;" horiz-adv-x="1241" 
d="M609 -183v159q-107 11 -198 56.5t-157 116.5t-103.5 163t-37.5 197t37.5 198t103.5 164t157 116.5t198 55.5v172h147v-176q76 -12 150 -45t140 -90l-96 -99q-54 50 -126 77.5t-157 27.5q-78 0 -150.5 -28t-128 -80.5t-88.5 -126.5t-33 -166t33.5 -166.5t89 -126.5
t127.5 -80t150 -28q174 0 284 105l96 -100q-66 -59 -140.5 -91.5t-151.5 -43.5v-161h-146z" />
    <glyph glyph-name="sterling" unicode="&#xa3;" horiz-adv-x="1184" 
d="M225 684h139q-7 58 -21 103.5t-27.5 87.5t-23.5 84.5t-10 93.5q0 83 28.5 146t80 105t123.5 63.5t158 21.5q33 0 74.5 -8.5t84 -27t83 -48t72 -72.5t50.5 -99.5t19 -129.5h-152q0 63 -24 110.5t-59 79t-73.5 47t-68.5 15.5q-109 0 -174 -54.5t-65 -158.5q0 -47 10 -87.5
t23 -81.5t26 -86.5t19 -103.5h330l1 -132h-329q-6 -61 -26.5 -126t-50 -123t-63.5 -103t-67 -66h794v-134h-997v109q53 29 97 80t78 112t55 127t27 125h-141v131z" />
    <glyph glyph-name="currency" unicode="&#xa4;" horiz-adv-x="1303" 
d="M280 618q0 -81 29.5 -150.5t80 -121t118.5 -80.5t145 -29q78 0 145.5 29t118 80.5t79.5 121t29 150.5t-29 150.5t-79.5 121t-118.5 81t-146 29.5q-77 0 -145 -29.5t-118.5 -80.5t-79.5 -121t-29 -151zM130 618q0 86 26.5 164t75.5 143l-119 118l111 112l120 -120
q64 45 141.5 70.5t165.5 25.5t164.5 -25t140.5 -70l120 119l110 -112l-116 -116q49 -65 76 -143.5t27 -165.5q0 -88 -27 -166t-76 -143l116 -116l-111 -112l-118 119q-64 -45 -141 -69.5t-165 -24.5t-165 25t-141 70l-121 -120l-110 112l118 118q-49 64 -75.5 142t-26.5 165
z" />
    <glyph glyph-name="yen" unicode="&#xa5;" horiz-adv-x="1231" 
d="M1085 690v-118h-938v117h349l-442 671h174l387 -602l387 602h175l-442 -671zM147 380h938v-116h-395v-264l-149 1v263h-394v116z" />
    <glyph glyph-name="brokenbar" unicode="&#xa6;" horiz-adv-x="502" 
d="M326 1591v-815h-150v815h150zM176 -356v815h150v-815h-150z" />
    <glyph glyph-name="section" unicode="&#xa7;" horiz-adv-x="1241" 
d="M303 460q0 -63 32 -108.5t83 -75.5t114 -47t124 -25q56 1 107 18.5t90 50.5t62 82t23 112q0 65 -32.5 109.5t-83.5 74t-113.5 46.5t-123.5 25q-56 0 -107 -17.5t-90 -50.5t-62 -82t-23 -112zM1070 1380l-72 -126q-33 20 -71 38.5t-81.5 32.5t-90.5 22.5t-98 8.5
q-57 0 -109 -13t-92 -41t-64 -70t-24 -101q0 -63 27 -106.5t71.5 -74t102.5 -52t119 -41.5q76 -24 149.5 -55t131 -76t92.5 -108t35 -152q0 -74 -24 -135t-66 -107t-98 -75t-121 -40q36 -19 70 -41t62.5 -49t51 -59.5t35.5 -72.5q18 -59 13 -130q-6 -81 -42 -141.5
t-94.5 -101.5t-135 -61.5t-164.5 -20.5q-117 0 -216 30.5t-196 84.5l72 126q33 -20 71 -38.5t81 -33t90.5 -23t98.5 -8.5q56 0 108.5 13t92.5 41t64 70.5t24 101.5q0 63 -27 106.5t-71.5 74t-102.5 52t-120 41.5q-76 24 -149 55t-130.5 76t-92.5 108t-35 151q0 74 24 135.5
t65.5 107.5t97.5 75.5t120 39.5q-36 19 -69.5 41t-62 49t-50.5 59.5t-35 72.5q-17 58 -13 130q7 81 43 141.5t94 101.5t134.5 61.5t164.5 20.5q116 0 215.5 -30.5t196.5 -84.5z" />
    <glyph glyph-name="dieresis" unicode="&#xa8;" horiz-adv-x="868" 
d="M195 1268q0 34 25 57.5t63 23.5q40 0 64.5 -23.5t24.5 -57.5q0 -33 -24.5 -56t-64.5 -23q-39 0 -63.5 23t-24.5 56zM526 1268q0 34 24.5 57.5t62.5 23.5q41 0 65 -23.5t24 -57.5q0 -33 -24.5 -56t-64.5 -23q-39 0 -63 23t-24 56z" />
    <glyph glyph-name="copyright" unicode="&#xa9;" horiz-adv-x="1663" 
d="M205 681q0 -133 49 -247.5t134 -197.5t199 -130.5t244 -47.5q131 0 245 47.5t199.5 130.5t134.5 197.5t49 247.5q0 134 -49 248.5t-134.5 198t-199.5 131t-245 47.5q-130 0 -244 -47.5t-199 -131t-134 -198t-49 -248.5zM1048 364l64 -63q-57 -44 -121.5 -69.5
t-158.5 -25.5q-102 0 -190 37.5t-153 102t-102 151t-37 184.5t37 185t101.5 152t153 102.5t190.5 37.5q98 0 164 -31t115 -78l-68 -59q-1 3 -16 15t-41 25.5t-64 24.5t-86 11q-79 0 -147.5 -29.5t-119.5 -81.5t-80.5 -122.5t-29.5 -151.5t29.5 -151t80.5 -121.5t120 -81.5
t147 -30q52 0 91 10t67 24q31 14 54 33zM105 681q0 149 56 279t154 227t230.5 153t285.5 56t285.5 -56t230.5 -153t154.5 -227t56.5 -279q0 -147 -56.5 -277t-154.5 -227t-230.5 -153.5t-285.5 -56.5t-285.5 56.5t-230.5 153.5t-154 227t-56 277z" />
    <glyph glyph-name="ordfeminine" unicode="&#xaa;" horiz-adv-x="950" 
d="M221 1033q0 -54 19 -97t51.5 -72.5t76 -45t93.5 -15.5t93.5 17t76 48t51 73t18.5 92q0 49 -19 90.5t-51.5 72t-76 47.5t-93.5 17t-93.5 -15.5t-76 -44.5t-51 -71t-18.5 -96zM85 1032q0 76 26 140t73.5 110t114 71.5t147.5 25.5q42 0 79.5 -10.5t70.5 -28t60.5 -40.5
t48.5 -48l17 104h110v-649h-110l-18 104q-21 -25 -48.5 -48t-60.5 -40t-71 -27.5t-79 -10.5q-80 0 -146.5 25.5t-114 71.5t-73.5 110t-26 140z" />
    <glyph glyph-name="guillemotleft" unicode="&#xab;" horiz-adv-x="1192" 
d="M565 119h-164l-275 363l275 362h164l-275 -362zM1041 119h-163l-275 363l275 362h164l-276 -362z" />
    <glyph glyph-name="logicalnot" unicode="&#xac;" horiz-adv-x="1187" 
d="M149 561v131h887v-437h-150v306h-737z" />
    <glyph glyph-name="uni00AD" unicode="&#xad;" horiz-adv-x="734" 
d="M149 417v132h435v-132h-435z" />
    <glyph glyph-name="registered" unicode="&#xae;" horiz-adv-x="1663" 
d="M205 681q0 -133 49 -247.5t134 -197.5t199 -130.5t244 -47.5q131 0 245 47.5t199.5 130.5t134.5 197.5t49 247.5q0 134 -49 248.5t-134.5 198t-199.5 131t-245 47.5q-130 0 -244 -47.5t-199 -131t-134 -198t-49 -248.5zM638 667h248q40 0 75 15.5t60.5 41.5t40 62
t14.5 76t-14.5 75.5t-40.5 62.5t-60.5 42.5t-75.5 15.5h-247v-391zM105 681q0 149 56 279t154 227t230.5 153t285.5 56t285.5 -56t230.5 -153t154.5 -227t56.5 -279q0 -147 -56.5 -277t-154.5 -227t-230.5 -153.5t-285.5 -56.5t-285.5 56.5t-230.5 153.5t-154 227t-56 277z
M911 577h-273v-352h-107v923h361q61 0 114 -22t92.5 -60.5t62 -90.5t22.5 -113q0 -45 -12.5 -85.5t-35 -74t-54 -59.5t-69.5 -42l188 -376h-115z" />
    <glyph glyph-name="macron" unicode="&#xaf;" horiz-adv-x="840" 
d="M157 1196v99h550v-99h-550z" />
    <glyph glyph-name="degree" unicode="&#xb0;" horiz-adv-x="782" 
d="M90 1124q0 62 23.5 117t64.5 96t96 64.5t117 23.5t117 -23.5t96 -64.5t64.5 -96t23.5 -117t-23.5 -116.5t-64.5 -95.5t-96 -64.5t-117 -23.5t-117 23.5t-96 64.5t-64.5 95.5t-23.5 116.5zM208 1124q0 -38 14.5 -71t39 -58t58 -39t71.5 -14t71.5 14t58 39t39 58t14.5 71
t-14.5 71t-39 58t-58 39t-71.5 14t-71.5 -14t-58 -39t-39 -58t-14.5 -71z" />
    <glyph glyph-name="plusminus" unicode="&#xb1;" horiz-adv-x="1185" 
d="M142 155h920v-130l-920 1v129zM533 1180h131l1 -398h395v-130h-395v-400h-132v400l-393 1v129h393v398z" />
    <glyph glyph-name="uni00B2" unicode="&#xb2;" horiz-adv-x="800" 
d="M77 726v79l310 261q42 35 76.5 66t58.5 62t37 63.5t13 69.5q0 38 -13.5 69.5t-37 54t-55.5 34.5t-69 12q-35 0 -67 -12t-56 -35t-38.5 -56t-14.5 -75h-131q0 52 18.5 103.5t56 93t95 67t134.5 25.5q70 0 127 -21.5t97 -59.5t61.5 -89.5t21.5 -110.5q0 -91 -49 -162
t-132 -133l-236 -201q15 2 35 3q18 1 43.5 2t59.5 1h295v-111h-640z" />
    <glyph glyph-name="uni00B3" unicode="&#xb3;" horiz-adv-x="771" 
d="M645 1595v-64l-209 -260q8 0 15 -1q6 -1 12 -1.5t9 -2.5q51 -4 98 -22t82.5 -51t57 -81t21.5 -111q0 -62 -24.5 -116t-68 -93.5t-102.5 -62t-128 -22.5q-56 0 -111 13t-100 43t-76 80t-40 124h130q8 -41 28 -69t46.5 -45.5t57 -25.5t58.5 -8q42 0 78.5 13.5t63.5 37.5
t43 57t16 72q0 38 -15 69.5t-41.5 54t-63 35t-80.5 12.5l-124 1v69l204 248l-374 -4v111h537z" />
    <glyph glyph-name="acute" unicode="&#xb4;" horiz-adv-x="479" 
d="M222 1428l118 -42l-175 -237h-115z" />
    <glyph glyph-name="mu" unicode="&#xb5;" horiz-adv-x="1331" 
d="M1167 1017v-559q0 -247 -114 -367t-348 -120q-59 0 -113.5 13t-102 35.5t-87.5 53.5t-69 67v-484h-152v1362h153v-566q0 -80 27.5 -144t74.5 -108.5t109.5 -68.5t132.5 -24q81 0 143 19.5t104.5 61.5t64 109.5t21.5 163.5v556h156z" />
    <glyph glyph-name="paragraph" unicode="&#xb6;" horiz-adv-x="1267" 
d="M752 -192h-128v760h-142q-87 0 -163.5 31.5t-133 87t-89.5 131.5t-33 164t33 163.5t90 131t134 87.5t165 32h267v-1588zM972 -192v1588h129v-1h86v-129h-86v-1458h-129z" />
    <glyph glyph-name="periodcentered" unicode="&#xb7;" horiz-adv-x="507" 
d="M148 480q0 42 29 71.5t76 29.5q46 0 75.5 -29.5t29.5 -71.5t-29.5 -71.5t-75.5 -29.5q-47 0 -76 29.5t-29 71.5z" />
    <glyph glyph-name="cedilla" unicode="&#xb8;" horiz-adv-x="422" 
d="M194 -171l73 198l86 -2l-49 -125q32 -8 59.5 -22t48 -35.5t32.5 -51t12 -67.5q0 -47 -20 -88t-52 -71t-72.5 -47t-82.5 -17t-78.5 6t-65.5 25l33 87q46 -20 100 -20q21 0 43 9.5t40.5 26t30 39t11.5 47.5q0 31 -14 52t-35.5 33.5t-48 17.5t-51.5 5z" />
    <glyph glyph-name="uni00B9" unicode="&#xb9;" horiz-adv-x="511" 
d="M242 726l1 764l-172 -64l-2 94l193 75h106v-869h-126z" />
    <glyph glyph-name="ordmasculine" unicode="&#xba;" horiz-adv-x="926" 
d="M89 1032q0 76 28 139.5t78 109t118 70.5t149 25t149.5 -25t119 -70.5t78.5 -109t28 -139.5q0 -77 -28 -140.5t-78.5 -108.5t-119.5 -70t-150 -25q-80 0 -148.5 25t-118 70.5t-77.5 109t-28 139.5zM226 1033q0 -54 18.5 -96.5t50.5 -71t75.5 -43.5t92.5 -15q50 0 93 15
t75 43.5t50.5 71t18.5 96.5t-18.5 95.5t-50.5 70t-75.5 43.5t-93.5 15q-49 0 -92 -15t-75 -43.5t-50.5 -70t-18.5 -95.5z" />
    <glyph glyph-name="guillemotright" unicode="&#xbb;" horiz-adv-x="1184" 
d="M800 119h-163l275 363l-276 362h164l275 -362zM323 119h-163l275 363l-275 362h163l276 -362z" />
    <glyph glyph-name="onequarter" unicode="&#xbc;" horiz-adv-x="919" 
d="M518 -35l2 402l-333 -404zM645 -146v-193h-128v193l-468 -1l-8 87l463 594l142 -12l-1 -557h152v-111h-152zM843 617h-776v115h776v-115zM511 832h-126l1 764l-172 -64l-2 94l193 75h106v-869z" />
    <glyph glyph-name="onehalf" unicode="&#xbd;" horiz-adv-x="919" 
d="M67 617v115h776v-115h-776zM385 832l1 764l-172 -64l-2 94l193 75h106v-869h-126zM130 -347v79l310 261q42 35 76.5 66t58.5 62t37 63.5t13 69.5q0 38 -13.5 69.5t-37 54t-55.5 34.5t-69 12q-35 0 -67 -12t-56 -35t-38.5 -56t-14.5 -75h-131q0 52 18.5 103.5t56 93t95 67
t134.5 25.5q70 0 127 -21.5t97 -59.5t61.5 -89.5t21.5 -110.5q0 -91 -49 -162t-132 -133l-236 -201q15 2 35 3q18 1 43.5 2t59.5 1h295v-111h-640z" />
    <glyph glyph-name="questiondown" unicode="&#xbf;" horiz-adv-x="924" 
d="M431 627h139v-60q0 -53 -15 -98t-39.5 -85t-57.5 -75t-69 -68q-35 -32 -68.5 -60.5t-59.5 -58t-42 -60.5t-16 -67q0 -110 70.5 -172t198.5 -62q126 0 196.5 62.5t70.5 179.5h154q0 -86 -27.5 -155.5t-81.5 -118.5t-133.5 -76t-182.5 -27q-94 0 -171 26.5t-132 74.5
t-85.5 116t-30.5 151q0 63 21.5 112.5t55 90t75.5 75t83 68.5q65 53 106 107.5t41 123.5v56zM598 935q0 -42 -29 -72t-76 -30q-46 0 -75.5 30t-29.5 72t29.5 71.5t75.5 29.5t75.5 -29.5t29.5 -71.5z" />
    <glyph glyph-name="Agrave" unicode="&#xc0;" horiz-adv-x="1352" 
d="M440 1788l118 42l172 -279h-116zM675 1157l-5 -23l-289 -679h588l-288 679zM1329 0h-167l-135 318h-704l-135 -318h-167l578 1360h153z" />
    <glyph glyph-name="Aacute" unicode="&#xc1;" horiz-adv-x="1352" 
d="M812 1774l118 -42l-175 -237h-115zM675 1157l-5 -23l-289 -679h588l-288 679zM1329 0h-167l-135 318h-704l-135 -318h-167l578 1360h153z" />
    <glyph glyph-name="Acircumflex" unicode="&#xc2;" horiz-adv-x="1352" 
d="M673 1827l300 -205l-55 -86l-244 167l-244 -167l-56 86zM675 1157l-5 -23l-289 -679h588l-288 679zM1329 0h-167l-135 318h-704l-135 -318h-167l578 1360h153z" />
    <glyph glyph-name="Atilde" unicode="&#xc3;" horiz-adv-x="1352" 
d="M935 1751l72 -50q-45 -82 -99 -121.5t-118 -39.5q-43 0 -81 11.5t-72.5 26t-65 26t-57.5 11.5q-26 0 -51.5 -13.5t-49.5 -53.5l-70 50q30 57 75.5 90.5t105.5 33.5q10 0 20 -1t21 -3q33 -6 62.5 -17t57.5 -22.5t54.5 -20t52.5 -8.5q37 0 72.5 22t70.5 79zM675 1157
l-5 -23l-289 -679h588l-288 679zM1329 0h-167l-135 318h-704l-135 -318h-167l578 1360h153z" />
    <glyph glyph-name="Adieresis" unicode="&#xc4;" horiz-adv-x="1352" 
d="M421 1670q0 34 25 57.5t63 23.5q40 0 64.5 -23.5t24.5 -57.5q0 -33 -24.5 -56t-64.5 -23q-39 0 -63.5 23t-24.5 56zM752 1670q0 34 24.5 57.5t62.5 23.5q41 0 65 -23.5t24 -57.5q0 -33 -24.5 -56t-64.5 -23q-39 0 -63 23t-24 56zM675 1157l-5 -23l-289 -679h588l-288 679
zM1329 0h-167l-135 318h-704l-135 -318h-167l578 1360h153z" />
    <glyph glyph-name="Aring" unicode="&#xc5;" horiz-adv-x="1352" 
d="M474 1689q0 40 15 74.5t41.5 60t63.5 40t80 14.5q45 0 82 -14.5t63.5 -40t41 -60t14.5 -74.5q0 -38 -14.5 -71.5t-41 -58.5t-63.5 -39.5t-82 -14.5q-44 0 -80.5 14.5t-63 39.5t-41.5 58.5t-15 71.5zM570 1688q0 -20 8 -38t22 -31.5t33 -21.5t41 -8q47 0 76.5 29.5
t29.5 69.5q0 45 -29 75t-77 30q-45 0 -74.5 -30t-29.5 -75zM675 1157l-5 -23l-289 -679h588l-288 679zM1329 0h-167l-135 318h-704l-135 -318h-167l578 1360h153z" />
    <glyph glyph-name="AE" unicode="&#xc6;" horiz-adv-x="1986" 
d="M993 1151l-19 -37l-459 -660h478v697zM1898 0h-905v317h-573l-220 -317h-183l933 1360h939v-140h-739v-459h643v-138h-643v-484h748v-139z" />
    <glyph glyph-name="Ccedilla" unicode="&#xc7;" horiz-adv-x="1464" 
d="M750 -183l73 198l86 -2l-49 -125q32 -8 59.5 -22t48 -35.5t32.5 -51t12 -67.5q0 -47 -20 -88t-52 -71t-72.5 -47t-82.5 -17t-78.5 6t-65.5 25l33 87q46 -20 100 -20q21 0 43 9.5t40.5 26t30 39t11.5 47.5q0 31 -14 52t-35.5 33.5t-48 17.5t-51.5 5zM1260 300l98 -101
q-48 -49 -106 -90.5t-124 -71.5t-140 -46.5t-154 -16.5q-150 0 -282.5 55t-231 151t-155.5 225t-57 276q0 149 57 278t155.5 225t231 151t282.5 55q79 0 152.5 -16t139.5 -45.5t124 -70.5t107 -92l-98 -103q-79 89 -189 139t-236 50q-118 0 -221.5 -44t-180.5 -121
t-122 -181t-45 -225q0 -120 45 -224t122 -180.5t180.5 -120.5t221.5 -44q126 0 236.5 50t189.5 138z" />
    <glyph glyph-name="Egrave" unicode="&#xc8;" horiz-adv-x="1167" 
d="M427 1788l118 42l172 -279h-116zM180 0v1360h896v-140h-739v-478h643v-138h-643v-465h748v-139h-905z" />
    <glyph glyph-name="Eacute" unicode="&#xc9;" horiz-adv-x="1167" 
d="M753 1830l118 -42l-175 -237h-115zM180 0v1360h896v-140h-739v-478h643v-138h-643v-465h748v-139h-905z" />
    <glyph glyph-name="Ecircumflex" unicode="&#xca;" horiz-adv-x="1167" 
d="M635 1827l300 -205l-55 -86l-244 167l-244 -167l-56 86zM180 0v1360h896v-140h-739v-478h643v-138h-643v-465h748v-139h-905z" />
    <glyph glyph-name="Edieresis" unicode="&#xcb;" horiz-adv-x="1167" 
d="M393 1670q0 34 25 57.5t63 23.5q40 0 64.5 -23.5t24.5 -57.5q0 -33 -24.5 -56t-64.5 -23q-39 0 -63.5 23t-24.5 56zM724 1670q0 34 24.5 57.5t62.5 23.5q41 0 65 -23.5t24 -57.5q0 -33 -24.5 -56t-64.5 -23q-39 0 -63 23t-24 56zM180 0v1360h896v-140h-739v-478h643v-138
h-643v-465h748v-139h-905z" />
    <glyph glyph-name="Igrave" unicode="&#xcc;" horiz-adv-x="517" 
d="M27 1788l118 42l172 -279h-116zM180 0v1360h157v-1360h-157z" />
    <glyph glyph-name="Iacute" unicode="&#xcd;" horiz-adv-x="517" 
d="M379 1830l118 -42l-175 -237h-115zM180 0v1360h157v-1360h-157z" />
    <glyph glyph-name="Icircumflex" unicode="&#xce;" horiz-adv-x="517" 
d="M260 1827l300 -205l-55 -86l-244 167l-244 -167l-56 86zM180 0v1360h157v-1360h-157z" />
    <glyph glyph-name="Idieresis" unicode="&#xcf;" horiz-adv-x="517" 
d="M8 1670q0 34 25 57.5t63 23.5q40 0 64.5 -23.5t24.5 -57.5q0 -33 -24.5 -56t-64.5 -23q-39 0 -63.5 23t-24.5 56zM339 1670q0 34 24.5 57.5t62.5 23.5q41 0 65 -23.5t24 -57.5q0 -33 -24.5 -56t-64.5 -23q-39 0 -63 23t-24 56zM180 0v1360h157v-1360h-157z" />
    <glyph glyph-name="Eth" unicode="&#xd0;" horiz-adv-x="1478" 
d="M-1 613v111h185v636h496q155 0 285 -45t224.5 -132t147.5 -213.5t53 -288.5q0 -152 -46.5 -277.5t-136.5 -215t-221.5 -139t-301.5 -49.5h-500v613h-185zM342 139h334q134 0 237 37.5t174 107.5t107.5 169.5t36.5 223.5q0 119 -34.5 219t-103.5 172.5t-173 113t-244 40.5
h-334v-498h200v-111h-200v-474z" />
    <glyph glyph-name="Ntilde" unicode="&#xd1;" horiz-adv-x="1512" 
d="M1021 1739l72 -50q-45 -82 -99 -121.5t-118 -39.5q-43 0 -81 11.5t-72.5 26t-65 26t-57.5 11.5q-26 0 -51.5 -13.5t-49.5 -53.5l-70 50q30 57 75.5 90.5t105.5 33.5q10 0 20 -1t21 -3q33 -6 62.5 -17t57.5 -22.5t54.5 -20t52.5 -8.5q37 0 72.5 22t70.5 79zM1333 1360
v-1360h-133l-863 1082v-1082h-157v1360h130l866 -1085v1085h157z" />
    <glyph glyph-name="Ograve" unicode="&#xd2;" horiz-adv-x="1670" 
d="M570 1788l118 42l172 -279h-116zM108 681q0 149 57 278t155.5 225t231 151t282.5 55t282.5 -55t231.5 -151t156 -225t57 -278q0 -147 -57 -276t-156 -225t-231.5 -151t-282.5 -55t-282.5 55t-231 151t-155.5 225t-57 276zM265 681q0 -120 45 -224t122 -180.5
t180.5 -120.5t221.5 -44t222 44t181 120.5t122 180.5t45 224q0 121 -45 225t-122 181t-181 121t-222 44t-221.5 -44t-180.5 -121t-122 -181t-45 -225z" />
    <glyph glyph-name="Oacute" unicode="&#xd3;" horiz-adv-x="1670" 
d="M923 1830l118 -42l-175 -237h-115zM108 681q0 149 57 278t155.5 225t231 151t282.5 55t282.5 -55t231.5 -151t156 -225t57 -278q0 -147 -57 -276t-156 -225t-231.5 -151t-282.5 -55t-282.5 55t-231 151t-155.5 225t-57 276zM265 681q0 -120 45 -224t122 -180.5
t180.5 -120.5t221.5 -44t222 44t181 120.5t122 180.5t45 224q0 121 -45 225t-122 181t-181 121t-222 44t-221.5 -44t-180.5 -121t-122 -181t-45 -225z" />
    <glyph glyph-name="Ocircumflex" unicode="&#xd4;" horiz-adv-x="1670" 
d="M819 1842l300 -205l-55 -86l-244 167l-244 -167l-56 86zM108 681q0 149 57 278t155.5 225t231 151t282.5 55t282.5 -55t231.5 -151t156 -225t57 -278q0 -147 -57 -276t-156 -225t-231.5 -151t-282.5 -55t-282.5 55t-231 151t-155.5 225t-57 276zM265 681q0 -120 45 -224
t122 -180.5t180.5 -120.5t221.5 -44t222 44t181 120.5t122 180.5t45 224q0 121 -45 225t-122 181t-181 121t-222 44t-221.5 -44t-180.5 -121t-122 -181t-45 -225z" />
    <glyph glyph-name="Otilde" unicode="&#xd5;" horiz-adv-x="1670" 
d="M1101 1751l72 -50q-45 -82 -99 -121.5t-118 -39.5q-43 0 -81 11.5t-72.5 26t-65 26t-57.5 11.5q-26 0 -51.5 -13.5t-49.5 -53.5l-70 50q30 57 75.5 90.5t105.5 33.5q10 0 20 -1t21 -3q33 -6 62.5 -17t57.5 -22.5t54.5 -20t52.5 -8.5q37 0 72.5 22t70.5 79zM108 681
q0 149 57 278t155.5 225t231 151t282.5 55t282.5 -55t231.5 -151t156 -225t57 -278q0 -147 -57 -276t-156 -225t-231.5 -151t-282.5 -55t-282.5 55t-231 151t-155.5 225t-57 276zM265 681q0 -120 45 -224t122 -180.5t180.5 -120.5t221.5 -44t222 44t181 120.5t122 180.5
t45 224q0 121 -45 225t-122 181t-181 121t-222 44t-221.5 -44t-180.5 -121t-122 -181t-45 -225z" />
    <glyph glyph-name="Odieresis" unicode="&#xd6;" horiz-adv-x="1670" 
d="M548 1670q0 34 25 57.5t63 23.5q40 0 64.5 -23.5t24.5 -57.5q0 -33 -24.5 -56t-64.5 -23q-39 0 -63.5 23t-24.5 56zM879 1670q0 34 24.5 57.5t62.5 23.5q41 0 65 -23.5t24 -57.5q0 -33 -24.5 -56t-64.5 -23q-39 0 -63 23t-24 56zM108 681q0 149 57 278t155.5 225t231 151
t282.5 55t282.5 -55t231.5 -151t156 -225t57 -278q0 -147 -57 -276t-156 -225t-231.5 -151t-282.5 -55t-282.5 55t-231 151t-155.5 225t-57 276zM265 681q0 -120 45 -224t122 -180.5t180.5 -120.5t221.5 -44t222 44t181 120.5t122 180.5t45 224q0 121 -45 225t-122 181
t-181 121t-222 44t-221.5 -44t-180.5 -121t-122 -181t-45 -225z" />
    <glyph glyph-name="multiply" unicode="&#xd7;" 
d="M983 891l93 -93l-281 -281l279 -280l-91 -92l-280 280l-283 -283l-93 92l283 284l-278 279l91 92l280 -280z" />
    <glyph glyph-name="Oslash" unicode="&#xd8;" horiz-adv-x="1642" 
d="M255 681q0 -120 45 -224t122 -180.5t180.5 -120.5t221.5 -44t222 44t181 120.5t122 180.5t45 224q0 121 -45 225t-122 181t-181 121t-222 44t-221.5 -44t-180.5 -121t-122 -181t-45 -225zM98 681q0 149 57 278t155.5 225t231 151t282.5 55q102 0 195.5 -25.5t175.5 -73.5
l122 152l120 -92l-119 -148q108 -97 170.5 -231t62.5 -291q0 -147 -57 -276t-156 -225t-231.5 -151t-282.5 -55q-111 0 -211 30t-186 84l-128 -161l-120 92l129 163q-98 96 -154 223.5t-56 275.5z" />
    <glyph glyph-name="Ugrave" unicode="&#xd9;" horiz-adv-x="1416" 
d="M489 1788l118 42l172 -279h-116zM1108 525v836h158v-834q0 -123 -42 -225t-116 -175t-176.5 -113.5t-224.5 -40.5q-118 0 -220 39t-177 111.5t-118 175t-43 228.5v834h156v-833q0 -85 26.5 -160.5t77.5 -132.5t126 -90t172 -33q94 0 168.5 32.5t126 88.5t79 131.5
t27.5 160.5z" />
    <glyph glyph-name="Uacute" unicode="&#xda;" horiz-adv-x="1416" 
d="M816 1830l118 -42l-175 -237h-115zM1108 525v836h158v-834q0 -123 -42 -225t-116 -175t-176.5 -113.5t-224.5 -40.5q-118 0 -220 39t-177 111.5t-118 175t-43 228.5v834h156v-833q0 -85 26.5 -160.5t77.5 -132.5t126 -90t172 -33q94 0 168.5 32.5t126 88.5t79 131.5
t27.5 160.5z" />
    <glyph glyph-name="Ucircumflex" unicode="&#xdb;" horiz-adv-x="1416" 
d="M699 1827l300 -205l-55 -86l-244 167l-244 -167l-56 86zM1108 525v836h158v-834q0 -123 -42 -225t-116 -175t-176.5 -113.5t-224.5 -40.5q-118 0 -220 39t-177 111.5t-118 175t-43 228.5v834h156v-833q0 -85 26.5 -160.5t77.5 -132.5t126 -90t172 -33q94 0 168.5 32.5
t126 88.5t79 131.5t27.5 160.5z" />
    <glyph glyph-name="Udieresis" unicode="&#xdc;" horiz-adv-x="1416" 
d="M434 1670q0 34 25 57.5t63 23.5q40 0 64.5 -23.5t24.5 -57.5q0 -33 -24.5 -56t-64.5 -23q-39 0 -63.5 23t-24.5 56zM765 1670q0 34 24.5 57.5t62.5 23.5q41 0 65 -23.5t24 -57.5q0 -33 -24.5 -56t-64.5 -23q-39 0 -63 23t-24 56zM1108 525v836h158v-834q0 -123 -42 -225
t-116 -175t-176.5 -113.5t-224.5 -40.5q-118 0 -220 39t-177 111.5t-118 175t-43 228.5v834h156v-833q0 -85 26.5 -160.5t77.5 -132.5t126 -90t172 -33q94 0 168.5 32.5t126 88.5t79 131.5t27.5 160.5z" />
    <glyph glyph-name="Yacute" unicode="&#xdd;" horiz-adv-x="1317" 
d="M783 1779l118 -42l-175 -237h-115zM1103 1360h188l-554 -837l1 -523h-158v522l-553 838h187l444 -694h2z" />
    <glyph glyph-name="Thorn" unicode="&#xde;" horiz-adv-x="1233" 
d="M339 373h379q63 0 116.5 23t92.5 63.5t61.5 95.5t22.5 119t-22.5 119.5t-62 96.5t-93.5 64.5t-117 23.5h-377v-605zM725 236h-386v-236h-158v1360h158v-245h383q98 0 179.5 -33t141 -91.5t92.5 -139t33 -176.5t-33 -176.5t-92 -139t-140 -91t-178 -32.5z" />
    <glyph glyph-name="germandbls" unicode="&#xdf;" horiz-adv-x="1305" 
d="M254 0v1055q0 89 31.5 160t87.5 120.5t134.5 76.5t172.5 27q101 0 180.5 -27.5t135.5 -77t85.5 -117.5t29.5 -150q0 -69 -21.5 -121t-54.5 -88t-71 -57t-71 -29q52 -6 108 -30.5t102.5 -70t76.5 -112t30 -155.5q0 -108 -41.5 -185.5t-109 -127.5t-154.5 -73.5t-179 -23.5
h-121v133h122q72 0 132.5 19.5t104 55.5t68 87.5t24.5 115.5q0 66 -25 119t-70 90.5t-107 57.5t-135 20h-20v128h18q28 1 69 13.5t79 40t65 73t27 113.5q0 55 -20.5 100.5t-57.5 78.5t-87.5 51t-110.5 18q-65 0 -115.5 -19t-85.5 -52t-53.5 -77.5t-18.5 -95.5v-1064h-154z
" />
    <glyph glyph-name="agrave" unicode="&#xe0;" horiz-adv-x="1164" 
d="M271 1386l118 42l172 -279h-116zM479 102q60 0 121.5 15.5t114.5 43.5t92.5 66.5t55.5 84.5v146q-29 0 -65.5 1.5t-74 2.5t-73.5 2t-65 1q-61 0 -123.5 -6.5t-113.5 -25.5t-83.5 -52t-32.5 -86q0 -54 19 -91t52.5 -59.5t78.5 -32.5t97 -10zM1017 0h-128l-14 153
q-39 -41 -90.5 -74t-110 -55.5t-121 -34.5t-123.5 -12q-73 0 -138 18t-113.5 57t-76.5 100t-28 148q0 83 42 136.5t111 85t158 44t183 12.5q29 0 67 -1t78.5 -2t79.5 -2.5t70 -1.5v135q-2 41 -22 79t-59 67t-97.5 46.5t-138.5 17.5q-60 0 -114.5 -15t-95.5 -40.5t-65 -59
t-24 -70.5h-156q1 72 38 130t98.5 99t143 63.5t172.5 22.5q121 0 210 -27.5t147.5 -73.5t87.5 -106t29 -126v-713z" />
    <glyph glyph-name="aacute" unicode="&#xe1;" horiz-adv-x="1164" 
d="M681 1428l118 -42l-175 -237h-115zM479 102q60 0 121.5 15.5t114.5 43.5t92.5 66.5t55.5 84.5v146q-29 0 -65.5 1.5t-74 2.5t-73.5 2t-65 1q-61 0 -123.5 -6.5t-113.5 -25.5t-83.5 -52t-32.5 -86q0 -54 19 -91t52.5 -59.5t78.5 -32.5t97 -10zM1017 0h-128l-14 153
q-39 -41 -90.5 -74t-110 -55.5t-121 -34.5t-123.5 -12q-73 0 -138 18t-113.5 57t-76.5 100t-28 148q0 83 42 136.5t111 85t158 44t183 12.5q29 0 67 -1t78.5 -2t79.5 -2.5t70 -1.5v135q-2 41 -22 79t-59 67t-97.5 46.5t-138.5 17.5q-60 0 -114.5 -15t-95.5 -40.5t-65 -59
t-24 -70.5h-156q1 72 38 130t98.5 99t143 63.5t172.5 22.5q121 0 210 -27.5t147.5 -73.5t87.5 -106t29 -126v-713z" />
    <glyph glyph-name="acircumflex" unicode="&#xe2;" horiz-adv-x="1164" 
d="M523 1425l300 -205l-55 -86l-244 167l-244 -167l-56 86zM479 102q60 0 121.5 15.5t114.5 43.5t92.5 66.5t55.5 84.5v146q-29 0 -65.5 1.5t-74 2.5t-73.5 2t-65 1q-61 0 -123.5 -6.5t-113.5 -25.5t-83.5 -52t-32.5 -86q0 -54 19 -91t52.5 -59.5t78.5 -32.5t97 -10zM1017 0
h-128l-14 153q-39 -41 -90.5 -74t-110 -55.5t-121 -34.5t-123.5 -12q-73 0 -138 18t-113.5 57t-76.5 100t-28 148q0 83 42 136.5t111 85t158 44t183 12.5q29 0 67 -1t78.5 -2t79.5 -2.5t70 -1.5v135q-2 41 -22 79t-59 67t-97.5 46.5t-138.5 17.5q-60 0 -114.5 -15
t-95.5 -40.5t-65 -59t-24 -70.5h-156q1 72 38 130t98.5 99t143 63.5t172.5 22.5q121 0 210 -27.5t147.5 -73.5t87.5 -106t29 -126v-713z" />
    <glyph glyph-name="atilde" unicode="&#xe3;" horiz-adv-x="1164" 
d="M753 1359l72 -50q-45 -82 -99 -121.5t-118 -39.5q-43 0 -81 11.5t-72.5 26t-65 26t-57.5 11.5q-26 0 -51.5 -13.5t-49.5 -53.5l-70 50q30 57 75.5 90.5t105.5 33.5q10 0 20 -1t21 -3q33 -6 62.5 -17t57.5 -22.5t54.5 -20t52.5 -8.5q37 0 72.5 22t70.5 79zM479 102
q60 0 121.5 15.5t114.5 43.5t92.5 66.5t55.5 84.5v146q-29 0 -65.5 1.5t-74 2.5t-73.5 2t-65 1q-61 0 -123.5 -6.5t-113.5 -25.5t-83.5 -52t-32.5 -86q0 -54 19 -91t52.5 -59.5t78.5 -32.5t97 -10zM1017 0h-128l-14 153q-39 -41 -90.5 -74t-110 -55.5t-121 -34.5t-123.5 -12
q-73 0 -138 18t-113.5 57t-76.5 100t-28 148q0 83 42 136.5t111 85t158 44t183 12.5q29 0 67 -1t78.5 -2t79.5 -2.5t70 -1.5v135q-2 41 -22 79t-59 67t-97.5 46.5t-138.5 17.5q-60 0 -114.5 -15t-95.5 -40.5t-65 -59t-24 -70.5h-156q1 72 38 130t98.5 99t143 63.5
t172.5 22.5q121 0 210 -27.5t147.5 -73.5t87.5 -106t29 -126v-713z" />
    <glyph glyph-name="adieresis" unicode="&#xe4;" horiz-adv-x="1164" 
d="M242 1268q0 34 25 57.5t63 23.5q40 0 64.5 -23.5t24.5 -57.5q0 -33 -24.5 -56t-64.5 -23q-39 0 -63.5 23t-24.5 56zM573 1268q0 34 24.5 57.5t62.5 23.5q41 0 65 -23.5t24 -57.5q0 -33 -24.5 -56t-64.5 -23q-39 0 -63 23t-24 56zM479 102q60 0 121.5 15.5t114.5 43.5
t92.5 66.5t55.5 84.5v146q-29 0 -65.5 1.5t-74 2.5t-73.5 2t-65 1q-61 0 -123.5 -6.5t-113.5 -25.5t-83.5 -52t-32.5 -86q0 -54 19 -91t52.5 -59.5t78.5 -32.5t97 -10zM1017 0h-128l-14 153q-39 -41 -90.5 -74t-110 -55.5t-121 -34.5t-123.5 -12q-73 0 -138 18t-113.5 57
t-76.5 100t-28 148q0 83 42 136.5t111 85t158 44t183 12.5q29 0 67 -1t78.5 -2t79.5 -2.5t70 -1.5v135q-2 41 -22 79t-59 67t-97.5 46.5t-138.5 17.5q-60 0 -114.5 -15t-95.5 -40.5t-65 -59t-24 -70.5h-156q1 72 38 130t98.5 99t143 63.5t172.5 22.5q121 0 210 -27.5
t147.5 -73.5t87.5 -106t29 -126v-713z" />
    <glyph glyph-name="aring" unicode="&#xe5;" horiz-adv-x="1164" 
d="M297 1341q0 40 15 74.5t41.5 60t63.5 40t80 14.5q45 0 82 -14.5t63.5 -40t41 -60t14.5 -74.5q0 -38 -14.5 -71.5t-41 -58.5t-63.5 -39.5t-82 -14.5q-44 0 -80.5 14.5t-63 39.5t-41.5 58.5t-15 71.5zM393 1340q0 -20 8 -38t22 -31.5t33 -21.5t41 -8q47 0 76.5 29.5
t29.5 69.5q0 45 -29 75t-77 30q-45 0 -74.5 -30t-29.5 -75zM479 102q60 0 121.5 15.5t114.5 43.5t92.5 66.5t55.5 84.5v146q-29 0 -65.5 1.5t-74 2.5t-73.5 2t-65 1q-61 0 -123.5 -6.5t-113.5 -25.5t-83.5 -52t-32.5 -86q0 -54 19 -91t52.5 -59.5t78.5 -32.5t97 -10zM1017 0
h-128l-14 153q-39 -41 -90.5 -74t-110 -55.5t-121 -34.5t-123.5 -12q-73 0 -138 18t-113.5 57t-76.5 100t-28 148q0 83 42 136.5t111 85t158 44t183 12.5q29 0 67 -1t78.5 -2t79.5 -2.5t70 -1.5v135q-2 41 -22 79t-59 67t-97.5 46.5t-138.5 17.5q-60 0 -114.5 -15
t-95.5 -40.5t-65 -59t-24 -70.5h-156q1 72 38 130t98.5 99t143 63.5t172.5 22.5q121 0 210 -27.5t147.5 -73.5t87.5 -106t29 -126v-713z" />
    <glyph glyph-name="ae" unicode="&#xe6;" horiz-adv-x="2038" 
d="M521 102q60 0 121.5 15.5t114.5 43.5t92.5 66.5t55.5 84.5v146q-29 0 -65.5 1.5t-74.5 2.5t-74 2t-64 1q-60 0 -123 -6.5t-114 -25.5t-83.5 -52t-32.5 -86q0 -54 19 -91t52.5 -59.5t78.5 -32.5t97 -10zM1079 572l480 -3h16q103 3 151 46t48 111q0 33 -18.5 66.5t-55.5 60
t-93.5 43t-133.5 16.5q-74 0 -140.5 -25.5t-119 -70.5t-88 -107.5t-46.5 -136.5zM1059 0h-128l-14 152q-39 -41 -90.5 -73.5t-110 -55t-121 -34.5t-123.5 -12q-73 0 -138 18t-113.5 57t-76.5 100t-28 148q0 83 42 136.5t111 85t158 44t183 12.5q29 0 67 -1t78.5 -2
t79.5 -2.5t70 -1.5v127q0 42 -19 81.5t-58 70t-99 48.5t-141 18q-60 0 -114.5 -15t-95.5 -40.5t-65 -59t-24 -70.5h-156q2 72 38.5 130t98 99t143 63.5t172.5 22.5q92 0 165.5 -16.5t129 -45t93.5 -67.5t59 -84q37 48 84 87.5t103 67.5t119 43t131 15q112 0 197 -27
t142.5 -72t86.5 -103.5t29 -121.5q0 -58 -18.5 -109.5t-59 -90t-104 -60.5t-153.5 -22h-509q12 -73 46.5 -134.5t86.5 -106t118 -69.5t139 -25q111 0 193.5 34.5t137.5 94.5l50 -113q-64 -67 -157.5 -108.5t-225.5 -41.5q-125 0 -230 48.5t-179 131.5v-151z" />
    <glyph glyph-name="ccedilla" unicode="&#xe7;" horiz-adv-x="1125" 
d="M572 -188l73 198l86 -2l-49 -125q32 -8 59.5 -22t48 -35.5t32.5 -51t12 -67.5q0 -47 -20 -88t-52 -71t-72.5 -47t-82.5 -17t-78.5 6t-65.5 25l33 87q46 -20 100 -20q21 0 43 9.5t40.5 26t30 39t11.5 47.5q0 31 -14 52t-35.5 33.5t-48 17.5t-51.5 5zM946 213
q-110 -105 -285 -105q-78 0 -150 28t-127.5 80t-88.5 126.5t-33 166.5t33 166t88 126.5t127.5 80.5t150.5 28q85 0 157.5 -27.5t126.5 -77.5l95 99q-85 75 -184 108.5t-196 33.5q-118 0 -219 -42t-175 -114.5t-116.5 -170.5t-42.5 -210q0 -117 45.5 -216t122 -170t179 -111
t216.5 -40q97 0 193 34t179 107z" />
    <glyph glyph-name="egrave" unicode="&#xe8;" horiz-adv-x="1181" 
d="M428 1386l118 42l172 -279h-116zM654 915q-75 0 -142 -26t-120 -72.5t-88.5 -109.5t-46.5 -138h494q105 2 156 45t51 112q0 33 -19 67t-56.5 61t-94.5 44t-134 17zM770 440h-512q12 -73 47.5 -134.5t87.5 -106t118.5 -69.5t139.5 -25q106 0 182 36.5t134 97.5l89 -92
q-33 -36 -75.5 -68t-94.5 -56t-111.5 -38t-125.5 -14q-116 0 -215.5 42.5t-173 115.5t-115 170.5t-41.5 208.5t41.5 208.5t115 171t173.5 116t216 42.5q111 0 196 -27t142.5 -72t87 -103.5t29.5 -121.5q0 -58 -18.5 -109.5t-59 -90t-104 -60.5t-153.5 -22z" />
    <glyph glyph-name="eacute" unicode="&#xe9;" horiz-adv-x="1181" 
d="M789 1428l118 -42l-175 -237h-115zM654 915q-75 0 -142 -26t-120 -72.5t-88.5 -109.5t-46.5 -138h494q105 2 156 45t51 112q0 33 -19 67t-56.5 61t-94.5 44t-134 17zM770 440h-512q12 -73 47.5 -134.5t87.5 -106t118.5 -69.5t139.5 -25q106 0 182 36.5t134 97.5l89 -92
q-33 -36 -75.5 -68t-94.5 -56t-111.5 -38t-125.5 -14q-116 0 -215.5 42.5t-173 115.5t-115 170.5t-41.5 208.5t41.5 208.5t115 171t173.5 116t216 42.5q111 0 196 -27t142.5 -72t87 -103.5t29.5 -121.5q0 -58 -18.5 -109.5t-59 -90t-104 -60.5t-153.5 -22z" />
    <glyph glyph-name="ecircumflex" unicode="&#xea;" horiz-adv-x="1181" 
d="M645 1425l300 -205l-55 -86l-244 167l-244 -167l-56 86zM654 915q-75 0 -142 -26t-120 -72.5t-88.5 -109.5t-46.5 -138h494q105 2 156 45t51 112q0 33 -19 67t-56.5 61t-94.5 44t-134 17zM770 440h-512q12 -73 47.5 -134.5t87.5 -106t118.5 -69.5t139.5 -25
q106 0 182 36.5t134 97.5l89 -92q-33 -36 -75.5 -68t-94.5 -56t-111.5 -38t-125.5 -14q-116 0 -215.5 42.5t-173 115.5t-115 170.5t-41.5 208.5t41.5 208.5t115 171t173.5 116t216 42.5q111 0 196 -27t142.5 -72t87 -103.5t29.5 -121.5q0 -58 -18.5 -109.5t-59 -90
t-104 -60.5t-153.5 -22z" />
    <glyph glyph-name="edieresis" unicode="&#xeb;" horiz-adv-x="1181" 
d="M385 1268q0 34 25 57.5t63 23.5q40 0 64.5 -23.5t24.5 -57.5q0 -33 -24.5 -56t-64.5 -23q-39 0 -63.5 23t-24.5 56zM716 1268q0 34 24.5 57.5t62.5 23.5q41 0 65 -23.5t24 -57.5q0 -33 -24.5 -56t-64.5 -23q-39 0 -63 23t-24 56zM654 915q-75 0 -142 -26t-120 -72.5
t-88.5 -109.5t-46.5 -138h494q105 2 156 45t51 112q0 33 -19 67t-56.5 61t-94.5 44t-134 17zM770 440h-512q12 -73 47.5 -134.5t87.5 -106t118.5 -69.5t139.5 -25q106 0 182 36.5t134 97.5l89 -92q-33 -36 -75.5 -68t-94.5 -56t-111.5 -38t-125.5 -14q-116 0 -215.5 42.5
t-173 115.5t-115 170.5t-41.5 208.5t41.5 208.5t115 171t173.5 116t216 42.5q111 0 196 -27t142.5 -72t87 -103.5t29.5 -121.5q0 -58 -18.5 -109.5t-59 -90t-104 -60.5t-153.5 -22z" />
    <glyph glyph-name="igrave" unicode="&#xec;" horiz-adv-x="517" 
d="M36 1386l118 42l172 -279h-116zM181 0v1018h155v-1018h-155z" />
    <glyph glyph-name="iacute" unicode="&#xed;" horiz-adv-x="517" 
d="M364 1428l118 -42l-175 -237h-115zM181 0v1018h155v-1018h-155z" />
    <glyph glyph-name="icircumflex" unicode="&#xee;" horiz-adv-x="517" 
d="M244 1425l300 -205l-55 -86l-244 167l-244 -167l-56 86zM181 0v1018h155v-1018h-155z" />
    <glyph glyph-name="idieresis" unicode="&#xef;" horiz-adv-x="517" 
d="M-10 1268q0 34 25 57.5t63 23.5q40 0 64.5 -23.5t24.5 -57.5q0 -33 -24.5 -56t-64.5 -23q-39 0 -63.5 23t-24.5 56zM321 1268q0 34 24.5 57.5t62.5 23.5q41 0 65 -23.5t24 -57.5q0 -33 -24.5 -56t-64.5 -23q-39 0 -63 23t-24 56zM181 0v1018h155v-1018h-155z" />
    <glyph glyph-name="eth" unicode="&#xf0;" horiz-adv-x="1323" 
d="M263 503q0 -87 31.5 -159.5t85.5 -125t126.5 -81.5t155.5 -29t156 29t127 81.5t85.5 125t31.5 159.5q0 86 -31.5 159t-85.5 125.5t-127 82t-156 29.5t-155.5 -29.5t-126.5 -82t-85.5 -125.5t-31.5 -159zM1126 1429l47 -77l-195 -95q45 -52 87.5 -121t75.5 -158
t53.5 -199.5t20.5 -244.5v-3q0 -121 -42 -223.5t-116.5 -177.5t-175.5 -117t-220 -42q-118 0 -219 41t-175 113t-116 169t-42 209t38.5 209t108.5 169t168 113t216 41q119 0 225 -59t177 -167q-30 106 -79 204t-119 179l-240 -116l-49 78l223 107q-79 73 -176 119l188 44
q24 -17 55.5 -41t66.5 -57z" />
    <glyph glyph-name="ntilde" unicode="&#xf1;" horiz-adv-x="1309" 
d="M980 1356l72 -50q-45 -82 -99 -121.5t-118 -39.5q-43 0 -81 11.5t-72.5 26t-65 26t-57.5 11.5q-26 0 -51.5 -13.5t-49.5 -53.5l-70 50q30 57 75.5 90.5t105.5 33.5q10 0 20 -1t21 -3q33 -6 62.5 -17t57.5 -22.5t54.5 -20t52.5 -8.5q37 0 72.5 22t70.5 79zM1167 552v-552
h-155v550q0 95 -21.5 163t-63.5 112t-102.5 64.5t-138.5 20.5q-73 0 -137 -26.5t-111.5 -75t-75 -116t-27.5 -149.5v-543h-154v1018h128l14 -150q30 38 71.5 70.5t90.5 56.5t105 37.5t115 13.5q234 0 348 -123t114 -371z" />
    <glyph glyph-name="ograve" unicode="&#xf2;" horiz-adv-x="1314" 
d="M398 1386l118 42l172 -279h-116zM104 509q0 112 42 210t116.5 170.5t175.5 114.5t219 42t219.5 -42t175.5 -114.5t116.5 -170.5t42.5 -210t-42.5 -210t-116.5 -171t-175.5 -114.5t-220.5 -41.5q-117 0 -218 42t-175.5 114.5t-116.5 170.5t-42 210zM258 509
q0 -87 31.5 -160.5t85.5 -127t127 -83.5t156 -30t156 30t127 83.5t85.5 127t31.5 160.5q0 86 -31.5 159.5t-85.5 127t-127 84t-156 30.5t-156 -30.5t-127 -84t-85.5 -127t-31.5 -159.5z" />
    <glyph glyph-name="oacute" unicode="&#xf3;" horiz-adv-x="1314" 
d="M757 1428l118 -42l-175 -237h-115zM104 509q0 112 42 210t116.5 170.5t175.5 114.5t219 42t219.5 -42t175.5 -114.5t116.5 -170.5t42.5 -210t-42.5 -210t-116.5 -171t-175.5 -114.5t-220.5 -41.5q-117 0 -218 42t-175.5 114.5t-116.5 170.5t-42 210zM258 509
q0 -87 31.5 -160.5t85.5 -127t127 -83.5t156 -30t156 30t127 83.5t85.5 127t31.5 160.5q0 86 -31.5 159.5t-85.5 127t-127 84t-156 30.5t-156 -30.5t-127 -84t-85.5 -127t-31.5 -159.5z" />
    <glyph glyph-name="ocircumflex" unicode="&#xf4;" horiz-adv-x="1314" 
d="M628 1425l300 -205l-55 -86l-244 167l-244 -167l-56 86zM104 509q0 112 42 210t116.5 170.5t175.5 114.5t219 42t219.5 -42t175.5 -114.5t116.5 -170.5t42.5 -210t-42.5 -210t-116.5 -171t-175.5 -114.5t-220.5 -41.5q-117 0 -218 42t-175.5 114.5t-116.5 170.5t-42 210z
M258 509q0 -87 31.5 -160.5t85.5 -127t127 -83.5t156 -30t156 30t127 83.5t85.5 127t31.5 160.5q0 86 -31.5 159.5t-85.5 127t-127 84t-156 30.5t-156 -30.5t-127 -84t-85.5 -127t-31.5 -159.5z" />
    <glyph glyph-name="otilde" unicode="&#xf5;" horiz-adv-x="1314" 
d="M901 1356l72 -50q-45 -82 -99 -121.5t-118 -39.5q-43 0 -81 11.5t-72.5 26t-65 26t-57.5 11.5q-26 0 -51.5 -13.5t-49.5 -53.5l-70 50q30 57 75.5 90.5t105.5 33.5q10 0 20 -1t21 -3q33 -6 62.5 -17t57.5 -22.5t54.5 -20t52.5 -8.5q37 0 72.5 22t70.5 79zM104 509
q0 112 42 210t116.5 170.5t175.5 114.5t219 42t219.5 -42t175.5 -114.5t116.5 -170.5t42.5 -210t-42.5 -210t-116.5 -171t-175.5 -114.5t-220.5 -41.5q-117 0 -218 42t-175.5 114.5t-116.5 170.5t-42 210zM258 509q0 -87 31.5 -160.5t85.5 -127t127 -83.5t156 -30t156 30
t127 83.5t85.5 127t31.5 160.5q0 86 -31.5 159.5t-85.5 127t-127 84t-156 30.5t-156 -30.5t-127 -84t-85.5 -127t-31.5 -159.5z" />
    <glyph glyph-name="odieresis" unicode="&#xf6;" horiz-adv-x="1314" 
d="M375 1268q0 34 25 57.5t63 23.5q40 0 64.5 -23.5t24.5 -57.5q0 -33 -24.5 -56t-64.5 -23q-39 0 -63.5 23t-24.5 56zM706 1268q0 34 24.5 57.5t62.5 23.5q41 0 65 -23.5t24 -57.5q0 -33 -24.5 -56t-64.5 -23q-39 0 -63 23t-24 56zM104 509q0 112 42 210t116.5 170.5
t175.5 114.5t219 42t219.5 -42t175.5 -114.5t116.5 -170.5t42.5 -210t-42.5 -210t-116.5 -171t-175.5 -114.5t-220.5 -41.5q-117 0 -218 42t-175.5 114.5t-116.5 170.5t-42 210zM258 509q0 -87 31.5 -160.5t85.5 -127t127 -83.5t156 -30t156 30t127 83.5t85.5 127
t31.5 160.5q0 86 -31.5 159.5t-85.5 127t-127 84t-156 30.5t-156 -30.5t-127 -84t-85.5 -127t-31.5 -159.5z" />
    <glyph glyph-name="divide" unicode="&#xf7;" 
d="M611 913q0 36 25 62.5t66 26.5q40 0 65.5 -26.5t25.5 -62.5t-25.5 -61.5t-66.5 -25.5q-38 0 -64 25.5t-26 61.5zM611 158q0 36 25 62.5t66 26.5q40 0 65.5 -26.5t25.5 -62.5t-25.5 -61.5t-66.5 -25.5q-40 0 -65 25.5t-25 61.5zM241 603h921v-130l-921 1v129z" />
    <glyph glyph-name="oslash" unicode="&#xf8;" horiz-adv-x="1314" 
d="M261 509q0 -87 31.5 -160.5t85.5 -127t127 -83.5t156 -30t156 30t127 83.5t85.5 127t31.5 160.5q0 86 -31.5 159.5t-85.5 127t-127 84t-156 30.5t-156 -30.5t-127 -84t-85.5 -127t-31.5 -159.5zM107 509q0 112 42 210t116 170.5t175 114.5t219 42q81 0 153.5 -20
t135.5 -56l72 89l110 -78l-74 -93q74 -73 116 -170t42 -209t-42.5 -210t-116.5 -171t-175.5 -114.5t-220.5 -41.5q-78 0 -148 18.5t-131 52.5l-89 -112l-110 79l89 113q-77 73 -120 172t-43 214z" />
    <glyph glyph-name="ugrave" unicode="&#xf9;" horiz-adv-x="1266" 
d="M471 1386l118 42l172 -279h-116zM629 108q161 0 247 92t86 285v533h155v-538q0 -130 -34 -225.5t-97.5 -158.5t-154 -93.5t-202.5 -30.5t-202.5 30.5t-154 93.5t-97.5 158.5t-34 225.5v538h155v-533q0 -192 84 -284.5t249 -92.5z" />
    <glyph glyph-name="uacute" unicode="&#xfa;" horiz-adv-x="1266" 
d="M704 1428l118 -42l-175 -237h-115zM629 108q161 0 247 92t86 285v533h155v-538q0 -130 -34 -225.5t-97.5 -158.5t-154 -93.5t-202.5 -30.5t-202.5 30.5t-154 93.5t-97.5 158.5t-34 225.5v538h155v-533q0 -192 84 -284.5t249 -92.5z" />
    <glyph glyph-name="ucircumflex" unicode="&#xfb;" horiz-adv-x="1266" 
d="M646 1425l300 -205l-55 -86l-244 167l-244 -167l-56 86zM629 108q161 0 247 92t86 285v533h155v-538q0 -130 -34 -225.5t-97.5 -158.5t-154 -93.5t-202.5 -30.5t-202.5 30.5t-154 93.5t-97.5 158.5t-34 225.5v538h155v-533q0 -192 84 -284.5t249 -92.5z" />
    <glyph glyph-name="udieresis" unicode="&#xfc;" horiz-adv-x="1266" 
d="M393 1268q0 34 25 57.5t63 23.5q40 0 64.5 -23.5t24.5 -57.5q0 -33 -24.5 -56t-64.5 -23q-39 0 -63.5 23t-24.5 56zM724 1268q0 34 24.5 57.5t62.5 23.5q41 0 65 -23.5t24 -57.5q0 -33 -24.5 -56t-64.5 -23q-39 0 -63 23t-24 56zM629 108q161 0 247 92t86 285v533h155
v-538q0 -130 -34 -225.5t-97.5 -158.5t-154 -93.5t-202.5 -30.5t-202.5 30.5t-154 93.5t-97.5 158.5t-34 225.5v538h155v-533q0 -192 84 -284.5t249 -92.5z" />
    <glyph glyph-name="yacute" unicode="&#xfd;" horiz-adv-x="1087" 
d="M647 1428l118 -42l-175 -237h-115zM914 1018h165l-435 -989q-45 -106 -81.5 -178t-78 -115.5t-94 -62.5t-130.5 -19h-167l-1 130h180q39 0 66.5 16t50 46.5t42.5 75.5t45 104l-434 992h170l343 -790l5 -32z" />
    <glyph glyph-name="thorn" unicode="&#xfe;" horiz-adv-x="1341" 
d="M1133 509q0 86 -31.5 159.5t-85.5 127t-127 84t-157 30.5t-157 -30.5t-128 -84t-86.5 -127t-31.5 -159.5q0 -87 31.5 -160.5t86 -127.5t128 -84t156.5 -30q84 0 157 30.5t127.5 84t86 127t31.5 160.5zM181 -342v1750h154v-558q33 43 76 79t95.5 62t113 40.5t127.5 14.5
q118 0 217 -42t171 -114.5t112.5 -170.5t40.5 -210t-41 -210t-113.5 -171t-172 -115t-217.5 -42q-66 0 -126 15t-112 40.5t-95 61.5t-76 78v-508h-154z" />
    <glyph glyph-name="ydieresis" unicode="&#xff;" horiz-adv-x="1087" 
d="M308 1268q0 34 25 57.5t63 23.5q40 0 64.5 -23.5t24.5 -57.5q0 -33 -24.5 -56t-64.5 -23q-39 0 -63.5 23t-24.5 56zM639 1268q0 34 24.5 57.5t62.5 23.5q41 0 65 -23.5t24 -57.5q0 -33 -24.5 -56t-64.5 -23q-39 0 -63 23t-24 56zM914 1018h165l-435 -989
q-45 -106 -81.5 -178t-78 -115.5t-94 -62.5t-130.5 -19h-167l-1 130h180q39 0 66.5 16t50 46.5t42.5 75.5t45 104l-434 992h170l343 -790l5 -32z" />
    <glyph glyph-name="Amacron" unicode="&#x100;" horiz-adv-x="1352" 
d="M399 1598v99h550v-99h-550zM675 1157l-5 -23l-289 -679h588l-288 679zM1329 0h-167l-135 318h-704l-135 -318h-167l578 1360h153z" />
    <glyph glyph-name="amacron" unicode="&#x101;" horiz-adv-x="1164" 
d="M213 1228v99h550v-99h-550zM479 102q60 0 121.5 15.5t114.5 43.5t92.5 66.5t55.5 84.5v146q-29 0 -65.5 1.5t-74 2.5t-73.5 2t-65 1q-61 0 -123.5 -6.5t-113.5 -25.5t-83.5 -52t-32.5 -86q0 -54 19 -91t52.5 -59.5t78.5 -32.5t97 -10zM1017 0h-128l-14 153
q-39 -41 -90.5 -74t-110 -55.5t-121 -34.5t-123.5 -12q-73 0 -138 18t-113.5 57t-76.5 100t-28 148q0 83 42 136.5t111 85t158 44t183 12.5q29 0 67 -1t78.5 -2t79.5 -2.5t70 -1.5v135q-2 41 -22 79t-59 67t-97.5 46.5t-138.5 17.5q-60 0 -114.5 -15t-95.5 -40.5t-65 -59
t-24 -70.5h-156q1 72 38 130t98.5 99t143 63.5t172.5 22.5q121 0 210 -27.5t147.5 -73.5t87.5 -106t29 -126v-713z" />
    <glyph glyph-name="Abreve" unicode="&#x102;" horiz-adv-x="1352" 
d="M859 1796l111 -10q-14 -106 -88.5 -168.5t-206.5 -62.5t-206.5 62.5t-88.5 168.5l111 10q10 -29 23 -53t34 -40.5t51.5 -25.5t75.5 -9t75.5 9t51.5 25.5t34 40.5t23 53zM675 1157l-5 -23l-289 -679h588l-288 679zM1329 0h-167l-135 318h-704l-135 -318h-167l578 1360h153
z" />
    <glyph glyph-name="abreve" unicode="&#x103;" horiz-adv-x="1164" 
d="M682 1394l111 -10q-14 -106 -88.5 -168.5t-206.5 -62.5t-206.5 62.5t-88.5 168.5l111 10q10 -29 23 -53t34 -40.5t51.5 -25.5t75.5 -9t75.5 9t51.5 25.5t34 40.5t23 53zM479 102q60 0 121.5 15.5t114.5 43.5t92.5 66.5t55.5 84.5v146q-29 0 -65.5 1.5t-74 2.5t-73.5 2
t-65 1q-61 0 -123.5 -6.5t-113.5 -25.5t-83.5 -52t-32.5 -86q0 -54 19 -91t52.5 -59.5t78.5 -32.5t97 -10zM1017 0h-128l-14 153q-39 -41 -90.5 -74t-110 -55.5t-121 -34.5t-123.5 -12q-73 0 -138 18t-113.5 57t-76.5 100t-28 148q0 83 42 136.5t111 85t158 44t183 12.5
q29 0 67 -1t78.5 -2t79.5 -2.5t70 -1.5v135q-2 41 -22 79t-59 67t-97.5 46.5t-138.5 17.5q-60 0 -114.5 -15t-95.5 -40.5t-65 -59t-24 -70.5h-156q1 72 38 130t98.5 99t143 63.5t172.5 22.5q121 0 210 -27.5t147.5 -73.5t87.5 -106t29 -126v-713z" />
    <glyph glyph-name="Aogonek" unicode="&#x104;" horiz-adv-x="1352" 
d="M1236 38l93 -38q-32 -24 -69 -52t-68.5 -59.5t-52.5 -66t-21 -70.5q0 -29 20 -45.5t55 -16.5q26 0 52 7t58 21l24 -78q-35 -23 -80.5 -40t-97.5 -17q-43 0 -74.5 11.5t-52 30.5t-30 44.5t-9.5 53.5q0 52 24.5 96.5t62 83.5t82 72t84.5 63zM675 1157l-5 -23l-289 -679h588
l-288 679zM1329 0h-167l-135 318h-704l-135 -318h-167l578 1360h153z" />
    <glyph glyph-name="aogonek" unicode="&#x105;" horiz-adv-x="1164" 
d="M896 38l93 -38q-32 -24 -69 -52t-68.5 -59.5t-52.5 -66t-21 -70.5q0 -29 20 -45.5t55 -16.5q26 0 52 7t58 21l24 -78q-35 -23 -80.5 -40t-97.5 -17q-43 0 -74.5 11.5t-52 30.5t-30 44.5t-9.5 53.5q0 52 24.5 96.5t62 83.5t82 72t84.5 63zM479 102q60 0 121.5 15.5
t114.5 43.5t92.5 66.5t55.5 84.5v146q-29 0 -65.5 1.5t-74 2.5t-73.5 2t-65 1q-61 0 -123.5 -6.5t-113.5 -25.5t-83.5 -52t-32.5 -86q0 -54 19 -91t52.5 -59.5t78.5 -32.5t97 -10zM1017 0h-128l-14 153q-39 -41 -90.5 -74t-110 -55.5t-121 -34.5t-123.5 -12q-73 0 -138 18
t-113.5 57t-76.5 100t-28 148q0 83 42 136.5t111 85t158 44t183 12.5q29 0 67 -1t78.5 -2t79.5 -2.5t70 -1.5v135q-2 41 -22 79t-59 67t-97.5 46.5t-138.5 17.5q-60 0 -114.5 -15t-95.5 -40.5t-65 -59t-24 -70.5h-156q1 72 38 130t98.5 99t143 63.5t172.5 22.5
q121 0 210 -27.5t147.5 -73.5t87.5 -106t29 -126v-713z" />
    <glyph glyph-name="Cacute" unicode="&#x106;" horiz-adv-x="1464" 
d="M966 1830l118 -42l-175 -237h-115zM1260 300l98 -101q-48 -49 -106 -90.5t-124 -71.5t-140 -46.5t-154 -16.5q-150 0 -282.5 55t-231 151t-155.5 225t-57 276q0 149 57 278t155.5 225t231 151t282.5 55q79 0 152.5 -16t139.5 -45.5t124 -70.5t107 -92l-98 -103
q-79 89 -189 139t-236 50q-118 0 -221.5 -44t-180.5 -121t-122 -181t-45 -225q0 -120 45 -224t122 -180.5t180.5 -120.5t221.5 -44q126 0 236.5 50t189.5 138z" />
    <glyph glyph-name="cacute" unicode="&#x107;" horiz-adv-x="1125" 
d="M769 1428l118 -42l-175 -237h-115zM946 213l96 -100q-83 -73 -179 -107t-193 -34q-114 0 -216.5 40t-179 111t-122 170t-45.5 216q0 112 42.5 210t116.5 170.5t175 114.5t219 42q97 0 196 -33.5t184 -108.5l-95 -99q-54 50 -126.5 77.5t-157.5 27.5q-78 0 -150.5 -28
t-127.5 -80.5t-88 -126.5t-33 -166t33 -166.5t88.5 -126.5t127.5 -80t150 -28q175 0 285 105z" />
    <glyph glyph-name="Ccircumflex" unicode="&#x108;" horiz-adv-x="1464" 
d="M814 1827l300 -205l-55 -86l-244 167l-244 -167l-56 86zM1260 300l98 -101q-48 -49 -106 -90.5t-124 -71.5t-140 -46.5t-154 -16.5q-150 0 -282.5 55t-231 151t-155.5 225t-57 276q0 149 57 278t155.5 225t231 151t282.5 55q79 0 152.5 -16t139.5 -45.5t124 -70.5
t107 -92l-98 -103q-79 89 -189 139t-236 50q-118 0 -221.5 -44t-180.5 -121t-122 -181t-45 -225q0 -120 45 -224t122 -180.5t180.5 -120.5t221.5 -44q126 0 236.5 50t189.5 138z" />
    <glyph glyph-name="ccircumflex" unicode="&#x109;" horiz-adv-x="1125" 
d="M662 1425l300 -205l-55 -86l-244 167l-244 -167l-56 86zM946 213l96 -100q-83 -73 -179 -107t-193 -34q-114 0 -216.5 40t-179 111t-122 170t-45.5 216q0 112 42.5 210t116.5 170.5t175 114.5t219 42q97 0 196 -33.5t184 -108.5l-95 -99q-54 50 -126.5 77.5t-157.5 27.5
q-78 0 -150.5 -28t-127.5 -80.5t-88 -126.5t-33 -166t33 -166.5t88.5 -126.5t127.5 -80t150 -28q175 0 285 105z" />
    <glyph glyph-name="Cdotaccent" unicode="&#x10a;" horiz-adv-x="1464" 
d="M746 1668q0 35 24.5 58t63.5 23q40 0 64.5 -23t24.5 -58q0 -32 -24.5 -55.5t-64.5 -23.5q-39 0 -63.5 23.5t-24.5 55.5zM1260 300l98 -101q-48 -49 -106 -90.5t-124 -71.5t-140 -46.5t-154 -16.5q-150 0 -282.5 55t-231 151t-155.5 225t-57 276q0 149 57 278t155.5 225
t231 151t282.5 55q79 0 152.5 -16t139.5 -45.5t124 -70.5t107 -92l-98 -103q-79 89 -189 139t-236 50q-118 0 -221.5 -44t-180.5 -121t-122 -181t-45 -225q0 -120 45 -224t122 -180.5t180.5 -120.5t221.5 -44q126 0 236.5 50t189.5 138z" />
    <glyph glyph-name="cdotaccent" unicode="&#x10b;" horiz-adv-x="1125" 
d="M580 1266q0 35 24.5 58t63.5 23q40 0 64.5 -23t24.5 -58q0 -32 -24.5 -55.5t-64.5 -23.5q-39 0 -63.5 23.5t-24.5 55.5zM946 213l96 -100q-83 -73 -179 -107t-193 -34q-114 0 -216.5 40t-179 111t-122 170t-45.5 216q0 112 42.5 210t116.5 170.5t175 114.5t219 42
q97 0 196 -33.5t184 -108.5l-95 -99q-54 50 -126.5 77.5t-157.5 27.5q-78 0 -150.5 -28t-127.5 -80.5t-88 -126.5t-33 -166t33 -166.5t88.5 -126.5t127.5 -80t150 -28q175 0 285 105z" />
    <glyph glyph-name="Ccaron" unicode="&#x10c;" horiz-adv-x="1464" 
d="M1132 1740l-300 -205l-299 205l56 86l244 -167l244 167zM1260 300l98 -101q-48 -49 -106 -90.5t-124 -71.5t-140 -46.5t-154 -16.5q-150 0 -282.5 55t-231 151t-155.5 225t-57 276q0 149 57 278t155.5 225t231 151t282.5 55q79 0 152.5 -16t139.5 -45.5t124 -70.5
t107 -92l-98 -103q-79 89 -189 139t-236 50q-118 0 -221.5 -44t-180.5 -121t-122 -181t-45 -225q0 -120 45 -224t122 -180.5t180.5 -120.5t221.5 -44q126 0 236.5 50t189.5 138z" />
    <glyph glyph-name="ccaron" unicode="&#x10d;" horiz-adv-x="1125" 
d="M962 1343l-300 -205l-299 205l56 86l244 -167l244 167zM946 213l96 -100q-83 -73 -179 -107t-193 -34q-114 0 -216.5 40t-179 111t-122 170t-45.5 216q0 112 42.5 210t116.5 170.5t175 114.5t219 42q97 0 196 -33.5t184 -108.5l-95 -99q-54 50 -126.5 77.5t-157.5 27.5
q-78 0 -150.5 -28t-127.5 -80.5t-88 -126.5t-33 -166t33 -166.5t88.5 -126.5t127.5 -80t150 -28q175 0 285 105z" />
    <glyph glyph-name="Dcaron" unicode="&#x10e;" horiz-adv-x="1492" 
d="M941 1745l-300 -205l-299 205l56 86l244 -167l244 167zM337 139h334q134 0 237 37.5t174 107.5t107.5 169.5t36.5 223.5q0 119 -34.5 219t-103.5 172.5t-173 113t-244 40.5h-334v-1083zM180 0v1360h495q155 0 285 -45t224.5 -132t147.5 -213.5t53 -288.5
q0 -152 -46.5 -277.5t-136.5 -215t-221.5 -139t-301.5 -49.5h-499z" />
    <glyph glyph-name="dcaron" unicode="&#x10f;" horiz-adv-x="1518" 
d="M258 509q0 -87 31.5 -160.5t86.5 -127t128 -84t157 -30.5q83 0 156.5 30t128 84t86 127.5t31.5 160.5q0 86 -31.5 159.5t-86.5 127t-128 84t-157 30.5t-157 -30.5t-127.5 -84t-86 -127t-31.5 -159.5zM104 509q0 112 40.5 210t112.5 170.5t171 114.5t217 42
q67 0 127.5 -14.5t112.5 -40.5t95.5 -62t76.5 -79v558h154v-1408h-134l-12 179q-32 -44 -76 -82t-97 -66t-114.5 -44t-129.5 -16q-118 0 -217.5 42t-172 115t-113.5 171t-41 210zM1440 1420l141 -17l-184 -466l-111 7z" />
    <glyph glyph-name="Dcroat" unicode="&#x110;" horiz-adv-x="1584" 
d="M-1 613v111h185v636h496q155 0 285 -45t224.5 -132t147.5 -213.5t53 -288.5q0 -152 -46.5 -277.5t-136.5 -215t-221.5 -139t-301.5 -49.5h-500v613h-185zM342 139h334q134 0 237 37.5t174 107.5t107.5 169.5t36.5 223.5q0 119 -34.5 219t-103.5 172.5t-173 113t-244 40.5
h-334v-498h200v-111h-200v-474z" />
    <glyph glyph-name="dcroat" unicode="&#x111;" horiz-adv-x="1399" 
d="M822 1168v132h524v-132h-524zM258 509q0 -87 31.5 -160.5t86.5 -127t128 -84t157 -30.5q83 0 156.5 30t128 84t86 127.5t31.5 160.5q0 86 -31.5 159.5t-86.5 127t-128 84t-157 30.5t-157 -30.5t-127.5 -84t-86 -127t-31.5 -159.5zM104 509q0 112 40.5 210t112.5 170.5
t171 114.5t217 42q67 0 127.5 -14.5t112.5 -40.5t95.5 -62t76.5 -79v558h154v-1408h-134l-12 179q-32 -44 -76 -82t-97 -66t-114.5 -44t-129.5 -16q-118 0 -217.5 42t-172 115t-113.5 171t-41 210z" />
    <glyph glyph-name="Emacron" unicode="&#x112;" horiz-adv-x="1167" 
d="M355 1598v99h550v-99h-550zM180 0v1360h896v-140h-739v-478h643v-138h-643v-465h748v-139h-905z" />
    <glyph glyph-name="emacron" unicode="&#x113;" horiz-adv-x="1181" 
d="M366 1206v99h550v-99h-550zM654 915q-75 0 -142 -26t-120 -72.5t-88.5 -109.5t-46.5 -138h494q105 2 156 45t51 112q0 33 -19 67t-56.5 61t-94.5 44t-134 17zM770 440h-512q12 -73 47.5 -134.5t87.5 -106t118.5 -69.5t139.5 -25q106 0 182 36.5t134 97.5l89 -92
q-33 -36 -75.5 -68t-94.5 -56t-111.5 -38t-125.5 -14q-116 0 -215.5 42.5t-173 115.5t-115 170.5t-41.5 208.5t41.5 208.5t115 171t173.5 116t216 42.5q111 0 196 -27t142.5 -72t87 -103.5t29.5 -121.5q0 -58 -18.5 -109.5t-59 -90t-104 -60.5t-153.5 -22z" />
    <glyph glyph-name="Ebreve" unicode="&#x114;" horiz-adv-x="1167" 
d="M843 1796l111 -10q-14 -106 -88.5 -168.5t-206.5 -62.5t-206.5 62.5t-88.5 168.5l111 10q10 -29 23 -53t34 -40.5t51.5 -25.5t75.5 -9t75.5 9t51.5 25.5t34 40.5t23 53zM180 0v1360h896v-140h-739v-478h643v-138h-643v-465h748v-139h-905z" />
    <glyph glyph-name="ebreve" unicode="&#x115;" horiz-adv-x="1181" 
d="M826 1394l111 -10q-14 -106 -88.5 -168.5t-206.5 -62.5t-206.5 62.5t-88.5 168.5l111 10q10 -29 23 -53t34 -40.5t51.5 -25.5t75.5 -9t75.5 9t51.5 25.5t34 40.5t23 53zM654 915q-75 0 -142 -26t-120 -72.5t-88.5 -109.5t-46.5 -138h494q105 2 156 45t51 112q0 33 -19 67
t-56.5 61t-94.5 44t-134 17zM770 440h-512q12 -73 47.5 -134.5t87.5 -106t118.5 -69.5t139.5 -25q106 0 182 36.5t134 97.5l89 -92q-33 -36 -75.5 -68t-94.5 -56t-111.5 -38t-125.5 -14q-116 0 -215.5 42.5t-173 115.5t-115 170.5t-41.5 208.5t41.5 208.5t115 171t173.5 116
t216 42.5q111 0 196 -27t142.5 -72t87 -103.5t29.5 -121.5q0 -58 -18.5 -109.5t-59 -90t-104 -60.5t-153.5 -22z" />
    <glyph glyph-name="Edotaccent" unicode="&#x116;" horiz-adv-x="1167" 
d="M560 1668q0 35 24.5 58t63.5 23q40 0 64.5 -23t24.5 -58q0 -32 -24.5 -55.5t-64.5 -23.5q-39 0 -63.5 23.5t-24.5 55.5zM180 0v1360h896v-140h-739v-478h643v-138h-643v-465h748v-139h-905z" />
    <glyph glyph-name="edotaccent" unicode="&#x117;" horiz-adv-x="1181" 
d="M558 1264q0 35 24.5 58t63.5 23q40 0 64.5 -23t24.5 -58q0 -32 -24.5 -55.5t-64.5 -23.5q-39 0 -63.5 23.5t-24.5 55.5zM654 915q-75 0 -142 -26t-120 -72.5t-88.5 -109.5t-46.5 -138h494q105 2 156 45t51 112q0 33 -19 67t-56.5 61t-94.5 44t-134 17zM770 440h-512
q12 -73 47.5 -134.5t87.5 -106t118.5 -69.5t139.5 -25q106 0 182 36.5t134 97.5l89 -92q-33 -36 -75.5 -68t-94.5 -56t-111.5 -38t-125.5 -14q-116 0 -215.5 42.5t-173 115.5t-115 170.5t-41.5 208.5t41.5 208.5t115 171t173.5 116t216 42.5q111 0 196 -27t142.5 -72
t87 -103.5t29.5 -121.5q0 -58 -18.5 -109.5t-59 -90t-104 -60.5t-153.5 -22z" />
    <glyph glyph-name="Eogonek" unicode="&#x118;" horiz-adv-x="1167" 
d="M992 38l93 -38q-32 -24 -69 -52t-68.5 -59.5t-52.5 -66t-21 -70.5q0 -29 20 -45.5t55 -16.5q26 0 52 7t58 21l24 -78q-35 -23 -80.5 -40t-97.5 -17q-43 0 -74.5 11.5t-52 30.5t-30 44.5t-9.5 53.5q0 52 24.5 96.5t62 83.5t82 72t84.5 63zM180 0v1360h896v-140h-739v-478
h643v-138h-643v-465h748v-139h-905z" />
    <glyph glyph-name="eogonek" unicode="&#x119;" horiz-adv-x="1181" 
d="M896 116l93 -38q-32 -24 -69 -52t-68.5 -59.5t-52.5 -66t-21 -70.5q0 -29 20 -45.5t55 -16.5q26 0 52 7t58 21l24 -78q-35 -23 -80.5 -40t-97.5 -17q-43 0 -74.5 11.5t-52 30.5t-30 44.5t-9.5 53.5q0 52 24.5 96.5t62 83.5t82 72t84.5 63zM654 915q-75 0 -142 -26
t-120 -72.5t-88.5 -109.5t-46.5 -138h494q105 2 156 45t51 112q0 33 -19 67t-56.5 61t-94.5 44t-134 17zM770 440h-512q12 -73 47.5 -134.5t87.5 -106t118.5 -69.5t139.5 -25q106 0 182 36.5t134 97.5l89 -92q-33 -36 -75.5 -68t-94.5 -56t-111.5 -38t-125.5 -14
q-116 0 -215.5 42.5t-173 115.5t-115 170.5t-41.5 208.5t41.5 208.5t115 171t173.5 116t216 42.5q111 0 196 -27t142.5 -72t87 -103.5t29.5 -121.5q0 -58 -18.5 -109.5t-59 -90t-104 -60.5t-153.5 -22z" />
    <glyph glyph-name="Ecaron" unicode="&#x11a;" horiz-adv-x="1167" 
d="M953 1745l-300 -205l-299 205l56 86l244 -167l244 167zM180 0v1360h896v-140h-739v-478h643v-138h-643v-465h748v-139h-905z" />
    <glyph glyph-name="ecaron" unicode="&#x11b;" horiz-adv-x="1181" 
d="M947 1343l-300 -205l-299 205l56 86l244 -167l244 167zM654 915q-75 0 -142 -26t-120 -72.5t-88.5 -109.5t-46.5 -138h494q105 2 156 45t51 112q0 33 -19 67t-56.5 61t-94.5 44t-134 17zM770 440h-512q12 -73 47.5 -134.5t87.5 -106t118.5 -69.5t139.5 -25
q106 0 182 36.5t134 97.5l89 -92q-33 -36 -75.5 -68t-94.5 -56t-111.5 -38t-125.5 -14q-116 0 -215.5 42.5t-173 115.5t-115 170.5t-41.5 208.5t41.5 208.5t115 171t173.5 116t216 42.5q111 0 196 -27t142.5 -72t87 -103.5t29.5 -121.5q0 -58 -18.5 -109.5t-59 -90
t-104 -60.5t-153.5 -22z" />
    <glyph glyph-name="Gcircumflex" unicode="&#x11c;" horiz-adv-x="1573" 
d="M820 1827l300 -205l-55 -86l-244 167l-244 -167l-56 86zM990 546v120h403v-466q-50 -54 -114 -97t-136 -73t-149 -46.5t-153 -16.5q-150 0 -282.5 54.5t-231 150.5t-155.5 226.5t-57 282.5q0 149 57 279t155.5 227t231 153t282.5 56q154 0 287 -57.5t233 -157.5l-112 -97
q-78 81 -182.5 127.5t-225.5 46.5q-118 0 -221.5 -45t-180.5 -123t-122 -183t-45 -226q0 -120 45 -225t122 -182.5t180.5 -122.5t221.5 -45q109 0 213 40t182 109v291h-246z" />
    <glyph glyph-name="gcircumflex" unicode="&#x11d;" horiz-adv-x="1232" 
d="M616 1436l300 -205l-55 -86l-244 167l-244 -167l-56 86zM287 671q0 -59 25 -110.5t68.5 -89.5t102.5 -60t127 -22q69 0 128 22t102.5 60t68 89.5t24.5 110.5t-24.5 110.5t-68 89t-102.5 59t-128 21.5q-68 0 -127 -21.5t-102.5 -59t-68.5 -89t-25 -110.5zM708 6l-319 -1
q-48 0 -84 7q-36 -30 -65 -74t-29 -99q0 -62 32 -103t86.5 -65t126.5 -34t152 -10q84 0 152.5 17.5t117.5 48t75.5 71t26.5 87.5q0 86 -69 121t-203 34zM1110 1061h108l-1 -113h-78q-39 0 -75 -15.5t-64 -33.5q40 -49 61 -107t21 -122q0 -82 -34.5 -154.5t-97 -126
t-149.5 -84.5t-192 -31q-85 0 -157 20t-130 56q-25 -29 -36.5 -63t-11.5 -63q0 -36 18.5 -56.5t44.5 -30.5t56 -12t54 -2h284q191 0 297 -67.5t106 -198.5q0 -77 -37.5 -142t-106 -112.5t-165 -74t-215.5 -26.5q-111 0 -208.5 18t-170 56.5t-114 99.5t-41.5 147
q0 33 11.5 64.5t30 61t42 55t48.5 45.5q-83 52 -83 152q0 63 31 121.5t74 103.5q-45 51 -69 113t-24 131q0 82 34.5 154.5t96.5 126.5t149 85.5t192 31.5q89 0 165 -22.5t136 -63.5q15 13 35 27t45.5 25.5t55.5 19t64 7.5z" />
    <glyph glyph-name="Gbreve" unicode="&#x11e;" horiz-adv-x="1573" 
d="M1023 1796l111 -10q-14 -106 -88.5 -168.5t-206.5 -62.5t-206.5 62.5t-88.5 168.5l111 10q10 -29 23 -53t34 -40.5t51.5 -25.5t75.5 -9t75.5 9t51.5 25.5t34 40.5t23 53zM990 546v120h403v-466q-50 -54 -114 -97t-136 -73t-149 -46.5t-153 -16.5q-150 0 -282.5 54.5
t-231 150.5t-155.5 226.5t-57 282.5q0 149 57 279t155.5 227t231 153t282.5 56q154 0 287 -57.5t233 -157.5l-112 -97q-78 81 -182.5 127.5t-225.5 46.5q-118 0 -221.5 -45t-180.5 -123t-122 -183t-45 -226q0 -120 45 -225t122 -182.5t180.5 -122.5t221.5 -45q109 0 213 40
t182 109v291h-246z" />
    <glyph glyph-name="gbreve" unicode="&#x11f;" horiz-adv-x="1232" 
d="M791 1416l111 -10q-14 -106 -88.5 -168.5t-206.5 -62.5t-206.5 62.5t-88.5 168.5l111 10q10 -29 23 -53t34 -40.5t51.5 -25.5t75.5 -9t75.5 9t51.5 25.5t34 40.5t23 53zM287 671q0 -59 25 -110.5t68.5 -89.5t102.5 -60t127 -22q69 0 128 22t102.5 60t68 89.5t24.5 110.5
t-24.5 110.5t-68 89t-102.5 59t-128 21.5q-68 0 -127 -21.5t-102.5 -59t-68.5 -89t-25 -110.5zM708 6l-319 -1q-48 0 -84 7q-36 -30 -65 -74t-29 -99q0 -62 32 -103t86.5 -65t126.5 -34t152 -10q84 0 152.5 17.5t117.5 48t75.5 71t26.5 87.5q0 86 -69 121t-203 34z
M1110 1061h108l-1 -113h-78q-39 0 -75 -15.5t-64 -33.5q40 -49 61 -107t21 -122q0 -82 -34.5 -154.5t-97 -126t-149.5 -84.5t-192 -31q-85 0 -157 20t-130 56q-25 -29 -36.5 -63t-11.5 -63q0 -36 18.5 -56.5t44.5 -30.5t56 -12t54 -2h284q191 0 297 -67.5t106 -198.5
q0 -77 -37.5 -142t-106 -112.5t-165 -74t-215.5 -26.5q-111 0 -208.5 18t-170 56.5t-114 99.5t-41.5 147q0 33 11.5 64.5t30 61t42 55t48.5 45.5q-83 52 -83 152q0 63 31 121.5t74 103.5q-45 51 -69 113t-24 131q0 82 34.5 154.5t96.5 126.5t149 85.5t192 31.5
q89 0 165 -22.5t136 -63.5q15 13 35 27t45.5 25.5t55.5 19t64 7.5z" />
    <glyph glyph-name="Gdotaccent" unicode="&#x120;" horiz-adv-x="1573" 
d="M747 1668q0 35 24.5 58t63.5 23q40 0 64.5 -23t24.5 -58q0 -32 -24.5 -55.5t-64.5 -23.5q-39 0 -63.5 23.5t-24.5 55.5zM990 546v120h403v-466q-50 -54 -114 -97t-136 -73t-149 -46.5t-153 -16.5q-150 0 -282.5 54.5t-231 150.5t-155.5 226.5t-57 282.5q0 149 57 279
t155.5 227t231 153t282.5 56q154 0 287 -57.5t233 -157.5l-112 -97q-78 81 -182.5 127.5t-225.5 46.5q-118 0 -221.5 -45t-180.5 -123t-122 -183t-45 -226q0 -120 45 -225t122 -182.5t180.5 -122.5t221.5 -45q109 0 213 40t182 109v291h-246z" />
    <glyph glyph-name="gdotaccent" unicode="&#x121;" horiz-adv-x="1232" 
d="M537 1262q0 35 24.5 58t63.5 23q40 0 64.5 -23t24.5 -58q0 -32 -24.5 -55.5t-64.5 -23.5q-39 0 -63.5 23.5t-24.5 55.5zM287 671q0 -59 25 -110.5t68.5 -89.5t102.5 -60t127 -22q69 0 128 22t102.5 60t68 89.5t24.5 110.5t-24.5 110.5t-68 89t-102.5 59t-128 21.5
q-68 0 -127 -21.5t-102.5 -59t-68.5 -89t-25 -110.5zM708 6l-319 -1q-48 0 -84 7q-36 -30 -65 -74t-29 -99q0 -62 32 -103t86.5 -65t126.5 -34t152 -10q84 0 152.5 17.5t117.5 48t75.5 71t26.5 87.5q0 86 -69 121t-203 34zM1110 1061h108l-1 -113h-78q-39 0 -75 -15.5
t-64 -33.5q40 -49 61 -107t21 -122q0 -82 -34.5 -154.5t-97 -126t-149.5 -84.5t-192 -31q-85 0 -157 20t-130 56q-25 -29 -36.5 -63t-11.5 -63q0 -36 18.5 -56.5t44.5 -30.5t56 -12t54 -2h284q191 0 297 -67.5t106 -198.5q0 -77 -37.5 -142t-106 -112.5t-165 -74
t-215.5 -26.5q-111 0 -208.5 18t-170 56.5t-114 99.5t-41.5 147q0 33 11.5 64.5t30 61t42 55t48.5 45.5q-83 52 -83 152q0 63 31 121.5t74 103.5q-45 51 -69 113t-24 131q0 82 34.5 154.5t96.5 126.5t149 85.5t192 31.5q89 0 165 -22.5t136 -63.5q15 13 35 27t45.5 25.5
t55.5 19t64 7.5z" />
    <glyph glyph-name="uni0122" unicode="&#x122;" horiz-adv-x="1573" 
d="M792 -97l141 -17l-164 -401l-111 6zM990 546v120h403v-466q-50 -54 -114 -97t-136 -73t-149 -46.5t-153 -16.5q-150 0 -282.5 54.5t-231 150.5t-155.5 226.5t-57 282.5q0 149 57 279t155.5 227t231 153t282.5 56q154 0 287 -57.5t233 -157.5l-112 -97
q-78 81 -182.5 127.5t-225.5 46.5q-118 0 -221.5 -45t-180.5 -123t-122 -183t-45 -226q0 -120 45 -225t122 -182.5t180.5 -122.5t221.5 -45q109 0 213 40t182 109v291h-246z" />
    <glyph glyph-name="uni0123" unicode="&#x123;" horiz-adv-x="1232" 
d="M720 1656l141 -17l-184 -466l-111 7zM287 671q0 -59 25 -110.5t68.5 -89.5t102.5 -60t127 -22q69 0 128 22t102.5 60t68 89.5t24.5 110.5t-24.5 110.5t-68 89t-102.5 59t-128 21.5q-68 0 -127 -21.5t-102.5 -59t-68.5 -89t-25 -110.5zM708 6l-319 -1q-48 0 -84 7
q-36 -30 -65 -74t-29 -99q0 -62 32 -103t86.5 -65t126.5 -34t152 -10q84 0 152.5 17.5t117.5 48t75.5 71t26.5 87.5q0 86 -69 121t-203 34zM1110 1061h108l-1 -113h-78q-39 0 -75 -15.5t-64 -33.5q40 -49 61 -107t21 -122q0 -82 -34.5 -154.5t-97 -126t-149.5 -84.5
t-192 -31q-85 0 -157 20t-130 56q-25 -29 -36.5 -63t-11.5 -63q0 -36 18.5 -56.5t44.5 -30.5t56 -12t54 -2h284q191 0 297 -67.5t106 -198.5q0 -77 -37.5 -142t-106 -112.5t-165 -74t-215.5 -26.5q-111 0 -208.5 18t-170 56.5t-114 99.5t-41.5 147q0 33 11.5 64.5t30 61
t42 55t48.5 45.5q-83 52 -83 152q0 63 31 121.5t74 103.5q-45 51 -69 113t-24 131q0 82 34.5 154.5t96.5 126.5t149 85.5t192 31.5q89 0 165 -22.5t136 -63.5q15 13 35 27t45.5 25.5t55.5 19t64 7.5z" />
    <glyph glyph-name="Hcircumflex" unicode="&#x124;" horiz-adv-x="1488" 
d="M755 1827l300 -205l-55 -86l-244 167l-244 -167l-56 86zM180 0v1360h157v-618h813v618h158v-1360h-158v604h-813v-604h-157z" />
    <glyph glyph-name="hcircumflex" unicode="&#x125;" horiz-adv-x="1309" 
d="M244 1724l300 -205l-55 -86l-244 167l-244 -167l-56 86zM1167 559v-559h-155v556q0 96 -22 163.5t-64 109.5t-104 61.5t-143 19.5q-70 0 -132.5 -24t-109.5 -69t-74.5 -109t-27.5 -144v-565h-154v1409h153l-1 -531q29 36 69 67t87.5 53.5t102 35.5t113.5 13
q234 0 348 -120t114 -367z" />
    <glyph glyph-name="Hbar" unicode="&#x126;" horiz-adv-x="1488" 
d="M337 979v-237h813v237h-813zM337 0h-157v1360h157v-268h813v268h158v-1360h-158v604h-813v-604z" />
    <glyph glyph-name="hbar" unicode="&#x127;" horiz-adv-x="1309" 
d="M42 1158v94h547v-94h-547zM1167 559v-559h-155v556q0 96 -22 163.5t-64 109.5t-104 61.5t-143 19.5q-70 0 -132.5 -24t-109.5 -69t-74.5 -109t-27.5 -144v-565h-154v1409h153l-1 -531q29 36 69 67t87.5 53.5t102 35.5t113.5 13q234 0 348 -120t114 -367z" />
    <glyph glyph-name="Itilde" unicode="&#x128;" horiz-adv-x="517" 
d="M522 1751l72 -50q-45 -82 -99 -121.5t-118 -39.5q-43 0 -81 11.5t-72.5 26t-65 26t-57.5 11.5q-26 0 -51.5 -13.5t-49.5 -53.5l-70 50q30 57 75.5 90.5t105.5 33.5q10 0 20 -1t21 -3q33 -6 62.5 -17t57.5 -22.5t54.5 -20t52.5 -8.5q37 0 72.5 22t70.5 79zM180 0v1360h157
v-1360h-157z" />
    <glyph glyph-name="itilde" unicode="&#x129;" horiz-adv-x="517" 
d="M504 1349l72 -50q-45 -82 -99 -121.5t-118 -39.5q-43 0 -81 11.5t-72.5 26t-65 26t-57.5 11.5q-26 0 -51.5 -13.5t-49.5 -53.5l-70 50q30 57 75.5 90.5t105.5 33.5q10 0 20 -1t21 -3q33 -6 62.5 -17t57.5 -22.5t54.5 -20t52.5 -8.5q37 0 72.5 22t70.5 79zM181 0v1018h155
v-1018h-155z" />
    <glyph glyph-name="Imacron" unicode="&#x12a;" horiz-adv-x="517" 
d="M-13 1598v99h550v-99h-550zM180 0v1360h157v-1360h-157z" />
    <glyph glyph-name="imacron" unicode="&#x12b;" horiz-adv-x="517" 
d="M-23 1209v99h550v-99h-550zM181 0v1018h155v-1018h-155z" />
    <glyph glyph-name="Ibreve" unicode="&#x12c;" horiz-adv-x="517" 
d="M443 1793l111 -10q-14 -106 -88.5 -168.5t-206.5 -62.5t-206.5 62.5t-88.5 168.5l111 10q10 -29 23 -53t34 -40.5t51.5 -25.5t75.5 -9t75.5 9t51.5 25.5t34 40.5t23 53zM180 0v1360h157v-1360h-157z" />
    <glyph glyph-name="ibreve" unicode="&#x12d;" horiz-adv-x="517" 
d="M429 1394l111 -10q-14 -106 -88.5 -168.5t-206.5 -62.5t-206.5 62.5t-88.5 168.5l111 10q10 -29 23 -53t34 -40.5t51.5 -25.5t75.5 -9t75.5 9t51.5 25.5t34 40.5t23 53zM181 0v1018h155v-1018h-155z" />
    <glyph glyph-name="Iogonek" unicode="&#x12e;" horiz-adv-x="517" 
d="M244 38l93 -38q-32 -24 -69 -52t-68.5 -59.5t-52.5 -66t-21 -70.5q0 -29 20 -45.5t55 -16.5q26 0 52 7t58 21l24 -78q-35 -23 -80.5 -40t-97.5 -17q-43 0 -74.5 11.5t-52 30.5t-30 44.5t-9.5 53.5q0 52 24.5 96.5t62 83.5t82 72t84.5 63zM180 0v1360h157v-1360h-157z" />
    <glyph glyph-name="iogonek" unicode="&#x12f;" horiz-adv-x="517" 
d="M230 38l93 -38q-32 -24 -69 -52t-68.5 -59.5t-52.5 -66t-21 -70.5q0 -29 20 -45.5t55 -16.5q26 0 52 7t58 21l24 -78q-35 -23 -80.5 -40t-97.5 -17q-43 0 -74.5 11.5t-52 30.5t-30 44.5t-9.5 53.5q0 52 24.5 96.5t62 83.5t82 72t84.5 63zM181 0h155v1018h-155v-1018z
M152 1325q0 40 29.5 69t77.5 29t78.5 -29t30.5 -69q0 -42 -30.5 -70t-78.5 -28t-77.5 28.5t-29.5 69.5z" />
    <glyph glyph-name="Idotaccent" unicode="&#x130;" horiz-adv-x="517" 
d="M171 1668q0 35 24.5 58t63.5 23q40 0 64.5 -23t24.5 -58q0 -32 -24.5 -55.5t-64.5 -23.5q-39 0 -63.5 23.5t-24.5 55.5zM180 0v1360h157v-1360h-157z" />
    <glyph glyph-name="dotlessi" unicode="&#x131;" horiz-adv-x="524" 
d="M181 0v1018h155v-1018h-155z" />
    <glyph glyph-name="Jcircumflex" unicode="&#x134;" horiz-adv-x="777" 
d="M548 1810l300 -205l-55 -86l-244 167l-244 -167l-56 86zM46 0v138h136q80 0 135 20.5t88.5 58.5t48 93t14.5 125v925h157v-926q0 -212 -109.5 -323t-334.5 -111h-135z" />
    <glyph glyph-name="jcircumflex" unicode="&#x135;" horiz-adv-x="517" 
d="M245 1425l300 -205l-55 -86l-244 167l-244 -167l-56 86zM181 1018h155v-1036q0 -82 -21 -146.5t-61.5 -109.5t-100.5 -69t-137 -24h-90v136h83q45 0 77.5 15.5t53.5 44t31 67.5t10 87v1035z" />
    <glyph glyph-name="uni0136" unicode="&#x136;" horiz-adv-x="1304" 
d="M572 -97l141 -17l-164 -401l-111 6zM337 1360v-883l725 883h186l-496 -600l529 -760h-190l-441 642l-313 -374v-268h-157v1360h157z" />
    <glyph glyph-name="uni0137" unicode="&#x137;" horiz-adv-x="1100" 
d="M536 -97l141 -17l-164 -401l-111 6zM181 0v1408h154v-991l530 601h183l-379 -433l410 -585h-187l-334 482l-223 -245v-237h-154z" />
    <glyph glyph-name="kgreenlandic" unicode="&#x138;" horiz-adv-x="1100" 
d="M181 0v1018h154v-601l530 601h183l-379 -433l410 -585h-187l-334 482l-223 -245v-237h-154z" />
    <glyph glyph-name="Lacute" unicode="&#x139;" horiz-adv-x="1062" 
d="M412 1741l118 -42l-175 -237h-115zM180 0v1360h157v-1221h673v-139h-830z" />
    <glyph glyph-name="lacute" unicode="&#x13a;" horiz-adv-x="619" 
d="M363 1822l118 -42l-175 -237h-115zM180 1408h154v-1106q0 -48 5.5 -80t21 -51.5t43 -27.5t72.5 -8h43v-136h-50q-90 0 -146.5 16.5t-88 52.5t-43 93.5t-11.5 139.5v1107z" />
    <glyph glyph-name="uni013B" unicode="&#x13b;" horiz-adv-x="1062" 
d="M584 -133l141 -17l-164 -401l-111 6zM180 0v1360h157v-1221h673v-139h-830z" />
    <glyph glyph-name="uni013C" unicode="&#x13c;" horiz-adv-x="619" 
d="M283 -97l141 -17l-164 -401l-111 6zM180 1408h154v-1106q0 -48 5.5 -80t21 -51.5t43 -27.5t72.5 -8h43v-136h-50q-90 0 -146.5 16.5t-88 52.5t-43 93.5t-11.5 139.5v1107z" />
    <glyph glyph-name="Lcaron" unicode="&#x13d;" horiz-adv-x="1062" 
d="M803 1359l141 -17l-184 -466l-111 7zM180 0v1360h157v-1221h673v-139h-830z" />
    <glyph glyph-name="lcaron" unicode="&#x13e;" horiz-adv-x="698" 
d="M408 1097l113 347h153l-150 -347h-116zM180 1408h154v-1106q0 -48 5.5 -80t21 -51.5t43 -27.5t72.5 -8h43v-136h-50q-90 0 -146.5 16.5t-88 52.5t-43 93.5t-11.5 139.5v1107z" />
    <glyph glyph-name="Ldot" unicode="&#x13f;" horiz-adv-x="1062" 
d="M705 591q0 42 29 71.5t76 29.5q46 0 75.5 -29.5t29.5 -71.5t-29.5 -71.5t-75.5 -29.5q-47 0 -76 29.5t-29 71.5zM180 0v1360h157v-1221h673v-139h-830z" />
    <glyph glyph-name="ldot" unicode="&#x140;" horiz-adv-x="673" 
d="M418 693q0 35 24.5 58t63.5 23q40 0 64.5 -23t24.5 -58q0 -32 -24.5 -55.5t-64.5 -23.5q-39 0 -63.5 23.5t-24.5 55.5zM180 1408h154v-1106q0 -48 5.5 -80t21 -51.5t43 -27.5t72.5 -8h43v-136h-50q-90 0 -146.5 16.5t-88 52.5t-43 93.5t-11.5 139.5v1107z" />
    <glyph glyph-name="Lslash" unicode="&#x141;" horiz-adv-x="1062" 
d="M180 0v544l-185 -81l1 131l184 81v685h157v-615l178 79v-133l-178 -78v-474h673v-139h-830z" />
    <glyph glyph-name="lslash" unicode="&#x142;" horiz-adv-x="619" 
d="M180 1408h154v-587l154 80l-1 -134l-153 -78v-387q0 -48 5.5 -80t21 -51.5t43 -27.5t72.5 -8h43v-136h-50q-90 0 -146.5 16.5t-88 52.5t-43 93.5t-11.5 139.5v309l-157 -80v131l157 81v666z" />
    <glyph glyph-name="Nacute" unicode="&#x143;" horiz-adv-x="1512" 
d="M926 1818l118 -42l-175 -237h-115zM1333 1360v-1360h-133l-863 1082v-1082h-157v1360h130l866 -1085v1085h157z" />
    <glyph glyph-name="nacute" unicode="&#x144;" horiz-adv-x="1309" 
d="M800 1428l118 -42l-175 -237h-115zM1167 552v-552h-155v550q0 95 -21.5 163t-63.5 112t-102.5 64.5t-138.5 20.5q-73 0 -137 -26.5t-111.5 -75t-75 -116t-27.5 -149.5v-543h-154v1018h128l14 -150q30 38 71.5 70.5t90.5 56.5t105 37.5t115 13.5q234 0 348 -123t114 -371z
" />
    <glyph glyph-name="uni0145" unicode="&#x145;" horiz-adv-x="1512" 
d="M758 -97l141 -17l-164 -401l-111 6zM1333 1360v-1360h-133l-863 1082v-1082h-157v1360h130l866 -1085v1085h157z" />
    <glyph glyph-name="uni0146" unicode="&#x146;" horiz-adv-x="1309" 
d="M624 -97l141 -17l-164 -401l-111 6zM1167 552v-552h-155v550q0 95 -21.5 163t-63.5 112t-102.5 64.5t-138.5 20.5q-73 0 -137 -26.5t-111.5 -75t-75 -116t-27.5 -149.5v-543h-154v1018h128l14 -150q30 38 71.5 70.5t90.5 56.5t105 37.5t115 13.5q234 0 348 -123t114 -371
z" />
    <glyph glyph-name="Ncaron" unicode="&#x147;" horiz-adv-x="1512" 
d="M1061 1733l-300 -205l-299 205l56 86l244 -167l244 167zM1333 1360v-1360h-133l-863 1082v-1082h-157v1360h130l866 -1085v1085h157z" />
    <glyph glyph-name="ncaron" unicode="&#x148;" horiz-adv-x="1309" 
d="M994 1343l-300 -205l-299 205l56 86l244 -167l244 167zM1167 552v-552h-155v550q0 95 -21.5 163t-63.5 112t-102.5 64.5t-138.5 20.5q-73 0 -137 -26.5t-111.5 -75t-75 -116t-27.5 -149.5v-543h-154v1018h128l14 -150q30 38 71.5 70.5t90.5 56.5t105 37.5t115 13.5
q234 0 348 -123t114 -371z" />
    <glyph glyph-name="napostrophe" unicode="&#x149;" horiz-adv-x="1326" 
d="M60 1386l141 -17l-164 -401l-111 6zM1186 552v-552h-155v550q0 95 -21.5 163t-63.5 112t-102.5 64.5t-138.5 20.5q-73 0 -137 -26.5t-111.5 -75t-75 -116t-27.5 -149.5v-543h-154v1018h128l14 -150q30 38 71.5 70.5t90.5 56.5t105 37.5t115 13.5q234 0 348 -123t114 -371
z" />
    <glyph glyph-name="Eng" unicode="&#x14a;" horiz-adv-x="1512" 
d="M1346 1360v-1702h-157l1 367l-853 1062v-1087h-157v1360h135l874 -1090v1090h157z" />
    <glyph glyph-name="eng" unicode="&#x14b;" horiz-adv-x="1309" 
d="M1167 559v-902h-155v899q0 96 -22 163.5t-64 109.5t-104 61.5t-143 19.5q-70 0 -132.5 -24t-109.5 -69t-74.5 -109t-27.5 -144v-565h-154v1019h127l17 -151q29 38 69 71t89 57t105 37.5t117 13.5q234 0 348 -120t114 -367z" />
    <glyph glyph-name="Omacron" unicode="&#x14c;" horiz-adv-x="1670" 
d="M526 1598v99h550v-99h-550zM108 681q0 149 57 278t155.5 225t231 151t282.5 55t282.5 -55t231.5 -151t156 -225t57 -278q0 -147 -57 -276t-156 -225t-231.5 -151t-282.5 -55t-282.5 55t-231 151t-155.5 225t-57 276zM265 681q0 -120 45 -224t122 -180.5t180.5 -120.5
t221.5 -44t222 44t181 120.5t122 180.5t45 224q0 121 -45 225t-122 181t-181 121t-222 44t-221.5 -44t-180.5 -121t-122 -181t-45 -225z" />
    <glyph glyph-name="omacron" unicode="&#x14d;" horiz-adv-x="1314" 
d="M375 1221v99h550v-99h-550zM104 509q0 112 42 210t116.5 170.5t175.5 114.5t219 42t219.5 -42t175.5 -114.5t116.5 -170.5t42.5 -210t-42.5 -210t-116.5 -171t-175.5 -114.5t-220.5 -41.5q-117 0 -218 42t-175.5 114.5t-116.5 170.5t-42 210zM258 509q0 -87 31.5 -160.5
t85.5 -127t127 -83.5t156 -30t156 30t127 83.5t85.5 127t31.5 160.5q0 86 -31.5 159.5t-85.5 127t-127 84t-156 30.5t-156 -30.5t-127 -84t-85.5 -127t-31.5 -159.5z" />
    <glyph glyph-name="Obreve" unicode="&#x14e;" horiz-adv-x="1670" 
d="M985 1796l111 -10q-14 -106 -88.5 -168.5t-206.5 -62.5t-206.5 62.5t-88.5 168.5l111 10q10 -29 23 -53t34 -40.5t51.5 -25.5t75.5 -9t75.5 9t51.5 25.5t34 40.5t23 53zM108 681q0 149 57 278t155.5 225t231 151t282.5 55t282.5 -55t231.5 -151t156 -225t57 -278
q0 -147 -57 -276t-156 -225t-231.5 -151t-282.5 -55t-282.5 55t-231 151t-155.5 225t-57 276zM265 681q0 -120 45 -224t122 -180.5t180.5 -120.5t221.5 -44t222 44t181 120.5t122 180.5t45 224q0 121 -45 225t-122 181t-181 121t-222 44t-221.5 -44t-180.5 -121t-122 -181
t-45 -225z" />
    <glyph glyph-name="obreve" unicode="&#x14f;" horiz-adv-x="1314" 
d="M812 1394l111 -10q-14 -106 -88.5 -168.5t-206.5 -62.5t-206.5 62.5t-88.5 168.5l111 10q10 -29 23 -53t34 -40.5t51.5 -25.5t75.5 -9t75.5 9t51.5 25.5t34 40.5t23 53zM104 509q0 112 42 210t116.5 170.5t175.5 114.5t219 42t219.5 -42t175.5 -114.5t116.5 -170.5
t42.5 -210t-42.5 -210t-116.5 -171t-175.5 -114.5t-220.5 -41.5q-117 0 -218 42t-175.5 114.5t-116.5 170.5t-42 210zM258 509q0 -87 31.5 -160.5t85.5 -127t127 -83.5t156 -30t156 30t127 83.5t85.5 127t31.5 160.5q0 86 -31.5 159.5t-85.5 127t-127 84t-156 30.5
t-156 -30.5t-127 -84t-85.5 -127t-31.5 -159.5z" />
    <glyph glyph-name="Ohungarumlaut" unicode="&#x150;" horiz-adv-x="1670" 
d="M731 1832l128 -4l-171 -309l-95 6zM1048 1832l128 -4l-172 -309l-95 6zM108 681q0 149 57 278t155.5 225t231 151t282.5 55t282.5 -55t231.5 -151t156 -225t57 -278q0 -147 -57 -276t-156 -225t-231.5 -151t-282.5 -55t-282.5 55t-231 151t-155.5 225t-57 276zM265 681
q0 -120 45 -224t122 -180.5t180.5 -120.5t221.5 -44t222 44t181 120.5t122 180.5t45 224q0 121 -45 225t-122 181t-181 121t-222 44t-221.5 -44t-180.5 -121t-122 -181t-45 -225z" />
    <glyph glyph-name="ohungarumlaut" unicode="&#x151;" horiz-adv-x="1314" 
d="M550 1426l128 -4l-171 -309l-95 6zM867 1426l128 -4l-172 -309l-95 6zM104 509q0 112 42 210t116.5 170.5t175.5 114.5t219 42t219.5 -42t175.5 -114.5t116.5 -170.5t42.5 -210t-42.5 -210t-116.5 -171t-175.5 -114.5t-220.5 -41.5q-117 0 -218 42t-175.5 114.5
t-116.5 170.5t-42 210zM258 509q0 -87 31.5 -160.5t85.5 -127t127 -83.5t156 -30t156 30t127 83.5t85.5 127t31.5 160.5q0 86 -31.5 159.5t-85.5 127t-127 84t-156 30.5t-156 -30.5t-127 -84t-85.5 -127t-31.5 -159.5z" />
    <glyph glyph-name="OE" unicode="&#x152;" horiz-adv-x="2274" 
d="M1241 283v797q-81 85 -186 128.5t-221 43.5q-118 0 -221.5 -44t-180.5 -121t-122 -181t-45 -225q0 -120 45 -224t122 -180.5t180.5 -120.5t221.5 -44q116 0 221 43t186 128zM2146 0h-905v113q-82 -61 -185 -100t-222 -39q-150 0 -282.5 55t-231 151t-155.5 225t-57 276
q0 149 57 278t155.5 225t231 151t282.5 55q119 0 222.5 -39t184.5 -99v108h896v-140h-739v-478h643v-138h-643v-465h748v-139z" />
    <glyph glyph-name="oe" unicode="&#x153;" horiz-adv-x="2139" 
d="M1615 915q-75 0 -142 -26t-120 -72.5t-88.5 -109.5t-46.5 -138h494q105 2 156 45t51 112q0 33 -19 67t-56.5 61t-94.5 44t-134 17zM1731 440h-512q12 -73 47.5 -134.5t87.5 -106t118.5 -69.5t139.5 -25q106 0 182 36.5t134 97.5l89 -92q-33 -36 -75.5 -68t-94.5 -56
t-111.5 -38t-125.5 -14q-116 0 -215.5 42.5t-173 115.5t-115 170.5t-41.5 208.5t41.5 208.5t115 171t173.5 116t216 42.5q111 0 196 -27t142.5 -72t87 -103.5t29.5 -121.5q0 -58 -18.5 -109.5t-59 -90t-104 -60.5t-153.5 -22zM112 509q0 112 42 210t116.5 170.5t175.5 114.5
t219 42t219.5 -42t175.5 -114.5t116.5 -170.5t42.5 -210t-42.5 -210t-116.5 -171t-175.5 -114.5t-220.5 -41.5q-117 0 -218 42t-175.5 114.5t-116.5 170.5t-42 210zM266 509q0 -87 31.5 -160.5t85.5 -127t127 -83.5t156 -30t156 30t127 83.5t85.5 127t31.5 160.5
q0 86 -31.5 159.5t-85.5 127t-127 84t-156 30.5t-156 -30.5t-127 -84t-85.5 -127t-31.5 -159.5z" />
    <glyph glyph-name="Racute" unicode="&#x154;" horiz-adv-x="1288" 
d="M672 1818l118 -42l-175 -237h-115zM337 652h415q63 0 116.5 20.5t92.5 57.5t61 89.5t22 116.5q0 63 -22.5 116t-62 90.5t-93.5 58.5t-117 21h-412v-570zM1230 0h-182l-309 514h-402v-514h-157v1360h575q98 0 179.5 -30.5t141 -86t92.5 -133.5t33 -174q0 -76 -21.5 -141.5
t-60.5 -117.5t-94 -88.5t-123 -55.5z" />
    <glyph glyph-name="racute" unicode="&#x155;" horiz-adv-x="850" 
d="M453 1428l118 -42l-175 -237h-115zM803 1018v-138h-109q-80 0 -146.5 -24t-114 -71t-74 -117t-26.5 -162v-506h-153v1018h128l16 -170q26 37 62.5 68t82 53.5t100.5 35.5t118 13h116z" />
    <glyph glyph-name="uni0156" unicode="&#x156;" horiz-adv-x="1288" 
d="M642 -97l141 -17l-164 -401l-111 6zM337 652h415q63 0 116.5 20.5t92.5 57.5t61 89.5t22 116.5q0 63 -22.5 116t-62 90.5t-93.5 58.5t-117 21h-412v-570zM1230 0h-182l-309 514h-402v-514h-157v1360h575q98 0 179.5 -30.5t141 -86t92.5 -133.5t33 -174
q0 -76 -21.5 -141.5t-60.5 -117.5t-94 -88.5t-123 -55.5z" />
    <glyph glyph-name="uni0157" unicode="&#x157;" horiz-adv-x="850" 
d="M220 -104l141 -17l-164 -401l-111 6zM803 1018v-138h-109q-80 0 -146.5 -24t-114 -71t-74 -117t-26.5 -162v-506h-153v1018h128l16 -170q26 37 62.5 68t82 53.5t100.5 35.5t118 13h116z" />
    <glyph glyph-name="Rcaron" unicode="&#x158;" horiz-adv-x="1288" 
d="M944 1733l-300 -205l-299 205l56 86l244 -167l244 167zM337 652h415q63 0 116.5 20.5t92.5 57.5t61 89.5t22 116.5q0 63 -22.5 116t-62 90.5t-93.5 58.5t-117 21h-412v-570zM1230 0h-182l-309 514h-402v-514h-157v1360h575q98 0 179.5 -30.5t141 -86t92.5 -133.5t33 -174
q0 -76 -21.5 -141.5t-60.5 -117.5t-94 -88.5t-123 -55.5z" />
    <glyph glyph-name="rcaron" unicode="&#x159;" horiz-adv-x="850" 
d="M736 1345l-300 -205l-299 205l56 86l244 -167l244 167zM803 1018v-138h-109q-80 0 -146.5 -24t-114 -71t-74 -117t-26.5 -162v-506h-153v1018h128l16 -170q26 37 62.5 68t82 53.5t100.5 35.5t118 13h116z" />
    <glyph glyph-name="Sacute" unicode="&#x15a;" horiz-adv-x="1261" 
d="M761 1786l118 -42l-175 -237h-115zM64 108l58 133q36 -18 85.5 -40.5t109 -42t128 -33t141.5 -13.5q195 0 293.5 68.5t98.5 198.5q0 65 -30 110t-82.5 76t-123.5 50t-153 33q-49 7 -103 16.5t-107 25.5t-101 40t-85 59t-58.5 84t-21.5 114q0 80 27 153t87 128.5t157 88.5
t238 33q75 0 143.5 -13t129.5 -32.5t114.5 -43.5t98.5 -46l-50 -133q-30 17 -78.5 39t-108.5 42t-127 33.5t-134 13.5q-99 0 -164 -22t-104 -57.5t-55 -80t-16 -90.5q0 -59 28.5 -98.5t79.5 -65.5t122 -41t156 -25q84 -14 169.5 -36.5t155 -66t113 -113.5t43.5 -180
q0 -94 -38.5 -169t-111 -126.5t-176.5 -79t-235 -27.5q-77 0 -149.5 10.5t-138.5 29t-123 43.5t-102 53z" />
    <glyph glyph-name="sacute" unicode="&#x15b;" horiz-adv-x="1018" 
d="M634 1428l118 -42l-175 -237h-115zM92 73l48 128q86 -54 172 -76.5t164 -22.5q156 0 234.5 49.5t78.5 131.5q0 45 -22 74.5t-62.5 50t-99 33.5t-131.5 23q-60 8 -125.5 22t-120.5 43.5t-90.5 79.5t-35.5 130q0 61 23 116.5t74 98t133 67.5t200 25q113 0 211 -30t175 -72
l-46 -122q-32 17 -70.5 33.5t-81 30.5t-89 22.5t-94.5 8.5q-79 0 -132.5 -15.5t-86 -40.5t-46.5 -56.5t-14 -63.5q0 -73 74.5 -109.5t222.5 -50.5q67 -9 138 -23.5t129.5 -45.5t96 -83.5t37.5 -136.5q0 -74 -32 -133.5t-92 -101t-146.5 -64t-194.5 -22.5q-111 0 -209.5 23
t-189.5 79z" />
    <glyph glyph-name="Scircumflex" unicode="&#x15c;" horiz-adv-x="1261" 
d="M676 1788l300 -205l-55 -86l-244 167l-244 -167l-56 86zM64 108l58 133q36 -18 85.5 -40.5t109 -42t128 -33t141.5 -13.5q195 0 293.5 68.5t98.5 198.5q0 65 -30 110t-82.5 76t-123.5 50t-153 33q-49 7 -103 16.5t-107 25.5t-101 40t-85 59t-58.5 84t-21.5 114
q0 80 27 153t87 128.5t157 88.5t238 33q75 0 143.5 -13t129.5 -32.5t114.5 -43.5t98.5 -46l-50 -133q-30 17 -78.5 39t-108.5 42t-127 33.5t-134 13.5q-99 0 -164 -22t-104 -57.5t-55 -80t-16 -90.5q0 -59 28.5 -98.5t79.5 -65.5t122 -41t156 -25q84 -14 169.5 -36.5
t155 -66t113 -113.5t43.5 -180q0 -94 -38.5 -169t-111 -126.5t-176.5 -79t-235 -27.5q-77 0 -149.5 10.5t-138.5 29t-123 43.5t-102 53z" />
    <glyph glyph-name="scircumflex" unicode="&#x15d;" horiz-adv-x="1018" 
d="M511 1425l300 -205l-55 -86l-244 167l-244 -167l-56 86zM92 73l48 128q86 -54 172 -76.5t164 -22.5q156 0 234.5 49.5t78.5 131.5q0 45 -22 74.5t-62.5 50t-99 33.5t-131.5 23q-60 8 -125.5 22t-120.5 43.5t-90.5 79.5t-35.5 130q0 61 23 116.5t74 98t133 67.5t200 25
q113 0 211 -30t175 -72l-46 -122q-32 17 -70.5 33.5t-81 30.5t-89 22.5t-94.5 8.5q-79 0 -132.5 -15.5t-86 -40.5t-46.5 -56.5t-14 -63.5q0 -73 74.5 -109.5t222.5 -50.5q67 -9 138 -23.5t129.5 -45.5t96 -83.5t37.5 -136.5q0 -74 -32 -133.5t-92 -101t-146.5 -64
t-194.5 -22.5q-111 0 -209.5 23t-189.5 79z" />
    <glyph glyph-name="Scedilla" unicode="&#x15e;" horiz-adv-x="1261" 
d="M496 -186l73 198l86 -2l-49 -125q32 -8 59.5 -22t48 -35.5t32.5 -51t12 -67.5q0 -47 -20 -88t-52 -71t-72.5 -47t-82.5 -17t-78.5 6t-65.5 25l33 87q46 -20 100 -20q21 0 43 9.5t40.5 26t30 39t11.5 47.5q0 31 -14 52t-35.5 33.5t-48 17.5t-51.5 5zM64 108l58 133
q36 -18 85.5 -40.5t109 -42t128 -33t141.5 -13.5q195 0 293.5 68.5t98.5 198.5q0 65 -30 110t-82.5 76t-123.5 50t-153 33q-49 7 -103 16.5t-107 25.5t-101 40t-85 59t-58.5 84t-21.5 114q0 80 27 153t87 128.5t157 88.5t238 33q75 0 143.5 -13t129.5 -32.5t114.5 -43.5
t98.5 -46l-50 -133q-30 17 -78.5 39t-108.5 42t-127 33.5t-134 13.5q-99 0 -164 -22t-104 -57.5t-55 -80t-16 -90.5q0 -59 28.5 -98.5t79.5 -65.5t122 -41t156 -25q84 -14 169.5 -36.5t155 -66t113 -113.5t43.5 -180q0 -94 -38.5 -169t-111 -126.5t-176.5 -79t-235 -27.5
q-77 0 -149.5 10.5t-138.5 29t-123 43.5t-102 53z" />
    <glyph glyph-name="scedilla" unicode="&#x15f;" horiz-adv-x="1018" 
d="M389 -179l73 198l86 -2l-49 -125q32 -8 59.5 -22t48 -35.5t32.5 -51t12 -67.5q0 -47 -20 -88t-52 -71t-72.5 -47t-82.5 -17t-78.5 6t-65.5 25l33 87q46 -20 100 -20q21 0 43 9.5t40.5 26t30 39t11.5 47.5q0 31 -14 52t-35.5 33.5t-48 17.5t-51.5 5zM92 73
q91 -56 189.5 -79t209.5 -23q108 0 194.5 22.5t146.5 64t92 101t32 133.5q0 84 -37.5 136.5t-96 83.5t-129.5 45.5t-138 23.5q-148 14 -222.5 50.5t-74.5 109.5q0 32 14 63.5t46.5 56.5t86 40.5t132.5 15.5q48 0 94.5 -8.5t89 -22.5t81 -30.5t70.5 -33.5l46 122
q-77 42 -175 72t-211 30q-118 0 -200 -25t-133 -67.5t-74 -98t-23 -116.5q0 -80 35.5 -130t90.5 -79.5t120.5 -43.5t125.5 -22q73 -10 131.5 -23t99 -33.5t62.5 -50t22 -74.5q0 -82 -78.5 -131.5t-234.5 -49.5q-78 0 -164 22.5t-172 76.5z" />
    <glyph glyph-name="Scaron" unicode="&#x160;" horiz-adv-x="1261" 
d="M970 1711l-300 -205l-299 205l56 86l244 -167l244 167zM64 108l58 133q36 -18 85.5 -40.5t109 -42t128 -33t141.5 -13.5q195 0 293.5 68.5t98.5 198.5q0 65 -30 110t-82.5 76t-123.5 50t-153 33q-49 7 -103 16.5t-107 25.5t-101 40t-85 59t-58.5 84t-21.5 114
q0 80 27 153t87 128.5t157 88.5t238 33q75 0 143.5 -13t129.5 -32.5t114.5 -43.5t98.5 -46l-50 -133q-30 17 -78.5 39t-108.5 42t-127 33.5t-134 13.5q-99 0 -164 -22t-104 -57.5t-55 -80t-16 -90.5q0 -59 28.5 -98.5t79.5 -65.5t122 -41t156 -25q84 -14 169.5 -36.5
t155 -66t113 -113.5t43.5 -180q0 -94 -38.5 -169t-111 -126.5t-176.5 -79t-235 -27.5q-77 0 -149.5 10.5t-138.5 29t-123 43.5t-102 53z" />
    <glyph glyph-name="scaron" unicode="&#x161;" horiz-adv-x="1018" 
d="M825 1343l-300 -205l-299 205l56 86l244 -167l244 167zM92 73l48 128q86 -54 172 -76.5t164 -22.5q156 0 234.5 49.5t78.5 131.5q0 45 -22 74.5t-62.5 50t-99 33.5t-131.5 23q-60 8 -125.5 22t-120.5 43.5t-90.5 79.5t-35.5 130q0 61 23 116.5t74 98t133 67.5t200 25
q113 0 211 -30t175 -72l-46 -122q-32 17 -70.5 33.5t-81 30.5t-89 22.5t-94.5 8.5q-79 0 -132.5 -15.5t-86 -40.5t-46.5 -56.5t-14 -63.5q0 -73 74.5 -109.5t222.5 -50.5q67 -9 138 -23.5t129.5 -45.5t96 -83.5t37.5 -136.5q0 -74 -32 -133.5t-92 -101t-146.5 -64
t-194.5 -22.5q-111 0 -209.5 23t-189.5 79z" />
    <glyph glyph-name="uni0162" unicode="&#x162;" horiz-adv-x="1151" 
d="M516 -97l141 -17l-164 -401l-111 6zM498 0v1222h-437v138h1033v-138h-438v-1222h-158z" />
    <glyph glyph-name="uni0163" unicode="&#x163;" horiz-adv-x="856" 
d="M435 -124l141 -17l-164 -401l-111 6zM220 1031l40 286h117v-299h367v-136h-367v-498q0 -80 18.5 -132.5t49.5 -83t72 -43t85 -12.5h180l-1 -130h-192q-78 0 -144.5 19.5t-115.5 66t-77 123t-28 191.5v499h-182v124z" />
    <glyph glyph-name="Tcaron" unicode="&#x164;" horiz-adv-x="1151" 
d="M872 1745l-300 -205l-299 205l56 86l244 -167l244 167zM498 0v1222h-437v138h1033v-138h-438v-1222h-158z" />
    <glyph glyph-name="tcaron" unicode="&#x165;" horiz-adv-x="971" 
d="M1005 1438l141 -17l-184 -466l-111 7zM220 1031l40 286h117v-299h367v-136h-367v-498q0 -80 18.5 -132.5t49.5 -83t72 -43t85 -12.5h180l-1 -130h-192q-78 0 -144.5 19.5t-115.5 66t-77 123t-28 191.5v499h-182v124z" />
    <glyph glyph-name="Tbar" unicode="&#x166;" horiz-adv-x="1151" 
d="M301 679v99h550v-99h-550zM498 0v1222h-437v138h1033v-138h-438v-1222h-158z" />
    <glyph glyph-name="tbar" unicode="&#x167;" horiz-adv-x="856" 
d="M57 497v91h635v-91h-635zM220 1031l40 286h117v-299h367v-136h-367v-498q0 -80 18.5 -132.5t49.5 -83t72 -43t85 -12.5h180l-1 -130h-192q-78 0 -144.5 19.5t-115.5 66t-77 123t-28 191.5v499h-182v124z" />
    <glyph glyph-name="Utilde" unicode="&#x168;" horiz-adv-x="1416" 
d="M963 1734l72 -50q-45 -82 -99 -121.5t-118 -39.5q-43 0 -81 11.5t-72.5 26t-65 26t-57.5 11.5q-26 0 -51.5 -13.5t-49.5 -53.5l-70 50q30 57 75.5 90.5t105.5 33.5q10 0 20 -1t21 -3q33 -6 62.5 -17t57.5 -22.5t54.5 -20t52.5 -8.5q37 0 72.5 22t70.5 79zM1108 525v836
h158v-834q0 -123 -42 -225t-116 -175t-176.5 -113.5t-224.5 -40.5q-118 0 -220 39t-177 111.5t-118 175t-43 228.5v834h156v-833q0 -85 26.5 -160.5t77.5 -132.5t126 -90t172 -33q94 0 168.5 32.5t126 88.5t79 131.5t27.5 160.5z" />
    <glyph glyph-name="utilde" unicode="&#x169;" horiz-adv-x="1266" 
d="M907 1349l72 -50q-45 -82 -99 -121.5t-118 -39.5q-43 0 -81 11.5t-72.5 26t-65 26t-57.5 11.5q-26 0 -51.5 -13.5t-49.5 -53.5l-70 50q30 57 75.5 90.5t105.5 33.5q10 0 20 -1t21 -3q33 -6 62.5 -17t57.5 -22.5t54.5 -20t52.5 -8.5q37 0 72.5 22t70.5 79zM629 108
q161 0 247 92t86 285v533h155v-538q0 -130 -34 -225.5t-97.5 -158.5t-154 -93.5t-202.5 -30.5t-202.5 30.5t-154 93.5t-97.5 158.5t-34 225.5v538h155v-533q0 -192 84 -284.5t249 -92.5z" />
    <glyph glyph-name="Umacron" unicode="&#x16a;" horiz-adv-x="1416" 
d="M437 1546v99h550v-99h-550zM1108 525v836h158v-834q0 -123 -42 -225t-116 -175t-176.5 -113.5t-224.5 -40.5q-118 0 -220 39t-177 111.5t-118 175t-43 228.5v834h156v-833q0 -85 26.5 -160.5t77.5 -132.5t126 -90t172 -33q94 0 168.5 32.5t126 88.5t79 131.5t27.5 160.5z
" />
    <glyph glyph-name="umacron" unicode="&#x16b;" horiz-adv-x="1266" 
d="M372 1218v99h550v-99h-550zM629 108q161 0 247 92t86 285v533h155v-538q0 -130 -34 -225.5t-97.5 -158.5t-154 -93.5t-202.5 -30.5t-202.5 30.5t-154 93.5t-97.5 158.5t-34 225.5v538h155v-533q0 -192 84 -284.5t249 -92.5z" />
    <glyph glyph-name="Ubreve" unicode="&#x16c;" horiz-adv-x="1416" 
d="M882 1796l111 -10q-14 -106 -88.5 -168.5t-206.5 -62.5t-206.5 62.5t-88.5 168.5l111 10q10 -29 23 -53t34 -40.5t51.5 -25.5t75.5 -9t75.5 9t51.5 25.5t34 40.5t23 53zM1108 525v836h158v-834q0 -123 -42 -225t-116 -175t-176.5 -113.5t-224.5 -40.5q-118 0 -220 39
t-177 111.5t-118 175t-43 228.5v834h156v-833q0 -85 26.5 -160.5t77.5 -132.5t126 -90t172 -33q94 0 168.5 32.5t126 88.5t79 131.5t27.5 160.5z" />
    <glyph glyph-name="ubreve" unicode="&#x16d;" horiz-adv-x="1266" 
d="M831 1394l111 -10q-14 -106 -88.5 -168.5t-206.5 -62.5t-206.5 62.5t-88.5 168.5l111 10q10 -29 23 -53t34 -40.5t51.5 -25.5t75.5 -9t75.5 9t51.5 25.5t34 40.5t23 53zM629 108q161 0 247 92t86 285v533h155v-538q0 -130 -34 -225.5t-97.5 -158.5t-154 -93.5
t-202.5 -30.5t-202.5 30.5t-154 93.5t-97.5 158.5t-34 225.5v538h155v-533q0 -192 84 -284.5t249 -92.5z" />
    <glyph glyph-name="Uring" unicode="&#x16e;" horiz-adv-x="1416" 
d="M508 1674q0 40 15 74.5t41.5 60t63.5 40t80 14.5q45 0 82 -14.5t63.5 -40t41 -60t14.5 -74.5q0 -38 -14.5 -71.5t-41 -58.5t-63.5 -39.5t-82 -14.5q-44 0 -80.5 14.5t-63 39.5t-41.5 58.5t-15 71.5zM604 1673q0 -20 8 -38t22 -31.5t33 -21.5t41 -8q47 0 76.5 29.5
t29.5 69.5q0 45 -29 75t-77 30q-45 0 -74.5 -30t-29.5 -75zM1108 525v836h158v-834q0 -123 -42 -225t-116 -175t-176.5 -113.5t-224.5 -40.5q-118 0 -220 39t-177 111.5t-118 175t-43 228.5v834h156v-833q0 -85 26.5 -160.5t77.5 -132.5t126 -90t172 -33q94 0 168.5 32.5
t126 88.5t79 131.5t27.5 160.5z" />
    <glyph glyph-name="uring" unicode="&#x16f;" horiz-adv-x="1266" 
d="M446 1311q0 40 15 74.5t41.5 60t63.5 40t80 14.5q45 0 82 -14.5t63.5 -40t41 -60t14.5 -74.5q0 -38 -14.5 -71.5t-41 -58.5t-63.5 -39.5t-82 -14.5q-44 0 -80.5 14.5t-63 39.5t-41.5 58.5t-15 71.5zM542 1310q0 -20 8 -38t22 -31.5t33 -21.5t41 -8q47 0 76.5 29.5
t29.5 69.5q0 45 -29 75t-77 30q-45 0 -74.5 -30t-29.5 -75zM629 108q161 0 247 92t86 285v533h155v-538q0 -130 -34 -225.5t-97.5 -158.5t-154 -93.5t-202.5 -30.5t-202.5 30.5t-154 93.5t-97.5 158.5t-34 225.5v538h155v-533q0 -192 84 -284.5t249 -92.5z" />
    <glyph glyph-name="Uhungarumlaut" unicode="&#x170;" horiz-adv-x="1416" 
d="M617 1828l128 -4l-171 -309l-95 6zM934 1828l128 -4l-172 -309l-95 6zM1108 525v836h158v-834q0 -123 -42 -225t-116 -175t-176.5 -113.5t-224.5 -40.5q-118 0 -220 39t-177 111.5t-118 175t-43 228.5v834h156v-833q0 -85 26.5 -160.5t77.5 -132.5t126 -90t172 -33
q94 0 168.5 32.5t126 88.5t79 131.5t27.5 160.5z" />
    <glyph glyph-name="uhungarumlaut" unicode="&#x171;" horiz-adv-x="1266" 
d="M518 1426l128 -4l-171 -309l-95 6zM835 1426l128 -4l-172 -309l-95 6zM629 108q161 0 247 92t86 285v533h155v-538q0 -130 -34 -225.5t-97.5 -158.5t-154 -93.5t-202.5 -30.5t-202.5 30.5t-154 93.5t-97.5 158.5t-34 225.5v538h155v-533q0 -192 84 -284.5t249 -92.5z" />
    <glyph glyph-name="Uogonek" unicode="&#x172;" horiz-adv-x="1416" 
d="M974 128l93 -38q-32 -24 -69 -52t-68.5 -59.5t-52.5 -66t-21 -70.5q0 -29 20 -45.5t55 -16.5q26 0 52 7t58 21l24 -78q-35 -23 -80.5 -40t-97.5 -17q-43 0 -74.5 11.5t-52 30.5t-30 44.5t-9.5 53.5q0 52 24.5 96.5t62 83.5t82 72t84.5 63zM1108 525v836h158v-834
q0 -123 -42 -225t-116 -175t-176.5 -113.5t-224.5 -40.5q-118 0 -220 39t-177 111.5t-118 175t-43 228.5v834h156v-833q0 -85 26.5 -160.5t77.5 -132.5t126 -90t172 -33q94 0 168.5 32.5t126 88.5t79 131.5t27.5 160.5z" />
    <glyph glyph-name="uogonek" unicode="&#x173;" horiz-adv-x="1266" 
d="M840 91l93 -38q-32 -24 -69 -52t-68.5 -59.5t-52.5 -66t-21 -70.5q0 -29 20 -45.5t55 -16.5q26 0 52 7t58 21l24 -78q-35 -23 -80.5 -40t-97.5 -17q-43 0 -74.5 11.5t-52 30.5t-30 44.5t-9.5 53.5q0 52 24.5 96.5t62 83.5t82 72t84.5 63zM629 108q161 0 247 92t86 285
v533h155v-538q0 -130 -34 -225.5t-97.5 -158.5t-154 -93.5t-202.5 -30.5t-202.5 30.5t-154 93.5t-97.5 158.5t-34 225.5v538h155v-533q0 -192 84 -284.5t249 -92.5z" />
    <glyph glyph-name="Wcircumflex" unicode="&#x174;" horiz-adv-x="2051" 
d="M997 1763l300 -205l-55 -86l-244 167l-244 -167l-56 86zM1383 244l476 1116h167l-581 -1360h-147l-272 638l-273 -638h-147l-581 1360h167l476 -1116l11 -38h1l11 38l251 590l-224 526h166l476 -1116l11 -38h2z" />
    <glyph glyph-name="wcircumflex" unicode="&#x175;" horiz-adv-x="1713" 
d="M859 1425l300 -205l-55 -86l-244 167l-244 -167l-56 86zM1515 1018h166l-428 -1018h-145l-258 588l-246 -588h-144l-428 1018h166l323 -781l10 -36h2l10 36l231 524l-112 257h165l343 -781l9 -36h3l9 36z" />
    <glyph glyph-name="Ycircumflex" unicode="&#x176;" horiz-adv-x="1317" 
d="M666 1776l300 -205l-55 -86l-244 167l-244 -167l-56 86zM1103 1360h188l-554 -837l1 -523h-158v522l-553 838h187l444 -694h2z" />
    <glyph glyph-name="ycircumflex" unicode="&#x177;" horiz-adv-x="1087" 
d="M574 1425l300 -205l-55 -86l-244 167l-244 -167l-56 86zM914 1018h165l-435 -989q-45 -106 -81.5 -178t-78 -115.5t-94 -62.5t-130.5 -19h-167l-1 130h180q39 0 66.5 16t50 46.5t42.5 75.5t45 104l-434 992h170l343 -790l5 -32z" />
    <glyph glyph-name="Ydieresis" unicode="&#x178;" horiz-adv-x="1317" 
d="M412 1620q0 34 25 57.5t63 23.5q40 0 64.5 -23.5t24.5 -57.5q0 -33 -24.5 -56t-64.5 -23q-39 0 -63.5 23t-24.5 56zM743 1620q0 34 24.5 57.5t62.5 23.5q41 0 65 -23.5t24 -57.5q0 -33 -24.5 -56t-64.5 -23q-39 0 -63 23t-24 56zM1103 1360h188l-554 -837l1 -523h-158
v522l-553 838h187l444 -694h2z" />
    <glyph glyph-name="Zacute" unicode="&#x179;" horiz-adv-x="1252" 
d="M747 1830l118 -42l-175 -237h-115zM1183 0h-1102l-2 124l856 1098h-812v138h1019v-121l-857 -1101h898v-138z" />
    <glyph glyph-name="zacute" unicode="&#x17a;" horiz-adv-x="1002" 
d="M576 1428l118 -42l-175 -237h-115zM67 0v103l635 781h-604v134h821v-104l-634 -779h659v-135h-877z" />
    <glyph glyph-name="Zdotaccent" unicode="&#x17b;" horiz-adv-x="1252" 
d="M551 1668q0 35 24.5 58t63.5 23q40 0 64.5 -23t24.5 -58q0 -32 -24.5 -55.5t-64.5 -23.5q-39 0 -63.5 23.5t-24.5 55.5zM1183 0h-1102l-2 124l856 1098h-812v138h1019v-121l-857 -1101h898v-138z" />
    <glyph glyph-name="zdotaccent" unicode="&#x17c;" horiz-adv-x="1002" 
d="M430 1266q0 35 24.5 58t63.5 23q40 0 64.5 -23t24.5 -58q0 -32 -24.5 -55.5t-64.5 -23.5q-39 0 -63.5 23.5t-24.5 55.5zM67 0v103l635 781h-604v134h821v-104l-634 -779h659v-135h-877z" />
    <glyph glyph-name="Zcaron" unicode="&#x17d;" horiz-adv-x="1252" 
d="M952 1745l-300 -205l-299 205l56 86l244 -167l244 167zM1183 0h-1102l-2 124l856 1098h-812v138h1019v-121l-857 -1101h898v-138z" />
    <glyph glyph-name="zcaron" unicode="&#x17e;" horiz-adv-x="1002" 
d="M818 1343l-300 -205l-299 205l56 86l244 -167l244 167zM67 0v103l635 781h-604v134h821v-104l-634 -779h659v-135h-877z" />
    <glyph glyph-name="longs" unicode="&#x17f;" horiz-adv-x="774" 
d="M264 0v882h-211v136h211v52q0 69 15 136t52.5 119.5t100.5 85t159 32.5q57 0 92 -6t48 -11v-128q-17 4 -35 8q-16 3 -35 5.5t-38 2.5q-58 0 -97 -19t-63 -52.5t-34 -79t-10 -98.5v-1065h-155z" />
    <glyph glyph-name="florin" unicode="&#x192;" horiz-adv-x="765" 
d="M126 -112l157 939h-176l17 132h177l9 55q11 67 28 130.5t45.5 116.5t71.5 91.5t107 56.5q60 17 120 17q12 0 29.5 -1.5t35.5 -4.5t34 -8.5t24 -13.5l-60 -115q-7 4 -18 7q-9 2 -22 4t-30 2q-85 0 -134 -51.5t-66 -150.5l-24 -135h260l-17 -132h-260l-157 -941
q-11 -71 -37.5 -134t-68.5 -110t-99 -74t-131 -27q-37 0 -73 7q-27 3 -47 11.5t-26 13.5l60 117q11 -8 31 -9.5t34 -1.5q39 0 72 11t59.5 35.5t45.5 64.5t29 98z" />
    <glyph glyph-name="AEacute" unicode="&#x1fc;" horiz-adv-x="2037" 
d="M1347 1771l118 -42l-175 -237h-115zM993 1151l-19 -37l-459 -660h478v697zM1898 0h-905v317h-573l-220 -317h-183l933 1360h939v-140h-739v-459h643v-138h-643v-484h748v-139z" />
    <glyph glyph-name="aeacute" unicode="&#x1fd;" horiz-adv-x="2038" 
d="M1171 1428l118 -42l-175 -237h-115zM521 102q60 0 121.5 15.5t114.5 43.5t92.5 66.5t55.5 84.5v146q-29 0 -65.5 1.5t-74.5 2.5t-74 2t-64 1q-60 0 -123 -6.5t-114 -25.5t-83.5 -52t-32.5 -86q0 -54 19 -91t52.5 -59.5t78.5 -32.5t97 -10zM1079 572l480 -3h16
q103 3 151 46t48 111q0 33 -18.5 66.5t-55.5 60t-93.5 43t-133.5 16.5q-74 0 -140.5 -25.5t-119 -70.5t-88 -107.5t-46.5 -136.5zM1059 0h-128l-14 152q-39 -41 -90.5 -73.5t-110 -55t-121 -34.5t-123.5 -12q-73 0 -138 18t-113.5 57t-76.5 100t-28 148q0 83 42 136.5
t111 85t158 44t183 12.5q29 0 67 -1t78.5 -2t79.5 -2.5t70 -1.5v127q0 42 -19 81.5t-58 70t-99 48.5t-141 18q-60 0 -114.5 -15t-95.5 -40.5t-65 -59t-24 -70.5h-156q2 72 38.5 130t98 99t143 63.5t172.5 22.5q92 0 165.5 -16.5t129 -45t93.5 -67.5t59 -84q37 48 84 87.5
t103 67.5t119 43t131 15q112 0 197 -27t142.5 -72t86.5 -103.5t29 -121.5q0 -58 -18.5 -109.5t-59 -90t-104 -60.5t-153.5 -22h-509q12 -73 46.5 -134.5t86.5 -106t118 -69.5t139 -25q111 0 193.5 34.5t137.5 94.5l50 -113q-64 -67 -157.5 -108.5t-225.5 -41.5
q-125 0 -230 48.5t-179 131.5v-151z" />
    <glyph glyph-name="Oslashacute" unicode="&#x1fe;" horiz-adv-x="1670" 
d="M972 1821l118 -42l-175 -237h-115zM255 681q0 -120 45 -224t122 -180.5t180.5 -120.5t221.5 -44t222 44t181 120.5t122 180.5t45 224q0 121 -45 225t-122 181t-181 121t-222 44t-221.5 -44t-180.5 -121t-122 -181t-45 -225zM98 681q0 149 57 278t155.5 225t231 151
t282.5 55q102 0 195.5 -25.5t175.5 -73.5l122 152l120 -92l-119 -148q108 -97 170.5 -231t62.5 -291q0 -147 -57 -276t-156 -225t-231.5 -151t-282.5 -55q-111 0 -211 30t-186 84l-128 -161l-120 92l129 163q-98 96 -154 223.5t-56 275.5z" />
    <glyph glyph-name="oslashacute" unicode="&#x1ff;" horiz-adv-x="1314" 
d="M261 509q0 -87 31.5 -160.5t85.5 -127t127 -83.5t156 -30t156 30t127 83.5t85.5 127t31.5 160.5q0 86 -31.5 159.5t-85.5 127t-127 84t-156 30.5t-156 -30.5t-127 -84t-85.5 -127t-31.5 -159.5zM107 509q0 112 42 210t116 170.5t175 114.5t219 42q81 0 153.5 -20
t135.5 -56l72 89l110 -78l-74 -93q74 -73 116 -170t42 -209t-42.5 -210t-116.5 -171t-175.5 -114.5t-220.5 -41.5q-78 0 -148 18.5t-131 52.5l-89 -112l-110 79l89 113q-77 73 -120 172t-43 214zM777 1428l118 -42l-175 -237h-115z" />
    <glyph glyph-name="uni0218" unicode="&#x218;" horiz-adv-x="1261" 
d="M528 -112l141 -17l-164 -401l-111 6zM64 108l58 133q36 -18 85.5 -40.5t109 -42t128 -33t141.5 -13.5q195 0 293.5 68.5t98.5 198.5q0 65 -30 110t-82.5 76t-123.5 50t-153 33q-49 7 -103 16.5t-107 25.5t-101 40t-85 59t-58.5 84t-21.5 114q0 80 27 153t87 128.5
t157 88.5t238 33q75 0 143.5 -13t129.5 -32.5t114.5 -43.5t98.5 -46l-50 -133q-30 17 -78.5 39t-108.5 42t-127 33.5t-134 13.5q-99 0 -164 -22t-104 -57.5t-55 -80t-16 -90.5q0 -59 28.5 -98.5t79.5 -65.5t122 -41t156 -25q84 -14 169.5 -36.5t155 -66t113 -113.5
t43.5 -180q0 -94 -38.5 -169t-111 -126.5t-176.5 -79t-235 -27.5q-77 0 -149.5 10.5t-138.5 29t-123 43.5t-102 53z" />
    <glyph glyph-name="uni0219" unicode="&#x219;" horiz-adv-x="1018" 
d="M404 -97l141 -17l-164 -401l-111 6zM92 73l48 128q86 -54 172 -76.5t164 -22.5q156 0 234.5 49.5t78.5 131.5q0 45 -22 74.5t-62.5 50t-99 33.5t-131.5 23q-60 8 -125.5 22t-120.5 43.5t-90.5 79.5t-35.5 130q0 61 23 116.5t74 98t133 67.5t200 25q113 0 211 -30t175 -72
l-46 -122q-32 17 -70.5 33.5t-81 30.5t-89 22.5t-94.5 8.5q-79 0 -132.5 -15.5t-86 -40.5t-46.5 -56.5t-14 -63.5q0 -73 74.5 -109.5t222.5 -50.5q67 -9 138 -23.5t129.5 -45.5t96 -83.5t37.5 -136.5q0 -74 -32 -133.5t-92 -101t-146.5 -64t-194.5 -22.5q-111 0 -209.5 23
t-189.5 79z" />
    <glyph glyph-name="uni021A" unicode="&#x21a;" horiz-adv-x="1151" 
d="M515 -97l141 -17l-164 -401l-111 6zM520 0v1222h-437v138h1033v-138h-438v-1222h-158z" />
    <glyph glyph-name="uni021B" unicode="&#x21b;" horiz-adv-x="856" 
d="M248 959v291l149 1v-292h343v-132h-344v-471q0 -75 17 -124t44 -78.5t61.5 -41t70.5 -11.5q34 0 60.5 5.5t47 13.5t35.5 16.5t26 14.5l50 -116q-10 -7 -30.5 -19t-50 -22.5t-68 -18.5t-84.5 -8q-73 0 -133.5 20t-103.5 65.5t-66.5 120t-23.5 182.5v472h-176v132h176z
M413 -128l141 -17l-164 -401l-111 6z" />
    <glyph glyph-name="uni0237" unicode="&#x237;" horiz-adv-x="517" 
d="M181 1018h155v-1036q0 -82 -21 -146.5t-61.5 -109.5t-100.5 -69t-137 -24h-90v136h83q45 0 77.5 15.5t53.5 44t31 67.5t10 87v1035z" />
    <glyph glyph-name="circumflex" unicode="&#x2c6;" horiz-adv-x="785" 
d="M400 1425l300 -205l-55 -86l-244 167l-244 -167l-56 86z" />
    <glyph glyph-name="caron" unicode="&#x2c7;" horiz-adv-x="770" 
d="M700 1343l-300 -205l-299 205l56 86l244 -167l244 167z" />
    <glyph glyph-name="uni02C9" unicode="&#x2c9;" horiz-adv-x="882" 
d="M140 1183v112h569v-112h-569z" />
    <glyph glyph-name="breve" unicode="&#x2d8;" horiz-adv-x="815" 
d="M596 1394l111 -10q-14 -106 -88.5 -168.5t-206.5 -62.5t-206.5 62.5t-88.5 168.5l111 10q10 -29 23 -53t34 -40.5t51.5 -25.5t75.5 -9t75.5 9t51.5 25.5t34 40.5t23 53z" />
    <glyph glyph-name="dotaccent" unicode="&#x2d9;" horiz-adv-x="417" 
d="M179 1266q0 35 24.5 58t63.5 23q40 0 64.5 -23t24.5 -58q0 -32 -24.5 -55.5t-64.5 -23.5q-39 0 -63.5 23.5t-24.5 55.5z" />
    <glyph glyph-name="ring" unicode="&#x2da;" horiz-adv-x="559" 
d="M67 1289q0 40 15 74.5t41.5 60t63.5 40t80 14.5q45 0 82 -14.5t63.5 -40t41 -60t14.5 -74.5q0 -38 -14.5 -71.5t-41 -58.5t-63.5 -39.5t-82 -14.5q-44 0 -80.5 14.5t-63 39.5t-41.5 58.5t-15 71.5zM163 1288q0 -20 8 -38t22 -31.5t33 -21.5t41 -8q47 0 76.5 29.5
t29.5 69.5q0 45 -29 75t-77 30q-45 0 -74.5 -30t-29.5 -75z" />
    <glyph glyph-name="ogonek" unicode="&#x2db;" horiz-adv-x="465" 
d="M266 63l93 -38q-32 -24 -69 -52t-68.5 -59.5t-52.5 -66t-21 -70.5q0 -29 20 -45.5t55 -16.5q26 0 52 7t58 21l24 -78q-35 -23 -80.5 -40t-97.5 -17q-43 0 -74.5 11.5t-52 30.5t-30 44.5t-9.5 53.5q0 52 24.5 96.5t62 83.5t82 72t84.5 63z" />
    <glyph glyph-name="tilde" unicode="&#x2dc;" horiz-adv-x="854" 
d="M696 1349l72 -50q-45 -82 -99 -121.5t-118 -39.5q-43 0 -81 11.5t-72.5 26t-65 26t-57.5 11.5q-26 0 -51.5 -13.5t-49.5 -53.5l-70 50q30 57 75.5 90.5t105.5 33.5q10 0 20 -1t21 -3q33 -6 62.5 -17t57.5 -22.5t54.5 -20t52.5 -8.5q37 0 72.5 22t70.5 79z" />
    <glyph glyph-name="hungarumlaut" unicode="&#x2dd;" horiz-adv-x="829" 
d="M299 1426l128 -4l-171 -309l-95 6zM616 1426l128 -4l-172 -309l-95 6z" />
    <glyph glyph-name="tonos" unicode="&#x384;" horiz-adv-x="505" 
d="M330 1320l-15 -315l-120 -1l-12 316h147z" />
    <glyph glyph-name="dieresistonos" unicode="&#x385;" horiz-adv-x="962" 
d="M161 1249q0 34 24.5 57.5t62.5 23.5q41 0 65 -23.5t24 -57.5q0 -32 -24.5 -55.5t-64.5 -23.5q-39 0 -63 23.5t-24 55.5zM591 1252q0 34 24.5 57.5t62.5 23.5q40 0 64.5 -23.5t24.5 -57.5q0 -33 -24.5 -56t-64.5 -23q-39 0 -63 23t-24 56zM538 1646l-15 -322l-119 -1
l-13 323h147z" />
    <glyph glyph-name="Alphatonos" unicode="&#x386;" horiz-adv-x="1352" 
d="M278 1357l-15 -315l-120 -1l-12 316h147zM675 1157l-5 -23l-289 -679h588l-288 679zM1329 0h-167l-135 318h-704l-135 -318h-167l578 1360h153z" />
    <glyph glyph-name="Epsilontonos" unicode="&#x388;" horiz-adv-x="1272" 
d="M166 1359l-15 -315l-120 -1l-12 316h147zM285 0v1360h896v-140h-739v-478h643v-138h-643v-465h748v-139h-905z" />
    <glyph glyph-name="Etatonos" unicode="&#x389;" horiz-adv-x="1588" 
d="M147 1362l-15 -315l-120 -1l-12 316h147zM280 0v1360h157v-618h813v618h158v-1360h-158v604h-813v-604h-157z" />
    <glyph glyph-name="Iotatonos" unicode="&#x38a;" horiz-adv-x="625" 
d="M169 1360l-15 -315l-120 -1l-12 316h147zM289 0v1360h157v-1360h-157z" />
    <glyph glyph-name="Omicrontonos" unicode="&#x38c;" horiz-adv-x="1761" 
d="M119 1300l-15 -315l-120 -1l-12 316h147zM199 681q0 149 57 278t155.5 225t231 151t282.5 55t282.5 -55t231.5 -151t156 -225t57 -278q0 -147 -57 -276t-156 -225t-231.5 -151t-282.5 -55t-282.5 55t-231 151t-155.5 225t-57 276zM356 681q0 -120 45 -224t122 -180.5
t180.5 -120.5t221.5 -44t222 44t181 120.5t122 180.5t45 224q0 121 -45 225t-122 181t-181 121t-222 44t-221.5 -44t-180.5 -121t-122 -181t-45 -225z" />
    <glyph glyph-name="Upsilontonos" unicode="&#x38e;" horiz-adv-x="1423" 
d="M76 1360l-15 -315l-120 -1l-12 316h147zM1208 1360h188l-554 -837l1 -523h-158v522l-553 838h187l444 -694h2z" />
    <glyph glyph-name="Omegatonos" unicode="&#x38f;" horiz-adv-x="1810" 
d="M157 1356l-15 -315l-120 -1l-12 316h147zM301 0v139l381 -36q-7 64 -30 110.5t-55.5 82t-71.5 64t-78.5 58t-76.5 63t-66 78.5t-46.5 105.5t-17.5 143.5q0 150 53.5 260.5t147.5 183.5t222.5 108.5t278.5 35.5t279 -35.5t223 -108.5t147.5 -183.5t53.5 -260.5
q0 -83 -17.5 -143.5t-46.5 -105.5t-66 -78.5t-76.5 -63t-78.5 -58t-71.5 -64t-55.5 -82t-30 -110.5l380 36v-139h-504v92q0 76 17.5 131t46 96.5t65.5 73t75 61.5t75 61.5t65.5 72t46 93.5t17.5 127q0 117 -41 201.5t-113.5 140t-172.5 82t-218 26.5t-217.5 -26.5t-172 -82
t-113.5 -140t-41 -201.5q0 -74 17.5 -127t46 -93.5t65 -72t75 -61.5t75 -61.5t65.5 -73t46.5 -96.5t17.5 -131v-92h-505z" />
    <glyph glyph-name="iotadieresistonos" unicode="&#x390;" horiz-adv-x="517" 
d="M-53 1256q0 34 24.5 57.5t62.5 23.5q41 0 65 -23.5t24 -57.5q0 -32 -24.5 -55.5t-64.5 -23.5q-39 0 -63 23.5t-24 55.5zM377 1259q0 34 24.5 57.5t62.5 23.5q40 0 64.5 -23.5t24.5 -57.5q0 -33 -24.5 -56t-64.5 -23q-39 0 -63 23t-24 56zM324 1653l-15 -322l-119 -1
l-13 323h147zM181 1v1018h155v-1018h-155z" />
    <glyph glyph-name="Alpha" unicode="&#x391;" horiz-adv-x="1352" 
d="M675 1157l-5 -23l-289 -679h588l-288 679zM1329 0h-167l-135 318h-704l-135 -318h-167l578 1360h153z" />
    <glyph glyph-name="Beta" unicode="&#x392;" horiz-adv-x="1302" 
d="M337 639v-503h463q49 0 95 18.5t81 52t56.5 80t21.5 101.5q0 53 -19.5 99t-53.5 80t-80 53t-98 19h-466zM749 1227h-412v-462h412q46 0 87 17.5t72.5 48.5t50 73t18.5 91q0 48 -18.5 90.5t-49.5 74t-72.5 49.5t-87.5 18zM814 0h-634v1360h577q83 0 153 -26t120.5 -73
t79 -112.5t28.5 -144.5q0 -47 -14 -91t-38.5 -81.5t-58 -66.5t-72.5 -46q55 -16 103 -48t83.5 -76.5t56 -99t20.5 -114.5q0 -90 -33.5 -161t-89.5 -119.5t-129 -74.5t-152 -26z" />
    <glyph glyph-name="Gamma" unicode="&#x393;" horiz-adv-x="1120" 
d="M180 0v1360h896v-140h-738v-1220h-158z" />
    <glyph glyph-name="uni0394" unicode="&#x394;" horiz-adv-x="1352" 
d="M652 1152l-11 -35l-420 -984h862l-419 984zM1263 108v-108h-1221v108l534 1252h153z" />
    <glyph glyph-name="Epsilon" unicode="&#x395;" horiz-adv-x="1167" 
d="M180 0v1360h896v-140h-739v-478h643v-138h-643v-465h748v-139h-905z" />
    <glyph glyph-name="Zeta" unicode="&#x396;" horiz-adv-x="1252" 
d="M1183 0h-1102l-2 124l856 1098h-812v138h1019v-121l-857 -1101h898v-138z" />
    <glyph glyph-name="Eta" unicode="&#x397;" horiz-adv-x="1488" 
d="M180 0v1360h157v-618h813v618h158v-1360h-158v604h-813v-604h-157z" />
    <glyph glyph-name="Theta" unicode="&#x398;" horiz-adv-x="1670" 
d="M108 681q0 149 57 278t155.5 225t231 151t282.5 55t282.5 -55t231.5 -151t156 -225t57 -278q0 -147 -57 -276t-156 -225t-231.5 -151t-282.5 -55t-282.5 55t-231 151t-155.5 225t-57 276zM265 681q0 -120 45 -224t122 -180.5t180.5 -120.5t221.5 -44t222 44t181 120.5
t122 180.5t45 224q0 121 -45 225t-122 181t-181 121t-222 44t-221.5 -44t-180.5 -121t-122 -181t-45 -225zM406 742l872 -1v-132l-872 1v132z" />
    <glyph glyph-name="Iota" unicode="&#x399;" horiz-adv-x="517" 
d="M180 0v1360h157v-1360h-157z" />
    <glyph glyph-name="Kappa" unicode="&#x39a;" horiz-adv-x="1304" 
d="M337 1360v-883l725 883h186l-496 -600l529 -760h-190l-441 642l-313 -374v-268h-157v1360h157z" />
    <glyph glyph-name="Lambda" unicode="&#x39b;" horiz-adv-x="1352" 
d="M1162 0l-476 1117l-11 35l-11 -35l-476 -1117h-167l578 1360h153l577 -1360h-167z" />
    <glyph glyph-name="Mu" unicode="&#x39c;" horiz-adv-x="1692" 
d="M868 457h-47l-484 643v-1100h-157v1360h135l530 -698l530 698h137v-1360h-156v1099z" />
    <glyph glyph-name="Nu" unicode="&#x39d;" horiz-adv-x="1512" 
d="M1333 1360v-1360h-133l-863 1082v-1082h-157v1360h130l866 -1085v1085h157z" />
    <glyph glyph-name="Xi" unicode="&#x39e;" horiz-adv-x="1264" 
d="M179 0v139h905v-139h-905zM1075 1220h-886v140h886v-140zM980 623h-709v138h709v-138z" />
    <glyph glyph-name="Omicron" unicode="&#x39f;" horiz-adv-x="1670" 
d="M108 681q0 149 57 278t155.5 225t231 151t282.5 55t282.5 -55t231.5 -151t156 -225t57 -278q0 -147 -57 -276t-156 -225t-231.5 -151t-282.5 -55t-282.5 55t-231 151t-155.5 225t-57 276zM265 681q0 -120 45 -224t122 -180.5t180.5 -120.5t221.5 -44t222 44t181 120.5
t122 180.5t45 224q0 121 -45 225t-122 181t-181 121t-222 44t-221.5 -44t-180.5 -121t-122 -181t-45 -225z" />
    <glyph glyph-name="Pi" unicode="&#x3a0;" horiz-adv-x="1488" 
d="M1183 0v1220h-845v-1220h-158v1360h1160v-1360h-157z" />
    <glyph glyph-name="Rho" unicode="&#x3a1;" horiz-adv-x="1269" 
d="M337 618h394q63 0 116.5 23t92.5 63.5t61 95.5t22 119q0 63 -22.5 118.5t-62 96.5t-93.5 64.5t-117 23.5h-391v-604zM737 480h-400v-480h-157v1360h554q98 0 179.5 -33t141 -92t92.5 -139.5t33 -176.5t-33 -176.5t-92 -139t-140 -91t-178 -32.5z" />
    <glyph glyph-name="Sigma" unicode="&#x3a3;" horiz-adv-x="1308" 
d="M740 686l-398 -548h821v-138h-1101l489 686l-489 675h1101v-138h-821z" />
    <glyph glyph-name="Tau" unicode="&#x3a4;" horiz-adv-x="1151" 
d="M498 0v1222h-437v138h1033v-138h-438v-1222h-158z" />
    <glyph glyph-name="Upsilon" unicode="&#x3a5;" horiz-adv-x="1317" 
d="M1103 1360h188l-554 -837l1 -523h-158v522l-553 838h187l444 -694h2z" />
    <glyph glyph-name="Phi" unicode="&#x3a6;" horiz-adv-x="1761" 
d="M297 681q0 -110 40 -190t108.5 -133.5t160.5 -82t196 -36.5v886q-105 -7 -197 -36t-160.5 -82.5t-108 -134t-39.5 -191.5zM1463 681q0 111 -39.5 191.5t-108 134t-160.5 82.5t-197 36v-887q105 8 197 36.5t160.5 82.5t108 134t39.5 190zM958 0h-156v100q-148 8 -270 48
t-209.5 112t-135.5 177.5t-48 243.5q0 140 48.5 245t136 177.5t209.5 112.5t269 48v96h156v-96q147 -8 269 -48t209.5 -112.5t136 -177.5t48.5 -245q0 -138 -48.5 -243t-136 -177.5t-209.5 -112.5t-269 -48v-100z" />
    <glyph glyph-name="Chi" unicode="&#x3a7;" horiz-adv-x="1325" 
d="M259 1360l402 -548l402 548h188l-491 -654l523 -706h-188l-434 598l-434 -598h-188l523 706l-491 654h188z" />
    <glyph glyph-name="Psi" unicode="&#x3a8;" horiz-adv-x="1537" 
d="M707 0v311q-115 6 -212.5 52t-168.5 121t-111 173.5t-40 209.5v493h157v-485q0 -80 26.5 -154t75 -132t118 -95.5t155.5 -43.5v910h157v-910q94 5 165 41.5t118 94.5t71 133t24 158v483h156v-493q0 -122 -41 -222t-113 -173t-169.5 -114.5t-210.5 -46.5v-311h-157z" />
    <glyph glyph-name="uni03A9" unicode="&#x3a9;" horiz-adv-x="1733" 
d="M224 0v139l381 -36q-7 64 -30 110.5t-55.5 82t-71.5 64t-78.5 58t-76.5 63t-66 78.5t-46.5 105.5t-17.5 143.5q0 150 53.5 260.5t147.5 183.5t222.5 108.5t278.5 35.5t279 -35.5t223 -108.5t147.5 -183.5t53.5 -260.5q0 -83 -17.5 -143.5t-46.5 -105.5t-66 -78.5
t-76.5 -63t-78.5 -58t-71.5 -64t-55.5 -82t-30 -110.5l380 36v-139h-504v92q0 76 17.5 131t46 96.5t65.5 73t75 61.5t75 61.5t65.5 72t46 93.5t17.5 127q0 117 -41 201.5t-113.5 140t-172.5 82t-218 26.5t-217.5 -26.5t-172 -82t-113.5 -140t-41 -201.5q0 -74 17.5 -127
t46 -93.5t65 -72t75 -61.5t75 -61.5t65.5 -73t46.5 -96.5t17.5 -131v-92h-505z" />
    <glyph glyph-name="uni03A9" unicode="&#x2126;" horiz-adv-x="1733" 
d="M224 0v139l381 -36q-7 64 -30 110.5t-55.5 82t-71.5 64t-78.5 58t-76.5 63t-66 78.5t-46.5 105.5t-17.5 143.5q0 150 53.5 260.5t147.5 183.5t222.5 108.5t278.5 35.5t279 -35.5t223 -108.5t147.5 -183.5t53.5 -260.5q0 -83 -17.5 -143.5t-46.5 -105.5t-66 -78.5
t-76.5 -63t-78.5 -58t-71.5 -64t-55.5 -82t-30 -110.5l380 36v-139h-504v92q0 76 17.5 131t46 96.5t65.5 73t75 61.5t75 61.5t65.5 72t46 93.5t17.5 127q0 117 -41 201.5t-113.5 140t-172.5 82t-218 26.5t-217.5 -26.5t-172 -82t-113.5 -140t-41 -201.5q0 -74 17.5 -127
t46 -93.5t65 -72t75 -61.5t75 -61.5t65.5 -73t46.5 -96.5t17.5 -131v-92h-505z" />
    <glyph glyph-name="Iotadieresis" unicode="&#x3aa;" horiz-adv-x="517" 
d="M180 0v1360h157v-1360h-157zM41 1670q0 34 25 57.5t63 23.5q40 0 64.5 -23.5t24.5 -57.5q0 -33 -24.5 -56t-64.5 -23q-39 0 -63.5 23t-24.5 56zM372 1670q0 34 24.5 57.5t62.5 23.5q41 0 65 -23.5t24 -57.5q0 -33 -24.5 -56t-64.5 -23q-39 0 -63 23t-24 56z" />
    <glyph glyph-name="Upsilondieresis" unicode="&#x3ab;" horiz-adv-x="1317" 
d="M413 1626q0 34 25 57.5t63 23.5q40 0 64.5 -23.5t24.5 -57.5q0 -33 -24.5 -56t-64.5 -23q-39 0 -63.5 23t-24.5 56zM744 1626q0 34 24.5 57.5t62.5 23.5q41 0 65 -23.5t24 -57.5q0 -33 -24.5 -56t-64.5 -23q-39 0 -63 23t-24 56zM1103 1360h188l-554 -837l1 -523h-158
v522l-553 838h187l444 -694h2z" />
    <glyph glyph-name="alphatonos" unicode="&#x3ac;" horiz-adv-x="1403" 
d="M732 1532l-15 -315l-120 -1l-12 316h147zM255 509q0 -87 31 -160.5t85 -127t126.5 -83.5t156.5 -30t152.5 33t119.5 88.5t83 128t44 151.5q-9 87 -41 160.5t-83.5 127t-121 83.5t-153.5 30t-157 -30.5t-126.5 -84t-84.5 -127t-31 -159.5zM1257 0h-150l-32 239
q-72 -124 -183 -196t-254 -72q-117 0 -216 42t-170 115t-111 171t-40 210t40 210t111 170.5t170 114.5t216 42q71 0 135.5 -18.5t120 -52.5t102 -81.5t80.5 -106.5l31 231h150l-49 -507z" />
    <glyph glyph-name="epsilontonos" unicode="&#x3ad;" horiz-adv-x="1074" 
d="M693 1525l-15 -315l-120 -1l-12 316h147zM830 601l1 -141h-190q-67 0 -130 -7.5t-112 -26.5t-79 -51.5t-30 -83.5q0 -52 26.5 -88.5t71.5 -59t105 -32.5t127 -10q109 0 197.5 16t158.5 53l39 -113q-43 -26 -94 -44t-103.5 -29t-103.5 -15.5t-96 -4.5q-98 0 -185.5 17.5
t-153.5 56t-104.5 100.5t-38.5 151q0 71 25 116t64 72t86.5 40.5t92.5 20.5q-38 8 -74.5 24.5t-65.5 43.5t-47 65.5t-18 90.5q0 78 32 133.5t88 90.5t132.5 51.5t166.5 16.5q45 0 92.5 -5t91.5 -14t82.5 -20.5t65.5 -23.5l-36 -116q-16 7 -50 15t-75.5 15t-86.5 11.5
t-84 4.5q-60 0 -108.5 -11.5t-83 -32.5t-53.5 -51.5t-19 -68.5q0 -41 22.5 -70.5t61 -48.5t90.5 -28t110 -9h192z" />
    <glyph glyph-name="etatonos" unicode="&#x3ae;" horiz-adv-x="1309" 
d="M750 1504l-15 -315l-120 -1l-12 316h147zM1167 552v-895h-155v893q0 95 -21.5 163t-63.5 112t-102.5 64.5t-138.5 20.5q-73 0 -137 -26.5t-111.5 -75t-75 -116t-27.5 -149.5v-544h-154v1019h127l16 -149q30 37 71.5 69.5t90.5 56.5t104.5 37.5t114.5 13.5q234 0 348 -123
t114 -371z" />
    <glyph glyph-name="iotatonos" unicode="&#x3af;" horiz-adv-x="517" 
d="M321 1424l-15 -315l-120 -1l-12 316h147zM181 1v1018h155v-1018h-155z" />
    <glyph glyph-name="upsilondieresistonos" unicode="&#x3b0;" horiz-adv-x="1295" 
d="M629 108q161 0 247 92t86 285v533h155v-538q0 -130 -34 -225.5t-97.5 -158.5t-154 -93.5t-202.5 -30.5t-202.5 30.5t-154 93.5t-97.5 158.5t-34 225.5v538h155v-533q0 -192 84 -284.5t249 -92.5zM342 1245q0 34 24.5 57.5t62.5 23.5q41 0 65 -23.5t24 -57.5
q0 -32 -24.5 -55.5t-64.5 -23.5q-39 0 -63 23.5t-24 55.5zM772 1248q0 34 24.5 57.5t62.5 23.5q40 0 64.5 -23.5t24.5 -57.5q0 -33 -24.5 -56t-64.5 -23q-39 0 -63 23t-24 56zM719 1642l-15 -322l-119 -1l-13 323h147z" />
    <glyph glyph-name="alpha" unicode="&#x3b1;" horiz-adv-x="1403" 
d="M255 509q0 -87 31 -160.5t85 -127t126.5 -83.5t156.5 -30t152.5 33t119.5 88.5t83 128t44 151.5q-9 87 -41 160.5t-83.5 127t-121 83.5t-153.5 30t-157 -30.5t-126.5 -84t-84.5 -127t-31 -159.5zM1257 0h-150l-32 239q-72 -124 -183 -196t-254 -72q-117 0 -216 42
t-170 115t-111 171t-40 210t40 210t111 170.5t170 114.5t216 42q71 0 135.5 -18.5t120 -52.5t102 -81.5t80.5 -106.5l31 231h150l-49 -507z" />
    <glyph glyph-name="beta" unicode="&#x3b2;" horiz-adv-x="1241" 
d="M348 1061l2 -880q27 -11 61.5 -24t75.5 -24t86 -18t93 -7q67 0 125.5 20t102 57.5t68.5 92t25 122.5q0 69 -26 123.5t-71.5 93t-106.5 58.5t-131 20h-147v123h87q50 0 95.5 17.5t80 49.5t54.5 76t20 98q0 52 -20 96t-53.5 75.5t-78.5 49t-96 17.5t-96 -16t-78 -46.5
t-52.5 -74.5t-19.5 -99zM351 -349h-159v1410q0 85 30.5 154t84.5 117.5t127.5 75t159.5 26.5t159.5 -29t127 -80t84 -119.5t30.5 -147.5q0 -49 -13.5 -92t-37.5 -78.5t-57 -63.5t-72 -48q69 -13 128.5 -41.5t103.5 -74.5t69 -110t25 -147q0 -96 -35 -175.5t-97.5 -136.5
t-148.5 -88t-187 -31q-47 0 -93 6.5t-88 17t-78.5 22.5t-63.5 24z" />
    <glyph glyph-name="gamma" unicode="&#x3b3;" horiz-adv-x="1118" 
d="M905 1018h166l-435 -998v-410h-154v410l-435 998h165l336 -781l10 -28h2l9 28z" />
    <glyph glyph-name="delta" unicode="&#x3b4;" horiz-adv-x="1314" 
d="M258 509q0 -87 31.5 -160.5t85.5 -127t127 -83.5t156 -30t155.5 30t126.5 83.5t85.5 127t31.5 160.5q0 86 -31.5 159.5t-85.5 127t-127 84t-156 30.5t-155.5 -30.5t-126.5 -84t-85.5 -127t-31.5 -159.5zM251 1331v89h835v-137l-572 12l456 -340q55 -36 99.5 -84t76 -105
t48.5 -122t17 -135q0 -112 -42 -210.5t-116.5 -171t-176 -114.5t-220.5 -42q-117 0 -218 42t-175.5 115t-116.5 171t-42 210t42 210t116.5 170.5t175.5 114.5t219 42q3 0 6 -0.5t7 -0.5z" />
    <glyph glyph-name="epsilon" unicode="&#x3b5;" horiz-adv-x="1095" 
d="M830 601l1 -141h-190q-67 0 -130 -7.5t-112 -26.5t-79 -51.5t-30 -83.5q0 -52 26.5 -88.5t71.5 -59t105 -32.5t127 -10q109 0 197.5 16t158.5 53l39 -113q-43 -26 -94 -44t-103.5 -29t-103.5 -15.5t-96 -4.5q-98 0 -185.5 17.5t-153.5 56t-104.5 100.5t-38.5 151
q0 71 25 116t64 72t86.5 40.5t92.5 20.5q-38 8 -74.5 24.5t-65.5 43.5t-47 65.5t-18 90.5q0 78 32 133.5t88 90.5t132.5 51.5t166.5 16.5q45 0 92.5 -5t91.5 -14t82.5 -20.5t65.5 -23.5l-36 -116q-16 7 -50 15t-75.5 15t-86.5 11.5t-84 4.5q-60 0 -108.5 -11.5t-83 -32.5
t-53.5 -51.5t-19 -68.5q0 -41 22.5 -70.5t61 -48.5t90.5 -28t110 -9h192z" />
    <glyph glyph-name="zeta" unicode="&#x3b6;" horiz-adv-x="1008" 
d="M867 -371l-92 68q34 29 48.5 57t14.5 76q0 41 -20 67t-58 41t-94.5 21t-129.5 6q-92 0 -178.5 31t-153.5 89.5t-107.5 142.5t-40.5 190q0 100 36.5 185.5t108.5 170.5l508 543h-551v136h804l-6 -31l-654 -761q-18 -21 -33.5 -49.5t-27.5 -61.5t-18.5 -68t-6.5 -67
q0 -68 26 -126t72 -100t109.5 -66.5t137.5 -24.5q71 0 144.5 -10.5t132.5 -38.5t96.5 -77.5t37.5 -127.5t-27.5 -126.5t-77.5 -88.5z" />
    <glyph glyph-name="eta" unicode="&#x3b7;" horiz-adv-x="1309" 
d="M1167 552v-895h-155v893q0 95 -21.5 163t-63.5 112t-102.5 64.5t-138.5 20.5q-73 0 -137 -26.5t-111.5 -75t-75 -116t-27.5 -149.5v-544h-154v1019h127l16 -149q30 37 71.5 69.5t90.5 56.5t104.5 37.5t114.5 13.5q234 0 348 -123t114 -371z" />
    <glyph glyph-name="theta" unicode="&#x3b8;" horiz-adv-x="1243" 
d="M631 101q91 0 159 45.5t114.5 123.5t72.5 182.5t32 222.5h-759q6 -117 31 -221.5t71.5 -183t115.5 -124t163 -45.5zM630 1390q-89 0 -157 -45.5t-115.5 -123.5t-74 -183t-32.5 -224h758q-5 113 -29 217t-69.5 184t-115 127.5t-165.5 47.5zM631 -36q-139 0 -240 61.5
t-167 167.5t-97.5 247t-31.5 300q0 166 34 310t101 250t167.5 166.5t232.5 60.5q147 0 249 -64t165.5 -172t92.5 -249t29 -295q0 -162 -32.5 -304.5t-98.5 -249t-166.5 -168t-237.5 -61.5z" />
    <glyph glyph-name="iota" unicode="&#x3b9;" horiz-adv-x="517" 
d="M181 0v1018h155v-1018h-155z" />
    <glyph glyph-name="kappa" unicode="&#x3ba;" horiz-adv-x="1162" 
d="M181 0v1017h154v-632l530 633h183l-379 -451l410 -567h-187l-334 463l-223 -261v-202h-154z" />
    <glyph glyph-name="lambda" unicode="&#x3bb;" horiz-adv-x="1134" 
d="M951 -1l-353 821l-5 -31l-343 -790h-171l438 996l-193 416h167l626 -1413z" />
    <glyph glyph-name="uni03BC" unicode="&#x3bc;" horiz-adv-x="1331" 
d="M332 224l8 -7l-8 11v-4zM185 1018h155v-531q0 -80 27.5 -150t74 -122.5t109 -82.5t132.5 -30q163 0 248.5 87t85.5 267v562h155v-557q0 -112 -28.5 -204t-86 -156.5t-144.5 -100t-203 -35.5q-71 0 -131.5 21t-109 55t-83 77.5t-54.5 87.5l9 -549h-156v1361z" />
    <glyph glyph-name="nu" unicode="&#x3bd;" horiz-adv-x="1132" 
d="M904 1018h166l-441 -1018h-143l-440 1018h165l346 -816z" />
    <glyph glyph-name="xi" unicode="&#x3be;" horiz-adv-x="967" 
d="M851 1412v-136h-281q-46 -4 -87 -20t-71 -44t-47.5 -67t-17.5 -88t18 -88t48.5 -66.5t72 -43.5t87.5 -19l219 -1v-136h-206q-70 0 -131.5 -21t-107 -60t-71.5 -94.5t-26 -124.5q0 -68 25.5 -124t69 -95.5t102 -61t125.5 -21.5h2q86 0 158 -11.5t125 -41t82.5 -81
t29.5 -130.5q0 -70 -27 -118.5t-78 -87.5l-92 68q35 26 49.5 56t14.5 72q0 79 -65 108t-198 29q-101 0 -188.5 31t-151.5 88t-100.5 138t-36.5 181q0 77 22 139.5t60.5 109.5t91.5 79.5t115 49.5q-87 36 -139.5 106t-52.5 173q0 44 11.5 77t32 61t48.5 52t61 48l-222 -21
v136h727z" />
    <glyph glyph-name="omicron" unicode="&#x3bf;" horiz-adv-x="1314" 
d="M104 509q0 112 42 210t116.5 170.5t175.5 114.5t219 42t219.5 -42t175.5 -114.5t116.5 -170.5t42.5 -210t-42.5 -210t-116.5 -171t-175.5 -114.5t-220.5 -41.5q-117 0 -218 42t-175.5 114.5t-116.5 170.5t-42 210zM258 509q0 -87 31.5 -160.5t85.5 -127t127 -83.5
t156 -30t156 30t127 83.5t85.5 127t31.5 160.5q0 86 -31.5 159.5t-85.5 127t-127 84t-156 30.5t-156 -30.5t-127 -84t-85.5 -127t-31.5 -159.5z" />
    <glyph glyph-name="pi" unicode="&#x3c0;" horiz-adv-x="1334" 
d="M181 0v1018h965v-1018h-155v881h-655v-881h-155z" />
    <glyph glyph-name="rho" unicode="&#x3c1;" horiz-adv-x="1392" 
d="M1134 510q0 86 -31.5 159t-85.5 126.5t-126.5 84t-155.5 30.5t-156 -30t-127 -83.5t-85.5 -127t-31.5 -159.5q0 -87 31.5 -161.5t85.5 -129.5t127 -86.5t156 -31.5t156 31.5t127 86.5t85 129.5t31 161.5zM1289 510q0 -112 -41 -211t-113.5 -173.5t-172.5 -118t-218 -43.5
q-66 0 -126.5 17.5t-113.5 49t-97.5 76t-78.5 98.5l9 -549h-156v851q0 110 40 207.5t113 171.5t175.5 117t226.5 43q118 0 219 -41.5t175.5 -114t116.5 -170.5t42 -210z" />
    <glyph glyph-name="sigma1" unicode="&#x3c2;" horiz-adv-x="1327" 
d="M971 -368l-92 66q13 12 24.5 22t19.5 23.5t13 33.5t5 54q0 41 -17 68.5t-50 43.5t-81.5 22.5t-111.5 6.5q-118 0 -219 42t-175.5 115t-116.5 170.5t-42 209.5t42 210t116.5 170.5t175.5 114.5t219 42q92 0 172.5 -25t146.5 -70.5t115.5 -108.5t77.5 -138l-158 -3
q-25 49 -62 87.5t-82.5 65.5t-98.5 41.5t-110 14.5q-78 0 -150.5 -28t-128 -80.5t-88.5 -126.5t-33 -166t33.5 -166.5t89 -126.5t127.5 -80t150 -28q81 0 152.5 -12.5t125 -43.5t85 -82t31.5 -129q0 -51 -11 -84.5t-27.5 -56t-34.5 -38t-32 -30.5z" />
    <glyph glyph-name="sigma" unicode="&#x3c3;" horiz-adv-x="1324" 
d="M299 521q0 -87 31.5 -160.5t85.5 -127t127 -83.5t156 -30t155.5 30t126.5 83.5t85.5 127t31.5 160.5q0 86 -31.5 159.5t-85.5 127t-126.5 84t-155.5 30.5t-156 -30.5t-127 -84t-85.5 -127t-31.5 -159.5zM145 521q0 112 42 210t116 170.5t175 114.5t219 42q56 0 108 -9.5
t100 -27.5q25 0 55.5 -0.5t61 -0.5t60 -0.5t72.5 -0.5q72 0 147 -1v-131l-210 16q75 -73 118 -171t43 -211q0 -112 -42.5 -210t-116.5 -171t-175.5 -114.5t-220.5 -41.5q-117 0 -218 42t-175.5 114.5t-116.5 170.5t-42 210z" />
    <glyph glyph-name="tau" unicode="&#x3c4;" horiz-adv-x="1025" 
d="M437 0v886h-340v133h834v-133h-341v-886h-153z" />
    <glyph glyph-name="upsilon" unicode="&#x3c5;" horiz-adv-x="1295" 
d="M629 108q161 0 247 92t86 285v533h155v-538q0 -130 -34 -225.5t-97.5 -158.5t-154 -93.5t-202.5 -30.5t-202.5 30.5t-154 93.5t-97.5 158.5t-34 225.5v538h155v-533q0 -192 84 -284.5t249 -92.5z" />
    <glyph glyph-name="phi" unicode="&#x3c6;" horiz-adv-x="1468" 
d="M657 1446h155v-393q117 -1 217 -44.5t173.5 -117.5t115 -172.5t41.5 -209.5q0 -112 -41.5 -210.5t-114.5 -172.5t-173.5 -117.5t-217.5 -44.5v-346h-155v346q-117 0 -217 43.5t-173.5 117.5t-115.5 173t-42 211q0 111 41.5 209.5t115 172.5t174 117.5t217.5 44.5v393z
M263 509q0 -86 31 -160.5t84 -129t125 -86t154 -32.5v815q-82 -1 -154 -32.5t-125 -86t-84 -128.5t-31 -160zM1206 509q0 85 -31 159t-84.5 128.5t-125 86.5t-153.5 33v-815q82 1 154 32.5t125 86t84 129t31 160.5z" />
    <glyph glyph-name="chi" unicode="&#x3c7;" horiz-adv-x="1071" 
d="M52 1018h173l305 -536l306 536h172l-374 -666l383 -697h-175l-314 563l-314 -563h-171l382 697z" />
    <glyph glyph-name="psi" unicode="&#x3c8;" horiz-adv-x="1418" 
d="M632 -343v307q-121 1 -212.5 37.5t-153 102.5t-92.5 158t-31 204v552h155v-546q0 -178 86.5 -273.5t247.5 -96.5v916h155v-916q160 1 247 96.5t87 273.5v546h155v-552q0 -112 -31 -204t-92.5 -158t-153 -102.5t-212.5 -37.5v-307h-155z" />
    <glyph glyph-name="omega" unicode="&#x3c9;" horiz-adv-x="1978" 
d="M1364 102q143 0 220.5 84.5t77.5 244.5v584h156v-589q0 -103 -28.5 -188.5t-85.5 -146t-142 -94t-198 -33.5q-151 0 -241.5 59.5t-135.5 164.5q-44 -105 -135 -164.5t-242 -59.5q-112 0 -197 33.5t-142.5 94t-86.5 146t-29 188.5v589h157v-584q0 -160 77.5 -244.5
t220.5 -84.5t221 84.5t78 244.5v584h156v-584q0 -160 78 -244.5t221 -84.5z" />
    <glyph glyph-name="iotadieresis" unicode="&#x3ca;" horiz-adv-x="517" 
d="M181 1v1018h155v-1018h-155zM-5 1319q0 34 25 57.5t63 23.5q40 0 64.5 -23.5t24.5 -57.5q0 -33 -24.5 -56t-64.5 -23q-39 0 -63.5 23t-24.5 56zM326 1319q0 34 24.5 57.5t62.5 23.5q41 0 65 -23.5t24 -57.5q0 -33 -24.5 -56t-64.5 -23q-39 0 -63 23t-24 56z" />
    <glyph glyph-name="upsilondieresis" unicode="&#x3cb;" horiz-adv-x="1295" 
d="M629 108q161 0 247 92t86 285v533h155v-538q0 -130 -34 -225.5t-97.5 -158.5t-154 -93.5t-202.5 -30.5t-202.5 30.5t-154 93.5t-97.5 158.5t-34 225.5v538h155v-533q0 -192 84 -284.5t249 -92.5zM406 1329q0 34 25 57.5t63 23.5q40 0 64.5 -23.5t24.5 -57.5
q0 -33 -24.5 -56t-64.5 -23q-39 0 -63.5 23t-24.5 56zM737 1329q0 34 24.5 57.5t62.5 23.5q41 0 65 -23.5t24 -57.5q0 -33 -24.5 -56t-64.5 -23q-39 0 -63 23t-24 56z" />
    <glyph glyph-name="omicrontonos" unicode="&#x3cc;" horiz-adv-x="1314" 
d="M744 1429l-15 -315l-120 -1l-12 316h147zM104 509q0 112 42 210t116.5 170.5t175.5 114.5t219 42t219.5 -42t175.5 -114.5t116.5 -170.5t42.5 -210t-42.5 -210t-116.5 -171t-175.5 -114.5t-220.5 -41.5q-117 0 -218 42t-175.5 114.5t-116.5 170.5t-42 210zM258 509
q0 -87 31.5 -160.5t85.5 -127t127 -83.5t156 -30t156 30t127 83.5t85.5 127t31.5 160.5q0 86 -31.5 159.5t-85.5 127t-127 84t-156 30.5t-156 -30.5t-127 -84t-85.5 -127t-31.5 -159.5z" />
    <glyph glyph-name="upsilontonos" unicode="&#x3cd;" horiz-adv-x="1295" 
d="M629 108q161 0 247 92t86 285v533h155v-538q0 -130 -34 -225.5t-97.5 -158.5t-154 -93.5t-202.5 -30.5t-202.5 30.5t-154 93.5t-97.5 158.5t-34 225.5v538h155v-533q0 -192 84 -284.5t249 -92.5zM728 1476l-15 -315l-120 -1l-12 316h147z" />
    <glyph glyph-name="omegatonos" unicode="&#x3ce;" horiz-adv-x="1978" 
d="M1058 1430l-15 -315l-120 -1l-12 316h147zM1364 102q143 0 220.5 84.5t77.5 244.5v584h156v-589q0 -103 -28.5 -188.5t-85.5 -146t-142 -94t-198 -33.5q-151 0 -241.5 59.5t-135.5 164.5q-44 -105 -135 -164.5t-242 -59.5q-112 0 -197 33.5t-142.5 94t-86.5 146
t-29 188.5v589h157v-584q0 -160 77.5 -244.5t220.5 -84.5t221 84.5t78 244.5v584h156v-584q0 -160 78 -244.5t221 -84.5z" />
    <glyph glyph-name="uni03F0" unicode="&#x3f0;" horiz-adv-x="1076" 
d="M61 1018h186l291 -394l292 394h184l-372 -500l381 -518h-187l-299 406l-300 -406h-183l380 518z" />
    <glyph glyph-name="uni0401" unicode="&#x401;" horiz-adv-x="1167" 
d="M180 0v1360h896v-140h-739v-478h643v-138h-643v-465h748v-139h-905zM374 1656q0 34 25 57.5t63 23.5q40 0 64.5 -23.5t24.5 -57.5q0 -33 -24.5 -56t-64.5 -23q-39 0 -63.5 23t-24.5 56zM705 1656q0 34 24.5 57.5t62.5 23.5q41 0 65 -23.5t24 -57.5q0 -33 -24.5 -56
t-64.5 -23q-39 0 -63 23t-24 56z" />
    <glyph glyph-name="uni0402" unicode="&#x402;" horiz-adv-x="1589" 
d="M1422 496v-540q0 -155 -66.5 -239.5t-206.5 -84.5q-28 0 -51 6.5t-40.5 14.5t-30 16.5t-20.5 11.5l59 102q14 -5 27.5 -9.5t35.5 -4.5q41 0 67.5 14t41.5 39.5t20.5 61t5.5 78.5v534q0 167 -68 249t-219 82q-66 0 -124 -28.5t-102 -77.5t-69.5 -114.5t-25.5 -140.5v-466
h-158v1223h-456v137h1070v-137h-456v-468q20 39 53 77t77 67t99 47t118 18q110 0 189 -33.5t130 -94.5t75.5 -147.5t24.5 -192.5z" />
    <glyph glyph-name="uni0403" unicode="&#x403;" horiz-adv-x="1154" 
d="M716 1830l118 -42l-175 -237h-115zM177 0v1360h896v-140h-738v-1220h-158z" />
    <glyph glyph-name="uni0404" unicode="&#x404;" horiz-adv-x="1474" 
d="M1149 750v-138h-866q9 -106 56 -198.5t121.5 -161t171 -107.5t205.5 -39q121 0 225 46t182 127l112 -97q-100 -100 -233 -157.5t-286 -57.5q-150 0 -282 56.5t-231 153.5t-156 227t-57 277q0 149 57 279t156 227t231 153t282 56q154 0 287 -57.5t233 -157.5l-112 -97
q-78 81 -182.5 127.5t-225.5 46.5q-109 0 -206 -39.5t-171 -108t-121 -161t-56 -199.5h866z" />
    <glyph glyph-name="uni0405" unicode="&#x405;" horiz-adv-x="1156" 
d="M53 108l58 133q36 -18 85.5 -40.5t109 -42t128 -33t141.5 -13.5q195 0 293.5 68.5t98.5 198.5q0 65 -30 110t-82.5 76t-123.5 50t-153 33q-49 7 -103 16.5t-107 25.5t-101 40t-85 59t-58.5 84t-21.5 114q0 80 27 153t87 128.5t157 88.5t238 33q75 0 143.5 -13
t129.5 -32.5t114.5 -43.5t98.5 -46l-50 -133q-30 17 -78.5 39t-108.5 42t-127 33.5t-134 13.5q-99 0 -164 -22t-104 -57.5t-55 -80t-16 -90.5q0 -59 28.5 -98.5t79.5 -65.5t122 -41t156 -25q84 -14 169.5 -36.5t155 -66t113 -113.5t43.5 -180q0 -94 -38.5 -169t-111 -126.5
t-176.5 -79t-235 -27.5q-77 0 -149.5 10.5t-138.5 29t-123 43.5t-102 53z" />
    <glyph glyph-name="uni0406" unicode="&#x406;" horiz-adv-x="517" 
d="M180 0v1360h157v-1360h-157z" />
    <glyph glyph-name="uni0407" unicode="&#x407;" horiz-adv-x="517" 
d="M180 0v1360h157v-1360h-157zM41 1670q0 34 25 57.5t63 23.5q40 0 64.5 -23.5t24.5 -57.5q0 -33 -24.5 -56t-64.5 -23q-39 0 -63.5 23t-24.5 56zM372 1670q0 34 24.5 57.5t62.5 23.5q41 0 65 -23.5t24 -57.5q0 -33 -24.5 -56t-64.5 -23q-39 0 -63 23t-24 56z" />
    <glyph glyph-name="uni0408" unicode="&#x408;" horiz-adv-x="777" 
d="M46 0v138h136q80 0 135 20.5t88.5 58.5t48 93t14.5 125v925h157v-926q0 -212 -109.5 -323t-334.5 -111h-135z" />
    <glyph glyph-name="uni0409" unicode="&#x409;" horiz-adv-x="2233" 
d="M1727 690h-363v-552h361q57 0 108 21.5t89 58.5t60 88t22 109q0 59 -22 109.5t-60 87.5t-88.5 57.5t-106.5 20.5zM1364 1360v-532h366q96 0 175.5 -32.5t136.5 -88.5t88.5 -131.5t31.5 -161.5q0 -90 -34 -166t-93 -131t-138 -86t-169 -31h-522v1220h-806v-927
q0 -78 -22.5 -137.5t-63.5 -100t-98 -61.5t-127 -21q-20 0 -39 2t-33 4l25 136q2 0 8 -0.5t13 -1t13 -1t9 -0.5q83 0 120.5 50t37.5 137v1061h1121z" />
    <glyph glyph-name="uni040A" unicode="&#x40a;" horiz-adv-x="2225" 
d="M1740 664h-364v-526h362q57 0 107.5 19.5t89 54t60.5 83.5t22 107q0 59 -22 107t-60 82.5t-88.5 53.5t-106.5 19zM377 0h-159v1360h159v-559h841v559h158v-558h367q96 0 175.5 -30.5t136.5 -84t88.5 -126.5t31.5 -159q0 -90 -34 -164.5t-93 -127t-138.5 -81.5t-169.5 -29
h-522v663h-841v-663z" />
    <glyph glyph-name="uni040B" unicode="&#x40b;" horiz-adv-x="1589" 
d="M1422 496v-496h-158v496q0 167 -68 249t-219 82q-66 0 -124 -28.5t-102 -77.5t-69.5 -114.5t-25.5 -140.5v-466h-158v1223h-456v137h1070v-137h-456v-468q20 39 53 77t77 67t99 47t118 18q110 0 189 -33.5t130 -94.5t75.5 -147.5t24.5 -192.5z" />
    <glyph glyph-name="uni040C" unicode="&#x40c;" horiz-adv-x="1304" 
d="M337 1360v-883l725 883h186l-496 -600l529 -760h-190l-441 642l-313 -374v-268h-157v1360h157zM767 1830l118 -42l-175 -237h-115z" />
    <glyph glyph-name="uni040E" unicode="&#x40e;" horiz-adv-x="1154" 
d="M771 1795l111 -10q-14 -106 -88.5 -168.5t-206.5 -62.5t-206.5 62.5t-88.5 168.5l111 10q10 -29 23 -53t34 -40.5t51.5 -25.5t75.5 -9t75.5 9t51.5 25.5t34 40.5t23 53zM206 -26l26 134q2 0 7.5 -0.5t12.5 -1t13.5 -1t8.5 -0.5q52 0 87.5 18t54.5 63l78 166l-458 1008
h174l368 -834l369 834h173l-556 -1224q-38 -83 -111.5 -125.5t-173.5 -42.5q-20 0 -39.5 2t-33.5 4z" />
    <glyph glyph-name="uni040F" unicode="&#x40f;" horiz-adv-x="1475" 
d="M185 0v1360h157v-1220h792v1220h156v-1277h-12l-12 -83h-450v-388h-157v388h-474z" />
    <glyph glyph-name="uni0410" unicode="&#x410;" horiz-adv-x="1352" 
d="M675 1157l-5 -23l-289 -679h588l-288 679zM1329 0h-167l-135 318h-704l-135 -318h-167l578 1360h153z" />
    <glyph glyph-name="uni0411" unicode="&#x411;" horiz-adv-x="1226" 
d="M701 690h-363v-552h361q57 0 108 21.5t89.5 58.5t60.5 88t22 109q0 59 -22.5 109.5t-60.5 87.5t-88.5 57.5t-106.5 20.5zM338 1222v-394h366q96 0 175.5 -32.5t136.5 -88.5t88.5 -131.5t31.5 -161.5q0 -90 -34 -166t-93 -131t-138.5 -86t-169.5 -31h-521v1360h843v-138
h-685z" />
    <glyph glyph-name="uni0412" unicode="&#x412;" horiz-adv-x="1302" 
d="M337 639v-503h463q49 0 95 18.5t81 52t56.5 80t21.5 101.5q0 53 -19.5 99t-53.5 80t-80 53t-98 19h-466zM749 1227h-412v-462h412q46 0 87 17.5t72.5 48.5t50 73t18.5 91q0 48 -18.5 90.5t-49.5 74t-72.5 49.5t-87.5 18zM814 0h-634v1360h577q83 0 153 -26t120.5 -73
t79 -112.5t28.5 -144.5q0 -47 -14 -91t-38.5 -81.5t-58 -66.5t-72.5 -46q55 -16 103 -48t83.5 -76.5t56 -99t20.5 -114.5q0 -90 -33.5 -161t-89.5 -119.5t-129 -74.5t-152 -26z" />
    <glyph glyph-name="uni0413" unicode="&#x413;" horiz-adv-x="1116" 
d="M180 0v1360h896v-140h-738v-1220h-158z" />
    <glyph glyph-name="uni0414" unicode="&#x414;" horiz-adv-x="1483" 
d="M574 1220l-51 -551q-7 -66 -22 -138t-38 -142t-54 -134.5t-70 -114.5h760v1080h-525zM1419 -297h-157v297h-1044v-297h-157v437h82q28 18 54.5 55.5t50 86t43.5 104t35.5 110t26 104t13.5 85.5l62 675h827v-1220h164v-437z" />
    <glyph glyph-name="uni0415" unicode="&#x415;" horiz-adv-x="1167" 
d="M180 0v1360h896v-140h-739v-478h643v-138h-643v-465h748v-139h-905z" />
    <glyph glyph-name="uni0416" unicode="&#x416;" horiz-adv-x="1976" 
d="M1068 875l103 -112l511 597h199l-605 -710l603 -650h-204l-607 653v-653h-159v653l-607 -653h-203l602 650l-605 710h199l511 -596l103 111v485h159v-485z" />
    <glyph glyph-name="uni0417" unicode="&#x417;" horiz-adv-x="1288" 
d="M999 375q0 66 -24 113t-67.5 79t-104 50.5t-134.5 27.5h-331v138h333q63 8 112.5 23.5t84.5 43t53.5 67.5t18.5 97q0 64 -28 110.5t-76 76.5t-111.5 44.5t-133.5 14.5q-39 0 -86.5 -5t-94.5 -17t-90 -31.5t-73 -48.5l-84 100q32 36 82.5 62.5t110.5 43.5t123.5 25.5
t120.5 8.5q108 0 199.5 -24.5t158 -72.5t103.5 -120t37 -167q0 -64 -18 -113t-48.5 -85.5t-71.5 -61.5t-87 -41q52 -14 103 -39.5t91 -66.5t65 -99.5t25 -139.5q0 -98 -45.5 -173t-121.5 -125.5t-173.5 -76.5t-202.5 -26q-82 0 -161 12t-147.5 35.5t-123.5 57t-91 76.5
l100 95q29 -31 74.5 -56.5t101.5 -43.5t118 -27.5t124 -9.5q72 0 142 17.5t125 51.5t89 84.5t34 115.5z" />
    <glyph glyph-name="uni0418" unicode="&#x418;" horiz-adv-x="1512" 
d="M180 1360h156v-1085l866 1085h131v-1360h-158v1082l-863 -1082h-132v1360z" />
    <glyph glyph-name="uni0419" unicode="&#x419;" horiz-adv-x="1512" 
d="M917 1784l111 -10q-14 -106 -88.5 -168.5t-206.5 -62.5t-206.5 62.5t-88.5 168.5l111 10q10 -29 23 -53t34 -40.5t51.5 -25.5t75.5 -9t75.5 9t51.5 25.5t34 40.5t23 53zM180 1360h156v-1085l866 1085h131v-1360h-158v1082l-863 -1082h-132v1360z" />
    <glyph glyph-name="uni041A" unicode="&#x41a;" horiz-adv-x="1304" 
d="M337 1360v-883l725 883h186l-496 -600l529 -760h-190l-441 642l-313 -374v-268h-157v1360h157z" />
    <glyph glyph-name="uni041B" unicode="&#x41b;" horiz-adv-x="1543" 
d="M1207 0v1220h-807v-927q0 -78 -22.5 -137.5t-63.5 -100t-98 -61.5t-127 -21q-20 0 -39 2t-33 4l25 136q2 0 8 -0.5t13 -1t13 -1t9 -0.5q83 0 120.5 50t37.5 137v1061h1121v-1360h-157z" />
    <glyph glyph-name="uni041C" unicode="&#x41c;" horiz-adv-x="1692" 
d="M868 457h-47l-484 643v-1100h-157v1360h135l530 -698l530 698h137v-1360h-156v1099z" />
    <glyph glyph-name="uni041D" unicode="&#x41d;" horiz-adv-x="1488" 
d="M180 0v1360h157v-618h813v618h158v-1360h-158v604h-813v-604h-157z" />
    <glyph glyph-name="uni041E" unicode="&#x41e;" horiz-adv-x="1670" 
d="M108 681q0 149 57 278t155.5 225t231 151t282.5 55t282.5 -55t231.5 -151t156 -225t57 -278q0 -147 -57 -276t-156 -225t-231.5 -151t-282.5 -55t-282.5 55t-231 151t-155.5 225t-57 276zM265 681q0 -120 45 -224t122 -180.5t180.5 -120.5t221.5 -44t222 44t181 120.5
t122 180.5t45 224q0 121 -45 225t-122 181t-181 121t-222 44t-221.5 -44t-180.5 -121t-122 -181t-45 -225z" />
    <glyph glyph-name="uni041F" unicode="&#x41f;" horiz-adv-x="1488" 
d="M1183 0v1220h-845v-1220h-158v1360h1160v-1360h-157z" />
    <glyph glyph-name="uni0420" unicode="&#x420;" horiz-adv-x="1253" 
d="M337 618h394q63 0 116.5 23t92.5 63.5t61 95.5t22 119q0 63 -22.5 118.5t-62 96.5t-93.5 64.5t-117 23.5h-391v-604zM737 480h-400v-480h-157v1360h554q98 0 179.5 -33t141 -92t92.5 -139.5t33 -176.5t-33 -176.5t-92 -139t-140 -91t-178 -32.5z" />
    <glyph glyph-name="uni0421" unicode="&#x421;" horiz-adv-x="1464" 
d="M1260 300l98 -101q-48 -49 -106 -90.5t-124 -71.5t-140 -46.5t-154 -16.5q-150 0 -282.5 55t-231 151t-155.5 225t-57 276q0 149 57 278t155.5 225t231 151t282.5 55q79 0 152.5 -16t139.5 -45.5t124 -70.5t107 -92l-98 -103q-79 89 -189 139t-236 50q-118 0 -221.5 -44
t-180.5 -121t-122 -181t-45 -225q0 -120 45 -224t122 -180.5t180.5 -120.5t221.5 -44q126 0 236.5 50t189.5 138z" />
    <glyph glyph-name="uni0422" unicode="&#x422;" horiz-adv-x="1151" 
d="M498 0v1222h-437v138h1033v-138h-438v-1222h-158z" />
    <glyph glyph-name="uni0423" unicode="&#x423;" horiz-adv-x="1154" 
d="M206 -26l26 134q2 0 7.5 -0.5t12.5 -1t13.5 -1t8.5 -0.5q52 0 87.5 18t54.5 63l78 166l-458 1008h174l368 -834l369 834h173l-556 -1224q-38 -83 -111.5 -125.5t-173.5 -42.5q-20 0 -39.5 2t-33.5 4z" />
    <glyph glyph-name="uni0424" unicode="&#x424;" horiz-adv-x="1688" 
d="M262 681q0 -110 40 -190t108.5 -133.5t160.5 -82t196 -36.5v886q-105 -7 -197 -36t-160.5 -82.5t-108 -134t-39.5 -191.5zM1428 681q0 111 -39.5 191.5t-108 134t-160.5 82.5t-197 36v-887q105 8 197 36.5t160.5 82.5t108 134t39.5 190zM923 0h-156v100q-148 8 -270 48
t-209.5 112t-135.5 177.5t-48 243.5q0 140 48.5 245t136 177.5t209.5 112.5t269 48v96h156v-96q147 -8 269 -48t209.5 -112.5t136 -177.5t48.5 -245q0 -138 -48.5 -243t-136 -177.5t-209.5 -112.5t-269 -48v-100z" />
    <glyph glyph-name="uni0425" unicode="&#x425;" horiz-adv-x="1325" 
d="M259 1360l402 -548l402 548h188l-491 -654l523 -706h-188l-434 598l-434 -598h-188l523 706l-491 654h188z" />
    <glyph glyph-name="uni0426" unicode="&#x426;" horiz-adv-x="1593" 
d="M180 0v1360h157v-1220h791v1220h157v-1220h246v-437h-157v297h-1194z" />
    <glyph glyph-name="uni0427" unicode="&#x427;" horiz-adv-x="1309" 
d="M145 836v524h157v-524q0 -168 79.5 -249t230.5 -81q66 0 124.5 28.5t102.5 77t69.5 114t25.5 140.5v494h157v-1360h-153l-1 585q-19 -40 -52 -79t-77.5 -70t-100 -49.5t-120.5 -18.5q-109 0 -192 33.5t-138.5 94.5t-83.5 147.5t-28 192.5z" />
    <glyph glyph-name="uni0428" unicode="&#x428;" horiz-adv-x="2073" 
d="M180 0v1360h157v-1220h621v1220h156v-1220h622v1220h157v-1360h-1713z" />
    <glyph glyph-name="uni0429" unicode="&#x429;" horiz-adv-x="2215" 
d="M180 0v1360h157v-1220h621v1220h156v-1220h622v1220h157v-1220h246v-437h-158v297h-1801z" />
    <glyph glyph-name="uni042A" unicode="&#x42a;" horiz-adv-x="1438" 
d="M922 880q97 0 178.5 -32.5t140 -91t91.5 -139t33 -176.5t-33 -176.5t-92.5 -139.5t-141 -92t-179.5 -33h-554v1220h-330v140h487v-480h400zM916 742h-394v-604h391q63 0 117 23.5t93.5 64.5t62 96.5t22.5 118.5q0 64 -22 119t-61 95.5t-92.5 63.5t-116.5 23z" />
    <glyph glyph-name="uni042B" unicode="&#x42b;" horiz-adv-x="1748" 
d="M731 742h-394v-604h391q63 0 117 23.5t93.5 64.5t62 96.5t22.5 118.5q0 64 -22 119t-61 95.5t-92.5 63.5t-116.5 23zM737 880q97 0 178 -32.5t140 -91t92 -139t33 -176.5t-33 -176.5t-92.5 -139.5t-141 -92t-179.5 -33h-554v1360h157v-480h400zM1355 0v1360h157v-1360
h-157z" />
    <glyph glyph-name="uni042C" unicode="&#x42c;" horiz-adv-x="1253" 
d="M737 880q97 0 178 -32.5t140 -91t92 -139t33 -176.5t-33 -176.5t-92.5 -139.5t-141 -92t-179.5 -33h-554v1360h157v-480h400zM731 742h-394v-604h391q63 0 117 23.5t93.5 64.5t62 96.5t22.5 118.5q0 64 -22 119t-61 95.5t-92.5 63.5t-116.5 23z" />
    <glyph glyph-name="uni042D" unicode="&#x42d;" horiz-adv-x="1440" 
d="M331 612l1 138h865q-9 107 -55.5 199.5t-121 161t-171 108t-206.5 39.5q-121 0 -225.5 -46.5t-182.5 -127.5l-112 97q100 100 233.5 157.5t286.5 57.5q150 0 282.5 -56t231 -153t155.5 -227t57 -279q0 -147 -57 -277t-155.5 -227t-231 -153.5t-282.5 -56.5
q-152 0 -285.5 57.5t-233.5 157.5l112 97q77 -81 181.5 -127t225.5 -46q109 0 205.5 39t171 107.5t121 161t55.5 198.5h-865z" />
    <glyph glyph-name="uni042E" unicode="&#x42e;" horiz-adv-x="2230" 
d="M290 752v-132l489 -1v133h-489zM651 681q0 149 57 278t155.5 225t231 151t282.5 55t282.5 -55t231.5 -151t156 -225t57 -278q0 -147 -57 -276t-156 -225t-231.5 -151t-282.5 -55t-282.5 55t-231 151t-155.5 225t-57 276zM808 681q0 -120 45 -224t122 -180.5t180.5 -120.5
t221.5 -44t222 44t181 120.5t122 180.5t45 224q0 121 -45 225t-122 181t-181 121t-222 44t-221.5 -44t-180.5 -121t-122 -181t-45 -225zM180 0v1360h157v-1360h-157z" />
    <glyph glyph-name="uni042F" unicode="&#x42f;" horiz-adv-x="1304" 
d="M602 648h365v575h-362q-57 0 -108.5 -23.5t-89.5 -63t-60.5 -92t-22.5 -110.5q0 -59 22.5 -111t60.5 -91t88.5 -61.5t106.5 -22.5zM967 0v510h-368q-11 0 -20.5 0.5t-19.5 1.5l-252 -512h-175l274 553q-53 26 -96.5 64.5t-75 87.5t-49 107.5t-17.5 122.5q0 90 34 167.5
t92.5 135t138 90t169.5 32.5h522v-1360h-157z" />
    <glyph glyph-name="uni0430" unicode="&#x430;" horiz-adv-x="1205" 
d="M549 102q60 0 121.5 15.5t114.5 43.5t92.5 66.5t55.5 84.5v146q-29 0 -65.5 1.5t-74 2.5t-73.5 2t-65 1q-61 0 -123.5 -6.5t-113.5 -25.5t-83.5 -52t-32.5 -86q0 -54 19 -91t52.5 -59.5t78.5 -32.5t97 -10zM1087 0h-128l-14 153q-39 -41 -90.5 -74t-110 -55.5t-121 -34.5
t-123.5 -12q-73 0 -138 18t-113.5 57t-76.5 100t-28 148q0 83 42 136.5t111 85t158 44t183 12.5q29 0 67 -1t78.5 -2t79.5 -2.5t70 -1.5v135q-2 41 -22 79t-59 67t-97.5 46.5t-138.5 17.5q-60 0 -114.5 -15t-95.5 -40.5t-65 -59t-24 -70.5h-156q1 72 38 130t98.5 99
t143 63.5t172.5 22.5q121 0 210 -27.5t147.5 -73.5t87.5 -106t29 -126v-713z" />
    <glyph glyph-name="uni0431" unicode="&#x431;" horiz-adv-x="1329" 
d="M269 509q0 -87 31.5 -161.5t85.5 -129t126.5 -86t155.5 -31.5t156 31.5t127 86t85.5 129t31.5 161.5q0 86 -31.5 160.5t-85.5 129t-127 86t-156 31.5t-156 -31t-127 -86t-85 -129.5t-31 -160.5zM114 509v425q0 112 42 211t116 173t175 117t219 43q39 0 76.5 -6.5t75 -14
t75.5 -14t78 -6.5q37 0 72 7l-4 -130q-19 -7 -39 -9.5t-40 -2.5q-36 0 -73.5 6.5t-75 14t-74 14t-69.5 6.5q-83 0 -156 -31.5t-127 -86.5t-85 -129.5t-31 -161.5v-112q32 48 75 90t95 73.5t113 49.5t129 18q118 0 217 -43t171 -117t112 -173t40 -211t-42.5 -211.5
t-116.5 -173.5t-175.5 -117t-220.5 -43q-117 0 -218 43t-175.5 117.5t-116.5 173.5t-42 211z" />
    <glyph glyph-name="uni0432" unicode="&#x432;" horiz-adv-x="1119" 
d="M335 470v-338h347q39 0 73.5 13t59.5 36t39.5 53.5t14.5 66.5q0 35 -14.5 65.5t-39 53.5t-58.5 36.5t-73 13.5h-349zM641 892h-306v-309h306q34 0 64.5 12t53.5 33t36.5 49t13.5 60t-13.5 60t-36.5 49t-53.5 33.5t-64.5 12.5zM694 0h-513v1019h466q69 0 127 -19.5
t100 -54.5t65 -85t23 -112q0 -34 -11 -66.5t-30.5 -60.5t-45 -49t-55.5 -33q42 -12 79.5 -35.5t65.5 -56t44 -72t16 -84.5q0 -72 -28 -126t-74 -91t-105.5 -55.5t-123.5 -18.5z" />
    <glyph glyph-name="uni0433" unicode="&#x433;" horiz-adv-x="979" 
d="M185 0v1018h745v-137h-591v-881h-154z" />
    <glyph glyph-name="uni0434" unicode="&#x434;" horiz-adv-x="1395" 
d="M569 882l-23 -235q-9 -93 -27.5 -167.5t-46.5 -136t-65.5 -112.5t-85.5 -97h703v748h-455zM1297 -228h-135l-20 228h-912l-21 -228h-135v362h83q101 93 162.5 230.5t78.5 330.5l29 323h751v-884h119v-362z" />
    <glyph glyph-name="uni0435" unicode="&#x435;" horiz-adv-x="1181" 
d="M639 927q-75 0 -142 -26t-120 -72.5t-88.5 -109.5t-46.5 -138h494q105 2 156 45t51 112q0 33 -19 67t-56.5 61t-94.5 44t-134 17zM755 452h-512q12 -73 47.5 -134.5t87.5 -106t118.5 -69.5t139.5 -25q106 0 182 36.5t134 97.5l89 -92q-33 -36 -75.5 -68t-94.5 -56
t-111.5 -38t-125.5 -14q-116 0 -215.5 42.5t-173 115.5t-115 170.5t-41.5 208.5t41.5 208.5t115 171t173.5 116t216 42.5q111 0 196 -27t142.5 -72t87 -103.5t29.5 -121.5q0 -58 -18.5 -109.5t-59 -90t-104 -60.5t-153.5 -22z" />
    <glyph glyph-name="uni0436" unicode="&#x436;" horiz-adv-x="1631" 
d="M1089 461l466 -461h-198l-474 450v-450h-155l1 452l-1 -2l-473 -450h-199l466 461l45 41l-505 516h193l422 -416l53 49l-2 367h155l-2 -367l57 -52l425 419h193l-509 -519z" />
    <glyph glyph-name="uni0437" unicode="&#x437;" horiz-adv-x="1108" 
d="M287 460l1 141h192q59 0 110.5 9t90.5 28t61.5 48.5t22.5 70.5q0 38 -19 68.5t-53.5 51.5t-83.5 32.5t-109 11.5q-39 0 -84 -4.5t-87 -11.5t-75.5 -15t-49.5 -15l-36 116q28 12 66 23.5t82 20.5t91.5 14t92.5 5q90 0 166.5 -16.5t132.5 -51.5t88 -90.5t32 -133.5
q0 -52 -18 -90.5t-47 -65.5t-65.5 -43.5t-74.5 -24.5q45 -7 92.5 -20.5t86.5 -40.5t64.5 -72t25.5 -116q0 -89 -38.5 -151t-104.5 -100.5t-153.5 -56t-185.5 -17.5q-45 0 -96.5 4.5t-104 15.5t-103 29t-94.5 44l40 113q69 -37 158 -53t197 -16q67 0 127 10t105 32.5t71.5 59
t26.5 88.5q0 51 -30 83.5t-79 51.5t-112 26.5t-130 7.5h-190z" />
    <glyph glyph-name="uni0438" unicode="&#x438;" horiz-adv-x="1307" 
d="M181 1019h153v-759l652 759h133v-1019h-154v758l-650 -758h-134v1019z" />
    <glyph glyph-name="uni0439" unicode="&#x439;" horiz-adv-x="1307" 
d="M834 1454l111 -10q-14 -106 -88.5 -168.5t-206.5 -62.5t-206.5 62.5t-88.5 168.5l111 10q10 -29 23 -53t34 -40.5t51.5 -25.5t75.5 -9t75.5 9t51.5 25.5t34 40.5t23 53zM181 1019h153v-759l652 759h133v-1019h-154v758l-650 -758h-134v1019z" />
    <glyph glyph-name="uni043A" unicode="&#x43a;" horiz-adv-x="1100" 
d="M181 0v1017h154v-632l530 633h183l-379 -451l410 -567h-187l-334 463l-223 -261v-202h-154z" />
    <glyph glyph-name="uni043B" unicode="&#x43b;" horiz-adv-x="1384" 
d="M1041 0v881h-636v-579q0 -79 -22.5 -141t-64.5 -104t-101 -64t-131 -22q-20 0 -40 2t-33 5l25 133q2 0 8 -0.5t13 -0.5t13 -0.5t8 -0.5q89 0 129.5 54t40.5 145v710h946v-1018h-155z" />
    <glyph glyph-name="uni043C" unicode="&#x43c;" horiz-adv-x="1499" 
d="M781 337h-72l-374 430v-767h-154v1019h132l432 -470l435 470h131v-1019h-152v765z" />
    <glyph glyph-name="uni043D" unicode="&#x43d;" horiz-adv-x="1303" 
d="M181 0v1019h154v-448h626v448h154v-1019h-154v437h-626v-437h-154z" />
    <glyph glyph-name="uni043E" unicode="&#x43e;" horiz-adv-x="1314" 
d="M104 509q0 112 42 210t116.5 170.5t175.5 114.5t219 42t219.5 -42t175.5 -114.5t116.5 -170.5t42.5 -210t-42.5 -210t-116.5 -171t-175.5 -114.5t-220.5 -41.5q-117 0 -218 42t-175.5 114.5t-116.5 170.5t-42 210zM258 509q0 -87 31.5 -160.5t85.5 -127t127 -83.5
t156 -30t156 30t127 83.5t85.5 127t31.5 160.5q0 86 -31.5 159.5t-85.5 127t-127 84t-156 30.5t-156 -30.5t-127 -84t-85.5 -127t-31.5 -159.5z" />
    <glyph glyph-name="uni043F" unicode="&#x43f;" horiz-adv-x="1334" 
d="M181 0v1018h965v-1018h-155v881h-655v-881h-155z" />
    <glyph glyph-name="uni0440" unicode="&#x440;" horiz-adv-x="1392" 
d="M1133 509q0 87 -31.5 160.5t-86 127t-127.5 84t-157 30.5q-83 0 -156.5 -30.5t-128 -84t-86 -127t-31.5 -160.5q0 -86 31.5 -159.5t86.5 -127t128 -84t157 -30.5t157 30.5t127 84t85.5 127t31.5 159.5zM1288 509q0 -112 -40.5 -209.5t-112.5 -170.5t-171 -115t-217 -42
q-67 0 -127.5 14.5t-113 40t-95.5 61.5t-76 78v-514h-154v1366h128l15 -177q32 42 75.5 79.5t97 65.5t116 44t131.5 16q118 0 217.5 -41.5t172 -114.5t113.5 -170.5t41 -210.5z" />
    <glyph glyph-name="uni0441" unicode="&#x441;" horiz-adv-x="1125" 
d="M946 213l96 -100q-83 -73 -179 -107t-193 -34q-114 0 -216.5 40t-179 111t-122 170t-45.5 216q0 112 42.5 210t116.5 170.5t175 114.5t219 42q97 0 196 -33.5t184 -108.5l-95 -99q-54 50 -126.5 77.5t-157.5 27.5q-78 0 -150.5 -28t-127.5 -80.5t-88 -126.5t-33 -166
t33 -166.5t88.5 -126.5t127.5 -80t150 -28q175 0 285 105z" />
    <glyph glyph-name="uni0442" unicode="&#x442;" horiz-adv-x="1025" 
d="M437 0v886h-340v133h834v-133h-341v-886h-153z" />
    <glyph glyph-name="uni0443" unicode="&#x443;" horiz-adv-x="1087" 
d="M915 1013h165l-435 -989q-45 -106 -81.5 -178t-78 -115.5t-94 -62.5t-130.5 -19h-167l-1 130h180q39 0 66.5 16t50 46.5t42.5 75.5t45 104l-434 992h170l343 -790l5 -32z" />
    <glyph glyph-name="uni0444" unicode="&#x444;" horiz-adv-x="1469" 
d="M689 1446h155v-393q117 -1 217 -44.5t173.5 -117.5t115 -172.5t41.5 -209.5q0 -112 -41.5 -210.5t-114.5 -172.5t-173.5 -117.5t-217.5 -44.5v-346h-155v346q-117 0 -217 43.5t-173.5 117.5t-115.5 173t-42 211q0 111 41.5 209.5t115 172.5t174 117.5t217.5 44.5v393z
M295 509q0 -86 31 -160.5t84 -129t125 -86t154 -32.5v815q-82 -1 -154 -32.5t-125 -86t-84 -128.5t-31 -160zM1238 509q0 85 -31 159t-84.5 128.5t-125 86.5t-153.5 33v-815q82 1 154 32.5t125 86t84 129t31 160.5z" />
    <glyph glyph-name="uni0445" unicode="&#x445;" horiz-adv-x="1076" 
d="M61 1018h186l291 -394l292 394h184l-372 -500l381 -518h-187l-299 406l-300 -406h-183l380 518z" />
    <glyph glyph-name="uni0446" unicode="&#x446;" horiz-adv-x="1374" 
d="M181 0v1018h155v-880h655v880h155v-880h130v-367h-154v229h-941z" />
    <glyph glyph-name="uni0447" unicode="&#x447;" horiz-adv-x="1330" 
d="M159 696v322h154v-327q0 -180 86 -267.5t248 -87.5q70 0 132.5 31t109.5 84t74.5 123.5t27.5 150.5v293h155v-1021h-155l3 456q-27 -69 -70 -117t-93.5 -78t-105 -43.5t-105.5 -13.5q-116 0 -202.5 35t-144 100t-86 156.5t-28.5 203.5z" />
    <glyph glyph-name="uni0448" unicode="&#x448;" horiz-adv-x="1962" 
d="M181 0v1018h155v-880h564v880h155v-880h564v880h154v-1018h-1592z" />
    <glyph glyph-name="uni0449" unicode="&#x449;" horiz-adv-x="2002" 
d="M181 0v1018h155v-880h564v880h155v-880h564v880h154v-880h131v-367h-155v229h-1568z" />
    <glyph glyph-name="uni044A" unicode="&#x44a;" horiz-adv-x="1247" 
d="M833 507h-425v-371h423q39 0 74 15t60.5 40.5t40.5 59.5t15 72t-14.5 71.5t-40 58.5t-59.5 39.5t-74 14.5zM408 1018v-375h431q67 0 128 -22.5t107 -64.5t73.5 -101t27.5 -132t-27.5 -132.5t-74 -102t-107.5 -65.5t-129 -23h-584v883h-209v135h364z" />
    <glyph glyph-name="uni044B" unicode="&#x44b;" horiz-adv-x="1677" 
d="M765 507h-426v-371h424q39 0 74 15t60.5 40.5t40.5 59.5t15 72t-14.5 71.5t-40 58.5t-59.5 39.5t-74 14.5zM339 1018v-375h432q67 0 128 -22.5t107 -64.5t73.5 -101t27.5 -132t-27.5 -132.5t-74 -102t-107.5 -65.5t-129 -23h-584v1018h154zM1489 12h-155v1018h155v-1018z
" />
    <glyph glyph-name="uni044C" unicode="&#x44c;" horiz-adv-x="1174" 
d="M762 507h-426v-371h424q39 0 73.5 15t60.5 40.5t41 59.5t15 72t-14.5 71.5t-40 58.5t-60 39.5t-73.5 14.5zM336 1018v-375h431q68 0 128.5 -22.5t107 -64.5t73.5 -101t27 -132t-27.5 -132.5t-74 -102t-107.5 -65.5t-129 -23h-584v1018h155z" />
    <glyph glyph-name="uni044D" unicode="&#x44d;" horiz-adv-x="1314" 
d="M485 574h567q-11 78 -47.5 140t-89.5 105.5t-119.5 67t-137.5 23.5q-116 0 -209 -55.5t-144 -153.5h-159q28 77 77 140t115.5 109t147.5 71t173 25q118 0 219 -42t175.5 -114.5t116.5 -170.5t42 -210t-42.5 -209.5t-116.5 -170.5t-175 -115t-219 -42q-92 0 -173.5 25.5
t-148 71.5t-115.5 109t-76 139h159q25 -48 62 -87t82.5 -66t98.5 -41.5t110 -14.5q71 0 137 23.5t119.5 67t90 105.5t47.5 140h-567v130z" />
    <glyph glyph-name="uni044E" unicode="&#x44e;" horiz-adv-x="1808" 
d="M747 509q0 -87 31.5 -161.5t85.5 -129t127 -86t156 -31.5t155.5 31.5t126.5 86t85.5 129t31.5 161.5q0 86 -31.5 160.5t-86 129t-127 86t-154.5 31.5q-83 0 -156 -31t-127 -86t-85.5 -129.5t-31.5 -160.5zM339 0h-154v1018h154v-441h257q12 100 58.5 186.5t119 151
t167 101.5t203.5 37q118 0 219.5 -43t176 -117t117 -173t42.5 -211t-42.5 -211.5t-117 -173.5t-176 -117t-220.5 -43q-108 0 -202.5 37t-167 101t-119 151.5t-58.5 187.5h-257v-441z" />
    <glyph glyph-name="uni044F" unicode="&#x44f;" horiz-adv-x="1123" 
d="M83 0l277 365q-52 17 -94 47.5t-72 71t-46.5 90.5t-16.5 107q0 74 27 136t75.5 107t115.5 70t147 25h439v-1019h-153v345h-264l-258 -345h-177zM500 479h282v407h-280q-46 0 -86 -16t-69 -43.5t-45.5 -65t-16.5 -80.5t16.5 -79.5t45.5 -63.5t68 -43t85 -16z" />
    <glyph glyph-name="uni0451" unicode="&#x451;" horiz-adv-x="1181" 
d="M639 927q-75 0 -142 -26t-120 -72.5t-88.5 -109.5t-46.5 -138h494q105 2 156 45t51 112q0 33 -19 67t-56.5 61t-94.5 44t-134 17zM755 452h-512q12 -73 47.5 -134.5t87.5 -106t118.5 -69.5t139.5 -25q106 0 182 36.5t134 97.5l89 -92q-33 -36 -75.5 -68t-94.5 -56
t-111.5 -38t-125.5 -14q-116 0 -215.5 42.5t-173 115.5t-115 170.5t-41.5 208.5t41.5 208.5t115 171t173.5 116t216 42.5q111 0 196 -27t142.5 -72t87 -103.5t29.5 -121.5q0 -58 -18.5 -109.5t-59 -90t-104 -60.5t-153.5 -22zM411 1329q0 34 25 57.5t63 23.5
q40 0 64.5 -23.5t24.5 -57.5q0 -33 -24.5 -56t-64.5 -23q-39 0 -63.5 23t-24.5 56zM742 1329q0 34 24.5 57.5t62.5 23.5q41 0 65 -23.5t24 -57.5q0 -33 -24.5 -56t-64.5 -23q-39 0 -63 23t-24 56z" />
    <glyph glyph-name="uni0452" unicode="&#x452;" horiz-adv-x="1309" 
d="M328 789l8 11l-8 -8v-3zM181 1188h-200v117h200v129h156l-2 -129h219v-117h-221l-5 -380q18 45 52.5 88.5t83 78.5t109.5 56.5t133 21.5q116 0 202.5 -35.5t144 -100t86 -156t28.5 -204.5v-557h-154v563q0 179 -85 266t-247 87q-70 0 -133 -30t-110 -82.5t-74.5 -122.5
t-27.5 -150v-531h-155v1188z" />
    <glyph glyph-name="uni0453" unicode="&#x453;" horiz-adv-x="979" 
d="M615 1489l118 -42l-175 -237h-115zM185 0v1018h745v-137h-591v-881h-154z" />
    <glyph glyph-name="uni0454" unicode="&#x454;" horiz-adv-x="1282" 
d="M839 444h-568q12 -78 48.5 -140t90 -105.5t120 -67t137.5 -23.5q57 0 109.5 14.5t98.5 41.5t83 66t62 87h158q-26 -76 -75 -139t-116 -109t-148.5 -71.5t-173.5 -25.5q-118 0 -219 42t-175 115t-116 170.5t-42 209.5t42 210t116 170.5t175 114.5t219 42q92 0 173 -25
t147.5 -71t116 -109t77.5 -140h-159q-25 49 -62 87.5t-82.5 65.5t-98.5 41.5t-110 14.5q-71 0 -137.5 -23.5t-120 -67t-90 -105.5t-48.5 -140h568v-130z" />
    <glyph glyph-name="uni0455" unicode="&#x455;" horiz-adv-x="1012" 
d="M95 73l48 128q86 -54 172 -76.5t164 -22.5q156 0 234.5 49.5t78.5 131.5q0 45 -22 74.5t-62.5 50t-99 33.5t-131.5 23q-60 8 -125.5 22t-120.5 43.5t-90.5 79.5t-35.5 130q0 61 23 116.5t74 98t133 67.5t200 25q113 0 211 -30t175 -72l-46 -122q-32 17 -70.5 33.5
t-81 30.5t-89 22.5t-94.5 8.5q-79 0 -132.5 -15.5t-86 -40.5t-46.5 -56.5t-14 -63.5q0 -73 74.5 -109.5t222.5 -50.5q67 -9 138 -23.5t129.5 -45.5t96 -83.5t37.5 -136.5q0 -74 -32 -133.5t-92 -101t-146.5 -64t-194.5 -22.5q-111 0 -209.5 23t-189.5 79z" />
    <glyph glyph-name="uni0456" unicode="&#x456;" horiz-adv-x="546" 
d="M181 0v1018h155v-1018h-155zM152 1325q0 40 29.5 69t77.5 29t78.5 -29t30.5 -69q0 -42 -30.5 -70t-78.5 -28t-77.5 28.5t-29.5 69.5z" />
    <glyph glyph-name="uni0457" unicode="&#x457;" horiz-adv-x="517" 
d="M-5 1317q0 34 25 57.5t63 23.5q40 0 64.5 -23.5t24.5 -57.5q0 -33 -24.5 -56t-64.5 -23q-39 0 -63.5 23t-24.5 56zM326 1317q0 34 24.5 57.5t62.5 23.5q41 0 65 -23.5t24 -57.5q0 -33 -24.5 -56t-64.5 -23q-39 0 -63 23t-24 56zM181 0v1018h155v-1018h-155z" />
    <glyph glyph-name="uni0458" unicode="&#x458;" horiz-adv-x="524" 
d="M181 1018h155v-1036q0 -82 -21 -146.5t-61.5 -109.5t-100.5 -69t-137 -24h-90v136h83q45 0 77.5 15.5t53.5 44t31 67.5t10 87v1035z" />
    <glyph glyph-name="uni0459" unicode="&#x459;" horiz-adv-x="2000" 
d="M1587 507h-426v-371h424q40 0 74.5 15t60 40.5t40.5 59.5t15 72t-14.5 71.5t-40 58.5t-60 39.5t-73.5 14.5zM1161 1018v-375h431q68 0 129 -22.5t107 -64.5t73.5 -101t27.5 -132t-27.5 -132.5t-74 -102t-108 -65.5t-129.5 -23h-583v881h-602v-588q0 -80 -22.5 -140
t-64.5 -100.5t-101 -61t-131 -20.5q-20 0 -40 2t-33 5l25 133q2 0 8 -0.5t13 -0.5t13 -0.5t8 -0.5q89 0 129.5 54t40.5 145v710h911z" />
    <glyph glyph-name="uni045A" unicode="&#x45a;" horiz-adv-x="1988" 
d="M1575 507h-426v-371h423q39 0 74 15t60.5 40.5t40.5 59.5t15 72t-14.5 71.5t-39.5 58.5t-59.5 39.5t-73.5 14.5zM1149 1018v-375h431q67 0 128 -22.5t107 -64.5t73.5 -101t27.5 -132t-27.5 -132.5t-74 -102t-107.5 -65.5t-129 -23h-584v503h-658v-503h-155v1018h155v-378
h658v378h155z" />
    <glyph glyph-name="uni045B" unicode="&#x45b;" horiz-adv-x="1331" 
d="M331 788l8 12l-8 -8v-4zM185 1194h-201v117h201v172h156l-3 -172h219v-117h-221l-5 -386q18 45 53 88.5t83.5 78.5t109.5 56.5t133 21.5q116 0 202.5 -35.5t144 -100t86 -156t28.5 -204.5v-557h-155v563q0 179 -85 266t-247 87q-70 0 -133 -30t-110 -82.5t-74.5 -122.5
t-27.5 -150v-531h-154v1194z" />
    <glyph glyph-name="uni045C" unicode="&#x45c;" horiz-adv-x="1100" 
d="M181 0v1017h154v-632l530 633h183l-379 -451l410 -567h-187l-334 463l-223 -261v-202h-154zM613 1428l118 -42l-175 -237h-115z" />
    <glyph glyph-name="uni045E" unicode="&#x45e;" horiz-adv-x="1087" 
d="M721 1454l111 -10q-14 -106 -88.5 -168.5t-206.5 -62.5t-206.5 62.5t-88.5 168.5l111 10q10 -29 23 -53t34 -40.5t51.5 -25.5t75.5 -9t75.5 9t51.5 25.5t34 40.5t23 53zM915 1013h165l-435 -989q-45 -106 -81.5 -178t-78 -115.5t-94 -62.5t-130.5 -19h-167l-1 130h180
q39 0 66.5 16t50 46.5t42.5 75.5t45 104l-434 992h170l343 -790l5 -32z" />
    <glyph glyph-name="uni045F" unicode="&#x45f;" horiz-adv-x="1338" 
d="M184 0v1021h155v-881h656v881h155v-1021h-414v-342h-157v342h-395z" />
    <glyph glyph-name="uni0474" unicode="&#x474;" horiz-adv-x="1361" 
d="M680 206l486 1154h168l-581 -1360h-147l-581 1360h167l487 -1154h1z" />
    <glyph glyph-name="uni0475" unicode="&#x475;" horiz-adv-x="1132" 
d="M904 1018h166l-441 -1018h-143l-440 1018h165l346 -816z" />
    <glyph glyph-name="uni0490" unicode="&#x490;" horiz-adv-x="1146" 
d="M187 0v1360h739v234h157v-374h-738v-1220h-158z" />
    <glyph glyph-name="uni0491" unicode="&#x491;" horiz-adv-x="1013" 
d="M185 0v1018h611v228h154v-365h-611v-881h-154z" />
    <glyph glyph-name="uni04D9" unicode="&#x4d9;" horiz-adv-x="1363" 
d="M644 105q75 0 141.5 25t118.5 70t87 107t47 136h-789q11 -73 46 -135t87.5 -107t119.5 -70.5t142 -25.5zM1197 509q0 -112 -42 -209.5t-116 -170.5t-175 -115t-219 -42t-219.5 42t-176 115t-116.5 170.5t-42 209.5v23l3 25h946q-9 82 -44.5 148.5t-89.5 113t-122 72
t-140 25.5q-56 0 -107.5 -13.5t-95 -38.5t-78.5 -60.5t-59 -78.5h-167q29 67 77 126t113.5 102.5t145.5 68.5t172 25q118 0 219 -42t175 -115t116 -171t42 -210z" />
    <glyph glyph-name="Wgrave" unicode="&#x1e80;" horiz-adv-x="2051" 
d="M763 1720l118 42l172 -279h-116zM1383 244l476 1116h167l-581 -1360h-147l-272 638l-273 -638h-147l-581 1360h167l476 -1116l11 -38h1l11 38l251 590l-224 526h166l476 -1116l11 -38h2z" />
    <glyph glyph-name="wgrave" unicode="&#x1e81;" horiz-adv-x="1713" 
d="M589 1386l118 42l172 -279h-116zM1515 1018h166l-428 -1018h-145l-258 588l-246 -588h-144l-428 1018h166l323 -781l10 -36h2l10 36l231 524l-112 257h165l343 -781l9 -36h3l9 36z" />
    <glyph glyph-name="Wacute" unicode="&#x1e82;" horiz-adv-x="2051" 
d="M1112 1728l118 -42l-175 -237h-115zM1383 244l476 1116h167l-581 -1360h-147l-272 638l-273 -638h-147l-581 1360h167l476 -1116l11 -38h1l11 38l251 590l-224 526h166l476 -1116l11 -38h2z" />
    <glyph glyph-name="wacute" unicode="&#x1e83;" horiz-adv-x="1713" 
d="M977 1428l118 -42l-175 -237h-115zM1515 1018h166l-428 -1018h-145l-258 588l-246 -588h-144l-428 1018h166l323 -781l10 -36h2l10 36l231 524l-112 257h165l343 -781l9 -36h3l9 36z" />
    <glyph glyph-name="Wdieresis" unicode="&#x1e84;" horiz-adv-x="2051" 
d="M769 1568q0 34 25 57.5t63 23.5q40 0 64.5 -23.5t24.5 -57.5q0 -33 -24.5 -56t-64.5 -23q-39 0 -63.5 23t-24.5 56zM1100 1568q0 34 24.5 57.5t62.5 23.5q41 0 65 -23.5t24 -57.5q0 -33 -24.5 -56t-64.5 -23q-39 0 -63 23t-24 56zM1383 244l476 1116h167l-581 -1360h-147
l-272 638l-273 -638h-147l-581 1360h167l476 -1116l11 -38h1l11 38l251 590l-224 526h166l476 -1116l11 -38h2z" />
    <glyph glyph-name="wdieresis" unicode="&#x1e85;" horiz-adv-x="1713" 
d="M597 1268q0 34 25 57.5t63 23.5q40 0 64.5 -23.5t24.5 -57.5q0 -33 -24.5 -56t-64.5 -23q-39 0 -63.5 23t-24.5 56zM928 1268q0 34 24.5 57.5t62.5 23.5q41 0 65 -23.5t24 -57.5q0 -33 -24.5 -56t-64.5 -23q-39 0 -63 23t-24 56zM1515 1018h166l-428 -1018h-145l-258 588
l-246 -588h-144l-428 1018h166l323 -781l10 -36h2l10 36l231 524l-112 257h165l343 -781l9 -36h3l9 36z" />
    <glyph glyph-name="uni1E9E" unicode="&#x1e9e;" horiz-adv-x="1340" 
d="M529 0l1 140h273q49 0 95 18.5t81 51.5t56.5 79.5t21.5 101.5q0 53 -19.5 99t-53.5 79.5t-80 52.5t-98 19h-149v113l297 468h-389q-46 0 -87.5 -17.5t-72.5 -48t-49.5 -72t-18.5 -89.5v-995h-157v1004q0 79 28.5 144.5t79 112.5t120.5 73t153 26h550v-134l-286 -473
q77 -3 148 -33t125.5 -80t87 -116t32.5 -143q0 -90 -33.5 -161t-89.5 -119.5t-129 -74.5t-152 -26h-285z" />
    <glyph glyph-name="Ygrave" unicode="&#x1ef2;" horiz-adv-x="1317" 
d="M423 1774l118 42l172 -279h-116zM1103 1360h188l-554 -837l1 -523h-158v522l-553 838h187l444 -694h2z" />
    <glyph glyph-name="ygrave" unicode="&#x1ef3;" horiz-adv-x="1087" 
d="M387 1386l118 42l172 -279h-116zM914 1018h165l-435 -989q-45 -106 -81.5 -178t-78 -115.5t-94 -62.5t-130.5 -19h-167l-1 130h180q39 0 66.5 16t50 46.5t42.5 75.5t45 104l-434 992h170l343 -790l5 -32z" />
    <glyph glyph-name="figuredash" unicode="&#x2012;" horiz-adv-x="942" 
d="M149 417v132h645v-132h-645z" />
    <glyph glyph-name="endash" unicode="&#x2013;" horiz-adv-x="943" 
d="M149 417v132h645v-132h-645z" />
    <glyph glyph-name="emdash" unicode="&#x2014;" horiz-adv-x="1638" 
d="M149 417v132h1340v-132h-1340z" />
    <glyph glyph-name="quoteleft" unicode="&#x2018;" horiz-adv-x="530" 
d="M257 968l-140 17l183 465l111 -6z" />
    <glyph glyph-name="quoteright" unicode="&#x2019;" horiz-adv-x="534" 
d="M260 1450l141 -17l-184 -465l-110 6z" />
    <glyph glyph-name="quotesinglbase" unicode="&#x201a;" horiz-adv-x="536" 
d="M235 203l141 -17l-184 -466l-111 7z" />
    <glyph glyph-name="quotedblleft" unicode="&#x201c;" horiz-adv-x="887" 
d="M257 968l-140 17l183 465l111 -6zM606 968l-141 17l183 465l112 -6z" />
    <glyph glyph-name="quotedblright" unicode="&#x201d;" horiz-adv-x="859" 
d="M601 1450l141 -17l-184 -465l-111 6zM252 1450l142 -17l-184 -465l-112 6z" />
    <glyph glyph-name="quotedblbase" unicode="&#x201e;" horiz-adv-x="860" 
d="M238 203l141 -17l-184 -466l-112 7zM586 203l141 -17l-184 -466l-110 7z" />
    <glyph glyph-name="dagger" unicode="&#x2020;" horiz-adv-x="759" 
d="M57 788v131h247v478h150v-478h248v-131h-248v-1067h-150v1067h-247z" />
    <glyph glyph-name="daggerdbl" unicode="&#x2021;" horiz-adv-x="776" 
d="M65 788v131h246v478h151v-478h247v-131h-247v-461h247v-132h-247v-474h-151v474h-246v132h246v461h-246z" />
    <glyph glyph-name="bullet" unicode="&#x2022;" horiz-adv-x="673" 
d="M-431 -1438q0 -82 -57 -139.5t-149 -57.5q-90 0 -148 57.5t-58 139.5q0 81 58 138.5t148 57.5q92 0 149 -57.5t57 -138.5z" />
    <glyph glyph-name="twodotenleader" unicode="&#x2025;" horiz-adv-x="958" 
d="M148 81q0 42 29 72t76 30q23 0 42 -8t33 -22t22 -32.5t8 -39.5q0 -42 -29.5 -71.5t-76.5 -29.5q-46 0 -75 29.5t-29 71.5zM599 81q0 21 8 39.5t22 32.5t33 22t42 8q47 0 76 -30t29 -72t-29 -71.5t-76 -29.5q-46 0 -75.5 29.5t-29.5 71.5z" />
    <glyph glyph-name="ellipsis" unicode="&#x2026;" horiz-adv-x="1408" 
d="M148 81q0 42 29 72t76 30q23 0 42 -8t33 -22t22 -32.5t8 -39.5q0 -42 -29.5 -71.5t-75.5 -29.5q-47 0 -76 29.5t-29 71.5zM599 81q0 21 8 39.5t21.5 32.5t33 22t41.5 8q48 0 77 -30t29 -72t-29 -71.5t-77 -29.5q-45 0 -74.5 29.5t-29.5 71.5zM1050 81q0 42 29 72t76 30
t76 -30t29 -72t-29 -71.5t-76 -29.5q-46 0 -75.5 29.5t-29.5 71.5z" />
    <glyph glyph-name="perthousand" unicode="&#x2030;" horiz-adv-x="2402" 
d="M1260 -15q-72 0 -133.5 24.5t-106.5 68t-71 102t-26 127.5t26 128.5t71 103t106.5 68.5t133.5 25t133.5 -24.5t107 -68t71.5 -103t26 -129.5q0 -69 -26 -127.5t-71 -102t-107 -68t-134 -24.5zM1261 98q45 0 82.5 16t65 43.5t43 65.5t15.5 83q0 46 -15.5 85t-43.5 67.5
t-65.5 45t-82.5 16.5q-44 0 -82 -16t-65.5 -44.5t-43 -67t-15.5 -84.5q0 -45 15.5 -83.5t43.5 -66.5t65.5 -44t82.5 -16zM529 -1h-144l832 1360h145zM437 731q-72 0 -133.5 24.5t-106.5 68t-71 102t-26 127.5t25.5 128.5t71 103t107 68.5t133.5 25t134 -25t107 -68.5
t71 -103t26 -129.5q0 -68 -26 -127t-71 -102t-107 -67.5t-134 -24.5zM438 844q45 0 82.5 16t65 43.5t43 65.5t15.5 82q0 46 -15.5 85.5t-43.5 68t-65.5 44.5t-82.5 16t-82.5 -16t-65 -44t-43 -67t-15.5 -85q0 -45 15.5 -83.5t43 -66t65.5 -43.5t83 -16zM1982 -15
q-72 0 -133.5 24.5t-106.5 68t-71 102t-26 127.5t26 128.5t71 103t106.5 68.5t133.5 25t133.5 -24.5t107 -68t71.5 -103t26 -129.5q0 -69 -26 -127.5t-71 -102t-107 -68t-134 -24.5zM1983 98q45 0 82.5 16t65 43.5t43 65.5t15.5 83q0 46 -15.5 85t-43.5 67.5t-65.5 45
t-82.5 16.5q-44 0 -82 -16t-65.5 -44.5t-43 -67t-15.5 -84.5q0 -45 15.5 -83.5t43.5 -66.5t65.5 -44t82.5 -16z" />
    <glyph glyph-name="guilsinglleft" unicode="&#x2039;" horiz-adv-x="715" 
d="M570 119h-163l-276 363l276 362h163l-275 -362z" />
    <glyph glyph-name="guilsinglright" unicode="&#x203a;" horiz-adv-x="715" 
d="M314 119h-163l275 363l-276 362h164l276 -362z" />
    <glyph glyph-name="fraction" unicode="&#x2044;" horiz-adv-x="1004" 
d="M138 -96l-111 61l837 1369l113 -61z" />
    <glyph glyph-name="uni2070" unicode="&#x2070;" horiz-adv-x="882" 
d="M441 706q-95 0 -166.5 36t-119 98t-71 144t-23.5 173q0 95 25.5 178.5t74 145.5t119 98t161.5 36q101 0 173 -38t118.5 -101.5t68 -145.5t21.5 -170q0 -93 -24 -175.5t-72 -144.5t-119.5 -98t-165.5 -36zM441 818q62 0 109 28.5t79 75.5t48 109t16 129q0 64 -15 125.5
t-45.5 110t-78 78.5t-113.5 30q-61 0 -108 -28.5t-78.5 -76.5t-48 -110.5t-16.5 -130.5q0 -66 15.5 -127.5t46.5 -109t78.5 -75.5t110.5 -28z" />
    <glyph glyph-name="uni2074" unicode="&#x2074;" horiz-adv-x="881" 
d="M555 1030l2 402l-333 -404zM682 919v-193h-128v193l-468 -1l-8 87l463 594l142 -12l-1 -557h152v-111h-152z" />
    <glyph glyph-name="uni2075" unicode="&#x2075;" horiz-adv-x="861" 
d="M294 1484l-27 -195h158q68 0 124.5 -21t97 -59.5t62.5 -91.5t22 -116q0 -62 -24.5 -116t-68 -93.5t-102.5 -62t-128 -22.5q-56 0 -111 12t-100 41.5t-76 78.5t-40 123h130q8 -41 28 -68.5t46.5 -44t57 -23.5t58.5 -7q42 0 78.5 13.5t63.5 37.5t43 57t16 72q0 38 -15 71
t-41.5 58t-63 39t-80.5 14h-212l-60 50l50 364h486v-111h-372z" />
    <glyph glyph-name="uni2076" unicode="&#x2076;" horiz-adv-x="784" 
d="M196 999q0 -38 15.5 -71t42 -57t61.5 -38t75 -14q39 0 74 14t61.5 38t41.5 57t15 71t-15 71.5t-41.5 58t-61.5 38.5t-74 14q-46 0 -82.5 -18t-61 -45t-37.5 -59t-13 -60zM68 1000q0 34 6.5 64t21 61.5t37 68.5t53.5 84l211 317h153l-237 -344q25 15 54 23.5t62 8.5
q56 0 106.5 -22t89.5 -60t62 -89.5t23 -111.5q0 -61 -23.5 -114t-66 -92.5t-101.5 -62.5t-130 -23t-130 23t-101.5 62.5t-66 92.5t-23.5 114z" />
    <glyph glyph-name="uni2077" unicode="&#x2077;" horiz-adv-x="762" 
d="M155 726l386 758h-460v111h616v-71l-402 -798h-140z" />
    <glyph glyph-name="uni2078" unicode="&#x2078;" horiz-adv-x="843" 
d="M226 979q0 -36 16 -65.5t43 -50.5t63 -32.5t77 -11.5q42 0 78.5 11.5t63.5 32.5t42.5 50.5t15.5 65.5q0 35 -15.5 65t-42.5 52t-63.5 34t-78.5 12q-41 0 -77 -12t-63 -34t-43 -52t-16 -65zM275 1379q0 -26 11 -49t31 -40t47.5 -27t60.5 -10t60.5 10t47.5 27t31 40t11 49
t-11.5 48.5t-31.5 39.5t-47 27t-59 10q-33 0 -60.5 -10t-47.5 -27t-31.5 -39.5t-11.5 -48.5zM146 1383q0 54 22 97t60.5 73t89.5 46t108 16q52 0 102 -16t89 -46t63 -73t24 -97q0 -31 -9.5 -60t-27 -53t-40.5 -41.5t-50 -25.5q36 -9 68.5 -29t57 -49.5t38.5 -67.5t14 -83
q0 -57 -23.5 -106t-67 -85t-104 -56.5t-134.5 -20.5q-75 0 -135.5 20.5t-103.5 56.5t-66.5 85t-23.5 106q0 45 14.5 82.5t38.5 67t56 50t68 30.5q-27 9 -50.5 26.5t-40.5 41t-27 52t-10 59.5z" />
    <glyph glyph-name="uni2079" unicode="&#x2079;" horiz-adv-x="835" 
d="M602 1325q0 38 -15.5 71t-42 57t-62 38t-74.5 14t-74 -14t-61.5 -38t-41.5 -57t-15 -71q0 -39 15 -72t41.5 -58t61.5 -39t74 -14q46 0 82 18t61 45t38 59.5t13 60.5zM730 1323q0 -33 -6.5 -63t-21 -62t-37 -68.5t-54.5 -84.5l-212 -319h-153l239 348q-25 -16 -54 -25
t-62 -9q-55 0 -106 22t-90 60.5t-62.5 90t-23.5 110.5q0 61 23.5 114.5t66 93t102 62t130.5 22.5t130 -22.5t101.5 -62t66 -93t23.5 -114.5z" />
    <glyph glyph-name="uni207D" unicode="&#x207d;" horiz-adv-x="527" 
d="M309 1752l130 -1q-52 -46 -93 -113t-69.5 -145t-43.5 -163.5t-15 -168.5q0 -84 14.5 -168t42.5 -161t69 -144t95 -117l-128 -1q-63 60 -106 129t-69 144.5t-37 155.5t-11 161q0 83 11 162.5t37 154.5t68 144t105 131z" />
    <glyph glyph-name="uni207E" unicode="&#x207e;" horiz-adv-x="486" 
d="M53 1751l129 1q63 -62 105.5 -131t68 -144t36.5 -154.5t11 -162.5q0 -81 -11 -161t-37 -155.5t-68.5 -144.5t-105.5 -129l-128 1q53 50 94.5 117t69.5 144t42.5 161t14.5 168q0 83 -15 168.5t-43.5 163.5t-69.5 145t-93 113z" />
    <glyph glyph-name="uni207F" unicode="&#x207f;" horiz-adv-x="913" 
d="M802 1058v-351h-138v348q0 109 -50 155.5t-139 46.5q-45 0 -84 -15.5t-67 -43t-44 -66.5t-16 -86v-339h-136v649h111l14 -87q42 46 105 76.5t135 30.5q158 0 233.5 -82t75.5 -236z" />
    <glyph glyph-name="uni2080" unicode="&#x2080;" horiz-adv-x="882" 
d="M441 -234q-95 0 -166.5 36t-119 98t-71 144t-23.5 173q0 95 25.5 178.5t74 145.5t119 98t161.5 36q101 0 173 -38t118.5 -101.5t68 -145.5t21.5 -170q0 -93 -24 -175.5t-72 -144.5t-119.5 -98t-165.5 -36zM441 -122q62 0 109 28.5t79 75.5t48 109t16 129q0 64 -15 125.5
t-45.5 110t-78 78.5t-113.5 30q-61 0 -108 -28.5t-78.5 -76.5t-48 -110.5t-16.5 -130.5q0 -66 15.5 -127.5t46.5 -109t78.5 -75.5t110.5 -28z" />
    <glyph glyph-name="uni2081" unicode="&#x2081;" horiz-adv-x="511" 
d="M242 -214l1 764l-172 -64l-2 94l193 75h106v-869h-126z" />
    <glyph glyph-name="uni2082" unicode="&#x2082;" horiz-adv-x="800" 
d="M77 -214v79l310 261q42 35 76.5 66t58.5 62t37 63.5t13 69.5q0 38 -13.5 69.5t-37 54t-55.5 34.5t-69 12q-35 0 -67 -12t-56 -35t-38.5 -56t-14.5 -75h-131q0 52 18.5 103.5t56 93t95 67t134.5 25.5q70 0 127 -21.5t97 -59.5t61.5 -89.5t21.5 -110.5q0 -91 -49 -162
t-132 -133l-236 -201q15 2 35 3q18 1 43.5 2t59.5 1h295v-111h-640z" />
    <glyph glyph-name="uni2083" unicode="&#x2083;" horiz-adv-x="771" 
d="M645 655v-64l-209 -260q8 0 15 -1q6 -1 12 -1.5t9 -2.5q51 -4 98 -22t82.5 -51t57 -81t21.5 -111q0 -62 -24.5 -116t-68 -93.5t-102.5 -62t-128 -22.5q-56 0 -111 13t-100 43t-76 80t-40 124h130q8 -41 28 -69t46.5 -45.5t57 -25.5t58.5 -8q42 0 78.5 13.5t63.5 37.5
t43 57t16 72q0 38 -15 69.5t-41.5 54t-63 35t-80.5 12.5l-124 1v69l204 248l-374 -4v111h537z" />
    <glyph glyph-name="uni2084" unicode="&#x2084;" horiz-adv-x="881" 
d="M555 90l2 402l-333 -404zM682 -21v-193h-128v193l-468 -1l-8 87l463 594l142 -12l-1 -557h152v-111h-152z" />
    <glyph glyph-name="uni2085" unicode="&#x2085;" horiz-adv-x="861" 
d="M294 544l-27 -195h158q68 0 124.5 -21t97 -59.5t62.5 -91.5t22 -116q0 -62 -24.5 -116t-68 -93.5t-102.5 -62t-128 -22.5q-56 0 -111 12t-100 41.5t-76 78.5t-40 123h130q8 -41 28 -68.5t46.5 -44t57 -23.5t58.5 -7q42 0 78.5 13.5t63.5 37.5t43 57t16 72q0 38 -15 71
t-41.5 58t-63 39t-80.5 14h-212l-60 50l50 364h486v-111h-372z" />
    <glyph glyph-name="uni2086" unicode="&#x2086;" horiz-adv-x="784" 
d="M196 59q0 -38 15.5 -71t42 -57t61.5 -38t75 -14q39 0 74 14t61.5 38t41.5 57t15 71t-15 71.5t-41.5 58t-61.5 38.5t-74 14q-46 0 -82.5 -18t-61 -45t-37.5 -59t-13 -60zM68 60q0 34 6.5 64t21 61.5t37 68.5t53.5 84l211 317h153l-237 -344q25 15 54 23.5t62 8.5
q56 0 106.5 -22t89.5 -60t62 -89.5t23 -111.5q0 -61 -23.5 -114t-66 -92.5t-101.5 -62.5t-130 -23t-130 23t-101.5 62.5t-66 92.5t-23.5 114z" />
    <glyph glyph-name="uni2087" unicode="&#x2087;" horiz-adv-x="762" 
d="M155 -214l386 758h-460v111h616v-71l-402 -798h-140z" />
    <glyph glyph-name="uni2088" unicode="&#x2088;" horiz-adv-x="843" 
d="M226 39q0 -36 16 -65.5t43 -50.5t63 -32.5t77 -11.5q42 0 78.5 11.5t63.5 32.5t42.5 50.5t15.5 65.5q0 35 -15.5 65t-42.5 52t-63.5 34t-78.5 12q-41 0 -77 -12t-63 -34t-43 -52t-16 -65zM275 439q0 -26 11 -49t31 -40t47.5 -27t60.5 -10t60.5 10t47.5 27t31 40t11 49
t-11.5 48.5t-31.5 39.5t-47 27t-59 10q-33 0 -60.5 -10t-47.5 -27t-31.5 -39.5t-11.5 -48.5zM146 443q0 54 22 97t60.5 73t89.5 46t108 16q52 0 102 -16t89 -46t63 -73t24 -97q0 -31 -9.5 -60t-27 -53t-40.5 -41.5t-50 -25.5q36 -9 68.5 -29t57 -49.5t38.5 -67.5t14 -83
q0 -57 -23.5 -106t-67 -85t-104 -56.5t-134.5 -20.5q-75 0 -135.5 20.5t-103.5 56.5t-66.5 85t-23.5 106q0 45 14.5 82.5t38.5 67t56 50t68 30.5q-27 9 -50.5 26.5t-40.5 41t-27 52t-10 59.5z" />
    <glyph glyph-name="uni2089" unicode="&#x2089;" horiz-adv-x="835" 
d="M602 385q0 38 -15.5 71t-42 57t-62 38t-74.5 14t-74 -14t-61.5 -38t-41.5 -57t-15 -71q0 -39 15 -72t41.5 -58t61.5 -39t74 -14q46 0 82 18t61 45t38 59.5t13 60.5zM730 383q0 -33 -6.5 -63t-21 -62t-37 -68.5t-54.5 -84.5l-212 -319h-153l239 348q-25 -16 -54 -25
t-62 -9q-55 0 -106 22t-90 60.5t-62.5 90t-23.5 110.5q0 61 23.5 114.5t66 93t102 62t130.5 22.5t130 -22.5t101.5 -62t66 -93t23.5 -114.5z" />
    <glyph glyph-name="uni208D" unicode="&#x208d;" horiz-adv-x="527" 
d="M309 812l130 -1q-52 -46 -93 -113t-69.5 -145t-43.5 -163.5t-15 -168.5q0 -84 14.5 -168t42.5 -161t69 -144t95 -117l-128 -1q-63 60 -106 129t-69 144.5t-37 155.5t-11 161q0 83 11 162.5t37 154.5t68 144t105 131z" />
    <glyph glyph-name="uni208E" unicode="&#x208e;" horiz-adv-x="486" 
d="M61 811l129 1q63 -62 105.5 -131t68 -144t36.5 -154.5t11 -162.5q0 -81 -11 -161t-37 -155.5t-68.5 -144.5t-105.5 -129l-128 1q53 50 94.5 117t69.5 144t42.5 161t14.5 168q0 83 -15 168.5t-43.5 163.5t-69.5 145t-93 113z" />
    <glyph glyph-name="colonmonetary" unicode="&#x20a1;" horiz-adv-x="1339" 
d="M282 855v-346q0 -66 17 -122.5t47 -102.5t71.5 -80.5t90.5 -57.5l78 1097q-63 -15 -118 -48.5t-96.5 -83t-65.5 -114.5t-24 -142zM682 1254q-11 0 -21.5 -0.5t-21.5 -1.5l-80 -1126q59 -18 123 -18h14l80 1135q-47 11 -94 11zM535 -219h-52l15 219q-82 27 -150.5 76.5
t-117 116t-75.5 147t-27 169.5v346q0 101 35 190.5t97.5 160t148 117t187.5 61.5l13 187h53l-13 -182q8 0 16 0.5t16 0.5q54 0 105 -9l14 190h52l-15 -201q65 -17 122 -48t103.5 -73.5t80 -95t51.5 -113.5h-154q-29 67 -85 114.5t-128 73.5l-79 -1115q48 8 92 26t82.5 45
t68.5 62.5t49 78.5h153q-20 -72 -62.5 -132.5t-102.5 -106t-134 -74.5t-156 -37l-13 -195h-52l13 192h-5q-69 0 -132 15z" />
    <glyph glyph-name="franc" unicode="&#x20a3;" horiz-adv-x="1181" 
d="M181 0v245h-84v99h84v1016h896v-140h-739v-507h643v-138h-643v-231h351v-100h-351v-244h-157z" />
    <glyph glyph-name="lira" unicode="&#x20a4;" horiz-adv-x="1195" 
d="M224 543l633 -1v-89h-354q-14 -52 -35.5 -102t-47 -92.5t-53.5 -75t-55 -49.5h794v-134h-997v109q43 23 81 60.5t68.5 83.5t53.5 97.5t37 102.5h-125v90zM224 775h123q-10 38 -21 71t-21 65.5t-16.5 67t-6.5 74.5q0 83 28.5 146t80 105t123.5 63.5t158 21.5
q33 0 74.5 -8.5t84 -27t83 -48t72 -72.5t50.5 -99.5t19 -129.5h-152q0 63 -24 110.5t-59 79t-73.5 47t-68.5 15.5q-109 0 -174 -54.5t-65 -158.5q0 -37 6 -69.5t15.5 -64.5t20.5 -64.5t20 -69.5h356v-90l-633 1v89z" />
    <glyph glyph-name="peseta" unicode="&#x20a7;" horiz-adv-x="1202" 
d="M658 1223h-322v-548h323q57 0 107.5 21.5t88.5 58.5t60 87t22 108t-22 108t-60.5 86.5t-89 57.5t-107.5 21zM77 223v129h100v195h-100v128h100v685h484q90 0 168.5 -30t137.5 -84.5t93 -129.5t34 -165q0 -91 -33.5 -165.5t-92 -127.5t-137 -82t-168.5 -29h-327v-196h416
v-129h-416v-222h-159v223h-100z" />
    <glyph glyph-name="Euro" unicode="&#x20ac;" horiz-adv-x="1181" 
d="M56 933h158q32 99 93 183.5t144 145.5t184.5 95.5t212.5 34.5q58 0 109 -9t92 -23v-145q-48 24 -100.5 35.5t-100.5 11.5q-82 0 -156.5 -24t-136.5 -67.5t-110 -104t-76 -133.5l477 -1v-100h-790v101zM56 524l790 -1v-99l-474 1q29 -71 76.5 -130.5t109.5 -102t135.5 -66
t154.5 -23.5q48 0 100 10.5t101 34.5v-144q-43 -14 -94.5 -22t-106.5 -8q-111 0 -211 34t-183 94t-144 142.5t-94 180.5h-160v99z" />
    <glyph glyph-name="uni2116" unicode="&#x2116;" horiz-adv-x="2306" 
d="M1600 1073q0 -53 17 -95t47 -71.5t72 -45.5t93 -16q50 0 92.5 16t73 45.5t47.5 71.5t17 95t-17 94.5t-47.5 71t-73 45t-92.5 15.5t-92 -15.5t-72.5 -44.5t-47.5 -71t-17 -95zM1176 1360h157v-1360h-133l-863 1082v-1082h-157v1360h130l866 -1085v1085zM2162 513h-665v113
h665v-113zM1466 1073q0 80 26.5 142.5t74 105.5t114 66t147.5 23t148.5 -23t115.5 -66.5t75 -106t27 -141.5q0 -78 -27 -141t-75.5 -107t-115.5 -67.5t-147 -23.5q-82 0 -149 23.5t-114.5 68t-73.5 107t-26 140.5z" />
    <glyph glyph-name="trademark" unicode="&#x2122;" horiz-adv-x="1612" 
d="M1083 868l-244 291v-504h-119v729l101 2l269 -338l269 338l100 -2v-729h-119v504l-244 -291h-13zM270 655v615h-221v114h567v-114h-220v-615h-126z" />
    <glyph glyph-name="estimated" unicode="&#x212e;" horiz-adv-x="1297" 
d="M645 951q-72 0 -133 -24t-107 -70t-74 -112t-33 -149q0 -2 -0.5 -9.5t-1 -15.5t-0.5 -15.5v-9.5h699v46q-5 84 -33.5 150.5t-74.5 113t-108 71t-134 24.5zM646 53q126 0 215.5 71.5t124.5 226.5l3 11h175q-24 -93 -73 -166.5t-117 -124t-152 -77.5t-179 -27
q-114 0 -211.5 41.5t-169 114.5t-112 171t-40.5 211t40.5 211.5t112 171.5t169.5 115t212 42q115 0 213 -42t170 -115t112.5 -171.5t40.5 -211.5q0 -22 -3 -43h-880q0 -79 22 -153t65.5 -131t109 -91t152.5 -34z" />
    <glyph glyph-name="onethird" unicode="&#x2153;" horiz-adv-x="919" 
d="M67 617v115h776v-115h-776zM385 832l1 764l-172 -64l-2 94l193 75h106v-869h-126zM707 522v-64l-209 -260q8 0 15 -1q6 -1 12 -1.5t9 -2.5q51 -4 98 -22t82.5 -51t57 -81t21.5 -111q0 -62 -24.5 -116t-68 -93.5t-102.5 -62t-128 -22.5q-56 0 -111 13t-100 43t-76 80
t-40 124h130q8 -41 28 -69t46.5 -45.5t57 -25.5t58.5 -8q42 0 78.5 13.5t63.5 37.5t43 57t16 72q0 38 -15 69.5t-41.5 54t-63 35t-80.5 12.5l-124 1v69l204 248l-374 -4v111h537z" />
    <glyph glyph-name="arrowleft" unicode="&#x2190;" horiz-adv-x="1235" 
d="M585 251h-158l-278 365l278 365h159l-230 -301h756v-129l-756 -1z" />
    <glyph glyph-name="arrowup" unicode="&#x2191;" horiz-adv-x="1243" 
d="M265 661v158l366 278l365 -278v-159l-302 230l1 -756h-129l-1 755z" />
    <glyph glyph-name="arrowright" unicode="&#x2192;" horiz-adv-x="1235" 
d="M830 251h-158l229 299l-756 1v129h757l-230 301h158l278 -365z" />
    <glyph glyph-name="arrowdown" unicode="&#x2193;" horiz-adv-x="1243" 
d="M265 412v159l300 -229l1 755h129l-1 -756l302 230v-159l-365 -278z" />
    </font>
</defs>
</svg>
