<svg xmlns="http://www.w3.org/2000/svg" width="103" height="20" viewBox="0 0 103 20">
  <metadata><?xpacket begin="﻿" id="W5M0MpCehiHzreSzNTczkc9d"?>
<x:xmpmeta xmlns:x="adobe:ns:meta/" x:xmptk="Adobe XMP Core 5.6-c142 79.160924, 2017/07/13-01:06:39        ">
   <rdf:RDF xmlns:rdf="http://www.w3.org/1999/02/22-rdf-syntax-ns#">
      <rdf:Description rdf:about=""/>
   </rdf:RDF>
</x:xmpmeta>
                                                                                                    
                                                                                                    
                                                                                                    
                                                                                                    
                                                                                                    
                                                                                                    
                                                                                                    
                                                                                                    
                                                                                                    
                                                                                                    
                                                                                                    
                                                                                                    
                                                                                                    
                                                                                                    
                                                                                                    
                                                                                                    
                                                                                                    
                                                                                                    
                                                                                                    
                                                                                                    
                           
<?xpacket end="w"?></metadata>
<defs>
    <style>
      .cls-1 {
        fill: #4f5261;
        fill-rule: evenodd;
        opacity: 0.6;
      }
    </style>
  </defs>
  <path class="cls-1" d="M545.06,6682.99l-0.871,2.38-0.87,2.45h3.475l-0.981-2.46-0.017-.04-0.314-.99Zm-0.466-2.66,0.458-.18,0.445,0.2,2.772,7.85-0.171.5-0.4.32h-5.241l-0.409-.27-0.172-.53Zm-0.435-2.98-6.037,17.16h1.655L541,6690.8l0.585-.42h6.843l0.58,0.4,1.362,3.73h1.66l-6.177-17.16h-1.69Zm-0.942-.79a0.861,0.861,0,0,1,.839-0.42h2.038a0.924,0.924,0,0,1,.634.27,0.883,0.883,0,0,1,.264.49l6.38,17.73,0.036,0.2v0.14c0,0.74,0,.74-0.762.74h-2.475a0.71,0.71,0,0,1-.727-0.32l-0.144-.22-1.31-3.59h-5.962l-1.172,3.57-0.15.24a1.06,1.06,0,0,1-.872.32h-2.329a0.761,0.761,0,0,1-.616-0.21h0a0.7,0.7,0,0,1-.106-0.88l6.256-17.79,0.147-.23A0.126,0.126,0,0,0,543.217,6676.56Zm20.2,3.35h-3.315v5.49h3.315a4.47,4.47,0,0,0,2.268-.32,1.712,1.712,0,0,0,.318-1.36v-2.13a1.7,1.7,0,0,0-.318-1.36A4.47,4.47,0,0,0,563.42,6679.91Zm-3.931-1.21h3.931a5.135,5.135,0,0,1,3.009.57,2.568,2.568,0,0,1,.81,2.32v2.13a2.538,2.538,0,0,1-.81,2.31,5.057,5.057,0,0,1-3.009.57h-3.931l-0.386-.22-0.23-.38v-6.69l0.257-.38Zm-2.15-1.35v17.16h1.534v-5.95l0.243-.36,0.373-.24h3.639l0.547,0.33,3.25,6.22H568.8l-3.3-5.95,0.139-.49,0.287-.38a3.254,3.254,0,0,0,2.158-1.23,4.679,4.679,0,0,0,.687-2.74v-2.13a4.17,4.17,0,0,0-1.078-3.22,5.4,5.4,0,0,0-3.692-1.02h-6.663Zm-0.961-.94a0.922,0.922,0,0,1,.635-0.27H564a6.485,6.485,0,0,1,4.534,1.36,5.242,5.242,0,0,1,1.469,4.09v2.13a5.763,5.763,0,0,1-.914,3.42,4.134,4.134,0,0,1-2.136,1.53l3.264,5.87,0.077,0.29v0.14c0,0.74-.454.74-0.907,0.74h-2.621a0.71,0.71,0,0,1-.727-0.32l-0.111-.15-3.176-6.08h-2.649v5.81c0,0.74,0,.74-0.762.74h-2.33a1.16,1.16,0,0,1-.392-0.05,0.665,0.665,0,0,1-.515-0.69v-17.94A0.876,0.876,0,0,1,556.378,6676.41Zm30.37,0.94v8.51l0.079,3.1,0.059,2.04-0.4.21-0.479-.03c-3.112-5.07-5.624-8.79-8.9-13.83H575.1v17.16h1.679V6686l-0.08-3.05-0.057-1.91,0.4-.22,0.493,0.03c2.859,4.68,5.894,9.06,8.882,13.66h1.865v-17.16h-1.534Zm-0.959-.94a0.924,0.924,0,0,1,.634-0.27h2.329c0.762,0,.762.45,0.762,0.89v17.94c0,0.74,0,.74-0.762.74h-1.969c-1.16,0-1.233-.29-1.822-1.2-2.387-3.66-4.761-7.26-7.009-11.01l0.06,2.5v8.97c0,0.74-.453.74-0.907,0.74h-2.329a1.165,1.165,0,0,1-.393-0.05,0.665,0.665,0,0,1-.515-0.69v-17.94a0.873,0.873,0,0,1,.273-0.62h0a0.925,0.925,0,0,1,.636-0.27h2.475a1.191,1.191,0,0,1,.727.32l0.084,0.1c2.58,3.98,5.164,7.81,7.515,11.91l-0.062-2.61v-8.83A0.874,0.874,0,0,1,585.789,6676.41Zm9.4,0.94v17.16h10.415v-1.22h-8.119l-0.37-.24-0.247-.36v-5.55l0.182-.38,0.435-.22h7.245v-1.36h-7.245l-0.378-.24-0.239-.36v-5.27l0.176-.41,0.441-.2h8.119v-1.35H595.192Zm-0.961-.94a0.925,0.925,0,0,1,.636-0.27h11.065a0.921,0.921,0,0,1,.633.27,0.87,0.87,0,0,1,.274.62v1.99a0.858,0.858,0,0,1-.271.62,0.927,0.927,0,0,1-.636.27H598.1v4.06h6.954a0.925,0.925,0,0,1,.636.27,0.876,0.876,0,0,1,.272.62v1.99a0.916,0.916,0,0,1-.274.63,0.959,0.959,0,0,1-.634.26H598.1v4.35h7.828a0.912,0.912,0,0,1,.633.26h0a0.9,0.9,0,0,1,.271.63v1.99c0,0.74-.454.74-0.907,0.74H594.867a1.165,1.165,0,0,1-.393-0.05,0.665,0.665,0,0,1-.514-0.69v-17.94A0.875,0.875,0,0,1,594.231,6676.41Zm27.536,2.29v-1.35H610.042v1.35h4.48l0.361,0.24,0.255,0.37v15.2h1.533v-15.2l0.259-.37,0.358-.24h4.479Zm0.325-2.56a0.925,0.925,0,0,1,.636.27h0a0.873,0.873,0,0,1,.273.62v1.99a0.876,0.876,0,0,1-.272.62h0a0.924,0.924,0,0,1-.634.27H617.9v15.06c0,0.74,0,.74-0.907.74h-2.184c-0.454,0-.908,0-0.908-0.74v-15.06h-4.188a0.925,0.925,0,0,1-.633-0.27h0a0.875,0.875,0,0,1-.271-0.62v-1.99a0.875,0.875,0,0,1,.271-0.62h0a0.921,0.921,0,0,1,.633-0.27h12.375Zm-100.419,1.18c1.152-.89,2.949-1.32,5.64-1.32h0.146a10.748,10.748,0,0,1,5.318.99,4.376,4.376,0,0,1,2.131,3.36l-0.606.7c-0.057,0-2.1,1.58-2.107,1.59l-0.368.12a0.852,0.852,0,0,1-.908-0.75v-0.57a1.49,1.49,0,0,0-.5-1.4,6.387,6.387,0,0,0-2.964-.41h-0.146a5.872,5.872,0,0,0-2.877.41,1.543,1.543,0,0,0-.437,1.4v8.97a1.737,1.737,0,0,0,.459,1.5,5.409,5.409,0,0,0,2.855.46h0.146a5.618,5.618,0,0,0,2.943-.48,1.626,1.626,0,0,0,.517-1.48v-1.96H527.9a1.165,1.165,0,0,1-.393-0.05h0a0.664,0.664,0,0,1-.513-0.69v-2a0.891,0.891,0,0,1,.273-0.62h0a0.915,0.915,0,0,1,.636-0.26h6.114a0.915,0.915,0,0,1,.636.26h0a0.891,0.891,0,0,1,.273.62v4.7c0,1.9-.465,3.3-1.69,4.25-1.17.9-3,1.34-5.769,1.34h-0.146c-2.695,0-4.492-.44-5.644-1.35a4.967,4.967,0,0,1-1.669-4.24v-8.97A4.8,4.8,0,0,1,521.673,6677.32Zm5.64-.12c-2.4,0-3.956.35-4.879,1.07a3.7,3.7,0,0,0-1.2,3.17v8.97a3.915,3.915,0,0,0,1.207,3.31c0.922,0.73,2.474,1.07,4.874,1.07h0.146c2.475,0,4.063-.35,5-1.08a3.854,3.854,0,0,0,1.223-3.3v-4.38h-5.465v1.22h3.314l0.617,0.6v2.56a2.656,2.656,0,0,1-1.048,2.47,6.551,6.551,0,0,1-3.645.7h-0.146a6.225,6.225,0,0,1-3.587-.71,2.693,2.693,0,0,1-.96-2.46v-8.97a2.519,2.519,0,0,1,.982-2.4,6.69,6.69,0,0,1,3.565-.62h0.146a7.166,7.166,0,0,1,3.624.61,2.356,2.356,0,0,1,1.064,2.15c0.447-.32,1.027-0.72,1.479-1a3.073,3.073,0,0,0-1.475-2.15,9.583,9.583,0,0,0-4.692-.83h-0.146Z" transform="translate(-520 -6676)"/>
</svg>
