<?xml version="1.0" encoding="utf-8"?>
<!-- Generator: Adobe Illustrator 21.1.0, SVG Export Plug-In . SVG Version: 6.00 Build 0)  -->
<svg version="1.1" id="Layer_1" xmlns="http://www.w3.org/2000/svg" xmlns:xlink="http://www.w3.org/1999/xlink" x="0px" y="0px"
   viewBox="0 0 152 22.2" style="enable-background:new 0 0 152 22.2;" xml:space="preserve" width="150" height="22">
<style type="text/css">
  .st0{fill:#F35F40;}
  .st1{fill:#2C2A2B;}
</style>
<title>vselofti_black</title>
<g>
  <path class="st0" d="M85.4,15.8c1,1.5,0.7,1.3,2.3,2.1C91,15.1,94,13.3,98.4,13c0.3-1,0.4-2.1,0.3-3.1
    C93.3,10.1,89.3,12.2,85.4,15.8L85.4,15.8z"/>
  <path class="st1" d="M57.9,0.4H43.8v21.5h14.6v-3.1H47.2V12h7.2l0.4-3h-7.6V3.5h10.7L57.9,0.4L57.9,0.4z M31.3,22.2h-1.1
    c-1.5-0.1-2.9-0.5-4.2-1.2c-1.4-0.8-2.5-2-3.3-3.4l2.4-1.9c0.3,0.5,0.7,0.9,1,1.3c0.4,0.4,0.8,0.8,1.3,1.1c0.5,0.3,1,0.6,1.5,0.7
    c0.6,0.2,1.2,0.3,1.8,0.3c1,0,1.9-0.2,2.7-0.8c0.7-0.5,1.1-1.3,1-2.2c0-0.4-0.1-0.7-0.2-1.1c-0.2-0.3-0.4-0.6-0.7-0.8
    c-0.3-0.3-0.6-0.5-1-0.7c-0.4-0.2-0.8-0.4-1.3-0.6L29,11.8c-0.7-0.3-1.3-0.7-2-1c-0.6-0.4-1.1-0.8-1.6-1.3c-0.5-0.5-0.8-1-1.1-1.6
    c-0.3-0.6-0.4-1.3-0.4-2c0-0.8,0.2-1.7,0.5-2.4c0.4-0.7,0.9-1.3,1.5-1.8c0.6-0.5,1.4-0.9,2.2-1.2C28.8,0.2,29.6,0,30.3,0h0.9
    c2.6,0.1,5.1,1.6,6.4,3.8l-2.4,1.9c-0.5-0.8-1.2-1.4-2-1.9c-0.8-0.5-1.6-0.7-2.5-0.7c-0.8,0-1.6,0.2-2.3,0.6c-0.7,0.4-1,1.2-1,2
    c0,0.4,0.1,0.7,0.2,1.1c0.2,0.3,0.4,0.6,0.6,0.8c0.3,0.2,0.6,0.5,0.9,0.6c0.4,0.2,0.8,0.4,1.2,0.6l2.4,1.1c0.8,0.3,1.5,0.7,2.2,1.2
    c0.6,0.4,1.2,0.8,1.6,1.4c0.4,0.5,0.8,1,1,1.6c0.2,0.6,0.4,1.3,0.4,2c0,0.9-0.2,1.8-0.6,2.6c-0.4,0.8-0.9,1.4-1.5,2
    c-0.7,0.5-1.5,1-2.3,1.2C32.9,22,32.1,22.2,31.3,22.2L31.3,22.2z M10.7,22.2H9.5L0,0.4h3.9l6.2,15l6.2-15h3.9L10.7,22.2z"/>
  <path class="st0" d="M67.4,0.4H64v21.5h13.3v-3.1h-9.9L67.4,0.4L67.4,0.4L67.4,0.4z M99.7,18.9c-4.3,4.3-11.3,4.3-15.7,0
    c-4.3-4.3-4.3-11.3,0-15.7c4.3-4.3,11.3-4.3,15.7,0c1.8,1.8,2.9,4.1,3.2,6.6h6.1V0.4h13.8v3.1h-10.4v6.4h7.3l-0.4,3.1h-6.9v8.9H109
    V13h-6.2C102.4,15.3,101.3,17.3,99.7,18.9L99.7,18.9z M91.9,19.1c4.4,0,7.9-3.6,7.9-7.9s-3.6-7.9-7.9-7.9s-7.9,3.6-7.9,7.9
    c0,1.4,0.3,2.7,1,3.9C86.4,17.5,89,19.1,91.9,19.1z M143.6,0.4h-17.9v3.1h7.2v18.4h3.5V3.5h7.2L143.6,0.4z M152,0.4h-3.5v21.5h3.5
    V0.4z"/>
</g>
</svg>
