<?xml version="1.0" encoding="UTF-8"?>
<svg width="307px" height="64px" viewBox="0 0 307 64" version="1.1" xmlns="http://www.w3.org/2000/svg" xmlns:xlink="http://www.w3.org/1999/xlink">
    <!-- Generator: Sketch 53.2 (72643) - https://sketchapp.com -->
    <title>bitcoin</title>
    <desc>Created with Sketch.</desc>
    <g id="Page-1" stroke="none" stroke-width="1" fill="none" fill-rule="evenodd">
        <g id="payments/logo/logo-bitcoin" transform="translate(-1.000000, 0.000000)">
            <g id="bitcoin">
                <path d="M64.03256,39.74529 C59.75856,56.88829 42.39556,67.32129 25.25056,63.04629 C8.11256,58.77229 -2.32044,41.40829 1.95556,24.26629 C6.22756,7.12129 23.59056,-3.31271 40.73056,0.96129 C57.87456,5.23529 68.30656,22.60129 64.03256,39.74529 L64.03256,39.74529 Z" id="Path" fill="#F7931A"></path>
                <path d="M47.10256,27.44529 C47.73956,23.18729 44.49756,20.89829 40.06456,19.37129 L41.50256,13.60329 L37.99156,12.72829 L36.59156,18.34429 C35.66856,18.11429 34.72056,17.89729 33.77856,17.68229 L35.18856,12.02929 L31.67956,11.15429 L30.24056,16.92029 C29.47656,16.74629 28.72656,16.57429 27.99856,16.39329 L28.00256,16.37529 L23.16056,15.16629 L22.22656,18.91629 C22.22656,18.91629 24.83156,19.51329 24.77656,19.55029 C26.19856,19.90529 26.45556,20.84629 26.41256,21.59229 L24.77456,28.16329 C24.87256,28.18829 24.99956,28.22429 25.13956,28.28029 C25.02256,28.25129 24.89756,28.21929 24.76856,28.18829 L22.47256,37.39329 C22.29856,37.82529 21.85756,38.47329 20.86356,38.22729 C20.89856,38.27829 18.31156,37.59029 18.31156,37.59029 L16.56856,41.60929 L21.13756,42.74829 C21.98756,42.96129 22.82056,43.18429 23.64056,43.39429 L22.18756,49.22829 L25.69456,50.10329 L27.13356,44.33129 C28.09156,44.59129 29.02156,44.83129 29.93156,45.05729 L28.49756,50.80229 L32.00856,51.67729 L33.46156,45.85429 C39.44856,46.98729 43.95056,46.53029 45.84556,41.11529 C47.37256,36.75529 45.76956,34.24029 42.61956,32.60029 C44.91356,32.07129 46.64156,30.56229 47.10256,27.44529 L47.10256,27.44529 Z M39.08056,38.69429 C37.99556,43.05429 30.65456,40.69729 28.27456,40.10629 L30.20256,32.37729 C32.58256,32.97129 40.21456,34.14729 39.08056,38.69429 Z M40.16656,27.38229 C39.17656,31.34829 33.06656,29.33329 31.08456,28.83929 L32.83256,21.82929 C34.81456,22.32329 41.19756,23.24529 40.16656,27.38229 Z" id="Shape" fill="#FFFFFF" fill-rule="nonzero"></path>
                <path d="M94.77256,19.36529 C97.36756,19.36529 99.60956,19.83029 101.49356,20.74329 C103.38656,21.66529 104.94856,22.90729 106.20156,24.46929 C107.43756,26.03929 108.35756,27.87429 108.95156,29.97729 C109.54156,32.08629 109.83756,34.35329 109.83756,36.78029 C109.83756,40.50829 109.15456,44.03029 107.77556,47.35029 C106.39656,50.67529 104.52556,53.55929 102.14556,56.01929 C99.76756,58.47629 96.95956,60.41329 93.72156,61.84429 C90.48856,63.27629 86.97356,63.99229 83.19956,63.99229 C82.71156,63.99229 81.85356,63.97829 80.64156,63.95329 C79.42956,63.92829 78.03656,63.80329 76.47656,63.59229 C74.90656,63.37329 73.24656,63.04929 71.49356,62.61529 C69.74156,62.18929 68.07756,61.59229 66.51056,60.83429 L80.52256,1.95829 L93.07256,0.01329 L88.05556,20.90629 C89.12956,20.42229 90.21156,20.04729 91.29156,19.77429 C92.37256,19.50529 93.53256,19.36529 94.77256,19.36529 L94.77256,19.36529 Z M84.24556,54.03629 C86.13556,54.03629 87.91656,53.57129 89.58956,52.65829 C91.26756,51.74429 92.71556,50.51029 93.92856,48.97329 C95.14156,47.42929 96.10156,45.69029 96.80156,43.74729 C97.50156,41.80429 97.85556,39.77729 97.85556,37.66829 C97.85556,35.07729 97.42256,33.05629 96.55956,31.59529 C95.69656,30.14029 94.09956,29.40829 91.78056,29.40829 C91.02056,29.40829 90.04156,29.55329 88.82756,29.81229 C87.60956,30.08729 86.51956,30.65829 85.54256,31.51729 L80.20056,53.70529 C80.52256,53.76229 80.80756,53.81629 81.05056,53.86729 C81.28856,53.92229 81.55156,53.96129 81.81356,53.98829 C82.09056,54.01929 82.40756,54.03529 82.79056,54.03529 C83.17356,54.03529 83.65256,54.03629 84.24556,54.03629 L84.24556,54.03629 Z" id="Shape" fill="#4D4D4D" fill-rule="nonzero"></path>
                <path d="M122.85256,62.86529 L110.86556,62.86529 L120.98856,20.26829 L133.05756,20.26829 L122.85256,62.86529 Z M128.68556,15.07829 C127.01256,15.07829 125.49556,14.58029 124.14956,13.58229 C122.79256,12.59029 122.12056,11.06329 122.12056,9.00529 C122.12056,7.87329 122.35056,6.81129 122.80656,5.80929 C123.26956,4.80929 123.87456,3.94829 124.63256,3.21629 C125.38956,2.49029 126.26656,1.91029 127.26256,1.47329 C128.26456,1.04329 129.33056,0.82829 130.46656,0.82829 C132.13856,0.82829 133.64756,1.32629 134.99856,2.32429 C136.34456,3.32729 137.02156,4.85429 137.02156,6.90129 C137.02156,8.03729 136.79256,9.10329 136.33256,10.10329 C135.87556,11.10329 135.27056,11.96429 134.51256,12.69629 C133.76156,13.42329 132.87656,14.00129 131.88256,14.43429 C130.87956,14.87129 129.81756,15.07829 128.68556,15.07829 Z" id="Shape" fill="#4D4D4D" fill-rule="nonzero"></path>
                <path d="M143.56256,9.65529 L156.11756,7.71029 L153.03456,20.26629 L166.48056,20.26629 L164.05256,30.14429 L150.68756,30.14429 L147.12756,45.04429 C146.79956,46.28629 146.61356,47.44629 146.56156,48.52429 C146.50256,49.60729 146.63956,50.53729 146.96356,51.32029 C147.28556,52.10529 147.86456,52.71029 148.70456,53.13829 C149.54056,53.57329 150.73756,53.79229 152.30756,53.79229 C153.60056,53.79229 154.86056,53.66929 156.07856,53.42529 C157.28956,53.18529 158.51656,52.85129 159.75856,52.41429 L160.65256,61.65029 C159.03256,62.24429 157.27856,62.75529 155.38856,63.18529 C153.49556,63.62129 151.25456,63.83129 148.66456,63.83129 C144.94056,63.83129 142.05356,63.27829 139.99656,62.17729 C137.94256,61.06829 136.49056,59.55329 135.62156,57.63529 C134.76456,55.72429 134.38156,53.52129 134.48856,51.03929 C134.59956,48.55129 134.97456,45.93629 135.62156,43.18229 L143.56256,9.65529 L143.56256,9.65529 Z" id="Path" fill="#4D4D4D"></path>
                <path d="M165.95256,45.85529 C165.95256,42.18629 166.54656,38.72629 167.73356,35.48729 C168.91856,32.24529 170.62556,29.41029 172.84056,26.97729 C175.04756,24.55629 177.73656,22.63829 180.90156,21.23029 C184.05156,19.83029 187.57856,19.12429 191.46556,19.12429 C193.89856,19.12429 196.07156,19.35429 197.98356,19.81529 C199.90356,20.28029 201.64056,20.88129 203.21156,21.63529 L199.07756,31.03529 C197.99756,30.59729 196.87656,30.21129 195.71756,29.86129 C194.55756,29.50429 193.14156,29.33229 191.46656,29.33229 C187.46556,29.33229 184.30256,30.71129 181.94856,33.46029 C179.60356,36.21129 178.42256,39.91429 178.42256,44.55929 C178.42256,47.31229 179.01656,49.53829 180.20856,51.24129 C181.39456,52.94429 183.58556,53.79129 186.76656,53.79129 C188.33656,53.79129 189.85156,53.62729 191.30256,53.30729 C192.76456,52.98329 194.05556,52.57529 195.19256,52.09329 L196.08756,61.72929 C194.57156,62.31729 192.89956,62.84829 191.06556,63.31329 C189.22756,63.76229 187.03956,63.99529 184.50256,63.99529 C181.15356,63.99529 178.31856,63.50529 175.99956,62.54029 C173.67956,61.56029 171.76256,60.25929 170.25256,58.61129 C168.73456,56.95929 167.64456,55.03029 166.97056,52.81629 C166.29656,50.60429 165.95256,48.28029 165.95256,45.85529 L165.95256,45.85529 Z" id="Path" fill="#4D4D4D"></path>
                <path d="M219.20256,63.99529 C216.34156,63.99529 213.85656,63.55929 211.74856,62.69629 C209.64656,61.83329 207.90556,60.62229 206.52856,59.05229 C205.14956,57.49029 204.11756,55.63929 203.41056,53.50629 C202.70356,51.37429 202.36356,49.01329 202.36356,46.42629 C202.36356,43.18129 202.88456,39.93729 203.93756,36.70229 C204.98556,33.46029 206.54056,30.54729 208.59856,27.95829 C210.64056,25.36529 213.15956,23.24529 216.12556,21.59229 C219.08856,19.95029 222.49656,19.12429 226.32456,19.12429 C229.13356,19.12429 231.60556,19.56129 233.74256,20.42429 C235.86956,21.28529 237.62156,22.50629 239.00656,24.06829 C240.37656,25.63829 241.41756,27.48129 242.11756,29.61729 C242.82256,31.74529 243.17056,34.11229 243.17056,36.70129 C243.17056,39.93629 242.65656,43.18029 241.63656,46.42529 C240.61556,49.65429 239.10056,52.57429 237.10056,55.16929 C235.10456,57.75829 232.60856,59.87729 229.61056,61.52329 C226.61656,63.16929 223.14456,63.99529 219.20256,63.99529 L219.20256,63.99529 Z M225.19356,29.33329 C223.41656,29.33329 221.84556,29.84929 220.50056,30.86829 C219.15056,31.89929 218.01656,33.19529 217.10256,34.75829 C216.17856,36.32829 215.49356,38.04029 215.03056,39.90129 C214.57156,41.76629 214.34656,43.52929 214.34656,45.20429 C214.34656,47.90729 214.78256,50.01229 215.63956,51.52729 C216.50856,53.03429 218.06956,53.79229 220.33856,53.79229 C222.12156,53.79229 223.68456,53.28029 225.03756,52.25029 C226.37956,51.22729 227.51456,49.93029 228.43556,48.36429 C229.35356,46.80229 230.04456,45.08529 230.50756,43.22129 C230.96056,41.36229 231.19156,39.58929 231.19156,37.91729 C231.19156,35.22129 230.75756,33.11129 229.89256,31.59829 C229.02856,30.09129 227.46056,29.33329 225.19356,29.33329 Z" id="Shape" fill="#4D4D4D" fill-rule="nonzero"></path>
                <path d="M256.23256,62.86529 L244.23556,62.86529 L254.35856,20.26829 L266.43356,20.26829 L256.23256,62.86529 L256.23256,62.86529 Z M262.05656,15.07829 C260.38456,15.07829 258.86856,14.58029 257.52456,13.58229 C256.17456,12.59029 255.49656,11.06329 255.49656,9.00529 C255.49656,7.87329 255.72956,6.81129 256.18656,5.80929 C256.64356,4.80929 257.25256,3.94829 258.01056,3.21629 C258.76356,2.49029 259.64856,1.91029 260.64256,1.47329 C261.63856,1.04329 262.70456,0.82829 263.83656,0.82829 C265.51256,0.82829 267.02656,1.32629 268.37456,2.32429 C269.72356,3.32729 270.40456,4.85429 270.40456,6.90129 C270.40456,8.03729 270.16256,9.10329 269.70956,10.10329 C269.25656,11.10329 268.64756,11.96429 267.89256,12.69629 C267.13256,13.42329 266.25856,14.00129 265.26256,14.43429 C264.25856,14.87129 263.19456,15.07829 262.05656,15.07829 L262.05656,15.07829 Z" id="Shape" fill="#4D4D4D" fill-rule="nonzero"></path>
                <path d="M275.07256,22.20529 C275.98256,21.93929 276.99856,21.61929 278.10356,21.27129 C279.21256,20.92329 280.45156,20.59929 281.83556,20.30729 C283.20456,20.00629 284.74956,19.76229 286.44856,19.57329 C288.14756,19.38029 290.08356,19.28629 292.23456,19.28629 C298.55656,19.28629 302.91456,21.12729 305.32056,24.79829 C307.72456,28.46929 308.14056,33.49329 306.58056,39.86129 L301.06656,62.86129 L289.00056,62.86129 L294.34456,40.34529 C294.67056,38.93929 294.92656,37.58029 295.11556,36.25229 C295.30656,34.93629 295.29556,33.77629 295.07256,32.77229 C294.85956,31.78029 294.35756,30.96829 293.57856,30.33929 C292.78756,29.72029 291.59256,29.40929 289.97156,29.40929 C288.40856,29.40929 286.81856,29.57729 285.19556,29.90129 L277.33856,62.86029 L265.26756,62.86029 L275.07256,22.20529 L275.07256,22.20529 Z" id="Path" fill="#4D4D4D"></path>
            </g>
        </g>
    </g>
</svg>