<?xml version="1.0" encoding="UTF-8"?>
<svg width="509px" height="64px" viewBox="0 0 509 64" version="1.1" xmlns="http://www.w3.org/2000/svg" xmlns:xlink="http://www.w3.org/1999/xlink">
    <!-- Generator: Sketch 53.2 (72643) - https://sketchapp.com -->
    <title>bitcoincash</title>
    <desc>Created with Sketch.</desc>
    <g id="Page-1" stroke="none" stroke-width="1" fill="none" fill-rule="evenodd">
        <g id="payments/logo/logo-bitcoincash">
            <g id="bitcoincash">
                <path d="M130.879534,63.0766798 C127.8311,63.0766798 124.770016,62.9881423 121.759529,62.7857708 C118.582612,62.5726805 115.424959,62.1330916 112.310648,61.4703557 L112.310648,7.46245059 C114.865767,6.96916996 117.711816,6.64031621 120.772899,6.38735178 C123.821333,6.13438735 126.667382,6.02055336 129.311045,6.02055336 C132.865444,6.02055336 136.116264,6.27351779 139.088804,6.80474308 C142.061343,7.29802372 144.616463,8.17075099 146.766811,9.39762846 C148.917159,10.6371542 150.59949,12.2434783 151.801155,14.2671937 C153.00282,16.2909091 153.622626,18.7699605 153.622626,21.6916996 C153.622626,26.1438735 151.476494,29.6516469 147.184231,32.2150198 C150.73863,33.5304348 153.129311,35.3897233 154.40687,37.6664032 C155.68443,39.9810277 156.342183,42.573913 156.342183,45.4577075 C156.342183,51.313834 154.191835,55.6901186 149.941736,58.6245059 C145.615742,61.6347826 139.303838,63.0766798 130.879534,63.0766798 Z M124.529683,28.5470356 L130.639201,28.5470356 C134.522477,28.5470356 137.242034,28.0537549 138.937014,27.0671937 C140.581398,26.0806324 141.416239,24.4743083 141.416239,22.286166 C141.416239,20.0221344 140.5561,18.4537549 138.86112,17.543083 C137.128192,16.6324111 134.61102,16.1770751 131.309604,16.1770751 C130.23443,16.1770751 129.083361,16.1770751 127.843749,16.2150198 C126.604137,16.2529644 125.528963,16.3035573 124.542333,16.4173913 C124.529683,16.4173913 124.529683,28.5470356 124.529683,28.5470356 L124.529683,28.5470356 Z M124.529683,38.1217391 L124.529683,52.515415 C125.440419,52.6418972 126.427049,52.7177866 127.502223,52.7683794 C128.577397,52.8189723 129.766413,52.856917 131.056622,52.856917 C134.813406,52.856917 137.823893,52.3256917 140.138679,51.2505929 C142.453466,50.1754941 143.604534,48.2023715 143.604534,45.3059289 C143.604534,42.7509881 142.655851,40.8916996 140.720538,39.8166008 C138.785225,38.7035573 136.015071,38.172332 132.422725,38.172332 L124.542333,38.172332 L124.542333,38.1217391 L124.529683,38.1217391 Z" id="Shape" fill="#4D4D4D" fill-rule="nonzero"></path>
                <path d="M174.20272,7.8798419 C174.20272,10.0679842 173.507019,11.8007905 172.052372,13.0782609 C170.648322,14.3557312 168.953341,14.9754941 167.018028,14.9754941 C165.159592,15.0068181 163.359157,14.3283095 161.983684,13.0782609 C160.579634,11.8007905 159.833336,10.1059289 159.833336,7.8798419 C159.833336,5.6916996 160.529037,3.95889328 161.983684,2.68142292 C163.364955,1.44088094 165.161512,0.763833707 167.018028,0.784189723 C168.876464,0.752865649 170.6769,1.43137427 172.052372,2.68142292 C173.49437,3.95889328 174.20272,5.6916996 174.20272,7.8798419 Z M173.051652,62.3810277 L161.085598,62.3810277 L161.085598,20.0853755 L173.051652,20.0853755 L173.051652,62.3810277 Z" id="Shape" fill="#4D4D4D" fill-rule="nonzero"></path>
                <path d="M179.490046,9.56205534 L191.4561,7.62687747 L191.4561,20.0853755 L205.850782,20.0853755 L205.850782,30.0648221 L191.4561,30.0648221 L191.4561,44.913834 C191.4561,47.43083 191.911468,49.4545455 192.771607,50.9343874 C193.631746,52.4142292 195.453217,53.198419 198.134828,53.198419 C199.462706,53.1914865 200.787449,53.0687553 202.093998,52.8316206 C203.369621,52.5991955 204.625558,52.2693763 205.850782,51.8450593 L207.545762,61.1667984 C205.976808,61.8002748 204.361374,62.3119339 202.713804,62.6972332 C200.942929,63.1146245 198.792581,63.3549407 196.199514,63.3549407 C192.936045,63.3549407 190.216488,62.8996047 188.06614,62.0395257 C185.915792,61.1794466 184.182864,59.9399209 182.905305,58.3209486 C181.627745,56.7525692 180.717009,54.8173913 180.223694,52.5913043 C179.695004,50.1392045 179.432072,47.6372822 179.43945,45.1288538 L179.43945,9.56205534 L179.490046,9.56205534 Z" id="Path" fill="#4D4D4D"></path>
                <path d="M207.545762,41.2458498 C207.525251,38.3056167 208.026324,35.385041 209.025707,32.6197628 C209.958478,29.9992706 211.417773,27.5974125 213.313754,25.5620553 C215.173172,23.5383399 217.47531,21.9699605 220.15692,20.7810277 C222.83853,19.5794466 225.886965,19.0102767 229.314872,19.0102767 C231.579062,19.0102767 233.640866,19.2126482 235.500285,19.6300395 C237.366948,20.0388311 239.191931,20.6188895 240.952049,21.3628458 L238.472825,30.9375494 C237.256969,30.4913588 236.015056,30.1196557 234.753988,29.8245059 C233.278323,29.4792365 231.766328,29.3136082 230.250906,29.3312253 C226.696507,29.3312253 224.065494,30.4442688 222.332566,32.6324111 C220.599639,34.8205534 219.7395,37.7043478 219.7395,41.2964427 C219.7395,45.0909091 220.561691,48.0632411 222.168128,50.1249012 C223.812511,52.2245059 226.671209,53.2616601 230.706274,53.2616601 C232.271257,53.257749 233.832951,53.118095 235.373794,52.8442688 C236.94585,52.6036953 238.483232,52.1747871 239.95277,51.5667984 L241.64775,61.3818182 C239.956212,62.0613597 238.202297,62.5739418 236.41102,62.912253 C234.127547,63.3578096 231.805839,63.5781022 229.479311,63.5699605 C225.596035,63.5699605 222.294619,62.9881423 219.499167,61.8371542 C216.691065,60.686166 214.426875,59.1177866 212.605404,57.1320158 C210.783933,55.1462451 209.506373,52.8063241 208.684181,50.112253 C207.929873,47.2170847 207.547323,44.2376551 207.545762,41.2458498 L207.545762,41.2458498 Z" id="Path" fill="#4D4D4D"></path>
                <path d="M282.883833,41.1699605 C282.883833,44.5090909 282.390518,47.5193676 281.441835,50.2893281 C280.493153,53.0592885 279.089102,55.3992095 277.28028,57.3470356 C275.438754,59.3089753 273.200942,60.8567949 270.715394,61.887747 C268.147626,62.9628458 265.314226,63.4940711 262.177248,63.4940711 C259.078217,63.4940711 256.232168,62.9628458 253.677049,61.887747 C251.190756,60.8581619 248.952673,59.3101547 247.112164,57.3470356 C245.290692,55.4118577 243.848694,53.0213439 242.862064,50.2893281 C241.824837,47.5193676 241.331522,44.4711462 241.331522,41.1699605 C241.331522,37.83083 241.862785,34.8205534 242.900011,32.0885375 C243.937238,29.36917 245.379236,27.0166008 247.226005,25.1193676 C249.092755,23.1790724 251.340829,21.6460107 253.828838,20.6166008 C256.383958,19.541502 259.154112,19.0102767 262.164599,19.0102767 C265.213033,19.0102767 268.016918,19.5457181 270.576254,20.6166008 C273.131373,21.6916996 275.319668,23.1715415 277.14114,25.1193676 C279.018906,27.1278494 280.465333,29.4996517 281.391239,32.0885375 C282.352571,34.8205534 282.883833,37.83083 282.883833,41.1699605 Z M270.677447,41.1699605 C270.677447,37.4513834 269.93115,34.5675889 268.451204,32.4679842 C266.971259,30.3683794 264.858858,29.2932806 262.139301,29.2932806 C259.419743,29.2932806 257.269395,30.3683794 255.78945,32.4679842 C254.309504,34.5675889 253.52526,37.5019763 253.52526,41.1699605 C253.52526,44.8885375 254.271557,47.8102767 255.78945,49.9604743 C257.269395,52.1486166 259.419743,53.2237154 262.139301,53.2237154 C264.858858,53.2237154 266.971259,52.1486166 268.451204,49.9604743 C269.93115,47.772332 270.677447,44.8379447 270.677447,41.1699605 Z" id="Shape" fill="#4D4D4D" fill-rule="nonzero"></path>
                <path d="M300.794967,7.8798419 C300.794967,10.0679842 300.099266,11.8007905 298.644619,13.0782609 C297.240568,14.3557312 295.545588,14.9754941 293.610275,14.9754941 C291.751839,15.0068181 289.951404,14.3283095 288.575931,13.0782609 C287.17188,11.8007905 286.425583,10.1059289 286.425583,7.8798419 C286.425583,5.6916996 287.121284,3.95889328 288.575931,2.68142292 C289.957201,1.44088094 291.753759,0.763833707 293.610275,0.784189723 C295.468711,0.752865649 297.269146,1.43137427 298.644619,2.68142292 C300.086617,3.95889328 300.794967,5.6916996 300.794967,7.8798419 Z M299.681845,62.3810277 L287.715792,62.3810277 L287.715792,20.0853755 L299.681845,20.0853755 L299.681845,62.3810277 Z" id="Shape" fill="#4D4D4D" fill-rule="nonzero"></path>
                <path d="M306.487064,21.5272727 C308.510921,20.9454545 311.154584,20.3762846 314.367457,19.883004 C317.711554,19.3655418 321.090194,19.1033878 324.474092,19.0988142 C328.066438,19.0988142 331.038978,19.5541502 333.429659,20.5027668 C335.820339,21.4513834 337.717705,22.7667984 339.083809,24.4616601 C340.487859,26.1944664 341.47449,28.2181818 342.056348,30.570751 C342.638207,32.9233202 342.916488,35.5667984 342.916488,38.4505929 L342.916488,62.343083 L330.950434,62.343083 L330.950434,39.8924901 C330.950434,36.0094862 330.457119,33.2901186 329.419892,31.6837945 C328.382666,30.0774704 326.4853,29.2932806 323.727795,29.2932806 C322.867656,29.2932806 321.95692,29.3312253 321.008237,29.4197628 C320.059554,29.5083004 319.186766,29.5841897 318.453118,29.7106719 L318.453118,62.343083 L306.487064,62.343083 L306.487064,21.5272727 L306.487064,21.5272727 Z" id="Path" fill="#4D4D4D"></path>
                <path d="M375.639723,63.4940711 C366.557666,63.4940711 359.676552,60.9770751 354.933138,55.943083 C350.189723,50.9090909 347.83699,43.7754941 347.83699,34.4916996 C347.83699,29.8750988 348.583287,25.7897233 350.025285,22.1596838 C351.467283,18.5296443 353.453192,15.4814229 355.970364,13.0023715 C358.5284,10.4951451 361.595509,8.56701281 364.963878,7.3486166 C368.429733,6.07114625 372.224465,5.41343874 376.310126,5.41343874 C378.662859,5.41343874 380.813207,5.57786561 382.74852,5.94466403 C384.464724,6.22898404 386.15945,6.63044958 387.820812,7.14624506 C389.065325,7.51986348 390.279048,7.98924975 391.451105,8.55019763 C392.399788,9.04347826 393.095489,9.41027668 393.550856,9.66324111 L389.920563,19.76917 C388.015802,18.7835416 386.009723,18.0074593 383.937536,17.4545455 C381.673346,16.7968379 379.067631,16.5059289 376.183635,16.5059289 C374.259595,16.5093471 372.349275,16.8298482 370.529485,17.4545455 C368.685499,18.1139378 367.009719,19.1720243 365.621632,20.5533597 C364.217581,21.9573123 363.066512,23.8166008 362.193724,26.0426877 C361.333585,28.3067194 360.916165,31.0387352 360.916165,34.2513834 C360.90905,36.6699833 361.18499,39.0811083 361.738356,41.4355731 C362.320215,43.6616601 363.218302,45.5588933 364.457914,47.1652174 C365.776221,48.8198666 367.472284,50.1341154 369.403714,50.9976285 C371.427571,51.9462451 373.906796,52.401581 376.790792,52.401581 C378.432389,52.405868 380.072296,52.2959849 381.698645,52.0727273 C383.009342,51.8996018 384.306757,51.6376015 385.58192,51.2885375 C386.594844,51.0303628 387.588183,50.7006821 388.55446,50.3019763 C389.414599,49.9351779 390.198843,49.5557312 390.869246,49.2648221 L394.335101,59.3328063 C392.564226,60.4079051 390.085001,61.3565217 386.872129,62.2166008 C383.59601,63.0766798 379.851875,63.4940711 375.639723,63.4940711 Z" id="Path" fill="#F7941D"></path>
                <path d="M413.106373,18.972332 C416.660772,18.972332 419.582715,19.3897233 421.935449,20.173913 C424.288182,20.9581028 426.185548,22.1090909 427.589599,23.6395257 C429.026827,25.1809641 430.06096,27.0535693 430.600086,29.0909091 C431.181945,31.2411067 431.460225,33.6316206 431.460225,36.2245059 L431.460225,61.141502 C429.727298,61.5083004 427.374564,61.9636364 424.32613,62.456917 C421.277695,62.9501976 417.558858,63.2411067 413.232864,63.2411067 C410.513307,63.2411067 408.038298,62.9923584 405.807839,62.4948617 C403.581597,62.001581 401.684231,61.2173913 400.077795,60.1422925 C398.487049,59.059983 397.205422,57.5822927 396.358958,55.8545455 C395.498819,54.0837945 395.081398,51.9335968 395.081398,49.3407115 C395.081398,46.8616601 395.574713,44.8 396.561343,43.0671937 C397.502394,41.3836154 398.867235,39.9752675 400.520513,38.9818182 C402.164897,37.944664 404.074912,37.2110672 406.212611,36.7557312 C408.408478,36.2914443 410.646919,36.0582896 412.891338,36.0600791 C414.459828,36.0600791 415.825931,36.1486166 417.014947,36.2624506 C418.216612,36.3889328 419.203242,36.5533597 419.949539,36.7936759 L419.949539,35.6806324 C419.949539,33.656917 419.329733,32.0126482 418.090121,30.7731225 C416.850508,29.5335968 414.71281,28.913834 411.651726,28.913834 C409.636327,28.9188833 407.623986,29.0710665 405.630752,29.36917 C403.644842,29.6600791 401.911915,30.0648221 400.469917,30.6086957 L398.939375,20.9581028 C399.635076,20.7557312 400.507864,20.5027668 401.532442,20.2624506 C402.569668,20.0094862 403.720737,19.8071146 404.960349,19.6047431 C406.199962,19.4023715 407.477521,19.2758893 408.843625,19.1114625 C410.298272,19.0608696 411.702323,18.972332 413.106373,18.972332 Z M414.055056,53.9952569 C415.256721,53.9952569 416.369842,53.9573123 417.432367,53.9067194 C418.289407,53.8898157 419.143772,53.8052311 419.987487,53.6537549 L419.987487,44.572332 C419.494171,44.4458498 418.785822,44.3699605 417.799191,44.2434783 C416.922538,44.1306737 416.039404,44.0757458 415.155528,44.0790514 C414.09422,44.0857425 413.03417,44.1533107 411.980603,44.2814229 C410.993973,44.4079051 410.121184,44.6482213 409.387536,45.0656126 C408.670603,45.4076263 408.058924,45.9362546 407.616662,46.5960474 C407.170197,47.3122364 406.941666,48.1428005 406.958908,48.9865613 C406.958908,50.8458498 407.578714,52.1612648 408.856274,52.8695652 C410.133833,53.6664032 411.866761,53.9952569 414.055056,53.9952569 Z" id="Shape" fill="#F7941D" fill-rule="nonzero"></path>
                <path d="M450.067059,53.7928854 C452.255354,53.7928854 453.823843,53.5905138 454.734579,53.1351779 C455.645315,52.7177866 456.100682,51.8577075 456.100682,50.6561265 C456.100682,49.7075099 455.518824,48.8347826 454.329808,48.1391304 C453.128143,47.3928854 451.357268,46.6086957 448.92864,45.7106719 C447.069221,45.0150198 445.336294,44.3067194 443.818401,43.5225296 C442.287859,42.7762846 440.972352,41.8782609 439.935126,40.8411067 C438.853083,39.7777277 438.008188,38.4975424 437.455901,37.084585 C436.874042,35.6426877 436.595762,33.9098814 436.595762,31.8482213 C436.595762,27.8893281 438.075707,24.7525692 441.0103,22.4379447 C443.944892,20.1233202 447.979957,18.972332 453.140792,18.972332 C455.619388,18.974841 458.092386,19.2077269 460.527869,19.6679842 C462.880603,20.1233202 464.777969,20.6166008 466.144072,21.1478261 L464.044321,30.4695652 C462.557811,29.9525063 461.041361,29.5259026 459.503292,29.1920949 C457.700321,28.7970757 455.859303,28.6019583 454.01358,28.6102767 C450.256796,28.6102767 448.397377,29.6474308 448.397377,31.7470356 C448.389282,32.1860575 448.475553,32.6216997 448.650359,33.0245059 C448.869456,33.4580861 449.196087,33.8282418 449.599042,34.0996047 C450.226605,34.5289137 450.891208,34.9014037 451.584952,35.2126482 C452.615371,35.7156117 453.67567,36.1549081 454.759877,36.5280632 C457.40354,37.5146245 459.541239,38.4632411 461.274167,39.4118577 C463.007094,40.3604743 464.322601,41.3976285 465.32188,42.4600791 C466.275522,43.5044356 466.991835,44.742793 467.421632,46.0901186 C467.839052,47.4055336 468.041438,48.973913 468.041438,50.7573123 C468.041438,54.9185771 466.472949,58.1059289 463.335971,60.2055336 C460.198993,62.3557312 455.784455,63.4181818 450.05441,63.4181818 C446.297626,63.4181818 443.160648,63.0893281 440.694072,62.4695652 C438.214847,61.8118577 436.48192,61.2679842 435.49529,60.8632411 L437.519147,51.1241107 C439.556222,51.9236725 441.654303,52.5581286 443.793103,53.0213439 C445.844925,53.5345043 447.952031,53.7936263 450.067059,53.7928854 L450.067059,53.7928854 Z" id="Path" fill="#F7941D"></path>
                <path d="M472.481274,62.3810277 L472.481274,1.93517787 L484.447328,0 L484.447328,20.2624506 C485.464437,19.9418219 486.499158,19.6799924 487.546358,19.4782609 C488.754024,19.2353845 489.98275,19.1125206 491.214599,19.1114625 C494.642506,19.1114625 497.488555,19.5667984 499.752745,20.515415 C502.016935,21.4640316 503.838406,22.7794466 505.204509,24.4743083 C506.570613,26.2071146 507.519296,28.23083 508.088505,30.5833992 C508.670364,32.9359684 508.910697,35.5794466 508.910697,38.4632411 L508.910697,62.3557312 L496.944644,62.3557312 L496.944644,39.8924901 C496.944644,36.0094862 496.451329,33.2901186 495.464698,31.6837945 C494.478068,30.0774704 492.61865,29.2932806 489.974987,29.2932806 C488.964027,29.2835464 487.954887,29.3810615 486.9645,29.5841897 C486.015817,29.7865613 485.193625,29.9509881 484.447328,30.2039526 L484.447328,62.343083 L472.481274,62.343083 L472.481274,62.3810277 Z" id="Path" fill="#F7941D"></path>
                <path d="M73.2591911,63.9128538 C90.7010425,51.6889802 94.9303974,27.64117 82.705796,10.2005375 C80.130407,6.52642926 76.9335907,3.32987914 73.2591911,0.754719368 L102.24196,0.754719368 L102.24196,63.9128538 L73.2591911,63.9128538 Z" id="Path" fill="#F7941D"></path>
                <path d="M12.5837095,32.3288538 C12.5734338,44.9057324 18.7082591,56.6944938 29.0148974,63.9032411 L0,63.9032411 L0,0.754719368 L29.0145179,0.754719368 C18.7081469,7.96354331 12.5734945,19.7521501 12.5837095,32.3288538 L12.5837095,32.3288538 Z" id="Path" fill="#F7941D"></path>
                <ellipse id="Oval" fill="#F7941D" cx="51.1211064" cy="32.3130435" rx="31.5545847" ry="31.5523794"></ellipse>
                <path d="M65.9209391,33.6237787 L65.9033569,33.5911462 L65.9004476,33.5857075 C65.8896958,33.5528221 65.8818534,33.5185455 65.8697102,33.483004 L65.8683188,33.4803478 L65.8666745,33.4775652 L65.8652831,33.4747826 L65.8638917,33.4718735 L65.8623738,33.4692174 L65.8608559,33.4664348 L65.8579466,33.4611225 C65.4876003,32.2224367 64.7532684,31.1237481 63.7503526,30.3077945 L63.7488347,30.3050119 C63.7191093,30.282498 63.6879925,30.2572016 63.6583936,30.2344348 L63.6174105,30.2039526 L63.5876851,30.1814387 L63.575036,30.1706877 L63.546955,30.1509565 L63.5343059,30.1402055 L63.5060984,30.1203478 L63.4934493,30.1095968 L63.4638504,30.0869565 L63.448292,30.0778498 L63.4185666,30.0552095 L63.4030082,30.0461028 L63.3706265,30.0249802 L63.3550681,30.0158735 L63.3360944,29.987415 L63.3191446,29.9755257 L63.2867629,29.9542767 L63.2698131,29.9425138 L63.2373049,29.9212648 L63.2203551,29.9093755 L63.1878469,29.8883794 L63.1710236,29.8763636 L63.137124,29.852585 L63.1201742,29.8405692 L63.0834918,29.8181818 L63.0666685,29.8062925 L63.0299861,29.7840316 L63.0130363,29.7720158 L62.9764804,29.7497549 L62.9595306,29.7378656 L62.9228482,29.7153518 L62.9031156,29.7051067 L62.8665596,29.6827194 L62.846827,29.6722213 L62.8076148,29.6513518 L62.7877557,29.6408538 L62.7471521,29.6173281 L62.727293,29.6069565 L62.6864364,29.5833043 L62.6668303,29.5729328 L62.6259737,29.5492806 L62.6049761,29.5366324 L62.5641195,29.5131067 L62.543122,29.5004585 L62.4996091,29.4781976 L62.4784851,29.4655494 L62.4350987,29.443415 L62.4056262,29.4277312 L62.4041083,29.4250751 C62.3831108,29.4124269 62.3607219,29.4028142 62.3394714,29.3895336 C61.4372717,28.9257437 60.4631344,28.6178458 59.4582582,28.4788617 C59.7399677,28.1759427 59.9979289,27.85178 60.2298536,27.509249 L60.2669155,27.4542292 L60.2696983,27.4527115 L60.2869011,27.4258972 L60.30929,27.3893439 L60.3219391,27.3725217 L60.3442015,27.3357154 L60.3560917,27.3188933 L60.3783541,27.2823399 L60.3910032,27.2653913 L60.4133921,27.2287115 L60.4252823,27.2117628 L60.4476712,27.1752095 L60.4595614,27.1581344 L60.479294,27.1230988 L60.4911841,27.1061502 L60.5109167,27.0711146 L60.5200241,27.0555573 L60.5397567,27.0205217 L60.5489906,27.0050909 L60.5685967,26.9700553 L60.5778305,26.954498 L60.5947803,26.9207273 L60.6037612,26.9052964 L60.6208375,26.8716522 L60.6299448,26.8562213 L60.6468946,26.8225771 L60.656002,26.8070198 L60.6744697,26.7761581 L60.6837035,26.7606008 L60.7020447,26.7294862 L60.7112786,26.7141818 L60.7269635,26.6847115 L60.7360708,26.6691542 L60.7517557,26.6398103 L60.7583333,26.6257708 L60.7740181,26.5963004 L60.7804692,26.5822609 L60.7961541,26.552917 L60.8027316,26.539004 L60.8184165,26.5095336 L60.8248675,26.4954941 L60.8375167,26.4675415 L60.8440942,26.453502 L60.8567433,26.4254229 L60.8633208,26.4113834 L60.8759699,26.3834308 L60.882421,26.3693913 L60.8967145,26.3371383 L60.9160676,26.2951462 C60.9303611,26.2630198 60.9413658,26.2319051 60.9560388,26.2000316 L60.9588216,26.1985138 C61.3912605,25.1328398 61.492641,23.9616244 61.249751,22.837502 L61.2482331,22.8347194 L61.2453238,22.8292806 L61.2438059,22.8266245 L61.2421615,22.8237154 L61.2406436,22.8209328 L61.2391257,22.8181502 L61.2376079,22.8154941 L61.23609,22.8127115 C61.2303495,22.781231 61.2229606,22.7500736 61.213954,22.7193676 L61.213954,22.7125375 L61.2123096,22.7097549 L61.2107917,22.7068458 L61.2092739,22.7040632 L61.2107917,22.7068458 L61.1981426,22.6825613 C61.1885293,22.6386719 61.1787895,22.5946561 61.165002,22.5496285 C61.1555152,22.5057391 61.1416011,22.460332 61.129205,22.418087 L61.1131407,22.3882372 L61.1102314,22.3826719 C61.101124,22.3525692 61.0917637,22.3224664 61.0826563,22.2923636 L61.0811384,22.2897075 L61.079494,22.2869249 L61.0779761,22.2841423 L61.0764583,22.2813597 L61.0749404,22.2785771 L61.0734225,22.2757945 L61.0719046,22.2730119 C60.7429868,21.170857 60.0897051,20.1933168 59.1971807,19.4677628 L59.1956628,19.4649802 C59.1703646,19.4437312 59.1420306,19.423747 59.1164794,19.402498 L59.0810619,19.3759368 L59.0528544,19.3560791 L59.0402053,19.3454545 L59.016172,19.3268617 L59.0035229,19.3161107 L58.9796161,19.2975178 L58.9669669,19.2868933 L58.9423012,19.2707036 L58.9296521,19.2599526 L58.9014446,19.2400949 L58.8887955,19.2294704 L58.860588,19.2096126 L58.8479389,19.1988617 L58.8197314,19.1791304 L58.804173,19.1698972 L58.7759655,19.150166 L58.76066,19.1409328 L58.7324525,19.1210751 L58.7168941,19.1118419 L58.6859038,19.093502 L58.6704719,19.0842688 L58.6393551,19.0658024 L58.6237967,19.0568221 L58.5929329,19.0382292 L58.5773745,19.0291225 L58.5463842,19.0105296 L58.5309523,19.0015494 L58.4984441,18.9803004 L58.4828857,18.9713202 L58.450504,18.9500711 L58.4349456,18.9409644 L58.3997811,18.9212332 L58.3842227,18.9121265 L58.3491846,18.8923953 L58.3322348,18.8805059 L58.2970703,18.8607747 L58.2801205,18.8487589 L58.2450825,18.8291542 L58.2281327,18.8171383 L58.1914503,18.7948775 L58.1718442,18.7845059 L58.1351618,18.7622451 L58.1154292,18.751747 L58.0760905,18.730751 L58.0564843,18.7203794 L58.0171456,18.6993834 L57.9890646,18.6867352 L57.9875467,18.6839526 L57.9286019,18.652585 C56.2055408,17.7570909 54.0163601,17.4874308 51.8136449,18.0530593 L51.2406404,18.2001581 L49.789788,12.5574071 L46.4317035,13.4182451 L47.8761049,19.0389881 L45.1895614,19.7279368 L43.7442746,14.1235099 L40.3860636,14.9844743 L41.8305915,20.6050909 L34.9045738,22.3873518 L35.8260611,25.9685692 L38.6168333,25.2519209 C39.5405732,25.0141147 40.4822181,25.57007 40.7201265,26.4937233 L40.7201265,26.4965059 L40.7201265,26.4965059 L44.5931561,41.5657233 C44.7514031,42.1823291 44.3803097,42.8105855 43.7638807,42.9696759 L41.3188086,43.5985455 L41.4625025,47.8579605 L48.3800452,46.0803794 L49.8435467,51.690751 L53.2002398,50.8271304 L51.7543206,45.2039842 L54.4407376,44.5150356 L55.8874158,50.1375494 L59.2441088,49.2740553 L57.7937624,43.6287747 C58.3629722,43.4804111 58.8517336,43.3538024 59.1902237,43.2662767 C61.6724841,42.6283004 63.6797706,41.1722372 64.8949702,39.3579763 L64.9359533,39.2973913 L64.9387361,39.2958735 L64.9584687,39.267668 L64.9849053,39.2254229 L64.9975544,39.2044269 L65.0239911,39.1621818 L65.0366402,39.1411858 L65.060294,39.100332 L65.0729431,39.0792095 L65.0964704,39.0384822 L65.1069692,39.018751 L65.130623,38.9780237 L65.1408688,38.958166 L65.1645226,38.9175652 L65.1750214,38.8977075 L65.1958924,38.8583715 L65.2063912,38.8387668 L65.2272622,38.7995573 L65.2376344,38.7798261 L65.2601499,38.7431462 L65.2703956,38.723415 L65.2927845,38.6868617 L65.3031568,38.6671304 L65.3228894,38.6319684 L65.3332617,38.6123636 L65.3529943,38.5773281 L65.3633666,38.5574704 L65.3830992,38.5224348 L65.3908151,38.5043478 L65.4106742,38.4690593 L65.4183902,38.4509723 L65.4352135,38.4173281 L65.4444473,38.4017708 L65.4613971,38.3678735 L65.470631,38.3524427 L65.4874543,38.3186719 L65.4966881,38.3031146 L65.5136379,38.2694704 L65.5227453,38.2540395 L65.5395686,38.2202688 L65.5488024,38.2047115 L65.5657522,38.1710672 L65.5749861,38.1555099 L65.5891531,38.1233834 L65.5981339,38.1078261 L65.6123009,38.0755731 L65.6188785,38.0616601 L65.6344369,38.0252332 L65.6550549,37.9790672 C65.6706133,37.9427668 65.6876896,37.9088696 65.7003387,37.874087 L65.7014771,37.8700395 C66.187324,36.6712264 66.3016839,35.3540865 66.0297214,34.0894862 L66.02833,34.0869565 L66.0266856,34.0841739 L66.0252942,34.0812648 L66.0237763,34.0786087 L66.0222584,34.0758261 L66.0207406,34.0730435 L66.0193492,34.0702609 L66.0178313,34.0674783 C66.0099045,34.0337497 66.0019356,33.999473 65.9939245,33.9646482 L65.9939245,33.9576917 L65.9924066,33.9550356 L65.9908887,33.952253 L65.9894973,33.9493439 L65.9879794,33.9465613 L65.9864615,33.9439051 L65.9848171,33.9411225 L65.9835522,33.9383399 L65.9820343,33.9354308 L65.9805164,33.9327747 L65.9789985,33.9299921 L65.9776071,33.9272095 L65.9760892,33.9244269 L65.9745713,33.9217708 L65.9686262,33.9108933 C65.9559771,33.8615652 65.9463638,33.8107194 65.9306789,33.7627826 C65.9310584,33.7339447 65.9239749,33.6822134 65.9209391,33.6237787 Z M46.1892202,23.5422609 C46.7622247,23.3951621 49.1310226,22.8001897 49.9123579,22.5971858 C51.1541205,22.2792095 52.3776685,22.4026561 53.3334349,22.8627984 L53.3655636,22.8770909 L53.3655636,22.8770909 L53.3796041,22.883668 L53.3993367,22.8940395 L53.4090765,22.8992253 L53.4289356,22.9097233 L53.4386754,22.9149091 L53.4585345,22.9254071 L53.4682744,22.9307194 L53.488007,22.9410909 L53.4978733,22.9464032 L53.5176059,22.9567747 L53.5273457,22.962087 L53.5472048,22.9724585 L53.5569446,22.9777708 L53.5766772,22.9881423 L53.5865435,22.9934545 L53.6062761,23.0036996 L53.6160159,23.0091383 L53.635875,23.0195099 L53.6456148,23.0248221 L53.6625646,23.0367115 L53.6724309,23.0420237 L53.6893807,23.053913 L53.699247,23.0590988 L53.7161968,23.0711146 L53.7260631,23.0763004 L53.7416215,23.0855336 L53.7513613,23.0907194 L53.7669197,23.0999526 L53.776786,23.1051383 L53.7923444,23.1143715 L53.8022107,23.1196838 L53.8177691,23.1287905 L53.8275089,23.1341028 L53.8431938,23.1432095 L53.8501508,23.149913 L53.8657092,23.1590198 L53.8714013,23.1630672 L53.8868333,23.1723004 L53.8925253,23.1762213 L53.9080837,23.1854545 L53.9136494,23.189502 L53.9292078,23.1986087 L53.9350263,23.2026561 L53.9476754,23.2134071 L53.9532411,23.2173281 L53.9687995,23.2265613 L53.99005,23.2392095 C54.0054819,23.2484427 54.0196489,23.2619763 54.0350808,23.271083 L54.0350808,23.271083 C54.5241228,23.6403085 54.8834638,24.1551036 55.0614292,24.7414387 L55.0614292,24.7414387 L55.0658564,24.7496601 C55.0705365,24.7647115 55.0766081,24.7825455 55.0811618,24.7975968 L55.0826797,24.800253 L55.0914076,24.8166957 C55.0976056,24.8419921 55.1051951,24.8618498 55.1115196,24.8865138 C55.1181469,24.911349 55.1223825,24.9367612 55.1241687,24.9624032 L55.1330231,24.9788458 L55.134541,24.9816285 C55.1369036,24.9985327 55.1411462,25.0151203 55.1471901,25.031083 L55.1516173,25.0391779 L55.1516173,25.0391779 C55.277122,25.6385098 55.2101437,26.262166 54.9602363,26.8211858 L54.9602363,26.8211858 L54.9383534,26.8717787 L54.9267162,26.8956838 L54.9174824,26.9111146 L54.915079,26.919336 L54.9085015,26.9333755 L54.9059717,26.9418498 L54.8968643,26.9571542 L54.8943345,26.965502 L54.8852271,26.9809328 L54.8826973,26.9894071 L54.8734635,27.0048379 L54.8710601,27.0133123 L54.8619528,27.0286166 L54.8592965,27.0369644 L54.8503156,27.0522688 L54.8477858,27.0607431 L54.8385519,27.0760474 L54.8333658,27.0860395 L54.824132,27.1014704 L54.8189458,27.111336 L54.809712,27.1267668 L54.8045258,27.1367589 L54.795292,27.1523162 L54.7899794,27.1621818 L54.7780892,27.179004 L54.7729031,27.1888696 L54.760254,27.2058182 L54.7549414,27.2156838 L54.7430512,27.2325059 L54.7377386,27.242498 L54.7258484,27.2593202 L54.7205358,27.2693123 L54.7078867,27.2861344 L54.7027005,27.2961265 L54.6908104,27.3129486 L54.6854978,27.3228142 L54.6736076,27.3397628 L54.668295,27.349502 L54.6564048,27.3664506 L54.6512187,27.3763162 L54.6365457,27.3947826 L54.6312331,27.4046482 L54.6166866,27.4231146 L54.611374,27.4329802 L54.5968275,27.4514466 L54.5916414,27.4613123 L54.5770949,27.4797787 L54.5663432,27.4924269 L54.5663432,27.4924269 L54.5464841,27.5206324 C53.9288283,28.3857708 52.9167734,29.0849644 51.6751372,29.4025613 C50.8924105,29.6030356 48.5299371,30.2225455 47.9569327,30.3697708 L46.1892202,23.5422609 Z M59.3159558,35.0964111 L59.3245572,35.1127273 L59.326075,35.1155099 C59.3294903,35.1348617 59.334044,35.1497866 59.3373328,35.1690119 L59.3373328,35.1690119 L59.3388506,35.1717945 L59.3388506,35.1717945 L59.3403685,35.1745771 L59.3418864,35.1774862 L59.3434043,35.1801423 L59.3434043,35.1801423 C59.475989,35.8412813 59.3808016,36.5278307 59.0733459,37.1279684 L59.0733459,37.1279684 L59.0432411,37.1826087 L59.0288211,37.2079051 L59.0185753,37.2276364 L59.0131362,37.237502 L59.0040288,37.2530593 L58.9987162,37.2629249 L58.9896088,37.2784822 L58.9842962,37.2882213 L58.9716471,37.3052964 L58.966461,37.3150356 L58.9545708,37.3319842 L58.9492582,37.3418498 L58.937368,37.3586719 L58.9320554,37.368664 L58.9201653,37.3854862 L58.9149791,37.3954783 L58.90233,37.4123004 L58.8971439,37.422166 L58.8851272,37.4391146 L58.8798146,37.4489802 L58.8679245,37.4658024 L58.8626118,37.475668 L58.8499627,37.4926166 L58.8447766,37.5024822 L58.8328864,37.5194308 L58.8275738,37.5292964 L58.8130273,37.5477628 L58.8078412,37.5576285 L58.7931682,37.5760949 L58.7878556,37.585834 L58.7752065,37.6069565 L58.7698939,37.6169486 L58.7572448,37.6379447 L58.7520586,37.6478103 L58.7394095,37.6689328 L58.7314406,37.6801897 L58.7187915,37.7011858 L58.7108226,37.7124427 L58.6948847,37.735083 L58.6869158,37.7463399 L58.6709779,37.7689802 L58.6631354,37.7802372 L58.6471976,37.802751 L58.6392286,37.8140079 L58.6232908,37.8366482 L58.6154483,37.8479051 L58.5993839,37.8705455 L58.5867348,37.8847115 L58.5867348,37.8847115 L58.5614366,37.9156996 C57.8113447,38.8734229 56.6008253,39.6611542 55.1322642,40.0383241 C54.2057172,40.2776285 51.4059642,41.009834 50.7246834,41.183747 L48.8185897,33.7675889 C49.4984791,33.5905138 52.3060746,32.8862609 53.2331275,32.647083 C54.7025741,32.269913 56.145078,32.376917 57.2602232,32.8528696 L57.2965261,32.8685534 L57.2965261,32.8685534 L57.3148673,32.8762688 L57.3411774,32.8866403 L57.3538265,32.8903083 L57.3777333,32.9019447 L57.3903825,32.9057391 L57.4141628,32.9173755 L57.4268119,32.9210435 L57.4507187,32.9328063 L57.460585,32.9379921 L57.4844918,32.9497549 L57.4943581,32.9549407 L57.5181384,32.9665771 L57.5280047,32.9720158 L57.5519115,32.9835257 L57.5616513,32.9888379 L57.5815104,32.9992095 L57.5912502,33.0045217 L57.6111093,33.0148933 L57.6208492,33.0202055 L57.6405818,33.0305771 L57.6503216,33.0358893 L57.6701807,33.0462609 L57.6799205,33.0515731 L57.6997796,33.0619447 L57.7095194,33.0672569 L57.729252,33.0776285 L57.7391183,33.0829407 L57.7588509,33.0933123 L57.7685907,33.0986245 L57.7884498,33.108996 L57.7981896,33.1143083 L57.8179222,33.1246798 L57.8277885,33.1298656 L57.8446118,33.1418814 L57.8544781,33.1470672 L57.8714279,33.1597154 L57.8812942,33.1649012 L57.898244,33.176917 L57.9081103,33.1821028 L57.9250601,33.194751 L57.9349264,33.2000632 L57.9518762,33.2118261 L57.9616161,33.2172648 L57.977048,33.2263715 L57.9869143,33.2316838 L58.0038641,33.2435731 L58.026506,33.2595099 C58.0434558,33.2713992 58.0630619,33.2818972 58.0800117,33.2937866 L58.0800117,33.2937866 C58.6379543,33.6720064 59.051874,34.2274855 59.2547341,34.8702609 L59.2547341,34.8702609 L59.2605527,34.8810119 C59.2667507,34.8987194 59.2711779,34.9138972 59.277123,34.9316047 L59.2786409,34.9343874 L59.2874953,34.9507036 C59.2936933,34.9753676 59.3001444,35.0000316 59.3076074,35.0272253 C59.3202565,35.0300079 59.3219008,35.0602372 59.3176001,35.0978024 L59.3159558,35.0964111 Z" id="Shape" fill="#FFFFFF" fill-rule="nonzero"></path>
            </g>
        </g>
    </g>
</svg>