<?xml version="1.0" encoding="UTF-8"?>
<svg width="407px" height="64px" viewBox="0 0 407 64" version="1.1" xmlns="http://www.w3.org/2000/svg" xmlns:xlink="http://www.w3.org/1999/xlink">
    <!-- Generator: Sketch 53.2 (72643) - https://sketchapp.com -->
    <title>dash</title>
    <desc>Created with Sketch.</desc>
    <g id="Page-1" stroke="none" stroke-width="1" fill="none" fill-rule="evenodd">
        <g id="payments/logo/logo-dash" fill="#1E75BB">
            <g id="dash">
                <polygon id="H" points="384.382429 0.581818182 376.416857 24.8436364 333.856286 24.8436364 341.821857 0.581818182 319.146143 0.581818182 298.505429 63.4763636 321.123 63.4763636 329.088571 39.2145455 371.649143 39.2145455 363.683571 63.4763636 386.359286 63.4763636 407 0.581818182"></polygon>
                <path d="M294.493571,29.6145455 C293.505143,28.1018182 292.109714,26.88 290.539857,26.0654545 C288.795571,25.2509091 286.876857,24.8436364 284.958143,24.8436364 L235.246,24.8436364 L238.036857,16.1163636 L303.273143,16.1163636 L308.447857,0.581818182 L236.118143,0.581818182 C233.908714,0.581818182 231.757429,0.989090909 229.722429,1.80363636 C227.396714,2.61818182 225.303571,3.84 223.443,5.41090909 C221.815,6.98181818 219.838143,8.61090909 218.617143,10.5890909 C217.163571,12.5090909 215.942571,14.6618182 215.070429,16.9309091 L213.093571,22.8654545 C212.570286,24.96 212.337714,27.1127273 212.279571,29.2654545 C212.628429,31.2436364 213.093571,33.2218182 213.907571,34.4436364 C214.896,35.9563636 216.291429,37.1781818 217.861286,38.0509091 C219.547429,38.9818182 221.466143,39.5054545 223.443,39.6218182 L273.155143,39.6218182 L270.364286,48 L205.069857,48 L199.953286,63.5345455 L272.283,63.5345455 C274.492429,63.5345455 276.643714,63.1272727 278.678714,62.3127273 C281.004429,61.4981818 283.097571,60.2763636 284.958143,58.7636364 C286.586143,57.1927273 288.563,55.5636364 289.784,53.5854545 C291.295714,51.6654545 292.458571,49.5127273 293.330714,47.2436364 L295.307571,41.3090909 C295.947143,39.2145455 296.237857,37.0618182 296.121571,34.9090909 C295.714571,32.8145455 295.307571,30.8945455 294.493571,29.6145455 L294.493571,29.6145455 Z" id="S"></path>
                <path d="M205.476857,10.1818182 C205.128,8.20363636 204.662857,6.63272727 203.558143,5.35272727 C202.744143,3.84 201.465,2.56 199.953286,1.80363636 C198.209,0.989090909 196.290286,0.523636364 194.371571,0.581818182 L137.566,0.581818182 C135.356571,0.581818182 133.205286,0.989090909 131.170286,1.80363636 C128.844571,2.61818182 126.693286,3.84 124.832714,5.41090909 C123.204714,6.98181818 121.286,8.61090909 120.006857,10.5890909 C118.495143,12.5090909 117.332286,14.6618182 116.460143,16.9309091 L101.343,63.4763636 L124.018714,63.4763636 L139.542857,16.1745455 L182.452286,16.1745455 L177.742714,30.08 L147.508429,30.08 L142.740714,44.8 L172.916857,44.8 L166.928143,63.5345455 L189.255,63.5345455 L204.721,16.5236364 C205.360571,14.4290909 205.593143,12.3345455 205.476857,10.1818182 Z" id="A"></path>
                <path d="M106.517714,10.5890909 C106.401429,8.78545455 105.878143,6.98181818 104.947857,5.41090909 C104.133857,3.78181818 102.680286,2.50181818 100.994143,1.86181818 C99.2498571,0.989090909 97.3311429,0.581818182 95.4124286,0.64 L23.0827143,0.64 L17.908,16.1745455 L83.435,16.1745455 L73.0855714,47.9418182 L7.55857143,47.9418182 L2.38385714,63.4763636 L75.0624286,63.4763636 C77.2275762,63.4192545 79.3686286,63.0064818 81.4,62.2545455 C83.435,61.0909091 85.7607143,59.9272727 87.7375714,58.2981818 C89.6562857,56.7854545 91.4005714,55.04 92.9122857,53.12 C94.1914286,51.2 95.238,49.2218182 96.1101429,47.1272727 L105.703714,16.9309091 C106.575857,14.9527273 106.866571,12.7418182 106.517714,10.5890909 Z" id="D"></path>
                <polygon id="_-" points="43.7234286 24.8436364 5.17471429 24.8436364 0 39.2145455 38.9557143 39.2145455"></polygon>
            </g>
        </g>
    </g>
</svg>