<?xml version="1.0" encoding="UTF-8"?>
<svg width="340px" height="64px" viewBox="0 0 340 64" version="1.1" xmlns="http://www.w3.org/2000/svg" xmlns:xlink="http://www.w3.org/1999/xlink">
    <!-- Generator: Sketch 53.2 (72643) - https://sketchapp.com -->
    <title>dogecoin</title>
    <desc>Created with Sketch.</desc>
    <g id="Page-1" stroke="none" stroke-width="1" fill="none" fill-rule="evenodd">
        <g id="logo-dogecoin">
            <g id="dogecoin">
                <g id="dogecoin-logo-svg-vector">
                    <path d="M32.768,21.088 L28.19584,21.088 L28.19584,30.10208 L35.38912,30.10208 L35.38912,33.87616 L28.19584,33.87616 L28.19584,42.8896907 L32.992,42.8896 C34.22432,42.8896 43.10912,43.0288 43.09536,32.40256 C43.0816,21.77632 34.47808,21.088 32.768,21.088 Z" id="Path" fill="#F6A423"></path>
                    <path d="M32,0 C14.32672,0 0,14.32672 0,32 C0,49.67328 14.32672,64 32,64 C49.67328,64 64,49.67328 64,32 C64,14.32672 49.67328,0 32,0 Z M33.25728,49.2832 L21.66848,49.2832 L21.66848,33.87648 L17.58336,33.87648 L17.58336,30.1024 L21.66816,30.1024 L21.66816,14.69472 L31.6144,14.69472 C33.96736,14.69472 49.55232,14.20608 49.55232,32.27808 C49.55232,50.64896 33.2576,49.2832 33.2576,49.2832 L33.25728,49.2832 Z" id="Shape" fill="#EF9F22" fill-rule="nonzero"></path>
                </g>
                <g id="Group-5" transform="translate(76.235294, 0.000000)" fill="#373737">
                    <path d="M15.1567059,25.0277647 L17.9124706,25.0277647 C19.3581249,25.0277647 20.570348,24.7115326 21.5491765,24.0790588 C22.5280049,23.4465851 23.3110559,22.6108287 23.8983529,21.5717647 C24.48565,20.5327007 24.9072928,19.3280069 25.1632941,17.9576471 C25.4192954,16.5872873 25.5472941,15.1793013 25.5472941,13.7336471 C25.5472941,12.0169326 25.163298,10.6465934 24.3952941,9.62258824 C23.6272903,8.59858312 22.2644804,8.08658824 20.3068235,8.08658824 L17.5510588,8.08658824 L15.1567059,25.0277647 Z M7.34117647,0.587294118 L23.4691765,0.587294118 C27.9868461,0.587294118 31.4126942,1.71669459 33.7468235,3.97552941 C36.0809528,6.23436424 37.248,9.38162688 37.248,13.4174118 C37.248,16.3087203 36.8338865,18.9515174 36.0056471,21.3458824 C35.1774076,23.7402473 33.9953018,25.7957561 32.4592941,27.5124706 C30.9232864,29.2291851 29.0710697,30.5618776 26.9025882,31.5105882 C24.7341068,32.4592989 22.2946018,32.9336471 19.584,32.9336471 L2.82352941,32.9336471 L7.34117647,0.587294118 Z M51.5689412,19.2 C51.5689412,19.9529449 51.6442345,20.6607026 51.7948235,21.3232941 C51.9454125,21.9858857 52.1863513,22.5656446 52.5176471,23.0625882 C52.8489428,23.5595319 53.2856443,23.9585867 53.8277647,24.2597647 C54.3698851,24.5609427 55.0324667,24.7115294 55.8155294,24.7115294 C56.7491811,24.7115294 57.6150548,24.47812 58.4131765,24.0112941 C59.2112981,23.5444683 59.8964677,22.866828 60.4687059,21.9783529 C61.040944,21.0898779 61.4927042,20.0131828 61.824,18.7482353 C62.1552958,17.4832878 62.3209412,16.0527139 62.3209412,14.4564706 C62.3209412,13.7035256 62.2531771,12.9807093 62.1176471,12.288 C61.982117,11.5952907 61.7487075,10.9854144 61.4174118,10.4583529 C61.086116,9.93129148 60.6494145,9.51717798 60.1072941,9.216 C59.5651738,8.91482202 58.8875335,8.76423529 58.0743529,8.76423529 C56.8094054,8.76423529 55.7552983,9.13317278 54.912,9.87105882 C54.0687017,10.6089449 53.3985907,11.5199946 52.9016471,12.6042353 C52.4047034,13.688476 52.0583539,14.8329352 51.8625882,16.0376471 C51.6668226,17.242359 51.5689412,18.2964661 51.5689412,19.2 Z M59.2941176,0 C61.7637771,0 63.9246966,0.338820141 65.7769412,1.01647059 C67.6291857,1.69412104 69.1726997,2.63528809 70.4075294,3.84 C71.6423591,5.04471191 72.5684675,6.49787384 73.1858824,8.19952941 C73.8032972,9.90118498 74.112,11.7609311 74.112,13.7788235 C74.112,16.3689541 73.6978865,18.8536352 72.8696471,21.2329412 C72.0414076,23.6122472 70.8065964,25.7129321 69.1651765,27.5350588 C67.5237565,29.3571856 65.4833063,30.8103475 63.0437647,31.8945882 C60.6042231,32.978829 57.7882513,33.5209412 54.5957647,33.5209412 C52.1261053,33.5209412 49.9651857,33.1971797 48.1129412,32.5496471 C46.2606966,31.9021144 44.7171826,30.9835354 43.4823529,29.7938824 C42.2475232,28.6042293 41.3214149,27.1811848 40.704,25.5247059 C40.0865851,23.868227 39.7778824,22.0160102 39.7778824,19.968 C39.7778824,17.3477516 40.1919959,14.8404826 41.0202353,12.4461176 C41.8484747,10.0517527 43.0832859,7.92847985 44.7247059,6.07623529 C46.3661259,4.22399074 48.406576,2.74824079 50.8461176,1.64894118 C53.2856593,0.549641562 56.1016311,0 59.2941176,0 Z M98.1458824,0 C100.464953,0 102.482815,0.150586729 104.199529,0.451764706 C105.916244,0.752942682 107.497405,1.23482022 108.943059,1.89741176 L107.768471,10.1195294 C106.623994,9.42682007 105.344007,8.86964917 103.928471,8.448 C102.512934,8.02635083 101.037184,7.81552941 99.5011765,7.81552941 C97.6037552,7.81552941 95.9698892,8.13929088 94.5995294,8.78682353 C93.2291696,9.43435618 92.0922398,10.2776419 91.1887059,11.3167059 C90.285172,12.3557699 89.615061,13.5228171 89.1783529,14.8178824 C88.7416449,16.1129477 88.5232941,17.4079935 88.5232941,18.7030588 C88.5232941,20.6908335 89.0202303,22.3096408 90.0141176,23.5595294 C91.008005,24.809418 92.5289309,25.4343529 94.5769412,25.4343529 L97.2875294,25.4343529 L97.8748235,21.4588235 L94.2155294,21.4588235 L95.1642353,14.8630588 L108.039529,14.8630588 L105.6,31.9397647 C103.702579,32.4517673 101.692246,32.8432928 99.5689412,33.1143529 C97.4456364,33.3854131 95.2997755,33.5209412 93.1312941,33.5209412 C90.4508101,33.5209412 88.0941278,33.159533 86.0611765,32.4367059 C84.0282251,31.7138787 82.3265951,30.712477 80.9562353,29.4324706 C79.5858755,28.1524642 78.5468271,26.6390676 77.8390588,24.8922353 C77.1312906,23.145403 76.7774118,21.2480102 76.7774118,19.2 C76.7774118,15.7665711 77.4475227,12.8376592 78.7877647,10.4131765 C80.1280067,7.98869376 81.8446954,6.00094893 83.9378824,4.44988235 C86.0310693,2.89881577 88.3350462,1.7694153 90.8498824,1.06164706 C93.3647185,0.353878814 95.7966941,0 98.1458824,0 Z M114.951529,0.587294118 L139.753412,0.587294118 L138.533647,9.26117647 L124.980706,9.26117647 L124.483765,12.8752941 L137.404235,12.8752941 L136.365176,20.2842353 L123.444706,20.2842353 L122.857412,24.3049412 L136.726588,24.3049412 L135.506824,32.9336471 L110.388706,32.9336471 L114.951529,0.587294118 Z M160.760471,0 C162.627774,0 164.276699,0.143057393 165.707294,0.429176471 C167.13789,0.715295548 168.60611,1.09929171 170.112,1.58117647 L168.801882,10.7068235 C167.657406,10.1044676 166.505418,9.58494336 165.345882,9.14823529 C164.186347,8.71152723 162.989183,8.49317647 161.754353,8.49317647 C160.248463,8.49317647 158.908241,8.7265859 157.733647,9.19341176 C156.559053,9.66023763 155.557651,10.3152899 154.729412,11.1585882 C153.901172,12.0018866 153.268708,13.0258763 152.832,14.2305882 C152.395292,15.4353001 152.176941,16.7604634 152.176941,18.2061176 C152.176941,20.3143635 152.801876,21.9331708 154.051765,23.0625882 C155.301653,24.1920056 157.101165,24.7567059 159.450353,24.7567059 C161.859777,24.7567059 164.525162,24.0941243 167.446588,22.7689412 L166.226824,31.3072941 C164.720934,31.9698857 163.072009,32.5044686 161.28,32.9110588 C159.487991,33.3176491 157.733656,33.5209412 156.016941,33.5209412 C153.396693,33.5209412 151.115304,33.1670624 149.172706,32.4592941 C147.230108,31.7515259 145.603771,30.7802415 144.293647,29.5454118 C142.983523,28.3105821 142.004709,26.8348321 141.357176,25.1181176 C140.709644,23.4014032 140.385882,21.5341277 140.385882,19.5162353 C140.385882,18.22117 140.52141,16.8433014 140.792471,15.3825882 C141.063531,13.921875 141.52282,12.4687131 142.170353,11.0230588 C142.817886,9.57740454 143.653642,8.19200663 144.677647,6.86682353 C145.701652,5.54164043 146.97411,4.36706394 148.495059,3.34305882 C150.016008,2.3190537 151.785402,1.50588536 153.803294,0.903529412 C155.821187,0.301173459 158.140222,0 160.760471,0 Z M182.445176,19.2 C182.445176,19.9529449 182.52047,20.6607026 182.671059,21.3232941 C182.821648,21.9858857 183.062587,22.5656446 183.393882,23.0625882 C183.725178,23.5595319 184.16188,23.9585867 184.704,24.2597647 C185.24612,24.5609427 185.908702,24.7115294 186.691765,24.7115294 C187.625416,24.7115294 188.49129,24.47812 189.289412,24.0112941 C190.087533,23.5444683 190.772703,22.866828 191.344941,21.9783529 C191.917179,21.0898779 192.36894,20.0131828 192.700235,18.7482353 C193.031531,17.4832878 193.197176,16.0527139 193.197176,14.4564706 C193.197176,13.7035256 193.129412,12.9807093 192.993882,12.288 C192.858352,11.5952907 192.624943,10.9854144 192.293647,10.4583529 C191.962351,9.93129148 191.52565,9.51717798 190.983529,9.216 C190.441409,8.91482202 189.763769,8.76423529 188.950588,8.76423529 C187.685641,8.76423529 186.631534,9.13317278 185.788235,9.87105882 C184.944937,10.6089449 184.274826,11.5199946 183.777882,12.6042353 C183.280939,13.688476 182.934589,14.8329352 182.738824,16.0376471 C182.543058,17.242359 182.445176,18.2964661 182.445176,19.2 Z M190.170353,0 C192.640012,0 194.800932,0.338820141 196.653176,1.01647059 C198.505421,1.69412104 200.048935,2.63528809 201.283765,3.84 C202.518594,5.04471191 203.444703,6.49787384 204.062118,8.19952941 C204.679532,9.90118498 204.988235,11.7609311 204.988235,13.7788235 C204.988235,16.3689541 204.574122,18.8536352 203.745882,21.2329412 C202.917643,23.6122472 201.682832,25.7129321 200.041412,27.5350588 C198.399992,29.3571856 196.359542,30.8103475 193.92,31.8945882 C191.480458,32.978829 188.664487,33.5209412 185.472,33.5209412 C183.002341,33.5209412 180.841421,33.1971797 178.989176,32.5496471 C177.136932,31.9021144 175.593418,30.9835354 174.358588,29.7938824 C173.123759,28.6042293 172.19765,27.1811848 171.580235,25.5247059 C170.96282,23.868227 170.654118,22.0160102 170.654118,19.968 C170.654118,17.3477516 171.068231,14.8404826 171.896471,12.4461176 C172.72471,10.0517527 173.959521,7.92847985 175.600941,6.07623529 C177.242361,4.22399074 179.282811,2.74824079 181.722353,1.64894118 C184.161895,0.549641562 186.977866,0 190.170353,0 Z M218.721882,32.9336471 L207.472941,32.9336471 L212.035765,0.587294118 L223.284706,0.587294118 L218.721882,32.9336471 Z M252.784941,0.587294118 L263.672471,0.587294118 L259.154824,32.9336471 L245.511529,32.9336471 L237.831529,12.9656471 L235.030588,32.9336471 L224.097882,32.9336471 L228.660706,0.587294118 L242.665412,0.587294118 L250.074353,19.9228235 L252.784941,0.587294118 Z" id="Dogecoin"></path>
                    <path d="M0,62.6791907 L8.78989629,40.0940405 L13.4900492,40.0940405 L22.2799455,62.6791907 L17.4577107,62.6791907 L15.1076343,56.6513972 L5.76836944,56.6513972 L3.418293,62.6791907 L0,62.6791907 Z M6.92814742,53.6451306 L13.9478563,53.6451306 L10.4380018,44.641591 L6.92814742,53.6451306 Z M43.659537,61.7788368 C41.4722254,62.7554968 38.8627511,63.2438195 35.8310356,63.2438195 C32.1278663,63.2438195 29.2437104,62.2010471 27.1784814,60.115471 C25.1132524,58.0298949 24.0806534,55.1203055 24.0806534,51.3866156 C24.0806534,47.5817109 25.1208824,44.6543181 27.2013718,42.6043494 C29.2818611,40.5543807 32.2499474,39.5294118 36.1057198,39.5294118 C38.567717,39.5294118 41.0144171,39.8193534 43.4458936,40.3992453 L43.4458936,44.0769623 C40.6888638,43.1104758 38.3795044,42.6272398 36.5177462,42.6272398 C34.1371374,42.6272398 32.3008406,43.382614 31.0088008,44.8933849 C29.716761,46.4041559 29.0707508,48.5481977 29.0707508,51.3255747 C29.0707508,54.0520839 29.7650846,56.1783223 31.1537731,57.7043536 C32.5424615,59.2303849 34.4728622,59.9933891 36.9450328,59.9933891 C39.162865,59.9933891 41.4010106,59.4338527 43.659537,58.314763 L43.659537,61.7788368 Z M65.9242222,61.7788368 C63.7369107,62.7554968 61.1274363,63.2438195 58.0957208,63.2438195 C54.3925515,63.2438195 51.5083957,62.2010471 49.4431666,60.115471 C47.3779376,58.0298949 46.3453386,55.1203055 46.3453386,51.3866156 C46.3453386,47.5817109 47.3855677,44.6543181 49.466057,42.6043494 C51.5465463,40.5543807 54.5146327,39.5294118 58.3704051,39.5294118 C60.8324022,39.5294118 63.2791023,39.8193534 65.7105789,40.3992453 L65.7105789,44.0769623 C62.953549,43.1104758 60.6441896,42.6272398 58.7824314,42.6272398 C56.4018226,42.6272398 54.5655259,43.382614 53.273486,44.8933849 C51.9814462,46.4041559 51.335436,48.5481977 51.335436,51.3255747 C51.335436,54.0520839 52.0297698,56.1783223 53.4184583,57.7043536 C54.8071468,59.2303849 56.7375474,59.9933891 59.2097181,59.9933891 C61.4275502,59.9933891 63.6656959,59.4338527 65.9242222,58.314763 L65.9242222,61.7788368 Z M70.0139656,62.6791907 L70.0139656,40.0940405 L84.1296845,40.0940405 L84.1296845,43.1918686 L74.7141185,43.1918686 L74.7141185,49.4943463 L82.4357982,49.4943463 L82.4357982,52.5158731 L74.7141185,52.5158731 L74.7141185,59.474541 L84.8469156,59.474541 L84.8469156,62.6791907 L70.0139656,62.6791907 Z M88.7840566,62.6791907 L88.7840566,40.0940405 L96.6583387,40.0940405 C99.4051951,40.0940405 101.366116,40.5543864 102.54116,41.4750919 C103.716204,42.3957975 104.303717,43.9345226 104.303717,46.0913135 C104.303717,48.5329636 103.517823,50.432844 101.946011,51.7910119 C100.374198,53.1491797 98.174203,53.8282535 95.3459584,53.8282535 L93.3926481,53.8282535 L93.3926481,62.6791907 L88.7840566,62.6791907 Z M93.3926481,50.7304254 L94.3082623,50.7304254 C95.9156819,50.7304254 97.1848122,50.3565534 98.1156913,49.608798 C99.0465704,48.8610427 99.512003,47.8462471 99.512003,46.5643808 C99.512003,44.3160281 98.0826418,43.1918686 95.2238765,43.1918686 L93.3926481,43.1918686 L93.3926481,50.7304254 Z M113.551421,62.6791907 L113.551421,43.1918686 L105.463495,43.1918686 L105.463495,40.0940405 L126.354759,40.0940405 L126.354759,43.1918686 L118.266834,43.1918686 L118.266834,62.6791907 L113.551421,62.6791907 Z M129.513628,62.6791907 L129.513628,40.0940405 L143.629347,40.0940405 L143.629347,43.1918686 L134.213781,43.1918686 L134.213781,49.4943463 L141.935461,49.4943463 L141.935461,52.5158731 L134.213781,52.5158731 L134.213781,59.474541 L144.346578,59.474541 L144.346578,62.6791907 L129.513628,62.6791907 Z M148.283719,62.6791907 L148.283719,40.0940405 L158.00449,40.0940405 C161.504188,40.0940405 164.184876,41.0223623 166.046635,42.8790337 C167.908393,44.7357051 168.839258,47.4138499 168.839258,50.9135483 C168.839258,54.6370646 167.852439,57.5288506 165.878772,59.5889928 C163.905105,61.649135 161.14303,62.6791907 157.592464,62.6791907 L148.283719,62.6791907 Z M152.983872,59.474541 L156.493727,59.474541 C158.965897,59.474541 160.809824,58.7903806 162.025562,57.4220392 C163.241301,56.0536978 163.849161,53.975783 163.849161,51.1882325 C163.849161,49.0314416 163.360838,47.2358384 162.384178,45.801369 C161.712724,44.8145354 160.90394,44.1329184 159.9578,43.7564973 C159.011661,43.3800763 157.633167,43.1918686 155.822276,43.1918686 L152.983872,43.1918686 L152.983872,59.474541 Z M181.154269,62.6791907 L181.154269,40.0940405 L185.854422,40.0940405 L185.854422,49.2654427 L195.193687,49.2654427 L195.193687,40.0940405 L199.893839,40.0940405 L199.893839,62.6791907 L195.193687,62.6791907 L195.193687,52.378531 L185.854422,52.378531 L185.854422,62.6791907 L181.154269,62.6791907 Z M205.540127,62.6791907 L205.540127,40.0940405 L219.655846,40.0940405 L219.655846,43.1918686 L210.24028,43.1918686 L210.24028,49.4943463 L217.96196,49.4943463 L217.96196,52.5158731 L210.24028,52.5158731 L210.24028,59.474541 L220.373077,59.474541 L220.373077,62.6791907 L205.540127,62.6791907 Z M224.310218,62.6791907 L224.310218,40.0940405 L232.764389,40.0940405 C237.352657,40.0940405 239.646756,41.9608575 239.646756,45.6945474 C239.646756,47.0883226 239.257624,48.3574529 238.479348,49.5019764 C237.701072,50.6464999 236.630323,51.5239547 235.267068,52.1343672 L242.653022,62.6791907 L236.930434,62.6791907 L231.329927,53.4467476 L228.735687,53.4467476 L228.735687,62.6791907 L224.310218,62.6791907 Z M228.735687,50.3489195 L229.819163,50.3489195 C233.2273,50.3489195 234.931343,48.9704253 234.931343,46.2133954 C234.931343,44.1990341 233.410421,43.1918686 230.368532,43.1918686 L228.735687,43.1918686 L228.735687,50.3489195 Z M245.872932,62.6791907 L245.872932,40.0940405 L259.988651,40.0940405 L259.988651,43.1918686 L250.573085,43.1918686 L250.573085,49.4943463 L258.294765,49.4943463 L258.294765,52.5158731 L250.573085,52.5158731 L250.573085,59.474541 L260.705882,59.474541 L260.705882,62.6791907 L245.872932,62.6791907 Z" id="Accepted-here"></path>
                </g>
            </g>
        </g>
    </g>
</svg>