<?xml version="1.0" encoding="UTF-8"?>
<svg width="165px" height="64px" viewBox="0 0 165 64" version="1.1" xmlns="http://www.w3.org/2000/svg" xmlns:xlink="http://www.w3.org/1999/xlink">
    <!-- Generator: Sketch 53.2 (72643) - https://sketchapp.com -->
    <title>ethereum</title>
    <desc>Created with Sketch.</desc>
    <g id="Page-1" stroke="none" stroke-width="1" fill="none" fill-rule="evenodd">
        <g id="payments/logo/logo-ethereum">
            <g id="ethereum">
                <g id="Group" transform="translate(48.058252, 19.200000)" fill="#3C3C3B">
                    <path d="M10.4126214,15.12 C10.4126214,15.36 10.1723301,15.6 9.93203883,15.6 L0.881067961,15.6 C1.12135922,17.84 2.80339806,19.92 5.20631068,19.92 C6.80825243,19.92 8.00970874,19.28 8.97087379,18 C9.05097087,17.84 9.21116505,17.76 9.37135922,17.76 C9.61165049,17.76 9.85194175,17.92 9.85194175,18.24 C9.85194175,18.32 9.85194175,18.4 9.77184466,18.48 C8.8907767,20.08 7.04854369,20.88 5.28640777,20.88 C2.24271845,20.88 0.0800970874,18.16 0.0800970874,15.2 C0.0800970874,12.24 2.24271845,9.52 5.28640777,9.52 C8.33009709,9.52 10.4126214,12.16 10.4126214,15.12 L10.4126214,15.12 Z M9.45145631,14.64 C9.29126214,12.4 7.52912621,10.32 5.12621359,10.32 C2.72330097,10.32 1.04126214,12.4 0.800970874,14.64 L9.45145631,14.64 Z" id="Shape" fill-rule="nonzero"></path>
                    <path d="M21.4660194,9.68 C21.7063107,9.68 21.9466019,9.92 21.9466019,10.16 C21.9466019,10.4 21.7864078,10.64 21.4660194,10.64 L19.0631068,10.64 L19.0631068,20.16 C19.0631068,20.4 18.9029126,20.64 18.5825243,20.64 C18.342233,20.64 18.1019417,20.4 18.1019417,20.16 L18.1019417,10.56 L15.7791262,10.56 C15.538835,10.56 15.2985437,10.4 15.2985437,10.08 C15.2985437,9.84 15.4587379,9.6 15.7791262,9.6 L18.1019417,9.6 L18.1019417,6.08 C18.1019417,5.84 18.2621359,5.6 18.5825243,5.6 C18.8228155,5.6 19.0631068,5.76 19.0631068,6.08 L19.0631068,9.6 L21.4660194,9.6 L21.4660194,9.68 Z" id="Path"></path>
                    <path d="M36.3640777,14.32 L36.3640777,20.08 C36.3640777,20.32 36.1237864,20.56 35.8834951,20.56 C35.6432039,20.56 35.4029126,20.4 35.4029126,20.08 L35.4029126,14.32 C35.4029126,12.4 34.2815534,10.4 32.118932,10.4 C29.315534,10.4 28.1140777,12.8 28.2742718,15.36 C28.2742718,15.44 28.2742718,15.68 28.2742718,15.76 L28.2742718,20.08 C28.2742718,20.32 28.1140777,20.56 27.7936893,20.56 C27.5533981,20.56 27.3131068,20.4 27.3131068,20.08 L27.3131068,1.04 C27.3131068,0.8 27.473301,0.56 27.7936893,0.56 C28.0339806,0.56 28.2742718,0.8 28.2742718,1.04 L28.2742718,11.76 C29.0752427,10.4 30.4368932,9.44 32.118932,9.44 C34.842233,9.44 36.3640777,11.84 36.3640777,14.32" id="Path"></path>
                    <path d="M52.6237864,15.12 C52.6237864,15.36 52.3834951,15.6 52.1432039,15.6 L43.092233,15.6 C43.3325243,17.84 45.0145631,19.92 47.4174757,19.92 C49.0194175,19.92 50.2208738,19.28 51.1820388,18 C51.2621359,17.84 51.4223301,17.76 51.5825243,17.76 C51.8228155,17.76 52.0631068,17.92 52.0631068,18.24 C52.0631068,18.32 52.0631068,18.4 51.9830097,18.48 C51.1019417,20.08 49.2597087,20.88 47.4975728,20.88 C44.4538835,20.88 42.2912621,18.16 42.2912621,15.2 C42.2912621,12.24 44.4538835,9.52 47.4975728,9.52 C50.461165,9.44 52.6237864,12.16 52.6237864,15.12 L52.6237864,15.12 Z M51.6626214,14.64 C51.5024272,12.4 49.7402913,10.32 47.3373786,10.32 C44.934466,10.32 43.2524272,12.4 43.0121359,14.64 L51.6626214,14.64 Z" id="Shape" fill-rule="nonzero"></path>
                    <path d="M63.8373786,10.08 C63.8373786,10.4 63.6771845,10.56 63.4368932,10.56 C60.7936893,10.96 59.592233,13.12 59.592233,15.68 L59.592233,20 C59.592233,20.24 59.4320388,20.48 59.1116505,20.48 C58.8713592,20.48 58.631068,20.32 58.631068,20 L58.631068,10.16 C58.631068,9.92 58.7912621,9.68 59.1116505,9.68 C59.3519417,9.68 59.592233,9.84 59.592233,10.16 L59.592233,12.16 C60.3131068,10.88 61.8349515,9.68 63.4368932,9.68 C63.5169903,9.68 63.8373786,9.84 63.8373786,10.08" id="Path"></path>
                    <path d="M78.7354369,15.12 C78.7354369,15.36 78.4951456,15.6 78.2548544,15.6 L69.2038835,15.6 C69.4441748,17.84 71.1262136,19.92 73.5291262,19.92 C75.131068,19.92 76.3325243,19.28 77.2936893,18 C77.3737864,17.84 77.5339806,17.76 77.6941748,17.76 C77.934466,17.76 78.1747573,17.92 78.1747573,18.24 C78.1747573,18.32 78.1747573,18.4 78.0946602,18.48 C77.2135922,20.08 75.3713592,20.88 73.6092233,20.88 C70.565534,20.88 68.4029126,18.16 68.4029126,15.2 C68.4029126,12.24 70.565534,9.52 73.6092233,9.52 C76.4927184,9.44 78.7354369,12.16 78.7354369,15.12 L78.7354369,15.12 Z M77.7742718,14.64 C77.6140777,12.4 75.8519417,10.32 73.4490291,10.32 C71.0461165,10.32 69.3640777,12.4 69.1237864,14.64 L77.7742718,14.64 Z" id="Shape" fill-rule="nonzero"></path>
                    <path d="M93.3932039,10.16 L93.3932039,13.28 L93.3932039,20.08 C93.3932039,20.32 93.1529126,20.56 92.9126214,20.56 C92.6723301,20.56 92.4320388,20.4 92.4320388,20.08 L92.4320388,18.16 C91.711165,19.68 90.3495146,20.72 88.6674757,20.72 C85.9441748,20.72 84.5024272,18.4 84.5024272,15.92 L84.5024272,10.08 C84.5024272,9.84 84.6626214,9.6 84.9830097,9.6 C85.223301,9.6 85.4635922,9.84 85.4635922,10.08 L85.4635922,16 C85.4635922,17.92 86.5849515,19.92 88.7475728,19.92 C91.7912621,19.92 92.5121359,17.04 92.5121359,13.92 L92.5121359,10.24 C92.5121359,10 92.6723301,9.76 92.9927184,9.76 C93.1529126,9.76 93.3932039,9.92 93.3932039,10.16" id="Path"></path>
                    <path d="M116.381068,14.24 L116.381068,20.08 C116.381068,20.32 116.140777,20.56 115.900485,20.56 C115.660194,20.56 115.419903,20.4 115.419903,20.08 L115.419903,14.24 C115.419903,12.32 114.298544,10.4 112.135922,10.4 C109.412621,10.4 108.371359,13.36 108.371359,15.6 L108.371359,20.08 C108.371359,20.32 108.131068,20.56 107.890777,20.56 C107.650485,20.56 107.410194,20.4 107.410194,20.08 L107.410194,14.24 C107.410194,12.32 106.288835,10.4 104.126214,10.4 C101.322816,10.4 100.201456,12.56 100.281553,15.44 C100.281553,15.52 100.281553,15.6 100.281553,15.68 L100.281553,20.08 C100.281553,20.32 100.121359,20.56 99.8009709,20.56 C99.5606796,20.56 99.3203883,20.4 99.3203883,20.08 L99.3203883,10.16 C99.3203883,9.92 99.4805825,9.68 99.8009709,9.68 C100.041262,9.68 100.281553,9.84 100.281553,10.16 L100.281553,11.84 C101.082524,10.48 102.444175,9.52 104.126214,9.52 C105.968447,9.52 107.410194,10.72 107.970874,12.4 C108.691748,10.72 110.213592,9.52 112.055825,9.52 C114.859223,9.44 116.381068,11.76 116.381068,14.24" id="Path"></path>
                </g>
                <g id="Group">
                    <g id="LWPOLYLINE" transform="translate(0.000000, 36.000000)" fill="#8C8C8C">
                        <polyline id="Path" points="0.560679612 0.32 20.184466 28 20.184466 11.92 0.560679612 0.32"></polyline>
                    </g>
                    <g id="LWPOLYLINE_1_" transform="translate(0.000000, 23.200000)" fill="#393939">
                        <polyline id="Path" points="0.560679612 9.36 20.184466 21.04 20.184466 0.48 0.560679612 9.36"></polyline>
                    </g>
                    <g id="LWPOLYLINE_2_" fill="#8C8C8C">
                        <polyline id="Path" points="0.560679612 32.56 20.184466 23.68 20.184466 0 0.560679612 32.56"></polyline>
                    </g>
                    <g id="LWPOLYLINE_3_" transform="translate(20.024272, 36.000000)" fill="#343434">
                        <polyline id="Path" points="19.8640777 0.32 0.160194175 28 0.160194175 11.92 19.8640777 0.32"></polyline>
                    </g>
                    <g id="LWPOLYLINE_4_" transform="translate(20.024272, 23.200000)" fill="#151515">
                        <polyline id="Path" points="19.8640777 9.36 0.160194175 21.04 0.160194175 0.48 19.8640777 9.36"></polyline>
                    </g>
                    <g id="LWPOLYLINE_5_" transform="translate(20.024272, 0.000000)" fill="#343434">
                        <polyline id="Path" points="19.8640777 32.56 0.160194175 23.68 0.160194175 0 19.8640777 32.56"></polyline>
                    </g>
                </g>
            </g>
        </g>
    </g>
</svg>