<?xml version="1.0" encoding="UTF-8"?>
<svg width="308px" height="64px" viewBox="0 0 308 64" version="1.1" xmlns="http://www.w3.org/2000/svg" xmlns:xlink="http://www.w3.org/1999/xlink">
    <!-- Generator: Sketch 53.2 (72643) - https://sketchapp.com -->
    <title>litecoin</title>
    <desc>Created with Sketch.</desc>
    <g id="Page-1" stroke="none" stroke-width="1" fill="none" fill-rule="evenodd">
        <g id="payments/logo/logo-litecoin">
            <g id="litecoin">
                <g id="litecoin-copy-2" fill="#BEBEBE" fill-rule="nonzero">
                    <path d="M31.9953421,0.169377642 C14.4152567,0.169377642 0.164148036,14.4206797 0.164148036,32.0005704 C0.164148036,49.580655 14.4152567,63.8321421 31.9953421,63.8321421 C49.5752334,63.8321421 63.8265349,49.580655 63.8265349,32.0005704 C63.8265349,14.4206797 49.57504,0.169377642 31.9953421,0.169377642 Z M27.0810663,14.9299517 L36.9266098,14.9299517 L33.4549327,28.0020824 L38.2732877,26.2418852 L38.3148278,26.3551787 L37.0973042,30.9307069 L32.2022903,32.7188495 L30.135069,40.50397 L46.4926975,40.50397 L44.8129392,46.7615227 L18.6093898,46.7615227 L21.2853714,36.707519 L17.4976073,38.0912048 L18.7502507,33.3740607 L22.5406589,31.9892418 L27.0810663,14.9299517 Z" id="Fill-1"></path>
                </g>
                <path d="M82,61 L78,61 L78,4 L82,4 L82,61 Z M98,61 L94,61 L94,20 L98,20 L98,61 Z M94,8.01863354 C94,7.17390882 94.266664,6.45963025 94.8,5.8757764 C95.333336,5.29192255 96.0606015,5 96.9818182,5 C97.9030349,5 98.6363609,5.29192255 99.1818182,5.8757764 C99.7272755,6.45963025 100,7.17390882 100,8.01863354 C100,8.86335826 99.7272755,9.57142571 99.1818182,10.1428571 C98.6363609,10.7142886 97.9030349,11 96.9818182,11 C96.0606015,11 95.333336,10.7142886 94.8,10.1428571 C94.266664,9.57142571 94,8.86335826 94,8.01863354 Z M118.487544,10 L118.487544,20.24438 L127.256228,20.24438 L127.256228,23.8687455 L118.487544,23.8687455 L118.487544,50.5337201 C118.487544,52.7527305 118.911621,54.4046356 119.759786,55.4894851 C120.607952,56.5743346 122.023715,57.1167513 124.007117,57.1167513 C124.79004,57.1167513 126.055745,56.9934748 127.80427,56.7469181 L128,60.3712835 C126.773422,60.7904299 125.103213,61 122.989324,61 C119.779343,61 117.443661,60.118573 115.982206,58.3556925 C114.520752,56.5928121 113.790036,53.9978416 113.790036,50.5707034 L113.790036,23.8687455 L106,23.8687455 L106,20.24438 L113.790036,20.24438 L113.790036,10 L118.487544,10 Z M151.507295,61 C147.996615,61 144.823059,60.1515236 141.986532,58.4545455 C139.150005,56.7575673 136.943143,54.3930633 135.365881,51.3609626 C133.788619,48.3288618 133,44.9287176 133,41.1604278 L133,39.5508021 C133,35.6577345 133.76954,32.1515307 135.308642,29.0320856 C136.847744,25.9126404 138.991008,23.4607932 141.738496,21.6764706 C144.485985,19.8921479 147.462386,19 150.667789,19 C155.679412,19 159.654306,20.6782363 162.592593,24.0347594 C165.530879,27.3912824 167,31.976798 167,37.7914439 L167,40.2994652 L137.540965,40.2994652 L137.540965,41.1604278 C137.540965,45.7522511 138.88289,49.5766336 141.566779,52.6336898 C144.250668,55.6907461 147.627739,57.2192513 151.698092,57.2192513 C154.140304,57.2192513 156.296287,56.7825356 158.166105,55.9090909 C160.035924,55.0356463 161.733999,53.6381558 163.260382,51.7165775 L166.122334,53.8502674 C162.764293,58.6167796 157.892662,61 151.507295,61 Z M151.097072,23 C147.630183,23 144.709051,24.1753307 142.33359,26.5260274 C139.958129,28.8767241 138.513613,32.0346834 138,36 L163,36 L163,35.5369863 C162.871597,31.8328582 161.728824,28.8173632 159.571649,26.490411 C157.414473,24.1634587 154.589643,23 151.097072,23 Z M190.890661,57.2192513 C194.117708,57.2192513 196.821933,56.339581 199.003417,54.5802139 C201.184901,52.8208468 202.365982,50.543686 202.546697,47.7486631 L207,47.7486631 C206.870918,50.2192637 206.070622,52.4714693 204.599089,54.5053476 C203.127555,56.5392259 201.171994,58.130119 198.732346,59.2780749 C196.292699,60.4260307 193.678829,61 190.890661,61 C185.391772,61 181.035324,59.1533161 177.821185,55.459893 C174.607045,51.7664699 173,46.8003877 173,40.5614973 L173,39.2139037 C173,35.2210139 173.722848,31.6898549 175.168565,28.6203209 C176.614282,25.5507868 178.686015,23.180044 181.383827,21.5080214 C184.081638,19.8359988 187.237643,19 190.851936,19 C195.447252,19 199.235748,20.3226249 202.21754,22.9679144 C205.199332,25.613204 206.793469,29.0944526 207,33.4117647 L202.546697,33.4117647 C202.340166,30.2424084 201.159084,27.6845017 199.003417,25.7379679 C196.847749,23.7914341 194.130616,22.8181818 190.851936,22.8181818 C186.669683,22.8181818 183.423322,24.2780603 181.112756,27.197861 C178.80219,30.1176617 177.646925,34.2103124 177.646925,39.4759358 L177.646925,40.7860963 C177.646925,45.9518975 178.80219,49.9821602 181.112756,52.8770053 C183.423322,55.7718505 186.682591,57.2192513 190.890661,57.2192513 Z M214,39.4010695 C214,35.5080019 214.772422,32.0017981 216.317288,28.8823529 C217.862154,25.7629078 220.045362,23.3360158 222.866977,21.6016043 C225.688592,19.8671928 228.886801,19 232.461698,19 C237.977253,19 242.445808,20.8903554 245.867495,24.671123 C249.289182,28.4518906 251,33.4616444 251,39.7005348 L251,40.6363636 C251,44.5543868 250.227578,48.079307 248.682712,51.2112299 C247.137846,54.3431529 244.961022,56.7575673 242.152174,58.4545455 C239.343326,60.1515236 236.138734,61 232.538302,61 C227.048282,61 222.586111,59.1096446 219.151656,55.328877 C215.717202,51.5481094 214,46.5383556 214,40.2994652 L214,39.4010695 Z M218,40.6104461 C218,45.3953812 219.290221,49.323162 221.870702,52.3939064 C224.451182,55.4646508 227.834,57 232.019257,57 C236.178838,57 239.548818,55.4646508 242.129298,52.3939064 C244.709779,49.323162 246,45.27206 246,40.2404788 L246,39.3895539 C246,36.3311418 245.409451,33.5317501 244.228336,30.9912949 C243.04722,28.4508397 241.391116,26.4838662 239.259972,25.0903156 C237.128829,23.6967649 234.689606,23 231.942228,23 C227.834001,23 224.483278,24.5476813 221.889959,27.6430903 C219.29664,30.7384993 218,34.7896014 218,39.796518 L218,40.6104461 Z M265,61 L261,61 L261,20 L265,20 L265,61 Z M259,8.01863354 C259,7.17390882 259.266664,6.45963025 259.8,5.8757764 C260.333336,5.29192255 261.060601,5 261.981818,5 C262.903035,5 263.636361,5.29192255 264.181818,5.8757764 C264.727275,6.45963025 265,7.17390882 265,8.01863354 C265,8.86335826 264.727275,9.57142571 264.181818,10.1428571 C263.636361,10.7142886 262.903035,11 261.981818,11 C261.060601,11 260.333336,10.7142886 259.8,10.1428571 C259.266664,9.57142571 259,8.86335826 259,8.01863354 Z M281.330882,20.7441016 L281.482843,27.6270417 C283.027786,25.1466906 284.952603,23.2554512 287.257353,21.9532668 C289.562103,20.6510824 292.107421,20 294.893382,20 C299.300267,20 302.580055,21.2153538 304.732843,23.646098 C306.885632,26.0768422 307.974673,29.7229037 308,34.584392 L308,61 L303.479167,61 L303.479167,34.5471869 C303.45384,30.9506777 302.675049,28.2719386 301.14277,26.5108893 C299.610491,24.74984 297.160148,23.8693285 293.791667,23.8693285 C290.980378,23.8693285 288.492045,24.7312376 286.326593,26.4550817 C284.161141,28.1789257 282.559237,30.5042201 281.520833,33.4310345 L281.520833,61 L277,61 L277,20.7441016 L281.330882,20.7441016 Z" id="litecoin-copy" fill="#888888"></path>
            </g>
        </g>
    </g>
</svg>