<?xml version="1.0" encoding="UTF-8"?>
<svg width="193px" height="65px" viewBox="0 0 193 65" version="1.1" xmlns="http://www.w3.org/2000/svg" xmlns:xlink="http://www.w3.org/1999/xlink">
    <!-- Generator: Sketch 53.2 (72643) - https://sketchapp.com -->
    <title>payeer</title>
    <desc>Created with Sketch.</desc>
    <g id="Page-1" stroke="none" stroke-width="1" fill="none" fill-rule="evenodd">
        <g id="payments/logo/logo-payeer" transform="translate(0.000000, 1.000000)">
            <g id="payeer">
                <path d="M183.244903,0.336516129 C178.310194,1.33625806 175.925677,6.77677419 178.498581,11.1669677 C181.347613,16.0283871 189.092645,15.2727742 191.177806,9.93032258 C193.175742,4.81187097 188.581677,-0.743741935 183.244903,0.336516129" id="path0-path" stroke="#404040"></path>
                <path d="M160.870194,63.4735484 L160.870194,20.7385806 L170.180645,20.8149677 C183.111226,20.9218065 185.963443,22.923074 187.740903,26.3633548 C190.879312,31.5246645 189.128258,41.2015484 182.451613,44.5553548 C181.866839,44.8490323 181.345032,45.2025806 181.291871,45.3414194 C181.204645,45.568 191.129806,63.3145806 191.129806,63.3713548 C191.129806,63.4088602 188.060043,63.4377634 181.920516,63.4580645 C175.754839,52.5219785 172.629849,46.9610323 172.545548,46.7752258 C172.325677,46.2931613 172.23329,46.2694194 170.589935,46.2694194 L168.865032,46.2694194 L168.865032,63.4735484 L160.870194,63.4735484 Z M175.978323,27.940129 C175.188645,27.7729032 173.444129,27.6536774 171.749677,27.6516129 L168.865032,27.6485161 L168.865032,33.5179355 L168.865032,39.387871 L172.161032,39.387871 C178.287484,39.387871 180.171355,38.171871 180.366452,34.0913548 C180.55071,30.24 179.432258,28.6725161 175.978323,27.940129 Z" id="Combined-Shape" fill="#2E97DE"></path>
                <path d="M0.263225806,63.6763871 L0.263225806,20.564129 C10.5153737,20.6990108 16.9922769,21.068043 19.6939355,21.6712258 C25.6455744,23.0000118 28.3979355,26.7907097 28.7334194,33.7202581 C29.1489032,42.2900645 25.0023305,47.7553045 19.5665216,49.0497173 C17.5678805,49.5256477 13.8995561,49.7636129 8.56154839,49.7636129 L8.56154839,63.6763871 L0.263225806,63.6763871 Z M14.4722581,27.8750968 C13.8823226,27.7507097 12.3107097,27.6485161 10.9806452,27.6485161 L8.56154839,27.6485161 L8.56154839,35.0580645 L8.56154839,42.468129 L11.5473548,42.3736774 C16.8505806,42.2059355 18.8619355,40.6673548 19.2624516,36.4717419 C19.7352258,31.5220645 18.1352258,28.6508387 14.4722581,27.8750968 Z" id="Combined-Shape" fill="#404040"></path>
                <path d="M41.2576559,20.9181935 C46.5597778,20.9181935 49.2108387,20.9181935 49.2108387,20.9181935 C49.2108387,20.9181935 54.0566022,35.1370323 63.748129,63.5747097 L55.4195272,63.5747097 C55.4195272,63.5747097 54.3882439,60.6062796 52.3256774,54.6694194 L38.1914839,54.8149677 C36.2157419,60.519914 35.227871,63.3892473 35.227871,63.4229677 C35.227871,63.4735484 27.0508387,63.3790968 27.0508387,63.3790968 C27.0508387,63.3790968 31.7864445,49.2254624 41.2576559,20.9181935 Z M45.5256774,34.5403871 C45.3816774,33.4477419 44.8923871,34.5796129 42.9156129,40.571871 C41.7171613,44.2064516 40.7380645,47.2485161 40.740129,47.332129 C40.7473548,47.6154839 49.851871,47.5143226 49.8544516,47.2309677 C49.8554839,47.0916129 49.4487742,45.7935484 48.9501935,44.3468387 C48.452129,42.8996129 47.6304516,40.5125161 47.1246452,39.0425806 C46.6193548,37.5726452 46.100129,36.1150968 45.9710968,35.803871 C45.8420645,35.4931613 45.7176774,35.1700645 45.6944516,35.0864516 C45.6712258,35.0033548 45.6294194,34.8892903 45.6015484,34.8335484 C45.5736774,34.7778065 45.5396129,34.6456774 45.5256774,34.5403871 Z" id="Combined-Shape" fill="#404040"></path>
                <path d="M73.7357419,47.3104516 L73.7357419,63.6763871 L82.0340645,63.6763871 L82.0340645,47.3016774 L94.3365161,20.564129 L85.2810323,20.564129 C80.4610753,30.9462366 78.0175484,36.1261075 77.9504516,36.1037419 C77.8379355,36.0662366 75.3909677,30.8863656 70.6095484,20.564129 C64.5973333,20.5940645 61.5912258,20.6274409 61.5912258,20.6642581 C61.5912258,20.7007312 65.6393978,29.5827957 73.7357419,47.3104516 Z" id="path0-path" fill="#404040"></path>
                <path d="M99.6433548,63.4735484 L125.146323,63.4735484 L125.146323,56.8020645 C113.541677,56.8020645 107.739355,56.8020645 107.739355,56.8020645 C107.739355,56.8020645 107.739355,53.0212473 107.739355,45.4596129 L120.693161,45.4596129 L120.693161,38.1734194 L107.739355,38.1734194 L107.739355,27.6485161 L122.919742,27.6485161 L122.919742,20.7664516 L99.6433548,20.7664516 L99.6433548,63.4735484 Z" id="path0-path" fill="#2E97DE"></path>
                <path d="M130.412387,63.4735484 L155.911226,63.4735484 L155.911226,56.7860645 C144.306925,56.7860645 138.504774,56.7860645 138.504774,56.7860645 C138.504774,56.7860645 138.504774,53.0105806 138.504774,45.4596129 L151.458581,45.4596129 L151.458581,38.1734194 L138.504774,38.1734194 L138.504774,27.6485161 L153.685161,27.6485161 L153.685161,20.7664516 L130.307613,20.7664516 L130.412387,63.4735484 Z" id="path0-path" fill="#2E97DE"></path>
                <path d="M183,7.50003019 L183,5 L184.230743,5.00893731 C185.940029,5.02143746 186.227263,5.10175244 186.552023,5.65809974 C187.034318,6.48437783 186.735417,7.39417143 185.852835,7.78656747 C185.775534,7.82092779 185.706557,7.86229302 185.699529,7.87853718 C185.687999,7.90504716 185.950604,8.33156198 186.367811,8.96405754 C186.451593,9.09111221 186.527871,9.21363785 186.537286,9.23640382 C186.546701,9.25910941 186.654636,9.43483617 186.777171,9.62686747 C186.899707,9.81889878 187,9.98140074 187,9.98804333 C187,9.99462554 186.726069,9.99963768 186.391281,9.99909419 L185.782629,9.99818838 L185.715699,9.87656856 C185.678925,9.80965954 185.636556,9.74347516 185.621614,9.72946533 C185.606604,9.7154555 185.571672,9.65869153 185.543972,9.60337685 C185.516204,9.54800179 185.483728,9.50271139 185.47172,9.50271139 C185.459712,9.50271139 185.396739,9.40947354 185.331719,9.29552289 C185.266699,9.18151185 185.118373,8.93911762 185.002183,8.75674827 C184.885925,8.5744393 184.769121,8.38428 184.742512,8.3342794 C184.715972,8.2842788 184.670806,8.22262346 184.642151,8.19726084 C184.613495,8.17189821 184.597189,8.14091958 184.60599,8.12835904 C184.614723,8.1157985 184.611039,8.10553268 184.597871,8.10553268 C184.584635,8.10553268 184.560074,8.07890192 184.543358,8.04629283 C184.514294,7.98989118 184.502081,7.98711337 184.284847,7.98711337 L184.056833,7.98711337 L184.056833,8.99358688 L184.056833,10 L183.528416,10 L183,10 L183,7.50003019 Z M184.997134,5.84258264 C184.892747,5.82301719 184.662141,5.80906774 184.438152,5.80882619 L184.056833,5.80846387 L184.056833,6.49518714 L184.056833,7.1819708 L184.492529,7.1819708 C185.302381,7.1819708 185.551409,7.03969855 185.577199,6.56227732 C185.601556,6.11166802 185.453708,5.92827208 184.997134,5.84258264 Z" id="Combined-Shape" fill="#404040"></path>
            </g>
        </g>
    </g>
</svg>