<?xml version="1.0" encoding="UTF-8"?>
<svg width="304px" height="64px" viewBox="0 0 304 64" version="1.1" xmlns="http://www.w3.org/2000/svg" xmlns:xlink="http://www.w3.org/1999/xlink">
    <!-- Generator: Sketch 53.2 (72643) - https://sketchapp.com -->
    <title>perfectmoney</title>
    <desc>Created with Sketch.</desc>
    <g id="Page-1" stroke="none" stroke-width="1" fill="none" fill-rule="evenodd">
        <g id="payments/logo/logo-perfect-money">
            <g id="perfectmoney">
                <path d="M159.462908,63.195877 L159.45098,61.8854544 C159.928084,62.0720912 160.419096,62.1654083 160.924031,62.1654083 C161.345472,62.1654083 161.635706,62.0482656 161.794741,61.8139768 C161.953775,61.5796879 162.033291,61.1587685 162.033291,60.5512058 L162.033291,52.8316251 L163.876095,52.8316251 L163.876095,60.3546424 C163.876095,61.4387248 163.655438,62.2190141 163.214117,62.6955338 C162.772796,63.1720535 162.051187,63.4103098 161.04927,63.4103098 C160.548311,63.4103098 160.019529,63.3388329 159.462908,63.195877 Z M171.24243,61.6471957 L171.24243,60.4142071 C170.669906,61.3354785 169.926431,61.7961074 169.011982,61.7961074 C168.42753,61.7961074 167.966337,61.6114587 167.628388,61.242156 C167.29044,60.8728532 167.121468,60.3685441 167.121468,59.7292134 L167.121468,55.1069954 L168.886743,55.1069954 L168.886743,59.2943914 C168.886743,60.0369679 169.135231,60.4082506 169.632214,60.4082506 C170.188835,60.4082506 170.725568,60.0131423 171.24243,59.2229138 L171.24243,55.1069954 L173.007705,55.1069954 L173.007705,61.6471957 L171.24243,61.6471957 Z M176.151694,61.4387194 L176.151694,60.1461661 C177.026384,60.5114979 177.773836,60.694161 178.39407,60.694161 C179.117678,60.694161 179.479476,60.4479629 179.479476,59.9555592 C179.479476,59.6378794 179.181291,59.3599137 178.584911,59.1216539 L177.988534,58.8833952 C177.340469,58.6213093 176.877287,58.3393727 176.598977,58.0375769 C176.320666,57.7357811 176.181513,57.3625129 176.181513,56.9177612 C176.181513,56.2982856 176.418074,55.8168093 176.891201,55.4733181 C177.364329,55.1298268 178.026301,54.9580837 178.877136,54.9580837 C179.409901,54.9580837 180.044042,55.035517 180.779577,55.1903859 L180.779577,56.4293309 C180.071873,56.1831291 179.485442,56.06003 179.020266,56.06003 C178.288707,56.06003 177.922933,56.2863735 177.922933,56.7390672 C177.922933,57.036892 178.193288,57.2890466 178.734005,57.4955385 L179.246889,57.6921019 C180.014231,57.9819847 180.547983,58.2758341 180.84816,58.5736589 C181.148338,58.8714837 181.298425,59.2546793 181.298425,59.723257 C181.298425,60.3387616 181.042979,60.8381071 180.532081,61.2213083 C180.021182,61.6045096 179.356229,61.7961074 178.537201,61.7961074 C177.74998,61.7961074 176.954819,61.6769792 176.151694,61.4387194 Z M187.716521,61.6114569 C187.29508,61.7345578 186.9631,61.7961074 186.720572,61.7961074 C185.189865,61.7961074 184.424522,61.0813385 184.424522,59.6517794 L184.424522,56.2089417 L183.690979,56.2089417 L183.690979,55.1069954 L184.424522,55.1069954 L184.424522,54.005049 L186.189797,53.8025292 L186.189797,55.1069954 L187.591282,55.1069954 L187.591282,56.2089417 L186.189797,56.2089417 L186.189797,59.4194772 C186.189797,60.2216187 186.517801,60.6226834 187.173819,60.6226834 C187.324901,60.6226834 187.505801,60.5948869 187.716521,60.5392929 L187.716521,61.6114569 Z M195.537187,64 L195.537187,55.1069954 L197.302462,55.1069954 L197.302462,56.3399839 C197.755711,55.4187125 198.469368,54.9580837 199.443454,54.9580837 C200.230675,54.9580837 200.849907,55.2459767 201.301168,55.8217714 C201.752428,56.397566 201.978055,57.1897681 201.978055,58.1984015 C201.978055,59.2943969 201.723604,60.1680032 201.214693,60.8192468 C200.705782,61.4704904 200.023932,61.7961074 199.169121,61.7961074 C198.481297,61.7961074 197.859083,61.5260836 197.302462,60.9860279 L197.302462,64 L195.537187,64 Z M197.302462,59.9376898 C197.731856,60.4142095 198.189073,60.6524658 198.674129,60.6524658 C199.107498,60.6524658 199.453393,60.4429988 199.711824,60.0240585 C199.970255,59.6051183 200.099469,59.0462088 200.099469,58.3473132 C200.099469,57.009087 199.668094,56.3399839 198.805331,56.3399839 C198.284493,56.3399839 197.783542,56.6755282 197.302462,57.3466268 L197.302462,59.9376898 Z M210.07197,61.4268064 C209.233063,61.6730083 208.437902,61.7961074 207.686464,61.7961074 C206.593101,61.7961074 205.730351,61.4863742 205.098189,60.8668986 C204.466027,60.2474229 204.14995,59.4016131 204.14995,58.3294438 C204.14995,57.3168394 204.43919,56.5018044 205.017678,55.8843143 C205.596166,55.2668241 206.360515,54.9580837 207.310746,54.9580837 C208.26893,54.9580837 208.968671,55.259875 209.409992,55.8634666 C209.851313,56.4670583 210.07197,57.4220688 210.07197,58.7285271 L206.010645,58.7285271 C206.129921,59.9754203 206.815747,60.5988576 208.068145,60.5988576 C208.660548,60.5988576 209.328483,60.4618602 210.07197,60.1878614 L210.07197,61.4268064 Z M205.98679,57.7337971 L208.336514,57.7337971 C208.336514,56.6179468 207.976704,56.06003 207.257072,56.06003 C206.525513,56.06003 206.10209,56.6179468 205.98679,57.7337971 Z M213.007227,61.6471957 L213.007227,55.1069954 L214.772502,55.1069954 L214.772502,56.3399839 C215.229726,55.4187125 215.925492,54.9580837 216.85982,54.9580837 C216.971144,54.9580837 217.080479,54.9699965 217.187827,54.9938225 L217.187827,56.5663297 C216.937348,56.4749967 216.704763,56.4293309 216.490067,56.4293309 C215.786339,56.4293309 215.213823,56.7847299 214.772502,57.4955385 L214.772502,61.6471957 L213.007227,61.6471957 Z M219.854715,61.6471957 L219.854715,56.2089417 L218.954187,56.2089417 L218.954187,55.1069954 L219.854715,55.1069954 L219.854715,54.6364345 C219.854715,52.9408185 220.659816,52.0930233 222.270041,52.0930233 C222.790879,52.0930233 223.327612,52.1684711 223.880257,52.319369 L223.880257,53.5106623 C223.379299,53.3001994 222.930033,53.1949696 222.532446,53.1949696 C221.924139,53.1949696 221.61999,53.6536129 221.61999,54.5709134 L221.61999,55.1069954 L223.277917,55.1069954 L223.277917,56.2089417 L221.61999,56.2089417 L221.61999,61.6471957 L219.854715,61.6471957 Z M231.175028,61.4268064 C230.33612,61.6730083 229.54096,61.7961074 228.789521,61.7961074 C227.696159,61.7961074 226.833409,61.4863742 226.201247,60.8668986 C225.569084,60.2474229 225.253008,59.4016131 225.253008,58.3294438 C225.253008,57.3168394 225.542248,56.5018044 226.120736,55.8843143 C226.699224,55.2668241 227.463573,54.9580837 228.413804,54.9580837 C229.371987,54.9580837 230.071729,55.259875 230.51305,55.8634666 C230.954371,56.4670583 231.175028,57.4220688 231.175028,58.7285271 L227.113703,58.7285271 C227.232979,59.9754203 227.918805,60.5988576 229.171202,60.5988576 C229.763606,60.5988576 230.431541,60.4618602 231.175028,60.1878614 L231.175028,61.4268064 Z M227.089848,57.7337971 L229.439572,57.7337971 C229.439572,56.6179468 229.079762,56.06003 228.36013,56.06003 C227.628571,56.06003 227.205148,56.6179468 227.089848,57.7337971 Z M238.940936,61.5042405 C238.209377,61.6988194 237.531502,61.7961074 236.907291,61.7961074 C235.861639,61.7961074 235.035666,61.4893524 234.429347,60.8758333 C233.823027,60.2623141 233.519872,59.4274244 233.519872,58.3711391 C233.519872,57.3029407 233.831973,56.4670583 234.456184,55.8634666 C235.080394,55.259875 235.943144,54.9580837 237.044458,54.9580837 C237.577224,54.9580837 238.191486,55.0434589 238.887262,55.2142118 L238.887262,56.4888956 C238.163655,56.2546068 237.585175,56.1374641 237.151806,56.1374641 C236.623016,56.1374641 236.197605,56.3399819 235.87556,56.7450237 C235.553515,57.1500654 235.392495,57.6881275 235.392495,58.3592261 C235.392495,59.0462087 235.566436,59.5961836 235.914324,60.0091674 C236.262212,60.4221511 236.726388,60.6286399 237.306864,60.6286399 C237.835654,60.6286399 238.380339,60.5134827 238.940936,60.2831648 L238.940936,61.5042405 Z M245.096627,61.6114569 C244.675185,61.7345578 244.343205,61.7961074 244.100678,61.7961074 C242.56997,61.7961074 241.804628,61.0813385 241.804628,59.6517794 L241.804628,56.2089417 L241.071085,56.2089417 L241.071085,55.1069954 L241.804628,55.1069954 L241.804628,54.005049 L243.569903,53.8025292 L243.569903,55.1069954 L244.971388,55.1069954 L244.971388,56.2089417 L243.569903,56.2089417 L243.569903,59.4194772 C243.569903,60.2216187 243.897906,60.6226834 244.553924,60.6226834 C244.705007,60.6226834 244.885906,60.5948869 245.096627,60.5392929 L245.096627,61.6114569 Z" id="Just-perfect" fill="#000000"></path>
                <g id="Group" transform="translate(283.137255, 0.000000)">
                    <ellipse id="Oval" fill="#F0230E" fill-rule="nonzero" cx="10.4313725" cy="10.4186047" rx="10.4313725" ry="10.4186047"></ellipse>
                    <path d="M4.82253703,7.42417029 L4.82253703,12.2602473 C4.82253703,13.3987856 4.84425005,13.5397475 5.5390667,13.61565 L5.83219248,13.6481797 C5.89733154,13.7023958 5.87561852,13.8867306 5.81047946,13.9192602 C5.19165838,13.8975738 4.83339354,13.8867306 4.39913313,13.8867306 C3.9431597,13.8867306 3.55232534,13.8975738 3.07463889,13.9192602 C3.00949982,13.8867306 2.9877868,13.713239 3.05292587,13.6481797 L3.28091258,13.61565 C3.91059017,13.5289042 3.93230319,13.3987856 3.93230319,12.2602473 L3.93230319,8.25909838 C3.93230319,7.33742451 3.91059017,7.15308974 3.42204721,7.09887363 L3.03121284,7.05550074 C2.95521727,6.99044141 2.96607378,6.82779308 3.05292587,6.78442019 C3.62832091,6.70851764 4.30142454,6.69767442 5.20251489,6.69767442 C6.10360523,6.69767442 6.77670887,6.81694986 7.28696485,7.1314033 C7.78636432,7.44585673 8.15548566,8.00970427 8.15548566,8.75788659 C8.15548566,9.75546301 7.53666458,10.2542512 7.06983464,10.4819589 C6.59214819,10.7096665 6.01675315,10.8072555 5.57163623,10.8072555 C5.49564066,10.7747259 5.49564066,10.6120775 5.56077972,10.5903911 C6.73328283,10.3735267 7.15668673,9.71209012 7.15668673,8.76872981 C7.15668673,7.71693728 6.53786564,7.0338143 5.40878858,7.0338143 C4.83339354,7.0338143 4.82253703,7.07718719 4.82253703,7.42417029 Z M11.4884343,8.48680604 L12.7260765,10.9915903 C12.9757762,11.5012217 13.2146194,12.00001 13.4751757,12.4771117 L13.4968887,12.4771117 C13.7900145,11.9674803 14.0614272,11.4036327 14.33284,10.8506284 L15.3533519,8.77957303 C15.8418949,7.79283984 16.1567337,7.19646263 16.1784467,6.69767442 C16.5475681,6.73020408 16.7755548,6.73020408 16.992685,6.73020408 C17.2640977,6.73020408 17.6223626,6.71936086 17.9589144,6.69767442 C18.0240534,6.74104731 18.0240534,6.92538208 17.9697709,6.96875497 L17.7417842,6.99044141 C17.057824,7.05550074 16.970972,7.26152196 16.9818285,8.0205475 C17.0035415,9.16992902 17.014398,11.1759251 17.1012501,12.737349 C17.1338196,13.2795101 17.1229631,13.5722771 17.6332191,13.61565 L17.9806274,13.6481797 C18.0457665,13.713239 18.03491,13.8758873 17.9589144,13.9192602 C17.5137975,13.8975738 17.0686805,13.8867306 16.6778462,13.8867306 C16.2978683,13.8867306 15.8093254,13.8975738 15.3642084,13.9192602 C15.2882129,13.8650441 15.2773564,13.713239 15.3424954,13.6481797 L15.6573342,13.61565 C16.1893032,13.5614339 16.1893032,13.3879424 16.1893032,12.6939762 L16.1567337,8.1723526 L16.1350207,8.1723526 C16.0590251,8.29162805 15.6464777,9.1590858 15.4293475,9.58197146 L14.4631181,11.4795353 C13.9745751,12.4337388 13.4860322,13.4530017 13.290615,13.9517899 C13.268902,13.9843196 13.2254759,13.9951628 13.1820499,13.9951628 C13.1603369,13.9951628 13.1060543,13.9843196 13.0843413,13.9517899 C12.8997806,13.3770991 12.3786681,12.3144634 12.1289684,11.7831455 L11.1518825,9.69040368 C10.9238958,9.19161547 10.6959091,8.62776793 10.4570658,8.12897972 L10.4353528,8.12897972 C10.3919268,8.80125948 10.3593572,9.43016635 10.3267877,10.0590732 C10.2942182,10.7205098 10.2507921,11.6855565 10.2507921,12.6072304 C10.2507921,13.4096288 10.3159312,13.5831204 10.7393351,13.61565 L11.1518825,13.6481797 C11.2278781,13.713239 11.2170215,13.8867306 11.141026,13.9192602 C10.7719046,13.8975738 10.3485007,13.8867306 9.93595334,13.8867306 C9.58854501,13.8867306 9.19771065,13.8975738 8.8285893,13.9192602 C8.76345024,13.8650441 8.74173722,13.7023958 8.80687628,13.6481797 L9.0457195,13.61565 C9.50169293,13.5505907 9.65368407,13.4855314 9.71882314,12.7265058 C9.7839622,12.0108532 9.83824475,11.414476 9.90338381,10.340997 C9.95766636,9.44100957 10.0010924,8.51933571 10.0228054,7.9229585 C10.0445184,7.23983552 9.95766636,7.07718719 9.29541924,6.99044141 L9.12171507,6.96875497 C9.06743252,6.90369564 9.07828903,6.74104731 9.16514111,6.69767442 C9.49083642,6.71936086 9.75139267,6.73020408 10.0228054,6.73020408 C10.2725052,6.73020408 10.5656309,6.73020408 10.9238958,6.69767442 C10.8804697,7.12056007 11.1518825,7.79283984 11.4884343,8.48680604 Z" id="PM" fill="#FFFFFF"></path>
                </g>
                <path d="M9.05454478,16.4989134 C9.05454478,22.7291253 9.05454478,27.4017843 9.05454478,30.5168902 C9.05454478,31.1923422 9.05454478,31.9958328 9.05454478,32.927362 C9.05454478,33.9443981 9.05454478,35.8133545 9.05454478,38.5342314 C9.05454478,43.7219184 9.15347896,44.3642034 12.3193727,44.7100492 L13.6549841,44.8582688 C13.9517867,45.1053016 13.8528525,45.9452128 13.5560499,46.0934324 C10.7364258,45.9946193 9.10401187,45.9452128 7.12532828,45.9452128 C5.04771051,45.9452128 3.26689528,45.9946193 1.09034333,46.0934324 C0.793540795,45.9452128 0.694606616,45.1547081 0.991409154,44.8582688 L2.03021804,44.7100492 C4.89930924,44.3147969 4.99824342,43.7219184 4.99824342,38.5342314 C4.99824342,35.755188 4.99824342,33.8525436 4.99824342,32.8262981 C4.99824342,31.9652296 4.99824342,31.2178263 4.99824342,30.5840881 C4.99824342,28.2994502 4.99824342,24.8724932 4.99824342,20.3032172 C4.99824342,16.1036611 4.89930924,15.2637499 2.67329021,15.0167172 L0.892474975,14.819091 C0.546205346,14.5226517 0.595672436,13.7815536 0.991409154,13.5839274 C3.61316491,13.2380816 6.68012447,13.1886751 10.7858929,13.1886751 C14.8916614,13.1886751 17.9586209,13.7321471 20.2835742,15.1649368 C22.5590603,16.5977265 24.2409413,19.1668667 24.2409413,22.5759182 C24.2409413,27.1213201 21.4213172,29.394021 19.2942324,30.4315584 C17.1176804,31.4690958 14.4959247,31.9137547 12.467774,31.9137547 C12.1215043,31.7655351 12.1215043,31.0244369 12.4183069,30.9256239 C17.7607526,29.937493 19.6899691,26.9236939 19.6899691,22.6253247 C19.6899691,17.8328901 16.870345,14.7202779 11.7257676,14.7202779 M38.7347986,33.2971379 L29.583387,33.2971379 C28.2972427,33.2971379 28.2477756,33.395951 28.2477756,34.6311145 C28.2477756,39.6211753 31.1663339,43.870138 36.4593125,43.870138 C38.0917265,43.870138 39.476805,43.3760726 41.0102848,41.4492174 C41.5049557,41.3009978 41.8512253,41.597437 41.9006924,42.0420959 C40.2682784,45.4017408 36.7066479,46.6369044 34.1343593,46.6369044 C30.9189984,46.6369044 28.3961769,45.2535212 26.9616313,43.3760726 C25.4776186,41.4492174 24.8840135,39.1271099 24.8840135,36.953222 C24.8840135,30.8762173 28.8908478,25.7873434 34.8268985,25.7873434 C39.0810683,25.7873434 41.8512253,28.7023294 41.8512253,31.666722 C41.8512253,32.3584136 41.7522911,32.7536659 41.6533569,32.9512921 C41.5049557,33.2477314 40.8124164,33.2971379 38.7347986,33.2971379 Z M29.1381832,31.8149416 L32.6503466,31.8149416 C36.3109112,31.8149416 37.3991872,31.6173154 37.7949239,31.3208762 C37.9433252,31.2220631 38.0917265,31.0244369 38.0917265,30.3821519 C38.0917265,28.9987687 37.1518518,27.2695397 34.2827605,27.2695397 C31.3642023,27.2695397 28.8413807,29.937493 28.7919136,31.5679089 C28.7919136,31.666722 28.7919136,31.8149416 29.1381832,31.8149416 Z M47.5894077,40.41168 L47.5894077,31.7655351 C47.5894077,29.8386799 47.5894077,29.5916472 46.2537963,28.7023294 L45.8085925,28.4058902 C45.6107241,28.208264 45.6107241,27.664792 45.8580595,27.5165724 C46.9958026,27.1213201 49.6175584,25.83675 50.8542356,25.0956518 C51.1015711,25.1450584 51.2499723,25.2438715 51.2499723,25.4414976 L51.2499723,28.3070771 C51.2499723,28.5541098 51.2994394,28.7023294 51.3983736,28.751736 C53.1297217,27.3189463 55.0094712,25.7873434 56.8397535,25.7873434 C58.0764307,25.7873434 59.0657725,26.5778481 59.0657725,27.7636051 C59.0657725,29.394021 57.7301611,30.0363061 56.9386877,30.0363061 C56.4440168,30.0363061 56.1966813,29.8880865 55.8504117,29.6904603 C55.1084053,29.1963949 54.366399,28.8999556 53.6738597,28.8999556 C52.8823863,28.8999556 52.2887812,29.3446145 51.8930445,29.8880865 C51.3983736,30.5797781 51.2499723,32.0125678 51.2499723,33.6923902 L51.2499723,40.41168 C51.2499723,43.9689511 51.3489065,44.5618296 53.2286559,44.7100492 L55.0094712,44.8582688 C55.3557408,45.1053016 55.2568066,45.9452128 54.910537,46.0934324 C52.5855838,45.9946193 51.1510382,45.9452128 49.41969,45.9452128 C47.6388748,45.9452128 46.1548621,45.9946193 44.8687178,46.0934324 C44.5224481,45.9452128 44.4235139,45.1053016 44.7697836,44.8582688 L45.7096583,44.7100492 C47.5399406,44.41361 47.5894077,43.9689511 47.5894077,40.41168 Z M74.0543007,28.5541098 L68.7613221,28.5541098 C67.9203816,28.5541098 67.9203816,28.6529229 67.9203816,29.9868995 L67.9203816,40.41168 C67.9203816,43.9689511 68.0193158,44.5618296 69.800131,44.7100492 L71.5809462,44.8582688 C71.9272158,45.1053016 71.8282817,45.9452128 71.482012,46.0934324 C69.255993,45.9946193 67.8214474,45.9452128 66.0900993,45.9452128 C64.309284,45.9452128 62.8252713,45.9946193 61.3412586,46.0934324 C60.994989,45.9452128 60.8960548,45.1053016 61.2423245,44.8582688 L62.3800675,44.7100492 C64.2103498,44.4630165 64.2598169,43.9689511 64.2598169,40.41168 L64.2598169,29.9868995 C64.2598169,28.6529229 64.2598169,28.5541098 63.2704751,28.5541098 L61.539127,28.5541098 C61.2423245,28.3564836 61.1928574,27.9118248 61.3907257,27.6153855 L63.5178106,26.5778481 C63.9135473,26.3802219 64.2598169,26.0837827 64.2598169,25.5897173 C64.2598169,22.7241378 64.6060866,19.6609322 65.7932967,16.8941658 C67.029974,14.0779929 69.800131,10.6195349 74.6973729,10.6195349 C77.3191286,10.6195349 79.5451477,11.8052919 79.5451477,13.5839274 C79.5451477,14.5720583 78.605273,15.362563 77.6653983,15.362563 C77.1212603,15.362563 76.8244577,15.1649368 76.4781881,14.7696845 C75.5383134,13.6827405 74.1532349,12.5957966 72.5208209,12.5957966 C70.9873411,12.5957966 69.7506639,13.5345209 69.0086575,15.3131564 C68.1182499,17.5858574 67.9203816,21.192535 67.9203816,23.6628621 L67.9203816,25.0956518 C67.9203816,26.4296285 67.9203816,26.479035 68.7613221,26.479035 L74.4005703,26.479035 C74.9447083,26.9731005 74.5984387,28.3564836 74.0543007,28.5541098 Z M89.4880327,33.2971379 L80.3366211,33.2971379 C79.0504768,33.2971379 79.0010097,33.395951 79.0010097,34.6311145 C79.0010097,39.6211753 81.919568,43.870138 87.2125466,43.870138 C88.8449605,43.870138 90.230039,43.3760726 91.7635188,41.4492174 C92.2581897,41.3009978 92.6044594,41.597437 92.6539264,42.0420959 C91.0215125,45.4017408 87.459882,46.6369044 84.8875934,46.6369044 C81.6722325,46.6369044 79.1494109,45.2535212 77.7148653,43.3760726 C76.2308526,41.4492174 75.6372476,39.1271099 75.6372476,36.953222 C75.6372476,30.8762173 79.6440818,25.7873434 85.5801326,25.7873434 C89.8343023,25.7873434 92.6044594,28.7023294 92.6044594,31.666722 C92.6044594,32.3584136 92.5055252,32.7536659 92.406591,32.9512921 C92.2581897,33.2477314 91.5656505,33.2971379 89.4880327,33.2971379 Z M79.8914173,31.8149416 L83.4035807,31.8149416 C87.0641453,31.8149416 88.1524213,31.6173154 88.548158,31.3208762 C88.6965593,31.2220631 88.8449605,31.0244369 88.8449605,30.3821519 C88.8449605,28.9987687 87.9050858,27.2695397 85.0359946,27.2695397 C82.1174363,27.2695397 79.5946148,29.937493 79.5451477,31.5679089 C79.5451477,31.666722 79.5451477,31.8149416 79.8914173,31.8149416 Z M107.246718,25.7873434 C108.384461,25.7873434 110.313677,26.0343761 111.649289,26.6272547 C112.045026,26.9731005 112.391295,27.7636051 112.391295,28.6035164 C112.391295,29.4928341 111.896624,30.4315584 111.303019,30.4315584 C111.055684,30.4315584 110.808348,30.3327453 110.61048,30.0857126 C109.522204,28.751736 107.691922,27.4671659 105.663771,27.4671659 C102.201075,27.4671659 98.8373127,30.1845257 98.8373127,35.4216192 C98.8373127,39.2753295 101.508536,43.870138 106.801514,43.870138 C109.670605,43.870138 111.154618,42.5855679 112.292361,40.9057454 C112.688098,40.8069324 113.133302,41.1527782 113.182769,41.597437 C111.500888,45.2535212 107.790856,46.6369044 104.921765,46.6369044 C102.300009,46.6369044 99.8761215,45.7969931 98.1447734,44.1171707 C96.4134253,42.4373483 95.2756822,40.0164277 95.2756822,36.8050024 C95.2756822,31.4690958 99.035181,25.7873434 107.246718,25.7873434 Z M127.77556,28.5541098 L122.185779,28.5541098 C121.344838,28.5541098 121.295371,28.7023294 121.295371,29.7398668 L121.295371,38.9788903 C121.295371,41.8444697 121.641641,44.4630165 124.906469,44.4630165 C125.40114,44.4630165 125.846344,44.3642034 126.24208,44.2159838 C126.687284,44.0677642 127.330356,43.5242922 127.478758,43.5242922 C127.874494,43.5242922 128.072363,44.0677642 127.973429,44.3642034 C127.083021,45.4017408 125.302206,46.6369044 122.779384,46.6369044 C118.525214,46.6369044 117.634807,44.2653903 117.634807,41.3009978 L117.634807,29.9868995 C117.634807,28.6529229 117.58534,28.5541098 116.595998,28.5541098 L115.210919,28.5541098 C114.914117,28.3564836 114.86465,27.8130117 115.062518,27.5165724 C116.497064,27.0719135 117.733741,26.4296285 118.228412,25.9849696 C118.871484,25.3920911 119.811359,24.0581144 120.30603,23.0699836 C120.553365,22.9711705 121.14697,22.9711705 121.344838,23.3170163 L121.344838,25.5403107 C121.344838,26.4296285 121.394306,26.479035 122.235246,26.479035 L127.726093,26.479035 C128.319698,26.9236939 128.220764,28.2576706 127.77556,28.5541098 Z M154.438322,21.3407546 L160.07757,32.7536659 C161.215313,35.0757734 162.303589,37.3484744 163.490799,39.5223623 L163.589733,39.5223623 C164.925345,37.2002548 166.162022,34.6311145 167.398699,32.1113809 L172.048605,22.6747313 C174.274625,18.1787359 175.70917,15.461376 175.808104,13.1886751 C177.489985,13.3368947 178.528794,13.3368947 179.518136,13.3368947 C180.754813,13.3368947 182.387227,13.2874882 183.920707,13.1886751 C184.21751,13.3863013 184.21751,14.2262125 183.970174,14.4238387 L182.931365,14.5226517 C179.814939,14.819091 179.419202,15.7578153 179.468669,19.2162733 C179.567603,24.4533668 179.61707,33.5935771 180.012807,40.7081193 C180.161208,43.1784464 180.111741,44.512423 182.436694,44.7100492 L184.019641,44.8582688 C184.316444,45.1547081 184.266977,45.8958062 183.920707,46.0934324 C181.892556,45.9946193 179.864406,45.9452128 178.08359,45.9452128 C176.352242,45.9452128 174.126223,45.9946193 172.098073,46.0934324 C171.751803,45.8463997 171.702336,45.1547081 171.999138,44.8582688 L173.433684,44.7100492 C175.857571,44.4630165 175.857571,43.6725118 175.857571,40.5104931 L175.70917,19.9079649 L175.610236,19.9079649 C175.263966,20.4514368 173.384217,24.4039602 172.394875,26.3308154 L167.992304,34.9769603 C165.766285,39.3247361 163.540266,43.9689511 162.649858,46.241652 C162.550924,46.3898717 162.353056,46.4392782 162.155188,46.4392782 C162.056253,46.4392782 161.808918,46.3898717 161.709984,46.241652 C160.869043,43.6231053 158.494623,38.7812641 157.35688,36.3603435 L152.904842,26.8248808 C151.866033,24.5521799 150.827224,21.9830397 149.738948,19.7103387 L149.640014,19.7103387 C149.442145,22.7735443 149.293744,25.6391238 149.145343,28.5047033 C148.996942,31.5185024 148.799073,35.9156846 148.799073,40.1152408 C148.799073,43.7713249 149.095876,44.5618296 151.025092,44.7100492 L152.904842,44.8582688 C153.251111,45.1547081 153.201644,45.9452128 152.855375,46.0934324 C151.173494,45.9946193 149.244277,45.9452128 147.364528,45.9452128 C145.781581,45.9452128 144.000766,45.9946193 142.318885,46.0934324 C142.022082,45.8463997 141.923148,45.1053016 142.21995,44.8582688 L143.308226,44.7100492 C145.385844,44.41361 146.078383,44.1171707 146.375186,40.6587127 C146.671988,37.3978809 146.919324,34.6805211 147.216126,29.7892734 C147.463462,25.6885303 147.66133,21.4889742 147.760264,18.7716144 C147.859199,15.6590022 147.463462,14.9179041 144.445969,14.5226517 L143.654496,14.4238387 C143.407161,14.1273994 143.456628,13.3863013 143.852364,13.1886751 C145.336377,13.2874882 146.523587,13.3368947 147.760264,13.3368947 C148.898007,13.3368947 150.233619,13.3368947 151.866033,13.1886751 C151.668165,15.1155303 152.904842,18.1787359 154.438322,21.3407546 Z M197.029486,25.7873434 C202.5698,25.7873434 207.071305,29.937493 207.071305,36.0144977 C207.071305,42.1903155 202.817135,46.6369044 196.633749,46.6369044 C190.945034,46.6369044 186.492996,42.6349744 186.492996,36.4591566 C186.492996,30.2339323 191.192369,25.7873434 197.029486,25.7873434 Z M202.817135,36.8050024 C202.817135,32.6054463 201.135254,27.2695397 196.435881,27.2695397 C193.171053,27.2695397 190.747165,30.3821519 190.747165,35.8168716 C190.747165,40.3128669 192.775316,45.1547081 197.12842,45.1547081 C201.481524,45.1547081 202.817135,40.6093062 202.817135,36.8050024 Z M213.650428,40.41168 L213.650428,31.7655351 C213.650428,29.8386799 213.650428,29.5916472 212.314817,28.7023294 L211.869613,28.4058902 C211.671744,28.208264 211.671744,27.664792 211.91908,27.5165724 C213.056823,27.1213201 215.876447,25.83675 216.865789,25.0956518 C217.063657,25.0956518 217.310993,25.1944649 217.409927,25.4414976 C217.310993,26.5778481 217.310993,27.3189463 217.310993,27.7636051 C217.310993,28.0600444 217.508861,28.3070771 217.855131,28.3070771 C219.932748,27.022507 222.257702,25.7873434 224.780523,25.7873434 C228.886292,25.7873434 230.568173,28.6035164 230.568173,31.9137547 L230.568173,40.41168 C230.568173,43.9689511 230.667107,44.4630165 232.447922,44.7100492 L233.536198,44.8582688 C233.882468,45.1053016 233.783533,45.9452128 233.437264,46.0934324 C231.953251,45.9946193 230.518706,45.9452128 228.787357,45.9452128 C227.006542,45.9452128 225.522529,45.9946193 224.186918,46.0934324 C223.840648,45.9452128 223.741714,45.1053016 224.087984,44.8582688 L225.027859,44.7100492 C226.858141,44.41361 226.907608,43.9689511 226.907608,40.41168 L226.907608,33.0501052 C226.907608,30.2339323 225.621464,28.1588575 222.257702,28.1588575 C220.377952,28.1588575 218.745538,28.9493622 218.052999,29.8880865 C217.409927,30.7279977 217.310993,31.4196893 217.310993,32.852479 L217.310993,40.41168 C217.310993,43.9689511 217.409927,44.41361 219.190742,44.7100492 L220.08115,44.8582688 C220.427419,45.1053016 220.328485,45.9452128 219.982215,46.0934324 C218.646604,45.9946193 217.212058,45.9452128 215.48071,45.9452128 C213.699895,45.9452128 212.215882,45.9946193 210.830804,46.0934324 C210.484534,45.9452128 210.3856,45.1053016 210.73187,44.8582688 L211.770679,44.7100492 C213.600961,44.4630165 213.650428,43.9689511 213.650428,40.41168 Z M250.355009,33.2971379 L241.203597,33.2971379 C239.917453,33.2971379 239.867986,33.395951 239.867986,34.6311145 C239.867986,39.6211753 242.786544,43.870138 248.079522,43.870138 C249.711936,43.870138 251.097015,43.3760726 252.630495,41.4492174 C253.125166,41.3009978 253.471435,41.597437 253.520902,42.0420959 C251.888488,45.4017408 248.326858,46.6369044 245.754569,46.6369044 C242.539208,46.6369044 240.016387,45.2535212 238.581841,43.3760726 C237.097828,41.4492174 236.504223,39.1271099 236.504223,36.953222 C236.504223,30.8762173 240.511058,25.7873434 246.447108,25.7873434 C250.701278,25.7873434 253.471435,28.7023294 253.471435,31.666722 C253.471435,32.3584136 253.372501,32.7536659 253.273567,32.9512921 C253.125166,33.2477314 252.432626,33.2971379 250.355009,33.2971379 Z M240.758393,31.8149416 L244.270556,31.8149416 C247.931121,31.8149416 249.019397,31.6173154 249.415134,31.3208762 C249.563535,31.2220631 249.711936,31.0244369 249.711936,30.3821519 C249.711936,28.9987687 248.772062,27.2695397 245.90297,27.2695397 C242.984412,27.2695397 240.461591,29.937493 240.412123,31.5679089 C240.412123,31.666722 240.412123,31.8149416 240.758393,31.8149416 Z M257.725605,58.2474419 C256.291059,58.2474419 255.549053,57.3581241 255.549053,56.1229605 C255.549053,54.7889839 256.439461,54.1466988 257.527737,54.1466988 L258.467611,54.1466988 C259.259085,54.1466988 259.753756,53.800853 260.100025,53.2573811 C261.534571,51.0340867 262.523913,48.9590119 262.969116,47.7732548 C263.117518,47.3780025 263.463787,46.3404651 263.463787,45.6487735 C263.463787,44.6606427 263.265919,44.0677642 262.622847,42.2397221 L258.764414,31.666722 C257.923473,29.3446145 257.577204,28.1588575 255.845855,27.8130117 L254.609178,27.565979 C254.312376,27.3189463 254.361843,26.479035 254.75758,26.3308154 C256.340526,26.4296285 257.824539,26.479035 259.456953,26.479035 C260.792564,26.479035 262.177643,26.4296285 263.76059,26.3308154 C264.156327,26.479035 264.205794,27.3189463 263.859524,27.565979 L262.622847,27.8130117 C261.930308,27.9612313 261.534571,28.1094509 261.534571,28.4552967 C261.534571,29.0481752 262.672314,32.2596005 262.969116,33.0995117 L264.552063,37.6449136 C264.848866,38.4354183 265.788741,41.0539651 265.986609,41.1527782 C266.13501,41.0539651 266.926484,39.5223623 267.816891,37.496694 L269.498772,33.5935771 C270.587048,31.0244369 271.23012,29.1963949 271.23012,28.6529229 C271.23012,28.3070771 270.933318,27.9612313 270.04291,27.8130117 L268.50943,27.565979 C268.163161,27.3189463 268.212628,26.479035 268.608365,26.3308154 C270.191312,26.4296285 271.675324,26.479035 272.961469,26.479035 C274.198146,26.479035 275.335889,26.4296285 276.720967,26.3308154 C277.116704,26.5284416 277.166171,27.2695397 276.819902,27.565979 L275.978961,27.7141986 C274.346547,28.0106378 273.456139,29.4434276 271.774258,32.9512921 L269.004101,38.6330445 C267.371687,41.9432828 263.315386,50.5400212 260.891499,55.9253344 C260.050558,57.802783 258.863348,58.2474419 257.725605,58.2474419 Z" id="Perfect-Money" fill="#F0230E"></path>
            </g>
        </g>
    </g>
</svg>