<svg width="446" height="485" fill="none" xmlns="http://www.w3.org/2000/svg"><path d="M102.642 348.474l77.854-131.364 92.328-65.766 53.899-77.92-14.806-14.318L394.263 0l-32.605 107.056-14.972-14.485-61.053 88.409-90.165 64.267-78.187 131.864-114.287 77.92L0 418.569l102.642-70.095z" fill="#fff"/><path d="M361.658 107.056l-14.806-14.485 51.737 29.969 14.805 14.319-51.736-29.803z" fill="#FBB834"/><path d="M154.378 378.277l77.855-131.198 92.327-65.766 54.066-77.919-14.972-14.486L446 29.97l-32.606 106.89-14.805-14.319-61.219 88.409-90.165 64.267-78.187 131.698L54.731 485l-2.994-36.629 102.641-70.094z" fill="url(#paint0_linear)"/><path d="M0 418.568l2.994 36.463L54.731 485l-2.994-36.629L0 418.568z" fill="#FBB834"/><path d="M0 418.568l102.642-70.094 51.736 29.802-102.641 70.095L0 418.568z" fill="#FCCD41"/><path d="M180.496 217.109l-77.854 131.365 51.736 29.803 77.855-131.199-51.737-29.969z" fill="#FBB834"/><path d="M180.496 217.11l92.328-65.766 51.736 29.969-92.327 65.766-51.737-29.969z" fill="#FCCD41"/><path d="M326.723 73.424l-53.899 77.92 51.736 29.969 54.066-77.92-51.903-29.969z" fill="#FCC636"/><path d="M326.723 73.424l-14.806-14.318 51.737 29.802 14.972 14.485-51.903-29.969z" fill="#FBB834"/><path d="M394.263 0l-82.346 59.106 51.737 29.802L446 29.97 394.263 0z" fill="#FDE849"/><defs><linearGradient id="paint0_linear" x1="51.765" y1="257.446" x2="446.021" y2="257.446" gradientUnits="userSpaceOnUse"><stop stop-color="#FBB834"/><stop offset="1" stop-color="#FDE849"/></linearGradient></defs></svg>