<svg width="323" height="236" fill="none" xmlns="http://www.w3.org/2000/svg"><path d="M321.268 156.125l-.023-1.075c-6.878 5.793-15.137 10.002-22.846 14.738-19.674 11.981-40.43 23.716-60.104 35.698-5.315 3.339-9.536 7.462-14.862 10.265-9.852 5.318-20.477-.369-29.985-4.198-3.529-1.269-5.213-4.459-8.489-6.539-4.096-2.601-9.497-3.292-13.587-5.624-14.429-7.219-28.073-15.53-42.238-23.023-16.348-8.791-32.701-17.85-49.054-26.91-11.72-6.47-23.709-12.934-35.428-19.405-11.175-6.213-23.146-11.871-33.806-19.17-2.733-1.824-7.613-3.332-7.693-7.094l-.87 9.696c.069 3.225 7.985 8.164 17.522 13.336 0 0 173.1 97.111 173.913 97.363.269-.006 11.731 7.008 18.999 6.852 5.923-.127 12.836-4.307 17.624-7.098 7.978-4.741 81.083-49.589 86.661-53.203 3.19-1.95 4.244-3.048 3.895-6.805.211-2.692.154-5.38.371-7.804z" fill="url(#paint0_linear)"/><path d="M303.998 141.977c11.989 6.465 21.514 11.1 14.882 15.812l-99.697 60.741c-7.182 4.186-16.187-1.267-28.175-7.731l-171.69-94.184c-11.99-6.465-20.18-11.666-14.883-15.812l99.967-60.747c7.422-5.535 16.186 1.267 28.175 7.732l171.421 94.189z" fill="url(#paint1_linear)"/><path d="M284.5 137.018c10.632 5.956 19.613 10.334 13.502 14.228l-90.396 54.896c-6.644 4.175-14.566-1.032-25.466-6.982L26.803 114.035c-10.63-5.956-19.314-8.996-13.501-14.228l90.39-55.165c7.165-4.993 14.565 1.032 25.466 6.982L284.5 137.018z" fill="#fff"/><path d="M268.438 179.301c2.726 1.554 2.778 3.973.121 5.643-2.658 1.67-6.965 1.762-9.961.213-2.726-1.555-2.778-3.973-.121-5.643 2.658-1.67 7.234-1.768 9.961-.213z" fill="url(#paint2_linear)"/><path d="M100.618 64.602c.544.257-9.548 6.925-22.572 15L52.525 95.204c-13.03 7.806-23.935 14.223-24.48 13.965l-5.177-2.846c-.544-.257 9.547-6.925 22.571-15L70.961 75.72c13.03-7.806 23.934-14.223 24.479-13.966l5.178 2.847zm23.724 1.105c.544.258-11.145 7.766-26.031 16.957l-29.244 17.831c-14.886 9.191-27.394 16.179-27.939 15.922l-5.447-2.841c-.544-.257 11.146-7.766 26.031-16.956l29.244-17.832c14.886-9.19 27.395-16.178 27.939-15.921l5.447 2.84zm120.356 61.409c.275.263-5.567 4.152-13.546 8.893l-15.154 9.196c-7.709 4.735-14.365 8.372-14.64 8.109l-3.539-1.806c-.275-.263 5.567-4.152 13.545-8.893l15.155-9.196c7.709-4.735 14.364-8.372 14.639-8.109l3.54 1.806zm.539 12.624c.275.263-4.238 3.317-10.355 6.943l-11.964 7.245c-6.117 3.626-11.175 6.423-11.444 6.429l-3.271-1.812c-.275-.263 4.239-3.317 10.356-6.943l11.964-7.246c6.117-3.626 11.174-6.422 11.444-6.428l3.27 1.812zm19.652-.421c.275.263-5.567 4.152-13.282 8.619l-14.885 9.19c-7.71 4.735-14.096 8.367-14.371 8.104l-3.534-1.538c-.275-.263 5.567-4.151 13.282-8.618l14.886-9.19c7.709-4.736 14.095-8.367 14.37-8.104l3.534 1.537zm-94.611-3.621c6.267 3.361 5.328 9.833-2.118 14.294l-14.353 8.91c-7.445 4.461-18.471 5.235-24.737 1.874l-62.95-34.409c-6.267-3.361-5.328-9.833 2.117-14.294l14.353-8.91c7.446-4.46 18.466-5.503 24.738-1.873l62.95 34.408zm47.876-28.177c6.266 3.361 5.327 9.833-2.118 14.294l-14.353 8.91c-7.446 4.46-18.466 5.503-24.738 1.873l-62.956-34.677c-6.266-3.361-5.328-9.833 2.118-14.294l14.353-8.91c7.446-4.461 18.466-5.503 24.738-1.874l62.956 34.678zm5.687 64.4c2.996 1.549.665 5.9-5.183 9.52l-11.431 6.966c-5.848 3.62-13.088 5.119-16.089 3.301l-30.794-16.815c-2.996-1.549-.665-5.901 5.183-9.521l11.432-6.965c5.847-3.62 13.087-5.119 16.089-3.302l30.793 16.816z" fill="#E5E5E5"/><path d="M129.95 76.072c.161 7.524-5.09 13.82-11.551 13.958-6.461.138-11.977-5.927-12.138-13.451-.161-7.524 5.09-13.82 11.551-13.958 6.461-.139 11.977 5.927 12.138 13.45zM150.889 60.3c.161 7.524-5.09 13.82-11.551 13.958-6.461.138-11.977-5.927-12.138-13.451-.161-7.524 5.091-13.82 11.551-13.958 6.467.13 11.977 5.927 12.138 13.451zm23.97-12.61c.161 7.524-5.091 13.82-11.552 13.957-6.461.139-11.977-5.927-12.138-13.45-.161-7.525 5.091-13.82 11.552-13.959 6.466.13 11.977 5.927 12.138 13.451z" fill="#fff"/><path d="M176.35 4.105c3.992-2.236 8.059-.979 8.151 3.32l1.333 49.708c.098 4.568-4.066 11.378-7.789 13.608L142.684 92.2l-34.539 47.248-5.077-23.28-1.065.56c-3.993 2.236-7.538.162-7.636-4.407l-1.333-49.707c-.098-4.568 3.281-10.286 6.998-12.785L176.35 4.105zm-37.964 63.452c3.454-2.224 6.312-7.125 6.22-11.424-.086-4.03-3.088-5.848-6.542-3.624-3.453 2.225-6.305 7.394-6.219 11.425.092 4.3 3.088 5.848 6.541 3.623zm-21.535 13.097c3.454-2.225 6.312-7.125 6.22-11.425-.087-4.03-3.088-5.848-6.542-3.623-3.453 2.224-6.305 7.393-6.219 11.424-.177 4.305 2.819 5.854 6.541 3.624zm43.34-26.199c3.453-2.224 6.311-7.125 6.219-11.424-.086-4.03-3.088-5.849-6.541-3.624-3.454 2.225-6.306 7.394-6.22 11.425-.177 4.305 2.819 5.854 6.542 3.623z" fill="url(#paint3_linear)"/><defs><linearGradient id="paint0_linear" x1="327.382" y1="197.465" x2="-27.261" y2="148.781" gradientUnits="userSpaceOnUse"><stop stop-color="#FBE75D"/><stop offset=".953" stop-color="#F9C54C"/></linearGradient><linearGradient id="paint1_linear" x1="3.37" y1="132.313" x2="320.573" y2="125.525" gradientUnits="userSpaceOnUse"><stop offset="0" stop-color="#FBE75D"/><stop offset=".953" stop-color="#F9C54C"/></linearGradient><linearGradient id="paint2_linear" x1="256.598" y1="182.464" x2="270.526" y2="182.166" gradientUnits="userSpaceOnUse"><stop stop-color="#FBE75D"/><stop offset=".953" stop-color="#F9C54C"/></linearGradient><linearGradient id="paint3_linear" x1="93.487" y1="72.29" x2="186.212" y2="70.306" gradientUnits="userSpaceOnUse"><stop stop-color="#F9C54C"/><stop offset=".217" stop-color="#F9CD50"/><stop offset="1" stop-color="#FBE75D"/></linearGradient></defs></svg>