<svg width="715" height="632" fill="none" xmlns="http://www.w3.org/2000/svg"><g filter="url(#filter0_d)"><path d="M390 341.149l76.875-40.822 76.874 40.822-76.874 40.822L390 341.149z" fill="#E5E5E5"/></g><path d="M467.126 382.035L544 341.213V86.822l-76.874 40.822v254.391z" fill="url(#paint0_linear)"/><path d="M467.126 382.035l-76.875-40.822V86.822l76.875 40.822v254.391z" fill="#fff"/><path d="M390.251 86.822L467.126 46 544 86.822l-76.874 40.822-76.875-40.822z" fill="#E5E5E5"/><g filter="url(#filter1_d)"><path d="M277 400.829l76.875-40.822 76.874 40.822-76.874 40.822L277 400.829z" fill="#E5E5E5"/></g><path d="M353.708 442.023l76.875-40.822v-98.57l-76.875 40.822v98.57z" fill="url(#paint1_linear)"/><path d="M353.708 442.023l-76.874-40.822v-98.57l76.874 40.822v98.57z" fill="#fff"/><path d="M276.834 302.631l76.874-40.822 76.875 40.822-76.875 40.822-76.874-40.822z" fill="#E5E5E5"/><g filter="url(#filter2_d)"><path d="M163 461.427l76.875-40.822 76.874 40.822-76.874 40.822L163 461.427z" fill="#E5E5E5"/></g><path d="M240.292 502.012l76.874-40.822v-30.866l-76.874 40.822v30.866z" fill="url(#paint2_linear)"/><path d="M240.292 502.012l-76.875-40.822v-30.866l76.875 40.822v30.866z" fill="#fff"/><path d="M163.417 430.324l76.874-40.822 76.875 40.822-76.875 40.822-76.874-40.822z" fill="#E5E5E5"/><g filter="url(#filter3_d)"><path d="M50 521.107l76.875-40.822 76.874 40.822-76.874 40.822L50 521.107z" fill="#E5E5E5"/></g><path d="M126.875 562l76.874-40.822v-15.433l-76.874 40.822V562z" fill="url(#paint3_linear)"/><path d="M126.875 562L50 521.178v-15.433l76.875 40.822V562z" fill="#fff"/><path d="M50 505.745l76.875-40.822 76.874 40.822-76.874 40.822L50 505.745z" fill="#E5E5E5"/><path d="M522.98 391h17.82v-5.4h-11.124c.324-3.312 10.728-4.86 10.728-12.888 0-5.472-4.572-7.884-8.784-7.884-4.644 0-7.56 2.628-9.072 5.544l4.68 3.132c.756-1.44 2.16-2.736 3.816-2.736 1.332 0 2.772.756 2.772 2.556 0 3.708-11.124 5.4-11.124 14.904 0 .864.108 1.764.288 2.772zm31.019.432c7.308 0 9.684-5.976 9.684-13.356s-2.376-13.248-9.684-13.248-9.684 5.868-9.684 13.248c0 7.38 2.376 13.356 9.684 13.356zm0-5.76c-2.484 0-3.204-3.384-3.204-7.596 0-4.176.72-7.488 3.204-7.488s3.204 3.312 3.204 7.488c0 4.212-.72 7.596-3.204 7.596zM567.418 391h17.136v-5.4h-5.508v-20.34h-5.436l-6.948 6.516 3.636 3.888 1.548-1.404a4.863 4.863 0 001.008-1.368h.072s-.036 1.008-.036 1.98V385.6h-5.472v5.4zm19.431-7.56c0 4.104 3.276 7.992 9.54 7.992 6.372 0 9.54-3.924 9.54-7.848 0-2.592-1.296-4.212-3.024-5.4.684-.828 2.52-3.312 2.52-5.904 0-4.788-3.924-7.452-8.712-7.452-6.012 0-8.64 3.672-8.64 7.416 0 2.16.972 3.708 2.34 4.932-1.044.792-3.564 3.096-3.564 6.264zm11.484-7.524c-2.232-.936-4.104-1.836-4.104-3.528 0-1.116.72-2.016 2.34-2.016 1.692 0 2.7.936 2.7 2.376 0 1.476-.576 2.592-.936 3.168zm-5.04 6.984c0-1.404.792-2.52 1.404-3.168 2.52 1.188 4.788 2.052 4.788 3.528 0 1.692-1.188 2.628-3.096 2.628-1.728 0-3.096-1.332-3.096-2.988z" fill="#2D2D2D" fill-opacity=".3"/><path d="M521.99 411.382c0 2.214 1.908 3.834 4.41 3.834 2.664 0 4.356-1.746 4.356-3.726 0-1.314-.738-2.106-1.728-2.7.378-.378 1.53-1.728 1.53-3.33 0-2.052-1.638-3.384-3.996-3.384-2.682 0-3.96 1.62-3.96 3.366 0 1.152.594 1.926 1.422 2.502-.486.324-2.034 1.512-2.034 3.438zm5.67-3.276c-1.584-.702-3.294-1.224-3.294-2.664 0-.972.774-1.764 2.16-1.764 1.35 0 2.286.72 2.286 1.926 0 1.242-.882 2.214-1.152 2.502zm-3.852 3.132c0-1.386 1.134-2.232 1.548-2.52 1.656.792 3.582 1.296 3.582 2.736 0 1.296-1.206 2.16-2.556 2.16-1.314 0-2.574-.954-2.574-2.376zm13.636 3.978c3.402 0 4.5-2.916 4.5-6.588 0-3.654-1.098-6.552-4.5-6.552-3.384 0-4.5 2.898-4.5 6.552 0 3.672 1.116 6.588 4.5 6.588zm0-1.638c-2.07 0-2.664-2.16-2.664-4.95 0-2.754.594-4.914 2.664-4.914 2.088 0 2.664 2.16 2.664 4.914 0 2.79-.576 4.95-2.664 4.95zM548.893 415h1.746v-7.614h3.96v-1.494h-5.706V415zm6.508-4.572c0 2.772 2.196 4.788 4.914 4.788 2.7 0 4.896-2.016 4.896-4.788 0-2.754-2.196-4.752-4.914-4.752-2.7 0-4.896 1.998-4.896 4.752zm1.782 0c0-1.89 1.404-3.24 3.132-3.24 1.71 0 3.132 1.35 3.132 3.24 0 1.908-1.422 3.276-3.132 3.276-1.728 0-3.132-1.368-3.132-3.276zm10.132 8.172h1.746v-4.14c0-.468-.072-.792-.072-.792h.036a3.344 3.344 0 002.826 1.548c2.394 0 4.122-1.872 4.122-4.77 0-2.826-1.53-4.77-3.996-4.77-1.332 0-2.484.612-3.06 1.71h-.036s.054-.306.054-.684v-.81h-1.62V418.6zm1.692-8.118c0-2.304 1.26-3.276 2.628-3.276 1.512 0 2.574 1.278 2.574 3.258 0 2.07-1.188 3.24-2.628 3.24-1.674 0-2.574-1.602-2.574-3.222zm8.524-.054c0 2.772 2.196 4.788 4.914 4.788 2.7 0 4.896-2.016 4.896-4.788 0-2.754-2.196-4.752-4.914-4.752-2.7 0-4.896 1.998-4.896 4.752zm1.782 0c0-1.89 1.404-3.24 3.132-3.24 1.71 0 3.132 1.35 3.132 3.24 0 1.908-1.422 3.276-3.132 3.276-1.728 0-3.132-1.368-3.132-3.276zm11.686 3.132c1.152-1.8 1.296-4.392 1.296-5.76v-.486h2.736v6.246h-4.032zm-2.916 0v3.6h1.638V415h6.75v2.16h1.602v-3.6h-1.296v-7.668h-6.156v1.674c0 1.404-.144 4.248-1.422 5.994h-1.116zm11.122-3.132c0 2.772 2.196 4.788 4.914 4.788 2.7 0 4.896-2.016 4.896-4.788 0-2.754-2.196-4.752-4.914-4.752-2.7 0-4.896 1.998-4.896 4.752zm1.782 0c0-1.89 1.404-3.24 3.132-3.24 1.71 0 3.132 1.35 3.132 3.24 0 1.908-1.422 3.276-3.132 3.276-1.728 0-3.132-1.368-3.132-3.276zM611.12 415h3.888c1.98 0 3.348-.9 3.348-2.592 0-1.008-.594-1.89-1.728-2.16v-.018c.828-.36 1.296-1.116 1.296-1.998 0-1.53-1.206-2.34-3.042-2.34h-3.762V415zm1.746-5.256v-2.646h1.656c1.098 0 1.62.432 1.62 1.26 0 .846-.522 1.386-1.566 1.386h-1.71zm0 4.032v-2.862h1.854c1.206 0 1.872.54 1.872 1.44 0 .846-.594 1.422-1.854 1.422h-1.872z" fill="#2D2D2D"/><path d="M413.98 450h17.82v-5.4h-11.124c.324-3.312 10.728-4.86 10.728-12.888 0-5.472-4.572-7.884-8.784-7.884-4.644 0-7.56 2.628-9.072 5.544l4.68 3.132c.756-1.44 2.16-2.736 3.816-2.736 1.332 0 2.772.756 2.772 2.556 0 3.708-11.124 5.4-11.124 14.904 0 .864.108 1.764.288 2.772zm31.019.432c7.308 0 9.684-5.976 9.684-13.356s-2.376-13.248-9.684-13.248-9.684 5.868-9.684 13.248c0 7.38 2.376 13.356 9.684 13.356zm0-5.76c-2.484 0-3.204-3.384-3.204-7.596 0-4.176.72-7.488 3.204-7.488s3.204 3.312 3.204 7.488c0 4.212-.72 7.596-3.204 7.596zM458.418 450h17.136v-5.4h-5.508v-20.34h-5.436l-6.948 6.516 3.636 3.888 1.548-1.404c.684-.648 1.008-1.368 1.008-1.368h.072s-.036 1.008-.036 1.98V444.6h-5.472v5.4zm20.151 0h6.588l10.8-21.348v-4.392h-18.468v5.4h10.188c1.296 0 1.512-.108 1.512-.108v.072s-.612.576-1.512 2.34L478.569 450z" fill="#2D2D2D" fill-opacity=".3"/><path d="M413.08 474h8.19v-1.548h-6.336c.072-2.898 6.138-3.546 6.138-7.722 0-2.196-1.674-3.654-3.996-3.654-1.872 0-3.312 1.08-4.032 2.412l1.314.882c.54-.918 1.512-1.62 2.574-1.62 1.35 0 2.304.864 2.304 2.106 0 2.988-6.246 3.654-6.246 8.172 0 .306.036.63.09.972zm10.12-1.548c.954 1.152 2.412 1.764 3.906 1.764 2.556 0 4.5-1.836 4.5-4.266 0-2.304-1.746-4.158-4.428-4.158-.612 0-1.35.216-1.656.378h-.036s.072-.252.108-.648l.288-2.682h4.878v-1.548h-6.426l-.63 6.3 1.044.378c.594-.396 1.404-.63 2.142-.63 1.638 0 2.88 1.08 2.88 2.61 0 1.548-1.278 2.574-2.772 2.574-1.314 0-2.25-.702-2.79-1.368l-1.008 1.296zM438.311 474h1.746v-7.614h3.96v-1.494h-5.706V474zm6.508-4.572c0 2.772 2.196 4.788 4.914 4.788 2.7 0 4.896-2.016 4.896-4.788 0-2.754-2.196-4.752-4.914-4.752-2.7 0-4.896 1.998-4.896 4.752zm1.782 0c0-1.89 1.404-3.24 3.132-3.24 1.71 0 3.132 1.35 3.132 3.24 0 1.908-1.422 3.276-3.132 3.276-1.728 0-3.132-1.368-3.132-3.276zm10.132 8.172h1.746v-4.14c0-.468-.072-.792-.072-.792h.036a3.344 3.344 0 002.826 1.548c2.394 0 4.122-1.872 4.122-4.77 0-2.826-1.53-4.77-3.996-4.77-1.332 0-2.484.612-3.06 1.71h-.036s.054-.306.054-.684v-.81h-1.62V477.6zm1.692-8.118c0-2.304 1.26-3.276 2.628-3.276 1.512 0 2.574 1.278 2.574 3.258 0 2.07-1.188 3.24-2.628 3.24-1.674 0-2.574-1.602-2.574-3.222zm8.524-.054c0 2.772 2.196 4.788 4.914 4.788 2.7 0 4.896-2.016 4.896-4.788 0-2.754-2.196-4.752-4.914-4.752-2.7 0-4.896 1.998-4.896 4.752zm1.782 0c0-1.89 1.404-3.24 3.132-3.24 1.71 0 3.132 1.35 3.132 3.24 0 1.908-1.422 3.276-3.132 3.276-1.728 0-3.132-1.368-3.132-3.276zm11.686 3.132c1.152-1.8 1.296-4.392 1.296-5.76v-.486h2.736v6.246h-4.032zm-2.916 0v3.6h1.638V474h6.75v2.16h1.602v-3.6h-1.296v-7.668h-6.156v1.674c0 1.404-.144 4.248-1.422 5.994h-1.116zm11.122-3.132c0 2.772 2.196 4.788 4.914 4.788 2.7 0 4.896-2.016 4.896-4.788 0-2.754-2.196-4.752-4.914-4.752-2.7 0-4.896 1.998-4.896 4.752zm1.782 0c0-1.89 1.404-3.24 3.132-3.24 1.71 0 3.132 1.35 3.132 3.24 0 1.908-1.422 3.276-3.132 3.276-1.728 0-3.132-1.368-3.132-3.276zM500.538 474h3.888c1.98 0 3.348-.9 3.348-2.592 0-1.008-.594-1.89-1.728-2.16v-.018c.828-.36 1.296-1.116 1.296-1.998 0-1.53-1.206-2.34-3.042-2.34h-3.762V474zm1.746-5.256v-2.646h1.655c1.099 0 1.621.432 1.621 1.26 0 .846-.522 1.386-1.566 1.386h-1.71zm0 4.032v-2.862h1.854c1.206 0 1.872.54 1.872 1.44 0 .846-.594 1.422-1.854 1.422h-1.872z" fill="#2D2D2D"/><path d="M295.98 510h17.82v-5.4h-11.124c.324-3.312 10.728-4.86 10.728-12.888 0-5.472-4.572-7.884-8.784-7.884-4.644 0-7.56 2.628-9.072 5.544l4.68 3.132c.756-1.44 2.16-2.736 3.816-2.736 1.332 0 2.772.756 2.772 2.556 0 3.708-11.124 5.4-11.124 14.904 0 .864.108 1.764.288 2.772zm31.019.432c7.308 0 9.684-5.976 9.684-13.356s-2.376-13.248-9.684-13.248-9.684 5.868-9.684 13.248c0 7.38 2.376 13.356 9.684 13.356zm0-5.76c-2.484 0-3.204-3.384-3.204-7.596 0-4.176.72-7.488 3.204-7.488s3.204 3.312 3.204 7.488c0 4.212-.72 7.596-3.204 7.596zM340.418 510h17.136v-5.4h-5.508v-20.34h-5.436l-6.948 6.516 3.636 3.888 1.548-1.404c.684-.648 1.008-1.368 1.008-1.368h.072s-.036 1.008-.036 1.98V504.6h-5.472v5.4zm19.503-11.88c0 8.388 5.256 12.312 10.44 12.312 5.58 0 8.784-4.32 8.784-8.676 0-4.428-3.06-8.82-8.424-8.82-1.224 0-2.916.468-3.528.9h-.072c.792-2.376 2.52-4.248 5.544-4.248 1.152 0 2.952.432 3.528.756l1.692-5.4c-1.656-.792-3.852-1.116-5.688-1.116-7.992 0-12.276 7.308-12.276 14.292zm10.44 6.552c-1.8 0-3.96-2.052-3.96-5.112 0-1.188 1.224-1.548 2.664-1.548 2.772 0 3.888 1.944 3.888 3.78 0 1.512-1.008 2.88-2.592 2.88z" fill="#2D2D2D" fill-opacity=".3"/><path d="M295.08 536h8.19v-1.548h-6.336c.072-2.898 6.138-3.546 6.138-7.722 0-2.196-1.674-3.654-3.996-3.654-1.872 0-3.312 1.08-4.032 2.412l1.314.882c.54-.918 1.512-1.62 2.574-1.62 1.35 0 2.304.864 2.304 2.106 0 2.988-6.246 3.654-6.246 8.172 0 .306.036.63.09.972zm15.088 0h1.746v-7.614h3.96v-1.494h-5.706V536zm6.508-4.572c0 2.772 2.196 4.788 4.914 4.788 2.7 0 4.896-2.016 4.896-4.788 0-2.754-2.196-4.752-4.914-4.752-2.7 0-4.896 1.998-4.896 4.752zm1.782 0c0-1.89 1.404-3.24 3.132-3.24 1.71 0 3.132 1.35 3.132 3.24 0 1.908-1.422 3.276-3.132 3.276-1.728 0-3.132-1.368-3.132-3.276zm10.132 8.172h1.746v-4.14c0-.468-.072-.792-.072-.792h.036a3.344 3.344 0 002.826 1.548c2.394 0 4.122-1.872 4.122-4.77 0-2.826-1.53-4.77-3.996-4.77-1.332 0-2.484.612-3.06 1.71h-.036s.054-.306.054-.684v-.81h-1.62V539.6zm1.692-8.118c0-2.304 1.26-3.276 2.628-3.276 1.512 0 2.574 1.278 2.574 3.258 0 2.07-1.188 3.24-2.628 3.24-1.674 0-2.574-1.602-2.574-3.222zm8.525-.054c0 2.772 2.196 4.788 4.914 4.788 2.7 0 4.896-2.016 4.896-4.788 0-2.754-2.196-4.752-4.914-4.752-2.7 0-4.896 1.998-4.896 4.752zm1.782 0c0-1.89 1.404-3.24 3.132-3.24 1.71 0 3.132 1.35 3.132 3.24 0 1.908-1.422 3.276-3.132 3.276-1.728 0-3.132-1.368-3.132-3.276zm11.686 3.132c1.152-1.8 1.296-4.392 1.296-5.76v-.486h2.736v6.246h-4.032zm-2.916 0v3.6h1.638V536h6.75v2.16h1.602v-3.6h-1.296v-7.668h-6.156v1.674c0 1.404-.144 4.248-1.422 5.994h-1.116zm11.065-1.044c0 1.71 1.458 2.7 3.042 2.7 1.35 0 2.466-.81 2.988-1.854h.036s-.054.306-.054.72V536h1.638v-5.76c0-2.304-1.314-3.564-3.6-3.564-1.278 0-2.664.468-3.402 1.08l.702 1.278c.738-.522 1.656-.882 2.556-.882 1.134 0 1.998.504 1.998 1.998v.18h-.468c-1.89 0-5.436.324-5.436 3.186zm1.746-.144c0-1.674 2.412-1.782 3.708-1.782h.45v.342c0 1.35-.918 2.898-2.448 2.898-1.134 0-1.71-.738-1.71-1.458z" fill="#2D2D2D"/><path d="M179.98 574h17.82v-5.4h-11.124c.324-3.312 10.728-4.86 10.728-12.888 0-5.472-4.572-7.884-8.784-7.884-4.644 0-7.56 2.628-9.072 5.544l4.68 3.132c.756-1.44 2.16-2.736 3.816-2.736 1.332 0 2.772.756 2.772 2.556 0 3.708-11.124 5.4-11.124 14.904 0 .864.108 1.764.288 2.772zm31.019.432c7.308 0 9.684-5.976 9.684-13.356s-2.376-13.248-9.684-13.248-9.684 5.868-9.684 13.248c0 7.38 2.376 13.356 9.684 13.356zm0-5.76c-2.484 0-3.204-3.384-3.204-7.596 0-4.176.72-7.488 3.204-7.488s3.204 3.312 3.204 7.488c0 4.212-.72 7.596-3.204 7.596zM224.418 574h17.136v-5.4h-5.508v-20.34h-5.436l-6.948 6.516 3.636 3.888 1.548-1.404c.684-.648 1.008-1.368 1.008-1.368h.072s-.036 1.008-.036 1.98V568.6h-5.472v5.4zm19.215-2.952c2.376 2.268 5.616 3.384 8.784 3.384 5.616 0 9.54-3.852 9.54-9.18 0-4.644-3.096-8.46-9.216-8.46-.468 0-1.584.144-1.872.252h-.072s.108-.504.144-1.008l.144-2.376h8.928v-5.4h-14.4l-1.044 13.464 3.348 1.26c1.08-.54 2.268-.864 3.456-.864 2.34 0 4.104 1.188 4.104 3.204 0 2.124-1.908 3.168-3.6 3.168-1.944 0-3.96-1.116-5.22-2.304l-3.024 4.86z" fill="#2D2D2D" fill-opacity=".3"/><path d="M181.026 597h7.326v-1.548h-2.79v-11.16h-1.584l-3.042 2.952 1.08 1.116 1.188-1.152c.468-.468.612-.738.612-.738h.036s-.018.378-.018.774v8.208h-2.808V597zm13.719 0h1.746v-7.614h3.96v-1.494h-5.706V597zm6.507-4.572c0 2.772 2.196 4.788 4.914 4.788 2.7 0 4.896-2.016 4.896-4.788 0-2.754-2.196-4.752-4.914-4.752-2.7 0-4.896 1.998-4.896 4.752zm1.782 0c0-1.89 1.404-3.24 3.132-3.24 1.71 0 3.132 1.35 3.132 3.24 0 1.908-1.422 3.276-3.132 3.276-1.728 0-3.132-1.368-3.132-3.276zm10.132 8.172h1.746v-4.14c0-.468-.072-.792-.072-.792h.036a3.344 3.344 0 002.826 1.548c2.394 0 4.122-1.872 4.122-4.77 0-2.826-1.53-4.77-3.996-4.77-1.332 0-2.484.612-3.06 1.71h-.036s.054-.306.054-.684v-.81h-1.62V600.6zm1.692-8.118c0-2.304 1.26-3.276 2.628-3.276 1.512 0 2.574 1.278 2.574 3.258 0 2.07-1.188 3.24-2.628 3.24-1.674 0-2.574-1.602-2.574-3.222zm8.525-.054c0 2.772 2.196 4.788 4.914 4.788 2.7 0 4.896-2.016 4.896-4.788 0-2.754-2.196-4.752-4.914-4.752-2.7 0-4.896 1.998-4.896 4.752zm1.782 0c0-1.89 1.404-3.24 3.132-3.24 1.71 0 3.132 1.35 3.132 3.24 0 1.908-1.422 3.276-3.132 3.276-1.728 0-3.132-1.368-3.132-3.276zm11.686 3.132c1.152-1.8 1.296-4.392 1.296-5.76v-.486h2.736v6.246h-4.032zm-2.916 0v3.6h1.638V597h6.75v2.16h1.602v-3.6h-1.296v-7.668h-6.156v1.674c0 1.404-.144 4.248-1.422 5.994h-1.116z" fill="#2D2D2D"/><defs><linearGradient id="paint0_linear" x1="396.906" y1="518.608" x2="541.571" y2="71.156" gradientUnits="userSpaceOnUse"><stop stop-color="#FCC636"/><stop offset=".436" stop-color="#FCC937"/><stop offset=".724" stop-color="#FCD23C"/><stop offset=".968" stop-color="#FDE045"/><stop offset="1" stop-color="#FDE346"/></linearGradient><linearGradient id="paint1_linear" x1="334.051" y1="524.257" x2="484.034" y2="60.355" gradientUnits="userSpaceOnUse"><stop stop-color="#FCC636"/><stop offset=".436" stop-color="#FCC937"/><stop offset=".724" stop-color="#FCD23C"/><stop offset=".968" stop-color="#FDE045"/><stop offset="1" stop-color="#FDE346"/></linearGradient><linearGradient id="paint2_linear" x1="257.629" y1="521.414" x2="429.294" y2="-9.548" gradientUnits="userSpaceOnUse"><stop stop-color="#FCC636"/><stop offset=".436" stop-color="#FCC937"/><stop offset=".724" stop-color="#FCD23C"/><stop offset=".968" stop-color="#FDE045"/><stop offset="1" stop-color="#FDE346"/></linearGradient><linearGradient id="paint3_linear" x1="176.929" y1="503.626" x2="350.318" y2="-32.671" gradientUnits="userSpaceOnUse"><stop stop-color="#FCC636"/><stop offset=".436" stop-color="#FCC937"/><stop offset=".724" stop-color="#FCD23C"/><stop offset=".968" stop-color="#FDE045"/><stop offset="1" stop-color="#FDE346"/></linearGradient><filter id="filter0_d" x="340" y="250.327" width="273.749" height="201.644" filterUnits="userSpaceOnUse" color-interpolation-filters="sRGB"><feFlood flood-opacity="0" result="BackgroundImageFix"/><feColorMatrix in="SourceAlpha" values="0 0 0 0 0 0 0 0 0 0 0 0 0 0 0 0 0 0 127 0"/><feOffset dx="10" dy="10"/><feGaussianBlur stdDeviation="30"/><feColorMatrix values="0 0 0 0 0 0 0 0 0 0 0 0 0 0 0 0 0 0 0.15 0"/><feBlend in2="BackgroundImageFix" result="effect1_dropShadow"/><feBlend in="SourceGraphic" in2="effect1_dropShadow" result="shape"/></filter><filter id="filter1_d" x="227" y="310.007" width="273.749" height="201.644" filterUnits="userSpaceOnUse" color-interpolation-filters="sRGB"><feFlood flood-opacity="0" result="BackgroundImageFix"/><feColorMatrix in="SourceAlpha" values="0 0 0 0 0 0 0 0 0 0 0 0 0 0 0 0 0 0 127 0"/><feOffset dx="10" dy="10"/><feGaussianBlur stdDeviation="30"/><feColorMatrix values="0 0 0 0 0 0 0 0 0 0 0 0 0 0 0 0 0 0 0.15 0"/><feBlend in2="BackgroundImageFix" result="effect1_dropShadow"/><feBlend in="SourceGraphic" in2="effect1_dropShadow" result="shape"/></filter><filter id="filter2_d" x="113" y="370.605" width="273.749" height="201.644" filterUnits="userSpaceOnUse" color-interpolation-filters="sRGB"><feFlood flood-opacity="0" result="BackgroundImageFix"/><feColorMatrix in="SourceAlpha" values="0 0 0 0 0 0 0 0 0 0 0 0 0 0 0 0 0 0 127 0"/><feOffset dx="10" dy="10"/><feGaussianBlur stdDeviation="30"/><feColorMatrix values="0 0 0 0 0 0 0 0 0 0 0 0 0 0 0 0 0 0 0.15 0"/><feBlend in2="BackgroundImageFix" result="effect1_dropShadow"/><feBlend in="SourceGraphic" in2="effect1_dropShadow" result="shape"/></filter><filter id="filter3_d" x="0" y="430.285" width="273.749" height="201.644" filterUnits="userSpaceOnUse" color-interpolation-filters="sRGB"><feFlood flood-opacity="0" result="BackgroundImageFix"/><feColorMatrix in="SourceAlpha" values="0 0 0 0 0 0 0 0 0 0 0 0 0 0 0 0 0 0 127 0"/><feOffset dx="10" dy="10"/><feGaussianBlur stdDeviation="30"/><feColorMatrix values="0 0 0 0 0 0 0 0 0 0 0 0 0 0 0 0 0 0 0.15 0"/><feBlend in2="BackgroundImageFix" result="effect1_dropShadow"/><feBlend in="SourceGraphic" in2="effect1_dropShadow" result="shape"/></filter></defs></svg>