<svg width="298" height="345" fill="none" xmlns="http://www.w3.org/2000/svg"><g filter="url(#filter0_d)"><path d="M248 226.154l-30.108 17.385L70 158.014l30.108-17.463L248 226.154z" fill="#C6C6C6"/><path d="M239.442 211.029l-22.716 13.176-130.778-75.624 22.795-13.176 130.699 75.624z" fill="#C6C6C6"/><path d="M230.573 197.152l-16.882 9.823-113.117-65.411 16.96-9.823 113.039 65.411z" fill="#C6C6C6"/><path d="M225.283 194.111l-14.703 8.42v-75.702l14.703-8.497v75.779zm-43.022-24.948l-14.626 8.498v-74.844l14.626-9.356v75.702zm-43.099-24.87l-14.626 8.498V78.727l14.626-10.213v75.779z" fill="#FCC636"/><path d="M222.871 130.26L91.394 54.246l65.739-14.423 65.738 90.437zm-98.335 22.531l-16.26-9.433v-75.78l16.26 9.434v75.779zm43.099 24.87l-16.337-9.433v-75.78l16.337 9.434v75.779zm42.945 24.87l-16.26-9.355v-75.78l16.26 9.433v75.702zm3.111 13.176l-113.117-65.411v-8.732l113.117 65.411v8.732zm3.035 18.633L85.948 158.716v-10.135l130.778 75.624v10.135zm1.166 20.66L70 169.475v-11.46l147.892 85.525V255z" fill="#fff"/><path d="M226.061 138.368L88.204 58.613v-6.237l137.857 79.755v6.237z" fill="#fff"/><path d="M162.89 79.896c-1.4 2.495-4.357 3.04-7.78 1.091-4.823-2.806-8.713-9.589-8.713-15.124 0-2.807 1.011-4.834 2.645-5.692-.622 1.014-.934 2.34-.934 3.976 0 5.614 3.89 12.396 8.714 15.125 2.334 1.403 4.512 1.481 6.068.624z" fill="#C6C6C6"/><path d="M163.823 75.92c0 1.637-.311 2.963-.933 3.976-1.556.858-3.734.702-6.068-.624-4.824-2.806-8.714-9.589-8.714-15.124 0-1.637.312-2.963.934-3.976 1.556-.858 3.734-.702 6.068.623 4.746 2.807 8.713 9.59 8.713 15.125z" fill="#E5E5E5"/><path d="M248 237.536L217.892 255v-11.461L248 226.154v11.382zm-8.558-16.372l-22.716 13.176v-10.135l22.716-13.176v10.135zm-8.869-15.202l-16.882 9.745v-8.732l16.882-9.823v8.81zm12.448-77.339l-16.96 9.745v-6.237l16.96-9.823v6.315z" fill="#FCC636"/><path d="M243.021 122.308l-16.96 9.823-3.19-1.871 16.96-9.823 3.19 1.871z" fill="#C6C6C6"/><path d="M239.831 120.437l-16.959 9.823-65.739-90.437L174.093 30l65.738 90.437z" fill="#FDE849"/><path d="M157.133 39.823L91.394 54.246l16.96-9.823L174.093 30l-16.96 9.823z" fill="#E5E5E5"/><path d="M108.354 44.423l-16.96 9.823-3.19-1.871 16.96-9.823 3.19 1.87z" fill="#C6C6C6"/></g><defs><filter id="filter0_d" x="0" y="0" width="298" height="345" filterUnits="userSpaceOnUse" color-interpolation-filters="sRGB"><feFlood flood-opacity="0" result="BackgroundImageFix"/><feColorMatrix in="SourceAlpha" values="0 0 0 0 0 0 0 0 0 0 0 0 0 0 0 0 0 0 127 0"/><feOffset dx="-10" dy="30"/><feGaussianBlur stdDeviation="30"/><feColorMatrix values="0 0 0 0 0.94902 0 0 0 0 0.94902 0 0 0 0 0.94902 0 0 0 1 0"/><feBlend in2="BackgroundImageFix" result="effect1_dropShadow"/><feBlend in="SourceGraphic" in2="effect1_dropShadow" result="shape"/></filter></defs></svg>