<svg width="484" height="517" fill="none" xmlns="http://www.w3.org/2000/svg"><g filter="url(#filter0_d)"><path d="M434 399.558l-124.837 67.105-119.436-69.327 124.837-67.105L434 399.558z" fill="#D3D3D3"/></g><path d="M433.557 399.571l-124.837 66.66V137.374l124.837-67.55v329.747z" fill="url(#paint0_linear)"/><path d="M189.727 397.083l118.993 69.149V136.485L189.727 67.336v329.747z" fill="#F2F2F2"/><path d="M149.885 213.989l118.994 69.149v-47.996l-118.994-69.149v47.996z" fill="#fff"/><path d="M310.934 245.541l-43.826 37.597v-48.884l43.826-37.597v48.884z" fill="#FFC701"/><path d="M434 69.558l-124.837 67.105-119.436-69.327L314.564.231 434 69.558zM308.72 198.701l-41.612 36.441L149 166.882l40.727-37.774 118.993 69.593z" fill="#E5E5E5"/><path d="M319.423 393.641l3.276-1.778 2.39 6.488c.266.711.532 1.6.532 1.6h.088s.354-1.244.62-2.222l2.568-9.243 3.187-1.778.885 14.665-2.744 1.511-.355-7.999c0-.978.089-2.578.089-2.578h-.089s-.354 1.334-.708 2.578l-2.302 7.91-2.39 1.334-2.214-5.422a17.343 17.343 0 00-.708-1.867h-.089s.089 1.511 0 2.578l-.531 8.444-2.744 1.51 1.239-15.731zm16.202-8.8l2.745-1.511-.089 8.177c0 .711-.088 1.6-.088 1.867h.088c.177-.445.62-1.511.886-2.311l4.338-10.488 2.745-1.511-.177 15.198-2.745 1.511.089-8.088c0-.533.088-1.422.088-1.866h-.088c-.178.533-.62 1.511-.886 2.311l-4.338 10.488-2.745 1.511.177-15.288zm12.484 5.155c1.417-1.066 2.479-3.199 2.479-8.532l.089-4.8 8.411-4.533-.177 15.199-2.834 1.6.089-12.177-2.833 1.511v1.689c-.089 6.666-1.417 11.199-5.224 13.421v-3.378zm12.838-6.932c1.416-1.067 2.479-3.2 2.479-8.533l.088-4.799 8.411-4.622-.177 15.198-2.833 1.6.089-12.176-2.833 1.511v1.688c-.089 6.666-1.417 11.199-5.224 13.421v-3.288zm13.989-19.643l2.744-1.511-.088 8.177c0 .711-.089 1.6-.089 1.866h.089c.177-.444.62-1.511.885-2.311l4.339-10.487 2.744-1.511-.177 15.198-2.745 1.511.089-8.088c0-.533.089-1.422.089-1.867h-.089c-.177.534-.62 1.511-.885 2.311l-4.339 10.488-2.744 1.511.177-15.287zm19.301-10.843c3.541-1.956 6.286-.178 6.286 4.533-.089 4.71-2.922 9.51-6.375 11.465-3.541 1.867-6.286.178-6.197-4.533-.089-4.71 2.744-9.599 6.286-11.465zm-.089 12.71c1.859-.978 3.453-3.822 3.453-6.578 0-2.844-1.505-3.91-3.364-2.844-1.86.978-3.453 3.822-3.453 6.577-.089 2.756 1.416 3.822 3.364 2.845zm8.765-17.154l2.834-1.6-.089 5.866 4.958-2.666.089-5.867 2.833-1.599-.177 15.198-2.833 1.6.088-6.133-4.958 2.667-.089 6.132-2.833 1.6.177-15.198zm19.478-4.978l.532-.266v-.178c0-2.044-.974-2.133-2.125-1.511-1.151.622-2.302 1.867-3.188 3.2l-1.062-2.133c.974-1.511 2.833-3.378 4.515-4.356 3.011-1.599 4.781-.355 4.693 3.467l-.089 9.51-2.656 1.422v-1.244c0-.622.089-1.156.089-1.156h-.089c-.708 1.956-2.125 3.911-3.63 4.711-2.036 1.155-3.807.267-3.718-2.489.088-4.533 4.249-7.555 6.728-8.977zm-2.124 8.177c1.593-.888 2.656-3.555 2.656-5.421v-.445l-.532.267c-1.416.8-3.895 2.4-3.895 4.533 0 1.066.62 1.777 1.771 1.066zm-101.034 71.134l8.139-4.433c3.954-2.1 6.628 0 6.628 5.366 0 5.367-2.907 10.733-6.744 12.833l-4.303 2.333-.116 9.566-3.837 2.099.233-27.764zm7.209 9.916c2.209-1.167 3.605-3.85 3.605-6.65 0-2.916-1.28-3.966-3.373-2.799l-3.604 1.983-.117 9.449 3.489-1.983zm11.936 1.068c.545.224 1.308.56 2.18.112.98-.56 1.525-1.68 1.961-3.471L335 413.747l3.923-2.239 4.032 9.628a26.962 26.962 0 011.09 2.911h.109s.327-2.015.872-3.918l3.269-13.77 3.705-2.128-6.321 24.518c-.871 3.358-2.288 7.277-5.121 8.844-1.526.784-2.725.784-3.923.336l1.743-4.478zm16.953-30.374l12.236-6.846v4.222l-8.598 4.792-.111 6.275 3.969-2.282c3.638-2.054 6.173-.228 6.173 4.906 0 4.906-2.646 9.698-6.283 11.752L355 430.231l.331-27.154zm6.834 19.054c1.985-1.141 3.087-3.309 3.197-5.819 0-2.51-1.102-3.423-3.086-2.396l-3.418 1.94-.11 8.214 3.417-1.939zm13.279-23.167l.112-7.6L388 384.231l-.222 27.945-3.667 2.105.222-23.502-5.333 3.04v3.391c-.111 13.563-2.444 21.514-8 25.021v-4.676c2.889-2.456 4.333-7.834 4.444-18.591zm17.672-16.978l12.536-6.755v4.236l-8.706 4.694-.116 7.212 7.081-3.778v4.236l-7.081 3.778-.116 7.326 9.286-4.922v4.235l-13 6.983.116-27.245zm17.003-9.407l3.934-2.083-.119 15.967c0 1.62-.239 4.397-.239 4.397h.12s1.072-3.24 1.907-5.323l8.344-20.248 3.934-2.082-.238 27.653-3.934 2.082.119-15.851c0-1.62.238-4.397.238-4.397h-.119l-1.788 5.207-8.344 20.248-3.934 2.082.119-27.652zm4.053-8.678v-.463l2.98-1.504v.463c0 1.62.954 1.851 2.027 1.388.953-.578 2.026-1.851 2.145-3.587v-.462l2.861-1.505v.463c0 3.471-2.384 6.595-5.006 7.984-2.742 1.388-5.007.578-5.007-2.777z" fill="#fff"/><path d="M251.682 370.849c10.093 5.421 18.15 21.775 18.681 37.596.62 16.265-6.551 24.798-16.644 19.465-10.094-5.333-18.15-22.131-18.682-38.307-.619-15.821 6.552-24.087 16.645-18.754zm1.682 47.906c6.287 3.378 10.979-2.488 10.536-13.687-.354-10.755-5.666-21.598-11.952-24.976-6.286-3.377-10.979 2.222-10.625 12.888.443 11.199 5.755 22.398 12.041 25.775zm29.129-22.042l-11.244-5.955-.266-8.621 28.598 15.287.265 8.622-11.244-5.955 1.682 46.484-6.197-3.289-1.594-46.573z" fill="#FFC701"/><defs><linearGradient id="paint0_linear" x1="497" y1="131.731" x2="355" y2="231.731" gradientUnits="userSpaceOnUse"><stop stop-color="#FFE925"/><stop offset="1" stop-color="#FFC701"/></linearGradient><filter id="filter0_d" x="119.727" y="260.231" width="364.273" height="256.431" filterUnits="userSpaceOnUse" color-interpolation-filters="sRGB"><feFlood flood-opacity="0" result="BackgroundImageFix"/><feColorMatrix in="SourceAlpha" values="0 0 0 0 0 0 0 0 0 0 0 0 0 0 0 0 0 0 127 0"/><feOffset dx="-10" dy="-10"/><feGaussianBlur stdDeviation="30"/><feColorMatrix values="0 0 0 0 0 0 0 0 0 0 0 0 0 0 0 0 0 0 0.25 0"/><feBlend in2="BackgroundImageFix" result="effect1_dropShadow"/><feBlend in="SourceGraphic" in2="effect1_dropShadow" result="shape"/></filter></defs></svg>