<svg width="321" height="228" fill="none" xmlns="http://www.w3.org/2000/svg"><g filter="url(#filter0_d)"><path d="M174.531 69.582l.271 29.244L137 62.441l-.203-29.245 37.734 36.386z" fill="#FFC701"/><path d="M130.971 105.967l-.271 29.176 35.769-36.18.136-29.245-35.634 36.249z" fill="#C6C6C6"/><path d="M130.903 105.967l-.203 29.041s-57.042-8.706-60.7-35.23l.203-30.808s-2.98 25.3 60.7 36.997z" fill="#fff"/><path d="M130.903 105.967s-22.153-3.264-40.783-12.922c0 0-20.052-9.59-19.917-24.075 0 0-.068-3.06 1.152-5.917 0 0 5.894-21.967 57.719-29.857l37.598 36.454-35.769 36.317z" fill="#E5E5E5"/><path d="M174.531 69.582h96.401V98.69c0 21.696-42.815 39.31-96.13 39.31-12.601 0-24.592-.952-35.566-2.788l-.339-29.313 35.634-36.317z" fill="#FFC701"/><path d="M174.463 30c-13.346 0-26.014 1.088-37.598 3.129l37.666 36.52-35.702 36.25c11.043 1.769 23.033 2.789 35.634 2.789 53.316 0 96.469-17.615 96.469-39.31C271 47.615 227.779 30 174.463 30z" fill="#FFE925"/></g><defs><filter id="filter0_d" x="0" y="0" width="321" height="228" filterUnits="userSpaceOnUse" color-interpolation-filters="sRGB"><feFlood flood-opacity="0" result="BackgroundImageFix"/><feColorMatrix in="SourceAlpha" values="0 0 0 0 0 0 0 0 0 0 0 0 0 0 0 0 0 0 127 0"/><feOffset dx="-10" dy="30"/><feGaussianBlur stdDeviation="30"/><feColorMatrix values="0 0 0 0 0.94902 0 0 0 0 0.94902 0 0 0 0 0.94902 0 0 0 1 0"/><feBlend in2="BackgroundImageFix" result="effect1_dropShadow"/><feBlend in="SourceGraphic" in2="effect1_dropShadow" result="shape"/></filter></defs></svg>