<svg width="1295" height="509" fill="none" xmlns="http://www.w3.org/2000/svg"><path d="M36.055 498.858c58.558 3.276 91.445 16.642 125.826-9.51s46.358-113.619 94.238-113.619C304 375.729 296 454.232 380.5 456.5 465 458.769 479 316 531 316s35 94.5 123.5 94.5S737 259 784 259s35 83.5 122 83.5S968 181 1036.5 181s61.5 78 107.5 78 63-22.5 100-78" stroke="url(#paint0_linear)" stroke-width="7"/><path d="M36.055 498.858c58.558 3.276 91.445 16.642 125.826-9.51s46.358-113.619 94.238-113.619C304 375.729 296 454.232 380.5 456.5 465 458.769 479 316 531 316s35 94.5 123.5 94.5S737 259 784 259s35 83.5 122 83.5S968 181 1036.5 181s61.5 78 107.5 78 63-22.5 100-78" stroke="url(#paint1_linear)" stroke-width="7"/><circle cx="783.5" cy="239.5" r="6.5" fill="#FFB902"/><circle cx="530.5" cy="297.5" r="6.5" fill="#FFB902"/><circle cx="254.5" cy="356.5" r="6.5" fill="#FFB902"/><circle cx="1035.5" cy="159.5" r="6.5" fill="#FFB902"/><path d="M208.588 308.444c0 2.156 1.708 3.724 3.822 3.724 2.1 0 3.808-1.568 3.808-3.724 0-2.142-1.708-3.696-3.822-3.696-2.1 0-3.808 1.554-3.808 3.696zm1.386 0c0-1.47 1.092-2.52 2.436-2.52 1.33 0 2.436 1.05 2.436 2.52 0 1.484-1.106 2.548-2.436 2.548-1.344 0-2.436-1.064-2.436-2.548zm7.881 3.556h1.358v-3.066h1.022l2.114 3.066h1.61l-2.646-3.682v-.028l2.366-3.374h-1.54l-1.932 2.856h-.994v-2.856h-1.358V312zm9.022 0h1.344v-5.922h2.478v-1.162h-6.286v1.162h2.464V312zm4.387 0h1.498l1.736-2.562h1.19V312h1.358v-7.084h-2.828c-1.498 0-2.534.77-2.534 2.226 0 1.078.728 1.834 1.54 2.058v.014s-.168.182-.322.434L231.264 312zm3.248-3.556c-.826 0-1.456-.434-1.456-1.316 0-.91.588-1.274 1.498-1.274h1.134v2.59h-1.176zm4.322-.518c0 2.45 1.078 4.242 3.472 4.242 2.002 0 3.346-1.4 3.346-3.36 0-2.002-1.232-3.262-3.01-3.262-.938 0-1.876.308-2.506 1.26h-.028c.098-1.358.77-2.184 2.184-2.828l2.716-1.134-.448-1.12-2.534 1.092c-2.464 1.036-3.192 2.576-3.192 5.11zm1.414.882c0-1.246.854-2.184 2.058-2.184 1.064 0 1.974.826 1.974 2.212 0 1.372-.91 2.184-2.03 2.184-1.092 0-2.002-.812-2.002-2.212zm7.097 5.992h1.358v-3.22c0-.364-.056-.616-.056-.616h.028a2.6 2.6 0 002.198 1.204c1.862 0 3.206-1.456 3.206-3.71 0-2.198-1.19-3.71-3.108-3.71-1.036 0-1.932.476-2.38 1.33h-.028s.042-.238.042-.532v-.63h-1.26v9.884zm1.316-6.314c0-1.792.98-2.548 2.044-2.548 1.176 0 2.002.994 2.002 2.534 0 1.61-.924 2.52-2.044 2.52-1.302 0-2.002-1.246-2.002-2.506zm7.092 3.514h2.758c1.792 0 2.604-.91 2.604-2.24 0-1.61-1.106-2.282-2.576-2.282h-1.428v-2.562h-1.358V312zm1.358-.98v-2.562h1.218c.98 0 1.4.532 1.4 1.288 0 .742-.42 1.274-1.4 1.274h-1.218zm-48.625 18.984h3.69V334h2.448v-3.996h3.69v-2.34h-3.69v-4.014h-2.448v4.014h-3.69v2.34zm15.239.882h5.706V334h3.114v-3.114h1.53v-2.61h-1.53v-7.146h-3.852l-4.968 7.848v1.908zm3.204-2.61v-.036l1.944-2.952c.36-.54.63-1.332.63-1.332h.036s-.108.738-.108 1.44v2.88h-2.502zm8.421 4.248c1.188 1.134 2.808 1.692 4.392 1.692 2.808 0 4.77-1.926 4.77-4.59 0-2.322-1.548-4.23-4.608-4.23-.234 0-.792.072-.936.126h-.036s.054-.252.072-.504l.072-1.188h4.464v-2.7h-7.2l-.522 6.732 1.674.63a3.897 3.897 0 011.728-.432c1.17 0 2.052.594 2.052 1.602 0 1.062-.954 1.584-1.8 1.584-.972 0-1.98-.558-2.61-1.152l-1.512 2.43zm15.534 1.692c3.654 0 4.842-2.988 4.842-6.678s-1.188-6.624-4.842-6.624-4.842 2.934-4.842 6.624c0 3.69 1.188 6.678 4.842 6.678zm0-2.88c-1.242 0-1.602-1.692-1.602-3.798 0-2.088.36-3.744 1.602-3.744s1.602 1.656 1.602 3.744c0 2.106-.36 3.798-1.602 3.798zm15.944 2.88c3.654 0 4.842-2.988 4.842-6.678s-1.188-6.624-4.842-6.624-4.842 2.934-4.842 6.624c0 3.69 1.188 6.678 4.842 6.678zm0-2.88c-1.242 0-1.602-1.692-1.602-3.798 0-2.088.36-3.744 1.602-3.744s1.602 1.656 1.602 3.744c0 2.106-.36 3.798-1.602 3.798zm11.443 2.88c3.654 0 4.842-2.988 4.842-6.678s-1.188-6.624-4.842-6.624-4.842 2.934-4.842 6.624c0 3.69 1.188 6.678 4.842 6.678zm0-2.88c-1.242 0-1.602-1.692-1.602-3.798 0-2.088.36-3.744 1.602-3.744s1.602 1.656 1.602 3.744c0 2.106-.36 3.798-1.602 3.798zm11.443 2.88c3.654 0 4.842-2.988 4.842-6.678s-1.188-6.624-4.842-6.624-4.842 2.934-4.842 6.624c0 3.69 1.188 6.678 4.842 6.678zm0-2.88c-1.242 0-1.602-1.692-1.602-3.798 0-2.088.36-3.744 1.602-3.744s1.602 1.656 1.602 3.744c0 2.106-.36 3.798-1.602 3.798zm11.84 2.664v-1.926h-1.44v-1.746h1.44v-1.404h-1.44v-2.232h1.44v-5.544h4.104c1.656 0 2.862.336 3.618 1.008.768.672 1.152 1.596 1.152 2.772a4.26 4.26 0 01-.468 1.962c-.312.612-.834 1.104-1.566 1.476-.72.372-1.704.558-2.952.558h-1.17v1.404h2.772v1.746h-2.772V334h-2.718zm2.718-7.308h.9c.768 0 1.374-.132 1.818-.396.456-.264.684-.69.684-1.278 0-1.092-.72-1.638-2.16-1.638h-1.242v3.312zm179.262-70.896c1.162-1.778 1.4-4.396 1.4-6.566v-.91h3.094v7.476h-4.494zm-2.45 0v3.164h1.288V257h6.888v1.96h1.246v-3.164h-1.092v-8.68h-5.782v2.03c0 2.156-.182 4.718-1.554 6.65h-.994zm10.389-2.338c0 2.1 1.54 3.71 3.766 3.71.98 0 2.058-.378 2.744-1.008l-.574-.994c-.56.504-1.33.826-2.086.826-1.274 0-2.366-.826-2.436-2.352h5.152c.028-.196.056-.392.056-.574 0-1.82-1.064-3.318-3.066-3.318-2.016 0-3.556 1.456-3.556 3.71zm1.456-.798c.196-1.176 1.022-1.862 2.072-1.862.924 0 1.68.644 1.722 1.862h-3.794zm6.799 4.34h1.358v-3.066h1.022l2.114 3.066h1.61l-2.646-3.682v-.028l2.366-3.374h-1.54l-1.932 2.856h-.994v-2.856h-1.358V257zm6.658-1.932c0 1.33 1.134 2.1 2.366 2.1 1.05 0 1.918-.63 2.324-1.442h.028s-.042.238-.042.56V257h1.274v-4.48c0-1.792-1.022-2.772-2.8-2.772-.994 0-2.072.364-2.646.84l.546.994c.574-.406 1.288-.686 1.988-.686.882 0 1.554.392 1.554 1.554v.14h-.364c-1.47 0-4.228.252-4.228 2.478zm1.358-.112c0-1.302 1.876-1.386 2.884-1.386h.35v.266c0 1.05-.714 2.254-1.904 2.254-.882 0-1.33-.574-1.33-1.134zm6.291-2.03c0 2.45 1.078 4.242 3.472 4.242 2.002 0 3.346-1.4 3.346-3.36 0-2.002-1.232-3.262-3.01-3.262-.938 0-1.876.308-2.506 1.26h-.028c.098-1.358.77-2.184 2.184-2.828l2.716-1.134-.448-1.12-2.534 1.092c-2.464 1.036-3.192 2.576-3.192 5.11zm1.414.882c0-1.246.854-2.184 2.058-2.184 1.064 0 1.974.826 1.974 2.212 0 1.372-.91 2.184-2.03 2.184-1.092 0-2.002-.812-2.002-2.212zm7.097 5.992h1.358v-3.22c0-.364-.056-.616-.056-.616h.028a2.6 2.6 0 002.198 1.204c1.862 0 3.206-1.456 3.206-3.71 0-2.198-1.19-3.71-3.108-3.71-1.036 0-1.932.476-2.38 1.33h-.028s.042-.238.042-.532v-.63h-1.26v9.884zm1.316-6.314c0-1.792.98-2.548 2.044-2.548 1.176 0 2.002.994 2.002 2.534 0 1.61-.924 2.52-2.044 2.52-1.302 0-2.002-1.246-2.002-2.506zm7.092 3.514h2.758c1.792 0 2.604-.91 2.604-2.24 0-1.61-1.106-2.282-2.576-2.282h-1.428v-2.562h-1.358V257zm1.358-.98v-2.562h1.218c.98 0 1.4.532 1.4 1.288 0 .742-.42 1.274-1.4 1.274h-1.218zm-50.826 18.984h3.69V279h2.448v-3.996h3.69v-2.34h-3.69v-4.014h-2.448v4.014h-3.69v2.34zm15.473 2.52c1.188 1.134 2.808 1.692 4.392 1.692 2.808 0 4.77-1.926 4.77-4.59 0-2.322-1.548-4.23-4.608-4.23-.234 0-.792.072-.936.126h-.036s.054-.252.072-.504l.072-1.188h4.464v-2.7h-7.2l-.522 6.732 1.674.63a3.897 3.897 0 011.728-.432c1.17 0 2.052.594 2.052 1.602 0 1.062-.954 1.584-1.8 1.584-.972 0-1.98-.558-2.61-1.152l-1.512 2.43zm11.089 1.134c.864.414 1.89.558 2.844.558 3.996 0 6.138-3.654 6.138-7.146 0-4.194-2.628-6.156-5.22-6.156-2.79 0-4.392 2.16-4.392 4.338 0 2.214 1.53 4.41 4.212 4.41.612 0 1.476-.216 1.764-.45h.036c-.396 1.188-1.26 2.124-2.772 2.124-.63 0-1.26-.162-1.764-.378l-.846 2.7zm4.41-6.534c-1.386 0-1.944-.972-1.944-1.89 0-.756.504-1.44 1.296-1.44.9 0 1.98 1.026 1.98 2.556 0 .594-.612.774-1.332.774zm11.11 7.092c3.654 0 4.842-2.988 4.842-6.678s-1.188-6.624-4.842-6.624-4.842 2.934-4.842 6.624c0 3.69 1.188 6.678 4.842 6.678zm0-2.88c-1.242 0-1.602-1.692-1.602-3.798 0-2.088.36-3.744 1.602-3.744s1.602 1.656 1.602 3.744c0 2.106-.36 3.798-1.602 3.798zm15.943 2.88c3.654 0 4.842-2.988 4.842-6.678s-1.188-6.624-4.842-6.624-4.842 2.934-4.842 6.624c0 3.69 1.188 6.678 4.842 6.678zm0-2.88c-1.242 0-1.602-1.692-1.602-3.798 0-2.088.36-3.744 1.602-3.744s1.602 1.656 1.602 3.744c0 2.106-.36 3.798-1.602 3.798zm11.443 2.88c3.654 0 4.842-2.988 4.842-6.678s-1.188-6.624-4.842-6.624-4.842 2.934-4.842 6.624c0 3.69 1.188 6.678 4.842 6.678zm0-2.88c-1.242 0-1.602-1.692-1.602-3.798 0-2.088.36-3.744 1.602-3.744s1.602 1.656 1.602 3.744c0 2.106-.36 3.798-1.602 3.798zm11.444 2.88c3.654 0 4.842-2.988 4.842-6.678s-1.188-6.624-4.842-6.624-4.842 2.934-4.842 6.624c0 3.69 1.188 6.678 4.842 6.678zm0-2.88c-1.242 0-1.602-1.692-1.602-3.798 0-2.088.36-3.744 1.602-3.744S564 270.45 564 272.538c0 2.106-.36 3.798-1.602 3.798zM574.237 279v-1.926h-1.44v-1.746h1.44v-1.404h-1.44v-2.232h1.44v-5.544h4.104c1.656 0 2.862.336 3.618 1.008.768.672 1.152 1.596 1.152 2.772a4.26 4.26 0 01-.468 1.962c-.312.612-.834 1.104-1.566 1.476-.72.372-1.704.558-2.952.558h-1.17v1.404h2.772v1.746h-2.772V279h-2.718zm2.718-7.308h.9c.768 0 1.374-.132 1.818-.396.456-.264.684-.69.684-1.278 0-1.092-.72-1.638-2.16-1.638h-1.242v3.312zM736.924 194h1.386l.476-6.23c.056-.602.028-1.484.028-1.484h.028s.308.952.532 1.484l1.96 4.452h1.232l1.974-4.452c.224-.546.532-1.456.532-1.456h.028s-.028.854.028 1.456l.476 6.23h1.372l-.798-9.884h-1.442l-2.282 5.348c-.224.546-.49 1.33-.49 1.33h-.028s-.252-.784-.476-1.33l-2.282-5.348h-1.442l-.812 9.884zm11.446-1.932c0 1.33 1.134 2.1 2.366 2.1 1.05 0 1.918-.63 2.324-1.442h.028s-.042.238-.042.56V194h1.274v-4.48c0-1.792-1.022-2.772-2.8-2.772-.994 0-2.072.364-2.646.84l.546.994c.574-.406 1.288-.686 1.988-.686.882 0 1.554.392 1.554 1.554v.14h-.364c-1.47 0-4.228.252-4.228 2.478zm1.358-.112c0-1.302 1.876-1.386 2.884-1.386h.35v.266c0 1.05-.714 2.254-1.904 2.254-.882 0-1.33-.574-1.33-1.134zm6.599 4.844h1.358v-3.22c0-.364-.056-.616-.056-.616h.028a2.6 2.6 0 002.198 1.204c1.862 0 3.206-1.456 3.206-3.71 0-2.198-1.19-3.71-3.108-3.71-1.036 0-1.932.476-2.38 1.33h-.028s.042-.238.042-.532v-.63h-1.26v9.884zm1.316-6.314c0-1.792.98-2.548 2.044-2.548 1.176 0 2.002.994 2.002 2.534 0 1.61-.924 2.52-2.044 2.52-1.302 0-2.002-1.246-2.002-2.506zm8.664 3.514h1.344v-5.922h2.478v-1.162h-6.286v1.162h2.464V194zm-29.821 18.004h3.69V216h2.448v-3.996h3.69v-2.34h-3.69v-4.014h-2.448v4.014h-3.69v2.34zm15.239.882h5.706V216h3.114v-3.114h1.53v-2.61h-1.53v-7.146h-3.852l-4.968 7.848v1.908zm3.204-2.61v-.036l1.944-2.952c.36-.54.63-1.332.63-1.332h.036s-.108.738-.108 1.44v2.88h-2.502zm8.295 4.248c1.152 1.17 2.844 1.692 4.392 1.692 3.222 0 4.77-2.196 4.77-4.392 0-1.8-1.206-3.312-3.114-3.726l2.61-3.006v-1.962h-8.118v2.7h3.078c.81 0 1.224-.09 1.224-.09v.036s-.504.468-1.116 1.206l-1.692 2.034.666 1.53h.9c1.386 0 2.394.414 2.394 1.422 0 .702-.666 1.278-1.836 1.278-.99 0-1.998-.522-2.646-1.152l-1.512 2.43zm15.66 1.692c3.654 0 4.842-2.988 4.842-6.678s-1.188-6.624-4.842-6.624-4.842 2.934-4.842 6.624c0 3.69 1.188 6.678 4.842 6.678zm0-2.88c-1.242 0-1.602-1.692-1.602-3.798 0-2.088.36-3.744 1.602-3.744s1.602 1.656 1.602 3.744c0 2.106-.36 3.798-1.602 3.798zm15.944 2.88c3.654 0 4.842-2.988 4.842-6.678s-1.188-6.624-4.842-6.624-4.842 2.934-4.842 6.624c0 3.69 1.188 6.678 4.842 6.678zm0-2.88c-1.242 0-1.602-1.692-1.602-3.798 0-2.088.36-3.744 1.602-3.744s1.602 1.656 1.602 3.744c0 2.106-.36 3.798-1.602 3.798zm11.443 2.88c3.654 0 4.842-2.988 4.842-6.678s-1.188-6.624-4.842-6.624-4.842 2.934-4.842 6.624c0 3.69 1.188 6.678 4.842 6.678zm0-2.88c-1.242 0-1.602-1.692-1.602-3.798 0-2.088.36-3.744 1.602-3.744s1.602 1.656 1.602 3.744c0 2.106-.36 3.798-1.602 3.798zm11.443 2.88c3.654 0 4.842-2.988 4.842-6.678s-1.188-6.624-4.842-6.624-4.842 2.934-4.842 6.624c0 3.69 1.188 6.678 4.842 6.678zm0-2.88c-1.242 0-1.602-1.692-1.602-3.798 0-2.088.36-3.744 1.602-3.744s1.602 1.656 1.602 3.744c0 2.106-.36 3.798-1.602 3.798zM988.21 111h1.414l.994-2.842h3.724l.994 2.842h1.428l-3.542-9.884h-1.47L988.21 111zm2.772-3.99l1.106-3.122c.168-.518.378-1.414.378-1.414h.028s.224.896.392 1.414l1.092 3.122h-2.996zm7.037 3.99h3.021c1.54 0 2.61-.7 2.61-2.016 0-.784-.47-1.47-1.35-1.68v-.014c.65-.28 1.01-.868 1.01-1.554 0-1.19-.94-1.82-2.37-1.82h-2.921V111zm1.358-4.088v-2.058h1.283c.86 0 1.26.336 1.26.98 0 .658-.4 1.078-1.21 1.078h-1.333zm0 3.136v-2.226h1.443c.94 0 1.45.42 1.45 1.12 0 .658-.46 1.106-1.44 1.106h-1.453zm5.913.952h1.36v-5.922h3.08v-1.162h-4.44V111zm5.44 1.47l-.48 1.036s.57.434 1.36.434c.99 0 1.87-.56 2.29-1.666l3.34-8.358h-1.47l-1.73 4.648c-.12.364-.23.84-.23.84h-.03s-.13-.504-.27-.854l-1.78-4.634h-1.52l2.97 7-.35.812c-.27.644-.73 1.05-1.29 1.05-.42 0-.81-.308-.81-.308zm7.13-5.012c0 2.128 1.55 3.71 3.79 3.71 1.11 0 2.19-.448 2.83-1.134l-.54-.994c-.55.574-1.4.952-2.19.952-1.47 0-2.5-1.106-2.5-2.548s1.03-2.52 2.46-2.52c.74 0 1.48.336 1.96.812l.64-.952c-.67-.714-1.72-1.036-2.66-1.036-2.22 0-3.79 1.61-3.79 3.71zm9.8 3.542h1.34v-5.922h2.48v-1.162h-6.29v1.162h2.47V111zm-39.174 18.004h3.69V133h2.448v-3.996h3.69v-2.34h-3.69v-4.014h-2.448v4.014h-3.69v2.34zm15.614-1.944c0 4.194 2.63 6.156 5.22 6.156 2.79 0 4.39-2.16 4.39-4.338 0-2.214-1.53-4.41-4.21-4.41-.61 0-1.46.234-1.76.45h-.04c.4-1.188 1.26-2.124 2.77-2.124.58 0 1.48.216 1.77.378l.84-2.7c-.82-.396-1.92-.558-2.84-.558-4 0-6.14 3.654-6.14 7.146zm5.22 3.276c-.9 0-1.98-1.026-1.98-2.556 0-.594.61-.774 1.33-.774 1.39 0 1.95.972 1.95 1.89 0 .756-.51 1.44-1.3 1.44zm6.04 2.664h8.91v-2.7h-5.56c.16-1.656 5.36-2.43 5.36-6.444 0-2.736-2.29-3.942-4.39-3.942-2.32 0-3.78 1.314-4.54 2.772l2.34 1.566c.38-.72 1.08-1.368 1.91-1.368.67 0 1.39.378 1.39 1.278 0 1.854-5.57 2.7-5.57 7.452 0 .432.06.882.15 1.386zm15.51.216c3.65 0 4.84-2.988 4.84-6.678s-1.19-6.624-4.84-6.624c-3.66 0-4.85 2.934-4.85 6.624 0 3.69 1.19 6.678 4.85 6.678zm0-2.88c-1.25 0-1.61-1.692-1.61-3.798 0-2.088.36-3.744 1.61-3.744 1.24 0 1.6 1.656 1.6 3.744 0 2.106-.36 3.798-1.6 3.798zm15.94 2.88c3.65 0 4.84-2.988 4.84-6.678s-1.19-6.624-4.84-6.624-4.84 2.934-4.84 6.624c0 3.69 1.19 6.678 4.84 6.678zm0-2.88c-1.24 0-1.6-1.692-1.6-3.798 0-2.088.36-3.744 1.6-3.744 1.24 0 1.6 1.656 1.6 3.744 0 2.106-.36 3.798-1.6 3.798zm11.44 2.88c3.66 0 4.85-2.988 4.85-6.678s-1.19-6.624-4.85-6.624c-3.65 0-4.84 2.934-4.84 6.624 0 3.69 1.19 6.678 4.84 6.678zm0-2.88c-1.24 0-1.6-1.692-1.6-3.798 0-2.088.36-3.744 1.6-3.744 1.25 0 1.61 1.656 1.61 3.744 0 2.106-.36 3.798-1.61 3.798zm11.45 2.88c3.65 0 4.84-2.988 4.84-6.678s-1.19-6.624-4.84-6.624c-3.66 0-4.85 2.934-4.85 6.624 0 3.69 1.19 6.678 4.85 6.678zm0-2.88c-1.25 0-1.61-1.692-1.61-3.798 0-2.088.36-3.744 1.61-3.744 1.24 0 1.6 1.656 1.6 3.744 0 2.106-.36 3.798-1.6 3.798zm11.84 2.664v-1.926h-1.44v-1.746h1.44v-1.404h-1.44v-2.232h1.44v-5.544h4.1c1.66 0 2.86.336 3.62 1.008.77.672 1.15 1.596 1.15 2.772 0 .696-.16 1.35-.47 1.962-.31.612-.83 1.104-1.56 1.476-.72.372-1.71.558-2.96.558h-1.17v1.404h2.78v1.746h-2.78V133h-2.71zm2.71-7.308h.9c.77 0 1.38-.132 1.82-.396.46-.264.69-.69.69-1.278 0-1.092-.72-1.638-2.16-1.638h-1.25v3.312zM36.686 434.988c0 2.912 2.226 5.18 5.082 5.18s5.068-2.268 5.068-5.18c0-2.842-2.212-5.04-5.068-5.04-2.856 0-5.082 2.198-5.082 5.04zm1.428 0c0-2.142 1.624-3.78 3.654-3.78 2.016 0 3.64 1.638 3.64 3.78 0 2.212-1.624 3.906-3.64 3.906-2.03 0-3.654-1.694-3.654-3.906zM50.284 440h1.343v-5.922h2.478v-1.162H47.82v1.162h2.464V440zm5.155 0h1.358v-3.066h1.022L59.933 440h1.61l-2.646-3.682v-.028l2.366-3.374h-1.54l-1.932 2.856h-.994v-2.856h-1.358V440zm7.314 2.8h1.358v-3.22c0-.364-.056-.616-.056-.616h.028a2.6 2.6 0 002.198 1.204c1.862 0 3.206-1.456 3.206-3.71 0-2.198-1.19-3.71-3.108-3.71-1.036 0-1.932.476-2.38 1.33h-.028s.042-.238.042-.532v-.63h-1.26v9.884zm1.316-6.314c0-1.792.98-2.548 2.044-2.548 1.176 0 2.002.994 2.002 2.534 0 1.61-.924 2.52-2.044 2.52-1.302 0-2.002-1.246-2.002-2.506zM77.573 440h1.358v-7.084h-1.358V440zm-6.412 0h2.73c1.778 0 2.59-.91 2.59-2.24 0-1.61-1.106-2.282-2.576-2.282H72.52v-2.562h-1.358V440zm1.358-.98v-2.562h1.176c.98 0 1.414.532 1.414 1.288 0 .742-.42 1.274-1.4 1.274h-1.19zm10.221.98h1.344v-5.922h2.478v-1.162h-6.286v1.162h2.464V440zm5.156 0h1.302l3.066-4.228c.224-.336.574-.812.616-.938h.028c0 .112-.042.602-.042.938V440h1.316v-7.084h-1.316l-3.052 4.228c-.238.336-.574.826-.63.952h-.028c.014-.07.042-.574.042-.952v-4.228h-1.302V440zm7.905-3.542c0 2.1 1.54 3.71 3.766 3.71.98 0 2.058-.378 2.744-1.008l-.574-.994c-.56.504-1.33.826-2.086.826-1.274 0-2.366-.826-2.436-2.352h5.152c.028-.196.056-.392.056-.574 0-1.82-1.064-3.318-3.066-3.318-2.016 0-3.556 1.456-3.556 3.71zm1.456-.798c.196-1.176 1.022-1.862 2.072-1.862.924 0 1.68.644 1.722 1.862h-3.794zm6.729.952h4.088v-1.204h-4.088v1.204zm9.613 3.388h1.358v-5.922h3.472V440h1.358v-7.084h-6.188V440zm7.515.07c2.086-.112 2.898-1.764 2.898-4.97v-1.064h2.086V440h1.358v-7.084h-4.746v2.184c0 2.562-.56 3.598-1.596 3.752v1.218zm7.978-3.626c0 2.156 1.708 3.724 3.822 3.724 2.1 0 3.808-1.568 3.808-3.724 0-2.142-1.708-3.696-3.822-3.696-2.1 0-3.808 1.554-3.808 3.696zm1.386 0c0-1.47 1.092-2.52 2.436-2.52 1.33 0 2.436 1.05 2.436 2.52 0 1.484-1.106 2.548-2.436 2.548-1.344 0-2.436-1.064-2.436-2.548zm7.881 3.556h8.918v1.68h1.246v-2.856h-1.008v-5.908h-1.302v5.908h-2.618v-5.908h-1.316v5.908h-2.618v-5.908h-1.302V440zm11.019-1.932c0 1.33 1.134 2.1 2.366 2.1 1.05 0 1.918-.63 2.324-1.442h.028s-.042.238-.042.56V440h1.274v-4.48c0-1.792-1.022-2.772-2.8-2.772-.994 0-2.072.364-2.646.84l.546.994c.574-.406 1.288-.686 1.988-.686.882 0 1.554.392 1.554 1.554v.14h-.364c-1.47 0-4.228.252-4.228 2.478zm1.358-.112c0-1.302 1.876-1.386 2.884-1.386h.35v.266c0 1.05-.714 2.254-1.904 2.254-.882 0-1.33-.574-1.33-1.134zm7.985.924c.896-1.4 1.008-3.416 1.008-4.48v-.378h2.128v4.858h-3.136zm-2.268 0v2.8h1.274V440h5.25v1.68h1.246v-2.8h-1.008v-5.964h-4.788v1.302c0 1.092-.112 3.304-1.106 4.662h-.868zm9.195 1.12h1.358v-3.066h1.022l2.114 3.066h1.61l-2.646-3.682v-.028l2.366-3.374h-1.54L168 435.772h-.994v-2.856h-1.358V440zm7.314 0h1.302l3.066-4.228c.224-.336.574-.812.616-.938h.028c0 .112-.042.602-.042.938V440h1.316v-7.084h-1.316l-3.052 4.228c-.238.336-.574.826-.63.952h-.028c.014-.07.042-.574.042-.952v-4.228h-1.302V440zM35.946 462h3.24l.774-2.7h4.014l.792 2.7h3.24l-4.374-12.87H40.32L35.946 462zm4.752-5.22l.738-2.502c.234-.81.522-2.214.522-2.214h.036s.288 1.404.522 2.214l.72 2.502h-2.538zm8.3 5.22h3.113v-6.66h3.42v-2.61h-6.534V462zm7.929.846l-.99 2.286s.936.648 2.16.648c1.476 0 3.096-.72 3.87-2.79l3.798-10.26h-3.402l-1.17 4.32c-.126.504-.306 1.386-.306 1.386h-.036s-.18-.936-.342-1.44l-1.368-4.266h-3.528l3.942 9.09-.18.432c-.324.792-.99.936-1.494.936-.45 0-.954-.342-.954-.342zm9.161-5.49c0 2.556 1.854 4.86 5.166 4.86 1.548 0 3.06-.594 3.978-1.53l-1.134-2.178c-.666.576-1.638 1.116-2.538 1.116-1.566 0-2.322-1.206-2.322-2.304 0-1.098.738-2.214 2.214-2.214.81 0 1.638.378 2.178.9l1.314-2.088c-.918-.99-2.394-1.404-3.69-1.404-3.33 0-5.166 2.358-5.166 4.842zM78.576 462h3.114v-6.66h2.826v-2.61h-8.748v2.61h2.808V462zm11.693 0h8.91v-2.7h-5.562c.162-1.656 5.364-2.43 5.364-6.444 0-2.736-2.286-3.942-4.392-3.942-2.322 0-3.78 1.314-4.536 2.772l2.34 1.566c.378-.72 1.08-1.368 1.908-1.368.666 0 1.386.378 1.386 1.278 0 1.854-5.562 2.7-5.562 7.452 0 .432.054.882.144 1.386zm15.51.216c3.654 0 4.842-2.988 4.842-6.678s-1.188-6.624-4.842-6.624-4.842 2.934-4.842 6.624c0 3.69 1.188 6.678 4.842 6.678zm0-2.88c-1.242 0-1.602-1.692-1.602-3.798 0-2.088.36-3.744 1.602-3.744s1.602 1.656 1.602 3.744c0 2.106-.36 3.798-1.602 3.798zm6.709 2.664h8.568v-2.7h-2.754v-10.17h-2.718l-3.474 3.258 1.818 1.944.774-.702c.342-.324.504-.684.504-.684h.036s-.018.504-.018.99v5.364h-2.736v2.7zm10.22-.342c.864.414 1.89.558 2.844.558 3.996 0 6.138-3.654 6.138-7.146 0-4.194-2.628-6.156-5.22-6.156-2.79 0-4.392 2.16-4.392 4.338 0 2.214 1.53 4.41 4.212 4.41.612 0 1.476-.216 1.764-.45h.036c-.396 1.188-1.26 2.124-2.772 2.124-.63 0-1.26-.162-1.764-.378l-.846 2.7zm4.41-6.534c-1.386 0-1.944-.972-1.944-1.89 0-.756.504-1.44 1.296-1.44.9 0 1.98 1.026 1.98 2.556 0 .594-.612.774-1.332.774z" fill="#FFB902"/><defs><linearGradient id="paint0_linear" x1="737" y1="39" x2="731.745" y2="628.998" gradientUnits="userSpaceOnUse"><stop offset=".074" stop-color="#FFB800"/><stop offset=".622" stop-color="#FFE925"/></linearGradient><linearGradient id="paint1_linear" x1="1244" y1="181" x2="35.864" y2="496.979" gradientUnits="userSpaceOnUse"><stop stop-color="#FAFAFA"/><stop offset=".091" stop-color="#fff" stop-opacity="0"/><stop offset=".901" stop-color="#fff" stop-opacity="0"/><stop offset=".978" stop-color="#fff"/></linearGradient></defs></svg>