<svg width="1300" height="530" fill="none" xmlns="http://www.w3.org/2000/svg"><path d="M246.7 183.002c0 2.898 2.002 5.166 5.068 5.166 1.75 0 2.982-.728 3.822-1.568l-.742-.994c-.798.798-1.932 1.288-3.038 1.288-2.296 0-3.682-1.806-3.682-3.906 0-2.086 1.358-3.78 3.654-3.78 1.022 0 2.128.434 2.856 1.078l.7-1.036c-.952-.91-2.338-1.302-3.612-1.302-2.94 0-5.026 2.184-5.026 5.054zm9.786 1.456c0 2.1 1.54 3.71 3.766 3.71.98 0 2.058-.378 2.744-1.008l-.574-.994c-.56.504-1.33.826-2.086.826-1.274 0-2.366-.826-2.436-2.352h5.152c.028-.196.056-.392.056-.574 0-1.82-1.064-3.318-3.066-3.318-2.016 0-3.556 1.456-3.556 3.71zm1.456-.798c.196-1.176 1.022-1.862 2.072-1.862.924 0 1.68.644 1.722 1.862h-3.794zm6.799 4.34h1.358v-3.038h3.584V188h1.358v-7.084h-1.358v2.884h-3.584v-2.884h-1.358V188zm10.103 0h1.344v-5.922h2.478v-1.162h-6.286v1.162h2.464V188zm4.387 0h1.498l1.736-2.562h1.19V188h1.358v-7.084h-2.828c-1.498 0-2.534.77-2.534 2.226 0 1.078.728 1.834 1.54 2.058v.014s-.168.182-.322.434L279.231 188zm3.248-3.556c-.826 0-1.456-.434-1.456-1.316 0-.91.588-1.274 1.498-1.274h1.134v2.59h-1.176zm4.322-.518c0 2.45 1.078 4.242 3.472 4.242 2.002 0 3.346-1.4 3.346-3.36 0-2.002-1.232-3.262-3.01-3.262-.938 0-1.876.308-2.506 1.26h-.028c.098-1.358.77-2.184 2.184-2.828l2.716-1.134-.448-1.12-2.534 1.092c-2.464 1.036-3.192 2.576-3.192 5.11zm1.414.882c0-1.246.854-2.184 2.058-2.184 1.064 0 1.974.826 1.974 2.212 0 1.372-.91 2.184-2.03 2.184-1.092 0-2.002-.812-2.002-2.212zm7.097 5.992h1.358v-3.22c0-.364-.056-.616-.056-.616h.028a2.6 2.6 0 002.198 1.204c1.862 0 3.206-1.456 3.206-3.71 0-2.198-1.19-3.71-3.108-3.71-1.036 0-1.932.476-2.38 1.33h-.028s.042-.238.042-.532v-.63h-1.26v9.884zm1.316-6.314c0-1.792.98-2.548 2.044-2.548 1.176 0 2.002.994 2.002 2.534 0 1.61-.924 2.52-2.044 2.52-1.302 0-2.002-1.246-2.002-2.506zM303.72 188h2.758c1.792 0 2.604-.91 2.604-2.24 0-1.61-1.106-2.282-2.576-2.282h-1.428v-2.562h-1.358V188zm1.358-.98v-2.562h1.218c.98 0 1.4.532 1.4 1.288 0 .742-.42 1.274-1.4 1.274h-1.218zM246.99 210h8.568v-2.7h-2.754v-10.17h-2.718l-3.474 3.258 1.818 1.944.774-.702c.342-.324.504-.684.504-.684h.036s-.018.504-.018.99v5.364h-2.736v2.7zm14.432 0h8.91v-2.7h-5.562c.162-1.656 5.364-2.43 5.364-6.444 0-2.736-2.286-3.942-4.392-3.942-2.322 0-3.78 1.314-4.536 2.772l2.34 1.566c.378-.72 1.08-1.368 1.908-1.368.666 0 1.386.378 1.386 1.278 0 1.854-5.562 2.7-5.562 7.452 0 .432.054.882.144 1.386zm15.509.216c3.654 0 4.842-2.988 4.842-6.678s-1.188-6.624-4.842-6.624-4.842 2.934-4.842 6.624c0 3.69 1.188 6.678 4.842 6.678zm0-2.88c-1.242 0-1.602-1.692-1.602-3.798 0-2.088.36-3.744 1.602-3.744s1.602 1.656 1.602 3.744c0 2.106-.36 3.798-1.602 3.798zm11.443 2.88c3.654 0 4.842-2.988 4.842-6.678s-1.188-6.624-4.842-6.624-4.842 2.934-4.842 6.624c0 3.69 1.188 6.678 4.842 6.678zm0-2.88c-1.242 0-1.602-1.692-1.602-3.798 0-2.088.36-3.744 1.602-3.744s1.602 1.656 1.602 3.744c0 2.106-.36 3.798-1.602 3.798zm15.944 2.88c3.654 0 4.842-2.988 4.842-6.678s-1.188-6.624-4.842-6.624-4.842 2.934-4.842 6.624c0 3.69 1.188 6.678 4.842 6.678zm0-2.88c-1.242 0-1.602-1.692-1.602-3.798 0-2.088.36-3.744 1.602-3.744s1.602 1.656 1.602 3.744c0 2.106-.36 3.798-1.602 3.798zm11.443 2.88c3.654 0 4.842-2.988 4.842-6.678s-1.188-6.624-4.842-6.624-4.842 2.934-4.842 6.624c0 3.69 1.188 6.678 4.842 6.678zm0-2.88c-1.242 0-1.602-1.692-1.602-3.798 0-2.088.36-3.744 1.602-3.744s1.602 1.656 1.602 3.744c0 2.106-.36 3.798-1.602 3.798zm11.443 2.88c3.654 0 4.842-2.988 4.842-6.678s-1.188-6.624-4.842-6.624-4.842 2.934-4.842 6.624c0 3.69 1.188 6.678 4.842 6.678zm0-2.88c-1.242 0-1.602-1.692-1.602-3.798 0-2.088.36-3.744 1.602-3.744s1.602 1.656 1.602 3.744c0 2.106-.36 3.798-1.602 3.798zm11.84 2.664v-1.926h-1.44v-1.746h1.44v-1.404h-1.44v-2.232h1.44v-5.544h4.104c1.656 0 2.862.336 3.618 1.008.768.672 1.152 1.596 1.152 2.772a4.26 4.26 0 01-.468 1.962c-.312.612-.834 1.104-1.566 1.476-.72.372-1.704.558-2.952.558h-1.17v1.404h2.772v1.746h-2.772V210h-2.718zm2.718-7.308h.9c.768 0 1.374-.132 1.818-.396.456-.264.684-.69.684-1.278 0-1.092-.72-1.638-2.16-1.638h-1.242v3.312zM542.534 11.796c1.162-1.778 1.4-4.396 1.4-6.566v-.91h3.094v7.476h-4.494zm-2.45 0v3.164h1.288V13h6.888v1.96h1.246v-3.164h-1.092v-8.68h-5.782v2.03c0 2.156-.182 4.718-1.554 6.65h-.994zm10.389-2.338c0 2.1 1.54 3.71 3.766 3.71.98 0 2.058-.378 2.744-1.008l-.574-.994c-.56.504-1.33.826-2.086.826-1.274 0-2.366-.826-2.436-2.352h5.152c.028-.196.056-.392.056-.574 0-1.82-1.064-3.318-3.066-3.318-2.016 0-3.556 1.456-3.556 3.71zm1.456-.798c.196-1.176 1.022-1.862 2.072-1.862.924 0 1.68.644 1.722 1.862h-3.794zm6.799 4.34h1.358V9.934h1.022L563.222 13h1.61l-2.646-3.682V9.29l2.366-3.374h-1.54l-1.932 2.856h-.994V5.916h-1.358V13zm6.658-1.932c0 1.33 1.134 2.1 2.366 2.1 1.05 0 1.918-.63 2.324-1.442h.028s-.042.238-.042.56V13h1.274V8.52c0-1.792-1.022-2.772-2.8-2.772-.994 0-2.072.364-2.646.84l.546.994c.574-.406 1.288-.686 1.988-.686.882 0 1.554.392 1.554 1.554v.14h-.364c-1.47 0-4.228.252-4.228 2.478zm1.358-.112c0-1.302 1.876-1.386 2.884-1.386h.35v.266c0 1.05-.714 2.254-1.904 2.254-.882 0-1.33-.574-1.33-1.134zm6.291-2.03c0 2.45 1.078 4.242 3.472 4.242 2.002 0 3.346-1.4 3.346-3.36 0-2.002-1.232-3.262-3.01-3.262-.938 0-1.876.308-2.506 1.26h-.028c.098-1.358.77-2.184 2.184-2.828l2.716-1.134-.448-1.12-2.534 1.092c-2.464 1.036-3.192 2.576-3.192 5.11zm1.414.882c0-1.246.854-2.184 2.058-2.184 1.064 0 1.974.826 1.974 2.212 0 1.372-.91 2.184-2.03 2.184-1.092 0-2.002-.812-2.002-2.212zm7.097 5.992h1.358v-3.22c0-.364-.056-.616-.056-.616h.028a2.6 2.6 0 002.198 1.204c1.862 0 3.206-1.456 3.206-3.71 0-2.198-1.19-3.71-3.108-3.71-1.036 0-1.932.476-2.38 1.33h-.028s.042-.238.042-.532v-.63h-1.26V15.8zm1.316-6.314c0-1.792.98-2.548 2.044-2.548 1.176 0 2.002.994 2.002 2.534 0 1.61-.924 2.52-2.044 2.52-1.302 0-2.002-1.246-2.002-2.506zM589.954 13h2.758c1.792 0 2.604-.91 2.604-2.24 0-1.61-1.106-2.282-2.576-2.282h-1.428V5.916h-1.358V13zm1.358-.98V9.458h1.218c.98 0 1.4.532 1.4 1.288 0 .742-.42 1.274-1.4 1.274h-1.218zM540.99 35h8.91v-2.7h-5.562c.162-1.656 5.364-2.43 5.364-6.444 0-2.736-2.286-3.942-4.392-3.942-2.322 0-3.78 1.314-4.536 2.772l2.34 1.566c.378-.72 1.08-1.368 1.908-1.368.666 0 1.386.378 1.386 1.278 0 1.854-5.562 2.7-5.562 7.452 0 .432.054.882.144 1.386zm15.419 0h3.294l5.4-10.674V22.13h-9.234v2.7h5.094c.648 0 .756-.054.756-.054v.036s-.306.288-.756 1.17L556.409 35zm14.733.216c3.654 0 4.842-2.988 4.842-6.678s-1.188-6.624-4.842-6.624-4.842 2.934-4.842 6.624c0 3.69 1.188 6.678 4.842 6.678zm0-2.88c-1.242 0-1.602-1.692-1.602-3.798 0-2.088.36-3.744 1.602-3.744s1.602 1.656 1.602 3.744c0 2.106-.36 3.798-1.602 3.798zm11.443 2.88c3.654 0 4.842-2.988 4.842-6.678s-1.188-6.624-4.842-6.624-4.842 2.934-4.842 6.624c0 3.69 1.188 6.678 4.842 6.678zm0-2.88c-1.242 0-1.602-1.692-1.602-3.798 0-2.088.36-3.744 1.602-3.744s1.602 1.656 1.602 3.744c0 2.106-.36 3.798-1.602 3.798zm15.944 2.88c3.654 0 4.842-2.988 4.842-6.678s-1.188-6.624-4.842-6.624-4.842 2.934-4.842 6.624c0 3.69 1.188 6.678 4.842 6.678zm0-2.88c-1.242 0-1.602-1.692-1.602-3.798 0-2.088.36-3.744 1.602-3.744s1.602 1.656 1.602 3.744c0 2.106-.36 3.798-1.602 3.798zm11.443 2.88c3.654 0 4.842-2.988 4.842-6.678s-1.188-6.624-4.842-6.624-4.842 2.934-4.842 6.624c0 3.69 1.188 6.678 4.842 6.678zm0-2.88c-1.242 0-1.602-1.692-1.602-3.798 0-2.088.36-3.744 1.602-3.744s1.602 1.656 1.602 3.744c0 2.106-.36 3.798-1.602 3.798zm11.443 2.88c3.654 0 4.842-2.988 4.842-6.678s-1.188-6.624-4.842-6.624-4.842 2.934-4.842 6.624c0 3.69 1.188 6.678 4.842 6.678zm0-2.88c-1.242 0-1.602-1.692-1.602-3.798 0-2.088.36-3.744 1.602-3.744s1.602 1.656 1.602 3.744c0 2.106-.36 3.798-1.602 3.798zM633.255 35v-1.926h-1.44v-1.746h1.44v-1.404h-1.44v-2.232h1.44v-5.544h4.104c1.656 0 2.862.336 3.618 1.008.768.672 1.152 1.596 1.152 2.772a4.26 4.26 0 01-.468 1.962c-.312.612-.834 1.104-1.566 1.476-.72.372-1.704.558-2.952.558h-1.17v1.404h2.772v1.746h-2.772V35h-2.718zm2.718-7.308h.9c.768 0 1.374-.132 1.818-.396.456-.264.684-.69.684-1.278 0-1.092-.72-1.638-2.16-1.638h-1.242v3.312zM824.924 181h1.386l.476-6.23c.056-.602.028-1.484.028-1.484h.028s.308.952.532 1.484l1.96 4.452h1.232l1.974-4.452c.224-.546.532-1.456.532-1.456h.028s-.028.854.028 1.456l.476 6.23h1.372l-.798-9.884h-1.442l-2.282 5.348c-.224.546-.49 1.33-.49 1.33h-.028s-.252-.784-.476-1.33l-2.282-5.348h-1.442l-.812 9.884zm11.446-1.932c0 1.33 1.134 2.1 2.366 2.1 1.05 0 1.918-.63 2.324-1.442h.028s-.042.238-.042.56V181h1.274v-4.48c0-1.792-1.022-2.772-2.8-2.772-.994 0-2.072.364-2.646.84l.546.994c.574-.406 1.288-.686 1.988-.686.882 0 1.554.392 1.554 1.554v.14h-.364c-1.47 0-4.228.252-4.228 2.478zm1.358-.112c0-1.302 1.876-1.386 2.884-1.386h.35v.266c0 1.05-.714 2.254-1.904 2.254-.882 0-1.33-.574-1.33-1.134zm6.599 4.844h1.358v-3.22c0-.364-.056-.616-.056-.616h.028a2.6 2.6 0 002.198 1.204c1.862 0 3.206-1.456 3.206-3.71 0-2.198-1.19-3.71-3.108-3.71-1.036 0-1.932.476-2.38 1.33h-.028s.042-.238.042-.532v-.63h-1.26v9.884zm1.316-6.314c0-1.792.98-2.548 2.044-2.548 1.176 0 2.002.994 2.002 2.534 0 1.61-.924 2.52-2.044 2.52-1.302 0-2.002-1.246-2.002-2.506zm8.664 3.514h1.344v-5.922h2.478v-1.162h-6.286v1.162h2.464V181zm-24.817 22h8.568v-2.7h-2.754v-10.17h-2.718l-3.474 3.258 1.818 1.944.774-.702c.342-.324.504-.684.504-.684h.036s-.018.504-.018.99v5.364h-2.736v2.7zm14.432 0h8.91v-2.7h-5.562c.162-1.656 5.364-2.43 5.364-6.444 0-2.736-2.286-3.942-4.392-3.942-2.322 0-3.78 1.314-4.536 2.772l2.34 1.566c.378-.72 1.08-1.368 1.908-1.368.666 0 1.386.378 1.386 1.278 0 1.854-5.562 2.7-5.562 7.452 0 .432.054.882.144 1.386zm15.509.216c3.654 0 4.842-2.988 4.842-6.678s-1.188-6.624-4.842-6.624-4.842 2.934-4.842 6.624c0 3.69 1.188 6.678 4.842 6.678zm0-2.88c-1.242 0-1.602-1.692-1.602-3.798 0-2.088.36-3.744 1.602-3.744s1.602 1.656 1.602 3.744c0 2.106-.36 3.798-1.602 3.798zm11.443 2.88c3.654 0 4.842-2.988 4.842-6.678s-1.188-6.624-4.842-6.624-4.842 2.934-4.842 6.624c0 3.69 1.188 6.678 4.842 6.678zm0-2.88c-1.242 0-1.602-1.692-1.602-3.798 0-2.088.36-3.744 1.602-3.744s1.602 1.656 1.602 3.744c0 2.106-.36 3.798-1.602 3.798zm15.944 2.88c3.654 0 4.842-2.988 4.842-6.678s-1.188-6.624-4.842-6.624-4.842 2.934-4.842 6.624c0 3.69 1.188 6.678 4.842 6.678zm0-2.88c-1.242 0-1.602-1.692-1.602-3.798 0-2.088.36-3.744 1.602-3.744s1.602 1.656 1.602 3.744c0 2.106-.36 3.798-1.602 3.798zm11.443 2.88c3.654 0 4.842-2.988 4.842-6.678s-1.188-6.624-4.842-6.624-4.842 2.934-4.842 6.624c0 3.69 1.188 6.678 4.842 6.678zm0-2.88c-1.242 0-1.602-1.692-1.602-3.798 0-2.088.36-3.744 1.602-3.744s1.602 1.656 1.602 3.744c0 2.106-.36 3.798-1.602 3.798zm11.443 2.88c3.654 0 4.842-2.988 4.842-6.678s-1.188-6.624-4.842-6.624-4.842 2.934-4.842 6.624c0 3.69 1.188 6.678 4.842 6.678zm0-2.88c-1.242 0-1.602-1.692-1.602-3.798 0-2.088.36-3.744 1.602-3.744s1.602 1.656 1.602 3.744c0 2.106-.36 3.798-1.602 3.798zm11.84 2.664v-1.926h-1.44v-1.746h1.44v-1.404h-1.44v-2.232h1.44v-5.544h4.104c1.656 0 2.862.336 3.618 1.008.768.672 1.152 1.596 1.152 2.772a4.26 4.26 0 01-.468 1.962c-.312.612-.834 1.104-1.566 1.476-.72.372-1.704.558-2.952.558h-1.17v1.404h2.772v1.746h-2.772V203h-2.718zm2.718-7.308h.9c.768 0 1.374-.132 1.818-.396.456-.264.684-.69.684-1.278 0-1.092-.72-1.638-2.16-1.638h-1.242v3.312zM1016.92 96h1.39l.48-6.23c.05-.602.02-1.484.02-1.484h.03s.31.952.53 1.484l1.96 4.452h1.24l1.97-4.452c.22-.546.53-1.456.53-1.456h.03s-.03.854.03 1.456l.47 6.23h1.38l-.8-9.884h-1.44l-2.29 5.348c-.22.546-.49 1.33-.49 1.33h-.02s-.26-.784-.48-1.33l-2.28-5.348h-1.44l-.82 9.884zm11.45-1.932c0 1.33 1.13 2.1 2.37 2.1 1.05 0 1.91-.63 2.32-1.442h.03s-.04.238-.04.56V96h1.27v-4.48c0-1.792-1.02-2.772-2.8-2.772-.99 0-2.07.364-2.65.84l.55.994c.57-.406 1.29-.686 1.99-.686.88 0 1.55.392 1.55 1.554v.14h-.36c-1.47 0-4.23.252-4.23 2.478zm1.36-.112c0-1.302 1.87-1.386 2.88-1.386h.35v.266c0 1.05-.71 2.254-1.9 2.254-.88 0-1.33-.574-1.33-1.134zm9.72-5.852c1.09 0 2.07-.644 2.07-1.792v-.21h-1.08v.182c0 .63-.5.938-.99.938s-.98-.308-.98-.924v-.196h-1.09v.21c0 1.148.99 1.792 2.07 1.792zM1036.33 96h1.3l3.07-4.228c.22-.336.57-.812.61-.938h.03c0 .112-.04.602-.04.938V96h1.31v-7.084h-1.31l-3.05 4.228c-.24.336-.58.826-.63.952h-.03c.01-.07.04-.574.04-.952v-4.228h-1.3V96zm-19.34 22h8.91v-2.7h-5.56c.16-1.656 5.36-2.43 5.36-6.444 0-2.736-2.28-3.942-4.39-3.942-2.32 0-3.78 1.314-4.54 2.772l2.34 1.566c.38-.72 1.08-1.368 1.91-1.368.67 0 1.39.378 1.39 1.278 0 1.854-5.56 2.7-5.56 7.452 0 .432.05.882.14 1.386zm14.72-3.114h5.7V118h3.12v-3.114h1.53v-2.61h-1.53v-7.146h-3.85l-4.97 7.848v1.908zm3.2-2.61v-.036l1.95-2.952c.36-.54.63-1.332.63-1.332h.03s-.11.738-.11 1.44v2.88h-2.5zm13.48 5.94c3.65 0 4.84-2.988 4.84-6.678s-1.19-6.624-4.84-6.624-4.84 2.934-4.84 6.624c0 3.69 1.19 6.678 4.84 6.678zm0-2.88c-1.24 0-1.6-1.692-1.6-3.798 0-2.088.36-3.744 1.6-3.744 1.24 0 1.6 1.656 1.6 3.744 0 2.106-.36 3.798-1.6 3.798zm11.44 2.88c3.66 0 4.85-2.988 4.85-6.678s-1.19-6.624-4.85-6.624c-3.65 0-4.84 2.934-4.84 6.624 0 3.69 1.19 6.678 4.84 6.678zm0-2.88c-1.24 0-1.6-1.692-1.6-3.798 0-2.088.36-3.744 1.6-3.744 1.25 0 1.61 1.656 1.61 3.744 0 2.106-.36 3.798-1.61 3.798zm15.95 2.88c3.65 0 4.84-2.988 4.84-6.678s-1.19-6.624-4.84-6.624c-3.66 0-4.85 2.934-4.85 6.624 0 3.69 1.19 6.678 4.85 6.678zm0-2.88c-1.25 0-1.61-1.692-1.61-3.798 0-2.088.36-3.744 1.61-3.744 1.24 0 1.6 1.656 1.6 3.744 0 2.106-.36 3.798-1.6 3.798zm11.44 2.88c3.65 0 4.84-2.988 4.84-6.678s-1.19-6.624-4.84-6.624-4.84 2.934-4.84 6.624c0 3.69 1.19 6.678 4.84 6.678zm0-2.88c-1.24 0-1.6-1.692-1.6-3.798 0-2.088.36-3.744 1.6-3.744 1.24 0 1.6 1.656 1.6 3.744 0 2.106-.36 3.798-1.6 3.798zm11.44 2.88c3.66 0 4.85-2.988 4.85-6.678s-1.19-6.624-4.85-6.624c-3.65 0-4.84 2.934-4.84 6.624 0 3.69 1.19 6.678 4.84 6.678zm0-2.88c-1.24 0-1.6-1.692-1.6-3.798 0-2.088.36-3.744 1.6-3.744 1.25 0 1.61 1.656 1.61 3.744 0 2.106-.36 3.798-1.61 3.798zM1110.5 118v-1.926h-1.44v-1.746h1.44v-1.404h-1.44v-2.232h1.44v-5.544h4.11c1.65 0 2.86.336 3.61 1.008.77.672 1.16 1.596 1.16 2.772 0 .696-.16 1.35-.47 1.962-.31.612-.84 1.104-1.57 1.476-.72.372-1.7.558-2.95.558h-1.17v1.404h2.77v1.746h-2.77V118h-2.72zm2.72-7.308h.9c.77 0 1.37-.132 1.82-.396.45-.264.68-.69.68-1.278 0-1.092-.72-1.638-2.16-1.638h-1.24v3.312z" fill="#FFB902"/><path d="M2 489.433c9 5.788 20.586 8.757 34.055 9.51C94.613 502.219 162.881 362.3 162.881 362.3s46.972-117.623 94.238-113.619c47.266 4.004 75.904 78.388 98.643 98.603 22.738 20.216 69.607 26.716 94.532 0 54.355-58.261 52.256-269.783 98.055-270.283 45.798-.5 25.249 229.001 92.77 270.283 35.506 21.708 61.419 19.11 96.588 0C787 320.5 788.868 244.677 832.826 244.677c43.957 0 51.191 105.369 95.118 102.607 56.509-3.552 57.835-186.695 95.416-185.694 37.58 1.001 29.06 143.65 98.64 185.694C1191.58 389.328 1259.5 297 1296.5 221" stroke="url(#paint0_linear)" stroke-width="7"/><path d="M2 489.433c9 5.788 20.586 8.757 34.055 9.51C94.613 502.219 162.881 362.3 162.881 362.3s46.972-117.623 94.238-113.619c47.266 4.004 75.904 78.388 98.643 98.603 22.738 20.216 69.607 26.716 94.532 0 54.355-58.261 52.256-269.783 98.055-270.283 45.798-.5 25.249 229.001 92.77 270.283 35.506 21.708 61.419 19.11 96.588 0C787 320.5 788.868 244.677 832.826 244.677c43.957 0 51.191 105.369 95.118 102.607 56.509-3.552 57.835-186.695 95.416-185.694 37.58 1.001 29.06 143.65 98.64 185.694C1191.58 389.328 1259.5 297 1296.5 221" stroke="url(#paint1_linear)" stroke-width="7"/><circle cx="1022.5" cy="139.5" r="6.5" fill="#FFB902"/><circle cx="830.5" cy="227.5" r="6.5" fill="#FFB902"/><circle cx="546.5" cy="56.5" r="6.5" fill="#FFB902"/><circle cx="252.5" cy="231.5" r="6.5" fill="#FFB902"/><path d="M100.302 503h1.358l4.41-6.412c.35-.546.826-1.442.826-1.442h.028s-.084.882-.084 1.442V503h1.372v-9.884h-1.358l-4.382 6.398c-.35.532-.84 1.456-.84 1.456h-.028s.084-.882.084-1.442v-6.412h-1.386V503zm10.193 0h1.358v-2.996h1.288c.252 1.848 1.75 3.164 3.626 3.164 2.044 0 3.682-1.568 3.682-3.724 0-2.142-1.638-3.696-3.696-3.696-1.862 0-3.36 1.302-3.612 3.136h-1.288v-2.968h-1.358V503zm3.962-3.556c0-1.47 1.022-2.52 2.31-2.52 1.274 0 2.296 1.05 2.296 2.52 0 1.484-1.022 2.548-2.296 2.548-1.288 0-2.31-1.064-2.31-2.548zm6.671 3.626c2.086-.112 2.898-1.764 2.898-4.97v-1.064h2.086V503h1.358v-7.084h-4.746v2.184c0 2.562-.56 3.598-1.596 3.752v1.218zm8.44-.07h2.758c1.792 0 2.604-.91 2.604-2.24 0-1.61-1.106-2.282-2.576-2.282h-1.428v-2.562h-1.358V503zm1.358-.98v-2.562h1.218c.98 0 1.4.532 1.4 1.288 0 .742-.42 1.274-1.4 1.274h-1.218zM99.81 519.06c0 4.194 2.628 6.156 5.22 6.156 2.79 0 4.392-2.16 4.392-4.338 0-2.214-1.53-4.41-4.212-4.41-.612 0-1.458.234-1.764.45h-.036c.396-1.188 1.26-2.124 2.772-2.124.576 0 1.476.216 1.764.378l.846-2.7c-.828-.396-1.926-.558-2.844-.558-3.996 0-6.138 3.654-6.138 7.146zm5.22 3.276c-.9 0-1.98-1.026-1.98-2.556 0-.594.612-.774 1.332-.774 1.386 0 1.944.972 1.944 1.89 0 .756-.504 1.44-1.296 1.44zm10.768 2.88c3.654 0 4.842-2.988 4.842-6.678s-1.188-6.624-4.842-6.624-4.842 2.934-4.842 6.624c0 3.69 1.188 6.678 4.842 6.678zm0-2.88c-1.242 0-1.602-1.692-1.602-3.798 0-2.088.36-3.744 1.602-3.744s1.602 1.656 1.602 3.744c0 2.106-.36 3.798-1.602 3.798zm11.444 2.88c3.654 0 4.842-2.988 4.842-6.678s-1.188-6.624-4.842-6.624-4.842 2.934-4.842 6.624c0 3.69 1.188 6.678 4.842 6.678zm0-2.88c-1.242 0-1.602-1.692-1.602-3.798 0-2.088.36-3.744 1.602-3.744s1.602 1.656 1.602 3.744c0 2.106-.36 3.798-1.602 3.798zm15.943 2.88c3.654 0 4.842-2.988 4.842-6.678s-1.188-6.624-4.842-6.624-4.842 2.934-4.842 6.624c0 3.69 1.188 6.678 4.842 6.678zm0-2.88c-1.242 0-1.602-1.692-1.602-3.798 0-2.088.36-3.744 1.602-3.744s1.602 1.656 1.602 3.744c0 2.106-.36 3.798-1.602 3.798zm11.443 2.88c3.654 0 4.842-2.988 4.842-6.678s-1.188-6.624-4.842-6.624-4.842 2.934-4.842 6.624c0 3.69 1.188 6.678 4.842 6.678zm0-2.88c-1.242 0-1.602-1.692-1.602-3.798 0-2.088.36-3.744 1.602-3.744s1.602 1.656 1.602 3.744c0 2.106-.36 3.798-1.602 3.798zm11.444 2.88c3.654 0 4.842-2.988 4.842-6.678s-1.188-6.624-4.842-6.624-4.842 2.934-4.842 6.624c0 3.69 1.188 6.678 4.842 6.678zm0-2.88c-1.242 0-1.602-1.692-1.602-3.798 0-2.088.36-3.744 1.602-3.744s1.602 1.656 1.602 3.744c0 2.106-.36 3.798-1.602 3.798zM177.911 525v-1.926h-1.44v-1.746h1.44v-1.404h-1.44v-2.232h1.44v-5.544h4.104c1.656 0 2.862.336 3.618 1.008.768.672 1.152 1.596 1.152 2.772a4.26 4.26 0 01-.468 1.962c-.312.612-.834 1.104-1.566 1.476-.72.372-1.704.558-2.952.558h-1.17v1.404h2.772v1.746h-2.772V525h-2.718zm2.718-7.308h.9c.768 0 1.374-.132 1.818-.396.456-.264.684-.69.684-1.278 0-1.092-.72-1.638-2.16-1.638h-1.242v3.312z" fill="#FFB902"/><circle cx="105.5" cy="473.5" r="6.5" fill="#FFB902"/><path d="M152.21 432h1.414l.994-2.842h3.724l.994 2.842h1.428l-3.542-9.884h-1.47L152.21 432zm2.772-3.99l1.106-3.122c.168-.518.378-1.414.378-1.414h.028s.224.896.392 1.414l1.092 3.122h-2.996zm7.037 3.99h3.024c1.54 0 2.604-.7 2.604-2.016 0-.784-.462-1.47-1.344-1.68v-.014c.644-.28 1.008-.868 1.008-1.554 0-1.19-.938-1.82-2.366-1.82h-2.926V432zm1.358-4.088v-2.058h1.288c.854 0 1.26.336 1.26.98 0 .658-.406 1.078-1.218 1.078h-1.33zm0 3.136v-2.226h1.442c.938 0 1.456.42 1.456 1.12 0 .658-.462 1.106-1.442 1.106h-1.456zm5.915.952h1.358v-5.922h3.08v-1.162h-4.438V432zm5.433 1.47l-.476 1.036s.574.434 1.358.434c.994 0 1.876-.56 2.296-1.666l3.332-8.358h-1.47l-1.722 4.648c-.126.364-.238.84-.238.84h-.028s-.126-.504-.266-.854l-1.778-4.634h-1.526l2.968 7-.35.812c-.266.644-.728 1.05-1.288 1.05-.42 0-.812-.308-.812-.308zm7.134-5.012c0 2.128 1.554 3.71 3.794 3.71 1.106 0 2.184-.448 2.828-1.134l-.546-.994c-.546.574-1.4.952-2.184.952-1.47 0-2.506-1.106-2.506-2.548s1.036-2.52 2.464-2.52a2.87 2.87 0 011.96.812l.644-.952c-.672-.714-1.722-1.036-2.66-1.036-2.226 0-3.794 1.61-3.794 3.71zm9.799 3.542h1.344v-5.922h2.478v-1.162h-6.286v1.162h2.464V432zm-38.884 18.22c0 2.052 1.638 3.996 4.77 3.996 3.186 0 4.77-1.962 4.77-3.924 0-1.296-.648-2.106-1.512-2.7.342-.414 1.26-1.656 1.26-2.952 0-2.394-1.962-3.726-4.356-3.726-3.006 0-4.32 1.836-4.32 3.708 0 1.08.486 1.854 1.17 2.466-.522.396-1.782 1.548-1.782 3.132zm5.742-3.762c-1.116-.468-2.052-.918-2.052-1.764 0-.558.36-1.008 1.17-1.008.846 0 1.35.468 1.35 1.188a3 3 0 01-.468 1.584zm-2.52 3.492c0-.702.396-1.26.702-1.584 1.26.594 2.394 1.026 2.394 1.764 0 .846-.594 1.314-1.548 1.314-.864 0-1.548-.666-1.548-1.494zm12.908 4.266c3.654 0 4.842-2.988 4.842-6.678s-1.188-6.624-4.842-6.624-4.842 2.934-4.842 6.624c0 3.69 1.188 6.678 4.842 6.678zm0-2.88c-1.242 0-1.602-1.692-1.602-3.798 0-2.088.36-3.744 1.602-3.744s1.602 1.656 1.602 3.744c0 2.106-.36 3.798-1.602 3.798zm11.443 2.88c3.654 0 4.842-2.988 4.842-6.678s-1.188-6.624-4.842-6.624-4.842 2.934-4.842 6.624c0 3.69 1.188 6.678 4.842 6.678zm0-2.88c-1.242 0-1.602-1.692-1.602-3.798 0-2.088.36-3.744 1.602-3.744s1.602 1.656 1.602 3.744c0 2.106-.36 3.798-1.602 3.798zm15.943 2.88c3.654 0 4.842-2.988 4.842-6.678s-1.188-6.624-4.842-6.624-4.842 2.934-4.842 6.624c0 3.69 1.188 6.678 4.842 6.678zm0-2.88c-1.242 0-1.602-1.692-1.602-3.798 0-2.088.36-3.744 1.602-3.744s1.602 1.656 1.602 3.744c0 2.106-.36 3.798-1.602 3.798zm11.444 2.88c3.654 0 4.842-2.988 4.842-6.678s-1.188-6.624-4.842-6.624-4.842 2.934-4.842 6.624c0 3.69 1.188 6.678 4.842 6.678zm0-2.88c-1.242 0-1.602-1.692-1.602-3.798 0-2.088.36-3.744 1.602-3.744s1.602 1.656 1.602 3.744c0 2.106-.36 3.798-1.602 3.798zm11.443 2.88c3.654 0 4.842-2.988 4.842-6.678s-1.188-6.624-4.842-6.624-4.842 2.934-4.842 6.624c0 3.69 1.188 6.678 4.842 6.678zm0-2.88c-1.242 0-1.602-1.692-1.602-3.798 0-2.088.36-3.744 1.602-3.744s1.602 1.656 1.602 3.744c0 2.106-.36 3.798-1.602 3.798zM231.016 454v-1.926h-1.44v-1.746h1.44v-1.404h-1.44v-2.232h1.44v-5.544h4.104c1.656 0 2.862.336 3.618 1.008.768.672 1.152 1.596 1.152 2.772a4.26 4.26 0 01-.468 1.962c-.312.612-.834 1.104-1.566 1.476-.72.372-1.704.558-2.952.558h-1.17v1.404h2.772v1.746h-2.772V454h-2.718zm2.718-7.308h.9c.768 0 1.374-.132 1.818-.396.456-.264.684-.69.684-1.278 0-1.092-.72-1.638-2.16-1.638h-1.242v3.312z" fill="#FFB902"/><circle cx="158.5" cy="402.5" r="6.5" fill="#FFB902"/><path d="M343.686 394.988c0 2.912 2.226 5.18 5.082 5.18s5.068-2.268 5.068-5.18c0-2.842-2.212-5.04-5.068-5.04-2.856 0-5.082 2.198-5.082 5.04zm1.428 0c0-2.142 1.624-3.78 3.654-3.78 2.016 0 3.64 1.638 3.64 3.78 0 2.212-1.624 3.906-3.64 3.906-2.03 0-3.654-1.694-3.654-3.906zM355.493 400h1.358v-3.066h1.022l2.114 3.066h1.61l-2.646-3.682v-.028l2.366-3.374h-1.54l-1.932 2.856h-.994v-2.856h-1.358V400zm9.023 0h1.344v-5.922h2.478v-1.162h-6.286v1.162h2.464V400zm4.386 0h1.498l1.736-2.562h1.19V400h1.358v-7.084h-2.828c-1.498 0-2.534.77-2.534 2.226 0 1.078.728 1.834 1.54 2.058v.014s-.168.182-.322.434L368.902 400zm3.248-3.556c-.826 0-1.456-.434-1.456-1.316 0-.91.588-1.274 1.498-1.274h1.134v2.59h-1.176zm4.322-.518c0 2.45 1.078 4.242 3.472 4.242 2.002 0 3.346-1.4 3.346-3.36 0-2.002-1.232-3.262-3.01-3.262-.938 0-1.876.308-2.506 1.26h-.028c.098-1.358.77-2.184 2.184-2.828l2.716-1.134-.448-1.12-2.534 1.092c-2.464 1.036-3.192 2.576-3.192 5.11zm1.414.882c0-1.246.854-2.184 2.058-2.184 1.064 0 1.974.826 1.974 2.212 0 1.372-.91 2.184-2.03 2.184-1.092 0-2.002-.812-2.002-2.212zm7.098 5.992h1.358v-3.22c0-.364-.056-.616-.056-.616h.028a2.6 2.6 0 002.198 1.204c1.862 0 3.206-1.456 3.206-3.71 0-2.198-1.19-3.71-3.108-3.71-1.036 0-1.932.476-2.38 1.33h-.028s.042-.238.042-.532v-.63h-1.26v9.884zm1.316-6.314c0-1.792.98-2.548 2.044-2.548 1.176 0 2.002.994 2.002 2.534 0 1.61-.924 2.52-2.044 2.52-1.302 0-2.002-1.246-2.002-2.506zm7.092 3.514h2.758c1.792 0 2.604-.91 2.604-2.24 0-1.61-1.106-2.282-2.576-2.282h-1.428v-2.562h-1.358V400zm1.358-.98v-2.562h1.218c.98 0 1.4.532 1.4 1.288 0 .742-.42 1.274-1.4 1.274h-1.218zm-50.472 22.638c.864.414 1.89.558 2.844.558 3.996 0 6.138-3.654 6.138-7.146 0-4.194-2.628-6.156-5.22-6.156-2.79 0-4.392 2.16-4.392 4.338 0 2.214 1.53 4.41 4.212 4.41.612 0 1.476-.216 1.764-.45h.036c-.396 1.188-1.26 2.124-2.772 2.124-.63 0-1.26-.162-1.764-.378l-.846 2.7zm4.41-6.534c-1.386 0-1.944-.972-1.944-1.89 0-.756.504-1.44 1.296-1.44.9 0 1.98 1.026 1.98 2.556 0 .594-.612.774-1.332.774zm11.11 7.092c3.654 0 4.842-2.988 4.842-6.678s-1.188-6.624-4.842-6.624-4.842 2.934-4.842 6.624c0 3.69 1.188 6.678 4.842 6.678zm0-2.88c-1.242 0-1.602-1.692-1.602-3.798 0-2.088.36-3.744 1.602-3.744s1.602 1.656 1.602 3.744c0 2.106-.36 3.798-1.602 3.798zm11.444 2.88c3.654 0 4.842-2.988 4.842-6.678s-1.188-6.624-4.842-6.624-4.842 2.934-4.842 6.624c0 3.69 1.188 6.678 4.842 6.678zm0-2.88c-1.242 0-1.602-1.692-1.602-3.798 0-2.088.36-3.744 1.602-3.744s1.602 1.656 1.602 3.744c0 2.106-.36 3.798-1.602 3.798zm15.943 2.88c3.654 0 4.842-2.988 4.842-6.678s-1.188-6.624-4.842-6.624-4.842 2.934-4.842 6.624c0 3.69 1.188 6.678 4.842 6.678zm0-2.88c-1.242 0-1.602-1.692-1.602-3.798 0-2.088.36-3.744 1.602-3.744s1.602 1.656 1.602 3.744c0 2.106-.36 3.798-1.602 3.798zm11.443 2.88c3.654 0 4.842-2.988 4.842-6.678s-1.188-6.624-4.842-6.624-4.842 2.934-4.842 6.624c0 3.69 1.188 6.678 4.842 6.678zm0-2.88c-1.242 0-1.602-1.692-1.602-3.798 0-2.088.36-3.744 1.602-3.744s1.602 1.656 1.602 3.744c0 2.106-.36 3.798-1.602 3.798zm11.444 2.88c3.654 0 4.842-2.988 4.842-6.678s-1.188-6.624-4.842-6.624-4.842 2.934-4.842 6.624c0 3.69 1.188 6.678 4.842 6.678zm0-2.88c-1.242 0-1.602-1.692-1.602-3.798 0-2.088.36-3.744 1.602-3.744s1.602 1.656 1.602 3.744c0 2.106-.36 3.798-1.602 3.798zM421.911 422v-1.926h-1.44v-1.746h1.44v-1.404h-1.44v-2.232h1.44v-5.544h4.104c1.656 0 2.862.336 3.618 1.008.768.672 1.152 1.596 1.152 2.772a4.26 4.26 0 01-.468 1.962c-.312.612-.834 1.104-1.566 1.476-.72.372-1.704.558-2.952.558h-1.17v1.404h2.772v1.746h-2.772V422h-2.718zm2.718-7.308h.9c.768 0 1.374-.132 1.818-.396.456-.264.684-.69.684-1.278 0-1.092-.72-1.638-2.16-1.638h-1.242v3.312z" fill="#FFB902"/><circle cx="349.5" cy="370.5" r="6.5" fill="#FFB902"/><path d="M451.302 400h1.386v-4.34h5.138V400h1.372v-9.884h-1.372v4.34h-5.138v-4.34h-1.386V400zm9.649-3.556c0 2.156 1.708 3.724 3.822 3.724 2.1 0 3.808-1.568 3.808-3.724 0-2.142-1.708-3.696-3.822-3.696-2.1 0-3.808 1.554-3.808 3.696zm1.386 0c0-1.47 1.092-2.52 2.436-2.52 1.33 0 2.436 1.05 2.436 2.52 0 1.484-1.106 2.548-2.436 2.548-1.344 0-2.436-1.064-2.436-2.548zm7.167 3.556h1.498l1.736-2.562h1.19V400h1.358v-7.084h-2.828c-1.498 0-2.534.77-2.534 2.226 0 1.078.728 1.834 1.54 2.058v.014s-.168.182-.322.434L469.504 400zm3.248-3.556c-.826 0-1.456-.434-1.456-1.316 0-.91.588-1.274 1.498-1.274h1.134v2.59h-1.176zm4.322-.518c0 2.45 1.078 4.242 3.472 4.242 2.002 0 3.346-1.4 3.346-3.36 0-2.002-1.232-3.262-3.01-3.262-.938 0-1.876.308-2.506 1.26h-.028c.098-1.358.77-2.184 2.184-2.828l2.716-1.134-.448-1.12-2.534 1.092c-2.464 1.036-3.192 2.576-3.192 5.11zm1.414.882c0-1.246.854-2.184 2.058-2.184 1.064 0 1.974.826 1.974 2.212 0 1.372-.91 2.184-2.03 2.184-1.092 0-2.002-.812-2.002-2.212zm7.097 5.992h1.358v-3.22c0-.364-.056-.616-.056-.616h.028a2.6 2.6 0 002.198 1.204c1.862 0 3.206-1.456 3.206-3.71 0-2.198-1.19-3.71-3.108-3.71-1.036 0-1.932.476-2.38 1.33h-.028s.042-.238.042-.532v-.63h-1.26v9.884zm1.316-6.314c0-1.792.98-2.548 2.044-2.548 1.176 0 2.002.994 2.002 2.534 0 1.61-.924 2.52-2.044 2.52-1.302 0-2.002-1.246-2.002-2.506zm7.092 3.514h2.758c1.792 0 2.604-.91 2.604-2.24 0-1.61-1.106-2.282-2.576-2.282h-1.428v-2.562h-1.358V400zm1.358-.98v-2.562h1.218c.98 0 1.4.532 1.4 1.288 0 .742-.42 1.274-1.4 1.274h-1.218zm-44.073 22.638c.864.414 1.89.558 2.844.558 3.996 0 6.138-3.654 6.138-7.146 0-4.194-2.628-6.156-5.22-6.156-2.79 0-4.392 2.16-4.392 4.338 0 2.214 1.53 4.41 4.212 4.41.612 0 1.476-.216 1.764-.45h.036c-.396 1.188-1.26 2.124-2.772 2.124-.63 0-1.26-.162-1.764-.378l-.846 2.7zm4.41-6.534c-1.386 0-1.944-.972-1.944-1.89 0-.756.504-1.44 1.296-1.44.9 0 1.98 1.026 1.98 2.556 0 .594-.612.774-1.332.774zm11.11 7.092c3.654 0 4.842-2.988 4.842-6.678s-1.188-6.624-4.842-6.624-4.842 2.934-4.842 6.624c0 3.69 1.188 6.678 4.842 6.678zm0-2.88c-1.242 0-1.602-1.692-1.602-3.798 0-2.088.36-3.744 1.602-3.744s1.602 1.656 1.602 3.744c0 2.106-.36 3.798-1.602 3.798zm11.444 2.88c3.654 0 4.842-2.988 4.842-6.678s-1.188-6.624-4.842-6.624-4.842 2.934-4.842 6.624c0 3.69 1.188 6.678 4.842 6.678zm0-2.88c-1.242 0-1.602-1.692-1.602-3.798 0-2.088.36-3.744 1.602-3.744s1.602 1.656 1.602 3.744c0 2.106-.36 3.798-1.602 3.798zm15.943 2.88c3.654 0 4.842-2.988 4.842-6.678s-1.188-6.624-4.842-6.624-4.842 2.934-4.842 6.624c0 3.69 1.188 6.678 4.842 6.678zm0-2.88c-1.242 0-1.602-1.692-1.602-3.798 0-2.088.36-3.744 1.602-3.744s1.602 1.656 1.602 3.744c0 2.106-.36 3.798-1.602 3.798zm11.443 2.88c3.654 0 4.842-2.988 4.842-6.678s-1.188-6.624-4.842-6.624-4.842 2.934-4.842 6.624c0 3.69 1.188 6.678 4.842 6.678zm0-2.88c-1.242 0-1.602-1.692-1.602-3.798 0-2.088.36-3.744 1.602-3.744s1.602 1.656 1.602 3.744c0 2.106-.36 3.798-1.602 3.798zm11.444 2.88c3.654 0 4.842-2.988 4.842-6.678s-1.188-6.624-4.842-6.624-4.842 2.934-4.842 6.624c0 3.69 1.188 6.678 4.842 6.678zm0-2.88c-1.242 0-1.602-1.692-1.602-3.798 0-2.088.36-3.744 1.602-3.744s1.602 1.656 1.602 3.744c0 2.106-.36 3.798-1.602 3.798zM528.911 422v-1.926h-1.44v-1.746h1.44v-1.404h-1.44v-2.232h1.44v-5.544h4.104c1.656 0 2.862.336 3.618 1.008.768.672 1.152 1.596 1.152 2.772a4.26 4.26 0 01-.468 1.962c-.312.612-.834 1.104-1.566 1.476-.72.372-1.704.558-2.952.558h-1.17v1.404h2.772v1.746h-2.772V422h-2.718zm2.718-7.308h.9c.768 0 1.374-.132 1.818-.396.456-.264.684-.69.684-1.278 0-1.092-.72-1.638-2.16-1.638h-1.242v3.312z" fill="#FFB902"/><circle cx="456.5" cy="370.5" r="6.5" fill="#FFB902"/><path d="M626.322 400h1.554l2.324-3.934h1.82V400h1.386v-9.884h-3.052c-.952 0-1.428.084-1.848.266-.91.406-1.554 1.302-1.554 2.604 0 1.316.602 2.38 1.876 2.842v.028s-.098.14-.294.462L626.322 400zm3.794-5.11c-1.078 0-1.75-.7-1.75-1.848 0-.658.294-1.218.798-1.498.266-.14.602-.224 1.288-.224h1.568v3.57h-1.904zm5.561 5.11h1.358v-3.038h3.584V400h1.358v-7.084h-1.358v2.884h-3.584v-2.884h-1.358V400zm8.394 0h3.024c1.54 0 2.604-.7 2.604-2.016 0-.784-.462-1.47-1.344-1.68v-.014c.644-.28 1.008-.868 1.008-1.554 0-1.19-.938-1.82-2.366-1.82h-2.926V400zm1.358-4.088v-2.058h1.288c.854 0 1.26.336 1.26.98 0 .658-.406 1.078-1.218 1.078h-1.33zm0 3.136v-2.226h1.442c.938 0 1.456.42 1.456 1.12 0 .658-.462 1.106-1.442 1.106h-1.456zm5.328-.98c0 1.33 1.134 2.1 2.366 2.1 1.05 0 1.918-.63 2.324-1.442h.028s-.042.238-.042.56V400h1.274v-4.48c0-1.792-1.022-2.772-2.8-2.772-.994 0-2.072.364-2.646.84l.546.994c.574-.406 1.288-.686 1.988-.686.882 0 1.554.392 1.554 1.554v.14h-.364c-1.47 0-4.228.252-4.228 2.478zm1.358-.112c0-1.302 1.876-1.386 2.884-1.386h.35v.266c0 1.05-.714 2.254-1.904 2.254-.882 0-1.33-.574-1.33-1.134zm6.599 4.844h1.358v-3.22c0-.364-.056-.616-.056-.616h.028a2.6 2.6 0 002.198 1.204c1.862 0 3.206-1.456 3.206-3.71 0-2.198-1.19-3.71-3.108-3.71-1.036 0-1.932.476-2.38 1.33h-.028s.042-.238.042-.532v-.63h-1.26v9.884zm1.316-6.314c0-1.792.98-2.548 2.044-2.548 1.176 0 2.002.994 2.002 2.534 0 1.61-.924 2.52-2.044 2.52-1.302 0-2.002-1.246-2.002-2.506zm7.092 3.514h2.758c1.792 0 2.604-.91 2.604-2.24 0-1.61-1.106-2.282-2.576-2.282h-1.428v-2.562h-1.358V400zm1.358-.98v-2.562h1.218c.98 0 1.4.532 1.4 1.288 0 .742-.42 1.274-1.4 1.274h-1.218zm-41.202 22.638c.864.414 1.89.558 2.844.558 3.996 0 6.138-3.654 6.138-7.146 0-4.194-2.628-6.156-5.22-6.156-2.79 0-4.392 2.16-4.392 4.338 0 2.214 1.53 4.41 4.212 4.41.612 0 1.476-.216 1.764-.45h.036c-.396 1.188-1.26 2.124-2.772 2.124-.63 0-1.26-.162-1.764-.378l-.846 2.7zm4.41-6.534c-1.386 0-1.944-.972-1.944-1.89 0-.756.504-1.44 1.296-1.44.9 0 1.98 1.026 1.98 2.556 0 .594-.612.774-1.332.774zm11.11 7.092c3.654 0 4.842-2.988 4.842-6.678s-1.188-6.624-4.842-6.624-4.842 2.934-4.842 6.624c0 3.69 1.188 6.678 4.842 6.678zm0-2.88c-1.242 0-1.602-1.692-1.602-3.798 0-2.088.36-3.744 1.602-3.744s1.602 1.656 1.602 3.744c0 2.106-.36 3.798-1.602 3.798zm11.444 2.88c3.654 0 4.842-2.988 4.842-6.678s-1.188-6.624-4.842-6.624-4.842 2.934-4.842 6.624c0 3.69 1.188 6.678 4.842 6.678zm0-2.88c-1.242 0-1.602-1.692-1.602-3.798 0-2.088.36-3.744 1.602-3.744s1.602 1.656 1.602 3.744c0 2.106-.36 3.798-1.602 3.798zm15.943 2.88c3.654 0 4.842-2.988 4.842-6.678s-1.188-6.624-4.842-6.624-4.842 2.934-4.842 6.624c0 3.69 1.188 6.678 4.842 6.678zm0-2.88c-1.242 0-1.602-1.692-1.602-3.798 0-2.088.36-3.744 1.602-3.744s1.602 1.656 1.602 3.744c0 2.106-.36 3.798-1.602 3.798zm11.443 2.88c3.654 0 4.842-2.988 4.842-6.678s-1.188-6.624-4.842-6.624-4.842 2.934-4.842 6.624c0 3.69 1.188 6.678 4.842 6.678zm0-2.88c-1.242 0-1.602-1.692-1.602-3.798 0-2.088.36-3.744 1.602-3.744s1.602 1.656 1.602 3.744c0 2.106-.36 3.798-1.602 3.798zm11.444 2.88c3.654 0 4.842-2.988 4.842-6.678s-1.188-6.624-4.842-6.624-4.842 2.934-4.842 6.624c0 3.69 1.188 6.678 4.842 6.678zm0-2.88c-1.242 0-1.602-1.692-1.602-3.798 0-2.088.36-3.744 1.602-3.744s1.602 1.656 1.602 3.744c0 2.106-.36 3.798-1.602 3.798zM704.911 422v-1.926h-1.44v-1.746h1.44v-1.404h-1.44v-2.232h1.44v-5.544h4.104c1.656 0 2.862.336 3.618 1.008.768.672 1.152 1.596 1.152 2.772a4.26 4.26 0 01-.468 1.962c-.312.612-.834 1.104-1.566 1.476-.72.372-1.704.558-2.952.558h-1.17v1.404h2.772v1.746h-2.772V422h-2.718zm2.718-7.308h.9c.768 0 1.374-.132 1.818-.396.456-.264.684-.69.684-1.278 0-1.092-.72-1.638-2.16-1.638h-1.242v3.312z" fill="#FFB902"/><circle cx="632.5" cy="370.5" r="6.5" fill="#FFB902"/><path d="M733.546 394.736c0 2.506 1.862 4.172 4.592 4.172v1.26h1.386v-1.26c2.73 0 4.592-1.666 4.592-4.172 0-2.464-1.876-4.102-4.592-4.102V389.5h-1.386v1.134c-2.73 0-4.592 1.638-4.592 4.102zm5.978 2.996v-5.922c1.904 0 3.178 1.12 3.178 2.926 0 1.848-1.274 2.996-3.178 2.996zm-4.564-2.996c0-1.806 1.274-2.926 3.178-2.926v5.922c-1.904 0-3.178-1.148-3.178-2.996zm10.276 1.722c0 2.1 1.54 3.71 3.766 3.71.98 0 2.058-.378 2.744-1.008l-.574-.994c-.56.504-1.33.826-2.086.826-1.274 0-2.366-.826-2.436-2.352h5.152c.028-.196.056-.392.056-.574 0-1.82-1.064-3.318-3.066-3.318-2.016 0-3.556 1.456-3.556 3.71zm1.456-.798c.196-1.176 1.022-1.862 2.072-1.862.924 0 1.68.644 1.722 1.862h-3.794zm6.799 4.34h3.024c1.54 0 2.604-.7 2.604-2.016 0-.784-.462-1.47-1.344-1.68v-.014c.644-.28 1.008-.868 1.008-1.554 0-1.19-.938-1.82-2.366-1.82h-2.926V400zm1.358-4.088v-2.058h1.288c.854 0 1.26.336 1.26.98 0 .658-.406 1.078-1.218 1.078h-1.33zm0 3.136v-2.226h1.442c.938 0 1.456.42 1.456 1.12 0 .658-.462 1.106-1.442 1.106h-1.456zm5.916 3.752h1.358v-3.22c0-.364-.056-.616-.056-.616h.028a2.6 2.6 0 002.198 1.204c1.862 0 3.206-1.456 3.206-3.71 0-2.198-1.19-3.71-3.108-3.71-1.036 0-1.932.476-2.38 1.33h-.028s.042-.238.042-.532v-.63h-1.26v9.884zm1.316-6.314c0-1.792.98-2.548 2.044-2.548 1.176 0 2.002.994 2.002 2.534 0 1.61-.924 2.52-2.044 2.52-1.302 0-2.002-1.246-2.002-2.506zm6.504 1.582c0 1.33 1.134 2.1 2.366 2.1 1.05 0 1.918-.63 2.324-1.442h.028s-.042.238-.042.56V400h1.274v-4.48c0-1.792-1.022-2.772-2.8-2.772-.994 0-2.072.364-2.646.84l.546.994c.574-.406 1.288-.686 1.988-.686.882 0 1.554.392 1.554 1.554v.14h-.364c-1.47 0-4.228.252-4.228 2.478zm1.358-.112c0-1.302 1.876-1.386 2.884-1.386h.35v.266c0 1.05-.714 2.254-1.904 2.254-.882 0-1.33-.574-1.33-1.134zm5.829 2.114c2.086-.112 2.898-1.764 2.898-4.97v-1.064h2.086V400h1.358v-7.084h-4.746v2.184c0 2.562-.56 3.598-1.596 3.752v1.218zm8.44-.07h2.758c1.792 0 2.604-.91 2.604-2.24 0-1.61-1.106-2.282-2.576-2.282h-1.428v-2.562h-1.358V400zm1.358-.98v-2.562h1.218c.98 0 1.4.532 1.4 1.288 0 .742-.42 1.274-1.4 1.274h-1.218zm-51.292 22.638c.864.414 1.89.558 2.844.558 3.996 0 6.138-3.654 6.138-7.146 0-4.194-2.628-6.156-5.22-6.156-2.79 0-4.392 2.16-4.392 4.338 0 2.214 1.53 4.41 4.212 4.41.612 0 1.476-.216 1.764-.45h.036c-.396 1.188-1.26 2.124-2.772 2.124-.63 0-1.26-.162-1.764-.378l-.846 2.7zm4.41-6.534c-1.386 0-1.944-.972-1.944-1.89 0-.756.504-1.44 1.296-1.44.9 0 1.98 1.026 1.98 2.556 0 .594-.612.774-1.332.774zm11.11 7.092c3.654 0 4.842-2.988 4.842-6.678s-1.188-6.624-4.842-6.624-4.842 2.934-4.842 6.624c0 3.69 1.188 6.678 4.842 6.678zm0-2.88c-1.242 0-1.602-1.692-1.602-3.798 0-2.088.36-3.744 1.602-3.744s1.602 1.656 1.602 3.744c0 2.106-.36 3.798-1.602 3.798zm11.444 2.88c3.654 0 4.842-2.988 4.842-6.678s-1.188-6.624-4.842-6.624-4.842 2.934-4.842 6.624c0 3.69 1.188 6.678 4.842 6.678zm0-2.88c-1.242 0-1.602-1.692-1.602-3.798 0-2.088.36-3.744 1.602-3.744s1.602 1.656 1.602 3.744c0 2.106-.36 3.798-1.602 3.798zm15.943 2.88c3.654 0 4.842-2.988 4.842-6.678s-1.188-6.624-4.842-6.624-4.842 2.934-4.842 6.624c0 3.69 1.188 6.678 4.842 6.678zm0-2.88c-1.242 0-1.602-1.692-1.602-3.798 0-2.088.36-3.744 1.602-3.744s1.602 1.656 1.602 3.744c0 2.106-.36 3.798-1.602 3.798zm11.443 2.88c3.654 0 4.842-2.988 4.842-6.678s-1.188-6.624-4.842-6.624-4.842 2.934-4.842 6.624c0 3.69 1.188 6.678 4.842 6.678zm0-2.88c-1.242 0-1.602-1.692-1.602-3.798 0-2.088.36-3.744 1.602-3.744s1.602 1.656 1.602 3.744c0 2.106-.36 3.798-1.602 3.798zm11.444 2.88c3.654 0 4.842-2.988 4.842-6.678s-1.188-6.624-4.842-6.624-4.842 2.934-4.842 6.624c0 3.69 1.188 6.678 4.842 6.678zm0-2.88c-1.242 0-1.602-1.692-1.602-3.798 0-2.088.36-3.744 1.602-3.744s1.602 1.656 1.602 3.744c0 2.106-.36 3.798-1.602 3.798zM811.911 422v-1.926h-1.44v-1.746h1.44v-1.404h-1.44v-2.232h1.44v-5.544h4.104c1.656 0 2.862.336 3.618 1.008.768.672 1.152 1.596 1.152 2.772a4.26 4.26 0 01-.468 1.962c-.312.612-.834 1.104-1.566 1.476-.72.372-1.704.558-2.952.558h-1.17v1.404h2.772v1.746h-2.772V422h-2.718zm2.718-7.308h.9c.768 0 1.374-.132 1.818-.396.456-.264.684-.69.684-1.278 0-1.092-.72-1.638-2.16-1.638h-1.242v3.312z" fill="#FFB902"/><circle cx="739.5" cy="370.5" r="6.5" fill="#FFB902"/><path d="M924.21 400h1.414l.994-2.842h3.724l.994 2.842h1.428l-3.542-9.884h-1.47L924.21 400zm2.772-3.99l1.106-3.122c.168-.518.378-1.414.378-1.414h.028s.224.896.392 1.414l1.092 3.122h-2.996zm7.037 3.99h1.358v-5.922h3.472V400h1.358v-7.084h-6.188V400zm8.285 2.8h1.358v-3.22c0-.364-.056-.616-.056-.616h.028a2.6 2.6 0 002.198 1.204c1.862 0 3.206-1.456 3.206-3.71 0-2.198-1.19-3.71-3.108-3.71-1.036 0-1.932.476-2.38 1.33h-.028s.042-.238.042-.532v-.63h-1.26v9.884zm1.316-6.314c0-1.792.98-2.548 2.044-2.548 1.176 0 2.002.994 2.002 2.534 0 1.61-.924 2.52-2.044 2.52-1.302 0-2.002-1.246-2.002-2.506zm6.63-.028c0 2.1 1.54 3.71 3.766 3.71.98 0 2.058-.378 2.744-1.008l-.574-.994c-.56.504-1.33.826-2.086.826-1.274 0-2.366-.826-2.436-2.352h5.152c.028-.196.056-.392.056-.574 0-1.82-1.064-3.318-3.066-3.318-2.016 0-3.556 1.456-3.556 3.71zm1.456-.798c.196-1.176 1.022-1.862 2.072-1.862.924 0 1.68.644 1.722 1.862h-3.794zm6.029 4.41c2.086-.112 2.898-1.764 2.898-4.97v-1.064h2.086V400h1.358v-7.084h-4.746v2.184c0 2.562-.56 3.598-1.596 3.752v1.218zm8.44-.07h2.758c1.792 0 2.604-.91 2.604-2.24 0-1.61-1.106-2.282-2.576-2.282h-1.428v-2.562h-1.358V400zm1.358-.98v-2.562h1.218c.98 0 1.4.532 1.4 1.288 0 .742-.42 1.274-1.4 1.274h-1.218zm-42.255 22.638c.864.414 1.89.558 2.844.558 3.996 0 6.138-3.654 6.138-7.146 0-4.194-2.628-6.156-5.22-6.156-2.79 0-4.392 2.16-4.392 4.338 0 2.214 1.53 4.41 4.212 4.41.612 0 1.476-.216 1.764-.45h.036c-.396 1.188-1.26 2.124-2.772 2.124-.63 0-1.26-.162-1.764-.378l-.846 2.7zm4.41-6.534c-1.386 0-1.944-.972-1.944-1.89 0-.756.504-1.44 1.296-1.44.9 0 1.98 1.026 1.98 2.556 0 .594-.612.774-1.332.774zm11.11 7.092c3.654 0 4.842-2.988 4.842-6.678s-1.188-6.624-4.842-6.624-4.842 2.934-4.842 6.624c0 3.69 1.188 6.678 4.842 6.678zm0-2.88c-1.242 0-1.602-1.692-1.602-3.798 0-2.088.36-3.744 1.602-3.744s1.602 1.656 1.602 3.744c0 2.106-.36 3.798-1.602 3.798zm11.444 2.88c3.654 0 4.842-2.988 4.842-6.678s-1.188-6.624-4.842-6.624-4.842 2.934-4.842 6.624c0 3.69 1.188 6.678 4.842 6.678zm0-2.88c-1.242 0-1.602-1.692-1.602-3.798 0-2.088.36-3.744 1.602-3.744s1.602 1.656 1.602 3.744c0 2.106-.36 3.798-1.602 3.798zm15.943 2.88c3.654 0 4.842-2.988 4.842-6.678s-1.188-6.624-4.842-6.624-4.842 2.934-4.842 6.624c0 3.69 1.188 6.678 4.842 6.678zm0-2.88c-1.242 0-1.602-1.692-1.602-3.798 0-2.088.36-3.744 1.602-3.744s1.602 1.656 1.602 3.744c0 2.106-.36 3.798-1.602 3.798zm11.443 2.88c3.654 0 4.842-2.988 4.842-6.678s-1.188-6.624-4.842-6.624-4.842 2.934-4.842 6.624c0 3.69 1.188 6.678 4.842 6.678zm0-2.88c-1.242 0-1.602-1.692-1.602-3.798 0-2.088.36-3.744 1.602-3.744s1.602 1.656 1.602 3.744c0 2.106-.36 3.798-1.602 3.798zm11.444 2.88c3.654 0 4.842-2.988 4.842-6.678s-1.188-6.624-4.842-6.624-4.842 2.934-4.842 6.624c0 3.69 1.188 6.678 4.842 6.678zm0-2.88c-1.242 0-1.602-1.692-1.602-3.798 0-2.088.36-3.744 1.602-3.744s1.602 1.656 1.602 3.744c0 2.106-.36 3.798-1.602 3.798zM1002.91 422v-1.926h-1.44v-1.746h1.44v-1.404h-1.44v-2.232h1.44v-5.544h4.11c1.65 0 2.86.336 3.61 1.008.77.672 1.16 1.596 1.16 2.772 0 .696-.16 1.35-.47 1.962-.31.612-.84 1.104-1.57 1.476-.72.372-1.7.558-2.95.558h-1.17v1.404h2.77v1.746h-2.77V422h-2.72zm2.72-7.308h.9c.77 0 1.37-.132 1.82-.396.45-.264.68-.69.68-1.278 0-1.092-.72-1.638-2.16-1.638h-1.24v3.312z" fill="#FFB902"/><circle cx="930.5" cy="370.5" r="6.5" fill="#FFB902"/><defs><linearGradient id="paint0_linear" x1="562" y1="77" x2="519.318" y2="498.982" gradientUnits="userSpaceOnUse"><stop stop-color="#FFB800"/><stop offset=".565" stop-color="#FFE925"/></linearGradient><linearGradient id="paint1_linear" x1="-65" y1="499" x2="1308.59" y2="288.593" gradientUnits="userSpaceOnUse"><stop offset=".041" stop-color="#FAFAFA"/><stop offset=".5" stop-color="#FFD813" stop-opacity="0"/><stop offset=".984" stop-color="#fff"/></linearGradient></defs></svg>