<?xml version="1.0" encoding="UTF-8" standalone="no"?>
<!-- Created with Inkscape (http://www.inkscape.org/) -->

<svg
   xmlns:dc="http://purl.org/dc/elements/1.1/"
   xmlns:cc="http://creativecommons.org/ns#"
   xmlns:rdf="http://www.w3.org/1999/02/22-rdf-syntax-ns#"
   xmlns:svg="http://www.w3.org/2000/svg"
   xmlns="http://www.w3.org/2000/svg"
   xmlns:sodipodi="http://sodipodi.sourceforge.net/DTD/sodipodi-0.dtd"
   xmlns:inkscape="http://www.inkscape.org/namespaces/inkscape"
   version="1.1"
   id="svg2"
   width="314.96375"
   height="466.52054"
   viewBox="0 0 314.96375 466.52054"
   sodipodi:docname="answer.svg"
   inkscape:version="0.92.4 (5da689c313, 2019-01-14)">
  <metadata
     id="metadata8">
    <rdf:RDF>
      <cc:Work
         rdf:about="">
        <dc:format>image/svg+xml</dc:format>
        <dc:type
           rdf:resource="http://purl.org/dc/dcmitype/StillImage" />
        <dc:title></dc:title>
      </cc:Work>
    </rdf:RDF>
  </metadata>
  <defs
     id="defs6" />
  <sodipodi:namedview
     pagecolor="#ffffff"
     bordercolor="#666666"
     borderopacity="1"
     objecttolerance="10"
     gridtolerance="10"
     guidetolerance="10"
     inkscape:pageopacity="0"
     inkscape:pageshadow="2"
     inkscape:window-width="1920"
     inkscape:window-height="1028"
     id="namedview4"
     showgrid="false"
     fit-margin-top="0"
     fit-margin-left="0"
     fit-margin-right="0"
     fit-margin-bottom="0"
     inkscape:zoom="0.5042735"
     inkscape:cx="807.90843"
     inkscape:cy="338.64153"
     inkscape:window-x="-8"
     inkscape:window-y="-8"
     inkscape:window-maximized="1"
     inkscape:current-layer="svg2" />
  <path
     style="fill:#5e44fe;fill-opacity:1"
     d="m 142.91835,465.95746 c -16.94719,-2.61021 -31.61666,-13.42927 -39.26081,-28.95573 -3.05248,-6.20007 -3.18979,-6.99868 -3.18979,-18.55187 0,-11.92968 0.0444,-12.16265 3.74019,-19.64064 6.64644,-13.44816 21.08491,-24.70505 35.55903,-27.72344 17.8902,-3.73077 36.20063,1.6351 48.68929,14.26838 22.07291,22.32853 18.23797,54.87819 -8.60485,73.03494 -9.46647,6.40322 -24.4983,9.48356 -36.93306,7.56836 z M 110.09637,324.7307 c -3.34922,-10.28916 -4.39754,-18.45382 -3.70211,-28.83327 1.2363,-18.45194 5.85984,-32.13211 15.98814,-47.30588 9.52757,-14.27378 17.15003,-21.05928 49.58535,-44.14082 13.07634,-9.30535 28.29304,-23.57561 33.90713,-31.79819 14.34394,-21.00859 12.58127,-46.39573 -4.38185,-63.11016 -13.70132,-13.500462 -35.42197,-19.169002 -58.20375,-15.189722 -16.39854,2.86433 -26.90359,7.487782 -39.31857,17.304772 -9.761211,7.71857 -15.249111,14.53402 -19.786741,24.57327 -1.9266,4.2625 -3.86145,7.75 -4.29967,7.75 -0.73329,0 -78.92528984,-33.93526 -79.80590984,-34.6357 -0.83116,-0.66109 5.14436004,-15.694402 8.59390004,-21.620722 10.6489798,-18.29493 25.4826898,-37.3595 36.9711198,-47.516 10.18413,-9.0034 17.75314,-13.92921 32.82434,-21.36163 C 106.61775,4.9643881 128.7783,-0.03895191 161.94152,2.2809478e-4 211.56815,0.05882809 248.68213,14.001688 279.01169,43.980698 c 10.73629,10.61221 18.1591,20.58533 24.18915,32.5 8.72453,17.23865 11.76903,31.054872 11.76289,53.380992 -0.007,23.69981 -3.46484,40.02213 -12.45936,58.80473 -11.93959,24.93259 -19.08739,33.14351 -55.53662,63.79675 -21.40096,17.99788 -32.14111,30.47671 -39.60587,46.01753 -4.02438,8.37832 -7.39413,20.98388 -7.39413,27.65996 v 4.84004 h -43.91847 -43.91847 z"
     id="path819"
     inkscape:connector-curvature="0" />
</svg>
