<?xml version="1.0" encoding="utf-8"?>
<!-- Generator: Adobe Illustrator 22.0.1, SVG Export Plug-In . SVG Version: 6.00 Build 0)  -->
<svg version="1.1" id="Режим_изоляции"
	 xmlns="http://www.w3.org/2000/svg" xmlns:xlink="http://www.w3.org/1999/xlink" x="0px" y="0px" viewBox="0 0 44 44"
	 style="enable-background:new 0 0 44 44;" xml:space="preserve">
<style type="text/css">
	.st0{fill:#FFFFFF;}
	.st1{fill:#5E44FE;}
</style>
<g>
	<circle class="st0" cx="16" cy="40.5" r="2"/>
	<circle class="st0" cx="34" cy="40.5" r="2"/>
	<path class="st0" d="M43.8,9.8c-0.2-0.2-0.5-0.3-0.8-0.3H13c-0.6,0-1,0.4-1,1s0.4,1,1,1h28.8l-2.4,16.3c-0.1,1-1,1.7-2,1.7H12.8
		L8.3,4C8,2.5,6.8,1.5,5.3,1.5H3c-1.7,0-3,1.3-3,3c0,0.6,0.4,1,1,1s1-0.4,1-1s0.4-1,1-1h2.3c0.5,0,0.9,0.3,1,0.8l4.6,25.8
		c-1.1,0.7-1.9,2-1.9,3.4c0,2.2,1.8,4,4,4h26c0.6,0,1-0.4,1-1s-0.4-1-1-1H13c-1.1,0-2-0.9-2-2s0.9-2,2-2h24.4c2,0,3.7-1.4,4-3.4
		L44,10.6C44,10.4,43.9,10.1,43.8,9.8z"/>
	<path class="st1" d="M15,22.5c-0.6,0-1,0.4-1,1s0.4,1,1,1h4v2c0,0.6,0.4,1,1,1s1-0.4,1-1v-2h4v2c0,0.6,0.4,1,1,1s1-0.4,1-1v-2h4v2
		c0,0.6,0.4,1,1,1c0.6,0,1-0.4,1-1v-2h4c0.6,0,1-0.4,1-1s-0.4-1-1-1h-4v-4h4c0.6,0,1-0.4,1-1s-0.4-1-1-1h-4v-2c0-0.6-0.4-1-1-1
		s-1,0.4-1,1v2h-4v-2c0-0.6-0.4-1-1-1s-1,0.4-1,1v2h-4v-2c0-0.6-0.4-1-1-1s-1,0.4-1,1v2h-4c-0.6,0-1,0.4-1,1s0.4,1,1,1h4v4H15z
		 M31,18.5v4h-4v-4H31z M21,18.5h4v4h-4V18.5z"/>
</g>
</svg>
