<?xml version="1.0" encoding="UTF-8" standalone="no"?>
<!-- Generator: Adobe Illustrator 22.0.1, SVG Export Plug-In . SVG Version: 6.00 Build 0)  -->

<svg
   xmlns:dc="http://purl.org/dc/elements/1.1/"
   xmlns:cc="http://creativecommons.org/ns#"
   xmlns:rdf="http://www.w3.org/1999/02/22-rdf-syntax-ns#"
   xmlns:svg="http://www.w3.org/2000/svg"
   xmlns="http://www.w3.org/2000/svg"
   xmlns:sodipodi="http://sodipodi.sourceforge.net/DTD/sodipodi-0.dtd"
   xmlns:inkscape="http://www.inkscape.org/namespaces/inkscape"
   version="1.1"
   id="Слой_1"
   x="0px"
   y="0px"
   viewBox="0 0 215.00001 214.99999"
   xml:space="preserve"
   sodipodi:docname="circle.svg"
   width="215"
   height="215"
   inkscape:version="0.92.4 (5da689c313, 2019-01-14)"><metadata
   id="metadata11"><rdf:RDF><cc:Work
       rdf:about=""><dc:format>image/svg+xml</dc:format><dc:type
         rdf:resource="http://purl.org/dc/dcmitype/StillImage" /><dc:title></dc:title></cc:Work></rdf:RDF></metadata><defs
   id="defs9" /><sodipodi:namedview
   pagecolor="#ffffff"
   bordercolor="#666666"
   borderopacity="1"
   objecttolerance="10"
   gridtolerance="10"
   guidetolerance="10"
   inkscape:pageopacity="0"
   inkscape:pageshadow="2"
   inkscape:window-width="1920"
   inkscape:window-height="1028"
   id="namedview7"
   showgrid="false"
   fit-margin-top="0"
   fit-margin-left="0"
   fit-margin-right="0"
   fit-margin-bottom="0"
   inkscape:zoom="1"
   inkscape:cx="-110.75"
   inkscape:cy="164.15"
   inkscape:window-x="-8"
   inkscape:window-y="-8"
   inkscape:window-maximized="1"
   inkscape:current-layer="Слой_1" />
<g
   id="g4"
   transform="matrix(25,0,0,25,-17.5,-15)"
   style="fill:#5e44fe;fill-opacity:1">
	<path
   d="M 5,9.2 C 2.6,9.2 0.7,7.3 0.7,4.9 0.7,2.5 2.6,0.6 5,0.6 7.4,0.6 9.3,2.5 9.3,4.9 9.3,7.3 7.4,9.2 5,9.2 Z M 5,2.3 C 3.6,2.3 2.4,3.5 2.4,4.9 2.4,6.3 3.6,7.5 5,7.5 6.4,7.5 7.6,6.3 7.6,4.9 7.6,3.5 6.4,2.3 5,2.3 Z"
   id="path2"
   inkscape:connector-curvature="0"
   style="fill:#5e44fe;fill-opacity:1" />
</g>
</svg>