<?xml version="1.0" encoding="UTF-8" standalone="no"?>
<!-- Created with Inkscape (http://www.inkscape.org/) -->

<svg
   xmlns:dc="http://purl.org/dc/elements/1.1/"
   xmlns:cc="http://creativecommons.org/ns#"
   xmlns:rdf="http://www.w3.org/1999/02/22-rdf-syntax-ns#"
   xmlns:svg="http://www.w3.org/2000/svg"
   xmlns="http://www.w3.org/2000/svg"
   xmlns:sodipodi="http://sodipodi.sourceforge.net/DTD/sodipodi-0.dtd"
   xmlns:inkscape="http://www.inkscape.org/namespaces/inkscape"
   version="1.1"
   id="svg2"
   width="106.9651"
   height="106.9651"
   viewBox="0 0 106.9651 106.9651"
   sodipodi:docname="close-yellow-three.svg"
   inkscape:version="0.92.4 (5da689c313, 2019-01-14)">
  <metadata
     id="metadata8">
    <rdf:RDF>
      <cc:Work
         rdf:about="">
        <dc:format>image/svg+xml</dc:format>
        <dc:type
           rdf:resource="http://purl.org/dc/dcmitype/StillImage" />
        <dc:title></dc:title>
      </cc:Work>
    </rdf:RDF>
  </metadata>
  <defs
     id="defs6" />
  <sodipodi:namedview
     pagecolor="#ffffff"
     bordercolor="#666666"
     borderopacity="1"
     objecttolerance="10"
     gridtolerance="10"
     guidetolerance="10"
     inkscape:pageopacity="0"
     inkscape:pageshadow="2"
     inkscape:window-width="1920"
     inkscape:window-height="1028"
     id="namedview4"
     showgrid="false"
     fit-margin-top="0"
     fit-margin-left="0"
     fit-margin-right="0"
     fit-margin-bottom="0"
     inkscape:zoom="2.2264151"
     inkscape:cx="226.40628"
     inkscape:cy="53.48255"
     inkscape:window-x="-8"
     inkscape:window-y="-8"
     inkscape:window-maximized="1"
     inkscape:current-layer="svg2" />
  <path
     style="fill:#f5e778;fill-opacity:1"
     d="M 9.4782,96.978184 0.01335,87.473813 16.98692,70.478184 33.96049,53.482555 16.98024,36.480243 0,19.47793 9.73896,9.7389653 19.47793,0 36.48024,16.980246 53.48255,33.960491 70.48486,16.980246 87.487176,0 97.226141,9.7389653 106.9651,19.47793 89.98486,36.480243 73.00462,53.482555 89.98486,70.484867 106.9651,87.48718 97.226141,97.226145 87.487176,106.9651 70.48486,89.984864 53.48255,73.004619 36.72183,89.743587 c -9.2184,9.206432 -16.98978,16.738963 -17.26975,16.738963 -0.27997,0 -4.76821,-4.27697 -9.97388,-9.504366 z"
     id="path817"
     inkscape:connector-curvature="0" />
</svg>
