<?xml version="1.0" encoding="utf-8"?>
<!-- Generator: Adobe Illustrator 22.0.1, SVG Export Plug-In . SVG Version: 6.00 Build 0)  -->
<svg version="1.1" id="Режим_изоляции"
	 xmlns="http://www.w3.org/2000/svg" xmlns:xlink="http://www.w3.org/1999/xlink" x="0px" y="0px" viewBox="0 0 44 44"
	 style="enable-background:new 0 0 44 44;" xml:space="preserve">
<style type="text/css">
	.st0{fill:#FFFFFF;}
	.st1{fill:#5E44FE;}
</style>
<g>
	<path class="st0" d="M34,30c-0.6,0-1,0.4-1,1v10c0,0.6-0.4,1-1,1H4c-0.6,0-1-0.4-1-1V3c0-0.6,0.4-1,1-1h20.6l5.7,5.7
		c0.4,0.4,1,0.4,1.4,0s0.4-1,0-1.4l-6-6C25.5,0.1,25.3,0,25,0H4C2.3,0,1,1.3,1,3v38c0,1.7,1.3,3,3,3h28c1.7,0,3-1.3,3-3V31
		C35,30.4,34.6,30,34,30z"/>
	<path class="st1" d="M42.7,17.3l-4-4c-0.4-0.4-1-0.4-1.4,0L35,15.6V10c0-0.6-0.4-1-1-1h-7c-0.6,0-1-0.4-1-1V5c0-0.6-0.4-1-1-1
		s-1,0.4-1,1v3c0,1.7,1.3,3,3,3h6v6.6l-9.7,9.7C23.1,27.5,23,27.7,23,28v4c0,0.6,0.4,1,1,1h4c0.3,0,0.5-0.1,0.7-0.3l14-14
		C43.1,18.3,43.1,17.7,42.7,17.3z M25,31v-2.6l2.6,2.6H25z M39,19.6l-1.3-1.3c-0.4-0.4-1-0.4-1.4,0s-0.4,1,0,1.4l1.3,1.3L29,29.6
		L26.4,27l8.3-8.3l0,0l3.3-3.3l2.6,2.6L39,19.6z"/>
	<path class="st0" d="M7,33h13c0.6,0,1-0.4,1-1s-0.4-1-1-1H7c-0.6,0-1,0.4-1,1C6,32.6,6.4,33,7,33z"/>
	<path class="st0" d="M7,17h10c0.6,0,1-0.4,1-1s-0.4-1-1-1H7c-0.6,0-1,0.4-1,1S6.4,17,7,17z"/>
	<path class="st0" d="M22,19h-7c-0.6,0-1,0.4-1,1s0.4,1,1,1h7c0.6,0,1-0.4,1-1S22.6,19,22,19z"/>
	<path class="st0" d="M26,16c0-0.6-0.4-1-1-1h-4c-0.6,0-1,0.4-1,1s0.4,1,1,1h4C25.6,17,26,16.6,26,16z"/>
	<path class="st0" d="M7,25h9c0.6,0,1-0.4,1-1s-0.4-1-1-1H7c-0.6,0-1,0.4-1,1S6.4,25,7,25z"/>
	<path class="st0" d="M7,29h4c0.6,0,1-0.4,1-1s-0.4-1-1-1H7c-0.6,0-1,0.4-1,1S6.4,29,7,29z"/>
	<path class="st0" d="M7,21h4c0.6,0,1-0.4,1-1s-0.4-1-1-1H7c-0.6,0-1,0.4-1,1S6.4,21,7,21z"/>
	<path class="st0" d="M23,24c0-0.6-0.4-1-1-1h-2c-0.6,0-1,0.4-1,1s0.4,1,1,1h2C22.6,25,23,24.6,23,24z"/>
	<path class="st0" d="M14,28c0,0.6,0.4,1,1,1h4c0.6,0,1-0.4,1-1s-0.4-1-1-1h-4C14.4,27,14,27.4,14,28z"/>
</g>
</svg>
