<?xml version="1.0" encoding="utf-8"?>
<!-- Generator: Adobe Illustrator 22.0.1, SVG Export Plug-In . SVG Version: 6.00 Build 0)  -->
<svg version="1.1" id="Режим_изоляции"
	 xmlns="http://www.w3.org/2000/svg" xmlns:xlink="http://www.w3.org/1999/xlink" x="0px" y="0px" viewBox="0 0 44 44"
	 style="enable-background:new 0 0 44 44;" xml:space="preserve">
<style type="text/css">
	.st0{fill:#5E44FE;}
	.st1{fill:#FFFFFF;}
</style>
<g>
	<circle class="st0" cx="22" cy="30" r="1"/>
	<circle class="st1" cx="6" cy="37" r="1"/>
	<path class="st0" d="M41,3H3C1.3,3,0,4.3,0,6v14c0,0.6,0.4,1,1,1s1-0.4,1-1V6c0-0.6,0.4-1,1-1h38c0.6,0,1,0.4,1,1v8
		c0,0.6,0.4,1,1,1s1-0.4,1-1V6C44,4.3,42.7,3,41,3z"/>
	<path class="st0" d="M23,39h-4.2c0.1-0.3,0.2-0.6,0.2-1v-3h4c0.6,0,1-0.4,1-1s-0.4-1-1-1h-8c-0.6,0-1,0.4-1,1s0.4,1,1,1h2v3
		c0,0.6-0.4,1-1,1h-1c-0.6,0-1,0.4-1,1s0.4,1,1,1h8c0.6,0,1-0.4,1-1S23.6,39,23,39z"/>
	<path class="st0" d="M23,25h-8c-0.6,0-1,0.4-1,1s0.4,1,1,1h8c0.6,0,1-0.4,1-1S23.6,25,23,25z"/>
	<path class="st1" d="M9,23H3c-1.7,0-3,1.3-3,3v12c0,1.7,1.3,3,3,3h6c1.7,0,3-1.3,3-3V26C12,24.3,10.7,23,9,23z M10,38
		c0,0.6-0.4,1-1,1H3c-0.6,0-1-0.4-1-1V26c0-0.6,0.4-1,1-1h6c0.6,0,1,0.4,1,1V38z"/>
	<circle class="st1" cx="35" cy="37" r="1"/>
	<path class="st1" d="M41,17H29c-1.7,0-3,1.3-3,3v18c0,1.7,1.3,3,3,3h12c1.7,0,3-1.3,3-3V20C44,18.3,42.7,17,41,17z M42,38
		c0,0.6-0.4,1-1,1H29c-0.6,0-1-0.4-1-1V20c0-0.6,0.4-1,1-1h12c0.6,0,1,0.4,1,1V38z"/>
</g>
</svg>
