<?xml version="1.0" encoding="utf-8"?>
<!-- Generator: Adobe Illustrator 22.0.1, SVG Export Plug-In . SVG Version: 6.00 Build 0)  -->
<svg version="1.1" id="Режим_изоляции"
	 xmlns="http://www.w3.org/2000/svg" xmlns:xlink="http://www.w3.org/1999/xlink" x="0px" y="0px" viewBox="0 0 44 44"
	 style="enable-background:new 0 0 44 44;" xml:space="preserve">
<style type="text/css">
	.st0{fill:#FFFFFF;}
	.st1{fill:#5E44FE;}
</style>
<g>
	<circle class="st0" cx="39" cy="20" r="1"/>
	<circle class="st0" cx="39" cy="24" r="1"/>
	<circle class="st0" cx="5" cy="20" r="1"/>
	<circle class="st0" cx="32" cy="16" r="1"/>
	<circle class="st0" cx="32" cy="27" r="1"/>
	<circle class="st0" cx="12" cy="16" r="1"/>
	<circle class="st0" cx="12" cy="27" r="1"/>
	<circle class="st0" cx="5" cy="24" r="1"/>
	<circle class="st1" cx="24" cy="22" r="1"/>
	<circle class="st1" cx="20" cy="22" r="1"/>
	<path class="st1" d="M15.4,24.9c0,0.1,0,0.2,0.1,0.3l0.2,0.9c0.3,1.6,1.2,2.9,2.6,3.8c1,0.7,2.2,1,3.3,1h1c1.2,0,2.3-0.4,3.3-1
		c1.3-0.9,2.3-2.3,2.6-3.8l0.2-0.9c0-0.1,0-0.2,0.1-0.3c0.8-0.3,1.4-1,1.4-1.9v-1c0-0.7-0.4-1.4-1-1.7V20c0-2.8-2.2-5-5-5h-4
		c-2.8,0-5,2.2-5,5v0.3c-0.6,0.3-1,1-1,1.7v1C14,23.9,14.6,24.6,15.4,24.9z M16,22c0.6,0,1-0.4,1-1v-1c0-1.7,1.3-3,3-3h4
		c1.7,0,3,1.3,3,3v0.9V21c0,0.6,0.4,1,1,1v1h-0.3c-0.5,0-0.9,0.4-1,0.9v0.4c0,0.2-0.1,0.4-0.1,0.6l-0.2,0.9c-0.2,1.1-0.8,2-1.7,2.6
		C24,28.8,23.3,29,22.5,29h-1c-0.8,0-1.6-0.2-2.2-0.7c-0.9-0.6-1.5-1.5-1.7-2.6l-0.2-0.9c0-0.2-0.1-0.4-0.1-0.6v-0.4
		c-0.1-0.5-0.5-0.9-1-0.9H16V22z"/>
	<path class="st1" d="M20,26c0,0.6,0.4,1,1,1h2c0.6,0,1-0.4,1-1s-0.4-1-1-1h-2C20.4,25,20,25.4,20,26z"/>
	<path class="st0" d="M39,17c2.2,0,4-1.8,4-4s-1.8-4-4-4s-4,1.8-4,4S36.8,17,39,17z M39,11c1.1,0,2,0.9,2,2s-0.9,2-2,2s-2-0.9-2-2
		S37.9,11,39,11z"/>
	<path class="st0" d="M39,27c-2.2,0-4,1.8-4,4s1.8,4,4,4s4-1.8,4-4S41.2,27,39,27z M39,33c-1.1,0-2-0.9-2-2s0.9-2,2-2s2,0.9,2,2
		C41,32.1,40.1,33,39,33z"/>
	<path class="st0" d="M5,17c2.2,0,4-1.8,4-4S7.2,9,5,9s-4,1.8-4,4S2.8,17,5,17z M5,11c1.1,0,2,0.9,2,2s-0.9,2-2,2s-2-0.9-2-2
		S3.9,11,5,11z"/>
	<path class="st0" d="M5,27c-2.2,0-4,1.8-4,4s1.8,4,4,4s4-1.8,4-4S7.2,27,5,27z M5,33c-1.1,0-2-0.9-2-2s0.9-2,2-2s2,0.9,2,2
		C7,32.1,6.1,33,5,33z"/>
	<path class="st1" d="M32,34.4l-5.8-1.2c-0.5-0.1-1.1,0.2-1.2,0.8c-0.1,0.5,0.2,1.1,0.8,1.2l5.8,1.2c1.4,0.3,2.4,1.5,2.4,2.9v1
		c-3.3,1.1-7.5,1.7-12,1.7s-8.7-0.6-12-1.7v-1c0-1.4,1-2.7,2.4-2.9l6.7-1.3H21v4c0,0.6,0.4,1,1,1s1-0.4,1-1v-5c0-0.6-0.4-1-1-1h-3
		c-0.1,0-0.1,0-0.2,0L12,34.4c-2.3,0.5-4,2.5-4,4.9V41c0,0.4,0.3,0.8,0.7,0.9C12.2,43.3,17,44,22,44s9.8-0.7,13.3-2.1
		c0.4-0.1,0.7-0.5,0.7-0.9v-1.7C36,36.9,34.3,34.8,32,34.4z"/>
</g>
</svg>
