<?xml version="1.0" encoding="UTF-8" standalone="no"?>
<!-- Created with Inkscape (http://www.inkscape.org/) -->

<svg
   xmlns:dc="http://purl.org/dc/elements/1.1/"
   xmlns:cc="http://creativecommons.org/ns#"
   xmlns:rdf="http://www.w3.org/1999/02/22-rdf-syntax-ns#"
   xmlns:svg="http://www.w3.org/2000/svg"
   xmlns="http://www.w3.org/2000/svg"
   xmlns:sodipodi="http://sodipodi.sourceforge.net/DTD/sodipodi-0.dtd"
   xmlns:inkscape="http://www.inkscape.org/namespaces/inkscape"
   version="1.1"
   id="svg2"
   width="54.150799"
   height="180.4749"
   viewBox="0 0 54.150799 180.4749"
   sodipodi:docname="triangle.svg"
   inkscape:version="0.92.4 (5da689c313, 2019-01-14)">
  <metadata
     id="metadata8">
    <rdf:RDF>
      <cc:Work
         rdf:about="">
        <dc:format>image/svg+xml</dc:format>
        <dc:type
           rdf:resource="http://purl.org/dc/dcmitype/StillImage" />
        <dc:title></dc:title>
      </cc:Work>
    </rdf:RDF>
  </metadata>
  <defs
     id="defs6" />
  <sodipodi:namedview
     pagecolor="#ffffff"
     bordercolor="#666666"
     borderopacity="1"
     objecttolerance="10"
     gridtolerance="10"
     guidetolerance="10"
     inkscape:pageopacity="0"
     inkscape:pageshadow="2"
     inkscape:window-width="1920"
     inkscape:window-height="1028"
     id="namedview4"
     showgrid="false"
     fit-margin-top="0"
     fit-margin-left="0"
     fit-margin-right="0"
     fit-margin-bottom="0"
     inkscape:zoom="1.3111111"
     inkscape:cx="203.26182"
     inkscape:cy="94.90101"
     inkscape:window-x="-8"
     inkscape:window-y="-8"
     inkscape:window-maximized="1"
     inkscape:current-layer="svg2" />
  <path
     style="fill:#060606"
     d="m 3.3244,176.90015 -3.14331,-3.25 12.97326,-11.5 c 7.1353,-6.325 13.41395,-11.5 13.95256,-11.5 0.5386,0 6.79427,5.175 13.90148,11.5 l 12.92221,11.5 -3.35665,3.41237 -3.35664,3.41237 -9.43681,-8.66237 c -5.19024,-4.7643 -10.00755,-8.66237 -10.70512,-8.66237 -0.69757,0 -5.43528,3.825 -10.52824,8.5 -5.09295,4.675 -9.44431,8.5 -9.66967,8.5 -0.22537,0 -1.82425,-1.4625 -3.55307,-3.25 z m 0.0386,-30 -3.10475,-3.25 12.98106,-11.5 c 7.13959,-6.325 13.36583,-11.5 13.8361,-11.5 0.47027,0 6.70321,5.175 13.85099,11.5 l 12.99597,11.5 -3.36603,3.42588 -3.36603,3.42589 -9.45153,-8.67589 c -5.19834,-4.77173 -9.99686,-8.67588 -10.66337,-8.67588 -0.66651,0 -5.37881,3.825 -10.47177,8.5 -5.09295,4.675 -9.45701,8.5 -9.69791,8.5 -0.24089,0 -1.83512,-1.4625 -3.54273,-3.25 z m 0.034,-29.89 -3.14,-3.14 13.0008,-11.61 c 7.15044,-6.385496 13.36839,-11.609995 13.81766,-11.609995 0.44927,0 6.6749,5.231369 13.83474,11.625255 l 13.01788,11.62525 -3.38172,3.2777 -3.38173,3.27769 -9.56238,-8.65295 c -5.25931,-4.75912 -9.99637,-8.65295 -10.52679,-8.65295 -0.53042,0 -5.19142,3.825 -10.35776,8.5 -5.16635,4.675 -9.57051,8.5 -9.78703,8.5 -0.21652,0 -1.80667,-1.413 -3.53367,-3.14 z M 3.3408,87.148626 0.10612,84.205723 13.15302,72.427939 c 7.1758,-6.477781 13.4409,-11.777784 13.92246,-11.777784 0.48156,0 6.75076,5.303703 13.93157,11.786006 l 13.05601,11.786005 -3.5045,3.076984 -3.50449,3.076984 -7.58244,-6.862989 C 27.33788,72.530684 27.52523,72.640748 24.66862,74.816748 c -1.32377,1.008374 -5.76214,4.870907 -9.86305,8.583407 -4.10091,3.7125 -7.63032,6.736809 -7.84314,6.720687 C 6.74961,90.104722 5.11987,88.767222 3.3408,87.148626 Z M 3.2947,57.260955 0.01387,54.453037 9.7947,45.613484 C 15.17415,40.751729 21.23825,35.216441 23.27048,33.312843 l 3.69495,-3.461087 13.06086,11.754091 c 7.18347,6.46475 13.25444,12.067328 13.49105,12.450173 0.23661,0.382845 -1.12894,1.940154 -3.03457,3.460686 l -3.46476,2.764604 -9.68507,-8.565578 c -5.32678,-4.711067 -9.94262,-8.565577 -10.25742,-8.565577 -0.3148,0 -4.89727,3.825 -10.18328,8.5 -5.286,4.675 -9.76972,8.481712 -9.96382,8.459359 C 6.73433,60.087164 5.09915,58.80531 3.2947,57.260955 Z M 3.2877,27.255215 0,24.441557 13.5377,12.220778 27.0754,0 40.6131,12.220778 54.1508,24.441557 50.8631,27.255215 c -1.80824,1.547512 -3.5127,2.821424 -3.7877,2.830916 -0.275,0.0095 -4.75495,-3.79722 -9.95545,-8.459359 -5.2005,-4.662139 -9.72055,-8.476617 -10.04455,-8.476617 -0.324,0 -4.84405,3.814478 -10.04455,8.476617 -5.2005,4.662139 -9.68045,8.468851 -9.95545,8.459359 -0.275,-0.0095 -1.97947,-1.283404 -3.7877,-2.830916 z"
     id="path817"
     inkscape:connector-curvature="0" />
</svg>
