<?xml version="1.0" encoding="UTF-8" standalone="no"?>
<!-- Created with Inkscape (http://www.inkscape.org/) -->

<svg
   xmlns:dc="http://purl.org/dc/elements/1.1/"
   xmlns:cc="http://creativecommons.org/ns#"
   xmlns:rdf="http://www.w3.org/1999/02/22-rdf-syntax-ns#"
   xmlns:svg="http://www.w3.org/2000/svg"
   xmlns="http://www.w3.org/2000/svg"
   xmlns:sodipodi="http://sodipodi.sourceforge.net/DTD/sodipodi-0.dtd"
   xmlns:inkscape="http://www.inkscape.org/namespaces/inkscape"
   version="1.1"
   id="svg2"
   width="88.110641"
   height="344.6076"
   viewBox="0 0 88.110641 344.6076"
   sodipodi:docname="Безимени-2.svg"
   inkscape:version="0.92.4 (5da689c313, 2019-01-14)">
  <metadata
     id="metadata8">
    <rdf:RDF>
      <cc:Work
         rdf:about="">
        <dc:format>image/svg+xml</dc:format>
        <dc:type
           rdf:resource="http://purl.org/dc/dcmitype/StillImage" />
        <dc:title></dc:title>
      </cc:Work>
    </rdf:RDF>
  </metadata>
  <defs
     id="defs6" />
  <sodipodi:namedview
     pagecolor="#ffffff"
     bordercolor="#666666"
     borderopacity="1"
     objecttolerance="10"
     gridtolerance="10"
     guidetolerance="10"
     inkscape:pageopacity="0"
     inkscape:pageshadow="2"
     inkscape:window-width="1920"
     inkscape:window-height="1028"
     id="namedview4"
     showgrid="false"
     fit-margin-top="0"
     fit-margin-left="0"
     fit-margin-right="0"
     fit-margin-bottom="0"
     inkscape:zoom="1.3681159"
     inkscape:cx="114.1127"
     inkscape:cy="222.2361"
     inkscape:window-x="-8"
     inkscape:window-y="-8"
     inkscape:window-maximized="1"
     inkscape:current-layer="svg2" />
  <path
     style="fill:#faec7a;fill-opacity:1"
     d="m 6.96348,338.84138 c -3.49406,-3.17142 -6.49003,-5.86724 -6.6577,-5.99072 -0.16767,-0.12348 11.23684,-10.62091 25.34335,-23.32763 22.45216,-20.22422 25.86308,-22.94844 27.37252,-21.86181 0.94836,0.68273 9.22665,7.99132 18.39619,16.24132 l 16.6719,15 0.0104,11.93709 0.0104,11.93709 -2.75,-2.50683 c -17.76226,-16.19161 -33.21579,-29.86735 -33.75,-29.86735 -0.58123,0 -24.55731,21.29894 -34.64716,30.7785 l -3.64717,3.42656 z m -0.64038,-58.18884 -6.24469,-5.75 25.14899,-22.5 c 13.83195,-12.375 25.70584,-22.5 26.38642,-22.5 0.68059,0 9.1708,7.12843 18.86713,15.84096 l 17.62969,15.84097 v 11.98411 11.98412 l -13.25,-11.9543 c -7.2875,-6.57486 -15.50775,-13.98116 -18.26722,-16.45845 l -5.01722,-4.50416 -18.68499,16.88337 c -10.27675,9.28586 -19.05364,16.88338 -19.5042,16.88338 -0.45057,0 -3.62932,-2.5875 -7.06391,-5.75 z M 6.3053,223.57985 0,217.84417 25.4459,195.00149 c 13.99525,-12.56348 25.70887,-22.90035 26.03028,-22.97082 0.3214,-0.0705 8.66457,7.07187 18.54037,15.87187 l 17.956,16 0.069,11.87244 c 0.0649,11.16643 -0.035,11.79114 -1.68097,10.5051 -0.9625,-0.75204 -8.28344,-7.21964 -16.26876,-14.37244 -7.98531,-7.15281 -15.44241,-13.78958 -16.57132,-14.74838 -2.00636,-1.70404 -2.47854,-1.36076 -20.97611,15.25 -10.40796,9.3463 -19.15086,16.9737 -19.42868,16.94978 -0.27782,-0.0239 -3.34252,-2.62456 -6.81044,-5.77919 z m 0.47155,-57.09997 -6.64642,-6.02325 25.53929,-23.0492 c 17.09818,-15.43109 25.96358,-22.79399 26.82299,-22.27704 0.70604,0.42468 9.0089,7.7377 18.4508,16.25114 l 17.1671,15.47899 v 11.9581 11.9581 l -2.75,-2.50683 c -17.76226,-16.19161 -33.21579,-29.86735 -33.75,-29.86735 -0.57862,0 -24.46877,21.21935 -34.59367,30.72626 l -3.59367,3.37433 z M 6.33802,108.66608 0.07838,102.90254 25.22737,80.402538 c 13.83195,-12.375 25.70584,-22.5 26.38642,-22.5 0.68059,0 9.1708,7.128433 18.86713,15.840963 l 17.62969,15.840963 v 11.939056 11.93906 L 70.04999,97.182556 C 60.11665,88.228547 51.74793,80.966536 51.45284,81.044755 51.15774,81.122975 42.85883,88.450053 33.01082,97.327156 23.1628,106.20425 14.54111,113.68385 13.8515,113.94847 13.16189,114.2131 9.78083,111.83602 6.33802,108.66608 Z M 6.31692,51.522838 0.02327,45.737497 25.43018,22.917781 C 39.40398,10.366937 51.13291,0.05407085 51.49448,3.0104884e-4 51.85604,-0.05346895 60.22244,7.1025376 70.08648,15.902538 l 17.93461,16 0.0447,11.904988 0.0447,11.904987 -2.23125,-1.904987 C 84.65206,52.759782 77.11456,46.050243 69.12924,38.897439 61.14393,31.744634 53.8824,25.326345 52.99252,24.634574 c -1.39457,-1.084105 -4.22501,1.089276 -20.5,15.74109 -10.38512,9.349371 -19.10703,16.983929 -19.38203,16.965685 -0.275,-0.01824 -3.33214,-2.636574 -6.79364,-5.818511 z"
     id="path817"
     inkscape:connector-curvature="0" />
</svg>
