<?xml version="1.0" encoding="UTF-8" standalone="no"?>
<!-- Created with Inkscape (http://www.inkscape.org/) -->

<svg
   xmlns:dc="http://purl.org/dc/elements/1.1/"
   xmlns:cc="http://creativecommons.org/ns#"
   xmlns:rdf="http://www.w3.org/1999/02/22-rdf-syntax-ns#"
   xmlns:svg="http://www.w3.org/2000/svg"
   xmlns="http://www.w3.org/2000/svg"
   xmlns:sodipodi="http://sodipodi.sourceforge.net/DTD/sodipodi-0.dtd"
   xmlns:inkscape="http://www.inkscape.org/namespaces/inkscape"
   version="1.1"
   id="svg2"
   width="65.806602"
   height="381.99103"
   viewBox="0 0 65.806602 381.99103"
   sodipodi:docname="Безимени-4.svg"
   inkscape:version="0.92.4 (5da689c313, 2019-01-14)">
  <metadata
     id="metadata8">
    <rdf:RDF>
      <cc:Work
         rdf:about="">
        <dc:format>image/svg+xml</dc:format>
        <dc:type
           rdf:resource="http://purl.org/dc/dcmitype/StillImage" />
        <dc:title></dc:title>
      </cc:Work>
    </rdf:RDF>
  </metadata>
  <defs
     id="defs6" />
  <sodipodi:namedview
     pagecolor="#ffffff"
     bordercolor="#666666"
     borderopacity="1"
     objecttolerance="10"
     gridtolerance="10"
     guidetolerance="10"
     inkscape:pageopacity="0"
     inkscape:pageshadow="2"
     inkscape:window-width="1920"
     inkscape:window-height="1028"
     id="namedview4"
     showgrid="false"
     fit-margin-top="0"
     fit-margin-left="0"
     fit-margin-right="0"
     fit-margin-bottom="0"
     inkscape:zoom="0.61780105"
     inkscape:cx="312.83203"
     inkscape:cy="192.61416"
     inkscape:window-x="-8"
     inkscape:window-y="-8"
     inkscape:window-maximized="1"
     inkscape:current-layer="svg2" />
  <path
     style="fill:#fefefe"
     d="m 6.0071525,376.36708 c -3.4647,-3.09069 -6.16469999,-6.1747 -5.99999999,-6.85334 0.1647,-0.67865 8.72773999,-8.93394 19.02898049,-18.34509 l 18.72952,-17.11119 -18.72952,-17.1316 C 8.7348925,307.50348 0.17303251,299.22643 0.00976251,298.53241 -0.15349749,297.83839 8.2913525,289.46218 18.776103,279.9186 l 19.06318,-17.35195 -2.76634,-2.62113 c -1.52148,-1.44162 -10.09726,-9.2958 -19.05728,-17.45372 -8.9600105,-8.15793 -16.16001049,-15.37805 -16.00000049,-16.0447 0.16002,-0.66666 8.72046999,-8.90451 19.02323049,-18.30634 l 18.7323,-17.09423 -18.7323,-17.16892 C 8.7361325,164.4347 0.17568251,156.17389 0.01566251,155.52025 c -0.16001,-0.65364 7.03998999,-7.8631 16.00000049,-16.02103 8.96002,-8.15792 17.5358,-16.0121 19.05728,-17.45372 l 2.76634,-2.62113 -19.06318,-17.35195 C 8.2913525,92.528839 -0.15349749,84.152627 0.00976251,83.458609 0.17303251,82.76459 8.7348925,74.487537 19.036133,65.065157 L 37.765653,47.933556 19.036133,30.82237 C 8.7348925,21.411218 0.17185251,13.155927 0.00715251,12.477279 -0.31161749,11.163816 11.601373,0.00759007 13.330803,4.7344257e-7 14.559673,-0.00538953 65.013693,46.013625 65.524003,47.605319 c 0.1957,0.610397 -7.19816,7.999528 -16.43079,16.420291 -9.23263,8.420763 -17.84026,16.297725 -19.12805,17.504359 l -2.34144,2.193879 19.09144,17.345442 c 10.50029,9.54 19.0885,17.81362 19.0849,18.38583 -0.004,0.57222 -8.59188,8.86461 -19.08506,18.42755 -18.25634,16.63788 -18.99943,17.46043 -17.24346,19.08733 1.00929,0.93509 9.59756,8.78719 19.08506,17.44911 9.4875,8.66193 17.25,16.1213 17.25,16.5764 0,0.4551 -7.7625,7.91447 -17.25,16.5764 -9.4875,8.66192 -18.07577,16.51402 -19.08506,17.44911 -1.75597,1.6269 -1.01288,2.44945 17.24346,19.08733 10.49318,9.56294 19.08145,17.85533 19.08506,18.42755 0.004,0.57221 -8.58461,8.84583 -19.0849,18.38582 l -19.09144,17.34545 2.34144,2.19388 c 1.28779,1.20663 9.89542,9.08359 19.12805,17.50436 9.23263,8.42076 16.62649,15.80989 16.43079,16.42029 -0.51031,1.59169 -50.96433,47.61071 -52.1932,47.60532 -0.56331,-0.002 -3.8589505,-2.53325 -7.3236505,-5.62394 z"
     id="path817"
     inkscape:connector-curvature="0" />
</svg>
