<?xml version="1.0" encoding="UTF-8" standalone="no"?>
<!-- Generator: Adobe Illustrator 22.0.1, SVG Export Plug-In . SVG Version: 6.00 Build 0)  -->

<svg
   xmlns:dc="http://purl.org/dc/elements/1.1/"
   xmlns:cc="http://creativecommons.org/ns#"
   xmlns:rdf="http://www.w3.org/1999/02/22-rdf-syntax-ns#"
   xmlns:svg="http://www.w3.org/2000/svg"
   xmlns="http://www.w3.org/2000/svg"
   xmlns:sodipodi="http://sodipodi.sourceforge.net/DTD/sodipodi-0.dtd"
   xmlns:inkscape="http://www.inkscape.org/namespaces/inkscape"
   version="1.1"
   id="Слой_1"
   x="0px"
   y="0px"
   viewBox="0 0 100 239.99999"
   xml:space="preserve"
   sodipodi:docname="zig-blue.svg"
   width="100"
   height="240"
   inkscape:version="0.92.4 (5da689c313, 2019-01-14)"><metadata
   id="metadata57"><rdf:RDF><cc:Work
       rdf:about=""><dc:format>image/svg+xml</dc:format><dc:type
         rdf:resource="http://purl.org/dc/dcmitype/StillImage" /><dc:title></dc:title></cc:Work></rdf:RDF></metadata><defs
   id="defs55" /><sodipodi:namedview
   pagecolor="#ffffff"
   bordercolor="#666666"
   borderopacity="1"
   objecttolerance="10"
   gridtolerance="10"
   guidetolerance="10"
   inkscape:pageopacity="0"
   inkscape:pageshadow="2"
   inkscape:window-width="1920"
   inkscape:window-height="1028"
   id="namedview53"
   showgrid="false"
   fit-margin-top="0"
   fit-margin-left="0"
   fit-margin-right="0"
   fit-margin-bottom="0"
   inkscape:zoom="1"
   inkscape:cx="-538.35"
   inkscape:cy="385.04996"
   inkscape:window-x="-8"
   inkscape:window-y="-8"
   inkscape:window-maximized="1"
   inkscape:current-layer="Слой_1" />

<g
   id="g50"
   transform="matrix(33.333333,0,0,33.333333,-43.333332,-46.666666)"
   style="opacity:0.98000004;fill:#5e44fe;fill-opacity:1">
	<g
   id="g4"
   style="fill:#5e44fe;fill-opacity:1">
		<polygon
   points="1.3,20 1.9,20.6 4.3,18.2 1.9,15.8 1.3,16.4 3.1,18.2 "
   id="polygon2"
   style="fill:#5e44fe;fill-opacity:1" />
	</g>
	<g
   id="g8"
   style="fill:#5e44fe;fill-opacity:1">
		<polygon
   points="1.3,20 1.9,20.6 4.3,18.2 1.9,15.8 1.3,16.4 3.1,18.2 "
   id="polygon6"
   style="fill:#5e44fe;fill-opacity:1" />
	</g>
	<g
   id="g12"
   style="fill:#5e44fe;fill-opacity:1">
		<polygon
   points="1.3,16.4 1.9,17 4.3,14.6 1.9,12.2 1.3,12.8 3.1,14.6 "
   id="polygon10"
   style="fill:#5e44fe;fill-opacity:1" />
	</g>
	<g
   id="g16"
   style="fill:#5e44fe;fill-opacity:1">
		<polygon
   points="1.3,20 1.9,20.6 4.3,18.2 1.9,15.8 1.3,16.4 3.1,18.2 "
   id="polygon14"
   style="fill:#5e44fe;fill-opacity:1" />
	</g>
	<g
   id="g20"
   style="fill:#5e44fe;fill-opacity:1">
		<polygon
   points="1.3,16.4 1.9,17 4.3,14.6 1.9,12.2 1.3,12.8 3.1,14.6 "
   id="polygon18"
   style="fill:#5e44fe;fill-opacity:1" />
	</g>
	<g
   id="g24"
   style="fill:#5e44fe;fill-opacity:1">
		<polygon
   points="1.3,12.8 1.9,13.4 4.3,11 1.9,8.6 1.3,9.2 3.1,11 "
   id="polygon22"
   style="fill:#5e44fe;fill-opacity:1" />
	</g>
	<g
   id="g28"
   style="fill:#5e44fe;fill-opacity:1">
		<polygon
   points="1.3,16.4 1.9,17 4.3,14.6 1.9,12.2 1.3,12.8 3.1,14.6 "
   id="polygon26"
   style="fill:#5e44fe;fill-opacity:1" />
	</g>
	<g
   id="g32"
   style="fill:#5e44fe;fill-opacity:1">
		<polygon
   points="1.3,12.8 1.9,13.4 4.3,11 1.9,8.6 1.3,9.2 3.1,11 "
   id="polygon30"
   style="fill:#5e44fe;fill-opacity:1" />
	</g>
	<g
   id="g36"
   style="fill:#5e44fe;fill-opacity:1">
		<polygon
   points="1.3,9.2 1.9,9.8 4.3,7.4 1.9,5 1.3,5.6 3.1,7.4 "
   id="polygon34"
   style="fill:#5e44fe;fill-opacity:1" />
	</g>
	<g
   id="g40"
   style="fill:#5e44fe;fill-opacity:1">
		<polygon
   points="1.3,12.8 1.9,13.4 4.3,11 1.9,8.6 1.3,9.2 3.1,11 "
   id="polygon38"
   style="fill:#5e44fe;fill-opacity:1" />
	</g>
	<g
   id="g44"
   style="fill:#5e44fe;fill-opacity:1">
		<polygon
   points="1.3,9.2 1.9,9.8 4.3,7.4 1.9,5 1.3,5.6 3.1,7.4 "
   id="polygon42"
   style="fill:#5e44fe;fill-opacity:1" />
	</g>
	<g
   id="g48"
   style="fill:#5e44fe;fill-opacity:1">
		<polygon
   points="1.3,5.6 1.9,6.2 4.3,3.8 1.9,1.4 1.3,2 3.1,3.8 "
   id="polygon46"
   style="fill:#5e44fe;fill-opacity:1" />
	</g>
</g></svg>