<?xml version="1.0" encoding="UTF-8"?>
<svg width="36px" height="10px" viewBox="0 0 36 10" version="1.1" xmlns="http://www.w3.org/2000/svg" xmlns:xlink="http://www.w3.org/1999/xlink">
    <!-- Generator: Sketch 49.3 (51167) - http://www.bohemiancoding.com/sketch -->
    <title>Page 1</title>
    <desc>Created with Sketch.</desc>
    <defs></defs>
    <g id="Page-1" stroke="none" stroke-width="1" fill="none" fill-rule="evenodd">
        <g id="Desktop_1360/Aurus_main" transform="translate(-662.000000, -2257.000000)" fill="#000000">
            <path d="M680.000175,2257 C679.962223,2257.00073 679.924271,2257.01899 679.905818,2257.05513 L678.890179,2259.00007 C678.80209,2259.16948 678.70251,2259.33013 678.595967,2259.48494 L677.190716,2259.05374 L677.601915,2260.52623 C677.454287,2260.63723 677.301089,2260.74165 677.139533,2260.83366 L676.160105,2261.39556 C675.582476,2261.39958 675.009372,2261.4087 674.444626,2261.41783 C674.097839,2261.42294 673.754882,2261.42842 673.415408,2261.4328 C672.493081,2261.44302 671.602786,2261.46749 670.740346,2261.49012 L670.340288,2261.50108 C669.383143,2261.52189 668.489367,2261.55402 667.583404,2261.58834 C666.227246,2261.63544 664.877703,2261.69824 663.458524,2261.77929 C663.12079,2261.79645 662.831801,2261.81653 662.597825,2261.8326 C662.486756,2261.8399 662.388569,2261.84684 662.302221,2261.85268 C662.100625,2261.86619 661.999653,2261.87312 662.000001,2261.99398 C662.000001,2262.11556 662.100973,2262.12213 662.302569,2262.13564 L662.571711,2262.15426 C662.810562,2262.17105 663.108256,2262.19187 663.457828,2262.20976 C664.832091,2262.28862 666.219586,2262.35251 667.583056,2262.40034 C668.44097,2262.43247 669.359467,2262.4657 670.340288,2262.48797 L670.897375,2262.50257 C671.709329,2262.52375 672.549486,2262.54602 673.415408,2262.55588 C673.75349,2262.56026 674.095402,2262.56537 674.440796,2262.57085 C675.002757,2262.57961 675.572727,2262.58874 676.146874,2262.59349 L677.139533,2263.1616 C677.301089,2263.25434 677.454287,2263.35803 677.601915,2263.47012 L677.190716,2264.94224 L678.596316,2264.51141 C678.70251,2264.66622 678.80209,2264.82723 678.890179,2264.99591 L679.905818,2266.94085 C679.924271,2266.97736 679.960482,2266.99927 680.000175,2267 C680.039171,2266.99927 680.075381,2266.97736 680.094531,2266.94085 L681.109474,2264.99591 C681.197563,2264.82723 681.297491,2264.66622 681.403337,2264.51141 L682.808589,2264.94224 L682.398085,2263.47012 C682.545365,2263.35803 682.699261,2263.25434 682.860119,2263.1616 L683.852779,2262.59349 C684.427274,2262.58874 684.997244,2262.57961 685.559205,2262.57085 C685.904599,2262.56537 686.246163,2262.56026 686.584245,2262.55588 C687.450167,2262.54602 688.289976,2262.52375 689.102278,2262.50257 L689.659365,2262.48797 C690.639838,2262.4657 691.559031,2262.43247 692.416597,2262.40034 C693.779719,2262.35251 695.16791,2262.28862 696.541825,2262.20976 C696.891397,2262.19187 697.188742,2262.17105 697.427941,2262.15426 L697.697084,2262.13564 C697.89868,2262.12213 698,2262.11556 698,2261.99398 C698,2261.87312 697.899028,2261.86619 697.698129,2261.85268 C697.61178,2261.84684 697.512897,2261.8399 697.401828,2261.8326 C697.167851,2261.81653 696.878514,2261.79645 696.540781,2261.77929 C695.12195,2261.69824 693.772407,2261.63544 692.416249,2261.58834 C691.510286,2261.55402 690.61651,2261.52189 689.659365,2261.50108 L689.259307,2261.49012 C688.397215,2261.46749 687.506572,2261.44302 686.584245,2261.4328 C686.245467,2261.42842 685.901466,2261.42294 685.555375,2261.41783 C684.990628,2261.4087 684.417177,2261.39958 683.8392,2261.39556 L682.860119,2260.83366 C682.699261,2260.74165 682.545365,2260.63723 682.398085,2260.52623 L682.808589,2259.05374 L681.403685,2259.48494 C681.297491,2259.33013 681.197563,2259.16948 681.109474,2259.00007 L680.094531,2257.05513 C680.075381,2257.01899 680.03743,2257.00073 680.000175,2257 M679.347867,2262.67965 C679.049132,2262.36894 678.471508,2262.09256 678.295331,2261.99726 C678.471508,2261.90124 679.049132,2261.62448 679.347867,2261.31414 C679.592287,2261.06039 679.880925,2260.4952 679.999653,2260.20968 L680.000001,2260.20968 L680.000349,2260.20968 C680.118729,2260.4952 680.407367,2261.06039 680.651786,2261.31414 C680.950173,2261.62448 681.528145,2261.90124 681.704322,2261.99726 C681.528145,2262.09256 680.950173,2262.36894 680.651786,2262.67965 C680.407367,2262.9334 680.118729,2263.49823 680.000349,2263.78411 L680.000001,2263.78411 L679.999653,2263.78411 C679.880925,2263.49823 679.592287,2262.9334 679.347867,2262.67965" id="Page-1"></path>
        </g>
    </g>
</svg>