<svg width="369" height="96" viewBox="0 0 369 96" version="1.1" xmlns="http://www.w3.org/2000/svg" xmlns:xlink="http://www.w3.org/1999/xlink">
<title>7</title>
<desc>Created using Figma</desc>
<g id="Canvas" transform="translate(1637 -349)">
<g id="7">
<g id="Vector">
<use xlink:href="#path0_fill" transform="translate(-1636.58 349.427)" fill="url(#paint0_linear)"/>
<use xlink:href="#path1_fill" transform="translate(-1636.58 349.427)" fill="url(#paint1_linear)"/>
<use xlink:href="#path2_fill" transform="translate(-1636.58 349.427)" fill="url(#paint2_linear)"/>
<use xlink:href="#path3_fill" transform="translate(-1636.58 349.427)" fill="url(#paint3_linear)"/>
<use xlink:href="#path4_fill" transform="translate(-1636.58 349.427)" fill="url(#paint4_linear)"/>
</g>
<g id="&#208;&#155;&#208;&#184;&#208;&#191;&#208;&#186;&#208;&#184;">
<use xlink:href="#path5_fill" transform="translate(-1520 326)" fill="#FFFFFF"/>
</g>
</g>
</g>
<defs>
<linearGradient id="paint0_linear" x1="0" y1="0" x2="1" y2="0" gradientUnits="userSpaceOnUse" gradientTransform="matrix(-63 95 -35.1275 -23.2951 94.6463 11.2209)">
<stop offset="0" stop-color="#FF7623"/>
<stop offset="1" stop-color="#FFEE7B"/>
</linearGradient>
<linearGradient id="paint1_linear" x1="0" y1="0" x2="1" y2="0" gradientUnits="userSpaceOnUse" gradientTransform="matrix(-63 95 -35.1275 -23.2951 94.6463 11.2209)">
<stop offset="0" stop-color="#FF7623"/>
<stop offset="1" stop-color="#FFEE7B"/>
</linearGradient>
<linearGradient id="paint2_linear" x1="0" y1="0" x2="1" y2="0" gradientUnits="userSpaceOnUse" gradientTransform="matrix(-63 95 -35.1275 -23.2951 94.6463 11.2209)">
<stop offset="0" stop-color="#FF7623"/>
<stop offset="1" stop-color="#FFEE7B"/>
</linearGradient>
<linearGradient id="paint3_linear" x1="0" y1="0" x2="1" y2="0" gradientUnits="userSpaceOnUse" gradientTransform="matrix(-63 95 -35.1275 -23.2951 94.6463 11.2209)">
<stop offset="0" stop-color="#FF7623"/>
<stop offset="1" stop-color="#FFEE7B"/>
</linearGradient>
<linearGradient id="paint4_linear" x1="0" y1="0" x2="1" y2="0" gradientUnits="userSpaceOnUse" gradientTransform="matrix(-63 95 -35.1275 -23.2951 94.6463 11.2209)">
<stop offset="0" stop-color="#FF7623"/>
<stop offset="1" stop-color="#FFEE7B"/>
</linearGradient>
<path id="path0_fill" fill-rule="evenodd" d="M 52.0207 94.7972C 74.1962 92.7035 92.5078 75.1603 94.7744 52.1626C 97.3475 26.0556 78.2696 2.8057 52.1626 0.232521C 26.0555 -2.34063 2.80565 16.7373 0.232528 42.8443C -2.24172 67.9474 15.3021 90.4089 39.8646 94.3868C 40.848 92.5775 41.9247 90.6138 42.949 88.7528C 20.3883 86.2672 3.97142 66.0805 6.2036 43.4329C 8.45177 20.6236 28.7648 3.95545 51.5741 6.20359C 74.3834 8.45173 91.0515 28.7648 88.8033 51.5741C 86.9505 70.372 72.8282 84.9988 55.1509 88.3037L 52.0207 94.7972Z"/>
<path id="path1_fill" fill-rule="evenodd" d="M 61.7035 79.0928C 72.3553 74.0981 80.1797 63.7794 81.4174 51.2217C 83.2863 32.2597 69.4297 15.3729 50.4678 13.504C 46.7399 13.1366 43.0922 13.377 39.6231 14.1444C 39.3542 16.0905 39.1714 18.2153 39.1479 20.4569C 42.5327 19.4748 46.1576 19.1083 49.8793 19.4751C 65.5435 21.019 76.9902 34.9689 75.4464 50.6331C 74.5341 59.8885 69.2907 67.6715 61.9217 72.1723C 62.1022 74.6245 61.9969 76.9466 61.7035 79.0928Z"/>
<path id="path2_fill" fill-rule="evenodd" d="M 59.5144 61.9531C 63.1451 58.8005 65.6238 54.3071 66.1327 49.1442C 67.189 38.4265 59.357 28.8818 48.6394 27.8255C 45.5679 27.5228 42.5927 27.95 39.8861 28.966C 40.2551 30.8891 40.7788 32.8387 41.4932 34.7844C 43.4972 33.9397 45.7345 33.5682 48.0509 33.7966C 55.4708 34.5279 60.8929 41.1357 60.1616 48.5556C 59.8635 51.5809 58.5884 54.274 56.6797 56.3533C 57.8351 58.2425 58.7698 60.1139 59.5144 61.9531Z"/>
<path id="path3_fill" fill-rule="evenodd" d="M 43.3102 16.0176C 43.2 23.5838 44.885 34.1769 52.2554 46.0125C 60.1497 58.6893 62.9727 68.3636 63.3039 75.9383C 63.5612 83.5231 61.3844 88.8281 59.9457 92.1773L 54.4328 89.8092C 54.462 89.7413 54.4913 89.673 54.5208 89.6045C 55.9394 86.305 57.6503 82.3257 57.3096 76.2005C 57.0358 69.938 54.6819 61.2594 47.1622 49.1842C 39.1187 36.2677 37.1857 24.5183 37.3109 15.9301C 37.3814 11.6676 37.9678 8.08425 38.5142 5.73352C 38.7984 4.52008 39.0934 3.52052 39.2993 2.88812C 39.4084 2.55449 39.5078 2.27387 39.5704 2.10423C 39.6049 2.01109 39.6366 1.92816 39.6548 1.88134C 39.6656 1.85386 39.6762 1.82707 39.6817 1.81332L 39.6909 1.79032L 39.6945 1.78158L 39.696 1.77791C 39.6967 1.77627 39.6973 1.7747 42.4728 2.91341C 45.2483 4.05212 45.2489 4.05071 45.2494 4.04937L 45.2503 4.04707L 45.2517 4.0438C 45.2517 4.04363 45.2515 4.04411 45.2517 4.0438C 45.2519 4.04332 45.2524 4.04211 45.2522 4.04259L 45.2448 4.06136C 45.233 4.09147 45.2207 4.1235 45.199 4.18239C 45.1493 4.31683 45.0881 4.48862 45.0037 4.74838C 44.8226 5.30274 44.5991 6.05382 44.3575 7.09583C 43.8522 9.25602 43.3575 12.2029 43.3102 16.0176Z"/>
<path id="path4_fill" fill-rule="evenodd" d="M 41.2916 91.6894C 40.9045 92.3513 40.6043 92.8645 40.4409 93.2451L 34.9596 90.8046C 35.2669 90.1291 35.7 89.3817 36.1687 88.5728C 36.5172 87.9713 36.8855 87.3358 37.2365 86.6703C 38.0856 85.0721 38.8553 83.3812 39.3131 81.1962C 40.208 77.071 39.9437 71.2507 35.0019 63.3508L 40.0886 60.1688C 45.7739 69.2572 46.4364 76.6618 45.1767 82.4683C 44.5571 85.2492 43.4792 87.7008 42.5377 89.4806C 42.0748 90.3501 41.6466 91.0822 41.2916 91.6894Z"/>
<path id="path5_fill" d="M 50.112 33.48L 27.756 33.48C 19.872 33.48 15.444 38.124 14.904 47.088C 13.176 74.088 12.312 82.08 9.396 91.368C 7.668 96.984 4.86 99.36 0.756 100.764L 1.512 108.108C 9.396 108.108 15.012 103.032 18.252 93.96C 21.924 84.24 22.572 74.196 24.192 48.816C 24.516 43.632 26.352 41.256 30.132 41.256L 40.716 41.256L 40.716 108L 50.112 108L 50.112 33.48ZM 102.195 108L 102.195 55.404L 93.231 55.404L 74.979 89.64C 74.115 91.368 72.819 93.96 71.955 96.552L 71.739 96.552C 71.955 93.96 71.955 91.044 71.955 88.668L 71.955 55.404L 63.855 55.404L 63.855 108L 72.711 108L 90.963 73.872C 91.935 71.82 93.231 69.444 93.987 66.852L 94.311 66.852C 94.095 69.768 93.987 72.144 93.987 74.736L 93.987 108L 102.195 108ZM 152.589 55.404L 115.113 55.404L 115.113 108L 124.077 108L 124.077 62.856L 143.625 62.856L 143.625 108L 152.589 108L 152.589 55.404ZM 186.695 80.46C 195.767 79.272 197.495 71.064 202.355 55.404L 193.067 55.404C 188.963 69.12 187.019 77.112 179.135 77.112L 174.167 77.112C 174.491 75.168 174.599 73.116 174.599 71.064L 174.599 55.404L 165.527 55.404L 165.527 108L 174.599 108L 174.599 89.316C 174.599 87.696 174.383 85.968 174.059 84.24L 179.567 84.24C 187.343 84.348 189.071 91.26 194.147 108L 203.759 108C 198.143 89.748 196.199 81.864 186.695 80.784L 186.695 80.46ZM 251.222 108L 251.222 55.404L 242.258 55.404L 224.006 89.64C 223.142 91.368 221.846 93.96 220.982 96.552L 220.766 96.552C 220.982 93.96 220.982 91.044 220.982 88.668L 220.982 55.404L 212.882 55.404L 212.882 108L 221.738 108L 239.99 73.872C 240.962 71.82 242.258 69.444 243.014 66.852L 243.338 66.852C 243.122 69.768 243.014 72.144 243.014 74.736L 243.014 108L 251.222 108Z"/>
</defs>
</svg>
