<?xml version="1.0" encoding="utf-8"?>
<!-- Generator: Adobe Illustrator 19.2.0, SVG Export Plug-In . SVG Version: 6.00 Build 0)  -->
<svg version="1.1" id="Capa_1" xmlns="http://www.w3.org/2000/svg" xmlns:xlink="http://www.w3.org/1999/xlink" x="0px" y="0px"
	 viewBox="0 0 45.4 45.4" style="enable-background:new 0 0 45.4 45.4;" xml:space="preserve">
<style type="text/css">
	.st0{fill:#FFFFFF;}
</style>
<g>
	<path class="st0" d="M33.1,29.7c2.4-3.1,3.8-7,3.8-11.1c0-10.2-8.3-18.4-18.4-18.4C8.3,0.1,0,8.4,0,18.5C0,28.7,8.3,37,18.4,37
		c4.3,0,8.3-1.5,11.4-4l12.3,12.3l3.3-3.3L33.1,29.7z M18.4,32.8c-7.9,0-14.3-6.4-14.3-14.3c0-7.9,6.4-14.3,14.3-14.3
		c7.9,0,14.3,6.4,14.3,14.3S26.3,32.8,18.4,32.8z"/>
</g>
</svg>
