<svg id="Layer_1" xmlns="http://www.w3.org/2000/svg" viewBox="0 0 655.6 215.7"><style>.st0{display:none;fill:url(#SVGID_1_);stroke:#000;stroke-miterlimit:10}.st1{fill:#fff}.st2{fill:none}.st3{font-family:&apos;PFBulletinSansPro-Medium&apos;}.st4{font-size:36px}.st5{letter-spacing:-1}</style><radialGradient id="SVGID_1_" cx="333.253" cy="115.033" r="500" gradientUnits="userSpaceOnUse"><stop offset="0" stop-color="#0398dd"/><stop offset=".246" stop-color="#14bbf0"/><stop offset="1" stop-color="#bf7fd8"/></radialGradient><path class="st0" d="M-166.7-385h1000V615h-1000z"/><path class="st1" d="M577.4 73.1c-7.7.2-9.5-.3-10.6-1-2-1.3-.8-18-1.5-22.9 0 0-.1-1.9-1.6-1.8-1.4.1-7.1 9.6-19.8 27.8-1.2 2.6-1.9 4.4-2 8.5-.1 7.5.3 72.1.4 79 .1 7.3 2.5 16.3 4.6 20.3 0 0 6.2 16.8 27.6 22.6 8.3 2.3 14.2 2.2 15.4-2.5 2.4-8.8 2.4-19.7-2.3-20.1-10.9-.9-14.3-7.3-16.8-10-3.6-4-4.1-8.8-4.3-10.6-1.1-12.7-.8-25.7-.8-41.8 0-11.6-.3-22.5 4.9-22.9 10.6-.8 16 1.1 17.5-1.9 1.4-2.7 1.1-6 .9-13.1-.2-10.6-3.3-9.3-11.6-9.6m-77.9 25.6c0-4.9-.1-6.1 1.6-7.8 3.4-3.2 19.1-3.8 22.4-1 2.7 2.3 2.1 7.5 2.3 14.7.1 7 0 77-.4 95.1-.1 5.5-2 5.8-5.2 6.8-2 .6-11.1.6-14.6 0-4.5-.7-5.8-2.2-5.9-9-.2-37.1-.3-49.8-.2-98.8zm-171.4 0c0-4.9-.1-6.1 1.6-7.8 3.4-3.2 19.1-3.8 22.4-1 2.7 2.3 2.1 7.5 2.3 14.7.1 7 0 77-.4 95.1-.1 5.5-2 5.8-5.2 6.8-2 .6-11.1.6-14.6 0-4.5-.7-5.8-2.2-5.9-9-.1-37.1-.3-49.8-.2-98.8zM185 98.6c0-4.9-.1-6.1 1.6-7.8 3.4-3.2 19.1-3.8 22.4-1 2.7 2.3 2.1 7.5 2.3 14.7.1 7 0 77-.4 95.1-.1 5.5-2 5.8-5.2 6.8-2 .6-11.1.6-14.6 0-4.5-.7-5.8-2.2-5.9-9-.1-37.1-.2-49.8-.2-98.8zm2.3-45.9c0-.9.8-3.7 2.2-4 2.8-.5 14-.7 16.8-.2 2.3.4 2.6 4.2 2.7 5.5.1 1.3.1 8.3-.2 11.6-.1 1-1.7 4.1-4.3 4.3-1.6.1-9.2.1-12.1 0-3.7-.1-4.9-2.3-4.9-3.6-.1-6.8-.2-4.7-.2-13.6zm183.8 142.2C379 184 402.4 156 402.4 156s7 8 12.2 14.7c3.5 4.5 6 7 2.3 12.2-5.3 7.3-11.6 14.3-16.4 19.3-3.3 3.5-3.4 4.5-10.7 4.7-6.2.2-14.4.4-18.3-.1-6.1-1-5.8-4.5-.4-11.9zm-.7-106.6h16.7c7.1 0 6.9 1.3 10.1 5.1 3.2 3.9 28.9 36.9 28.9 36.9s57.1-72.8 60.2-76.9c3.2-4 4.3-6.4 9.6-6.4h18.7c7.4 0 7.5 3.5 3.8 8.9-3.5 5.2-92.1 118.1-92.1 118.1s-51.1-65-59-75.7c-5.6-7.3-1.7-10 3.1-10zm111.1 106.6c-7.9-10.9-31.3-38.9-31.3-38.9s-7 8-12.2 14.7c-3.5 4.5-6 7-2.3 12.2 5.3 7.3 11.6 14.3 16.4 19.3 3.3 3.5 3.4 4.5 10.7 4.7 6.2.2 14.4.4 18.3-.1 6.1-1 5.8-4.5.4-11.9zM246.8 9.2c44.9-.3 52.1-.3 84 0 8.7.1 9.3 1 9.3 7.1 0 9.3.1 8.4-.2 17.1-.2 5.9-4.4 4.5-15.9 4.5-18.7.1-17.8-.3-61.2.3-7.1.1-5.8 5.9-5.8 15.1 0 8.7-.4 11.1 0 25.1.2 6.4-1.3 7.6 7.6 7.5 23.6-.3 36-.1 44.5 0 9 .1 7.4 2.2 7.5 8 .1 3.3-.1 6.8-.1 14.4 0 4.6-.4 5-14.3 5.2-10.8.1-23.1-.3-41.4-.2-4.3 0-3.6 1.6-3.6 11.5.1 27.7-.1 53.7.3 70.6.2 7.9-1.3 10.5-6.8 11.1-6.8.7-9 .3-14.8 0-5.9-.3-5.3-2.2-5.7-18.2-.3-14.7.3-151.3 0-169.4-.4-7.2 2.9-9.6 16.6-9.7z"/><path class="st2" d="M607.5 36.9h41.8v28.9h-41.8z"/><text transform="translate(607.497 61.467)" class="st1 st3 st4 st5">24</text><ellipse class="st1" cx="57.7" cy="171.9" rx="8.4" ry="8.6"/><path class="st1" d="M128.9 57.5h5.8c2.6 0 4.7-2.1 4.7-4.7v-6.1c0-2.6-2.1-4.7-4.7-4.7h-5.8c-2.6 0-4.7 2.1-4.7 4.7v6.1c0 2.6 2.1 4.7 4.7 4.7zm-12.5 33.7h4.1c1.2 0 2.2-1 2.2-2.2v-4.3c0-1.2-1-2.2-2.2-2.2h-4.1c-1.2 0-2.2 1-2.2 2.2V89c0 1.2 1 2.2 2.2 2.2zm-20.8 66.9v-26c2.1.1 4.2-.1 7.5-.4 1.7-.2 2.9-.9 2.5-4.2-.3-2.8-.3-2.8-1-6.9-.6-3.5-1-4.4-.1-4.9 2-1.3 2.8-.8 3.6-.1 1.3 1.1 1.8 2.4 2.7 3.7 3.4 5.8 5 9 5.1 11.3 0 .9.4 4.2-1.4 6.2-2.2 2.4-5 4.7-9.2 7.4-1.4.9-3.5 1.3-3.5 5.6v8.3h-6.2z"/><path class="st1" d="M96.6 158.1v-26c-2.1.1-4.2-.1-7.5-.4-1.7-.2-2.9-.9-2.5-4.2.3-2.8.3-2.8 1-6.9.6-3.5 1-4.4.1-4.9-2-1.3-2.8-.8-3.6-.1-1.3 1.1-1.8 2.4-2.7 3.7-3.4 5.8-5 9-5.1 11.3 0 .9-.4 4.2 1.4 6.2 2.2 2.4 5 4.7 9.2 7.4 1.4.9 3.5 1.3 3.5 5.6v8.3h6.2zm-27.2 35.5H27.6c-2.4 0-4.3-2.2-4.3-4.9V67.9c0-2.7 1.9-4.9 4.3-4.9h17.1l1-13.2H22.6c-5.6 0-10.2 5.3-10.2 11.7v133.7c0 6.4 4.6 11.7 10.2 11.7h43.3l3.5-13.3z"/><path class="st1" d="M91.5 49.8H47.6l-1 13.2h39.6c2.4 0 4.3 2.2 4.3 4.9v28.4c0 .4.3.7.6.7h10.1c.3 0 .6-.3.6-.7V61.4c0-6.4-4.6-11.6-10.3-11.6zm9.2 83.9h-9.2c-.6 0-1 .5-1 1.2v53.9c0 2.7-1.9 4.9-4.3 4.9H71.4l-3.6 13.1c.2.1.4.2.6.2h23.2c5.6 0 10.2-5.3 10.2-11.7V135c0-.8-.5-1.3-1.1-1.3z"/></svg>