<?xml version="1.0" encoding="UTF-8"?>
<svg width="30px" height="30px" viewBox="0 0 30 30" version="1.1" xmlns="http://www.w3.org/2000/svg" xmlns:xlink="http://www.w3.org/1999/xlink">
    <!-- Generator: Sketch 53.2 (72643) - https://sketchapp.com -->
    <title>icon-silver</title>
    <desc>Created with Sketch.</desc>
    <defs>
        <linearGradient x1="93.0189106%" y1="50%" x2="3.26308699%" y2="50%" id="linearGradient-1">
            <stop stop-color="#858585" offset="0%"></stop>
            <stop stop-color="#D5D5D5" offset="48.2794436%"></stop>
            <stop stop-color="#858585" offset="100%"></stop>
        </linearGradient>
        <path d="M15,0 L15,0 C23.2842712,-1.52179594e-15 30,6.71572875 30,15 L30,15 C30,23.2842712 23.2842712,30 15,30 L15,30 C6.71572875,30 1.01453063e-15,23.2842712 0,15 L0,15 C-1.01453063e-15,6.71572875 6.71572875,1.52179594e-15 15,0 Z" id="path-2"></path>
        <path d="M13.8146104,22.9821429 L7.19642857,14.9380751 L13.8146104,14.9380751 L13.8146104,22.9821429 Z M22.3630952,13.1109564 L7.22149744,13.1109564 L10.4849325,9.32029581 C10.6692251,9.10631655 10.9456639,8.98214286 11.2382521,8.98214286 L18.3463405,8.98214286 C18.6384538,8.98214286 18.9152093,9.10646601 19.0993435,9.32029581 L22.3630952,13.1109564 Z M22.3630952,14.9380751 L15.7449134,22.9821429 L15.7449134,14.9380751 L22.3630952,14.9380751 Z" id="path-4"></path>
    </defs>
    <g id="Symbols" stroke="none" stroke-width="1" fill="none" fill-rule="evenodd">
        <g id="cmp/londonfixing_group" transform="translate(-151.000000, -1.000000)">
            <g id="item-copy-2">
                <g transform="translate(151.000000, 1.000000)">
                    <g id="icon-silver">
                        <mask id="mask-3" fill="white">
                            <use xlink:href="#path-2"></use>
                        </mask>
                        <use id="bg" fill="url(#linearGradient-1)" fill-rule="nonzero" transform="translate(15.000000, 15.000000) rotate(-360.000000) translate(-15.000000, -15.000000) " xlink:href="#path-2"></use>
                        <mask id="mask-5" fill="white">
                            <use xlink:href="#path-4"></use>
                        </mask>
                        <use id="Combined-Shape" fill="#000000" style="mix-blend-mode: soft-light;" xlink:href="#path-4"></use>
                    </g>
                </g>
            </g>
        </g>
    </g>
</svg>