<?xml version="1.0" encoding="UTF-8"?>
<svg width="212px" height="40px" viewBox="0 0 212 40" version="1.1" xmlns="http://www.w3.org/2000/svg" xmlns:xlink="http://www.w3.org/1999/xlink">
    <!-- Generator: Sketch 53.2 (72643) - https://sketchapp.com -->
    <title>_Logos/logo</title>
    <desc>Created with Sketch.</desc>
    <defs>
        <linearGradient x1="97.5797412%" y1="50%" x2="0%" y2="50%" id="linearGradient-1">
            <stop stop-color="#C1985C" offset="0%"></stop>
            <stop stop-color="#EDE4AA" offset="48.2794436%"></stop>
            <stop stop-color="#A8863C" offset="100%"></stop>
        </linearGradient>
        <linearGradient x1="93.0189106%" y1="50%" x2="3.26308699%" y2="50%" id="linearGradient-2">
            <stop stop-color="#858585" offset="0%"></stop>
            <stop stop-color="#D5D5D5" offset="48.2794436%"></stop>
            <stop stop-color="#858585" offset="100%"></stop>
        </linearGradient>
        <linearGradient x1="93.0189106%" y1="50%" x2="3.26308699%" y2="50%" id="linearGradient-3">
            <stop stop-color="#858585" offset="0%"></stop>
            <stop stop-color="#D5D5D5" offset="48.2794436%"></stop>
            <stop stop-color="#858585" offset="100%"></stop>
        </linearGradient>
        <linearGradient x1="97.5797412%" y1="50%" x2="0%" y2="50%" id="linearGradient-4">
            <stop stop-color="#C1985C" offset="0%"></stop>
            <stop stop-color="#EDE4AA" offset="48.2794436%"></stop>
            <stop stop-color="#A8863C" offset="100%"></stop>
        </linearGradient>
        <path d="M0.5,6 L6.62,6 C9.6,6 11.46,7.14 11.46,9.54 C11.46,11.18 10.58,12.18 9.34,12.6 C10.72,13 12.02,14.02 12.02,16.08 C12.02,19.26 8.96,20 6.52,20 L0.5,20 L0.5,6 Z M9.02,15.76 C9.02,14.28 7.84,13.96 6.64,13.96 L3.48,13.96 L3.48,17.56 L6.48,17.56 C7.82,17.56 9.02,17.28 9.02,15.76 Z M8.48,10.06 C8.48,8.96 7.68,8.46 6.36,8.46 L3.5,8.46 L3.5,11.66 L6.52,11.66 C7.66,11.66 8.48,11.14 8.48,10.06 Z M16.36,11.84 C17.04,10.78 18.44,10.02 20.24,10.2 L20.24,12.9 C18.72,12.64 17.26,13.22 16.68,14.36 L16.68,20 L13.9,20 L13.9,10.4 L16.36,10.4 L16.36,11.84 Z M24.52,20 L21.74,20 L21.74,10.4 L24.52,10.4 L24.52,20 Z M24.76,7.22 C24.76,8.32 24,8.8 23.12,8.8 C22.26,8.8 21.5,8.32 21.5,7.22 C21.5,6.14 22.26,5.66 23.12,5.66 C24,5.66 24.76,6.14 24.76,7.22 Z M26.96,5.4 L29.74,5.4 L29.74,20 L26.96,20 L26.96,5.4 Z M32.18,5.4 L34.96,5.4 L34.96,20 L32.18,20 L32.18,5.4 Z M40.16,20 L37.38,20 L37.38,10.4 L40.16,10.4 L40.16,20 Z M40.4,7.22 C40.4,8.32 39.64,8.8 38.76,8.8 C37.9,8.8 37.14,8.32 37.14,7.22 C37.14,6.14 37.9,5.66 38.76,5.66 C39.64,5.66 40.4,6.14 40.4,7.22 Z M51.14,17.52 C51.14,18.02 51.46,18.16 51.82,18.16 C51.98,18.16 52.16,18.14 52.34,18.08 L52.34,19.9 C51.9,20.06 51.34,20.18 50.8,20.18 C49.82,20.18 49.08,19.82 48.68,19.1 C47.74,19.84 46.64,20.28 45.22,20.28 C43.42,20.28 41.86,19.24 41.86,17.34 C41.86,14.9 44.16,14.14 46.08,14.14 C46.84,14.14 47.68,14.24 48.36,14.4 L48.36,14.06 C48.36,13.1 47.6,12.44 46.1,12.44 C44.78,12.44 43.6,12.8 42.7,13.16 L42.7,10.76 C43.48,10.5 44.94,10.12 46.42,10.12 C49.3,10.12 51.14,11.3 51.14,14.46 L51.14,17.52 Z M46.72,15.8 C45.7,15.8 44.7,16.14 44.7,17.12 C44.7,17.84 45.36,18.3 46.2,18.3 C46.98,18.3 47.72,18.08 48.36,17.52 L48.36,16.02 C47.94,15.92 47.3,15.8 46.72,15.8 Z M56.12,11.62 C56.86,10.76 57.94,10.12 59.32,10.12 C61.84,10.12 63.22,11.84 63.22,14.06 L63.22,20 L60.44,20 L60.44,14.42 C60.44,13.12 59.66,12.52 58.58,12.52 C57.6,12.52 56.84,13.16 56.44,13.74 L56.44,20 L53.66,20 L53.66,10.4 L56.12,10.4 L56.12,11.62 Z M66.18,7.6 L68.94,6.94 L68.94,10.4 L71.98,10.4 L71.98,12.74 L68.94,12.74 L68.94,16.5 C68.94,17.5 69.44,17.94 70.48,17.94 C71.12,17.94 71.66,17.84 72.22,17.62 L72.22,19.86 C71.48,20.12 70.6,20.28 69.64,20.28 C67.78,20.28 66.18,19.42 66.18,17.04 L66.18,12.74 L64.56,12.74 L64.56,10.4 L66.18,10.4 L66.18,7.6 Z" id="path-5"></path>
    </defs>
    <g id="_Logos/logo" stroke="none" stroke-width="1" fill="none" fill-rule="evenodd">
        <g id="ba_logo">
            <g id="02.Logos/logo-img" transform="translate(0.000000, 3.000000)">
                <g transform="translate(-0.000000, -0.000000)">
                    <path d="M20.9514279,5.04978806 L20.9514279,10.5117718 L18.7895812,10.5117718 C17.5405391,10.5117718 16.3723557,11.0615673 15.584882,12.0199348 L13.6132778,14.4180738 L7.2613791,14.4180738 C6.61810336,14.4180738 6.03704386,14.1604959 5.61590488,13.7439303 C5.20644548,13.3411317 4.95039298,12.7873392 4.9344459,12.1760359 L12.0365335,12.1760359 C12.8478156,12.1760359 13.505017,11.5252076 13.505017,10.7240515 C13.505017,9.92289539 12.8478156,9.27228918 12.0365335,9.27228918 L3.47651891,9.27228918 C3.42598219,9.23054374 3.37814082,9.18791015 3.33209631,9.14172377 C2.9098343,8.72604634 2.65018808,8.14960482 2.65018808,7.51543028 C2.65018808,7.21477467 2.70813683,6.92833025 2.81437614,6.66542316 L12.0365335,6.66542316 C12.8478156,6.66542316 13.505017,6.01659335 13.505017,5.21454907 C13.505017,4.41294886 12.8478156,3.76256468 12.0365335,3.76256468 L0.608057129,3.76256468 C0.502491597,3.49987962 0.444542904,3.21343526 0.444542904,2.91411198 C0.444542904,1.64198805 1.48717067,0.6127867 2.77237454,0.6127867 L16.4621987,0.6127867 C18.9423142,0.6127867 20.9514279,2.59902314 20.9514279,5.04978806 Z M34.5725222,19.3691207 L13.0921886,19.3691207 L17.7217973,13.7361585 C17.9832404,13.418183 18.375405,13.2336596 18.7904796,13.2336596 L28.8742312,13.2336596 C29.2886319,13.2336596 29.6812457,13.4184051 29.9424642,13.7361585 L34.5725222,19.3691207 Z M34.5911646,22.0912305 L25.2088621,34.0279676 L25.2088621,22.0912305 L34.5911646,22.0912305 Z" id="Combined-Shape" fill="url(#linearGradient-1)" fill-rule="nonzero"></path>
                    <path d="M33.3836749,5.21454907 C33.3836749,6.01659335 34.0408763,6.66542316 34.8521585,6.66542316 L44.0743158,6.66542316 C44.1805551,6.92833025 44.2385039,7.21477467 44.2385039,7.51543028 C44.2385039,8.14960482 43.9777347,8.72604634 43.5565957,9.14172377 C43.5098773,9.18791015 43.4622605,9.23054374 43.4121731,9.27228918 L34.8521585,9.27228918 C34.0408763,9.27228918 33.3836749,9.92289539 33.3836749,10.7240515 C33.3836749,11.5252076 34.0408763,12.1760359 34.8521585,12.1760359 L41.9542461,12.1760359 C41.938299,12.7873392 41.6813481,13.3411317 41.2718887,13.7439303 C40.8516481,14.1604959 40.2696902,14.4180738 39.6273129,14.4180738 L34.0512083,14.4180738 L32.0793795,12.0199348 C31.2919058,11.0615673 30.1237224,10.5117718 28.8744557,10.5117718 L25.9372641,10.5117718 L25.9372641,5.04978806 C25.9372641,2.59902314 27.9463778,0.6127867 30.4255948,0.6127867 L44.1163174,0.6127867 C45.4015213,0.6127867 46.4441491,1.64198805 46.4441491,2.91411198 C46.4441491,3.21343526 46.3862004,3.49987962 46.279961,3.76256468 L34.8521585,3.76256468 C34.0408763,3.76256468 33.3836749,4.41294886 33.3836749,5.21454907 Z" id="Path" fill="url(#linearGradient-2)" fill-rule="nonzero"></path>
                    <polygon id="Path" fill="url(#linearGradient-3)" fill-rule="nonzero" points="22.455624 34.0279676 22.455624 22.0912305 13.0733215 22.0912305"></polygon>
                </g>
            </g>
            <g id="Group-2" transform="translate(64.000000, 0.000000)" fill-rule="nonzero">
                <g id="Group">
                    <g id="Brilliant">
                        <use fill="#DFCA93" xlink:href="#path-5"></use>
                        <use fill="url(#linearGradient-4)" xlink:href="#path-5"></use>
                    </g>
                    <path d="M78.5,20 L77.22,20 L83.46,6 L84.8,6 L91.02,20 L89.74,20 L88.08,16.24 L80.18,16.24 L78.5,20 Z M83.94,7.66 L80.64,15.12 L87.6,15.12 L84.3,7.66 C84.24,7.5 84.18,7.36 84.12,7.22 C84.06,7.36 84,7.5 83.94,7.66 Z M92.88,5.4 L94.02,5.4 L94.02,20 L92.88,20 L92.88,5.4 Z M97.26,5.4 L98.4,5.4 L98.4,20 L97.26,20 L97.26,5.4 Z M102.78,20 L101.64,20 L101.64,10.4 L102.78,10.4 L102.78,20 Z M102.96,7.48 C102.96,8 102.6,8.24 102.2,8.24 C101.78,8.24 101.42,8 101.42,7.48 C101.42,7 101.78,6.72 102.2,6.72 C102.6,6.72 102.96,7 102.96,7.48 Z M113.5,18.26 C113.5,18.9 113.9,19.1 114.36,19.1 C114.62,19.1 114.86,19.04 115.1,18.96 L115.1,19.88 C114.78,20 114.42,20.08 114.06,20.08 C113.24,20.08 112.5,19.68 112.4,18.6 C111.44,19.64 110.06,20.22 108.46,20.22 C106.78,20.22 105.12,19.34 105.12,17.38 C105.12,15 107.32,14.24 109.36,14.24 C110.38,14.24 111.46,14.4 112.38,14.66 L112.38,14.02 C112.38,12.34 111.3,11.22 109.32,11.22 C107.86,11.22 106.68,11.56 105.88,11.9 L105.88,10.78 C106.62,10.52 107.88,10.18 109.44,10.18 C111.98,10.18 113.5,11.6 113.5,14.16 L113.5,18.26 Z M106.28,17.32 C106.28,18.64 107.46,19.24 108.68,19.24 C110.12,19.24 111.52,18.58 112.38,17.36 L112.38,15.6 C111.54,15.38 110.48,15.2 109.52,15.2 C107.94,15.2 106.28,15.72 106.28,17.32 Z M117.82,12.12 C118.46,11.22 119.8,10.18 121.54,10.18 C123.76,10.18 125.44,11.7 125.44,14.08 L125.44,20 L124.3,20 L124.3,14.22 C124.3,12.24 123.06,11.22 121.42,11.22 C119.76,11.22 118.58,12.36 117.94,13.42 L117.94,20 L116.8,20 L116.8,10.4 L117.82,10.4 L117.82,12.12 Z M127.78,15.26 C127.78,11.72 130.46,10.18 132.96,10.18 C133.98,10.18 135.04,10.4 135.86,10.96 L135.86,12.06 C135.12,11.5 134.08,11.22 133.1,11.22 C131.04,11.22 128.92,12.4 128.92,15.24 C128.92,17.94 130.92,19.18 132.98,19.18 C134.04,19.18 135.12,18.9 135.96,18.4 L135.96,19.54 C135.04,20 133.98,20.22 132.82,20.22 C130.34,20.22 127.78,18.66 127.78,15.26 Z M137.66,15.2 C137.66,11.9 140.08,10.18 142.4,10.18 C146.04,10.18 147.28,13.2 146.78,15.72 L138.8,15.72 C138.94,18.16 140.96,19.18 143.1,19.18 C144.26,19.18 145.42,18.88 146.24,18.4 L146.24,19.52 C145.38,19.98 144.16,20.22 142.94,20.22 C140.14,20.22 137.66,18.66 137.66,15.2 Z M145.78,14.72 C145.94,13.36 145.18,11.22 142.48,11.22 C140.6,11.22 138.9,12.44 138.8,14.72 L145.78,14.72 Z" id="Alliance" fill="#FFFFFF"></path>
                </g>
                <path d="M0.092,26.4648649 L1.1,26.4648649 L1.1,34.8648649 L0.092,34.8648649 L0.092,26.4648649 Z M3.956,29.9568649 C4.34,29.4528649 5.108,28.9608649 6.032,28.9608649 C7.412,28.9608649 8.432,29.9088649 8.432,31.3128649 L8.432,34.8648649 L7.472,34.8648649 L7.472,31.4328649 C7.472,30.3528649 6.812,29.8488649 5.924,29.8488649 C5.072,29.8488649 4.436,30.4248649 4.052,31.0008649 L4.052,34.8648649 L3.092,34.8648649 L3.092,29.1048649 L3.956,29.1048649 L3.956,29.9568649 Z M14.264,29.1048649 L15.332,29.1048649 L12.788,34.8648649 L11.78,34.8648649 L9.236,29.1048649 L10.304,29.1048649 L12.284,33.7848649 L14.264,29.1048649 Z M15.776,31.9848649 C15.776,29.9688649 17.276,28.9608649 18.644,28.9608649 C20.864,28.9608649 21.68,30.7728649 21.32,32.4048649 L16.736,32.4048649 C16.856,33.6168649 17.948,34.1208649 19.112,34.1208649 C19.82,34.1208649 20.516,33.9288649 21.008,33.6528649 L21.008,34.5888649 C20.48,34.8648649 19.724,35.0088649 18.968,35.0088649 C17.264,35.0088649 15.776,34.0368649 15.776,31.9848649 Z M20.468,31.5648649 C20.552,30.9528649 20.168,29.8488649 18.704,29.8488649 C17.72,29.8488649 16.808,30.4368649 16.736,31.5648649 L20.468,31.5648649 Z M22.412,30.6168649 C22.412,29.4288649 23.528,28.9608649 24.608,28.9608649 C25.376,28.9608649 26.108,29.1648649 26.648,29.4528649 L26.648,30.3648649 C26.168,30.0528649 25.364,29.8248649 24.668,29.8248649 C24.044,29.8248649 23.384,30.0288649 23.384,30.5928649 C23.384,31.8408649 27.044,31.3128649 27.044,33.3888649 C27.044,34.5888649 25.916,35.0088649 24.668,35.0088649 C23.852,35.0088649 22.976,34.7928649 22.436,34.4448649 L22.436,33.5088649 C23.024,33.9048649 23.9,34.1208649 24.62,34.1208649 C25.436,34.1208649 26.084,33.9888649 26.084,33.4128649 C26.084,32.2008649 22.412,32.6808649 22.412,30.6168649 Z M28.724,27.3168649 L29.672,27.0768649 L29.672,29.1048649 L31.976,29.1048649 L31.976,29.9928649 L29.672,29.9928649 L29.672,32.9688649 C29.672,33.8448649 30.068,34.1088649 30.908,34.1088649 C31.364,34.1088649 31.796,34.0008649 32.18,33.8448649 L32.18,34.7328649 C31.748,34.8888649 31.184,34.9968649 30.632,34.9968649 C29.516,34.9968649 28.724,34.3968649 28.724,33.1368649 L28.724,29.9928649 L27.644,29.9928649 L27.644,29.1048649 L28.724,29.1048649 L28.724,27.3168649 Z M34.22,34.8648649 L33.26,34.8648649 L33.26,29.1048649 L34.124,29.1048649 L34.124,29.8728649 C34.436,29.5368649 35.12,28.9608649 36.092,28.9608649 C36.956,28.9608649 37.592,29.3328649 37.94,29.9328649 C38.456,29.4048649 39.164,28.9608649 40.04,28.9608649 C41.468,28.9608649 42.236,29.9688649 42.236,31.3128649 L42.236,34.8648649 L41.276,34.8648649 L41.276,31.2888649 C41.276,30.4128649 40.772,29.8488649 39.932,29.8488649 C39.152,29.8488649 38.576,30.3888649 38.252,30.7968649 C38.276,30.9648649 38.288,31.1328649 38.288,31.3128649 L38.288,34.8648649 L37.328,34.8648649 L37.328,31.2888649 C37.328,30.4128649 36.824,29.8488649 35.984,29.8488649 C35.132,29.8488649 34.532,30.4848649 34.22,30.8928649 L34.22,34.8648649 Z M43.544,31.9848649 C43.544,29.9688649 45.044,28.9608649 46.412,28.9608649 C48.632,28.9608649 49.448,30.7728649 49.088,32.4048649 L44.504,32.4048649 C44.624,33.6168649 45.716,34.1208649 46.88,34.1208649 C47.588,34.1208649 48.284,33.9288649 48.776,33.6528649 L48.776,34.5888649 C48.248,34.8648649 47.492,35.0088649 46.736,35.0088649 C45.032,35.0088649 43.544,34.0368649 43.544,31.9848649 Z M48.236,31.5648649 C48.32,30.9528649 47.936,29.8488649 46.472,29.8488649 C45.488,29.8488649 44.576,30.4368649 44.504,31.5648649 L48.236,31.5648649 Z M51.38,29.9568649 C51.764,29.4528649 52.532,28.9608649 53.456,28.9608649 C54.836,28.9608649 55.856,29.9088649 55.856,31.3128649 L55.856,34.8648649 L54.896,34.8648649 L54.896,31.4328649 C54.896,30.3528649 54.236,29.8488649 53.348,29.8488649 C52.496,29.8488649 51.86,30.4248649 51.476,31.0008649 L51.476,34.8648649 L50.516,34.8648649 L50.516,29.1048649 L51.38,29.1048649 L51.38,29.9568649 Z M57.872,27.3168649 L58.82,27.0768649 L58.82,29.1048649 L61.124,29.1048649 L61.124,29.9928649 L58.82,29.9928649 L58.82,32.9688649 C58.82,33.8448649 59.216,34.1088649 60.056,34.1088649 C60.512,34.1088649 60.944,34.0008649 61.328,33.8448649 L61.328,34.7328649 C60.896,34.8888649 60.332,34.9968649 59.78,34.9968649 C58.664,34.9968649 57.872,34.3968649 57.872,33.1368649 L57.872,29.9928649 L56.792,29.9928649 L56.792,29.1048649 L57.872,29.1048649 L57.872,27.3168649 Z M65,32.0088649 C65,29.9088649 66.62,28.9608649 68.12,28.9608649 C68.768,28.9608649 69.404,29.1048649 69.896,29.4288649 L69.896,30.3648649 C69.464,30.0288649 68.852,29.8488649 68.24,29.8488649 C67.124,29.8488649 65.96,30.4728649 65.96,31.9848649 C65.96,33.4608649 67.088,34.1208649 68.216,34.1208649 C68.84,34.1208649 69.476,33.9408649 69.956,33.6528649 L69.956,34.6128649 C69.416,34.8768649 68.804,35.0088649 68.084,35.0088649 C66.572,35.0088649 65,34.0608649 65,32.0088649 Z M70.844,31.9848649 C70.844,30.0168649 72.356,28.9608649 73.916,28.9608649 C75.488,28.9608649 76.988,30.0168649 76.988,31.9848649 C76.988,33.9528649 75.488,35.0088649 73.916,35.0088649 C72.356,35.0088649 70.844,33.9528649 70.844,31.9848649 Z M76.028,31.9848649 C76.028,30.6528649 75.092,29.8728649 73.916,29.8728649 C72.74,29.8728649 71.804,30.6528649 71.804,31.9848649 C71.804,33.3168649 72.74,34.0968649 73.916,34.0968649 C75.092,34.0968649 76.028,33.3168649 76.028,31.9848649 Z M79.328,34.8648649 L78.368,34.8648649 L78.368,29.1048649 L79.232,29.1048649 L79.232,29.8728649 C79.544,29.5368649 80.228,28.9608649 81.2,28.9608649 C82.064,28.9608649 82.7,29.3328649 83.048,29.9328649 C83.564,29.4048649 84.272,28.9608649 85.148,28.9608649 C86.576,28.9608649 87.344,29.9688649 87.344,31.3128649 L87.344,34.8648649 L86.384,34.8648649 L86.384,31.2888649 C86.384,30.4128649 85.88,29.8488649 85.04,29.8488649 C84.26,29.8488649 83.684,30.3888649 83.36,30.7968649 C83.384,30.9648649 83.396,31.1328649 83.396,31.3128649 L83.396,34.8648649 L82.436,34.8648649 L82.436,31.2888649 C82.436,30.4128649 81.932,29.8488649 81.092,29.8488649 C80.24,29.8488649 79.64,30.4848649 79.328,30.8928649 L79.328,34.8648649 Z M89.912,30.0648649 C90.428,29.4768649 91.136,28.9608649 92.24,28.9608649 C93.884,28.9608649 95.12,30.2568649 95.12,31.9848649 C95.12,33.7128649 93.884,35.0088649 92.24,35.0088649 C91.136,35.0088649 90.428,34.4928649 90.008,34.0008649 L90.008,37.5048649 L89.048,37.5048649 L89.048,29.1048649 L89.912,29.1048649 L89.912,30.0648649 Z M94.16,31.9848649 C94.16,30.6648649 93.248,29.8488649 92.132,29.8488649 C91.1,29.8488649 90.332,30.5208649 90.008,31.2648649 L90.008,32.7048649 C90.332,33.4488649 91.1,34.1208649 92.132,34.1208649 C93.248,34.1208649 94.16,33.3048649 94.16,31.9848649 Z M101.18,33.6648649 C101.18,34.0128649 101.372,34.1088649 101.624,34.1088649 C101.768,34.1088649 101.924,34.0728649 102.068,34.0248649 L102.068,34.8048649 C101.84,34.8888649 101.588,34.9368649 101.348,34.9368649 C100.88,34.9368649 100.46,34.7448649 100.292,34.2408649 C99.716,34.7208649 98.984,35.0088649 98.048,35.0088649 C97.028,35.0088649 96.02,34.4688649 96.02,33.2568649 C96.02,31.7688649 97.388,31.3128649 98.624,31.3128649 C99.128,31.3128649 99.74,31.3848649 100.22,31.4928649 L100.22,31.2888649 C100.22,30.4248649 99.632,29.8488649 98.576,29.8488649 C97.688,29.8488649 96.98,30.0648649 96.476,30.2808649 L96.476,29.3448649 C96.932,29.1888649 97.724,28.9608649 98.672,28.9608649 C100.208,28.9608649 101.18,29.8008649 101.18,31.4088649 L101.18,33.6648649 Z M97.004,33.2088649 C97.004,33.8808649 97.616,34.1808649 98.252,34.1808649 C98.984,34.1808649 99.716,33.8808649 100.22,33.3408649 L100.22,32.2848649 C99.812,32.2008649 99.224,32.1168649 98.756,32.1168649 C97.916,32.1168649 97.004,32.3688649 97.004,33.2088649 Z M103.892,29.9568649 C104.276,29.4528649 105.044,28.9608649 105.968,28.9608649 C107.348,28.9608649 108.368,29.9088649 108.368,31.3128649 L108.368,34.8648649 L107.408,34.8648649 L107.408,31.4328649 C107.408,30.3528649 106.748,29.8488649 105.86,29.8488649 C105.008,29.8488649 104.372,30.4248649 103.988,31.0008649 L103.988,34.8648649 L103.028,34.8648649 L103.028,29.1048649 L103.892,29.1048649 L103.892,29.9568649 Z M112.304,33.7728649 L114.248,29.1048649 L115.268,29.1048649 L112.436,35.7288649 C111.836,37.1208649 111.104,37.6488649 110.264,37.6488649 C110.06,37.6488649 109.856,37.6248649 109.64,37.5648649 L109.64,36.7368649 C109.808,36.7848649 109.976,36.8088649 110.144,36.8088649 C110.792,36.8088649 111.26,36.3408649 111.632,35.4048649 L111.848,34.8768649 L109.112,29.1048649 L110.132,29.1048649 L112.304,33.7728649 Z" id="Investmentcompany" fill="#777A85"></path>
            </g>
        </g>
    </g>
</svg>