<?xml version="1.0" encoding="UTF-8"?>
<svg width="38px" height="32px" viewBox="0 0 26 20" version="1.1" xmlns="http://www.w3.org/2000/svg" xmlns:xlink="http://www.w3.org/1999/xlink">
    <!-- Generator: Sketch 53.2 (72643) - https://sketchapp.com -->
    <title>logo-img</title>
    <desc>Created with Sketch.</desc>
    <defs>
        <linearGradient x1="97.5797412%" y1="50%" x2="0%" y2="50%" id="linearGradient-1">
            <stop stop-color="#C1985C" offset="0%"></stop>
            <stop stop-color="#EDE4AA" offset="48.2794436%"></stop>
            <stop stop-color="#A8863C" offset="100%"></stop>
        </linearGradient>
        <linearGradient x1="93.0189106%" y1="50%" x2="3.26308699%" y2="50%" id="linearGradient-2">
            <stop stop-color="#858585" offset="0%"></stop>
            <stop stop-color="#D5D5D5" offset="48.2794436%"></stop>
            <stop stop-color="#858585" offset="100%"></stop>
        </linearGradient>
        <linearGradient x1="93.0189106%" y1="50%" x2="3.26308699%" y2="50%" id="linearGradient-3">
            <stop stop-color="#858585" offset="0%"></stop>
            <stop stop-color="#D5D5D5" offset="48.2794436%"></stop>
            <stop stop-color="#858585" offset="100%"></stop>
        </linearGradient>
    </defs>
    <g id="🌀-✅--Home" stroke="none" stroke-width="1" fill="none" fill-rule="evenodd">
        <g id="ba_home" transform="translate(-903.000000, -3104.000000)" fill-rule="nonzero">
            <g id="Group-17" transform="translate(0.000000, 2920.000000)">
                <g id="Group-40" transform="translate(877.000000, 113.000000)">
                    <g id="logo-img" transform="translate(26.000000, 71.000000)">
                        <path d="M11.7181823,2.91940872 L11.7181823,6.07711805 L10.5090564,6.07711805 C9.81046432,6.07711805 9.15709663,6.39496862 8.71666076,6.94902478 L7.61393796,8.33544891 L4.06130622,8.33544891 C3.7015206,8.33544891 3.37653267,8.18653669 3.14098866,7.94570968 C2.91197706,7.71284176 2.76876631,7.3926805 2.75984707,7.03927073 L6.73206116,7.03927073 C7.18581317,7.03927073 7.55338743,6.66301061 7.55338743,6.19984226 C7.55338743,5.7366739 7.18581317,5.36054218 6.73206116,5.36054218 L1.94442511,5.36054218 C1.91615981,5.3364081 1.88940202,5.31176056 1.86364921,5.28505906 C1.62747709,5.04474554 1.48225636,4.71149029 1.48225636,4.34485813 C1.48225636,4.17104161 1.51466723,4.00544093 1.57408712,3.85344776 L6.73206116,3.85344776 C7.18581317,3.85344776 7.55338743,3.47834303 7.55338743,3.01466118 C7.55338743,2.55123606 7.18581317,2.17523271 6.73206116,2.17523271 L0.340087766,2.17523271 C0.281044719,2.02336791 0.24863388,1.85776726 0.24863388,1.68472099 C0.24863388,0.949274344 0.831778013,0.354267311 1.55059553,0.354267311 L9.20734602,0.354267311 C10.5944804,0.354267311 11.7181823,1.50256026 11.7181823,2.91940872 Z M19.3364921,11.1977729 L7.3224915,11.1977729 L9.91184244,7.94121664 C10.0580682,7.75738706 10.2774068,7.65070945 10.5095589,7.65070945 L16.1494246,7.65070945 C16.3811999,7.65070945 16.6007898,7.75751546 16.7468899,7.94121664 L19.3364921,11.1977729 Z M19.3469188,12.7714927 L14.0993752,19.6724188 L14.0993752,12.7714927 L19.3469188,12.7714927 Z" id="Combined-Shape" fill="url(#linearGradient-1)"></path>
                        <path d="M18.671567,3.01466118 C18.671567,3.47834303 19.0391413,3.85344776 19.4928933,3.85344776 L24.6508673,3.85344776 C24.7102872,4.00544093 24.7426981,4.17104161 24.7426981,4.34485813 C24.7426981,4.71149029 24.5968493,5.04474554 24.3613052,5.28505906 C24.3351756,5.31176056 24.3085434,5.3364081 24.2805294,5.36054218 L19.4928933,5.36054218 C19.0391413,5.36054218 18.671567,5.7366739 18.671567,6.19984226 C18.671567,6.66301061 19.0391413,7.03927073 19.4928933,7.03927073 L23.4651074,7.03927073 C23.4561882,7.3926805 23.3124749,7.71284176 23.0834633,7.94570968 C22.8484218,8.18653669 22.5229314,8.33544891 22.1636482,8.33544891 L19.04492,8.33544891 L17.9420715,6.94902478 C17.5016357,6.39496862 16.848268,6.07711805 16.1495502,6.07711805 L14.5067721,6.07711805 L14.5067721,2.91940872 C14.5067721,1.50256026 15.6304741,0.354267311 17.0171059,0.354267311 L24.6743589,0.354267311 C25.3931765,0.354267311 25.9763206,0.949274344 25.9763206,1.68472099 C25.9763206,1.85776726 25.9439097,2.02336791 25.8844898,2.17523271 L19.4928933,2.17523271 C19.0391413,2.17523271 18.671567,2.55123606 18.671567,3.01466118 Z" id="Path" fill="url(#linearGradient-2)"></path>
                        <polygon id="Path" fill="url(#linearGradient-3)" points="12.5594827 19.6724188 12.5594827 12.7714927 7.3119391 12.7714927"></polygon>
                    </g>
                </g>
            </g>
        </g>
    </g>
</svg>