<svg width="24px" height="24px" viewBox="0 0 24 24" version="1.1" xmlns="http://www.w3.org/2000/svg" xmlns:xlink="http://www.w3.org/1999/xlink">
  <g id="icons/plus" stroke="none" stroke-width="1" fill="none" fill-rule="evenodd">
    <path d="M22.6976241,10.3255655 L13.6744345,10.3255655 L13.6744345,1.30232709 C13.6744345,0.89128163 13.1162734,0 12,0 C10.8837266,0 10.3255655,0.891330425 10.3255655,1.30232709 L10.3255655,10.3256143 L1.30232709,10.3256143 C0.891330425,10.3255655 0,10.8837266 0,11.9999512 C0,13.1161758 0.891330425,13.6743857 1.30232709,13.6743857 L10.3256143,13.6743857 L10.3256143,22.6976729 C10.3256143,23.1086208 10.8837266,24 12.0000488,24 C13.116371,24 13.6744833,23.1086208 13.6744833,22.6976729 L13.6744833,13.6743857 L22.6977705,13.6743857 C23.1087184,13.6743857 24.0000976,13.1162734 24.0000976,11.9999512 C24.0000976,10.883629 23.1086208,10.3255655 22.6976241,10.3255655 Z" id="Path" fill="#dfca93"></path>
  </g>
</svg>