<svg width="24px" height="24px" viewBox="0 0 24 24" version="1.1" xmlns="http://www.w3.org/2000/svg" xmlns:xlink="http://www.w3.org/1999/xlink">
    <g id="icons/search" stroke="none" stroke-width="1" fill="none" fill-rule="evenodd">
        <path d="M23.7722977,22.6943144 L17.575884,16.5969188 C19.1985255,14.8339658 20.1955296,12.5024334 20.1955296,9.93682614 C20.1947453,4.44851918 15.6741881,0 10.0973727,0 C4.52055728,0 0,4.44851918 0,9.93682614 C0,15.4251331 4.52055728,19.8736523 10.0973727,19.8736523 C12.5069431,19.8736523 14.716948,19.0402142 16.4528819,17.6546279 L22.6733343,23.7760623 C22.9764277,24.0746459 23.4684984,24.0746459 23.7715918,23.7760623 C24.075391,23.4775179 24.075391,22.992898 23.7722977,22.6943144 Z M10.0973727,18.3448133 C5.37877925,18.3448133 1.55362294,14.5804403 1.55362294,9.93682614 C1.55362294,5.29321195 5.37877925,1.52883901 10.0973727,1.52883901 C14.8160053,1.52883901 18.6411224,5.29321195 18.6411224,9.93682614 C18.6411224,14.5804403 14.8160053,18.3448133 10.0973727,18.3448133 Z" id="🎨-Icon-Color" fill="#dfca93"></path>
    </g>
</svg>