<?xml version="1.0" encoding="UTF-8"?>
<svg width="44px" height="44px" viewBox="0 0 44 44" version="1.1" xmlns="http://www.w3.org/2000/svg" xmlns:xlink="http://www.w3.org/1999/xlink">
    <!-- Generator: Sketch 53.2 (72643) - https://sketchapp.com -->
    <title>tab-icon-palladium</title>
    <desc>Created with Sketch.</desc>
    <defs>
        <linearGradient x1="97.5797412%" y1="50%" x2="0%" y2="50%" id="linearGradient-1">
            <stop stop-color="#C9AA7C" offset="0%"></stop>
            <stop stop-color="#FFDFB1" offset="48.2794436%"></stop>
            <stop stop-color="#C9AA7C" offset="100%"></stop>
        </linearGradient>
        <path d="M16.7460186,7.58928571 L33.2539814,7.58928571 C36.4379769,7.58928571 37.5925706,7.92080575 38.7565918,8.54333108 C39.920613,9.16585642 40.8341436,10.079387 41.4566689,11.2434082 C42.0791942,12.4074294 42.4107143,13.5620231 42.4107143,16.7460186 L42.4107143,33.2539814 C42.4107143,36.4379769 42.0791942,37.5925706 41.4566689,38.7565918 C40.8341436,39.920613 39.920613,40.8341436 38.7565918,41.4566689 C37.5925706,42.0791942 36.4379769,42.4107143 33.2539814,42.4107143 L16.7460186,42.4107143 C13.5620231,42.4107143 12.4074294,42.0791942 11.2434082,41.4566689 C10.079387,40.8341436 9.16585642,39.920613 8.54333108,38.7565918 C7.92080575,37.5925706 7.58928571,36.4379769 7.58928571,33.2539814 L7.58928571,16.7460186 C7.58928571,13.5620231 7.92080575,12.4074294 8.54333108,11.2434082 C9.16585642,10.079387 10.079387,9.16585642 11.2434082,8.54333108 C12.4074294,7.92080575 13.5620231,7.58928571 16.7460186,7.58928571 Z" id="path-2"></path>
        <filter x="-143.6%" y="-114.9%" width="387.2%" height="387.2%" filterUnits="objectBoundingBox" id="filter-3">
            <feOffset dx="0" dy="10" in="SourceAlpha" result="shadowOffsetOuter1"></feOffset>
            <feGaussianBlur stdDeviation="15" in="shadowOffsetOuter1" result="shadowBlurOuter1"></feGaussianBlur>
            <feColorMatrix values="0 0 0 0 0   0 0 0 0 0   0 0 0 0 0  0 0 0 0 0" type="matrix" in="shadowBlurOuter1"></feColorMatrix>
        </filter>
        <path d="M5.06493506,10.7142857 L0,4.55811138 L5.06493506,4.55811138 L5.06493506,10.7142857 Z M11.6071429,3.1598063 L0.0191853601,3.1598063 L2.51671218,0.258790528 C2.65775244,0.0950308872 2.86931277,0 3.09323232,0 L8.5330959,0 C8.75665193,0 8.96845461,0.0951452664 9.10937368,0.258790528 L11.6071429,3.1598063 Z M11.6071429,4.55811138 L6.54220779,10.7142857 L6.54220779,4.55811138 L11.6071429,4.55811138 Z" id="path-4"></path>
    </defs>
    <g id="🌀-✅--Home" stroke="none" stroke-width="1" fill="none" fill-rule="evenodd">
        <g id="ba_home" transform="translate(-1451.000000, -976.000000)">
            <g id="Group-38" transform="translate(976.000000, 970.000000)">
                <g id="Group-29">
                    <g id="Rectangle-5-Copy-3" transform="translate(472.000000, 3.000000)">
                        <g id="Group-28">
                            <g id="tab-icon-palladium">
                                <g id="Rectangle" fill-rule="nonzero" transform="translate(25.000000, 25.000000) rotate(-45.000000) translate(-25.000000, -25.000000) ">
                                    <use fill="black" fill-opacity="1" filter="url(#filter-3)" xlink:href="#path-2"></use>
                                    <use fill="url(#linearGradient-1)" xlink:href="#path-2"></use>
                                </g>
                                <g id="Combined-Shape-2" transform="translate(19.196429, 20.982143)">
                                    <mask id="mask-5" fill="white">
                                        <use xlink:href="#path-4"></use>
                                    </mask>
                                    <use id="Combined-Shape" fill="#000000" style="mix-blend-mode: soft-light;" xlink:href="#path-4"></use>
                                </g>
                            </g>
                        </g>
                    </g>
                </g>
            </g>
        </g>
    </g>
</svg>