<?xml version="1.0" encoding="UTF-8"?>
<svg width="374px" height="112px" viewBox="0 0 374 112" version="1.1" xmlns="http://www.w3.org/2000/svg" xmlns:xlink="http://www.w3.org/1999/xlink">
    <!-- Generator: Sketch 49.1 (51147) - http://www.bohemiancoding.com/sketch -->
    <title>phie.logo</title>
    <desc>Created with Sketch.</desc>
    <defs>
        <linearGradient x1="50%" y1="100%" x2="50%" y2="-0.00178743789%" id="linearGradient-1">
            <stop stop-color="#00C9F7" offset="0%"></stop>
            <stop stop-color="#70E1F5" offset="38%"></stop>
            <stop stop-color="#F6CA8F" offset="77%"></stop>
            <stop stop-color="#F6AA45" offset="100%"></stop>
        </linearGradient>
        <linearGradient x1="49.9975515%" y1="-0.0382546312%" x2="49.9975515%" y2="100.021628%" id="linearGradient-2">
            <stop stop-color="#F6CA8F" offset="0%"></stop>
            <stop stop-color="#FF7900" offset="100%"></stop>
        </linearGradient>
    </defs>
    <g id="Page-2" stroke="none" stroke-width="1" fill="none" fill-rule="evenodd">
        <g id="phie.logo">
            <g id="phie" transform="translate(6.000000, 5.000000)">
                <g id="Group">
                    <path d="M33.0719811,100.877871 L33.0719811,100.877871 C29.4146985,100.877871 26.4498852,97.8984152 26.4498852,94.2230705 L26.4628063,16.7254879 C26.4628063,14.9605251 27.1604894,13.2678507 28.4023733,12.0198335 C29.6442572,10.7718164 31.3286132,10.0706877 33.0849023,10.0706877 L33.0849023,10.0706877 C36.7421848,10.0706877 39.7069982,13.0501432 39.7069982,16.7254879 L39.694077,94.2230705 C39.694077,97.8984152 36.7292637,100.877871 33.0719811,100.877871 L33.0719811,100.877871 Z" id="Shape" fill="url(#linearGradient-1)"></path>
                    <path d="M61.9152467,14.2713274 C59.6919609,10.0010186 56.5410655,6.28814304 52.6959971,3.40777192 C47.6993812,-0.305075712 41.0473904,-0.871847754 35.5000779,1.94262163 C29.9527655,4.75709101 26.4568286,10.472488 26.4628063,16.7173723 L26.4628063,16.727111 L39.7069982,16.727111 L39.7069982,16.7189954 C39.6896074,15.4756996 40.3924407,14.3354774 41.5078852,13.7973758 C42.5566315,13.2303759 43.8393953,13.3379069 44.7801697,14.0716834 C49.4640912,17.57925 52.1452325,22.8576428 52.1452325,28.554801 C52.1452325,38.6684741 43.5962682,46.8960795 33.0865174,46.8960795 C22.5767666,46.8960795 14.0278023,38.6684741 14.0278023,28.554801 C14.0234815,24.522785 15.3912638,20.6105083 17.9041511,17.4672546 C18.0656657,17.2643644 18.2271802,17.059851 18.4064613,16.8585839 C20.7294274,14.0730898 20.3990049,9.92988186 17.6642367,7.55173805 C14.9294684,5.17359424 10.8019171,5.44016552 8.39256019,8.15053439 C8.09860373,8.49139 7.81110786,8.84198435 7.53491801,9.18933246 C3.15232947,14.6815398 0.770641097,21.5148158 0.785225603,28.554801 C0.785225603,46.0066086 15.2763097,60.2056798 33.0881325,60.2056798 C50.8999554,60.2056798 65.3910395,46.0066086 65.3910395,28.554801 C65.3843877,23.5829862 64.1925251,18.6851285 61.9152467,14.2713274 L61.9152467,14.2713274 Z" id="Shape" fill="url(#linearGradient-2)"></path>
                </g>
            </g>
            <rect id="path" fill="#999999" x="4.03786337" y="0" width="1" height="111.021544"></rect>
            <rect id="path" fill="#999999" x="73.4891133" y="0" width="1" height="111.021544"></rect>
            <rect id="path" fill="#999999" x="47.1299412" y="66.7103139" width="31.0430936" height="1"></rect>
            <rect id="path" fill="#999999" x="0" y="66.7103139" width="30.8169732" height="1"></rect>
            <rect id="path" fill="#999999" x="0" y="106.963739" width="78.1730348" height="1"></rect>
            <rect id="path" fill="#999999" x="0" y="3.40855618" width="78.1730348" height="1"></rect>
            <g id="letter" transform="translate(338.000000, 44.000000)" fill="#000000">
                <path d="M35.2261716,39.501279 L24.0235235,39.501279 L24.0235235,28.3975015 L21.6444144,28.3975015 L13.7447385,39.501279 L0.700824697,39.501279 L9.67780254,26.7776257 C4.92119949,24.386767 2.23521278,19.4524762 2.23521278,14.6707588 C2.23521278,7.88448575 7.22278161,0.945639226 16.5082522,0.945639226 L35.2261716,0.945639226 L35.2261716,39.501279 Z M13.4346306,15.0570618 C13.4346306,17.4479205 15.049776,18.8356898 17.5015666,18.8356898 L24.0235235,18.8356898 L24.0235235,11.1307297 L17.5015666,11.1307297 C15.0449305,11.1307297 13.4346306,12.5915395 13.4346306,15.0570618 L13.4346306,15.0570618 Z" id="Shape"></path>
            </g>
            <g id="letter" transform="translate(296.000000, 44.000000)" fill="#000000">
                <polygon id="Shape" points="36.6860234 0.947262348 36.6860234 39.501279 25.4833753 39.501279 25.4833753 20.2202129 9.06703799 39.501279 0.626288408 39.501279 0.626288408 0.947262348 11.8289365 0.947262348 11.8289365 20.2202129 28.2501193 0.942392982"></polygon>
            </g>
            <g id="F" transform="translate(230.000000, 27.000000)" fill="#000000">
                <path d="M36.518364,51.7211848 L36.518364,58.0513605 L24.5485218,58.0513605 L24.5485218,51.7211848 C9.97668051,49.9471124 0.447322961,41.7730701 0.447322961,29.5136297 C0.447322961,17.2541893 9.9621442,9.07852378 24.5404461,7.30607456 L24.5404461,0.975898792 L36.5102883,0.975898792 L36.5102883,7.30607456 C51.0885902,9.0801469 60.6034114,17.2525661 60.6034114,29.5136297 C60.6034114,41.7746932 51.0966659,49.9471124 36.518364,51.7211848 Z M24.5485218,40.3853008 L24.5485218,18.6354661 C16.5680887,19.7148422 12.7321185,23.3425199 12.7321185,29.5103834 C12.7321185,35.678247 16.5680887,39.3059247 24.5469067,40.3853008 L24.5485218,40.3853008 Z M48.3347674,29.5103834 C48.3347674,23.3425199 44.4987972,19.7164653 36.518364,18.6354661 L36.518364,40.3853008 C44.4987972,39.3059247 48.3347674,35.6814932 48.3347674,29.5136297 L48.3347674,29.5103834 Z" id="Shape"></path>
            </g>
            <g id="a" transform="translate(183.000000, 43.000000)" fill="#000000">
                <path d="M41.9558288,1.94726235 L41.9558288,40.501279 L30.446303,40.501279 L30.446303,36.8784708 C27.9137551,39.808206 24.1472362,41.5855245 19.0126891,41.5855245 C8.96002449,41.5855245 0.674328858,32.7184091 0.674328858,21.2283285 C0.674328858,9.73824791 8.96325478,0.866263101 19.0207649,0.866263101 C24.1617725,0.866263101 27.9218309,2.64033544 30.4543788,5.57331688 L30.4543788,1.94726235 L41.9558288,1.94726235 Z M30.4479182,21.2202129 C30.4479182,15.4370292 26.611948,11.8061053 21.3175015,11.8061053 C16.0230551,11.8061053 12.1870849,15.4305367 12.1870849,21.2202129 C12.1870849,27.009889 16.0230551,30.6343204 21.3175015,30.6343204 C26.611948,30.6343204 30.4479182,27.0082659 30.4479182,21.2202129 Z" id="Shape"></path>
            </g>
            <g id="letter" transform="translate(137.000000, 43.000000)" fill="#000000">
                <path d="M41.8159717,21.2202129 C41.8159717,32.7102935 33.5286609,41.5774089 23.4776114,41.5774089 C18.3366037,41.5774089 14.5765454,39.8033366 12.0439975,36.8703551 L12.0439975,55.9241842 L0.534471731,55.9241842 L0.534471731,1.94726235 L12.0439975,1.94726235 L12.0439975,5.57169376 C14.5765454,2.64195856 18.3430643,0.864639979 23.4776114,0.864639979 C33.5254306,0.866263101 41.8159717,9.73500167 41.8159717,21.2202129 Z M30.3064459,21.2202129 C30.3064459,15.4370292 26.4704757,11.8061053 21.1760293,11.8061053 C15.8815828,11.8061053 12.0439975,15.4402755 12.0439975,21.2202129 C12.0439975,27.0001503 15.8799677,30.6343204 21.1744141,30.6343204 C26.4688606,30.6343204 30.3064459,27.0082659 30.3064459,21.2202129 Z" id="Shape"></path>
            </g>
            <g id="letter" transform="translate(103.000000, 29.000000)" fill="#000000">
                <polygon id="Shape" points="37.1477769 1.06323367 36.7875995 0.524357173 0.853845811 0.524357173 0.853845811 54.501279 13.1305656 54.501279 13.1305656 12.3991177 29.147962 12.3991177"></polygon>
            </g>
        </g>
    </g>
</svg>