<svg id="Layer_1" data-name="Layer 1" xmlns="http://www.w3.org/2000/svg" viewBox="0 0 441.48 214.5"><defs><style>.cls-1{fill:#0c0803;}.cls-2{font-size:22.87px;font-family:Montserrat-ExtraLight, Montserrat;letter-spacing:0.19em;}.cls-2,.cls-6{fill:#fff;}.cls-3{letter-spacing:0.2em;}.cls-4{letter-spacing:0.17em;}.cls-5{font-family:Montserrat-Black, Montserrat;letter-spacing:0.17em;}.cls-7{fill:#aa8f4f;}.cls-8{fill:#82652c;}</style></defs><title>Artboard 3 copy</title><rect class="cls-1" width="441.48" height="214.5"/><text class="cls-2" transform="translate(175.21 103.65)">С<tspan class="cls-3" x="20.65" y="0">ТРОИТЕЛЬН</tspan><tspan class="cls-4" x="209.73" y="0">А</tspan><tspan class="cls-3" x="230.13" y="0">Я</tspan><tspan class="cls-5"><tspan x="0" y="27.45">К</tspan><tspan class="cls-3" x="21.5" y="27.45">ОМПАНИЯ</tspan></tspan></text><polygon class="cls-6" points="139.58 160.95 99.57 198.19 43.55 165.87 27.55 151.39 26.15 89.68 94.88 53.68 98.47 20.85 116.79 31.42 118.88 56.9 140.82 78.34 139.58 160.95"/><path class="cls-7" d="M43.55,125.65h8V83.21l16-9.23v51.68h8V69.47l16-9.63v65.81h8V21.49l-8-4.62V33.15q-1.91-.1-3.84-.1A74.46,74.46,0,0,0,27.55,151.39V115.45l16-9.23Z"/><path class="cls-8" d="M123.58,42.25V35.33l-8-4.62V176.6a74.15,74.15,0,0,0,8-3.81v-87l16,9.23v65.89a74.44,74.44,0,0,0-16-118.7Z"/><polygon class="cls-7" points="123.57 85.83 123.57 175.85 115.58 183.29 115.58 90.44 123.57 85.83"/><polygon class="cls-8" points="99.57 198.19 99.57 64.46 91.57 59.85 91.57 193.57 99.57 198.19"/><polygon class="cls-6" points="75.56 184.34 77.51 68.36 65.71 75.11 67.56 179.72 75.56 184.34"/><polygon class="cls-8" points="51.55 170.49 51.55 110.84 43.55 106.22 43.55 165.87 51.55 170.49"/><polygon class="cls-6" points="51.55 83.21 51.55 170.49 91.57 193.57 91.57 59.85 51.55 83.21"/><polygon class="cls-7" points="78.63 113.26 85.7 112.26 85.7 123.63 78.63 123.8 78.63 113.26"/><polygon class="cls-7" points="78.63 93.68 85.7 91.14 85.7 102.5 78.63 104.22 78.63 93.68"/><polygon class="cls-7" points="78.63 74.1 85.7 70.01 85.7 81.38 78.63 84.64 78.63 74.1"/><polygon class="cls-7" points="67.19 114.86 72.52 114.11 72.52 123.92 67.19 124.06 67.19 114.86"/><polygon class="cls-7" points="67.19 97.78 72.52 95.86 72.52 105.68 67.19 106.97 67.19 97.78"/><polygon class="cls-7" points="67.19 80.7 72.52 77.61 72.52 87.43 67.19 89.89 67.19 80.7"/><polygon class="cls-7" points="58.34 116.1 62.5 115.51 62.5 124.15 58.34 124.25 58.34 116.1"/><polygon class="cls-7" points="58.34 100.95 62.5 99.45 62.5 108.09 58.34 109.11 58.34 100.95"/><polygon class="cls-7" points="58.34 85.81 62.5 83.39 62.5 92.03 58.34 93.96 58.34 85.81"/></svg>