<svg xmlns="http://www.w3.org/2000/svg" viewBox="0 0 362.47 151.48">
  <path fill="#bd985c" d="M232.46,147.47h26.48V148H232.46ZM181.2,89.79c-7.14-3.18-28.73-14.53-30.47-35.43V7.19h61V54.08C212.08,71,194.18,83.89,181.2,89.79ZM164.05,73.47a59.52,59.52,0,0,0,14.67,10.8V59.16h-5.08V75.95l-4.52-3.82V54.74h16.74a21.73,21.73,0,1,0-.08-43.46H164.05V45.11l21.82.13a12.23,12.23,0,1,0-.1-24.47H173.64V35.44h5.08V25.82h7.36a7.19,7.19,0,0,1-.14,14.39H169.13V16.35h15.6c.39,0,.76,0,1.15,0a16.69,16.69,0,1,1,0,33.38l-.76,0H164.05Zm19.62,10.78A67.75,67.75,0,0,0,196,75.85q1.18-1,2.29-2.14V56a26.05,26.05,0,0,1-5.07,2.1v14l-4.52,3.82V59a26.43,26.43,0,0,1-2.9.16h-2.18ZM154.62,11.07V54.2a29.29,29.29,0,0,0,5,13.75V11.07Zm48.27,57.22a26.44,26.44,0,0,0,5-14.17V47.17a26.29,26.29,0,0,1-5,5.69Zm-2.8-57.22a26.29,26.29,0,0,1,7.77,7.78V11.07ZM218.92,0V54c0,.1,0,.54,0,.83C218.46,69.36,209,80,199.86,87a81,81,0,0,1-18.24,10.43l-.38.15-.39-.14a74.49,74.49,0,0,1-17.7-10c-9-6.84-18.39-17.49-19.61-32.52,0-.29,0-.73,0-.88V0ZM215,54.72c0-.2,0-.53,0-.65V3.87H147.42V54.49c1.55,19.16,18.25,32.17,33.8,38.93C196.09,86.8,214.45,73.84,215,54.72ZM0,132.43V108.09H6.33v9.21h.45c6.22,0,5.91-4.66,5.91-9.21h6.4c0,5,.14,9.56-4.69,12.66L21,131.46v1H14.08L8.73,123a14.11,14.11,0,0,1-2.4.14v9.28Zm3.55-11.85h3.3a13.78,13.78,0,0,0,3.26-.42l6.14,10.05h.83l-6.31-10.3c4.22-1.55,5.51-5.38,5.48-9.45l-.7-.17c0,4.14-1.2,7.05-4,8.54a10.44,10.44,0,0,1-4.72,1.13H3.55v-9.67h-.8v19.93h.8Zm38.14-.28a6.12,6.12,0,1,0-12.2,0C29.49,129.13,41.69,129.13,41.69,120.3Zm-6.1,9.28c-4.46,0-8.91-3-8.91-9.28S31.12,111,35.59,111s8.92,3.14,8.92,9.25S40,129.55,35.59,129.58Zm-12.5-9.28c0-16.83,25-16.83,25,0S23.09,137.16,23.09,120.3Zm12.5,10c4.8,0,9.61-3.33,9.61-10s-4.81-10-9.62-10S26,113.67,26,120.3,30.78,130.28,35.59,130.28Zm27.83-16.62c-1.46,0-3,0-4.45,0v7h4.45C66.83,120.61,67,113.69,63.42,113.66Zm-7.23-2.43h7.3c3.47,0,5.25,2.92,5.26,5.89S67,123,63.49,123h-7.3Zm-3.44,21.21V108.09H63.46c11.65,0,11.65,18.11,0,18.11H59v6.22Zm10.74-8.66c7.65-.07,8.29-13.22,0-13.22h-8v19.72h.73v-6.5Zm33.66,8.66H90.79v-18.6H83.28v18.6H76.91V108.09H97.15Zm-17.46-2.19h.73V111.33H93.63v18.91h.7V110.6H79.69Zm40.79-9.95a6.12,6.12,0,1,0-12.2,0C108.28,129.13,120.48,129.13,120.48,120.3Zm-6.1,9.28c-4.46,0-8.92-3-8.92-9.28s4.45-9.28,8.92-9.25,8.92,3.14,8.92,9.25S118.84,129.55,114.38,129.58Zm-12.5-9.28c0-16.83,25-16.83,25,0S101.88,137.16,101.88,120.3Zm12.5,10c4.8,0,9.62-3.33,9.62-10s-4.81-10-9.62-10-9.61,3.34-9.61,10S109.57,130.28,114.38,130.28Zm27.83-16.62c-1.46,0-3,0-4.45,0v7h4.45C145.62,120.61,145.83,113.69,142.21,113.66ZM135,111.23h7.3c3.47,0,5.25,2.92,5.26,5.89S145.8,123,142.28,123H135Zm-3.44,21.21V108.09h10.71c11.65,0,11.65,18.11,0,18.11h-4.49v6.22Zm10.74-8.66c7.65-.07,8.29-13.22,0-13.22h-8v19.72H135v-6.5Zm23.71,0-2.57-5.6-2.5,5.6Zm3.79,2.29H157.16l6.3-13.56Zm-1.53,3.3h-9.6l-1.43,3.06h-6.08v-.9l11-23.75h2.68l11,23.75v.9h-6.08Zm4.27.87-8.89-19.09h-.43l-8.82,19.09h.84l1.63-3.44h13.23l1.6,3.44ZM179,108.09h6.36v18.6h7.06v-18.6h6.36V127h2.47v8.14h-5.11v-2.75H179Zm2.81,21.84h16.52V133h.7V129.2h-3V110.28h-.73V129.2H182.48V110.28h-.7Zm25.49,2.54H205V108.09h6.36V120l12.31-12H226v24.44h-6.43v-12Zm15.93-2.26V112.82l-.68.05c-4.66,4.6-9.26,9.06-13.92,13.65V110.28h-.73v17.42l.58,0c4.77-4.56,9.24-9.09,14-13.66v16.21Zm21-10.54v-6c-1.46,0-3,0-4.45,0-3.55,0-3.37,6,0,6Zm-4.49-8.45H247V122.1h-7.3a5.44,5.44,0,0,1,0-10.88Zm-5.11,12.58c-6.15-4.17-4.42-15.68,5.15-15.72h10.67v24.34h-6.22v-7.16h-3.23l-4.17,7.16h-7v-.9Zm5.11-1H247v7.44h.7V110.56h-8c-7.63,0-7.82,10.8-1.35,12.12l-.92,1.63-3.67,6h.83l4.52-7.51C239.26,122.81,239.47,122.84,239.67,122.84ZM349.24,121v5.91c1.43,0,3,0,4.45,0,3.62,0,3.41-5.91,0-5.91Zm4.52,8.34h-7.3V118.56h7.3a5.37,5.37,0,0,1,0,10.74Zm-4.52-13.94h4.49c11.65,0,11.65,17,0,17.07H343V108.09h6.22Zm4.52,2.43h-7.3v-7.54h-.73V130h8C362.06,130,361.41,117.86,353.77,117.79Zm-74.65-4.14c-1.46,0-3,0-4.45,0v7h4.45C282.52,120.61,282.73,113.69,279.11,113.66Zm-7.23-2.43h7.3c3.47,0,5.25,2.92,5.26,5.89S282.7,123,279.18,123h-7.3Zm-3.44,21.21V108.09h10.71c11.65,0,11.65,18.11,0,18.11h-4.49v6.22Zm10.74-8.66c7.65-.07,8.29-13.22,0-13.22h-8v19.72h.73v-6.5Zm14.88,8,3.82-7.86L289.68,109v-.94h7l4.59,9,4.35-9h6.75V109l-11.54,23.4h-6.71Zm-.33-21.52L301,124l-3,6.29h.77l9.77-20h-.84l-6.26,12.93-6.81-12.93Zm33-2.43c5,0,10.5,2.75,11.44,9.25H332a5.11,5.11,0,0,0-5.32-3.58c-3.65,0-6,2.75-6,6.78,0,3.58,2.36,6.71,6,6.74a5.18,5.18,0,0,0,5.42-3.93h6.12c-.9,6.88-6.36,9.6-11.54,9.6-6.19,0-12.45-4.14-12.48-12.41S320.52,107.82,326.71,107.82Zm8.14,17.28-.85.09a7.75,7.75,0,0,1-7.28,4.29,9.25,9.25,0,0,1,0-18.49,7.82,7.82,0,0,1,7.2,4h.82l-.14-.26a8.65,8.65,0,0,0-7.87-4.44,9.93,9.93,0,0,0,0,19.86,8.66,8.66,0,0,0,8-4.83ZM145.41,148.6a2.69,2.69,0,1,1-5.36,0v-1.72a2.69,2.69,0,1,1,5.36,0ZM144.05,147c0-1.2-.51-1.84-1.32-1.84s-1.32.64-1.32,1.84v1.39c0,1.2.51,1.84,1.32,1.84s1.32-.64,1.32-1.84Zm4.6,1.39c0,1.21.49,1.84,1.37,1.84.67,0,1.15-.48,1.26-1.36l1.35.2a2.58,2.58,0,0,1-2.66,2.37,2.65,2.65,0,0,1-2.67-2.89v-1.72A2.65,2.65,0,0,1,150,144a2.58,2.58,0,0,1,2.66,2.37l-1.35.2c-.11-.88-.59-1.36-1.26-1.36-.88,0-1.37.63-1.37,1.84Zm9.74-.19H156v3.11h-1.36v-7.24H156V147h2.4v-2.92h1.36v7.24h-1.36Zm8.82.35a2.69,2.69,0,1,1-5.36,0v-1.72a2.69,2.69,0,1,1,5.36,0ZM165.85,147c0-1.2-.51-1.84-1.32-1.84s-1.32.64-1.32,1.84v1.39c0,1.2.51,1.84,1.32,1.84s1.32-.64,1.32-1.84Zm3.46,4.32v-7.24h2.46c1.26,0,2.36.61,2.36,2a1.5,1.5,0,0,1-.92,1.46,1.71,1.71,0,0,1,1.13,1.66c0,1.49-1.11,2.12-2.41,2.12Zm2.31-4.32c.67,0,1.16-.2,1.16-.86s-.49-.86-1.16-.86h-1V147Zm-1,3.1h1.16c.67,0,1.16-.28,1.16-1s-.49-1-1.16-1h-1.16Zm9.32-.27h-2.4l-.46,1.48H175.7l2.4-7.24h1.39l2.4,7.24h-1.44Zm-2-1.16h1.7l-.85-2.82Zm16.69,1.16h-2.4l-.46,1.48h-1.44l2.4-7.24h1.39l2.4,7.24h-1.44Zm-2-1.16h1.7l-.85-2.82Zm-5.29-.48h-2.4v3.11h-1.36v-7.24h1.36V147h2.4v-2.92h1.36v7.24h-1.36Zm13.64-2.66-1.41.58V144.8l1.66-.76h1.17v7.4h-1.42Zm6.66,1.89a1.17,1.17,0,1,0-1-1.17A1,1,0,0,0,207.59,147.48Zm.22,4h-1.52l1.36-2.77a2.38,2.38,0,1,1,2.37-2.36,2.52,2.52,0,0,1-.27,1.14Zm12.4,0h-1.52l1.36-2.77a2.38,2.38,0,1,1,2.37-2.36,2.53,2.53,0,0,1-.27,1.14Zm-.22-4a1.17,1.17,0,1,0-1-1.17A1,1,0,0,0,220,147.48Zm-6,4h-1.52l1.36-2.77a2.38,2.38,0,1,1,2.37-2.36,2.54,2.54,0,0,1-.27,1.14Zm-.22-4a1.17,1.17,0,1,0-1-1.17A1,1,0,0,0,213.78,147.48Zm-111.2,0h26.48V148H102.59Z" />
</svg>