<svg xmlns="http://www.w3.org/2000/svg" viewBox="0 0 81.97 106.1"><defs><style>.a{fill:#bd985c;fill-rule:evenodd;}</style></defs><title>Ресурс 2</title><path class="a" d="M61.49,12h8.45v8.46A28.58,28.58,0,0,0,61.49,12Zm3,62.22V57.48a28.62,28.62,0,0,0,5.4-6.19v7.56A28.75,28.75,0,0,1,64.53,74.25ZM12,12h5.4V73.88a31.85,31.85,0,0,1-5.41-15Zm31.6,79.58V64.34H46a28.76,28.76,0,0,0,3.15-.17V82.58l4.91-4.15V63.18a28.31,28.31,0,0,0,5.52-2.28V80.15q-1.21,1.21-2.49,2.33A73.67,73.67,0,0,1,43.64,91.61ZM22.3,79.89V54H45.2L46,54a18.15,18.15,0,0,0,0-36.3c-.42,0-.83,0-1.25,0h-17V43.72H46.1a7.82,7.82,0,0,0,.15-15.64h-8V38.53H32.73V22.59H46a13.3,13.3,0,1,1,0,26.6H22.3V12.27H45.94A23.63,23.63,0,1,1,46,59.52H27.82V78.43l4.91,4.15V64.33h5.52v27.3A64.74,64.74,0,0,1,22.3,79.89ZM40.95,97.64c14.12-6.42,33.58-20.38,33.2-38.83v-51H7.83V59.11C9.7,81.84,33.19,94.19,40.95,97.64ZM77.76,59.5C77.1,80.29,57.14,94.39,41,101.59,24.06,94.24,5.9,80.09,4.21,59.26v-55H77.75V58.79C77.76,58.92,77.76,59.28,77.76,59.5ZM82,0V58.73c0,.11,0,.58,0,.9-.5,15.79-10.79,27.39-20.72,35a88.1,88.1,0,0,1-19.83,11.34l-.42.16-.42-.15A81,81,0,0,1,21.33,95.06C11.58,87.62,1.34,76,0,59.69a9.48,9.48,0,0,1,0-1V0Z"/></svg>