<?xml version="1.0" encoding="UTF-8"?>
<svg width="30px" height="30px" viewBox="0 0 30 30" version="1.1" xmlns="http://www.w3.org/2000/svg" xmlns:xlink="http://www.w3.org/1999/xlink">
    <!-- Generator: Sketch 53.2 (72643) - https://sketchapp.com -->
    <title>payments/icon-perfect-money</title>
    <desc>Created with Sketch.</desc>
    <defs>
        <linearGradient x1="97.5797412%" y1="50%" x2="0%" y2="50%" id="linearGradient-1">
            <stop stop-color="#C1985C" offset="0%"></stop>
            <stop stop-color="#EDE4AA" offset="48.2794436%"></stop>
            <stop stop-color="#A8863C" offset="100%"></stop>
        </linearGradient>
        <path d="M15,0 L15,0 C23.2842712,-1.52179594e-15 30,6.71572875 30,15 L30,15 C30,23.2842712 23.2842712,30 15,30 L15,30 C6.71572875,30 1.01453063e-15,23.2842712 0,15 L0,15 C-1.01453063e-15,6.71572875 6.71572875,1.52179594e-15 15,0 Z" id="path-2"></path>
        <filter x="-100.0%" y="-80.0%" width="300.0%" height="300.0%" filterUnits="objectBoundingBox" id="filter-4">
            <feOffset dx="0" dy="6" in="SourceAlpha" result="shadowOffsetOuter1"></feOffset>
            <feGaussianBlur stdDeviation="9" in="shadowOffsetOuter1" result="shadowBlurOuter1"></feGaussianBlur>
            <feColorMatrix values="0 0 0 0 0   0 0 0 0 0   0 0 0 0 0  0 0 0 0 0" type="matrix" in="shadowBlurOuter1"></feColorMatrix>
        </filter>
    </defs>
    <g id="payments/icon-perfect-money" stroke="none" stroke-width="1" fill="none" fill-rule="evenodd">
        <g id="icon-perfect-money">
            <mask id="mask-3" fill="white">
                <use xlink:href="#path-2"></use>
            </mask>
            <g id="bg" fill-rule="nonzero" transform="translate(15.000000, 15.000000) rotate(-360.000000) translate(-15.000000, -15.000000) ">
                <use fill="black" fill-opacity="1" filter="url(#filter-4)" xlink:href="#path-2"></use>
                <use fill="url(#linearGradient-1)" xlink:href="#path-2"></use>
            </g>
            <path d="M7.34701571,10.9256043 L7.34701571,17.0870897 C7.34701571,18.5376636 7.37467955,18.7172584 8.25992241,18.8139634 L8.63338424,18.8554083 C8.71637576,18.9244833 8.68871192,19.1593381 8.60572041,19.2007831 C7.81730098,19.1731531 7.36084763,19.1593381 6.80757084,19.1593381 C6.22663021,19.1593381 5.7286811,19.1731531 5.12007663,19.2007831 C5.03708511,19.1593381 5.00942127,18.9382983 5.09241279,18.8554083 L5.38288311,18.8139634 C6.18513445,18.7034434 6.21279829,18.5376636 6.21279829,17.0870897 L6.21279829,11.9893585 C6.21279829,10.8150844 6.18513445,10.5802296 5.56269806,10.5111546 L5.06474895,10.4558947 C4.96792552,10.3730047 4.98175744,10.1657799 5.09241279,10.1105199 C5.82550454,10.013815 6.68308356,10 7.8311329,10 C8.97918224,10 9.83676126,10.1519649 10.4868615,10.5525996 C11.1231298,10.9532343 11.5934151,11.6716137 11.5934151,12.624848 C11.5934151,13.8958271 10.8049956,14.5313166 10.2102231,14.8214314 C9.60161863,15.1115462 8.86852688,15.2358811 8.30141817,15.2358811 C8.20459473,15.1944361 8.20459473,14.9872112 8.28758625,14.9595813 C9.78143358,14.6832815 10.3208785,13.8405671 10.3208785,12.638663 C10.3208785,11.298609 9.53245903,10.4282647 8.09393938,10.4282647 C7.36084763,10.4282647 7.34701571,10.4835246 7.34701571,10.9256043 Z M15.8398144,12.2794733 L17.4166533,15.4707359 C17.7347874,16.1200404 18.0390897,16.7555299 18.3710557,17.3633895 L18.3987196,17.3633895 C18.7721814,16.7140849 19.1179794,15.9957055 19.4637774,15.291141 L20.7639779,12.652478 C21.3864142,11.3953139 21.7875399,10.6354895 21.8152038,10 C22.285489,10.041445 22.5759593,10.041445 22.8525977,10.041445 C23.1983957,10.041445 23.6548491,10.02763 24.0836386,10 C24.1666301,10.05526 24.1666301,10.2901148 24.0974705,10.3453747 L23.8070002,10.3730047 C22.9355892,10.4558947 22.8249339,10.7183795 22.8387658,11.6854287 C22.8664297,13.1498176 22.8802616,15.7055907 22.9909169,17.6949492 C23.0324127,18.3856987 23.0185808,18.7587034 23.668681,18.8139634 L24.1113024,18.8554083 C24.1942939,18.9382983 24.180462,19.1455231 24.0836386,19.2007831 C23.5165299,19.1731531 22.9494212,19.1593381 22.4514721,19.1593381 C21.9673549,19.1593381 21.3449185,19.1731531 20.7778098,19.2007831 C20.6809863,19.1317081 20.6671544,18.9382983 20.7501459,18.8554083 L21.1512716,18.8139634 C21.8290357,18.7448884 21.8290357,18.5238486 21.8290357,17.6396892 L21.7875399,11.8788386 L21.7598761,11.8788386 C21.6630526,12.0308035 21.1374397,13.1360026 20.8608013,13.6747872 L19.6297604,16.0924104 C19.007324,17.3081295 18.3848877,18.6067385 18.1359131,19.242228 C18.1082493,19.283673 18.0529216,19.297488 17.9975939,19.297488 C17.9699301,19.297488 17.9007705,19.283673 17.8731066,19.242228 C17.637964,18.5100336 16.9740318,17.1561646 16.6558977,16.4792301 L15.4110249,13.8129371 C15.1205546,13.1774476 14.8300843,12.4590681 14.5257821,11.8235786 L14.4981182,11.8235786 C14.4427905,12.680108 14.4012948,13.4813774 14.359799,14.2826468 C14.3183033,15.1253611 14.2629756,16.3548952 14.2629756,17.5291693 C14.2629756,18.5514786 14.3459671,18.7725184 14.885412,18.8139634 L15.4110249,18.8554083 C15.5078484,18.9382983 15.4940164,19.1593381 15.397193,19.2007831 C14.9269077,19.1731531 14.3874629,19.1593381 13.8618499,19.1593381 C13.4192285,19.1593381 12.9212794,19.1731531 12.4509941,19.2007831 C12.3680026,19.1317081 12.3403387,18.9244833 12.4233303,18.8554083 L12.7276325,18.8139634 C13.3085731,18.7310734 13.50222,18.6481835 13.5852115,17.6811342 C13.668203,16.7693449 13.7373626,16.0095205 13.8203541,14.6418365 C13.8895137,13.4951924 13.9448414,12.3209183 13.9725053,11.5610938 C14.0001691,10.6907495 13.8895137,10.4835246 13.0457666,10.3730047 L12.8244559,10.3453747 C12.7552963,10.2624848 12.7691282,10.05526 12.8797836,10 C13.2947412,10.02763 13.6267073,10.041445 13.9725053,10.041445 C14.2906394,10.041445 14.6641012,10.041445 15.1205546,10 C15.0652269,10.5387846 15.4110249,11.3953139 15.8398144,12.2794733 Z" id="PM" fill="#7A7A7A" style="mix-blend-mode: color-burn;" mask="url(#mask-3)"></path>
        </g>
    </g>
</svg>