<?xml version="1.0" encoding="UTF-8"?>
<svg width="30px" height="30px" viewBox="0 0 30 30" version="1.1" xmlns="http://www.w3.org/2000/svg" xmlns:xlink="http://www.w3.org/1999/xlink">
    <!-- Generator: Sketch 53.2 (72643) - https://sketchapp.com -->
    <title>payments/icon-bitcoin</title>
    <desc>Created with Sketch.</desc>
    <defs>
        <linearGradient x1="97.5797412%" y1="50%" x2="0%" y2="50%" id="linearGradient-1">
            <stop stop-color="#C1985C" offset="0%"></stop>
            <stop stop-color="#EDE4AA" offset="48.2794436%"></stop>
            <stop stop-color="#A8863C" offset="100%"></stop>
        </linearGradient>
        <path d="M15,0 L15,0 C23.2842712,-1.52179594e-15 30,6.71572875 30,15 L30,15 C30,23.2842712 23.2842712,30 15,30 L15,30 C6.71572875,30 1.01453063e-15,23.2842712 0,15 L0,15 C-1.01453063e-15,6.71572875 6.71572875,1.52179594e-15 15,0 Z" id="path-2"></path>
        <filter x="-100.0%" y="-80.0%" width="300.0%" height="300.0%" filterUnits="objectBoundingBox" id="filter-4">
            <feOffset dx="0" dy="6" in="SourceAlpha" result="shadowOffsetOuter1"></feOffset>
            <feGaussianBlur stdDeviation="9" in="shadowOffsetOuter1" result="shadowBlurOuter1"></feGaussianBlur>
            <feColorMatrix values="0 0 0 0 0   0 0 0 0 0   0 0 0 0 0  0 0 0 0 0" type="matrix" in="shadowBlurOuter1"></feColorMatrix>
        </filter>
    </defs>
    <g id="payments/icon-bitcoin" stroke="none" stroke-width="1" fill="none" fill-rule="evenodd">
        <g id="icon-perfect-money">
            <mask id="mask-3" fill="white">
                <use xlink:href="#path-2"></use>
            </mask>
            <g id="bg" fill-rule="nonzero" transform="translate(15.000000, 15.000000) rotate(-360.000000) translate(-15.000000, -15.000000) ">
                <use fill="black" fill-opacity="1" filter="url(#filter-4)" xlink:href="#path-2"></use>
                <use fill="url(#linearGradient-1)" xlink:href="#path-2"></use>
            </g>
            <path d="M22.9607972,13.0403721 C23.2729092,10.9388495 21.6844208,9.80912075 19.5123761,9.05547467 L20.2169554,6.2086963 L18.4966647,5.77684278 L17.8107042,8.54860203 C17.3584603,8.43508625 16.8939671,8.32798658 16.4324137,8.221874 L17.1232739,5.43185352 L15.403963,5 L14.6988937,7.84579128 C14.3245553,7.75991412 13.9570765,7.67502406 13.600377,7.58569208 L13.6023369,7.57680823 L11.2298937,6.98011006 L10.7722601,8.83091084 C10.7722601,8.83091084 12.0486365,9.12555832 12.0216881,9.14381956 C12.7184279,9.3190287 12.8443506,9.78345631 12.8232818,10.1516423 L12.0207081,13.3947388 C12.0687254,13.4070775 12.1309518,13.4248451 12.1995478,13.4524838 C12.1422211,13.4381709 12.0809747,13.4223774 12.0177683,13.4070775 L10.8927932,17.9501764 C10.8075381,18.1633887 10.5914606,18.4832071 10.1044286,18.3617945 C10.1215776,18.3869654 8.85402075,18.0474052 8.85402075,18.0474052 L8,20.0309701 L10.2386809,20.59312 C10.6551569,20.6982454 11.0633033,20.8083064 11.4650802,20.9119512 L10.7531512,23.7913037 L12.4714821,24.2231572 L13.1765515,21.3744047 C13.6459444,21.5027268 14.1016181,21.6211781 14.5474924,21.7327197 L13.8448729,24.5681465 L15.5651637,25 L16.2770927,22.1260765 C19.2105535,22.6852652 21.4164063,22.4597142 22.3449027,19.7871579 C23.0930896,17.6352935 22.3076649,16.3940231 20.7642539,15.5846063 C21.8882491,15.32352 22.7349202,14.5787577 22.9607972,13.0403721 L22.9607972,13.0403721 Z M19.0302439,18.5922809 C18.4986245,20.7441453 14.901742,19.5808553 13.7356092,19.2891691 L14.6802747,15.4745453 C15.8464075,15.7677122 19.5858718,16.3481233 19.0302439,18.5922809 Z M19.5623532,13.0092787 C19.0772812,14.9666856 16.0835538,13.9721886 15.1124298,13.7283765 L15.9689004,10.2686129 C16.9400244,10.512425 20.0675141,10.9674753 19.5623532,13.0092787 Z" id="Shape" fill="#7C7A7A" fill-rule="nonzero" style="mix-blend-mode: color-burn;" mask="url(#mask-3)"></path>
        </g>
    </g>
</svg>