<?xml version="1.0" encoding="UTF-8"?>
<svg width="30px" height="30px" viewBox="0 0 30 30" version="1.1" xmlns="http://www.w3.org/2000/svg" xmlns:xlink="http://www.w3.org/1999/xlink">
    <!-- Generator: Sketch 53.2 (72643) - https://sketchapp.com -->
    <title>payments/icon-ethereum</title>
    <desc>Created with Sketch.</desc>
    <defs>
        <linearGradient x1="97.5797412%" y1="50%" x2="0%" y2="50%" id="linearGradient-1">
            <stop stop-color="#C1985C" offset="0%"></stop>
            <stop stop-color="#EDE4AA" offset="48.2794436%"></stop>
            <stop stop-color="#A8863C" offset="100%"></stop>
        </linearGradient>
        <path d="M15,0 L15,0 C23.2842712,-1.52179594e-15 30,6.71572875 30,15 L30,15 C30,23.2842712 23.2842712,30 15,30 L15,30 C6.71572875,30 1.01453063e-15,23.2842712 0,15 L0,15 C-1.01453063e-15,6.71572875 6.71572875,1.52179594e-15 15,0 Z" id="path-2"></path>
        <filter x="-100.0%" y="-80.0%" width="300.0%" height="300.0%" filterUnits="objectBoundingBox" id="filter-4">
            <feOffset dx="0" dy="6" in="SourceAlpha" result="shadowOffsetOuter1"></feOffset>
            <feGaussianBlur stdDeviation="9" in="shadowOffsetOuter1" result="shadowBlurOuter1"></feGaussianBlur>
            <feColorMatrix values="0 0 0 0 0   0 0 0 0 0   0 0 0 0 0  0 0 0 0 0" type="matrix" in="shadowBlurOuter1"></feColorMatrix>
        </filter>
    </defs>
    <g id="payments/icon-ethereum" stroke="none" stroke-width="1" fill="none" fill-rule="evenodd">
        <g id="icon-perfect-money">
            <mask id="mask-3" fill="white">
                <use xlink:href="#path-2"></use>
            </mask>
            <g id="bg" fill-rule="nonzero" transform="translate(15.000000, 15.000000) rotate(-360.000000) translate(-15.000000, -15.000000) ">
                <use fill="black" fill-opacity="1" filter="url(#filter-4)" xlink:href="#path-2"></use>
                <use fill="url(#linearGradient-1)" xlink:href="#path-2"></use>
            </g>
            <g id="Group" opacity="0.494140625" style="mix-blend-mode: color-burn;" mask="url(#mask-3)">
                <g transform="translate(9.000000, 5.000000)">
                    <g id="LWPOLYLINE" transform="translate(0.000000, 11.250000)">
                        <polyline id="Path" fill="#8C8C8C" points="0.177776462 0.1 6.39995264 8.75 6.39995264 3.725 0.177776462 0.1"></polyline>
                    </g>
                    <g id="LWPOLYLINE_1_" transform="translate(0.000000, 7.250000)">
                        <polyline id="Path" fill="#393939" points="0.177776462 2.925 6.39995264 6.575 6.39995264 0.15 0.177776462 2.925"></polyline>
                    </g>
                    <g id="LWPOLYLINE_2_">
                        <polyline id="Path" fill="#8C8C8C" points="0.177776462 10.175 6.39995264 7.4 6.39995264 0 0.177776462 10.175"></polyline>
                    </g>
                    <g id="LWPOLYLINE_3_" transform="translate(6.349159, 11.250000)">
                        <polyline id="Path" fill="#343434" points="6.29836609 0.1 0.0507932749 8.75 0.0507932749 3.725 6.29836609 0.1"></polyline>
                    </g>
                    <g id="LWPOLYLINE_4_" transform="translate(6.349159, 7.250000)">
                        <polyline id="Path" fill="#151515" points="6.29836609 2.925 0.0507932749 6.575 0.0507932749 0.15 6.29836609 2.925"></polyline>
                    </g>
                    <g id="LWPOLYLINE_5_" transform="translate(6.349159, 0.000000)">
                        <polyline id="Path" fill="#343434" points="6.29836609 10.175 0.0507932749 7.4 0.0507932749 0 6.29836609 10.175"></polyline>
                    </g>
                </g>
            </g>
        </g>
    </g>
</svg>