<?xml version="1.0" encoding="UTF-8"?>
<svg width="30px" height="30px" viewBox="0 0 30 30" version="1.1" xmlns="http://www.w3.org/2000/svg" xmlns:xlink="http://www.w3.org/1999/xlink">
    <!-- Generator: Sketch 53.2 (72643) - https://sketchapp.com -->
    <title>payments/icon-bitcoincash</title>
    <desc>Created with Sketch.</desc>
    <defs>
        <linearGradient x1="97.5797412%" y1="50%" x2="0%" y2="50%" id="linearGradient-1">
            <stop stop-color="#C1985C" offset="0%"></stop>
            <stop stop-color="#EDE4AA" offset="48.2794436%"></stop>
            <stop stop-color="#A8863C" offset="100%"></stop>
        </linearGradient>
        <path d="M15,0 L15,0 C23.2842712,-1.52179594e-15 30,6.71572875 30,15 L30,15 C30,23.2842712 23.2842712,30 15,30 L15,30 C6.71572875,30 1.01453063e-15,23.2842712 0,15 L0,15 C-1.01453063e-15,6.71572875 6.71572875,1.52179594e-15 15,0 Z" id="path-2"></path>
        <filter x="-100.0%" y="-80.0%" width="300.0%" height="300.0%" filterUnits="objectBoundingBox" id="filter-4">
            <feOffset dx="0" dy="6" in="SourceAlpha" result="shadowOffsetOuter1"></feOffset>
            <feGaussianBlur stdDeviation="9" in="shadowOffsetOuter1" result="shadowBlurOuter1"></feGaussianBlur>
            <feColorMatrix values="0 0 0 0 0   0 0 0 0 0   0 0 0 0 0  0 0 0 0 0" type="matrix" in="shadowBlurOuter1"></feColorMatrix>
        </filter>
    </defs>
    <g id="payments/icon-bitcoincash" stroke="none" stroke-width="1" fill="none" fill-rule="evenodd">
        <g id="icon-perfect-money">
            <mask id="mask-3" fill="white">
                <use xlink:href="#path-2"></use>
            </mask>
            <g id="bg" fill-rule="nonzero" transform="translate(15.000000, 15.000000) rotate(-360.000000) translate(-15.000000, -15.000000) ">
                <use fill="black" fill-opacity="1" filter="url(#filter-4)" xlink:href="#path-2"></use>
                <use fill="url(#linearGradient-1)" xlink:href="#path-2"></use>
            </g>
            <path d="M22.8705302,15.7664562 L22.8615337,15.7497786 L22.860045,15.746999 C22.8545436,15.7301922 22.8505307,15.7126743 22.8443173,15.69451 L22.8436053,15.6931525 L22.8427639,15.6917304 L22.842052,15.6903083 L22.84134,15.6888215 L22.8405633,15.687464 L22.8397866,15.6860419 L22.838298,15.683327 C22.6487983,15.050268 22.2730536,14.4887577 21.7598792,14.0717458 L21.7591025,14.0703237 C21.7438925,14.0588174 21.7279706,14.0458891 21.7128254,14.0342536 L21.691855,14.018675 L21.6766451,14.0071688 L21.6701727,14.0016742 L21.6558042,13.9915901 L21.6493318,13.9860956 L21.6348986,13.9759468 L21.6284262,13.9704523 L21.613281,13.9588814 L21.60532,13.9542272 L21.5901101,13.9426564 L21.5821491,13.9380022 L21.5655799,13.927207 L21.557619,13.9225528 L21.5479105,13.9080085 L21.5392376,13.9019321 L21.5226684,13.8910723 L21.5139955,13.8850607 L21.4973616,13.8742009 L21.4886887,13.8681246 L21.4720548,13.857394 L21.4634467,13.8512531 L21.4461008,13.8391004 L21.4374279,13.8329595 L21.4186582,13.8215179 L21.41005,13.8154416 L21.3912802,13.8040647 L21.3826073,13.7979237 L21.3639023,13.7865468 L21.3552294,13.7804705 L21.3364596,13.7689642 L21.3263628,13.7637283 L21.3076578,13.7522867 L21.297561,13.7469214 L21.2774967,13.7362556 L21.2673352,13.7308903 L21.246559,13.718867 L21.2363975,13.7135663 L21.2154919,13.7014784 L21.2054598,13.6961777 L21.1845542,13.6840897 L21.1738101,13.6776256 L21.1529045,13.6656022 L21.1421604,13.6591381 L21.1198956,13.6477611 L21.1090868,13.641297 L21.0868868,13.6299847 L21.0718062,13.6219691 L21.0710296,13.6206116 C21.0602855,13.6141475 21.0488295,13.6092347 21.037956,13.6024473 C20.5763162,13.3654168 20.0778672,13.2080585 19.5636897,13.1370274 C19.7078355,12.9822136 19.8398297,12.8165428 19.9585016,12.6414844 L19.9774655,12.6133653 L19.9788894,12.6125896 L19.9876917,12.5988856 L19.9991478,12.5802041 L20.0056201,12.5716068 L20.0170114,12.5527961 L20.0230954,12.5441987 L20.0344867,12.5255173 L20.040959,12.5168553 L20.052415,12.4981092 L20.058499,12.4894472 L20.069955,12.4707658 L20.076039,12.4620392 L20.0861358,12.4441334 L20.0922198,12.4354715 L20.1023166,12.4175657 L20.1069767,12.4096148 L20.1170735,12.3917091 L20.1217983,12.3838228 L20.1318304,12.365917 L20.1365552,12.3579661 L20.1452281,12.3407068 L20.1498235,12.3328205 L20.1585611,12.3156258 L20.1632212,12.3077395 L20.1718941,12.2905449 L20.1765542,12.2825939 L20.1860038,12.2668214 L20.1907286,12.2588705 L20.2001135,12.2429686 L20.2048383,12.235147 L20.2128639,12.2200855 L20.217524,12.2121345 L20.2255497,12.1971377 L20.2289153,12.1899624 L20.236941,12.1749009 L20.2402419,12.1677257 L20.2482676,12.1527288 L20.2516332,12.1456183 L20.2596589,12.1305568 L20.2629597,12.1233815 L20.2694321,12.1090957 L20.2727977,12.1019205 L20.27927,12.0875701 L20.2826356,12.0803948 L20.2891079,12.066109 L20.2924088,12.0589338 L20.2997226,12.0424502 L20.3096252,12.0209891 C20.3169389,12.0045702 20.3225699,11.9886683 20.3300778,11.9723786 L20.3315017,11.9716029 C20.5527731,11.4269656 20.6046477,10.8283888 20.4803652,10.2538801 L20.4795885,10.252458 L20.4780998,10.2496784 L20.4773232,10.2483209 L20.4764818,10.2468342 L20.4757051,10.2454121 L20.4749284,10.2439899 L20.4741517,10.2426325 L20.473375,10.2412104 C20.4704377,10.2251216 20.466657,10.2091978 20.4620485,10.1935048 L20.4620485,10.1900142 L20.4612071,10.188592 L20.4604304,10.1871053 L20.4596537,10.1856832 L20.4604304,10.1871053 L20.4539581,10.1746941 C20.4490391,10.1522634 20.4440554,10.1297681 20.4370006,10.1067557 C20.4321463,10.084325 20.4250268,10.0611187 20.4186839,10.0395284 L20.410464,10.0242729 L20.4089754,10.0214287 C20.4043153,10.006044 20.3995258,9.99065928 20.3948657,9.97527457 L20.3940891,9.97391709 L20.3932477,9.97249497 L20.392471,9.97107286 L20.3916943,9.96965074 L20.3909176,9.96822862 L20.3901409,9.96680651 L20.3893643,9.96538439 C20.2210628,9.40210269 19.88679,8.90250817 19.4301009,8.53169704 L19.4293242,8.53027492 C19.4163796,8.51941512 19.4018816,8.50920174 19.3888075,8.49834194 L19.370685,8.48476719 L19.3562517,8.47461845 L19.3497794,8.46918855 L19.3374819,8.45968623 L19.3310096,8.45419169 L19.3187769,8.44468936 L19.3123046,8.43925947 L19.2996836,8.43098533 L19.2932112,8.42549079 L19.2787779,8.41534205 L19.2723056,8.40991215 L19.2578723,8.39976341 L19.2514,8.39426887 L19.2369667,8.38418477 L19.2290058,8.37946593 L19.2145725,8.36938183 L19.206741,8.36466299 L19.1923077,8.35451425 L19.1843467,8.34979541 L19.1684895,8.34042237 L19.1605933,8.33570353 L19.1446714,8.32626585 L19.1367104,8.32167629 L19.1209179,8.31217396 L19.112957,8.30751976 L19.0970998,8.29801744 L19.0892035,8.29342788 L19.0725697,8.28256808 L19.0646087,8.27797853 L19.0480395,8.26711873 L19.0400786,8.26246453 L19.0220855,8.25238043 L19.0141246,8.24772623 L18.9961962,8.23764213 L18.9875233,8.23156581 L18.9695302,8.22148172 L18.9608573,8.21534076 L18.942929,8.2053213 L18.9342561,8.19918034 L18.9154863,8.18780341 L18.9054542,8.1825028 L18.8866845,8.17112586 L18.8765876,8.16576061 L18.8564587,8.15503009 L18.8464266,8.14972947 L18.8262977,8.13899896 L18.8119291,8.13253479 L18.8111524,8.13111268 L18.7809914,8.11508155 C17.8993312,7.6574186 16.7791659,7.51960258 15.6520751,7.80868008 L15.3588788,7.88385833 L14.6165031,5 L12.8982301,5.43995113 L13.637305,8.31256181 L12.2626478,8.66466493 L11.5231199,5.80039302 L9.80478221,6.24040879 L10.5439218,9.11295483 L7,10.0238205 L7.4715089,11.8540844 L8.89949806,11.4878247 C9.37215957,11.3662884 9.85398277,11.6504222 9.97571632,12.1224766 L9.97571632,12.1238987 L9.97571632,12.1238987 L11.9574776,19.8253706 C12.0384499,20.1405012 11.8485679,20.4615862 11.533152,20.542893 L10.2820515,20.8642913 L10.3555771,23.0411638 L13.8951624,22.1326899 L14.6440105,25 L16.3615714,24.5586268 L15.6217199,21.6847879 L16.9963124,21.3326848 L17.7365522,24.2062004 L19.4541132,23.7648918 L18.7119964,20.8797407 C19.0032511,20.803916 19.2533417,20.7392097 19.4265411,20.6944777 C20.6966703,20.3684251 21.7237636,19.6242704 22.3455599,18.6970504 L22.3665302,18.666087 L22.3679541,18.6653113 L22.378051,18.6508963 L22.3915781,18.6293059 L22.3980504,18.6185754 L22.4115776,18.5969851 L22.4180499,18.5862546 L22.4301532,18.5653753 L22.4366255,18.5545802 L22.448664,18.5337656 L22.4540361,18.5236815 L22.4661393,18.5028669 L22.4713819,18.4927181 L22.4834851,18.4719681 L22.4888572,18.4618194 L22.4995365,18.4417158 L22.5049085,18.4316964 L22.5155879,18.4116575 L22.5208952,18.4015734 L22.5324159,18.3828273 L22.5376585,18.3727432 L22.5491145,18.3540618 L22.5544218,18.3439777 L22.5645187,18.3260073 L22.569826,18.3159878 L22.5799228,18.2980821 L22.5852301,18.2879333 L22.5953269,18.2700276 L22.599275,18.2607838 L22.6094366,18.2427488 L22.6133847,18.2335051 L22.6219929,18.2163104 L22.6267177,18.2083595 L22.6353906,18.1910355 L22.6401154,18.1831492 L22.6487236,18.1658899 L22.6534484,18.157939 L22.6621213,18.1407443 L22.6667814,18.132858 L22.6753896,18.1155987 L22.6801144,18.1076478 L22.6887873,18.0904531 L22.6935121,18.0825021 L22.7007611,18.0660832 L22.7053565,18.0581322 L22.7126055,18.0416486 L22.7159711,18.034538 L22.723932,18.0159212 L22.7344819,17.992327 C22.7424429,17.9737749 22.7511805,17.9564509 22.7576528,17.9386745 L22.7582353,17.9366059 C23.0068347,17.3239247 23.0653506,16.65077 22.9261922,16.0044667 L22.9254802,16.0031739 L22.9246388,16.0017518 L22.9239269,16.000265 L22.9231502,15.9989076 L22.9223735,15.9974854 L22.9215968,15.9960633 L22.9208849,15.9946412 L22.9201082,15.9932191 C22.9160522,15.9759813 22.9119747,15.9584634 22.9078755,15.9406654 L22.9078755,15.9371101 L22.9070988,15.9357527 L22.9063222,15.9343305 L22.9056102,15.9328438 L22.9048335,15.9314217 L22.9040568,15.9300642 L22.9032154,15.9286421 L22.9025682,15.92722 L22.9017915,15.9257332 L22.9010148,15.9243757 L22.9002382,15.9229536 L22.8995262,15.9215315 L22.8987495,15.9201094 L22.8979729,15.9187519 L22.8949309,15.9131927 C22.8884585,15.8879825 22.8835396,15.8619965 22.8755139,15.8374973 C22.8757081,15.822759 22.8720836,15.7963206 22.8705302,15.7664562 Z M12.7741556,10.6140634 C13.067352,10.5388852 14.2794244,10.2348108 14.6792199,10.131061 C15.3146081,9.96855183 15.9406761,10.0316421 16.429725,10.2668084 L16.4461647,10.274113 L16.4461647,10.274113 L16.453349,10.2774743 L16.4634458,10.2827749 L16.4684295,10.2854252 L16.4785911,10.2907905 L16.4835748,10.2934408 L16.4937363,10.2988061 L16.49872,10.301521 L16.5088168,10.3068216 L16.5138653,10.3095366 L16.5239621,10.3148372 L16.5289458,10.3175521 L16.5391073,10.3228528 L16.544091,10.3255677 L16.5541878,10.3308683 L16.5592363,10.3335833 L16.5693331,10.3388193 L16.5743168,10.3415988 L16.5844783,10.3468995 L16.589462,10.3496144 L16.5981349,10.3556907 L16.6031834,10.3584057 L16.6118563,10.364482 L16.6169047,10.3671323 L16.6255776,10.3732733 L16.630626,10.3759236 L16.638587,10.3806424 L16.6435707,10.3832927 L16.6515316,10.3880116 L16.65658,10.3906619 L16.664541,10.3953807 L16.6695894,10.3980957 L16.6775504,10.4027499 L16.6825341,10.4054648 L16.6905597,10.410119 L16.6941195,10.413545 L16.7020805,10.4181992 L16.704993,10.4202677 L16.7128893,10.4249866 L16.7158018,10.4269905 L16.7237628,10.4317093 L16.7266106,10.4337779 L16.7345716,10.4384321 L16.7375488,10.4405006 L16.7440212,10.4459951 L16.746869,10.447999 L16.7548299,10.4527179 L16.7657034,10.459182 C16.7735997,10.4639009 16.7808487,10.4708175 16.7887449,10.4754717 L16.7887449,10.4754717 C17.0389792,10.664173 17.2228476,10.9272709 17.3139094,11.226931 L17.3139094,11.226931 L17.3161747,11.2311327 C17.3185695,11.2388251 17.3216762,11.2479395 17.3240062,11.2556319 L17.3247829,11.2569894 L17.3292488,11.2653928 C17.3324203,11.2783211 17.3363036,11.2884699 17.3395398,11.301075 C17.3429308,11.3137676 17.3450982,11.3267551 17.3460121,11.33986 L17.3505428,11.3482634 L17.3513194,11.3496855 C17.3525283,11.3583248 17.3546992,11.3668023 17.3577918,11.3749604 L17.3600571,11.3790975 L17.3600571,11.3790975 C17.4242756,11.6853999 17.390004,12.0041339 17.2621308,12.2898338 L17.2621308,12.2898338 L17.2509337,12.3156905 L17.2449791,12.3279077 L17.2402543,12.335794 L17.2390246,12.3399957 L17.235659,12.347171 L17.2343645,12.3515019 L17.2297044,12.3593236 L17.22841,12.3635899 L17.2237499,12.3714762 L17.2224554,12.3758072 L17.2177306,12.3836935 L17.2165009,12.3880245 L17.2118408,12.3958461 L17.2104816,12.4001125 L17.2058863,12.4079341 L17.2045918,12.4122651 L17.199867,12.4200867 L17.1972134,12.4251934 L17.1924886,12.4330797 L17.1898349,12.4381218 L17.1851101,12.4460081 L17.1824565,12.4511147 L17.1777317,12.4590657 L17.1750133,12.4641077 L17.1689293,12.4727051 L17.1662757,12.4777471 L17.1598033,12.4864091 L17.157085,12.4914511 L17.151001,12.5000485 L17.1482826,12.5051552 L17.1421986,12.5137525 L17.1394802,12.5188592 L17.1330079,12.5274565 L17.1303543,12.5325632 L17.1242703,12.5411606 L17.1215519,12.5462026 L17.1154679,12.5548646 L17.1127495,12.559842 L17.1066655,12.568504 L17.1040119,12.573546 L17.096504,12.5829837 L17.0937856,12.5880258 L17.0863424,12.5974635 L17.0836241,12.6025055 L17.0761809,12.6119432 L17.0735272,12.6169852 L17.0660841,12.6264229 L17.0605826,12.6328871 L17.0605826,12.6328871 L17.050421,12.6473022 C16.7343774,13.0894511 16.2165266,13.4467902 15.5812032,13.6091054 C15.1806957,13.7115625 13.9718595,14.0281773 13.6786631,14.1034202 L12.7741556,10.6140634 Z M19.490876,16.519079 L19.4952772,16.5274178 L19.4960539,16.5288399 C19.4978014,16.53873 19.5001315,16.5463578 19.5018143,16.5561833 L19.5018143,16.5561833 L19.502591,16.5576054 L19.502591,16.5576054 L19.5033676,16.5590275 L19.5041443,16.5605143 L19.504921,16.5618718 L19.504921,16.5618718 C19.5727622,16.8997622 19.5240565,17.2506391 19.3667368,17.5573533 L19.3667368,17.5573533 L19.3513327,17.5852785 L19.3439543,17.5982068 L19.3387117,17.6082909 L19.3359286,17.613333 L19.3312685,17.6212839 L19.3285501,17.626326 L19.3238901,17.6342769 L19.3211717,17.6392543 L19.3146993,17.6479809 L19.3120457,17.6529583 L19.3059617,17.6616203 L19.3032433,17.6666624 L19.2971593,17.6752597 L19.294441,17.6803664 L19.288357,17.6889637 L19.2857033,17.6940704 L19.279231,17.7026678 L19.2765774,17.7077098 L19.2704286,17.7163718 L19.2677103,17.7214138 L19.2616263,17.7300112 L19.2589079,17.7350532 L19.2524356,17.7437152 L19.2497819,17.7487573 L19.2436979,17.7574192 L19.2409796,17.7624613 L19.2335364,17.771899 L19.2308827,17.776941 L19.2233748,17.7863787 L19.2206565,17.7913561 L19.2141841,17.8021513 L19.2114658,17.807258 L19.2049934,17.8179885 L19.2023398,17.8230305 L19.1958675,17.8338257 L19.1917899,17.8395788 L19.1853176,17.8503093 L19.18124,17.8560624 L19.1730849,17.8676333 L19.1690073,17.8733864 L19.1608522,17.8849572 L19.1568393,17.8907103 L19.1486842,17.9022166 L19.1446066,17.9079697 L19.1364515,17.9195405 L19.1324387,17.9252936 L19.1242188,17.9368645 L19.1177465,17.9441044 L19.1177465,17.9441044 L19.1048018,17.9599416 C18.7209929,18.4494082 18.1015914,18.8519965 17.3501544,19.0447579 C16.8760566,19.1670599 15.4434721,19.5412705 15.0948726,19.6301527 L14.1195579,15.8399537 C14.4674454,15.7494554 15.9040428,15.3895306 16.3783995,15.2672933 C17.1302895,15.0745318 17.8683935,15.1292187 18.4389937,15.3724652 L18.4575693,15.3804808 L18.4575693,15.3804808 L18.4669542,15.3844239 L18.4804166,15.3897246 L18.4868889,15.3915992 L18.4991216,15.3975462 L18.505594,15.3994855 L18.5177619,15.4054325 L18.5242342,15.4073071 L18.5364669,15.4133188 L18.5415154,15.4159691 L18.5537481,15.4219807 L18.5587965,15.4246311 L18.5709644,15.4305781 L18.5760129,15.4333577 L18.5882455,15.4392401 L18.5932292,15.441955 L18.6033908,15.4472556 L18.6083745,15.4499706 L18.618536,15.4552712 L18.6235197,15.4579862 L18.6336165,15.4632868 L18.6386002,15.4660017 L18.6487618,15.4713023 L18.6537455,15.4740173 L18.663907,15.4793179 L18.6688907,15.4820329 L18.6789875,15.4873335 L18.684036,15.4900484 L18.6941328,15.495349 L18.6991165,15.498064 L18.709278,15.5033646 L18.7142617,15.5060795 L18.7243586,15.5113802 L18.729407,15.5140305 L18.7380152,15.5201714 L18.7430636,15.5228217 L18.7517365,15.5292859 L18.7567849,15.5319362 L18.7654578,15.5380772 L18.7705062,15.5407275 L18.7791791,15.5471916 L18.7842276,15.5499066 L18.7929005,15.5559183 L18.7978842,15.5586979 L18.8057804,15.5633521 L18.8108288,15.566067 L18.8195017,15.5721433 L18.8310872,15.5802882 C18.8397601,15.5863645 18.8497922,15.5917297 18.8584651,15.5978061 L18.8584651,15.5978061 C19.1439546,15.791104 19.35575,16.0749945 19.45955,16.4034997 L19.45955,16.4034997 L19.4625273,16.4089942 C19.4656987,16.4180441 19.467964,16.4258011 19.471006,16.4348509 L19.4717827,16.436273 L19.4763133,16.4446118 C19.4794848,16.4572169 19.4827856,16.469822 19.4866043,16.48372 C19.4930766,16.4851421 19.493918,16.5005915 19.4917174,16.51979 L19.490876,16.519079 Z" id="Shape" fill="#7A7A7A" fill-rule="nonzero" style="mix-blend-mode: color-burn;" mask="url(#mask-3)"></path>
        </g>
    </g>
</svg>