<?xml version="1.0" encoding="utf-8"?>
<!-- Generator: Adobe Illustrator 21.1.0, SVG Export Plug-In . SVG Version: 6.00 Build 0)  -->
<svg version="1.1" id="Layer_1" xmlns="http://www.w3.org/2000/svg" xmlns:xlink="http://www.w3.org/1999/xlink" x="0px" y="0px"
	 viewBox="0 0 269.3 137.5" style="enable-background:new 0 0 269.3 137.5;" xml:space="preserve">
<style type="text/css">
	.st0{display:none;stroke:#B3B3B3;stroke-width:0.216;stroke-miterlimit:2.6131;}
	.st1{fill:#FFFFFF;}
</style>
<g>
	<polygon class="st0" points="494.7,357.1 134.7,357.1 -225.3,357.1 -225.3,69.1 -225.3,-218.9 494.7,-218.9 494.7,69.1 	"/>
	<path class="st1" d="M28.6,114.7H10.3l-0.8,16h22.9l0.1-1.6l0.2-3h-6.5l-9.5-6.9h11.8L28.6,114.7L28.6,114.7z M240.8,128.5l2.1-1.5
		l13.5,10.6h11.4l-19-14.9l20.5-14.9h-11.4l-16.7,12.1l0.6-12.1h-9.2l-1.5,29.8h9.2L240.8,128.5L240.8,128.5z M217.4,137.6l0.9-17.4
		l-7.6-5.5h-10.4l-1.2,22.9h-9.2l1.4-26.3c0.1-1.9,2.2-3.4,4.8-3.4h16.8c1.1,0,2.2,0.3,3.1,0.9l10.1,7.3c1,0.6,1.6,1.6,1.5,2.7
		l-1,18.9L217.4,137.6L217.4,137.6L217.4,137.6z M177.8,107.8h9.2l-1.5,29.8h-9.2L177.8,107.8L177.8,107.8z M174.3,130.7H156
		l1.2-22.9l-0.2-0.1h-9l-1.4,26.5c-0.1,1.9,1.9,3.4,4.4,3.4h22.9L174.3,130.7L174.3,130.7z M74.4,114.7l-1.2,22.9H64l1.2-22.9H56
		l-1.2,22.9h-9.2l1.4-26.3c0.1-1.9,2.2-3.4,4.8-3.4h36.6c2.5,0,4.5,1.5,4.4,3.4l-1.4,26.4h-9.1l-0.1-0.1l1.2-22.9H74.4L74.4,114.7z
		 M106.8,107.8l-0.9,17.4l7.6,5.5h1.3l1.2-22.9h9.2l-1.2,22.9h9.2l1.2-22.9h9.2l-1.4,26.3c-0.1,1.9-2.2,3.4-4.8,3.4h-26
		c-1.1,0-2.2-0.3-3.1-0.9l-10.1-7.3c-1-0.6-1.6-1.6-1.5-2.7l1-18.9h9.1V107.8z M41.9,123.3l-0.3,5.8l0,0l-0.3,5
		c-0.1,1.9-2.2,3.4-4.8,3.4H4.4c-2.5,0-4.5-1.5-4.4-3.4l1.2-22.9c0.1-1.9,2.2-3.4,4.8-3.4h27.5c2.5,0,4.5,1.5,4.4,3.4l-0.4,8
		c2.5,0,4.5,1.5,4.4,3.4L41.9,123.3L41.9,123.3z"/>
	<path class="st1" d="M203.5,0.6H78.2v48.5h113v0.1h5.2c1.1,0,2,0.3,2.8,1c0.8,0.6,1.2,1.6,1.2,3v1.9c0,1.3-0.3,2.1-0.9,2.4
		c-0.6,0.3-1.5,0.5-2.8,0.5h-5.5H72.7c-1.1,0-2-0.5-2.7-1.4s-1.1-2.1-1.1-3.6V0.6H48.2v59.2c0,2.9,0.5,5.4,1.4,7.6
		c1,2.2,2.3,4.1,3.9,5.7c1.7,1.5,3.6,2.7,5.7,3.5c2.1,0.8,4.3,1.2,6.6,1.2h12.4h106.9h6.1h0.1h12.2h0.1h7.5c5.7,0,10.3-3.5,10.3-7.8
		v-9.4c0-0.3,0-0.5,0-0.8V48.7c0-2.2-0.5-4.1-1.4-5.7c-1-1.6-2-2.9-3.2-3.8c1.2-1.2,2.3-2.6,3.2-4.3s1.4-3.7,1.4-5.9V18.6
		c0-2.8-0.5-5.3-1.5-7.5s-2.4-4.1-4-5.7c-1.7-1.5-3.6-2.7-5.7-3.6C207.9,1,205.7,0.6,203.5,0.6L203.5,0.6z M196.4,20.5
		c2.7,0,4,1.3,4,3.8v1.6c0,1.4-0.4,2.3-1.1,2.6c-0.8,0.4-1.7,0.6-2.7,0.6H99v-8.6H196.4L196.4,20.5z"/>
</g>
</svg>
