<?xml version="1.0" encoding="UTF-8"?>
<svg width="102px" height="23px" viewBox="0 0 102 23" version="1.1" xmlns="http://www.w3.org/2000/svg" xmlns:xlink="http://www.w3.org/1999/xlink">
    <!-- Generator: Sketch 53.2 (72643) - https://sketchapp.com -->
    <title>logo-payeer</title>
    <desc>Created with Sketch.</desc>
    <defs>
        <linearGradient x1="97.5797412%" y1="50%" x2="0%" y2="50%" id="linearGradient-1">
            <stop stop-color="#C1985C" offset="0%"></stop>
            <stop stop-color="#EDE4AA" offset="48.2794436%"></stop>
            <stop stop-color="#A8863C" offset="100%"></stop>
        </linearGradient>
        <path d="M85.4622906,23.7212903 L85.4622906,1.09689561 L90.4084677,1.13733584 C97.2778388,1.19389756 98.7930791,2.25339212 99.7373547,4.07471725 C101.404635,6.80717532 100.474387,11.9302315 96.9274194,13.7057761 C96.6167582,13.8612524 96.3395483,14.048425 96.3113065,14.1219279 C96.2649677,14.2418824 101.537709,23.6371309 101.537709,23.6671878 C101.537709,23.6870436 99.9068978,23.7023453 96.6452741,23.713093 C93.3697582,17.9234004 91.7096073,14.97937 91.6648224,14.8810019 C91.5480159,14.6257913 91.4989353,14.613222 90.625903,14.613222 L89.7095483,14.613222 L89.7095483,23.7212903 L85.4622906,23.7212903 Z M93.4884841,4.90948006 C93.0689677,4.82094875 92.1421935,4.75782921 91.2420159,4.75673624 L89.7095483,4.75509676 L89.7095483,7.86243644 L89.7095483,10.9700494 L91.4605483,10.9700494 C94.7152259,10.9700494 95.7160323,10.3262846 95.8196776,8.16601136 C95.9175647,6.12705882 95.3233871,5.29721441 93.4884841,4.90948006 Z M52.9355322,23.7212903 L52.9355322,1.11165085 L65.3011129,1.11165085 L65.3011129,4.75509676 L57.2365323,4.75509676 L57.2365323,10.3271044 L64.1182418,10.3271044 L64.1182418,14.1845009 L57.2365323,14.1845009 C57.2365323,18.1877192 57.2365323,20.1893283 57.2365323,20.1893283 C57.2365323,20.1893283 60.3190159,20.1893283 66.4839841,20.1893283 L66.4839841,23.7212903 L52.9355322,23.7212903 Z M69.2815806,23.7212903 L69.2259194,1.11165085 L81.6452418,1.11165085 L81.6452418,4.75509676 L73.5806612,4.75509676 L73.5806612,10.3271044 L80.4623712,10.3271044 L80.4623712,14.1845009 L73.5806612,14.1845009 C73.5806612,18.1820721 73.5806612,20.1808577 73.5806612,20.1808577 C73.5806612,20.1808577 76.6630539,20.1808577 82.8278388,20.1808577 L82.8278388,23.7212903 L69.2815806,23.7212903 Z" id="path-2"></path>
        <filter x="-89.5%" y="-152.5%" width="279.0%" height="484.5%" filterUnits="objectBoundingBox" id="filter-3">
            <feOffset dx="0" dy="9" in="SourceAlpha" result="shadowOffsetOuter1"></feOffset>
            <feGaussianBlur stdDeviation="13" in="shadowOffsetOuter1" result="shadowBlurOuter1"></feGaussianBlur>
            <feColorMatrix values="0 0 0 0 0   0 0 0 0 0   0 0 0 0 0  0 0 0 0 0" type="matrix" in="shadowBlurOuter1"></feColorMatrix>
        </filter>
    </defs>
    <g id="🌀-✅--Withdraw" stroke="none" stroke-width="1" fill="none" fill-rule="evenodd">
        <g id="ba_withdraw" transform="translate(-721.000000, -538.000000)" fill-rule="nonzero">
            <g id="payments" transform="translate(699.000000, 413.000000)">
                <g id="item" transform="translate(0.000000, 110.000000)">
                    <g id="Group-5">
                        <g id="logo-payeer" transform="translate(22.000000, 14.000000)">
                            <g id="Combined-Shape">
                                <use fill="black" fill-opacity="1" filter="url(#filter-3)" xlink:href="#path-2"></use>
                                <use fill="url(#linearGradient-1)" xlink:href="#path-2"></use>
                            </g>
                            <path d="M0.139838709,23.8286755 L0.139838709,1.00453888 C5.58629228,1.07594689 9.0271471,1.27131688 10.4624032,1.59064895 C13.6242114,2.29412389 15.0864032,4.30096396 15.2646291,7.96954841 C15.4853548,12.5065047 13.2824881,15.3998671 10.3947146,16.0851445 C9.33293652,16.3371076 7.38413918,16.4630892 4.54832258,16.4630892 L4.54832258,23.8286755 L0.139838709,23.8286755 Z M7.68838712,4.87505125 C7.37498388,4.80919925 6.54006453,4.75509676 5.83346776,4.75509676 L4.54832258,4.75509676 L4.54832258,8.67779885 L4.54832258,12.6007742 L6.13453224,12.5507704 C8.95187094,12.4619659 10.0204032,11.6474231 10.2331774,9.4262163 C10.4843387,6.80579885 9.63433871,5.28573814 7.68838712,4.87505125 Z" id="Combined-Shape" fill="#404040"></path>
                            <path d="M21.9181297,1.19198479 C24.734882,1.19198479 26.1432581,1.19198479 26.1432581,1.19198479 C26.1432581,1.19198479 28.7175699,8.71960534 33.8661935,23.7748463 L29.4416238,23.7748463 C29.4416238,23.7748463 28.8937546,22.2033245 27.7980161,19.0602809 L20.2892258,19.1373358 C19.2396129,22.1576015 18.7148065,23.6766603 18.7148065,23.6945123 C18.7148065,23.7212903 14.3707581,23.6712865 14.3707581,23.6712865 C14.3707581,23.6712865 16.8865486,16.178186 21.9181297,1.19198479 Z M24.1855161,8.40373435 C24.1090161,7.82527512 23.8490806,8.42450095 22.7989194,11.5968729 C22.1622419,13.5210626 21.6420968,15.1315673 21.6431935,15.175833 C21.6470322,15.3258444 26.4838065,15.2722884 26.4851774,15.122277 C26.4857258,15.0485009 26.2696613,14.3612903 26.0047903,13.5953852 C25.7401935,12.8292068 25.3036774,11.5654497 25.0349678,10.7872486 C24.7665322,10.0090475 24.4906935,9.23740419 24.4221452,9.07263759 C24.3535968,8.90814422 24.2875161,8.73709297 24.2751774,8.69282732 C24.2628387,8.64883489 24.2406291,8.58844781 24.2258226,8.55893739 C24.2110161,8.52942697 24.1929194,8.45947627 24.1855161,8.40373435 Z" id="Combined-Shape" fill="#404040"></path>
                            <path d="M39.1721129,15.1643567 L39.1721129,23.8286755 L43.5805968,23.8286755 L43.5805968,15.1597116 L50.1162742,1.00453888 L45.3055484,1.00453888 C42.7449463,6.50094879 41.4468226,9.24323338 41.4111774,9.23139277 C41.3514032,9.21153702 40.0514516,6.46925238 37.5113226,1.00453888 C34.3173333,1.02038709 32.7203387,1.03805695 32.7203387,1.05754841 C32.7203387,1.07685769 34.8709301,5.77912714 39.1721129,15.1643567 Z" id="path0-path" fill="#404040"></path>
                        </g>
                    </g>
                </g>
            </g>
        </g>
    </g>
</svg>