<?xml version="1.0" encoding="UTF-8"?>
<svg width="159px" height="28px" viewBox="0 0 159 28" version="1.1" xmlns="http://www.w3.org/2000/svg" xmlns:xlink="http://www.w3.org/1999/xlink">
    <!-- Generator: Sketch 53.2 (72643) - https://sketchapp.com -->
    <title>logo-ethereum</title>
    <desc>Created with Sketch.</desc>
    <defs>
        <linearGradient x1="97.5797412%" y1="50%" x2="0%" y2="50%" id="linearGradient-1">
            <stop stop-color="#C1985C" offset="0%"></stop>
            <stop stop-color="#EDE4AA" offset="48.2794436%"></stop>
            <stop stop-color="#A8863C" offset="100%"></stop>
        </linearGradient>
        <polyline id="path-2" points="0.205126687 0.12 7.38456073 10.5 7.38456073 4.47 0.205126687 0.12"></polyline>
        <filter x="-417.9%" y="-231.2%" width="935.7%" height="678.0%" filterUnits="objectBoundingBox" id="filter-3">
            <feOffset dx="0" dy="6" in="SourceAlpha" result="shadowOffsetOuter1"></feOffset>
            <feGaussianBlur stdDeviation="9" in="shadowOffsetOuter1" result="shadowBlurOuter1"></feGaussianBlur>
            <feColorMatrix values="0 0 0 0 0   0 0 0 0 0   0 0 0 0 0  0 0 0 0 0" type="matrix" in="shadowBlurOuter1"></feColorMatrix>
        </filter>
        <linearGradient x1="97.5797412%" y1="50%" x2="0%" y2="50%" id="linearGradient-4">
            <stop stop-color="#C1985C" offset="0%"></stop>
            <stop stop-color="#EDE4AA" offset="48.2794436%"></stop>
            <stop stop-color="#A8863C" offset="100%"></stop>
        </linearGradient>
        <polyline id="path-5" points="0.205126687 3.51 7.38456073 7.89 7.38456073 0.18 0.205126687 3.51"></polyline>
        <filter x="-417.9%" y="-311.3%" width="935.7%" height="878.2%" filterUnits="objectBoundingBox" id="filter-6">
            <feOffset dx="0" dy="6" in="SourceAlpha" result="shadowOffsetOuter1"></feOffset>
            <feGaussianBlur stdDeviation="9" in="shadowOffsetOuter1" result="shadowBlurOuter1"></feGaussianBlur>
            <feColorMatrix values="0 0 0 0 0   0 0 0 0 0   0 0 0 0 0  0 0 0 0 0" type="matrix" in="shadowBlurOuter1"></feColorMatrix>
        </filter>
        <linearGradient x1="97.5797412%" y1="50%" x2="0%" y2="50%" id="linearGradient-7">
            <stop stop-color="#C1985C" offset="0%"></stop>
            <stop stop-color="#EDE4AA" offset="48.2794436%"></stop>
            <stop stop-color="#A8863C" offset="100%"></stop>
        </linearGradient>
        <polyline id="path-8" points="0.205126687 12.21 7.38456073 8.88 7.38456073 0 0.205126687 12.21"></polyline>
        <filter x="-417.9%" y="-196.6%" width="935.7%" height="591.4%" filterUnits="objectBoundingBox" id="filter-9">
            <feOffset dx="0" dy="6" in="SourceAlpha" result="shadowOffsetOuter1"></feOffset>
            <feGaussianBlur stdDeviation="9" in="shadowOffsetOuter1" result="shadowBlurOuter1"></feGaussianBlur>
            <feColorMatrix values="0 0 0 0 0   0 0 0 0 0   0 0 0 0 0  0 0 0 0 0" type="matrix" in="shadowBlurOuter1"></feColorMatrix>
        </filter>
        <linearGradient x1="97.5797412%" y1="50%" x2="0%" y2="50%" id="linearGradient-10">
            <stop stop-color="#C1985C" offset="0%"></stop>
            <stop stop-color="#EDE4AA" offset="48.2794436%"></stop>
            <stop stop-color="#A8863C" offset="100%"></stop>
        </linearGradient>
        <polyline id="path-11" points="7.2673455 0.12 0.058607625 10.5 0.058607625 4.47 7.2673455 0.12"></polyline>
        <filter x="-416.2%" y="-231.2%" width="932.3%" height="678.0%" filterUnits="objectBoundingBox" id="filter-12">
            <feOffset dx="0" dy="6" in="SourceAlpha" result="shadowOffsetOuter1"></feOffset>
            <feGaussianBlur stdDeviation="9" in="shadowOffsetOuter1" result="shadowBlurOuter1"></feGaussianBlur>
            <feColorMatrix values="0 0 0 0 0   0 0 0 0 0   0 0 0 0 0  0 0 0 0 0" type="matrix" in="shadowBlurOuter1"></feColorMatrix>
        </filter>
        <linearGradient x1="97.5797412%" y1="50%" x2="0%" y2="50%" id="linearGradient-13">
            <stop stop-color="#C1985C" offset="0%"></stop>
            <stop stop-color="#EDE4AA" offset="48.2794436%"></stop>
            <stop stop-color="#A8863C" offset="100%"></stop>
        </linearGradient>
        <polyline id="path-14" points="7.2673455 3.51 0.058607625 7.89 0.058607625 0.18 7.2673455 3.51"></polyline>
        <filter x="-416.2%" y="-311.3%" width="932.3%" height="878.2%" filterUnits="objectBoundingBox" id="filter-15">
            <feOffset dx="0" dy="6" in="SourceAlpha" result="shadowOffsetOuter1"></feOffset>
            <feGaussianBlur stdDeviation="9" in="shadowOffsetOuter1" result="shadowBlurOuter1"></feGaussianBlur>
            <feColorMatrix values="0 0 0 0 0   0 0 0 0 0   0 0 0 0 0  0 0 0 0 0" type="matrix" in="shadowBlurOuter1"></feColorMatrix>
        </filter>
        <linearGradient x1="97.5797412%" y1="50%" x2="0%" y2="50%" id="linearGradient-16">
            <stop stop-color="#C1985C" offset="0%"></stop>
            <stop stop-color="#EDE4AA" offset="48.2794436%"></stop>
            <stop stop-color="#A8863C" offset="100%"></stop>
        </linearGradient>
        <polyline id="path-17" points="7.2673455 12.21 0.058607625 8.88 0.058607625 0 7.2673455 12.21"></polyline>
        <filter x="-416.2%" y="-196.6%" width="932.3%" height="591.4%" filterUnits="objectBoundingBox" id="filter-18">
            <feOffset dx="0" dy="6" in="SourceAlpha" result="shadowOffsetOuter1"></feOffset>
            <feGaussianBlur stdDeviation="9" in="shadowOffsetOuter1" result="shadowBlurOuter1"></feGaussianBlur>
            <feColorMatrix values="0 0 0 0 0   0 0 0 0 0   0 0 0 0 0  0 0 0 0 0" type="matrix" in="shadowBlurOuter1"></feColorMatrix>
        </filter>
    </defs>
    <g id="🌀-✅--Withdraw" stroke="none" stroke-width="1" fill="none" fill-rule="evenodd">
        <g id="ba_withdraw" transform="translate(-1296.000000, -423.000000)" fill-rule="nonzero">
            <g id="payments" transform="translate(699.000000, 413.000000)">
                <g id="item" transform="translate(577.000000, 0.000000)">
                    <g id="Group-5">
                        <g id="logo-ethereum" transform="translate(20.000000, 10.000000)">
                            <g id="Group" transform="translate(25.000000, 0.000000)" fill="#31302C">
                                <path d="M11.9255664,17.28 C11.9255664,17.5542857 11.650361,17.8285714 11.3751556,17.8285714 L1.00908638,17.8285714 C1.28429176,20.3885714 3.2107294,22.7657143 5.96278317,22.7657143 C7.79748569,22.7657143 9.17351257,22.0342857 10.2743341,20.5714286 C10.3660692,20.3885714 10.5495395,20.2971429 10.7330097,20.2971429 C11.0082151,20.2971429 11.2834205,20.48 11.2834205,20.8457143 C11.2834205,20.9371429 11.2834205,21.0285714 11.1916853,21.12 C10.182599,22.9485714 8.07269106,23.8628571 6.0545183,23.8628571 C2.56858352,23.8628571 0.0917351257,20.7542857 0.0917351257,17.3714286 C0.0917351257,13.9885714 2.56858352,10.88 6.0545183,10.88 C9.54045308,10.88 11.9255664,13.8971429 11.9255664,17.28 Z M10.8247448,16.7314286 C10.6412746,14.1714286 8.62310181,11.7942857 5.87104804,11.7942857 C3.11899427,11.7942857 1.19255664,14.1714286 0.917351257,16.7314286 L10.8247448,16.7314286 Z" id="Shape"></path>
                                <path d="M24.5850137,11.0628571 C24.8602191,11.0628571 25.1354244,11.3371429 25.1354244,11.6114286 C25.1354244,11.8857143 24.9519542,12.16 24.5850137,12.16 L21.8329599,12.16 L21.8329599,23.04 C21.8329599,23.3142857 21.6494896,23.5885714 21.2825492,23.5885714 C21.0073438,23.5885714 20.7321384,23.3142857 20.7321384,23.04 L20.7321384,12.0685714 L18.0718198,12.0685714 C17.7966144,12.0685714 17.521409,11.8857143 17.521409,11.52 C17.521409,11.2457143 17.7048793,10.9714286 18.0718198,10.9714286 L20.7321384,10.9714286 L20.7321384,6.94857143 C20.7321384,6.67428571 20.9156086,6.4 21.2825492,6.4 C21.5577545,6.4 21.8329599,6.58285714 21.8329599,6.94857143 L21.8329599,10.9714286 L24.5850137,10.9714286 L24.5850137,11.0628571 Z" id="Path"></path>
                                <path d="M41.6477471,16.3657143 L41.6477471,22.9485714 C41.6477471,23.2228571 41.3725417,23.4971429 41.0973363,23.4971429 C40.822131,23.4971429 40.5469255,23.3142857 40.5469255,22.9485714 L40.5469255,16.3657143 C40.5469255,14.1714286 39.2626338,11.8857143 36.7857854,11.8857143 C33.575056,11.8857143 32.1990292,14.6285714 32.3824993,17.5542857 C32.3824993,17.6457143 32.3824993,17.92 32.3824993,18.0114286 L32.3824993,22.9485714 C32.3824993,23.2228571 32.1990292,23.4971429 31.8320886,23.4971429 C31.5568833,23.4971429 31.2816779,23.3142857 31.2816779,22.9485714 L31.2816779,1.18857143 C31.2816779,0.914285714 31.4651482,0.64 31.8320886,0.64 C32.107294,0.64 32.3824993,0.914285714 32.3824993,1.18857143 L32.3824993,13.44 C33.2998506,11.8857143 34.8593478,10.7885714 36.7857854,10.7885714 C39.9047797,10.7885714 41.6477471,13.5314286 41.6477471,16.3657143" id="Path"></path>
                                <path d="M60.2699776,17.28 C60.2699776,17.5542857 59.9947722,17.8285714 59.7195669,17.8285714 L49.3534976,17.8285714 C49.628703,20.3885714 51.5551406,22.7657143 54.3071944,22.7657143 C56.141897,22.7657143 57.5179238,22.0342857 58.6187453,20.5714286 C58.7104804,20.3885714 58.8939507,20.2971429 59.077421,20.2971429 C59.3526263,20.2971429 59.6278317,20.48 59.6278317,20.8457143 C59.6278317,20.9371429 59.6278317,21.0285714 59.5360966,21.12 C58.5270102,22.9485714 56.4171023,23.8628571 54.3989295,23.8628571 C50.9129948,23.8628571 48.4361463,20.7542857 48.4361463,17.3714286 C48.4361463,13.9885714 50.9129948,10.88 54.3989295,10.88 C57.7931291,10.7885714 60.2699776,13.8971429 60.2699776,17.28 Z M59.1691561,16.7314286 C58.9856859,14.1714286 56.9675131,11.7942857 54.2154593,11.7942857 C51.4634055,11.7942857 49.5369679,14.1714286 49.2617625,16.7314286 L59.1691561,16.7314286 Z" id="Shape"></path>
                                <path d="M73.1128951,11.52 C73.1128951,11.8857143 72.929425,12.0685714 72.6542196,12.0685714 C69.6269604,12.5257143 68.2509335,14.9942857 68.2509335,17.92 L68.2509335,22.8571429 C68.2509335,23.1314286 68.0674632,23.4057143 67.7005228,23.4057143 C67.4253174,23.4057143 67.1501121,23.2228571 67.1501121,22.8571429 L67.1501121,11.6114286 C67.1501121,11.3371429 67.3335822,11.0628571 67.7005228,11.0628571 C67.9757281,11.0628571 68.2509335,11.2457143 68.2509335,11.6114286 L68.2509335,13.8971429 C69.0765497,12.4342857 70.8195171,11.0628571 72.6542196,11.0628571 C72.7459547,11.0628571 73.1128951,11.2457143 73.1128951,11.52" id="Path"></path>
                                <path d="M90.1756286,17.28 C90.1756286,17.5542857 89.9004232,17.8285714 89.6252179,17.8285714 L79.2591486,17.8285714 C79.534354,20.3885714 81.4607916,22.7657143 84.2128454,22.7657143 C86.047548,22.7657143 87.4235748,22.0342857 88.5243963,20.5714286 C88.6161314,20.3885714 88.7996017,20.2971429 88.983072,20.2971429 C89.2582773,20.2971429 89.5334827,20.48 89.5334827,20.8457143 C89.5334827,20.9371429 89.5334827,21.0285714 89.4417476,21.12 C88.4326612,22.9485714 86.3227533,23.8628571 84.3045805,23.8628571 C80.8186458,23.8628571 78.3417973,20.7542857 78.3417973,17.3714286 C78.3417973,13.9885714 80.8186458,10.88 84.3045805,10.88 C87.607045,10.7885714 90.1756286,13.8971429 90.1756286,17.28 Z M89.074807,16.7314286 C88.8913369,14.1714286 86.873164,11.7942857 84.1211103,11.7942857 C81.3690565,11.7942857 79.4426189,14.1714286 79.1674135,16.7314286 L89.074807,16.7314286 Z" id="Shape"></path>
                                <path d="M106.963157,11.6114286 L106.963157,15.1771429 L106.963157,22.9485714 C106.963157,23.2228571 106.687951,23.4971429 106.412746,23.4971429 C106.13754,23.4971429 105.862335,23.3142857 105.862335,22.9485714 L105.862335,20.7542857 C105.036719,22.4914286 103.477222,23.68 101.550784,23.68 C98.4317899,23.68 96.7805576,21.0285714 96.7805576,18.1942857 L96.7805576,11.52 C96.7805576,11.2457143 96.9640279,10.9714286 97.3309684,10.9714286 C97.6061738,10.9714286 97.8813791,11.2457143 97.8813791,11.52 L97.8813791,18.2857143 C97.8813791,20.48 99.1656709,22.7657143 101.642519,22.7657143 C105.128454,22.7657143 105.95407,19.4742857 105.95407,15.9085714 L105.95407,11.7028571 C105.95407,11.4285714 106.13754,11.1542857 106.504481,11.1542857 C106.687951,11.1542857 106.963157,11.3371429 106.963157,11.6114286" id="Path"></path>
                                <path d="M133.291138,16.2742857 L133.291138,22.9485714 C133.291138,23.2228571 133.015933,23.4971429 132.740726,23.4971429 C132.465521,23.4971429 132.190316,23.3142857 132.190316,22.9485714 L132.190316,16.2742857 C132.190316,14.08 130.906025,11.8857143 128.429176,11.8857143 C125.310181,11.8857143 124.117625,15.2685714 124.117625,17.8285714 L124.117625,22.9485714 C124.117625,23.2228571 123.84242,23.4971429 123.567215,23.4971429 C123.292008,23.4971429 123.016803,23.3142857 123.016803,22.9485714 L123.016803,16.2742857 C123.016803,14.08 121.732512,11.8857143 119.255664,11.8857143 C116.044935,11.8857143 114.760642,14.3542857 114.852377,17.6457143 C114.852377,17.7371429 114.852377,17.8285714 114.852377,17.92 L114.852377,22.9485714 C114.852377,23.2228571 114.668907,23.4971429 114.301967,23.4971429 C114.026761,23.4971429 113.751556,23.3142857 113.751556,22.9485714 L113.751556,11.6114286 C113.751556,11.3371429 113.935026,11.0628571 114.301967,11.0628571 C114.577172,11.0628571 114.852377,11.2457143 114.852377,11.6114286 L114.852377,13.5314286 C115.769728,11.9771429 117.329226,10.88 119.255664,10.88 C121.365572,10.88 123.016803,12.2514286 123.65895,14.1714286 C124.484566,12.2514286 126.227533,10.88 128.337441,10.88 C131.54817,10.7885714 133.291138,13.44 133.291138,16.2742857" id="Path"></path>
                            </g>
                            <g id="Group" transform="translate(0.000000, 4.000000)">
                                <g id="LWPOLYLINE" transform="translate(0.000000, 13.500000)">
                                    <g id="Path">
                                        <use fill="black" fill-opacity="1" filter="url(#filter-3)" xlink:href="#path-2"></use>
                                        <use fill="url(#linearGradient-1)" xlink:href="#path-2"></use>
                                    </g>
                                </g>
                                <g id="LWPOLYLINE_1_" transform="translate(0.000000, 8.700000)" opacity="0.637439546">
                                    <g id="Path">
                                        <use fill="black" fill-opacity="1" filter="url(#filter-6)" xlink:href="#path-5"></use>
                                        <use fill="url(#linearGradient-4)" xlink:href="#path-5"></use>
                                    </g>
                                </g>
                                <g id="LWPOLYLINE_2_">
                                    <g id="Path">
                                        <use fill="black" fill-opacity="1" filter="url(#filter-9)" xlink:href="#path-8"></use>
                                        <use fill="url(#linearGradient-7)" xlink:href="#path-8"></use>
                                    </g>
                                </g>
                                <g id="LWPOLYLINE_3_" transform="translate(7.325953, 13.500000)" opacity="0.637439546">
                                    <g id="Path">
                                        <use fill="black" fill-opacity="1" filter="url(#filter-12)" xlink:href="#path-11"></use>
                                        <use fill="url(#linearGradient-10)" xlink:href="#path-11"></use>
                                    </g>
                                </g>
                                <g id="LWPOLYLINE_4_" transform="translate(7.325953, 8.700000)">
                                    <g id="Path">
                                        <use fill="black" fill-opacity="1" filter="url(#filter-15)" xlink:href="#path-14"></use>
                                        <use fill="url(#linearGradient-13)" xlink:href="#path-14"></use>
                                    </g>
                                </g>
                                <g id="LWPOLYLINE_5_" transform="translate(7.325953, 0.000000)" opacity="0.637439546">
                                    <g id="Path">
                                        <use fill="black" fill-opacity="1" filter="url(#filter-18)" xlink:href="#path-17"></use>
                                        <use fill="url(#linearGradient-16)" xlink:href="#path-17"></use>
                                    </g>
                                </g>
                            </g>
                        </g>
                    </g>
                </g>
            </g>
        </g>
    </g>
</svg>