<?xml version="1.0" encoding="UTF-8"?>
<svg width="130px" height="24px" viewBox="0 0 130 24" version="1.1" xmlns="http://www.w3.org/2000/svg" xmlns:xlink="http://www.w3.org/1999/xlink">
    <!-- Generator: Sketch 53.2 (72643) - https://sketchapp.com -->
    <title>logo-dogecoin</title>
    <desc>Created with Sketch.</desc>
    <defs>
        <linearGradient x1="97.5797412%" y1="50%" x2="0%" y2="50%" id="linearGradient-1">
            <stop stop-color="#C1985C" offset="0%"></stop>
            <stop stop-color="#EDE4AA" offset="48.2794436%"></stop>
            <stop stop-color="#A8863C" offset="100%"></stop>
        </linearGradient>
        <path d="M12.3106298,7.908 L10.5929123,7.908 L10.5929123,11.28828 L13.29536,11.28828 L13.29536,12.70356 L10.5929123,12.70356 L10.5929123,16.083634 L12.3947845,16.0836 C12.8577556,16.0836 16.1956915,16.1358 16.190522,12.15096 C16.1853525,8.16612 12.9530908,7.908 12.3106298,7.908 Z" id="path-2"></path>
        <filter x="-535.9%" y="-293.6%" width="1171.9%" height="833.9%" filterUnits="objectBoundingBox" id="filter-3">
            <feOffset dx="0" dy="6" in="SourceAlpha" result="shadowOffsetOuter1"></feOffset>
            <feGaussianBlur stdDeviation="9" in="shadowOffsetOuter1" result="shadowBlurOuter1"></feGaussianBlur>
            <feColorMatrix values="0 0 0 0 0   0 0 0 0 0   0 0 0 0 0  0 0 0 0 0" type="matrix" in="shadowBlurOuter1"></feColorMatrix>
        </filter>
        <linearGradient x1="97.5797412%" y1="50%" x2="0%" y2="50%" id="linearGradient-4">
            <stop stop-color="#C1985C" offset="0%"></stop>
            <stop stop-color="#EDE4AA" offset="48.2794436%"></stop>
            <stop stop-color="#A8863C" offset="100%"></stop>
        </linearGradient>
        <path d="M12.0220994,0 C5.38241414,0 0,5.37252 0,12 C0,18.62748 5.38241414,24 12.0220994,24 C18.6617848,24 24.0441989,18.62748 24.0441989,12 C24.0441989,5.37252 18.6617848,0 12.0220994,0 Z M12.4944477,18.4812 L8.14064442,18.4812 L8.14064442,12.70368 L6.6059032,12.70368 L6.6059032,11.2884 L8.1405242,11.2884 L8.1405242,5.51052 L11.8772331,5.51052 C12.7612181,5.51052 18.6163412,5.32728 18.6163412,12.10428 C18.6163412,18.99336 12.494568,18.4812 12.494568,18.4812 L12.4944477,18.4812 Z" id="path-5"></path>
        <filter x="-124.8%" y="-100.0%" width="349.5%" height="350.0%" filterUnits="objectBoundingBox" id="filter-6">
            <feOffset dx="0" dy="6" in="SourceAlpha" result="shadowOffsetOuter1"></feOffset>
            <feGaussianBlur stdDeviation="9" in="shadowOffsetOuter1" result="shadowBlurOuter1"></feGaussianBlur>
            <feColorMatrix values="0 0 0 0 0   0 0 0 0 0   0 0 0 0 0  0 0 0 0 0" type="matrix" in="shadowBlurOuter1"></feColorMatrix>
        </filter>
        <linearGradient x1="97.5797412%" y1="50%" x2="0%" y2="50%" id="linearGradient-7">
            <stop stop-color="#C1985C" offset="0%"></stop>
            <stop stop-color="#EDE4AA" offset="48.2794436%"></stop>
            <stop stop-color="#A8863C" offset="100%"></stop>
        </linearGradient>
        <path d="M59.6945414,-7.10542736e-15 C60.3960698,-7.10542736e-15 61.0155553,0.0536465224 61.5530166,0.160941176 C62.0904778,0.268235831 62.6420745,0.412234391 63.2078232,0.592941176 L62.7156243,4.01505882 C62.2856553,3.78917534 61.8528641,3.59435376 61.4172376,3.43058824 C60.9816111,3.26682271 60.5318476,3.18494118 60.0679337,3.18494118 C59.502185,3.18494118 58.9986762,3.27246971 58.5573923,3.44752941 C58.1161083,3.62258911 57.7398911,3.86823371 57.4287293,4.18447059 C57.1175675,4.50070746 56.8799566,4.88470362 56.7158895,5.33647059 C56.5518224,5.78823755 56.4697901,6.28517376 56.4697901,6.82729412 C56.4697901,7.61788631 56.7045722,8.22493906 57.1741436,8.64847059 C57.6437151,9.07200212 58.3197746,9.28376471 59.2023425,9.28376471 C60.1075404,9.28376471 61.1089006,9.0352966 62.206453,8.53835294 L61.7481989,11.7402353 C61.1824502,11.9887071 60.5629647,12.1891757 59.8897238,12.3416471 C59.2164828,12.4941184 58.5573955,12.5703529 57.912442,12.5703529 C56.9280393,12.5703529 56.0709429,12.4376484 55.3411271,12.1722353 C54.6113113,11.9068222 54.0003119,11.5425906 53.5081105,11.0795294 C53.0159091,10.6164683 52.648178,10.063062 52.4049061,9.41929412 C52.1616341,8.77552619 52.04,8.0752979 52.04,7.31858824 C52.04,6.83293875 52.0909166,6.31623803 52.1927514,5.76847059 C52.2945861,5.22070314 52.4671369,4.67576742 52.7104088,4.13364706 C52.9536808,3.5915267 53.2676666,3.07200248 53.6523757,2.57505882 C54.0370848,2.07811516 54.5151353,1.63764898 55.0865414,1.25364706 C55.6579476,0.869645139 56.3226923,0.564707012 57.0807956,0.338823529 C57.8388988,0.112940047 58.7101387,-7.10542736e-15 59.6945414,-7.10542736e-15 Z M70.743558,-7.10542736e-15 C71.6713859,-7.10542736e-15 72.483223,0.127057553 73.1790939,0.381176471 C73.8749648,0.635295388 74.4548485,0.988233035 74.9187624,1.44 C75.3826764,1.89176696 75.7306066,2.43670269 75.9625635,3.07482353 C76.1945205,3.71294437 76.3104972,4.41034916 76.3104972,5.16705882 C76.3104972,6.1383578 76.1549187,7.07011319 75.8437569,7.96235294 C75.5325951,8.8545927 75.0686882,9.64234952 74.4520221,10.3256471 C73.835356,11.0089446 73.0687781,11.5538803 72.1522652,11.9604706 C71.2357523,12.3670609 70.1778182,12.5703529 68.9784309,12.5703529 C68.0506031,12.5703529 67.2387659,12.4489424 66.542895,12.2061176 C65.8470241,11.9632929 65.2671404,11.6188258 64.8032265,11.1727059 C64.3393126,10.726586 63.9913824,10.1929443 63.7594254,9.57176471 C63.5274685,8.95058513 63.4114917,8.25600384 63.4114917,7.488 C63.4114917,6.50540685 63.5670703,5.56518096 63.878232,4.66729412 C64.1893938,3.76940728 64.6533008,2.97317994 65.2699669,2.27858824 C65.8866329,1.58399653 66.6532109,1.0305903 67.5697238,0.618352941 C68.4862366,0.206115586 69.5441708,-7.10542736e-15 70.743558,-7.10542736e-15 Z M81.4700994,12.3501176 L77.2439779,12.3501176 L78.9581878,0.220235294 L83.1843094,0.220235294 L81.4700994,12.3501176 Z M94.2672707,0.220235294 L98.3576133,0.220235294 L96.6603757,12.3501176 L91.5347182,12.3501176 L88.6494144,4.86211765 L87.5971271,12.3501176 L83.4898122,12.3501176 L85.2040221,0.220235294 L90.4654586,0.220235294 L93.2489282,7.47105882 L94.2672707,0.220235294 Z" id="path-8"></path>
        <filter x="-64.8%" y="-190.9%" width="229.5%" height="577.3%" filterUnits="objectBoundingBox" id="filter-9">
            <feOffset dx="0" dy="6" in="SourceAlpha" result="shadowOffsetOuter1"></feOffset>
            <feGaussianBlur stdDeviation="9" in="shadowOffsetOuter1" result="shadowBlurOuter1"></feGaussianBlur>
            <feColorMatrix values="0 0 0 0 0   0 0 0 0 0   0 0 0 0 0  0 0 0 0 0" type="matrix" in="shadowBlurOuter1"></feColorMatrix>
        </filter>
    </defs>
    <g id="🌀-✅--Withdraw" stroke="none" stroke-width="1" fill="none" fill-rule="evenodd">
        <g id="ba_withdraw" transform="translate(-718.000000, -647.000000)">
            <g id="payments" transform="translate(699.000000, 413.000000)">
                <g id="item-copy-2" transform="translate(0.000000, 220.000000)">
                    <g id="Group-5">
                        <g id="logo-dogecoin" transform="translate(19.000000, 14.000000)">
                            <g id="dogecoin-logo-svg-vector" fill-rule="nonzero">
                                <g id="Path">
                                    <use fill="black" fill-opacity="1" filter="url(#filter-3)" xlink:href="#path-2"></use>
                                    <use fill="url(#linearGradient-1)" xlink:href="#path-2"></use>
                                </g>
                                <g id="Shape">
                                    <use fill="black" fill-opacity="1" filter="url(#filter-6)" xlink:href="#path-5"></use>
                                    <use fill="url(#linearGradient-4)" xlink:href="#path-5"></use>
                                </g>
                            </g>
                            <g id="Group-5" transform="translate(31.640884, 6.000000)">
                                <g id="Combined-Shape" fill-rule="nonzero">
                                    <use fill="black" fill-opacity="1" filter="url(#filter-9)" xlink:href="#path-8"></use>
                                    <use fill="url(#linearGradient-7)" xlink:href="#path-8"></use>
                                </g>
                                <path d="M4.99257459,9.38541176 L6.0278895,9.38541176 C6.57100824,9.38541176 7.0264291,9.26682472 7.39416575,9.02964706 C7.76190239,8.7924694 8.05608729,8.47906077 8.27672928,8.08941176 C8.49737127,7.69976276 8.65577852,7.24800257 8.7519558,6.73411765 C8.84813308,6.22023272 8.89622099,5.692238 8.89622099,5.15011765 C8.89622099,4.50634972 8.75195724,3.99247251 8.46342541,3.60847059 C8.17489358,3.22446867 7.6628987,3.03247059 6.92742541,3.03247059 L5.8921105,3.03247059 L4.99257459,9.38541176 Z M2.05635359,0.220235294 L8.11549171,0.220235294 C9.81273777,0.220235294 11.0997967,0.643760471 11.9767072,1.49082353 C12.8536176,2.33788659 13.2920663,3.51811008 13.2920663,5.03152941 C13.2920663,6.11577013 13.1364877,7.10681904 12.825326,8.00470588 C12.5141642,8.90259272 12.0700581,9.67340855 11.4929945,10.3171765 C10.9159308,10.9609444 10.2200704,11.4607041 9.40539227,11.8164706 C8.59071416,12.1722371 7.67421504,12.3501176 6.6558674,12.3501176 L0.359116022,12.3501176 L2.05635359,0.220235294 Z M18.6723094,7.2 C18.6723094,7.48235435 18.7005964,7.74776346 18.7571713,7.99623529 C18.8137461,8.24470712 18.9042646,8.46211672 19.0287293,8.64847059 C19.153194,8.83482446 19.3172587,8.98447002 19.5209282,9.09741176 C19.7245977,9.21035351 19.9735234,9.26682353 20.2677127,9.26682353 C20.6184769,9.26682353 20.9437775,9.17929499 21.2436243,9.00423529 C21.5434711,8.8291756 21.8008829,8.57506049 22.0158674,8.24188235 C22.2308519,7.90870422 22.400574,7.50494355 22.5250387,7.03058824 C22.6495034,6.55623292 22.7117348,6.0197677 22.7117348,5.42117647 C22.7117348,5.13882212 22.6862765,4.867766 22.6353591,4.608 C22.5844417,4.348234 22.496752,4.1195304 22.3722873,3.92188235 C22.2478226,3.72423431 22.0837579,3.56894174 21.8800884,3.456 C21.6764189,3.34305826 21.4218358,3.28658824 21.1163315,3.28658824 C20.6411026,3.28658824 20.2450845,3.42493979 19.9282652,3.70164706 C19.6114459,3.97835432 19.3596915,4.31999797 19.1729945,4.72658824 C18.9862974,5.1331785 18.8561772,5.56235068 18.7826298,6.01411765 C18.7090825,6.46588461 18.6723094,6.86117478 18.6723094,7.2 Z M21.5745856,0 C22.5024135,0 23.3142507,0.127057553 24.0101215,0.381176471 C24.7059924,0.635295388 25.2858761,0.988233035 25.7497901,1.44 C26.213704,1.89176696 26.5616342,2.43670269 26.7935912,3.07482353 C27.0255481,3.71294437 27.1415249,4.41034916 27.1415249,5.16705882 C27.1415249,6.1383578 26.9859463,7.07011319 26.6747845,7.96235294 C26.3636228,8.8545927 25.8997158,9.64234952 25.2830497,10.3256471 C24.6663837,11.0089446 23.8998057,11.5538803 22.9832928,11.9604706 C22.0667799,12.3670609 21.0088458,12.5703529 19.8094586,12.5703529 C18.8816307,12.5703529 18.0697935,12.4489424 17.3739227,12.2061176 C16.6780518,11.9632929 16.0981681,11.6188258 15.6342541,11.1727059 C15.1703402,10.726586 14.82241,10.1929443 14.590453,9.57176471 C14.3584961,8.95058513 14.2425193,8.25600384 14.2425193,7.488 C14.2425193,6.50540685 14.3980979,5.56518096 14.7092597,4.66729412 C15.0204214,3.76940728 15.4843284,2.97317994 16.1009945,2.27858824 C16.7176605,1.58399653 17.4842385,1.0305903 18.4007514,0.618352941 C19.3172643,0.206115586 20.3751984,0 21.5745856,0 Z M36.1708287,0 C37.0420817,0 37.8001736,0.0564700235 38.4451271,0.169411765 C39.0900806,0.282353506 39.6841078,0.463057581 40.2272265,0.711529412 L39.7859448,3.79482353 C39.3559758,3.53505752 38.8750966,3.32611844 38.3432928,3.168 C37.8114891,3.00988156 37.2570637,2.93082353 36.68,2.93082353 C35.9671567,2.93082353 35.3533285,3.05223408 34.8384972,3.29505882 C34.3236659,3.53788357 33.8965321,3.8541157 33.5570829,4.24376471 C33.2176337,4.63341371 32.9658793,5.0710564 32.8018122,5.55670588 C32.637745,6.04235537 32.5557127,6.52799757 32.5557127,7.01364706 C32.5557127,7.75906255 32.742407,8.3661153 33.1158011,8.83482353 C33.4891952,9.30353176 34.0605928,9.53788235 34.830011,9.53788235 L35.8483536,9.53788235 L36.0689945,8.04705882 L34.694232,8.04705882 L35.0506519,5.57364706 L39.887779,5.57364706 L38.9712707,11.9774118 C38.2584274,12.1694127 37.5031642,12.3162348 36.7054586,12.4178824 C35.9077529,12.5195299 35.1015731,12.5703529 34.286895,12.5703529 C33.2798624,12.5703529 32.394479,12.4348249 31.6307182,12.1637647 C30.8669575,11.8927045 30.2276711,11.5171789 29.7128398,11.0371765 C29.1980085,10.5571741 28.8076477,9.98965033 28.5417459,9.33458824 C28.275844,8.67952614 28.142895,7.96800384 28.142895,7.2 C28.142895,5.91246415 28.3946494,4.81412219 28.8981657,3.90494118 C29.4016821,2.99576016 30.0466259,2.25035585 30.8330166,1.66870588 C31.6194072,1.08705592 32.4849898,0.663530739 33.4297901,0.398117647 C34.3745904,0.132704555 35.2882608,0 36.1708287,0 Z M42.4845525,0.220235294 L51.8023867,0.220235294 L51.3441326,3.47294118 L46.2524199,3.47294118 L46.0657238,4.82823529 L50.9198232,4.82823529 L50.5294586,7.60658824 L45.6753591,7.60658824 L45.4547182,9.11435294 L50.6652376,9.11435294 L50.2069834,12.3501176 L40.7703425,12.3501176 L42.4845525,0.220235294 Z" id="Dogecoin" fill="#31302C"></path>
                                <path d="M67.8412818,7.2 C67.8412818,7.48235435 67.8695688,7.74776346 67.9261436,7.99623529 C67.9827185,8.24470712 68.0732369,8.46211672 68.1977017,8.64847059 C68.3221664,8.83482446 68.486231,8.98447002 68.6899006,9.09741176 C68.8935701,9.21035351 69.1424958,9.26682353 69.4366851,9.26682353 C69.7874493,9.26682353 70.1127499,9.17929499 70.4125967,9.00423529 C70.7124435,8.8291756 70.9698553,8.57506049 71.1848398,8.24188235 C71.3998243,7.90870422 71.5695463,7.50494355 71.694011,7.03058824 C71.8184758,6.55623292 71.8807072,6.0197677 71.8807072,5.42117647 C71.8807072,5.13882212 71.8552489,4.867766 71.8043315,4.608 C71.7534141,4.348234 71.6657244,4.1195304 71.5412597,3.92188235 C71.416795,3.72423431 71.2527303,3.56894174 71.0490608,3.456 C70.8453912,3.34305826 70.5908082,3.28658824 70.2853039,3.28658824 C69.810075,3.28658824 69.4140568,3.42493979 69.0972376,3.70164706 C68.7804183,3.97835432 68.5286639,4.31999797 68.3419669,4.72658824 C68.1552698,5.1331785 68.0251495,5.56235068 67.9516022,6.01411765 C67.8780549,6.46588461 67.8412818,6.86117478 67.8412818,7.2 Z" id="Path" fill="#FFFFFF"></path>
                            </g>
                        </g>
                    </g>
                </g>
            </g>
        </g>
    </g>
</svg>