<?xml version="1.0" encoding="UTF-8"?>
<svg width="139px" height="25px" viewBox="0 0 139 25" version="1.1" xmlns="http://www.w3.org/2000/svg" xmlns:xlink="http://www.w3.org/1999/xlink">
    <!-- Generator: Sketch 53.2 (72643) - https://sketchapp.com -->
    <title>logo-litecoin</title>
    <desc>Created with Sketch.</desc>
    <defs>
        <linearGradient x1="97.5797412%" y1="50%" x2="0%" y2="50%" id="linearGradient-1">
            <stop stop-color="#C1985C" offset="0%"></stop>
            <stop stop-color="#EDE4AA" offset="48.2794436%"></stop>
            <stop stop-color="#A8863C" offset="100%"></stop>
        </linearGradient>
        <path d="M12.0501938,0.0635166158 C5.42912265,0.0635166158 0.0618219876,5.40775489 0.0618219876,12.0002139 C0.0618219876,18.5927456 5.42912265,23.9370533 12.0501938,23.9370533 C18.6711918,23.9370533 24.0385651,18.5927456 24.0385651,12.0002139 C24.0385651,5.40775489 18.671119,0.0635166158 12.0501938,0.0635166158 Z" id="path-2"></path>
        <filter x="-125.1%" y="-100.5%" width="350.2%" height="351.3%" filterUnits="objectBoundingBox" id="filter-3">
            <feOffset dx="0" dy="6" in="SourceAlpha" result="shadowOffsetOuter1"></feOffset>
            <feGaussianBlur stdDeviation="9" in="shadowOffsetOuter1" result="shadowBlurOuter1"></feGaussianBlur>
            <feColorMatrix values="0 0 0 0 0   0 0 0 0 0   0 0 0 0 0  0 0 0 0 0" type="matrix" in="shadowBlurOuter1"></feColorMatrix>
        </filter>
        <linearGradient x1="97.5797412%" y1="50%" x2="0%" y2="50%" id="linearGradient-4">
            <stop stop-color="#C1985C" offset="0%"></stop>
            <stop stop-color="#EDE4AA" offset="48.2794436%"></stop>
            <stop stop-color="#A8863C" offset="100%"></stop>
        </linearGradient>
        <path d="M46.7376,15.904 C46.7376,10.016 51.1674,7.52 55.4367,7.52 C57.138,7.52 58.8072,7.904 60.1875,8.64 L60.1875,12.544 C59.0961,11.84 57.5553,11.392 56.0787,11.392 C53.6391,11.392 51.2958,12.576 51.2958,15.68 C51.2958,18.624 53.607,19.968 56.0145,19.968 C57.6516,19.968 59.2245,19.52 60.348,18.848 L60.348,22.784 C58.8393,23.424 57.1059,23.808 55.1478,23.808 C50.9427,23.808 46.7376,21.376 46.7376,15.904 Z M62.4666,15.68 C62.4666,10.304 66.5112,7.552 70.9731,7.552 C75.4671,7.552 79.4796,10.304 79.4796,15.68 C79.4796,21.056 75.4671,23.808 70.9731,23.808 C66.5112,23.808 62.4666,21.056 62.4666,15.68 Z M74.9535,15.68 C74.9535,13.312 73.5411,11.52 70.9731,11.52 C68.4372,11.52 67.0248,13.312 67.0248,15.68 C67.0248,18.048 68.4372,19.84 70.9731,19.84 C73.5411,19.84 74.9535,18.048 74.9535,15.68 Z M86.8947,23.36 L82.4328,23.36 L82.4328,8 L86.8947,8 L86.8947,23.36 Z M87.2799,2.912 C87.2799,4.672 86.0601,5.44 84.6477,5.44 C83.2674,5.44 82.0476,4.672 82.0476,2.912 C82.0476,1.184 83.2674,0.416 84.6477,0.416 C86.0601,0.416 87.2799,1.184 87.2799,2.912 Z M94.695,9.952 C95.8827,8.576 97.6161,7.552 99.831,7.552 C103.8756,7.552 106.0905,10.304 106.0905,13.856 L106.0905,23.36 L101.6286,23.36 L101.6286,14.432 C101.6286,12.352 100.3767,11.392 98.6433,11.392 C97.0704,11.392 95.8506,12.416 95.2086,13.344 L95.2086,23.36 L90.7467,23.36 L90.7467,8 L94.695,8 L94.695,9.952 Z" id="path-5"></path>
        <filter x="-67.4%" y="-136.8%" width="234.8%" height="442.0%" filterUnits="objectBoundingBox" id="filter-6">
            <feOffset dx="0" dy="8" in="SourceAlpha" result="shadowOffsetOuter1"></feOffset>
            <feGaussianBlur stdDeviation="12" in="shadowOffsetOuter1" result="shadowBlurOuter1"></feGaussianBlur>
            <feColorMatrix values="0 0 0 0 0   0 0 0 0 0   0 0 0 0 0  0 0 0 0 0" type="matrix" in="shadowBlurOuter1"></feColorMatrix>
        </filter>
    </defs>
    <g id="🌀-✅--Withdraw" stroke="none" stroke-width="1" fill="none" fill-rule="evenodd">
        <g id="ba_withdraw" transform="translate(-1006.000000, -536.000000)" fill-rule="nonzero">
            <g id="payments" transform="translate(699.000000, 413.000000)">
                <g id="item" transform="translate(288.500000, 110.000000)">
                    <g id="Group-13-Copy">
                        <g id="Group-5">
                            <g id="logo-litecoin" transform="translate(18.500000, 13.000000)">
                                <g id="litecoin-copy-2" transform="translate(0.000000, 1.000000)">
                                    <g id="Fill-1">
                                        <use fill="black" fill-opacity="1" filter="url(#filter-3)" xlink:href="#path-2"></use>
                                        <use fill="url(#linearGradient-1)" xlink:href="#path-2"></use>
                                    </g>
                                    <polygon id="Fill-1-path" stroke="#DFCA93" stroke-width="0.4" fill="#FFFFFF" points="10.1993626 5.59873189 13.9074245 5.59873189 12.5999097 10.5007809 14.4146148 9.84070695 14.4302598 9.88319201 13.971712 11.5990151 12.1281353 12.2695686 11.3495714 15.1889888 17.5102367 15.1889888 16.8776005 17.535571 7.00873122 17.535571 8.01656845 13.7653196 6.59000794 14.2842018 7.06178273 12.5152728 8.48933907 11.9959657"></polygon>
                                </g>
                                <g id="Group-4" transform="translate(32.000000, 0.000000)">
                                    <path d="M1.13686838e-13,0 L2.568,0 L2.568,23.36 L1.13686838e-13,23.36 L1.13686838e-13,0 Z M10.0152,23.36 L7.4472,23.36 L7.4472,8 L10.0152,8 L10.0152,23.36 Z M10.4004,3.104 C10.4004,4.192 9.63,4.736 8.7312,4.736 C7.8324,4.736 7.062,4.192 7.062,3.104 C7.062,2.048 7.8324,1.472 8.7312,1.472 C9.63,1.472 10.4004,2.048 10.4004,3.104 Z M15.8574,3.232 L18.3933,2.592 L18.3933,8 L24.5565,8 L24.5565,10.368 L18.3933,10.368 L18.3933,18.304 C18.3933,20.64 19.4526,21.344 21.6996,21.344 C22.9194,21.344 24.075,21.056 25.1022,20.64 L25.1022,23.008 C23.9466,23.424 22.4379,23.712 20.9613,23.712 C17.976,23.712 15.8574,22.112 15.8574,18.752 L15.8574,10.368 L12.9684,10.368 L12.9684,8 L15.8574,8 L15.8574,3.232 Z M26.9319,15.68 C26.9319,10.304 30.9444,7.616 34.6038,7.616 C40.5423,7.616 42.7251,12.448 41.7621,16.8 L29.4999,16.8 C29.8209,20.032 32.742,21.376 35.8557,21.376 C37.7496,21.376 39.6114,20.864 40.9275,20.128 L40.9275,22.624 C39.5151,23.36 37.4928,23.744 35.4705,23.744 C30.9123,23.744 26.9319,21.152 26.9319,15.68 Z M39.483,14.56 C39.7077,12.928 38.6805,9.984 34.7643,9.984 C32.1321,9.984 29.6925,11.552 29.4999,14.56 L39.483,14.56 Z" id="lite" fill="#31302C"></path>
                                    <g id="coin">
                                        <use fill="black" fill-opacity="1" filter="url(#filter-6)" xlink:href="#path-5"></use>
                                        <use fill="url(#linearGradient-4)" xlink:href="#path-5"></use>
                                    </g>
                                </g>
                            </g>
                        </g>
                    </g>
                </g>
            </g>
        </g>
    </g>
</svg>