<?xml version="1.0" encoding="UTF-8"?>
<svg width="102px" height="20px" viewBox="0 0 102 20" version="1.1" xmlns="http://www.w3.org/2000/svg" xmlns:xlink="http://www.w3.org/1999/xlink">
    <!-- Generator: Sketch 53.2 (72643) - https://sketchapp.com -->
    <title>logo-bitcoin</title>
    <desc>Created with Sketch.</desc>
    <defs>
        <linearGradient x1="97.5797412%" y1="50%" x2="0%" y2="50%" id="linearGradient-1">
            <stop stop-color="#C1985C" offset="0%"></stop>
            <stop stop-color="#EDE4AA" offset="48.2794436%"></stop>
            <stop stop-color="#A8863C" offset="100%"></stop>
        </linearGradient>
        <path d="M19.7503026,12.22932 C18.4320234,17.5040892 13.0765526,20.7142431 7.78832208,19.3988585 C2.50225065,18.0837815 -0.71572013,12.7410123 0.603175974,7.46655077 C1.92083831,2.19116615 7.27630909,-1.01929538 12.5629974,0.295781538 C17.8509195,1.61085846 21.0685818,6.95424308 19.7503026,12.22932 Z" id="path-2"></path>
        <filter x="-152.0%" y="-121.9%" width="404.0%" height="404.7%" filterUnits="objectBoundingBox" id="filter-3">
            <feOffset dx="0" dy="6" in="SourceAlpha" result="shadowOffsetOuter1"></feOffset>
            <feGaussianBlur stdDeviation="9" in="shadowOffsetOuter1" result="shadowBlurOuter1"></feGaussianBlur>
            <feColorMatrix values="0 0 0 0 0   0 0 0 0 0   0 0 0 0 0  0 0 0 0 0" type="matrix" in="shadowBlurOuter1"></feColorMatrix>
        </filter>
        <linearGradient x1="97.5797412%" y1="50%" x2="0%" y2="50%" id="linearGradient-4">
            <stop stop-color="#C1985C" offset="0%"></stop>
            <stop stop-color="#EDE4AA" offset="48.2794436%"></stop>
            <stop stop-color="#A8863C" offset="100%"></stop>
        </linearGradient>
        <path d="M57.1866662,14.10932 C57.1866662,12.9803969 57.3698805,11.9157815 57.7360006,10.9191662 C58.1015039,9.92162769 58.6280136,9.04932 59.3112117,8.30070462 C59.9919422,7.55578154 60.8213416,6.96562769 61.7975591,6.53239692 C62.76915,6.10162769 63.8570234,5.88439692 65.0559357,5.88439692 C65.806374,5.88439692 66.4766175,5.95516615 67.0663578,6.09701231 C67.6585656,6.24008923 68.1943286,6.42501231 68.6788903,6.65701231 L67.4037929,9.54932 C67.070676,9.41455077 66.724913,9.29578154 66.3674292,9.18808923 C66.009637,9.07824308 65.5728838,9.02532 65.0562442,9.02532 C63.8221695,9.02532 62.8465688,9.44962769 62.1204974,10.2954738 C61.3972019,11.1419354 61.0329325,12.28132 61.0329325,13.7105508 C61.0329325,14.5576277 61.2161468,15.2425508 61.5838091,15.7665508 C61.9496208,16.2905508 62.6254162,16.5511662 63.6065688,16.5511662 C64.0908221,16.5511662 64.558111,16.5007046 65.0056597,16.4022431 C65.4566013,16.3025508 65.8547994,16.1770123 66.2054974,16.0287046 L66.4815526,18.9936277 C66.0139552,19.1745508 65.4982409,19.3379354 64.9325591,19.4810123 C64.3656435,19.6191662 63.6907734,19.6908585 62.9082571,19.6908585 C61.8752864,19.6908585 61.0008545,19.5400892 60.2855786,19.2431662 C59.5699942,18.9416277 58.9787117,18.54132 58.5129649,18.0342431 C58.0447506,17.5259354 57.7085494,16.9323969 57.5006597,16.2511662 C57.2927701,15.5705508 57.1866662,14.8554738 57.1866662,14.10932 Z M73.6111792,19.6908585 C72.7287279,19.6908585 71.9622506,19.5567046 71.3120558,19.2911662 C70.6637117,19.0256277 70.1267149,18.6530123 69.7019909,18.1699354 C69.27665,17.68932 68.9583383,17.1197815 68.7402701,16.4634738 C68.5222019,15.8074738 68.4173318,15.0810123 68.4173318,14.2850123 C68.4173318,13.2865508 68.5780299,12.2883969 68.9028188,11.2930123 C69.2260656,10.2954738 69.7056922,9.39916615 70.3404649,8.60255077 C70.9703026,7.80470462 71.7472669,7.15239692 72.6621045,6.64378154 C73.5760169,6.13855077 74.6271857,5.88439692 75.8079,5.88439692 C76.6743123,5.88439692 77.4367799,6.01885846 78.0959195,6.28439692 C78.7519747,6.54932 79.2923643,6.92501231 79.7195558,7.40562769 C80.1421208,7.88870462 80.4632084,8.45578154 80.6791175,9.11301231 C80.8965688,9.76778154 81.0039065,10.4960892 81.0039065,11.2927046 C81.0039065,12.2880892 80.8453675,13.2862431 80.5307571,14.2847046 C80.2158383,15.2782431 79.7485494,16.1767046 79.1316662,16.9751662 C78.5160169,17.7717815 77.7461468,18.4237815 76.821439,18.9302431 C75.8979649,19.4367046 74.8270558,19.6908585 73.6111792,19.6908585 Z M75.4590526,9.02562769 C74.9109519,9.02562769 74.4263903,9.18439692 74.0115364,9.49793538 C73.5951403,9.81516615 73.2453675,10.2139354 72.9634519,10.6948585 C72.6784519,11.1779354 72.4671695,11.7047046 72.324361,12.27732 C72.1827864,12.8511662 72.113387,13.3936277 72.113387,13.9090123 C72.113387,14.7407046 72.2478675,15.3883969 72.5122019,15.8545508 C72.7802377,16.3182431 73.2617149,16.5514738 73.9615688,16.5514738 C74.5115201,16.5514738 74.9936143,16.3939354 75.4109357,16.0770123 C75.8248643,15.7622431 76.1749455,15.3631662 76.4590201,14.88132 C76.7421695,14.4007046 76.9553026,13.8723969 77.098111,13.2988585 C77.2378351,12.7268585 77.3090851,12.18132 77.3090851,11.6668585 C77.3090851,10.83732 77.1752214,10.1880892 76.9084195,9.72255077 C76.641926,9.25885846 76.1582896,9.02562769 75.4590526,9.02562769 Z M85.0327701,19.3431662 L81.3323968,19.3431662 L84.4547506,6.23639692 L88.1791825,6.23639692 L85.0327701,19.3431662 Z M86.8291338,4.63947385 C86.3134195,4.63947385 85.8458221,4.48624308 85.4312766,4.17916615 C85.0148805,3.87393538 84.8057571,3.40408923 84.8057571,2.77085846 C84.8057571,2.42255077 84.877624,2.09578154 85.0185818,1.78747385 C85.1595396,1.47978154 85.3473805,1.21485846 85.5811792,0.989627692 C85.8134357,0.766243077 86.0864065,0.587781538 86.3929974,0.45332 C86.7002052,0.321012308 87.0290039,0.254858462 87.3781597,0.254858462 C87.8951078,0.254858462 88.3620883,0.408089231 88.7778675,0.715166154 C89.1939552,1.02378154 89.4040039,1.49362769 89.4040039,2.12347385 C89.4040039,2.47301231 89.329361,2.80101231 89.189637,3.10870462 C89.049913,3.41639692 88.8620721,3.68132 88.6291987,3.90655077 C88.3947831,4.13024308 88.1252052,4.30808923 87.8179974,4.44132 C87.5083221,4.57578154 87.1801403,4.63947385 86.8291338,4.63947385 Z M90.8438091,6.83239692 C91.1244909,6.75055077 91.4378675,6.65208923 91.7786955,6.54501231 C92.1207571,6.43793538 92.5029162,6.33824308 92.9297994,6.24839692 C93.3520558,6.15578154 93.8285981,6.08070462 94.3526403,6.02255077 C94.8766825,5.96316615 95.4738253,5.93424308 96.1372831,5.93424308 C98.0872506,5.93424308 99.431439,6.50070462 100.173549,7.63024308 C100.915043,8.75978154 101.043355,10.3056277 100.562186,12.2650123 L98.861439,19.3419354 L95.1397831,19.3419354 L96.7880948,12.4139354 C96.8886468,11.98132 96.9676078,11.5631662 97.0259032,11.1545508 C97.0848156,10.7496277 97.0814227,10.3927046 97.0126403,10.0837815 C96.9469422,9.77855077 96.7921045,9.52870462 96.5518286,9.33516615 C96.3078513,9.14470462 95.9392636,9.04901231 95.4392799,9.04901231 C94.9571857,9.04901231 94.4667636,9.10070462 93.966163,9.20039692 L91.5427377,19.3416277 L87.8195396,19.3416277 L90.8438091,6.83239692 Z" id="path-5"></path>
        <filter x="-68.7%" y="-123.5%" width="237.4%" height="408.7%" filterUnits="objectBoundingBox" id="filter-6">
            <feOffset dx="0" dy="6" in="SourceAlpha" result="shadowOffsetOuter1"></feOffset>
            <feGaussianBlur stdDeviation="9" in="shadowOffsetOuter1" result="shadowBlurOuter1"></feGaussianBlur>
            <feColorMatrix values="0 0 0 0 0   0 0 0 0 0   0 0 0 0 0  0 0 0 0 0" type="matrix" in="shadowBlurOuter1"></feColorMatrix>
        </filter>
    </defs>
    <g id="🌀-✅--Withdraw" stroke="none" stroke-width="1" fill="none" fill-rule="evenodd">
        <g id="ba_withdraw" transform="translate(-1007.000000, -429.000000)" fill-rule="nonzero">
            <g id="payments" transform="translate(699.000000, 413.000000)">
                <g id="item" transform="translate(288.500000, 0.000000)">
                    <g id="logo-bitcoin" transform="translate(20.000000, 16.000000)">
                        <g id="Path">
                            <use fill="black" fill-opacity="1" filter="url(#filter-3)" xlink:href="#path-2"></use>
                            <use fill="url(#linearGradient-1)" xlink:href="#path-2"></use>
                        </g>
                        <path d="M14.528387,8.44470462 C14.7248643,7.13455077 13.7248968,6.43024308 12.3575753,5.96039692 L12.8011143,4.18562769 L11.718176,3.91639692 L11.2863578,5.64439692 C11.0016662,5.57362769 10.7092636,5.50685846 10.4187117,5.44070462 L10.8536143,3.70132 L9.77129286,3.43208923 L9.32744545,5.20624308 C9.0917961,5.15270462 8.86046494,5.09978154 8.63591948,5.04408923 L8.63715325,5.03855077 L7.14367922,4.66655077 L6.85559481,5.82039692 C6.85559481,5.82039692 7.65908506,6.00408923 7.64212078,6.01547385 C8.08072468,6.12470462 8.15999416,6.41424308 8.14673117,6.64378154 L7.6415039,8.66562769 C7.67173117,8.67332 7.71090325,8.68439692 7.75408506,8.70162769 C7.7179974,8.69270462 7.67944221,8.68285846 7.63965325,8.67332 L6.93147143,11.5056277 C6.8778026,11.6385508 6.74177987,11.8379354 6.43518896,11.7622431 C6.44598442,11.7779354 5.6480461,11.5662431 5.6480461,11.5662431 L5.11043247,12.8028585 L6.51970195,13.15332 C6.78187727,13.2188585 7.03880909,13.2874738 7.29173117,13.3520892 L6.84356558,15.1471662 L7.92527013,15.4163969 L8.36911753,13.6403969 C8.66460455,13.7203969 8.95145519,13.7942431 9.23213701,13.8637815 L8.78983182,15.6314738 L9.87277013,15.9007046 L10.3209357,14.1090123 C12.1675753,14.4576277 13.5561792,14.3170123 14.140676,12.6508585 C14.6116662,11.30932 14.1172344,10.5354738 13.1456435,10.0308585 C13.8532084,9.86808923 14.3861955,9.40378154 14.528387,8.44470462 Z M12.0540688,11.9059354 C11.7194097,13.2474738 9.45514026,12.5222431 8.72104935,12.3403969 L9.31572468,9.96224308 C10.0498156,10.1450123 12.4038416,10.5068585 12.0540688,11.9059354 Z M12.3890364,8.42532 C12.0836792,9.64562769 10.1991013,9.02562769 9.58777013,8.87362769 L10.126926,6.71670462 C10.7382571,6.86870462 12.7070396,7.15239692 12.3890364,8.42532 Z" id="Shape" fill="#FFFFFF"></path>
                        <g id="Combined-Shape">
                            <use fill="black" fill-opacity="1" filter="url(#filter-6)" xlink:href="#path-5"></use>
                            <use fill="url(#linearGradient-4)" xlink:href="#path-5"></use>
                        </g>
                        <g id="Group-13" transform="translate(26.514621, 0.004089)" fill="#31302C">
                            <path d="M8.71717532,5.95446154 C9.51758117,5.95446154 10.2091071,6.09753846 10.790211,6.37846154 C11.3740909,6.66215385 11.8558766,7.04430769 12.2423539,7.52492308 C12.6235877,8.008 12.9073539,8.57261538 13.0905682,9.21969231 C13.2725487,9.86861538 13.3638474,10.5661538 13.3638474,11.3129231 C13.3638474,12.46 13.1531818,13.5436923 12.7278409,14.5652308 C12.3025,15.5883077 11.7254058,16.4756923 10.9913149,17.2326154 C10.2578409,17.9886154 9.39173701,18.5846154 8.39300325,19.0249231 C7.39581169,19.4655385 6.31163961,19.6858462 5.14758117,19.6858462 C4.99706169,19.6858462 4.73241883,19.6815385 4.35858766,19.6738462 C3.98475649,19.6661538 3.5550974,19.6276923 3.07392857,19.5627692 C2.58967532,19.4953846 2.07766234,19.3956923 1.53696429,19.2621538 C0.996574675,19.1310769 0.483327922,18.9473846 5.68434189e-14,18.7141538 L4.32188312,0.598461538 L8.19282468,-3.55271368e-14 L6.64537338,6.42861538 C6.97663961,6.27969231 7.31037338,6.16430769 7.64349026,6.08030769 C7.97691558,5.99753846 8.33470779,5.95446154 8.71717532,5.95446154 Z M5.47021104,16.6224615 C6.05316558,16.6224615 6.6025,16.4793846 7.11852273,16.1984615 C7.63608766,15.9172308 8.08271104,15.5375385 8.45685065,15.0646154 C8.83099026,14.5895385 9.12709416,14.0544615 9.34300325,13.4566154 C9.55891234,12.8587692 9.66810065,12.2350769 9.66810065,11.5861538 C9.66810065,10.7889231 9.53454545,10.1670769 9.26836039,9.71753846 C9.00217532,9.26984615 8.50959416,9.04461538 7.79431818,9.04461538 C7.5599026,9.04461538 7.25793831,9.08923077 6.88349026,9.16892308 C6.50780844,9.25353846 6.17160714,9.42923077 5.87025974,9.69353846 L4.22256494,16.5206154 C4.32188312,16.5381538 4.40978896,16.5547692 4.48474026,16.5704615 C4.55814935,16.5873846 4.63926948,16.5993846 4.72008117,16.6076923 C4.80551948,16.6172308 4.90329545,16.6221538 5.02142857,16.6221538 C5.13956169,16.6221538 5.28730519,16.6224615 5.47021104,16.6224615 Z M17.3782143,19.3390769 L13.6809253,19.3390769 L16.8032792,6.23230769 L20.5258604,6.23230769 L17.3782143,19.3390769 Z M19.1773539,4.63538462 C18.6613312,4.63538462 18.1934253,4.48215385 17.778263,4.17507692 C17.3597078,3.86984615 17.1524351,3.4 17.1524351,2.76676923 C17.1524351,2.41846154 17.2233766,2.09169231 17.364026,1.78338462 C17.5068344,1.47569231 17.6934416,1.21076923 17.9272403,0.985538462 C18.1607305,0.762153846 18.4312338,0.583692308 18.7384416,0.449230769 C19.0475,0.316923077 19.3762987,0.250769231 19.7266883,0.250769231 C20.2424026,0.250769231 20.7078409,0.404 21.1245455,0.711076923 C21.5397078,1.01969231 21.7485227,1.48953846 21.7485227,2.11938462 C21.7485227,2.46892308 21.6778896,2.79692308 21.5360065,3.10461538 C21.3950487,3.41230769 21.2084416,3.67723077 20.9746429,3.90246154 C20.7430032,4.12615385 20.4700325,4.304 20.1634416,4.43723077 C19.8540747,4.57169231 19.5265097,4.63538462 19.1773539,4.63538462 Z M23.766039,2.96676923 L27.6385227,2.36830769 L26.6875974,6.23169231 L30.8349026,6.23169231 L30.0860065,9.27107692 L25.9636851,9.27107692 L24.8656331,13.8556923 C24.7644643,14.2378462 24.7070942,14.5947692 24.6910552,14.9264615 C24.6728571,15.2596923 24.7151136,15.5458462 24.8150487,15.7867692 C24.9143669,16.0283077 25.0929545,16.2144615 25.3520455,16.3461538 C25.6099026,16.48 25.9791071,16.5473846 26.4633604,16.5473846 C26.8621753,16.5473846 27.2508117,16.5095385 27.6264935,16.4344615 C28.0000162,16.3606154 28.378474,16.2578462 28.7615584,16.1233846 L29.0373052,18.9652308 C28.5376299,19.148 27.9966234,19.3052308 27.4136688,19.4375385 C26.829789,19.5716923 26.1385714,19.6363077 25.3397078,19.6363077 C24.1910714,19.6363077 23.3006006,19.4661538 22.6661364,19.1273846 C22.0325974,18.7861538 21.5847403,18.32 21.3167045,17.7298462 C21.0523701,17.1418462 20.934237,16.464 20.9672403,15.7003077 C21.0014773,14.9347692 21.1171429,14.1301538 21.3167045,13.2827692 L23.766039,2.96676923 Z" id="Combined-Shape"></path>
                        </g>
                    </g>
                </g>
            </g>
        </g>
    </g>
</svg>