<?xml version="1.0" encoding="UTF-8"?>
<svg width="173px" height="31px" viewBox="0 0 173 31" version="1.1" xmlns="http://www.w3.org/2000/svg" xmlns:xlink="http://www.w3.org/1999/xlink">
    <!-- Generator: Sketch 53.2 (72643) - https://sketchapp.com -->
    <title>logo-perfectmoney</title>
    <desc>Created with Sketch.</desc>
    <defs>
        <path d="M5.64604097,4.5919121 C5.64604097,8.49366096 5.64604097,11.4199727 5.64604097,13.3708471 C5.64604097,13.7938574 5.64604097,14.2970535 5.64604097,14.8804355 C5.64604097,15.5173672 5.64604097,16.6878247 5.64604097,18.3918082 C5.64604097,21.6406627 5.70773225,22.0429018 7.68185311,22.2594921 L8.51468534,22.3523165 C8.69975921,22.5070239 8.63806792,23.0330289 8.45299405,23.1258533 C6.69479266,23.0639703 5.67688661,23.0330289 4.44306107,23.0330289 C3.14754425,23.0330289 2.03710126,23.0639703 0.679893166,23.1258533 C0.494819337,23.0330289 0.43312806,22.5379653 0.618201891,22.3523165 L1.2659603,22.2594921 C3.05500733,22.0119603 3.11669861,21.6406627 3.11669861,18.3918082 C3.11669861,16.6513972 3.11669861,15.4598421 3.11669861,14.8171429 C3.11669861,14.2778879 3.11669861,13.8098171 3.11669861,13.4129306 C3.11669861,11.9821473 3.11669861,9.83597217 3.11669861,6.97440538 C3.11669861,4.34438035 3.05500733,3.81837536 1.6669536,3.66366801 L0.556510614,3.53990211 C0.340591144,3.35425325 0.371436782,2.89013121 0.618201891,2.76636531 C2.25302073,2.54977501 4.16545032,2.51883356 6.72563831,2.51883356 C9.28582634,2.51883356 11.1982559,2.85918977 12.648001,3.75649241 C14.0669003,4.65379505 15.115652,6.26275154 15.115652,8.39771308 C15.115652,11.2443284 13.3574506,12.667636 12.0310882,13.3174069 C10.6738801,13.9671778 9.03906124,14.2456511 7.77439005,14.2456511 C7.55847053,14.1528267 7.55847053,13.6887046 7.7435444,13.6268217 C11.0748734,13.0079922 12.2778533,11.1205625 12.2778533,8.42865453 C12.2778533,5.42733185 10.5196519,3.47801916 7.31170544,3.47801916 L5.64604097,4.5919121 Z M24.1534241,15.1120123 L18.446981,15.1120123 C17.6449944,15.1120123 17.6141487,15.1738952 17.6141487,15.947432 C17.6141487,19.0725206 19.4340414,21.7334871 22.7345247,21.7334871 C23.7524308,21.7334871 24.6161087,21.4240724 25.5723235,20.217355 C25.8807799,20.1245306 26.0966993,20.3101794 26.127545,20.5886527 C25.1096389,22.6926727 22.8887529,23.4662095 21.2847797,23.4662095 C19.2798132,23.4662095 17.7066857,22.5998483 16.8121621,21.4240724 C15.886793,20.217355 15.5166453,18.7631059 15.5166453,17.4016811 C15.5166453,13.5958802 18.0151421,10.4089087 21.7166186,10.4089087 C24.3693436,10.4089087 26.0966993,12.2344554 26.0966993,14.0909437 C26.0966993,14.5241243 26.0350081,14.7716561 25.9733168,14.895422 C25.8807799,15.0810708 25.4489409,15.1120123 24.1534241,15.1120123 Z M18.1693702,14.1837681 L20.3594106,14.1837681 C22.6419878,14.1837681 23.3205919,14.0600022 23.567357,13.8743534 C23.6598939,13.8124705 23.7524308,13.6887046 23.7524308,13.2864655 C23.7524308,12.4201043 23.1663637,11.3371528 21.3773166,11.3371528 C19.557424,11.3371528 17.9842964,13.0079922 17.9534508,14.0290608 C17.9534508,14.0909437 17.9534508,14.1837681 18.1693702,14.1837681 Z M29.6747934,19.5675841 L29.6747934,14.1528267 C29.6747934,12.9461093 29.6747934,12.791402 28.8419612,12.2344554 L28.5643504,12.0488067 C28.4409679,11.9250408 28.4409679,11.5846846 28.595196,11.4918602 C29.3046457,11.2443284 30.9394646,10.4398502 31.7106055,9.97572806 C31.8648338,10.0066696 31.9573706,10.0685525 31.9573706,10.1923184 L31.9573706,11.9869237 C31.9573706,12.1416311 31.9882163,12.2344554 32.0499076,12.265397 C33.1295049,11.3680943 34.3016392,10.4089087 35.4429278,10.4089087 C36.2140688,10.4089087 36.8309815,10.9039722 36.8309815,11.6465675 C36.8309815,12.667636 35.9981493,13.0698752 35.5046191,13.0698752 C35.1961627,13.0698752 35.0419345,12.9770508 34.8260151,12.8532849 C34.3633304,12.5438702 33.9006459,12.3582214 33.4688069,12.3582214 C32.9752767,12.3582214 32.6051291,12.6366946 32.358364,12.9770508 C32.0499076,13.4102314 31.9573706,14.307534 31.9573706,15.359544 L31.9573706,19.5675841 C31.9573706,21.79537 32.0190619,22.1666677 33.1911962,22.2594921 L34.3016392,22.3523165 C34.5175587,22.5070239 34.4558674,23.0330289 34.2399479,23.1258533 C32.7902029,23.0639703 31.8956794,23.0330289 30.816082,23.0330289 C29.7056391,23.0330289 28.7802699,23.0639703 27.9782833,23.1258533 C27.7623638,23.0330289 27.7006725,22.5070239 27.916592,22.3523165 L28.5026591,22.2594921 C29.6439478,22.0738433 29.6747934,21.79537 29.6747934,19.5675841 Z M46.17721,12.1416311 L42.8767267,12.1416311 C42.3523509,12.1416311 42.3523509,12.203514 42.3523509,13.0389337 L42.3523509,19.5675841 C42.3523509,21.79537 42.4140421,22.1666677 43.5244851,22.2594921 L44.6349281,22.3523165 C44.8508475,22.5070239 44.7891563,23.0330289 44.5732368,23.1258533 C43.1851831,23.0639703 42.2906596,23.0330289 41.2110622,23.0330289 C40.1006192,23.0330289 39.1752501,23.0639703 38.2498809,23.1258533 C38.0339614,23.0330289 37.9722701,22.5070239 38.1881897,22.3523165 L38.8976393,22.2594921 C40.0389279,22.1047847 40.0697736,21.79537 40.0697736,19.5675841 L40.0697736,13.0389337 C40.0697736,12.203514 40.0697736,12.1416311 39.4528608,12.1416311 L38.3732635,12.1416311 C38.1881897,12.0178652 38.157344,11.739392 38.2807265,11.5537431 L39.607089,10.9039722 C39.8538541,10.7802063 40.0697736,10.5945575 40.0697736,10.2851428 C40.0697736,8.49053748 40.2856931,6.57216629 41.0259884,4.8394439 C41.7971294,3.07578007 43.5244851,0.909877075 46.5782033,0.909877075 C48.2130222,0.909877075 49.6010759,1.65247237 49.6010759,2.76636531 C49.6010759,3.38519476 49.0150088,3.88025831 48.4289417,3.88025831 C48.0896396,3.88025831 47.9045658,3.75649241 47.6886463,3.50896066 C47.1025792,2.82824826 46.2389013,2.14753592 45.2209952,2.14753592 C44.2647804,2.14753592 43.4936395,2.73542386 43.0309549,3.8493168 C42.4757334,5.2726245 42.3523509,7.53135189 42.3523509,9.07842542 L42.3523509,9.97572806 C42.3523509,10.8111478 42.3523509,10.8420893 42.8767267,10.8420893 L46.3931295,10.8420893 C46.7324315,11.151504 46.5165121,12.0178652 46.17721,12.1416311 Z M55.8010492,15.1120123 L50.0946061,15.1120123 C49.2926195,15.1120123 49.2617739,15.1738952 49.2617739,15.947432 C49.2617739,19.0725206 51.0816666,21.7334871 54.3821499,21.7334871 C55.4000559,21.7334871 56.2637338,21.4240724 57.2199486,20.217355 C57.528405,20.1245306 57.7443245,20.3101794 57.7751701,20.5886527 C56.7572641,22.6926727 54.5363781,23.4662095 52.9324049,23.4662095 C50.9274383,23.4662095 49.3543108,22.5998483 48.4597872,21.4240724 C47.5344181,20.217355 47.1642705,18.7631059 47.1642705,17.4016811 C47.1642705,13.5958802 49.6627672,10.4089087 53.3642438,10.4089087 C56.0169687,10.4089087 57.7443245,12.2344554 57.7443245,14.0909437 C57.7443245,14.5241243 57.6826332,14.7716561 57.6209419,14.895422 C57.528405,15.0810708 57.0965661,15.1120123 55.8010492,15.1120123 Z M49.8169954,14.1837681 L52.0070357,14.1837681 C54.289613,14.1837681 54.968217,14.0600022 55.2149821,13.8743534 C55.3075191,13.8124705 55.4000559,13.6887046 55.4000559,13.2864655 C55.4000559,12.4201043 54.8139888,11.3371528 53.0249418,11.3371528 C51.2050491,11.3371528 49.6319216,13.0079922 49.6010759,14.0290608 C49.6010759,14.0909437 49.6010759,14.1837681 49.8169954,14.1837681 Z M66.8746335,10.4089087 C67.5840832,10.4089087 68.7870628,10.563616 69.6198954,10.9349137 C69.8666607,11.151504 70.0825797,11.6465675 70.0825797,12.1725726 C70.0825797,12.729519 69.7741233,13.3174069 69.4039757,13.3174069 C69.2497478,13.3174069 69.0955192,13.255524 68.9721369,13.1008166 C68.2935328,12.265397 67.1522444,11.4609187 65.887573,11.4609187 C63.7283785,11.4609187 61.630875,13.1626996 61.630875,16.4424955 C61.630875,18.8559303 63.2965397,21.7334871 66.5970227,21.7334871 C68.3860696,21.7334871 69.3114389,20.9290089 70.0208886,19.8769988 C70.2676539,19.8151159 70.5452647,20.0317062 70.5761103,20.3101794 C69.5273586,22.5998483 67.2139356,23.4662095 65.4248887,23.4662095 C63.7900697,23.4662095 62.2786333,22.9402044 61.199036,21.8881944 C60.1194387,20.8361845 59.409989,19.3200524 59.409989,17.3088567 C59.409989,13.9671778 61.7542575,10.4089087 66.8746335,10.4089087 Z M79.6755734,12.1416311 L76.1900163,12.1416311 C75.6656402,12.1416311 75.6347946,12.2344554 75.6347946,12.8842263 L75.6347946,18.6702815 C75.6347946,20.4648867 75.8507143,22.1047847 77.8865265,22.1047847 C78.1949829,22.1047847 78.4725938,22.0429018 78.7193585,21.9500774 C78.9969693,21.857253 79.3979625,21.5168968 79.4904999,21.5168968 C79.7372645,21.5168968 79.8606475,21.857253 79.7989563,22.0429018 C79.2437346,22.6926727 78.1332918,23.4662095 76.5601639,23.4662095 C73.9074388,23.4662095 73.3522177,21.9810188 73.3522177,20.1245306 L73.3522177,13.0389337 C73.3522177,12.203514 73.3213721,12.1416311 72.7044592,12.1416311 L71.8407811,12.1416311 C71.6557076,12.0178652 71.624862,11.677509 71.7482443,11.4918602 C72.6427681,11.2133869 73.4139089,10.8111478 73.7223653,10.5326746 C74.1233585,10.1613769 74.7094259,9.32595717 75.0178823,8.70712778 C75.1721102,8.64524482 75.5422578,8.64524482 75.6656402,8.86183512 L75.6656402,10.2542013 C75.6656402,10.8111478 75.6964864,10.8420893 76.2208619,10.8420893 L79.6447278,10.8420893 C80.0148754,11.1205625 79.9531842,11.9559823 79.6755734,12.1416311 Z" id="path-1"></path>
        <filter x="-43.8%" y="-124.1%" width="187.9%" height="410.3%" filterUnits="objectBoundingBox" id="filter-2">
            <feOffset dx="0" dy="7" in="SourceAlpha" result="shadowOffsetOuter1"></feOffset>
            <feGaussianBlur stdDeviation="10.5" in="shadowOffsetOuter1" result="shadowBlurOuter1"></feGaussianBlur>
            <feColorMatrix values="0 0 0 0 0   0 0 0 0 0   0 0 0 0 0  0 0 0 0 0" type="matrix" in="shadowBlurOuter1"></feColorMatrix>
        </filter>
        <linearGradient x1="97.5797412%" y1="50%" x2="0%" y2="50%" id="linearGradient-3">
            <stop stop-color="#C1985C" offset="0%"></stop>
            <stop stop-color="#EDE4AA" offset="48.2794436%"></stop>
            <stop stop-color="#A8863C" offset="100%"></stop>
        </linearGradient>
        <path d="M96.3013729,7.62417628 L99.8177756,14.7716561 C100.527225,16.2259052 101.205829,17.6492129 101.946125,19.0106377 L102.007816,19.0106377 C102.840648,17.5563885 103.611789,15.947432 104.38293,14.369417 L107.28242,8.45959603 C108.670474,5.64392215 109.564997,3.9421412 109.626688,2.51883356 C110.67544,2.61165796 111.323198,2.61165796 111.940111,2.61165796 C112.711252,2.61165796 113.729158,2.58071652 114.685373,2.51883356 C114.870447,2.64259947 114.870447,3.16860446 114.716219,3.29237036 L114.06846,3.35425325 C112.125185,3.53990211 111.87842,4.12779005 111.909266,6.29369304 C111.970957,9.57348897 112.001803,15.2976611 112.248568,19.753233 C112.341105,21.3003065 112.310259,22.1357262 113.760004,22.2594921 L114.747064,22.3523165 C114.932139,22.5379653 114.901293,23.0020874 114.685373,23.1258533 C113.420702,23.0639703 112.156031,23.0330289 111.045588,23.0330289 C109.96599,23.0330289 108.577937,23.0639703 107.313266,23.1258533 C107.097346,22.9711459 107.066501,22.5379653 107.251574,22.3523165 L108.146098,22.2594921 C109.657534,22.1047847 109.657534,21.6097212 109.657534,19.6294671 L109.564997,6.72687364 L109.503306,6.72687364 C109.287386,7.06722978 108.115252,9.54254747 107.498339,10.7492649 L104.753078,16.1640223 C103.365024,18.8868718 101.97697,21.79537 101.421748,23.2186777 C101.360057,23.3115021 101.236675,23.3424436 101.113293,23.3424436 C101.051601,23.3424436 100.897373,23.3115021 100.835682,23.2186777 C100.311306,21.5787798 98.8307151,18.5465156 98.1212654,17.0303835 L95.345158,11.0586796 C94.6973995,9.63537192 94.0496411,8.02641544 93.371037,6.60310774 L93.3093458,6.60310774 C93.1859629,8.52147892 93.0934261,10.3160843 93.0008894,12.1106896 C92.9083526,13.9981193 92.7849697,16.7519102 92.7849697,19.3819353 C92.7849697,21.6716041 92.9700438,22.1666677 94.1730234,22.2594921 L95.345158,22.3523165 C95.5610771,22.5379653 95.5302315,23.0330289 95.3143124,23.1258533 C94.2655608,23.0639703 93.0625805,23.0330289 91.8904465,23.0330289 C90.903386,23.0330289 89.7929432,23.0639703 88.7441915,23.1258533 C88.5591174,22.9711459 88.4974262,22.5070239 88.6824997,22.3523165 L89.3611038,22.2594921 C90.6566207,22.0738433 91.0884595,21.8881944 91.2735336,19.7222915 C91.4586071,17.6801544 91.6128357,15.9783735 91.7979092,12.9151679 C91.9521377,10.3470257 92.07552,7.71700068 92.1372112,6.01521979 C92.198903,4.0659071 91.9521377,3.60178506 90.0705534,3.35425325 L89.5770235,3.29237036 C89.4227956,3.10672151 89.4536411,2.64259947 89.7004058,2.51883356 C90.6257752,2.58071652 91.3660704,2.61165796 92.1372112,2.61165796 C92.8466608,2.61165796 93.6794934,2.61165796 94.6973995,2.51883356 C94.5740172,3.72555096 95.345158,5.64392215 96.3013729,7.62417628 Z" id="path-4"></path>
        <filter x="-132.4%" y="-134.5%" width="365.1%" height="435.6%" filterUnits="objectBoundingBox" id="filter-5">
            <feOffset dx="0" dy="7" in="SourceAlpha" result="shadowOffsetOuter1"></feOffset>
            <feGaussianBlur stdDeviation="10.5" in="shadowOffsetOuter1" result="shadowBlurOuter1"></feGaussianBlur>
            <feColorMatrix values="0 0 0 0 0   0 0 0 0 0   0 0 0 0 0  0 0 0 0 0" type="matrix" in="shadowBlurOuter1"></feColorMatrix>
        </filter>
        <linearGradient x1="97.5797412%" y1="50%" x2="0%" y2="50%" id="linearGradient-6">
            <stop stop-color="#C1985C" offset="0%"></stop>
            <stop stop-color="#EDE4AA" offset="48.2794436%"></stop>
            <stop stop-color="#A8863C" offset="100%"></stop>
        </linearGradient>
        <path d="M122.859468,10.4089087 C126.314179,10.4089087 129.121132,13.0079922 129.121132,16.8137932 C129.121132,20.681477 126.468407,23.4662095 122.612702,23.4662095 C119.065454,23.4662095 116.289347,20.9599503 116.289347,17.0922664 C116.289347,13.1936411 119.219682,10.4089087 122.859468,10.4089087 Z" id="path-7"></path>
        <filter x="-272.8%" y="-214.4%" width="645.5%" height="636.1%" filterUnits="objectBoundingBox" id="filter-8">
            <feOffset dx="0" dy="7" in="SourceAlpha" result="shadowOffsetOuter1"></feOffset>
            <feGaussianBlur stdDeviation="10.5" in="shadowOffsetOuter1" result="shadowBlurOuter1"></feGaussianBlur>
            <feColorMatrix values="0 0 0 0 0   0 0 0 0 0   0 0 0 0 0  0 0 0 0 0" type="matrix" in="shadowBlurOuter1"></feColorMatrix>
        </filter>
        <linearGradient x1="97.5797412%" y1="50%" x2="0%" y2="50%" id="linearGradient-9">
            <stop stop-color="#C1985C" offset="0%"></stop>
            <stop stop-color="#EDE4AA" offset="48.2794436%"></stop>
            <stop stop-color="#A8863C" offset="100%"></stop>
        </linearGradient>
        <path d="M133.223602,19.5675841 L133.223602,14.1528267 C133.223602,12.9461093 133.223602,12.791402 132.39077,12.2344554 L132.113159,12.0488067 C131.989776,11.9250408 131.989776,11.5846846 132.144005,11.4918602 C132.853454,11.2443284 134.611656,10.4398502 135.228569,9.97572806 C135.351951,9.97572806 135.50618,10.037611 135.567871,10.1923184 C135.50618,10.9039722 135.50618,11.3680943 135.50618,11.6465675 C135.50618,11.8322164 135.629562,11.9869237 135.845482,11.9869237 C137.140998,11.1824455 138.590743,10.4089087 140.163871,10.4089087 C142.724059,10.4089087 143.772811,12.1725726 143.772811,14.2456511 L143.772811,19.5675841 C143.772811,21.79537 143.834502,22.1047847 144.944945,22.2594921 L145.623549,22.3523165 C145.839468,22.5070239 145.777777,23.0330289 145.561858,23.1258533 C144.636488,23.0639703 143.741965,23.0330289 142.662367,23.0330289 C141.551924,23.0330289 140.626555,23.0639703 139.793723,23.1258533 C139.577803,23.0330289 139.516112,22.5070239 139.732032,22.3523165 L140.318099,22.2594921 C141.459388,22.0738433 141.490233,21.79537 141.490233,19.5675841 L141.490233,14.9573049 C141.490233,13.1936411 140.688247,11.8940993 138.590743,11.8940993 C137.418609,11.8940993 136.400703,12.3891629 135.968864,12.9770508 C135.567871,13.5030558 135.50618,13.9362364 135.50618,14.833539 L135.50618,19.5675841 C135.50618,21.79537 135.567871,22.0738433 136.678314,22.2594921 L137.233535,22.3523165 C137.449454,22.5070239 137.387763,23.0330289 137.171843,23.1258533 C136.339011,23.0639703 135.444488,23.0330289 134.36489,23.0330289 C133.254448,23.0330289 132.329078,23.0639703 131.465401,23.1258533 C131.249481,23.0330289 131.18779,22.5070239 131.40371,22.3523165 L132.051468,22.2594921 C133.192756,22.1047847 133.223602,21.79537 133.223602,19.5675841 Z" id="path-10"></path>
        <filter x="-240.2%" y="-212.9%" width="580.9%" height="632.3%" filterUnits="objectBoundingBox" id="filter-11">
            <feOffset dx="0" dy="7" in="SourceAlpha" result="shadowOffsetOuter1"></feOffset>
            <feGaussianBlur stdDeviation="10.5" in="shadowOffsetOuter1" result="shadowBlurOuter1"></feGaussianBlur>
            <feColorMatrix values="0 0 0 0 0   0 0 0 0 0   0 0 0 0 0  0 0 0 0 0" type="matrix" in="shadowBlurOuter1"></feColorMatrix>
        </filter>
        <linearGradient x1="97.5797412%" y1="50%" x2="0%" y2="50%" id="linearGradient-12">
            <stop stop-color="#C1985C" offset="0%"></stop>
            <stop stop-color="#EDE4AA" offset="48.2794436%"></stop>
            <stop stop-color="#A8863C" offset="100%"></stop>
        </linearGradient>
        <path d="M156.111066,15.1120123 L150.404623,15.1120123 C149.602636,15.1120123 149.571791,15.1738952 149.571791,15.947432 C149.571791,19.0725206 151.391683,21.7334871 154.692166,21.7334871 C155.710072,21.7334871 156.57375,21.4240724 157.529965,20.217355 C157.838422,20.1245306 158.054341,20.3101794 158.085186,20.5886527 C157.06728,22.6926727 154.846395,23.4662095 153.242421,23.4662095 C151.237455,23.4662095 149.664327,22.5998483 148.769804,21.4240724 C147.844434,20.217355 147.474287,18.7631059 147.474287,17.4016811 C147.474287,13.5958802 149.972784,10.4089087 153.67426,10.4089087 C156.326985,10.4089087 158.054341,12.2344554 158.054341,14.0909437 C158.054341,14.5241243 157.99265,14.7716561 157.930959,14.895422 C157.838422,15.0810708 157.406582,15.1120123 156.111066,15.1120123 Z" id="path-13"></path>
        <filter x="-329.8%" y="-214.4%" width="759.4%" height="636.1%" filterUnits="objectBoundingBox" id="filter-14">
            <feOffset dx="0" dy="7" in="SourceAlpha" result="shadowOffsetOuter1"></feOffset>
            <feGaussianBlur stdDeviation="10.5" in="shadowOffsetOuter1" result="shadowBlurOuter1"></feGaussianBlur>
            <feColorMatrix values="0 0 0 0 0   0 0 0 0 0   0 0 0 0 0  0 0 0 0 0" type="matrix" in="shadowBlurOuter1"></feColorMatrix>
        </filter>
        <linearGradient x1="97.5797412%" y1="50%" x2="0%" y2="50%" id="linearGradient-15">
            <stop stop-color="#C1985C" offset="0%"></stop>
            <stop stop-color="#EDE4AA" offset="48.2794436%"></stop>
            <stop stop-color="#A8863C" offset="100%"></stop>
        </linearGradient>
        <path d="M160.707066,30.7374552 C159.812542,30.7374552 159.349858,30.1805087 159.349858,29.4069719 C159.349858,28.5715522 159.90508,28.1693131 160.583684,28.1693131 L161.16975,28.1693131 C161.663281,28.1693131 161.971737,27.9527228 162.187656,27.6123666 C163.08218,26.2200004 163.699093,24.9204586 163.976703,24.1778633 C164.069241,23.9303315 164.28516,23.2805606 164.28516,22.84738 C164.28516,22.2285506 164.161777,21.857253 163.760784,20.7124186 L161.354824,14.0909437 C160.830448,12.6366946 160.614529,11.8940993 159.534931,11.677509 L158.763791,11.5228017 C158.578717,11.3680943 158.609563,10.8420893 158.856328,10.7492649 C159.843388,10.8111478 160.768757,10.8420893 161.786663,10.8420893 C162.619495,10.8420893 163.483173,10.8111478 164.470234,10.7492649 C164.716999,10.8420893 164.747845,11.3680943 164.531925,11.5228017 L163.760784,11.677509 C163.328946,11.7703334 163.08218,11.8631578 163.08218,12.0797481 C163.08218,12.4510457 163.79163,14.4622414 163.976703,14.9882464 L164.963764,17.8348617 C165.148838,18.3299253 165.734905,19.9698233 165.858288,20.0317062 C165.950824,19.9698233 166.444355,19.0106377 166.999576,17.7420373 L168.048328,15.2976611 C168.726932,13.6887046 169.127925,12.5438702 169.127925,12.203514 C169.127925,11.9869237 168.942852,11.7703334 168.38763,11.677509 L167.431415,11.5228017 C167.215496,11.3680943 167.246341,10.8420893 167.493107,10.7492649 C168.480167,10.8111478 169.405536,10.8420893 170.207523,10.8420893 C170.978664,10.8420893 171.688113,10.8111478 172.551791,10.7492649 C172.798556,10.8730308 172.829402,11.3371528 172.613483,11.5228017 L172.089107,11.6156261 C171.0712,11.8012749 170.515979,12.6985776 169.467227,14.895422 L167.739871,18.4536912 C166.721965,20.5267697 164.192623,25.9105857 162.681187,29.2832061 C162.156811,30.4589819 161.416516,30.7374552 160.707066,30.7374552 Z" id="path-16"></path>
        <filter x="-247.2%" y="-140.1%" width="593.7%" height="450.2%" filterUnits="objectBoundingBox" id="filter-17">
            <feOffset dx="0" dy="7" in="SourceAlpha" result="shadowOffsetOuter1"></feOffset>
            <feGaussianBlur stdDeviation="10.5" in="shadowOffsetOuter1" result="shadowBlurOuter1"></feGaussianBlur>
            <feColorMatrix values="0 0 0 0 0   0 0 0 0 0   0 0 0 0 0  0 0 0 0 0" type="matrix" in="shadowBlurOuter1"></feColorMatrix>
        </filter>
    </defs>
    <g id="🌀-✅--Withdraw" stroke="none" stroke-width="1" fill="none" fill-rule="evenodd">
        <g id="ba_withdraw" transform="translate(-1295.000000, -534.000000)">
            <g id="payments" transform="translate(699.000000, 413.000000)">
                <g id="item" transform="translate(577.000000, 110.000000)">
                    <g id="Group-5">
                        <g id="logo-perfectmoney" transform="translate(19.000000, 11.000000)">
                            <g id="Perfect-Money" fill-rule="nonzero">
                                <use fill="black" fill-opacity="1" filter="url(#filter-2)" xlink:href="#path-1"></use>
                                <use fill="#31302C" xlink:href="#path-1"></use>
                            </g>
                            <g id="Perfect-Money-path" fill-rule="nonzero">
                                <use fill="black" fill-opacity="1" filter="url(#filter-5)" xlink:href="#path-4"></use>
                                <use fill="url(#linearGradient-3)" xlink:href="#path-4"></use>
                            </g>
                            <g id="Perfect-Money-path" fill-rule="nonzero">
                                <use fill="black" fill-opacity="1" filter="url(#filter-8)" xlink:href="#path-7"></use>
                                <use fill="url(#linearGradient-6)" xlink:href="#path-7"></use>
                            </g>
                            <path d="M126.468407,17.3088567 C126.468407,14.6788317 125.419655,11.3371528 122.48932,11.3371528 C120.453508,11.3371528 118.942071,13.2864655 118.942071,16.6900273 C118.942071,19.5057012 120.206742,22.5379653 122.921159,22.5379653 C125.635575,22.5379653 126.468407,19.69135 126.468407,17.3088567 Z" id="Perfect-Money-path" fill="#FFFFFF"></path>
                            <g id="Perfect-Money-path" fill-rule="nonzero">
                                <use fill="black" fill-opacity="1" filter="url(#filter-11)" xlink:href="#path-10"></use>
                                <use fill="url(#linearGradient-9)" xlink:href="#path-10"></use>
                            </g>
                            <g id="Perfect-Money-path" fill-rule="nonzero">
                                <use fill="black" fill-opacity="1" filter="url(#filter-14)" xlink:href="#path-13"></use>
                                <use fill="url(#linearGradient-12)" xlink:href="#path-13"></use>
                            </g>
                            <path d="M150.127012,14.1837681 L152.317052,14.1837681 C154.599629,14.1837681 155.278233,14.0600022 155.524999,13.8743534 C155.617536,13.8124705 155.710072,13.6887046 155.710072,13.2864655 C155.710072,12.4201043 155.124006,11.3371528 153.334958,11.3371528 C151.515066,11.3371528 149.941938,13.0079922 149.911092,14.0290608 C149.911092,14.0909437 149.911092,14.1837681 150.127012,14.1837681 Z" id="Perfect-Money-path" fill="#FFFFFF"></path>
                            <g id="Perfect-Money-path" fill-rule="nonzero">
                                <use fill="black" fill-opacity="1" filter="url(#filter-17)" xlink:href="#path-16"></use>
                                <use fill="url(#linearGradient-15)" xlink:href="#path-16"></use>
                            </g>
                        </g>
                    </g>
                </g>
            </g>
        </g>
    </g>
</svg>