<?xml version="1.0" encoding="UTF-8"?>
<svg width="155px" height="29px" viewBox="0 0 155 29" version="1.1" xmlns="http://www.w3.org/2000/svg" xmlns:xlink="http://www.w3.org/1999/xlink">
    <!-- Generator: Sketch 53.2 (72643) - https://sketchapp.com -->
    <title>logo-advcash</title>
    <desc>Created with Sketch.</desc>
    <defs>
        <linearGradient x1="97.5797412%" y1="50%" x2="0%" y2="50%" id="linearGradient-1">
            <stop stop-color="#C1985C" offset="0%"></stop>
            <stop stop-color="#EDE4AA" offset="48.2794436%"></stop>
            <stop stop-color="#A8863C" offset="100%"></stop>
        </linearGradient>
        <path d="M70.015464,25.8813187 C68.8357122,26.6577582 67.3525955,27.1303736 65.195335,27.1303736 C60.9482283,27.1303736 57.0719007,24.0921319 57.0719007,17.6105495 C57.0719007,11.128967 60.9482283,8.12448352 65.195335,8.12448352 C67.3525955,8.12448352 68.8694194,8.5970989 70.015464,9.37353846 L68.5660546,12.6818462 C67.8919107,12.1754725 66.914402,11.9054066 65.8694789,11.9054066 C63.6110968,11.9054066 61.8246154,13.7958681 61.8246154,17.5767912 C61.8246154,21.3577143 63.6785112,23.2481758 65.8694789,23.2481758 C66.914402,23.2481758 67.8919107,22.9443516 68.5660546,22.437978 L70.015464,25.8813187 Z M87.2735484,25.8138022 C85.9252605,26.5227253 83.1949777,27.1303736 80.4646948,27.1303736 C75.004129,27.1303736 72.2738462,24.9698462 72.2738462,21.2564396 C72.2738462,16.293978 77.4310471,15.314989 82.9253201,15.0111648 L82.9253201,14.0659341 C82.9253201,12.1754725 81.6107395,11.4665495 79.5208933,11.4665495 C77.8018263,11.4665495 75.7119801,12.0066813 74.4311067,12.5468132 L73.285062,9.44105495 C74.8018859,8.79964835 77.39734,8.12448352 80.0265012,8.12448352 C84.6780943,8.12448352 87.2735484,9.94742857 87.2735484,14.6060659 L87.2735484,25.8138022 Z M82.9253201,23.4844835 L82.9253201,17.9481319 C79.5546005,18.1169231 76.5883672,18.4207473 76.5883672,21.1551648 C76.5883672,22.8768352 77.9366551,23.8558242 80.329866,23.8558242 C81.3073747,23.8558242 82.4534194,23.687033 82.9253201,23.4844835 Z M103.587831,21.4927473 C103.587831,24.9023297 101.059792,27.1303736 96.2059553,27.1303736 C93.9475732,27.1303736 91.6891911,26.5227253 90.3409032,25.8138022 L91.8240199,22.3029451 C92.7341141,22.8768352 94.7565459,23.4844835 96.0711266,23.4844835 C97.7227792,23.4844835 98.8014094,22.708044 98.8014094,21.4927473 C98.8014094,20.1424176 97.6216576,19.5685275 96.0037122,18.9946374 C93.7116228,18.1506813 90.812804,17.0704176 90.812804,13.492044 C90.812804,10.285011 93.2397221,8.12448352 97.4868288,8.12448352 C99.8126253,8.12448352 101.700228,8.69837363 103.082223,9.44105495 L101.666521,12.5805714 C100.891256,12.107956 99.2733102,11.5340659 98.0598511,11.5340659 C96.4419057,11.5340659 95.4981042,12.3442637 95.4981042,13.4245275 C95.4981042,14.8086154 96.6778561,15.3487473 98.2620943,15.9226374 C100.655305,16.8003516 103.587831,17.8130989 103.587831,21.4927473 Z M122.093082,26.7252747 L117.475196,26.7252747 L117.475196,14.8423736 C117.475196,12.8506374 116.261737,11.8378901 114.171891,11.8378901 C113.261797,11.8378901 112.250581,12.107956 111.54273,12.5130549 L111.54273,26.7252747 L106.958551,26.7252747 L106.958551,0.225054945 L111.54273,0.225054945 L111.54273,9.06971429 C112.62136,8.56334066 114.003355,8.22575824 115.351643,8.22575824 C119.632457,8.22575824 122.093082,10.3862857 122.093082,14.3697582 L122.093082,26.7252747 Z" id="path-2"></path>
        <filter x="-46.1%" y="-89.2%" width="192.3%" height="323.0%" filterUnits="objectBoundingBox" id="filter-3">
            <feOffset dx="0" dy="6" in="SourceAlpha" result="shadowOffsetOuter1"></feOffset>
            <feGaussianBlur stdDeviation="9" in="shadowOffsetOuter1" result="shadowBlurOuter1"></feGaussianBlur>
            <feColorMatrix values="0 0 0 0 0   0 0 0 0 0   0 0 0 0 0  0 0 0 0 0" type="matrix" in="shadowBlurOuter1"></feColorMatrix>
        </filter>
        <linearGradient x1="97.5797412%" y1="50%" x2="0%" y2="50%" id="linearGradient-4">
            <stop stop-color="#C1985C" offset="0%"></stop>
            <stop stop-color="#EDE4AA" offset="48.2794436%"></stop>
            <stop stop-color="#A8863C" offset="100%"></stop>
        </linearGradient>
        <polygon id="path-5" points="2.4179599 27.2102117 14.6888433 3.55271368e-15 27.0263967 27.2102117 21.7191045 27.2102117 14.7221783 11.6713825 7.43767016 27.2102117"></polygon>
        <filter x="-121.9%" y="-88.2%" width="343.8%" height="320.5%" filterUnits="objectBoundingBox" id="filter-6">
            <feOffset dx="0" dy="6" in="SourceAlpha" result="shadowOffsetOuter1"></feOffset>
            <feGaussianBlur stdDeviation="9" in="shadowOffsetOuter1" result="shadowBlurOuter1"></feGaussianBlur>
            <feColorMatrix values="0 0 0 0 0   0 0 0 0 0   0 0 0 0 0  0 0 0 0 0" type="matrix" in="shadowBlurOuter1"></feColorMatrix>
        </filter>
    </defs>
    <g id="🌀-✅--Withdraw" stroke="none" stroke-width="1" fill="none" fill-rule="evenodd">
        <g id="ba_withdraw" transform="translate(-720.000000, -424.000000)">
            <g id="payments" transform="translate(699.000000, 413.000000)">
                <g id="item">
                    <g id="Group-5">
                        <g id="Group-10">
                            <g id="logo-advcash" transform="translate(21.000000, 11.000000)">
                                <g id="Group-7" transform="translate(0.000000, 0.318367)">
                                    <path d="M15.510928,25.8138022 C14.1626402,26.5227253 11.4323573,27.1303736 8.70207444,27.1303736 C3.24150868,27.1303736 0.511225806,24.9698462 0.511225806,21.2564396 C0.511225806,16.293978 5.6684268,15.314989 11.1626998,15.0111648 L11.1626998,14.0659341 C11.1626998,12.1754725 9.84811911,11.4665495 7.75827295,11.4665495 C6.03920596,11.4665495 3.9493598,12.0066813 2.66848635,12.5468132 L1.52244169,9.44105495 C3.03926551,8.79964835 5.6347196,8.12448352 8.26388089,8.12448352 C12.9154739,8.12448352 15.510928,9.94742857 15.510928,14.6060659 L15.510928,25.8138022 Z M11.1626998,23.4844835 L11.1626998,17.9481319 C7.79198015,18.1169231 4.8257469,18.4207473 4.8257469,21.1551648 C4.8257469,22.8768352 6.17403474,23.8558242 8.56724566,23.8558242 C9.54475434,23.8558242 10.690799,23.687033 11.1626998,23.4844835 Z" id="Combined-Shape" fill="#31302C"></path>
                                    <path d="M34.6566154,25.8138022 C33.3420347,26.5227253 30.7802878,27.1303736 28.0162978,27.1303736 C22.1512457,27.1303736 18.949062,23.6532747 18.949062,17.7455824 C18.949062,12.1417143 21.8815881,8.36079121 27.4432754,8.36079121 C28.4207841,8.36079121 29.4657072,8.52958242 30.0387295,8.73213187 L30.0387295,0.225054945 L34.6566154,0.225054945 L34.6566154,25.8138022 Z M30.0387295,23.1469011 L30.0387295,12.1754725 C29.6679504,12.0066813 28.7241489,11.8378901 27.9151762,11.8378901 C25.0500645,11.8378901 23.5332407,14.2347253 23.5332407,17.6780659 C23.5332407,21.3577143 25.0837717,23.5182418 27.9151762,23.5182418 C28.7241489,23.5182418 29.6679504,23.3494505 30.0387295,23.1469011 Z" id="Combined-Shape" fill="#31302C"></path>
                                    <path d="M55.6561985,8.52958242 L49.1170025,26.7252747 L43.7912655,26.7252747 L37.2183623,8.52958242 L42.4092705,8.52958242 L45.7462829,19.8723516 C46.1507692,21.2564396 46.4204268,22.8093187 46.4204268,22.8093187 L46.4878412,22.8093187 C46.4878412,22.8093187 46.7574988,21.2564396 47.1619851,19.8723516 L50.4989975,8.52958242 L55.6561985,8.52958242 Z" id="Path" fill="#31302C"></path>
                                    <g id="Combined-Shape" fill-rule="nonzero">
                                        <use fill="black" fill-opacity="1" filter="url(#filter-3)" xlink:href="#path-2"></use>
                                        <use fill="url(#linearGradient-1)" xlink:href="#path-2"></use>
                                    </g>
                                </g>
                                <g id="Group-9" transform="translate(126.600000, 1.200000)" fill-rule="nonzero">
                                    <g id="Group-8" transform="translate(0.274629, 0.293878)">
                                        <g id="Group-3" transform="translate(-0.000000, 0.000000)">
                                            <polygon id="Path-3-Copy" fill="#31302C" transform="translate(19.989473, 11.416477) scale(-1, 1) translate(-19.989473, -11.416477) " points="12.0897995 9.75238095 26.3568186 9.75238095 27.8891475 13.0805727 13.8044797 13.0805727"></polygon>
                                            <polygon id="Path-3-Copy-2" fill="#31302C" transform="translate(13.944574, 16.292667) scale(-1, 1) translate(-13.944574, -16.292667) " points="2.4179599 14.6285714 25.4711876 14.6285714 23.2827627 17.9567632 4.68238661 17.9567632"></polygon>
                                            <g id="Path-2">
                                                <use fill="black" fill-opacity="1" filter="url(#filter-6)" xlink:href="#path-5"></use>
                                                <use fill="url(#linearGradient-4)" xlink:href="#path-5"></use>
                                            </g>
                                            <polygon id="Path-3" fill="#31302C" points="-3.19744231e-14 9.75238095 13.9740373 9.75238095 15.2889097 13.0805727 1.71468027 13.0805727"></polygon>
                                        </g>
                                    </g>
                                </g>
                            </g>
                        </g>
                    </g>
                </g>
            </g>
        </g>
    </g>
</svg>