<svg xmlns="http://www.w3.org/2000/svg" viewBox="0 0 96.53 101.55"><defs><style>.a{fill:#aa9a59;}</style></defs><title>Ресурс 3</title><path class="a" d="M94.64,1.89H1.9V55.13c0,.15,0,.56,0,.83,1.49,15.23,13,26.12,24.19,33.22a98.54,98.54,0,0,0,20.11,9.71c1.13.4,1.82.61,1.83.61l.26.08A98.29,98.29,0,0,0,71.14,88.75C82.56,81.5,94.08,70.6,94.64,56c0-.29,0-.72,0-.82ZM96.53,0V55.13c0,.11,0,.58,0,.9-.6,15.64-12.85,27-24.37,34.3a99,99,0,0,1-23.87,11.21l-.73-.22a44.11,44.11,0,0,1-7-2.59,102.91,102.91,0,0,1-15.45-8C13.74,83.59,1.59,72.27,0,56.15c0-.33,0-.83,0-1V0Z"/><path class="a" d="M47.56,95a94.37,94.37,0,0,1-19.26-9.3C17.44,78.79,7.32,68.79,6,55.52L6,6H90.5V55.15c-.48,12.45-10.35,23-21.57,30.09a102.79,102.79,0,0,1-20.67,10Zm.62-1.78a97.49,97.49,0,0,0,19.73-9.55c11.05-7,20.23-17,20.69-28.52V7.92H7.93l0,47.51C9.13,67.79,18.61,77.3,29.31,84.09A92.48,92.48,0,0,0,48.18,93.2Z"/><path class="a" d="M34.57,69V67.13h3.54v7.29h1.39v1.92H34.46V74.42h1.37V69Z"/><path class="a" d="M41.94,76.43l2-3.33a2.84,2.84,0,0,1-3.21-2.95c0-2.17,1.47-3.16,3.5-3.16s3.54,1,3.54,3.16A3.17,3.17,0,0,1,47.24,72l-2.68,4.46ZM43,70.16a1.1,1.1,0,0,0,1.16,1.16,1.05,1.05,0,0,0,1.16-1.16A1.09,1.09,0,0,0,44.19,69,1.11,1.11,0,0,0,43,70.16Z"/><path class="a" d="M50,76.43l2-3.33a2.84,2.84,0,0,1-3.21-2.95C48.7,68,50.18,67,52.2,67s3.54,1,3.54,3.16A3.17,3.17,0,0,1,55.25,72l-2.68,4.46ZM51,70.16a1.1,1.1,0,0,0,1.16,1.16,1.05,1.05,0,0,0,1.16-1.16A1.09,1.09,0,0,0,52.2,69,1.11,1.11,0,0,0,51,70.16Z"/><path class="a" d="M58,76.43l2-3.33a2.84,2.84,0,0,1-3.21-2.95c0-2.17,1.47-3.16,3.5-3.16s3.54,1,3.54,3.16A3.17,3.17,0,0,1,63.27,72l-2.68,4.46Zm1.09-6.27a1.1,1.1,0,0,0,1.16,1.16,1.05,1.05,0,0,0,1.16-1.16A1.09,1.09,0,0,0,60.22,69,1.11,1.11,0,0,0,59.06,70.16Z"/><path class="a" d="M62,41.35V51l.26-.31a14.25,14.25,0,0,0,3.65-8.55V37.61l-.26.33A17.09,17.09,0,0,1,62,41.35Zm3.91-25.07H59.58l.46.24a17.7,17.7,0,0,1,5.61,4.61l.26.33ZM36.69,39.38l0,14.45a40.83,40.83,0,0,0,9.91,6.48l.2.09V45.06h-4V55.21l-2.19-1.59V42.67h10.7c8.8,0,14.89-5.87,14.89-13.13S60.18,16.41,51.32,16.41H36.69v20.5L51.37,37c5,0,8.24-3.32,8.24-7.45s-3.26-7.45-8.31-7.45H42.87v9h4V25.37H51c2.76.07,4.67,1.92,4.67,4.17s-2,4.15-4.91,4.17H40.67v-14h9.87l.83,0c6.65,0,10.93,4.42,10.93,9.85S58,39.4,51.38,39.4H36.69Zm12.94,5.67V60.4l.2-.09a47.27,47.27,0,0,0,8.23-5c.58-.41,1.14-.84,1.73-1.32V43.08l-.21.09a21.67,21.67,0,0,1-3.78,1.27v9.17l-2.19,1.59L53.46,45c-.69.06-1.39.09-2.1.09ZM34.53,16.28h-3.9V42.22a15.84,15.84,0,0,0,3.65,8.3l.26.32ZM28.28,14.4h40V42.15c.25,9.88-10.55,17.47-20,21-5.35-2-18.74-8.69-20-20.89Z"/><path class="a" d="M40.48,80.68H39a1.3,1.3,0,0,0,0,2.6H57.53a1.3,1.3,0,0,0,0-2.6h-17Z"/></svg>