<svg xmlns="http://www.w3.org/2000/svg" viewBox="0 0 96.53 101.55"><defs><style>.a{fill:#aa9a59;}</style></defs><title>Ресурс 5</title><path class="a" d="M94.64,1.89H1.9V55.13c0,.15,0,.56,0,.83,1.49,15.23,13,26.12,24.19,33.22a98.54,98.54,0,0,0,20.11,9.71c1.13.4,1.82.61,1.83.61l.26.08A98.29,98.29,0,0,0,71.14,88.75C82.56,81.5,94.08,70.6,94.64,56c0-.29,0-.72,0-.82ZM96.53,0V55.13c0,.11,0,.58,0,.9-.6,15.64-12.85,27-24.37,34.3a99,99,0,0,1-23.87,11.21l-.73-.22a44,44,0,0,1-7-2.59,102.91,102.91,0,0,1-15.45-8C13.74,83.59,1.59,72.27,0,56.15c0-.33,0-.83,0-1V0Z"/><path class="a" d="M47.56,95a94.36,94.36,0,0,1-19.26-9.3C17.44,78.79,7.32,68.79,6,55.52L6,6H90.5V55.15c-.48,12.45-10.35,23-21.57,30.09a102.78,102.78,0,0,1-20.67,10Zm.62-1.78a97.49,97.49,0,0,0,19.73-9.55c11.05-7,20.23-17,20.69-28.52V7.92H7.93l0,47.51C9.13,67.79,18.61,77.3,29.31,84.09A92.48,92.48,0,0,0,48.18,93.2Z"/><path class="a" d="M38.21,76.21h-1.5a1.3,1.3,0,0,0,0,2.6H59.79a1.3,1.3,0,0,0,0-2.6H38.21Z"/><path class="a" d="M53.5,14.86l-8.25,0V32.7H43.11l-1-10.33H34.29l-1,10.33H17.05V67.26H79.48V21.34ZM37.19,65H19.07V39.94H37.19Zm0-27.32H19.07v-2.8H37.19Zm1-5H35.31l.76-8.11h4.26l.76,8.11H38.2ZM57.33,65H39.2V39.94H57.33Zm0-27.32H39.2v-2.8H57.33Zm6,27.32h-4V32.7H47.26V27.39H63.37Zm8.06,0h-6V62.53h6Zm0-5h-6V57.51h6Zm0-5h-6V52.49h6Zm0-5h-6V47.47h6Zm0-5h-6V42.45h6Zm0-5h-6V37.43h6Zm0-5h-6V32.41h6Zm0-5h-6V27.39h6Zm6,35.14h-4V27.39h4Zm0-39.87H47.26V17.06H53.2l24.27,6Z"/><path class="a" d="M21.08,44v6.85h6V44Zm4,4.56h-2V46.32h2Z"/><path class="a" d="M29.14,44v6.85h6V44Zm4,4.56h-2V46.32h2Z"/><path class="a" d="M21.08,53.17V60h6V53.17Zm4,4.56h-2V55.45h2Z"/><path class="a" d="M29.14,53.17V60h6V53.17Zm4,4.56h-2V55.45h2Z"/><path class="a" d="M41.22,44v6.85h6V44Zm4,4.56h-2V46.32h2Z"/><path class="a" d="M49.27,44v6.85h6V44Zm4,4.56h-2V46.32h2Z"/><path class="a" d="M41.22,53.17V60h6V53.17Zm4,4.56h-2V55.45h2Z"/><path class="a" d="M49.27,53.17V60h6V53.17Zm4,4.56h-2V55.45h2Z"/></svg>