<svg xmlns="http://www.w3.org/2000/svg" viewBox="0 0 96.53 101.55"><defs><style>.a{fill:#aa9a59;}</style></defs><title>Ресурс 6</title><path class="a" d="M94.64,1.89H1.9V55.13c0,.15,0,.56,0,.83,1.49,15.23,13,26.12,24.19,33.22a98.54,98.54,0,0,0,20.11,9.71c1.13.4,1.82.61,1.83.61l.26.08A98.29,98.29,0,0,0,71.14,88.75C82.56,81.5,94.08,70.6,94.64,56c0-.29,0-.72,0-.82ZM96.53,0V55.13c0,.11,0,.58,0,.9-.6,15.64-12.85,27-24.37,34.3a99,99,0,0,1-23.87,11.21l-.73-.22a44.13,44.13,0,0,1-7-2.59,102.91,102.91,0,0,1-15.45-8C13.74,83.59,1.59,72.27,0,56.15c0-.33,0-.83,0-1V0Z"/><path class="a" d="M47.56,95a94.36,94.36,0,0,1-19.26-9.3C17.44,78.79,7.32,68.79,6,55.52L6,6H90.5V55.15c-.48,12.45-10.35,23-21.57,30.09a102.78,102.78,0,0,1-20.67,10Zm.62-1.78a97.49,97.49,0,0,0,19.73-9.55c11.05-7,20.23-17,20.69-28.52V7.92H7.93l0,47.51C9.13,67.79,18.61,77.3,29.31,84.09A92.49,92.49,0,0,0,48.18,93.2Z"/><path class="a" d="M38.21,78.76h-1.5a1.3,1.3,0,0,0,0,2.6H59.79a1.3,1.3,0,0,0,0-2.6H38.21Z"/><path class="a" d="M63.55,60a1,1,0,1,1-2,0,1.85,1.85,0,0,0-1.84-1.84,1,1,0,0,1,0-2A3.87,3.87,0,0,1,63.55,60Z"/><path class="a" d="M71.16,17.17V68.55a2.93,2.93,0,0,1-1.1,2.28,1,1,0,0,1-.72,1.45l-2.44.43L64.72,75a1,1,0,0,1-.73.31,1.07,1.07,0,0,1-.88-.51l-1.87-3.29H58.1l-1.88,3.3a1,1,0,0,1-.75.5,1.08,1.08,0,0,1-.85-.3l-2.18-2.26L50,72.28a1,1,0,0,1-.74-.57,1,1,0,0,1-.07-.24H28.28a2.92,2.92,0,0,1-2.91-2.91V17.17a2.92,2.92,0,0,1,2.91-2.91h40A2.92,2.92,0,0,1,71.16,17.17ZM28.28,69.45H50.07l3.12-5.38a7.67,7.67,0,1,1,13,0L69,69a.88.88,0,0,0,.12-.45V17.17a.89.89,0,0,0-.89-.89h-40a.89.89,0,0,0-.89.89V68.55A.89.89,0,0,0,28.28,69.45ZM65.33,60a5.65,5.65,0,1,0-5.65,5.65A5.66,5.66,0,0,0,65.33,60ZM58,67.48a7.66,7.66,0,0,1-3.47-1.78l-2.81,4.83,1.35.24a1,1,0,0,1,.55.29l1.46,1.51Zm2.06,2-.42-.75-.43.75Zm7.46,1.1-2.78-4.83a7.66,7.66,0,0,1-3.47,1.77l2.89,5.1,1.45-1.51a1,1,0,0,1,.55-.29Z"/><path class="a" d="M40.65,28.65a1,1,0,0,1,0-2H55.88a1,1,0,1,1,0,2Z"/><path class="a" d="M61.65,32.39a1,1,0,0,1-1,1H35.9a1,1,0,1,1,0-2H60.64A1,1,0,0,1,61.65,32.39Z"/><path class="a" d="M37.74,40a1,1,0,0,1,1-1h1a1,1,0,0,1,0,2h-1A1,1,0,0,1,37.74,40Z"/><path class="a" d="M37.74,44.77a1,1,0,0,1,1-1h1a1,1,0,0,1,0,2h-1A1,1,0,0,1,37.74,44.77Z"/><path class="a" d="M37.74,49.52a1,1,0,0,1,1-1h1a1,1,0,0,1,0,2h-1A1,1,0,0,1,37.74,49.52Z"/><path class="a" d="M58.79,40a1,1,0,0,1-1,1H43.51a1,1,0,1,1,0-2H57.78A1,1,0,0,1,58.79,40Z"/><path class="a" d="M58.79,44.77a1,1,0,0,1-1,1H43.51a1,1,0,1,1,0-2H57.78A1,1,0,0,1,58.79,44.77Z"/><path class="a" d="M58.79,49.52a1,1,0,0,1-1,1H43.51a1,1,0,1,1,0-2H57.78A1,1,0,0,1,58.79,49.52Z"/><path class="a" d="M35.9,58h8.56a1,1,0,0,1,0,2H35.9a1,1,0,0,1,0-2Z"/><path class="a" d="M49.28,66.65a1,1,0,0,1-1,1H34a1,1,0,0,1-1-1,2.8,2.8,0,0,0-2.79-2.79,1,1,0,0,1-1-1v-40a1,1,0,0,1,1-1A2.8,2.8,0,0,0,33,19.07a1,1,0,0,1,1-1H62.54a1,1,0,0,1,1,1,2.8,2.8,0,0,0,2.79,2.79,1,1,0,0,1,1,1v29.5a1,1,0,0,1-2,0V23.78a4.83,4.83,0,0,1-3.7-3.7H34.9a4.83,4.83,0,0,1-3.7,3.7V61.94a4.83,4.83,0,0,1,3.7,3.7H48.27A1,1,0,0,1,49.28,66.65Z"/></svg>