<svg xmlns="http://www.w3.org/2000/svg" viewBox="0 0 96.53 101.55"><defs><style>.a{fill:#aa9a59;}</style></defs><title>Ресурс 7</title><path class="a" d="M75.31,44.63A18.91,18.91,0,0,1,43.16,64.55H22.37a4,4,0,0,1-4-4v-2a1,1,0,0,1,1-1h3V17.74a4,4,0,0,1,4-4H63.21a4,4,0,0,1,4,4v5a1,1,0,0,1-1,1h-5v3h3a3,3,0,0,1,0,6v3.67A18.91,18.91,0,0,1,75.31,44.63ZM61.21,17.74v4h4v-4a2,2,0,1,0-4,0Zm3,11h-10a1,1,0,1,0,0,2h10a1,1,0,1,0,0-2Zm-39.84-11V57.58h16.2A18.75,18.75,0,0,1,54.24,36.34V32.68a3,3,0,1,1,0-6h5v-9a3.94,3.94,0,0,1,.55-2H26.35A2,2,0,0,0,24.36,17.74Zm-2,44.82H42.08a18.76,18.76,0,0,1-1.1-3H20.38v1A2,2,0,0,0,22.37,62.56Zm36.85,9A16.93,16.93,0,0,0,63,38.09a1,1,0,0,1-.77-1V32.68h-6v4.44a1,1,0,0,1-.77,1,16.93,16.93,0,0,0,3.76,33.43Zm-5-50.8h2v2h-2Zm-8.73,2h2.75v2h-2v4a1,1,0,0,1-.55.9L42.29,31.3v2.37h-2V31.3l-3-1.49-3,1.49v2.37h-2V31.3l-3.22-1.61H26.35v-2h2v-4a1,1,0,0,1,.55-.89l3.43-1.72V18.73h2V21.1l3,1.49,3-1.49V18.73h2V21.1Zm-9.2,5.36V24.33l-3-1.49-3,1.49v3.75l3,1.49Zm8,0V24.33l-3-1.49-3,1.49v3.75l3,1.49ZM27.35,40.64H42.29v2H27.35Zm0,4h12v2h-12Zm0,4h10v2h-10Zm6-12h9v2h-9ZM50.26,20.72h2v2h-2ZM29.34,36.66h2v2h-2Zm23.45,5.56L53.71,44a12,12,0,0,0-5.52,6l-1.84-.77A14,14,0,0,1,52.79,42.22ZM73.12,53.57c0,.4,0,.71,0,1a13.94,13.94,0,0,1-27.89,0c0-.44,0-.88.07-1.31a1,1,0,0,1,.65-.84,5.51,5.51,0,0,1,5.78,1.26,3.5,3.5,0,0,0,4.94,0l.62-.62a5.49,5.49,0,0,1,7.76,0l.62.62a3.5,3.5,0,0,0,4.94,0l.76-.76a1,1,0,0,1,1.7.63Zm-13.9,13A12,12,0,0,0,71.11,55.87a5.5,5.5,0,0,1-6.8-.77l-.62-.62a3.5,3.5,0,0,0-4.94,0l-.62.62a5.49,5.49,0,0,1-7.76,0,3.5,3.5,0,0,0-3.08-1c0,.14,0,.29,0,.44A12,12,0,0,0,59.22,66.54Zm3-10h2v2h-2Zm-10,3h2v2h-2Zm8,2h2v2h-2ZM57.08,40.81l.3,2a11.9,11.9,0,0,0-1.84.43l-.61-1.89A14,14,0,0,1,57.08,40.81Z"/><path class="a" d="M94.64,1.89H1.9V55.13c0,.15,0,.56,0,.83,1.49,15.23,13,26.12,24.19,33.22a98.54,98.54,0,0,0,20.11,9.71c1.13.4,1.82.61,1.83.61l.26.08A99.28,99.28,0,0,0,71.14,88.75C82.56,81.5,94.08,70.6,94.64,56c0-.29,0-.72,0-.82ZM96.53,0V55.13c0,.11,0,.58,0,.9-.6,15.64-12.85,27-24.37,34.3a99,99,0,0,1-23.87,11.21l-.73-.22a44.12,44.12,0,0,1-7-2.59,102.92,102.92,0,0,1-15.45-8C13.74,83.59,1.59,72.27,0,56.15c0-.33,0-.83,0-1V0Z"/><path class="a" d="M38.22,77.71h-1.5a1.3,1.3,0,0,0,0,2.6H59.81a1.3,1.3,0,0,0,0-2.6H38.22Z"/><path class="a" d="M47.56,95a94.36,94.36,0,0,1-19.26-9.3C17.44,78.79,7.32,68.79,6,55.52L6,6H90.5V55.15c-.48,12.45-10.35,23-21.57,30.09a102.78,102.78,0,0,1-20.67,10Zm.62-1.78a97.49,97.49,0,0,0,19.73-9.55c11.05-7,20.23-17,20.69-28.52V7.92H7.93l0,47.51C9.13,67.79,18.61,77.3,29.31,84.09A92.48,92.48,0,0,0,48.18,93.2Z"/></svg>