<svg xmlns="http://www.w3.org/2000/svg" viewBox="0 0 96.53 101.55"><defs><style>.a{fill:#aa9a59;}</style></defs><title>Ресурс 8</title><path class="a" d="M57.39,21.2a1,1,0,1,1,0,1.91H55.47a1,1,0,1,1,0-1.91ZM32,25.8a5.27,5.27,0,0,1,1.49,3.9l-.12,2.58a5.65,5.65,0,0,1-11.25,0L22,29.71a5.26,5.26,0,0,1,1.49-3.9,5.7,5.7,0,0,1,4.11-1.74h.29A5.7,5.7,0,0,1,32,25.8Zm-.54,6.4,0-.91A4.28,4.28,0,0,1,29,29.55a8.64,8.64,0,0,1-5,1.88l0,.78a3.73,3.73,0,0,0,7.43,0Zm-1.2-4.53a2.26,2.26,0,0,0,1.29,1.6,3.37,3.37,0,0,0-.93-2.15A3.78,3.78,0,0,0,27.86,26h-.29a3.78,3.78,0,0,0-2.72,1.15,3.38,3.38,0,0,0-.95,2.38c3.35-.29,4.54-2.17,4.55-2.19a1,1,0,0,1,1.78.36Zm39.08,21.1a5.27,5.27,0,0,1,1.49,3.9l-.12,2.58a5.65,5.65,0,0,1-11.25,0l-.11-2.58a5.26,5.26,0,0,1,1.49-3.9A5.7,5.7,0,0,1,64.9,47h.3A5.7,5.7,0,0,1,69.31,48.78Zm-.43,3.83a3.38,3.38,0,0,0-1-2.5A3.78,3.78,0,0,0,65.2,49h-.3a3.78,3.78,0,0,0-2.72,1.15,3.38,3.38,0,0,0-1,2.49l.11,2.58a3.73,3.73,0,0,0,7.43,0ZM46.76,27.46a2.65,2.65,0,0,1,.06,3.75L34.67,44.27a1,1,0,0,0-.26.65V60.45a1,1,0,0,1-1,1H22a1,1,0,0,1-1-1V59.33a2.87,2.87,0,0,1-3.83-2.71V43.21A4.79,4.79,0,0,1,22,38.43h9.74a1,1,0,0,0,.68-.28L43.07,27.46A2.65,2.65,0,0,1,46.76,27.46Zm-1.32,2.42a.74.74,0,1,0-1-1.06L33.74,39.5a2.85,2.85,0,0,1-2,.84H22a2.87,2.87,0,0,0-2.87,2.87v13.4a1,1,0,0,0,1.91,0V45.13a1,1,0,0,1,1.91,0V59.49H32.5V44.92a2.87,2.87,0,0,1,.77-2ZM27.71,41.3a1,1,0,0,1,1,1V53.75a1,1,0,0,1-1.91,0V42.26A1,1,0,0,1,27.71,41.3Zm20.53,7.48a5.27,5.27,0,0,1,1.49,3.9l-.11,2.58a5.65,5.65,0,0,1-11.25,0l-.11-2.58a5.27,5.27,0,0,1,1.49-3.9A5.7,5.7,0,0,1,43.84,47h.29A5.7,5.7,0,0,1,48.24,48.78Zm-.42,3.83a3.38,3.38,0,0,0-1-2.5A3.78,3.78,0,0,0,44.13,49h-.29a3.78,3.78,0,0,0-2.72,1.15,3.38,3.38,0,0,0-1,2.49l.11,2.58a3.73,3.73,0,0,0,7.43,0Zm1.12,8.8A4.63,4.63,0,0,1,53.56,66v4a1,1,0,0,1-1.91,0V66a2.71,2.71,0,0,0-2.71-2.71H39A2.71,2.71,0,0,0,36.33,66v4a1,1,0,0,1-1.91,0V66A4.63,4.63,0,0,1,39,61.4ZM70,61.4A4.63,4.63,0,0,1,74.62,66v4a1,1,0,0,1-1.91,0V66A2.71,2.71,0,0,0,70,63.32H60.1A2.71,2.71,0,0,0,57.39,66v4a1,1,0,0,1-1.91,0V66A4.63,4.63,0,0,1,60.1,61.4Zm1.8-47.87a2.85,2.85,0,0,1,2.82,2.87V42.26a2.85,2.85,0,0,1-2.82,2.87H39.13a1,1,0,0,1,0-1.91H71.8a.93.93,0,0,0,.91-1v-23H37.29V30.77a1,1,0,0,1-1.91,0V16.41a2.85,2.85,0,0,1,2.82-2.87Zm.91,3.83v-1a.94.94,0,0,0-.91-1H38.2a.94.94,0,0,0-.91,1v1Zm-2.87,8.38a1,1,0,0,1,1,1V40.34a1,1,0,0,1-1.91,0V26.7A1,1,0,0,1,69.83,25.74Zm-3.83,6a1,1,0,0,1,1,1v7.66a1,1,0,0,1-1.91,0V32.68A1,1,0,0,1,66,31.73Zm-3.83-1.91a1,1,0,0,1,1,1v9.57a1,1,0,1,1-1.91,0V30.77A1,1,0,0,1,62.18,29.81Zm-3.83,5.74a1,1,0,0,1,1,1v3.83a1,1,0,0,1-1.91,0V36.51A1,1,0,0,1,58.35,35.56Zm12-14.2a1,1,0,0,1,.27,1.33L66.8,28.43a1,1,0,0,1-1.37.23l-2.91-2.18-3.32,6.63a1,1,0,0,1-.29.34l-3.83,2.87a1,1,0,1,1-1.15-1.53l3.64-2.74,3.73-7.46a1,1,0,0,1,1.44-.34l3,2.26L69,21.62A1,1,0,0,1,70.37,21.36ZM51.65,21.2a1,1,0,0,1,0,1.91H40.16a1,1,0,0,1,0-1.91Z"/><path class="a" d="M94.64,1.89H1.9V55.13c0,.15,0,.56,0,.83,1.49,15.23,13,26.12,24.19,33.22a98.54,98.54,0,0,0,20.11,9.71c1.13.4,1.82.61,1.83.61l.26.08A98.25,98.25,0,0,0,71.14,88.75C82.56,81.5,94.08,70.6,94.64,56c0-.29,0-.72,0-.82ZM96.53,0V55.13c0,.11,0,.58,0,.9-.6,15.64-12.85,27-24.37,34.3a99,99,0,0,1-23.87,11.21l-.73-.22a44.12,44.12,0,0,1-7-2.59,102.91,102.91,0,0,1-15.45-8C13.74,83.59,1.59,72.27,0,56.15c0-.33,0-.83,0-1V0Z"/><path class="a" d="M38.22,77.71h-1.5a1.3,1.3,0,0,0,0,2.6H59.81a1.3,1.3,0,0,0,0-2.6H38.22Z"/><path class="a" d="M47.56,95a94.36,94.36,0,0,1-19.26-9.3C17.44,78.79,7.32,68.79,6,55.52L6,6H90.5V55.15c-.48,12.45-10.35,23-21.57,30.09a102.79,102.79,0,0,1-20.67,10Zm.62-1.78a97.48,97.48,0,0,0,19.73-9.55c11.05-7,20.23-17,20.69-28.52V7.92H7.93l0,47.51C9.13,67.79,18.61,77.3,29.31,84.09A92.48,92.48,0,0,0,48.18,93.2Z"/></svg>