<svg xmlns="http://www.w3.org/2000/svg" viewBox="0 0 47 62" width="47" height="62">
  <title>phoone</title>
  <path d="M7.974,46H27.915V43.033a5.025,5.025,0,0,0-3.628-4.8l-3.351-.972v-.282a5,5,0,0,0,1.994-3.971V31.2a5.133,5.133,0,0,0-4.542-5.165,4.949,4.949,0,0,0-3.822,1.277,5.061,5.061,0,0,0-1.606,3.694v2a5,5,0,0,0,1.994,3.971v.278l-3.351.972a5.025,5.025,0,0,0-3.628,4.8V46Zm1.994-2.971a3,3,0,0,1,2.16-2.777l4.819-1.361V36.118l-.5-.278a2.973,2.973,0,0,1-1.5-2.583v-2a3.087,3.087,0,0,1,.969-2.222,3.033,3.033,0,0,1,5.069,2.416v1.805a2.973,2.973,0,0,1-1.5,2.583l-.5.278v2.777L23.8,40.283a3,3,0,0,1,2.16,2.777v.972h-16v-1ZM33.9,52H1.991V10.013H21.905v-2H1.991v-3a3,3,0,0,1,2.991-3H30.907a3,3,0,0,1,2.991,3H36a5.02,5.02,0,0,0-5.04-5H4.982A5.02,5.02,0,0,0,0,5.014V57a5.02,5.02,0,0,0,4.985,5H30.907a5.02,5.02,0,0,0,4.985-5V21.76H33.9Zm0,5a3,3,0,0,1-2.991,3H4.982a3,3,0,0,1-2.991-3V54H33.9ZM3.985,50H31.9V24.759H29.91V48H5.979V13.9H24.924V12.012H3.985Zm16.95,6H14.953v2h5.983V56Zm0-49.988v-2H14.953v2h5.982Zm-7.977,0v-2H11.076v2h1.882Zm8.974,10H8.084v2H21.933v-2Zm-13.848,6h9.971v-2H7.974Z" fill="#5b5759"/>
  <path d="M28.141,25V19.889a2.143,2.143,0,0,1-2.12-2.111V9.139A2.115,2.115,0,0,1,28.112,7H44.878A2.115,2.115,0,0,1,47,9.108v8.67a2.143,2.143,0,0,1-2.008,2.111H34.7Z" fill="#f4a530"/>
  <path d="M31,12h1a1,1,0,0,1,1,1v1a1,1,0,0,1-1,1H31a1,1,0,0,1-1-1V13A1,1,0,0,1,31,12Zm5,0h1a1,1,0,0,1,1,1v1a1,1,0,0,1-1,1H36a1,1,0,0,1-1-1V13A1,1,0,0,1,36,12Zm5,0h1a1,1,0,0,1,1,1v1a1,1,0,0,1-1,1H41a1,1,0,0,1-1-1V13A1,1,0,0,1,41,12Z" fill="#fff"/>
</svg>
