<svg xmlns="http://www.w3.org/2000/svg" viewBox="0 0 16 16">
  <title>phone</title>
  <path d="M15.992,12.627a.774.774,0,0,1-.237.678L13.5,15.542a1.259,1.259,0,0,1-.4.288,1.641,1.641,0,0,1-.483.152l-.1.009A1.479,1.479,0,0,1,12.3,16a7.8,7.8,0,0,1-1.042-.11A7.918,7.918,0,0,1,9.5,15.348a14.771,14.771,0,0,1-2.362-1.3,17.627,17.627,0,0,1-2.812-2.373A18.491,18.491,0,0,1,2.357,9.438,15.964,15.964,0,0,1,1.1,7.463,10.56,10.56,0,0,1,.392,5.819,8.81,8.81,0,0,1,.07,4.548,4.169,4.169,0,0,1,0,3.712c.011-.2.017-.316.017-.339A1.632,1.632,0,0,1,.169,2.89a1.269,1.269,0,0,1,.288-.4L2.71.236A.744.744,0,0,1,3.255,0a.63.63,0,0,1,.389.127,1.177,1.177,0,0,1,.288.314L5.745,3.882a.829.829,0,0,1,.084.593,1.053,1.053,0,0,1-.288.542l-.83.831a.291.291,0,0,0-.059.11.414.414,0,0,0-.025.127,3.025,3.025,0,0,0,.3.814,7.428,7.428,0,0,0,.626.992,11.022,11.022,0,0,0,1.2,1.347A11.232,11.232,0,0,0,8.113,10.45a7.786,7.786,0,0,0,.991.636,2.618,2.618,0,0,0,.61.246l.211.042a.391.391,0,0,0,.11-.025.276.276,0,0,0,.11-.059l.966-.983a1.035,1.035,0,0,1,.711-.271.888.888,0,0,1,.458.1h.02l3.269,1.932A.852.852,0,0,1,15.992,12.627Z" fill="#666464"/>
</svg>
