<svg xmlns="http://www.w3.org/2000/svg" width="28" height="28" viewBox="0 0 28 28">
<defs>
    <style>
      .cls-1 {
        fill: #8a8487;
      }

      .cls-2 {
        fill: #24252b;
        fill-rule: evenodd;
      }
    </style>
  </defs>
  <rect id="Rounded_Rectangle_12" data-name="Rounded Rectangle 12" class="cls-1" width="28" height="28" rx="8" ry="8"/>
  <path class="cls-2" d="M39.317,550.865h1.016a0.85,0.85,0,0,0,.463-0.207,0.777,0.777,0,0,0,.14-0.457s-0.02-1.393.613-1.6,1.425,1.346,2.275,1.942a1.583,1.583,0,0,0,1.131.352l2.27-.032s1.188-.075.624-1.029a7.7,7.7,0,0,0-1.689-2c-1.423-1.35-1.233-1.133.483-3.468,1.045-1.422,1.462-2.29,1.332-2.662a0.973,0.973,0,0,0-.892-0.26l-2.558.016a0.566,0.566,0,0,0-.33.059,0.723,0.723,0,0,0-.225.281,15.231,15.231,0,0,1-.945,2.036c-1.138,1.976-1.594,2.079-1.78,1.957-0.433-.287-0.325-1.149-0.325-1.761,0-1.914.284-2.713-.553-2.919a4.26,4.26,0,0,0-1.193-.12,5.4,5.4,0,0,0-2.122.22c-0.291.146-.515,0.471-0.379,0.489a1.141,1.141,0,0,1,.755.388,2.57,2.57,0,0,1,.253,1.181s0.151,2.254-.352,2.534c-0.345.192-.817-0.2-1.833-1.993a16.824,16.824,0,0,1-.912-1.931,0.78,0.78,0,0,0-.211-0.291,1.05,1.05,0,0,0-.394-0.162l-2.429.016a0.814,0.814,0,0,0-.5.173,0.555,0.555,0,0,0-.009.442s1.9,4.546,4.055,6.837a5.768,5.768,0,0,0,4.218,1.963h0Zm0,0" transform="translate(-26 -532)"/>
</svg>
