<?xml version="1.0" encoding="UTF-8"?>
<svg width="97px" height="14px" viewBox="0 0 97 14" version="1.1" xmlns="http://www.w3.org/2000/svg" xmlns:xlink="http://www.w3.org/1999/xlink">
    <!-- Generator: Sketch 49.3 (51167) - http://www.bohemiancoding.com/sketch -->
    <title>Fill 1</title>
    <desc>Created with Sketch.</desc>
    <defs></defs>
    <g id="Page-1" stroke="none" stroke-width="1" fill="none" fill-rule="evenodd">
        <g id="Desktop_1360/Aurus_main" transform="translate(-40.000000, -39.000000)" fill="#FFFFFF">
            <g id="Page-1" transform="translate(40.000000, 39.000000)">
                <path d="M6.17511889,8.40270968 L8.16396846,4.03516129 L10.2113798,8.40270968 L6.17511889,8.40270968 Z M9.73387576,0.168903226 L7.93963163,0.168903226 L2.18075215,12.6401935 L0,12.9671613 L0,13.7651613 L6.62919825,13.7651613 L6.62919825,12.9518065 L4.40024521,12.6356774 L5.73905855,9.68393548 L10.7591581,9.68393548 L12.1673447,12.6605161 L9.98614207,12.9513548 L9.98614207,13.7651613 L18.0816382,13.7651613 L18.0816382,12.9725806 L15.8999851,12.6392903 L9.73387576,0.168903226 Z M31.0292066,0.168903226 L31.0292066,0.986322581 L33.2113102,1.27851613 C33.2113102,1.27851613 33.2180673,6.28825806 33.1995978,8.8583871 C33.1329274,11.55 31.7634818,12.493871 29.4818231,12.493871 C27.1307912,12.493871 25.7829683,11.6403226 25.7577417,8.68496774 C25.7329655,5.62980645 25.7464798,1.27941935 25.7464798,1.27941935 L27.9272319,0.987225806 L27.9272319,0.168903226 L19.9128214,0.168903226 L19.9128214,0.978645161 L22.094024,1.27083871 C22.094024,1.27083871 22.0989792,8.52012903 22.0989792,8.65516129 C22.0989792,9.81309677 22.2764666,11.0907097 23.033716,12.0503871 C24.378836,13.7520645 26.4253464,14 28.9709838,14 C31.206694,14 32.9360696,13.6201935 34.1230727,12.3633548 C34.9141078,11.5260645 35.3672862,10.2990323 35.3420596,8.53548387 C35.3407081,8.46187097 35.3447624,1.27083871 35.3447624,1.27083871 L37.5264155,0.978193548 L37.5264155,0.168903226 L31.0292066,0.168903226 Z M74.5316308,0.168903226 L74.5316308,0.986322581 L76.7137344,1.27851613 C76.7137344,1.27851613 76.720942,6.28825806 76.7024725,8.8583871 C76.6353516,11.55 75.2654555,12.493871 72.9846978,12.493871 C70.6332154,12.493871 69.2853925,11.6403226 69.2601659,8.68496774 C69.2349393,5.62980645 69.2484535,1.27941935 69.2484535,1.27941935 L71.4301066,0.987225806 L71.4301066,0.168903226 L63.4152456,0.168903226 L63.4152456,0.978645161 L65.5964482,1.27083871 C65.5964482,1.27083871 65.6018539,8.52012903 65.6018539,8.65516129 C65.6018539,9.81309677 65.7793413,11.0907097 66.5370412,12.0503871 C67.8808097,13.7520645 69.9277707,14 72.4738585,14 C74.7091182,14 76.4384938,13.6201935 77.6254969,12.3633548 C78.4169825,11.5260645 78.8697104,10.2990323 78.8444838,8.53548387 C78.8435828,8.46187097 78.8476371,1.27083871 78.8476371,1.27083871 L81.0288397,0.978193548 L81.0288397,0.168903226 L74.5316308,0.168903226 Z M43.1803342,0.168903226 L43.1803342,0.977290323 L45.3624378,1.28619355 L45.3624378,12.6474194 L43.1803342,12.9567742 L43.1803342,13.7651613 L51.0830268,13.7651613 L51.0830268,12.9509032 L48.9009232,12.6415484 L48.9009232,7.97503226 L49.680246,7.97503226 C50.5690342,7.97503226 50.9672546,8.58470968 51.2587123,8.98393548 C51.9042438,9.86909677 53.3223408,11.8756129 53.5417224,12.1510968 C54.2737452,13.0719355 55.3134427,13.7651613 57.2950847,13.7651613 L59.8231535,13.7651613 L59.8231535,12.9509032 C59.8231535,12.9509032 59.4961083,12.9256129 59.0514889,12.824 C58.6019143,12.7219355 58.0131427,12.3096129 57.6829442,11.9103871 C57.3797741,11.5436774 55.5247158,8.96587097 54.5278134,7.8083871 C54.3877155,7.64490323 54.2530233,7.53516129 54.1593244,7.46877419 C53.9052562,7.28903226 53.5966804,7.14270968 53.3669379,7.11064516 C55.0553203,6.46122581 55.7886945,5.47625806 55.7886945,3.96787097 C55.7886945,1.93470968 54.0795902,0.302580645 51.0186088,0.189677419 C50.8185977,0.177032258 50.6163342,0.168903226 50.4127192,0.168903226 L43.1803342,0.168903226 Z M48.9009232,6.71774194 L48.9009232,1.44787097 L49.098682,1.44787097 C51.8362219,1.44787097 52.2448033,2.70470968 52.2448033,4.13406452 C52.2448033,6.08909677 50.7978758,6.71322581 49.1495857,6.71864516 L48.9009232,6.71774194 Z M92.0420661,0.000903225806 C91.0992207,0.00903225806 89.8072568,0.160774194 88.9666695,0.569935484 C88.2080686,0.940258065 86.8980857,1.8583871 86.8980857,3.50451613 C86.8980857,5.31954839 88.0576098,6.22187097 88.5508805,6.53935484 C89.7324779,7.29941935 92.2114449,8.85974194 92.9605857,9.37458065 C93.8709968,9.99916129 93.831355,11.0852903 93.4948497,11.6303871 C93.1169007,12.2436774 91.9925137,12.5516774 90.8082135,12.5697419 C89.7545512,12.5864516 88.3923131,12.2834194 88.2621257,12.1637419 L87.6472266,9.97703226 L86.7147422,9.97703226 L86.8949324,13.7669677 C86.8949324,13.7669677 90.5000882,13.8970323 91.5812296,13.8970323 C92.6619204,13.8970323 94.1038927,13.7100645 94.8697011,13.3117419 C95.6625381,12.8994194 96.1950002,12.4428387 96.5265502,11.8340645 C96.8540459,11.2329677 97,10.7926452 97,10.0614839 C97,8.6623871 96.1832878,7.54554839 95.2845891,6.91554839 C94.1138031,6.09541935 91.8920577,4.74825806 91.0226399,4.18374194 C90.6928918,3.96922581 90.2419657,3.50135484 90.2419657,2.75529032 C90.2419657,2.13567742 90.8109164,1.46412903 92.0672927,1.32367742 C93.084917,1.21032258 94.429136,1.46412903 94.880963,1.68090323 L95.3467547,3.86806452 L96.1175184,3.86806452 L96.1229241,0.17116129 C96.1229241,0.17116129 93.1200541,0 92.1064841,0 C92.0844108,0 92.0632384,0 92.0420661,0.000903225806 Z" id="Fill-1"></path>
            </g>
        </g>
    </g>
</svg>